<?xml version="1.0" encoding="utf-8"?>
<!-- Generator: Adobe Illustrator 28.3.0, SVG Export Plug-In . SVG Version: 6.00 Build 0)  -->
<svg version="1.1" id="Ebene_1" xmlns="http://www.w3.org/2000/svg" xmlns:xlink="http://www.w3.org/1999/xlink" x="0px" y="0px"
	 viewBox="0 0 45.4 36.7" style="enable-background:new 0 0 45.4 36.7;" xml:space="preserve">
<style type="text/css">
	.st0{fill:#13357A;}
	.st1{fill:#C1C0C4;}
</style>
<g>
	<g>
		<g>
			<path class="st0" d="M40.3,36.6v-2.1h0l1.2,2.1h0.6v-3.2h-0.6v2.1h0l-1.2-2.1h-0.6v3.2H40.3z M37.7,36.6V36h-1.4v-0.8h1.3v-0.6
				h-1.3v-0.7h1.4v-0.6h-2.1v3.2H37.7z M33.3,36.3c0.2-0.2,0.3-0.6,0.3-1v-0.4h-1.2v0.5H33c0,0.2-0.1,0.4-0.2,0.5
				c-0.1,0.1-0.3,0.2-0.5,0.2c-0.2,0-0.4-0.1-0.6-0.3c-0.1-0.2-0.2-0.5-0.2-0.9c0-0.3,0.1-0.6,0.2-0.8c0.1-0.2,0.3-0.3,0.5-0.3
				c0.3,0,0.5,0.2,0.6,0.6l0.6-0.1c0-0.3-0.2-0.6-0.4-0.8c-0.2-0.2-0.5-0.3-0.8-0.3c-0.4,0-0.7,0.1-1,0.4C31.1,34,31,34.4,31,34.9
				c0,0.6,0.1,1,0.4,1.3c0.3,0.3,0.6,0.4,1,0.4C32.7,36.7,33,36.6,33.3,36.3 M27.2,36.6v-2.1h0l1.2,2.1H29v-3.2h-0.6v2.1h0l-1.2-2.1
				h-0.6v3.2H27.2z M22.3,36.4c0.2,0.2,0.5,0.3,0.9,0.3c0.4,0,0.7-0.1,0.9-0.3c0.2-0.2,0.3-0.5,0.3-0.8v-2.2h-0.6v2.2
				c0,0.2-0.1,0.3-0.2,0.4c-0.1,0.1-0.3,0.2-0.4,0.2c-0.2,0-0.3-0.1-0.4-0.2c-0.1-0.1-0.2-0.2-0.2-0.4v-2.2H22v2.2
				C22,35.9,22.1,36.2,22.3,36.4 M19.3,36.6v-2.7h1v-0.6h-2.5v0.6h1v2.7H19.3z M14.5,36.6v-1.3h1.3v-0.6h-1.3v-0.9h1.4v-0.6h-2.1
				v3.2H14.5z M11.7,33.4h-0.6v3.2h0.6V33.4z M8.4,36.6v-2.7h1v-0.6H6.9v0.6h1v2.7H8.4z M3.3,36.4c0.2,0.2,0.5,0.3,0.9,0.3
				c0.4,0,0.7-0.1,0.9-0.3s0.3-0.4,0.3-0.7c0-0.2-0.1-0.4-0.2-0.6C5,35,4.8,34.8,4.4,34.7c-0.4-0.1-0.6-0.2-0.7-0.3
				c-0.1-0.1-0.1-0.1-0.1-0.2c0-0.1,0-0.2,0.1-0.2c0.1-0.1,0.2-0.1,0.4-0.1c0.3,0,0.5,0.2,0.6,0.5l0.6-0.2c-0.1-0.3-0.2-0.5-0.4-0.7
				c-0.2-0.1-0.5-0.2-0.8-0.2c-0.3,0-0.6,0.1-0.8,0.3C3.1,33.7,3,34,3,34.2c0,0.2,0.1,0.4,0.2,0.6c0.1,0.2,0.4,0.3,0.7,0.4
				c0.4,0.1,0.6,0.2,0.7,0.3c0.1,0.1,0.2,0.2,0.2,0.3c0,0.1-0.1,0.2-0.2,0.3c-0.1,0.1-0.2,0.1-0.4,0.1c-0.2,0-0.4-0.1-0.4-0.2
				c-0.1-0.1-0.2-0.3-0.2-0.6l-0.7,0.1C2.9,35.9,3,36.2,3.3,36.4"/>
		</g>
	</g>
	<g>
		<g>
			<path class="st0" d="M45.4,30.2v-0.6h-1.4v-0.8h1.3v-0.6h-1.3v-0.7h1.4V27h-2.1v3.2H45.4z M39.3,30.2v-1.4h1.1v1.4H41V27h-0.6
				v1.3h-1.1V27h-0.6v3.2H39.3z M35.5,29.7c-0.2,0-0.4-0.1-0.6-0.3c-0.1-0.2-0.2-0.5-0.2-0.9c0-0.3,0.1-0.6,0.2-0.8
				c0.1-0.2,0.3-0.3,0.5-0.3c0.2,0,0.3,0.1,0.4,0.2c0.1,0.1,0.2,0.3,0.2,0.5l0.6-0.1c0-0.4-0.2-0.6-0.4-0.8
				c-0.2-0.2-0.5-0.3-0.9-0.3c-0.4,0-0.7,0.1-1,0.4c-0.3,0.3-0.4,0.7-0.4,1.2c0,0.6,0.1,1,0.4,1.3c0.3,0.3,0.6,0.4,1,0.4
				c0.4,0,0.7-0.1,0.9-0.3c0.2-0.2,0.4-0.5,0.4-0.9l-0.6-0.1C36.1,29.4,35.9,29.7,35.5,29.7 M30.2,30c0.2,0.2,0.5,0.3,0.9,0.3
				c0.4,0,0.7-0.1,0.9-0.3c0.2-0.2,0.3-0.4,0.3-0.7c0-0.2-0.1-0.4-0.2-0.6c-0.1-0.1-0.4-0.3-0.7-0.4c-0.4-0.1-0.6-0.2-0.7-0.3
				c-0.1-0.1-0.1-0.1-0.1-0.2c0-0.1,0-0.2,0.1-0.2c0.1-0.1,0.2-0.1,0.4-0.1c0.3,0,0.5,0.2,0.6,0.5l0.6-0.2c-0.1-0.3-0.2-0.5-0.4-0.7
				c-0.2-0.1-0.5-0.2-0.8-0.2c-0.3,0-0.6,0.1-0.8,0.3c-0.2,0.2-0.3,0.4-0.3,0.7c0,0.2,0.1,0.4,0.2,0.6c0.1,0.2,0.4,0.3,0.7,0.4
				c0.4,0.1,0.6,0.2,0.7,0.3c0.1,0.1,0.2,0.2,0.2,0.3c0,0.1-0.1,0.2-0.2,0.3c-0.1,0.1-0.2,0.1-0.4,0.1c-0.2,0-0.4-0.1-0.4-0.2
				c-0.1-0.1-0.2-0.3-0.2-0.6l-0.7,0.1C29.9,29.5,30,29.8,30.2,30 M28,30.2v-0.6h-1.4v-0.8h1.3v-0.6h-1.3v-0.7H28V27h-2.1v3.2H28z
				 M22.2,30.2v-1l0.2-0.3h0l1,1.3h0.8l-1.3-1.8l1.2-1.4h-0.7l-1.2,1.4h0V27h-0.6v3.2H22.2z M18.4,29.7c-0.2,0-0.4-0.1-0.6-0.3
				c-0.1-0.2-0.2-0.5-0.2-0.9c0-0.3,0.1-0.6,0.2-0.8c0.1-0.2,0.3-0.3,0.5-0.3c0.2,0,0.3,0.1,0.4,0.2c0.1,0.1,0.2,0.3,0.2,0.5
				l0.6-0.1c0-0.4-0.2-0.6-0.4-0.8c-0.2-0.2-0.5-0.3-0.9-0.3c-0.4,0-0.7,0.1-1,0.4C17.2,27.6,17,28,17,28.5c0,0.6,0.1,1,0.4,1.3
				c0.3,0.3,0.6,0.4,1,0.4c0.4,0,0.6-0.1,0.9-0.3c0.2-0.2,0.4-0.5,0.4-0.9l-0.6-0.1C19,29.4,18.8,29.7,18.4,29.7 M13.3,30.2v-2.1h0
				l1.2,2.1h0.6V27h-0.6v2.1h0L13.3,27h-0.6v3.2H13.3z M9.4,27.9l0.4,1.3H8.9L9.4,27.9L9.4,27.9z M10.8,30.2L9.6,27H9.1l-1.2,3.2
				h0.6l0.2-0.5H10l0.2,0.5H10.8z M4.5,27.5h0.6c0.4,0,0.5,0.2,0.5,0.5c0,0.3-0.2,0.5-0.5,0.5H4.5V27.5z M4.5,30.2V29H5l0.7,1.2h0.7
				l-0.7-1.3c0.2-0.1,0.4-0.2,0.5-0.3c0.1-0.2,0.2-0.4,0.2-0.6c0-0.3-0.1-0.6-0.3-0.8C5.8,27.1,5.6,27,5.2,27H3.9v3.2H4.5z
				 M0.6,30.2V29h1.3v-0.6H0.6v-0.9h1.4V27H0v3.2H0.6z"/>
		</g>
	</g>
	<path class="st0" d="M17.5,16.7c0.6,0,1-0.5,1-1c0-0.6-0.5-1-1-1c-0.6,0-1,0.5-1,1C16.5,16.2,17,16.7,17.5,16.7"/>
	<path class="st0" d="M23.9,6.8c0-0.8-0.7-1.4-1.5-1.4C21.6,5.4,21,6,21,6.8c0,0.8,0.7,1.4,1.5,1.4C23.2,8.2,23.9,7.6,23.9,6.8"/>
	<path class="st0" d="M16.3,20.5h2.4v-2.4c0-0.4-0.3-0.8-0.8-0.8h-0.8c-0.4,0-0.8,0.3-0.8,0.8V20.5z"/>
	<path class="st0" d="M27.7,15.4c0.6,0,1-0.5,1-1c0-0.6-0.5-1-1-1s-1,0.5-1,1C26.7,14.9,27.1,15.4,27.7,15.4"/>
	<path class="st0" d="M26.5,20.5h2.4v-3.7c0-0.4-0.3-0.8-0.8-0.8h-0.8c-0.4,0-0.8,0.3-0.8,0.8V20.5z"/>
	<path class="st0" d="M22.2,8.7c5.5,0,6.2,2.9,6.2,2.9c-3.1,0-2.9,2.8-2.9,2.8l0,6h-5.7l0-5.9c0-3.3-3.4-3-3.4-3V6h0.3
		C16.6,6,17,8.8,22.2,8.7"/>
	<g>
		<g>
			<rect x="16.3" y="21.6" class="st1" width="12.5" height="1.8"/>
			<polygon class="st1" points="28.9,3.6 22.5,0 16.3,3.6 16.3,3.6 16.3,4.3 28.9,4.3 28.9,3.6 			"/>
		</g>
	</g>
</g>
</svg>
