<?xml version="1.0" encoding="UTF-8" standalone="no"?>
<!-- Generator: Adobe Illustrator 28.3.0, SVG Export Plug-In . SVG Version: 6.00 Build 0)  -->

<svg
   version="1.1"
   id="Ebene_1"
   x="0px"
   y="0px"
   viewBox="0 0 12.6 23.399999"
   xml:space="preserve"
   sodipodi:docname="francke_logo_clean.svg"
   inkscape:export-filename="francke_logo_clean.svg"
   inkscape:export-xdpi="96"
   inkscape:export-ydpi="96"
   width="12.6"
   height="23.4"
   inkscape:version="1.4.2 (f4327f4, 2025-05-13)"
   xmlns:inkscape="http://www.inkscape.org/namespaces/inkscape"
   xmlns:sodipodi="http://sodipodi.sourceforge.net/DTD/sodipodi-0.dtd"
   xmlns="http://www.w3.org/2000/svg"
   xmlns:svg="http://www.w3.org/2000/svg"><defs
   id="defs11" /><sodipodi:namedview
   id="namedview11"
   pagecolor="#ffffff"
   bordercolor="#000000"
   borderopacity="0.25"
   inkscape:showpageshadow="2"
   inkscape:pageopacity="0.0"
   inkscape:pagecheckerboard="0"
   inkscape:deskcolor="#d1d1d1"
   showgrid="false"
   inkscape:zoom="11.594005"
   inkscape:cx="6.3826088"
   inkscape:cy="18.328438"
   inkscape:window-width="1920"
   inkscape:window-height="1111"
   inkscape:window-x="-9"
   inkscape:window-y="1297"
   inkscape:window-maximized="1"
   inkscape:current-layer="g11" />
<style
   type="text/css"
   id="style1">
	.st0{fill:#13357A;}
	.st1{fill:#C1C0C4;}
</style>
<g
   id="g11"
   transform="translate(-16.299999)">
	
	
	<path
   class="st0"
   d="m 17.5,16.7 c 0.6,0 1,-0.5 1,-1 0,-0.6 -0.5,-1 -1,-1 -0.6,0 -1,0.5 -1,1 0,0.5 0.5,1 1,1"
   id="path4" />
	<path
   class="st0"
   d="M 23.9,6.8 C 23.9,6 23.2,5.4 22.4,5.4 21.6,5.4 21,6 21,6.8 c 0,0.8 0.7,1.4 1.5,1.4 0.7,0 1.4,-0.6 1.4,-1.4"
   id="path5" />
	<path
   class="st0"
   d="m 16.3,20.5 h 2.4 v -2.4 c 0,-0.4 -0.3,-0.8 -0.8,-0.8 h -0.8 c -0.4,0 -0.8,0.3 -0.8,0.8 z"
   id="path6" />
	<path
   class="st0"
   d="m 27.7,15.4 c 0.6,0 1,-0.5 1,-1 0,-0.6 -0.5,-1 -1,-1 -0.5,0 -1,0.5 -1,1 0,0.5 0.4,1 1,1"
   id="path7" />
	<path
   class="st0"
   d="m 26.5,20.5 h 2.4 V 16.8 C 28.9,16.4 28.6,16 28.1,16 h -0.8 c -0.4,0 -0.8,0.3 -0.8,0.8 z"
   id="path8" />
	<path
   class="st0"
   d="m 22.2,8.7 c 5.5,0 6.2,2.9 6.2,2.9 -3.1,0 -2.9,2.8 -2.9,2.8 v 6 h -5.7 v -5.9 c 0,-3.3 -3.4,-3 -3.4,-3 V 6 h 0.3 c -0.1,0 0.3,2.8 5.5,2.7"
   id="path9" />
	<g
   id="g10">
		<g
   id="g9">
			<rect
   x="16.299999"
   y="21.6"
   class="st1"
   width="12.5"
   height="1.8"
   id="rect9" />
			<polygon
   class="st1"
   points="16.3,3.6 16.3,3.6 16.3,4.3 28.9,4.3 28.9,3.6 22.5,0 "
   id="polygon9" />
		</g>
	</g>
</g>
</svg>
