<?xml version="1.0" standalone="no"?>
<!DOCTYPE svg PUBLIC "-//W3C//DTD SVG 1.1//EN" "http://www.w3.org/Graphics/SVG/1.1/DTD/svg11.dtd" >
<svg xmlns="http://www.w3.org/2000/svg" xmlns:xlink="http://www.w3.org/1999/xlink" version="1.1">
<metadata>
Created by FontForge 20201107 at Wed Oct  1 18:21:05 2025
 By 
Copyright (c) 2015 by Bitstream Inc. All rights reserved.
</metadata>
<defs>
<font id="FleischmanBTPro-BoldItalic" horiz-adv-x="1146" >
  <font-face 
    font-family="Fleischman BT Pro"
    font-weight="700"
    font-style="italic"
    font-stretch="normal"
    units-per-em="2048"
    panose-1="2 2 8 2 6 5 2 9 2 6"
    ascent="1638"
    descent="-410"
    x-height="932"
    cap-height="1448"
    bbox="-451 -641 2632 1999"
    underline-thickness="40"
    underline-position="-271"
    slope="-11"
    unicode-range="U+0020-FB05"
  />
<missing-glyph horiz-adv-x="1024" 
d="M256 0v1434h512v-1434h-512zM328 1362v-1290h368v1290h-368z" />
    <glyph glyph-name="f_b" unicode="fb" horiz-adv-x="1669" 
d="M1649 748q0 -89 -45.5 -198t-121.5 -209.5t-166.5 -185t-190.5 -135.5t-183 -51q-106 0 -170.5 54.5t-64.5 140.5q0 75 71 317l189 656q-39 13 -57.5 36.5t-18.5 67.5q0 34 20.5 70t20.5 41q0 21 -26 36t-66 15q-50 0 -90 -12t-80.5 -45t-71.5 -87.5t-58 -145t-44 -212.5
q46 0 131 5t86 5q24 0 24 -45q0 -26 -14 -45.5t-27 -19.5q-4 0 -39 2t-85 4t-91 2q-220 -1126 -405 -1311q-61 -61 -148 -61q-64 0 -108.5 37.5t-44.5 101.5q0 50 33 86.5t79 36.5q34 0 65.5 -18t54 -36t34.5 -18q10 0 25 11.5t26 33.5q18 36 43 229t56.5 487t48.5 421
q-41 0 -94.5 -2t-57.5 -2q-9 0 -18 12t-9 33q0 28 9 42.5t18 14.5q5 0 74.5 -3t93.5 -3q67 283 230.5 428.5t383.5 145.5q48 0 105.5 -12.5t89.5 -28.5q30 0 102 14q22 4 41.5 11t30 11.5t14.5 4.5h11q20 0 20 -31q0 -4 -12 -36.5t-36.5 -101.5t-47.5 -139l-225 -682l10 -4
q61 107 116.5 184t119 140t134 95t146.5 32q75 0 117.5 -47t42.5 -137zM1417 635q0 113 -76 113q-56 0 -133.5 -64.5t-144.5 -155t-114.5 -195.5t-47.5 -179q0 -113 92 -113q42 0 98.5 37.5t112.5 101.5t104.5 139.5t78.5 160t30 155.5z" />
    <glyph glyph-name="f_h" unicode="fh" horiz-adv-x="1648" 
d="M1628 748q0 -108 -51.5 -246.5t-126 -255t-164 -197t-160.5 -80.5q-52 0 -82 29.5t-30 73.5q0 46 28 74t74 28q22 0 65.5 -30.5t57.5 -30.5q20 0 50.5 40t60.5 103.5t51.5 155.5t21.5 182q0 75 -21.5 114.5t-60.5 39.5q-54 0 -129.5 -63t-138 -145t-109 -155t-53.5 -98
l-67 -277q-3 -17 -28 -29t-68 -12q-65 0 -89 13t-24 38q0 4 19 66.5t51 167.5t53 176l209 707q-76 22 -76 104q0 29 20.5 67t20.5 44q0 23 -25.5 37t-66.5 14q-48 0 -86 -10t-80 -42t-74 -85.5t-59.5 -146t-44.5 -218.5q46 0 131 5t86 5q24 0 24 -45q0 -26 -14 -45.5
t-27 -19.5q-4 0 -39 2t-85 4t-91 2q-220 -1126 -405 -1311q-61 -61 -148 -61q-64 0 -108.5 37.5t-44.5 101.5q0 50 33 86.5t79 36.5q34 0 65.5 -18t54 -36t34.5 -18q10 0 25 11.5t26 33.5q18 36 43 229t56.5 487t48.5 421q-41 0 -94.5 -2t-57.5 -2q-9 0 -18 12t-9 33
q0 28 9 42.5t18 14.5q5 0 74.5 -3t93.5 -3q67 282 228.5 428t375.5 146q111 0 195 -41q40 0 92 10q22 4 47 12t40.5 13.5t18.5 5.5h7q24 0 24 -27q0 -4 -12 -37.5t-37 -104t-47 -139.5l-225 -680l8 -6q246 451 483 451q81 0 127.5 -44.5t46.5 -139.5z" />
    <glyph glyph-name="f_j" unicode="fj" horiz-adv-x="1177" 
d="M1178 1260q0 -62 -41 -103t-103 -41q-51 0 -87 33.5t-36 79.5q0 43 15.5 76t15.5 36q0 20 -29 41t-84 21q-56 0 -100.5 -21.5t-87.5 -75t-78 -155t-61 -250.5h256q88 0 158.5 12.5t108.5 25.5t46 13q18 0 26.5 -10t8.5 -20q0 -4 -14.5 -53t-36.5 -127.5t-35 -137.5
l-68 -307q-19 -87 -38.5 -161.5t-48 -163t-58.5 -159t-71 -139t-85.5 -115t-101.5 -74.5t-119 -28q-69 0 -121 21.5t-79 54t-39.5 63t-12.5 56.5q0 58 35 90.5t84 32.5q60 0 91.5 -33.5t31.5 -89.5q0 -22 -5 -51t-5 -41q0 -16 10.5 -25.5t30.5 -9.5q98 0 148 134t122 495
l78 389q26 133 26 209q0 18 -10.5 29t-56.5 19.5t-133 8.5h-144q-38 -167 -83 -338t-107.5 -381.5t-131 -371t-128.5 -220.5q-61 -61 -144 -61q-64 0 -108.5 37.5t-44.5 101.5q0 50 33 86.5t79 36.5q34 0 65.5 -18t54 -36t34.5 -18q29 0 51 45q44 88 189 1137
q-41 0 -94.5 -2t-57.5 -2q-9 0 -18 12t-9 33q0 28 9 42.5t18 14.5q5 0 74.5 -3t93.5 -3q74 284 231 429t363 145q160 0 244 -62t84 -153z" />
    <glyph glyph-name="f_k" unicode="fk" horiz-adv-x="1669" 
d="M1628 778q0 -66 -36 -119t-99 -86t-136.5 -53t-158.5 -28v-7q42 -13 68.5 -38t40.5 -66.5t19 -88.5t5 -118q0 -68 13.5 -100.5t52.5 -32.5q19 0 26 14l8.5 25.5t15 39.5t26 32.5t43.5 15.5q34 0 52.5 -19t18.5 -47q0 -62 -59 -97.5t-135 -35.5q-111 0 -189 48.5
t-78 105.5v61q0 44 -0.5 72t-4 63t-9.5 56.5t-16.5 45t-26.5 37t-39 23t-53 11.5l-111 -472q-8 -31 -28 -41t-80 -10q-49 0 -76 16.5t-27 34.5q0 4 20 72.5t51.5 177t51.5 181.5l189 686q-76 16 -76 102q0 29 20.5 68t20.5 45q0 21 -26 36t-66 15q-65 0 -115 -21.5
t-96.5 -75t-80 -155t-52.5 -250.5q46 0 131 5t86 5q24 0 24 -45q0 -26 -14 -45.5t-27 -19.5q-4 0 -39 2t-85 4t-91 2q-220 -1126 -405 -1311q-61 -61 -148 -61q-64 0 -108.5 37.5t-44.5 101.5q0 50 33 86.5t79 36.5q34 0 65.5 -18t54 -36t34.5 -18q10 0 25 11.5t26 33.5
q18 36 43 229t56.5 487t48.5 421q-41 0 -94.5 -2t-57.5 -2q-9 0 -18 12t-9 33q0 28 9 42.5t18 14.5q5 0 74.5 -3t93.5 -3q67 284 229.5 429t384.5 145q77 0 185 -41q34 0 86 10q22 4 46.5 12t40 13.5t19.5 5.5h8q10 0 15.5 -9t5.5 -18q0 -4 -11 -35t-33.5 -98t-43.5 -137
l-170 -549l4 -4q122 166 228.5 236.5t224.5 70.5q69 0 111 -42.5t42 -111.5zM1434 707q0 43 -24 64.5t-58 21.5q-65 0 -150 -64.5t-209 -198.5q31 -4 51 -4q94 0 182 21t148 63.5t60 96.5z" />
    <glyph glyph-name="ff" unicode="ff" horiz-adv-x="1206" 
d="M1649 1290q0 -48 -34 -85.5t-89 -37.5q-47 0 -80 29t-33 74q0 29 11.5 62.5t11.5 39.5q0 17 -19 29t-55 12q-33 0 -62.5 -12t-63 -46.5t-61.5 -90t-55.5 -148t-48.5 -215.5q45 0 140 5t96 5q24 0 24 -45q0 -26 -14 -45.5t-27 -19.5q-4 0 -44 2t-95 4t-96 2
q-31 -157 -74.5 -337.5t-100.5 -379t-123.5 -356.5t-125.5 -217q-62 -62 -150 -62q-64 0 -108.5 38t-44.5 102q0 50 33 86t79 36q34 0 65.5 -17.5t54 -35.5t34.5 -18q35 0 55 41q12 23 27.5 106.5t35 223.5t34.5 255t36.5 291.5t30.5 243.5h-332q-27 -177 -59.5 -350.5
t-79.5 -381t-106 -363.5t-119 -216q-61 -61 -148 -61q-64 0 -108.5 37.5t-44.5 101.5q0 50 31.5 86.5t76.5 36.5q34 0 65.5 -18t54 -36t34.5 -18q29 0 49 41q24 49 42.5 253t36.5 481.5t34 406.5q-42 0 -95 -2t-57 -2q-9 0 -18 12t-9 33q0 28 9 42.5t18 14.5q5 0 74.5 -3
t91.5 -3q61 269 207.5 411t337.5 142q101 0 170.5 -32.5t105.5 -80.5q62 62 145 98t162 36q129 0 198 -55.5t69 -129.5zM920 1141q-56 27 -56 88q0 30 10.5 64t10.5 38q0 25 -32.5 39t-74.5 14q-35 0 -64 -8.5t-65 -38t-63.5 -80t-52.5 -141.5t-39 -215h337q27 124 89 240z
" />
    <glyph glyph-name="fi" unicode="fi" horiz-adv-x="1187" 
d="M1188 1260q0 -62 -41 -103t-103 -41q-51 0 -86.5 33.5t-35.5 79.5q0 42 15 75t15 37q0 20 -28.5 41t-83.5 21q-44 0 -81.5 -12.5t-76.5 -46.5t-70.5 -89t-60 -144.5t-49.5 -209.5h266q88 0 157 12.5t105.5 25.5t44.5 13q18 0 26.5 -10t8.5 -20q0 -4 -15.5 -45.5
t-43.5 -114t-47 -127.5l-103 -297q-47 -135 -47 -164q0 -14 8 -22.5t19 -8.5q14 0 38 16t50 40.5t47.5 47.5t39.5 43l19 21q8 8 15 8q16 0 26 -9.5t10 -22.5q0 -7 -23.5 -40.5t-64.5 -80t-90.5 -91t-109 -75.5t-111.5 -31q-56 0 -87.5 33.5t-31.5 69.5q0 19 9.5 50.5t37 104
t41.5 111.5l82 235q51 149 51 185q0 8 -2.5 13.5t-13.5 13t-30 12.5t-57 8.5t-91 3.5h-154q-32 -160 -74.5 -337t-100.5 -384t-124.5 -368.5t-126.5 -221.5q-61 -61 -147 -61q-64 0 -109 37.5t-45 101.5q0 50 33.5 86.5t79.5 36.5q34 0 65.5 -18t53.5 -36t34 -18
q10 0 25.5 11.5t26.5 33.5q12 23 28 109.5t35.5 224t35.5 263t37 293t32 247.5q-41 0 -94.5 -2t-57.5 -2q-9 0 -18 12t-9 33q0 28 9 42.5t18 14.5q6 0 77 -3t91 -3q71 282 233.5 428t370.5 146q160 0 244 -62t84 -153z" />
    <glyph glyph-name="fl" unicode="fl" horiz-adv-x="1187" 
d="M1260 1444q0 -4 -12.5 -38t-36.5 -101t-44 -127l-256 -789q-51 -160 -51 -215q0 -14 9 -22.5t22 -8.5q20 0 72 52q27 27 59 65.5t53 65.5l21 28q8 8 14 8q16 0 26.5 -9.5t10.5 -22.5q0 -11 -38 -66.5t-94.5 -122t-136.5 -119.5t-151 -53q-52 0 -82.5 32.5t-30.5 80.5
q0 9 2 21t7 31t9.5 35t13.5 45t14.5 46.5t17.5 53.5t18 55l144 440h-359q-228 -1134 -405 -1311q-61 -61 -148 -61q-64 0 -108.5 37.5t-44.5 101.5q0 50 33 86.5t79 36.5q34 0 65.5 -18t54 -36t34.5 -18q10 0 25 11.5t26 33.5q18 36 43 229t56.5 487t48.5 421q-45 0 -97 -2
t-55 -2q-9 0 -18 12t-9 33q0 28 9 42.5t18 14.5q6 0 78.5 -3t89.5 -3q37 146 96.5 257.5t132.5 180t154.5 102.5t169.5 34q64 0 122.5 -14.5t85.5 -28.5l27 -15q36 7 77.5 21.5t68 25.5t29.5 11h10q14 0 22.5 -11t8.5 -20zM948 1147q-29 11 -48 37t-19 59t10 65.5t10 37.5
q0 19 -29 38t-84 19q-50 0 -89.5 -21.5t-78 -75t-69.5 -155t-53 -250.5h372z" />
    <glyph glyph-name="ffi" unicode="ffi" horiz-adv-x="1761" 
d="M1761 1260q0 -62 -41 -103t-102 -41q-51 0 -87 33.5t-36 79.5q0 43 15.5 76t15.5 36q0 20 -29 41t-84 21q-58 0 -105.5 -21.5t-93.5 -74.5t-81.5 -155.5t-57.5 -250.5h266q88 0 157 12.5t106 25.5t45 13q18 0 26 -10t8 -20q0 -4 -15.5 -45.5t-43.5 -114t-47 -127.5
l-102 -297q-48 -138 -48 -164q0 -14 8 -22.5t19 -8.5q14 0 38 16t50 40.5t48 47.5t40 43l19 21q8 8 14 8q17 0 27 -9.5t10 -22.5q0 -7 -23.5 -40.5t-65 -80t-90.5 -91t-109 -75.5t-112 -31q-56 0 -87 33t-31 70q0 19 9.5 50.5t37 104t41.5 111.5l82 235q51 149 51 185
q0 16 -9 25t-54.5 17.5t-131.5 8.5h-153q-32 -159 -74 -333t-99.5 -376.5t-124.5 -361t-128 -219.5q-62 -62 -148 -62q-64 0 -108.5 38t-44.5 102q0 50 33 86t79 36q34 0 65.5 -17.5t54 -35.5t34.5 -18q10 0 26 11.5t27 33.5q12 23 28 107.5t35 219.5t34.5 256t37 288
t31.5 245h-332q-27 -177 -59.5 -350.5t-79.5 -381t-106 -363.5t-119 -216q-61 -61 -148 -61q-64 0 -108.5 37.5t-44.5 101.5q0 50 31.5 86.5t76.5 36.5q34 0 65.5 -18t54 -36t34.5 -18q29 0 49 41q24 49 42.5 253t36.5 481.5t34 406.5q-42 0 -95 -2t-57 -2q-9 0 -18 12
t-9 33q0 28 9 42.5t18 14.5q5 0 74.5 -3t91.5 -3q61 269 207.5 411t337.5 142q101 0 170.5 -32.5t105.5 -80.5q134 134 338 134q180 0 264 -60.5t84 -154.5zM920 1141q-56 27 -56 88q0 30 10.5 64t10.5 38q0 25 -32.5 39t-74.5 14q-35 0 -64 -8.5t-65 -38t-63.5 -80
t-52.5 -141.5t-39 -215h337q27 124 89 240z" />
    <glyph glyph-name="ffl" unicode="ffl" horiz-adv-x="1761" 
d="M1835 1444q0 -4 -13 -38.5t-37 -100.5t-44 -127l-256 -789q-51 -160 -51 -215q0 -14 8.5 -22.5t21.5 -8.5q20 0 72 52q27 27 59 65.5t53 65.5l21 28q8 8 14 8q17 0 27 -9.5t10 -22.5q0 -11 -38 -66.5t-94.5 -122t-136.5 -119.5t-151 -53q-52 0 -82 32.5t-30 80.5
q0 9 2 21t7 31t9.5 35t13.5 45t14.5 46.5t17.5 53.5t18 55l143 440h-358q-32 -159 -74 -333t-99.5 -376.5t-124.5 -361t-128 -219.5q-62 -62 -148 -62q-64 0 -108.5 38t-44.5 102q0 50 33 86t79 36q34 0 65.5 -17.5t54 -35.5t34.5 -18q10 0 26 11.5t27 33.5q12 23 28 107.5
t35 219.5t34.5 256t37 288t31.5 245h-332q-27 -177 -59.5 -350.5t-79.5 -381t-106 -363.5t-119 -216q-61 -61 -148 -61q-64 0 -108.5 37.5t-44.5 101.5q0 50 31.5 86.5t76.5 36.5q34 0 65.5 -18t54 -36t34.5 -18q29 0 49 41q24 49 42.5 253t36.5 481.5t34 406.5
q-42 0 -95 -2t-57 -2q-9 0 -18 12t-9 33q0 28 9 42.5t18 14.5q5 0 74.5 -3t91.5 -3q61 269 207.5 411t337.5 142q104 0 173 -31.5t103 -81.5q63 63 145.5 98.5t172.5 35.5q65 0 128.5 -12.5t96.5 -28.5q45 4 88.5 14.5t68 18.5t27.5 8h10q10 0 16.5 -11t6.5 -20zM1522 1147
q-29 11 -48.5 35.5t-19.5 56.5q0 33 15.5 70.5t15.5 42.5q0 51 -123 51q-39 0 -71.5 -12.5t-66 -46.5t-60.5 -89t-51 -144.5t-42 -209.5h373zM920 1141q-56 27 -56 88q0 30 10.5 64t10.5 38q0 25 -32.5 39t-74.5 14q-35 0 -64 -8.5t-65 -38t-63.5 -80t-52.5 -141.5t-39 -215
h337q27 124 89 240z" />
    <glyph glyph-name=".notdef" horiz-adv-x="1024" 
d="M256 0v1434h512v-1434h-512zM328 1362v-1290h368v1290h-368z" />
    <glyph glyph-name=".null" horiz-adv-x="0" 
 />
    <glyph glyph-name="nonmarkingreturn" horiz-adv-x="682" 
 />
    <glyph glyph-name="space" unicode=" " horiz-adv-x="512" 
 />
    <glyph glyph-name="exclam" unicode="!" horiz-adv-x="614" 
d="M676 1280q0 -52 -34.5 -140.5t-80.5 -177t-104.5 -218t-94.5 -238.5l-14 -45q-8 -26 -13 -37t-15 -18t-27 -7q-16 0 -34.5 9t-18.5 26q0 29 8 58l8 30q29 108 43.5 258t18.5 261.5t23 212t58 139.5q41 41 103 41q68 0 121 -41t53 -113zM358 133q0 -63 -43 -108t-110 -45
t-110.5 45t-43.5 108t43.5 108.5t110.5 45.5t110 -45.5t43 -108.5z" />
    <glyph glyph-name="quotedbl" unicode="&#x22;" horiz-adv-x="614" 
d="M768 1362q0 -16 -6 -37t-12 -34l-5 -13l-139 -315q-13 -21 -26 -21q-18 0 -27.5 9t-9.5 22l10 379q1 26 8.5 48.5t32.5 43t65 20.5q50 0 79.5 -28t29.5 -74zM461 1362q0 -16 -6 -37t-11 -34l-6 -13l-139 -315q-13 -21 -27 -21q-18 0 -27 9t-9 22l10 379q2 43 25 77.5
t77 34.5q53 0 83 -28t30 -74z" />
    <glyph glyph-name="numbersign" unicode="#" horiz-adv-x="1126" 
d="M1126 676q0 -66 -41 -66q-6 0 -41.5 1t-88.5 2t-101 1l-111 -311h17q40 0 121 2t92 2q31 0 31 -35v-43q0 -35 -12 -52t-29 -17q-6 0 -92 2t-148 2h-31l-108 -328q-5 -12 -21 -23.5t-31 -11.5q-38 0 -58.5 13t-20.5 26q0 5 75 207l43 117h-229l-109 -328q-3 -11 -20 -23
t-31 -12q-38 0 -59 13t-21 26q0 4 12.5 38t32.5 85.5t31 83.5l41 117q-60 0 -124 -2l-64 -2q-9 0 -20 8.5t-11 21.5v46q0 29 13.5 50t27.5 21q11 0 98.5 -2t116.5 -2h14l111 311q-55 0 -107 -1t-83.5 -2t-36.5 -1q-9 0 -20 8.5t-11 22.5v35q0 30 13.5 56t27.5 26
q10 0 101 -2t114 -2h51l117 325q5 13 20 23t37 10q30 0 47 -12.5t17 -30.5q0 -4 -13 -37t-32 -82t-29 -80l-41 -116h227l119 325q12 33 53 33q30 0 49 -12.5t19 -30.5q0 -4 -10.5 -32t-29 -74.5t-28.5 -75.5l-49 -133q44 0 113.5 2t79.5 2q30 0 30 -35v-47zM731 614h-227
l-111 -311h228z" />
    <glyph glyph-name="dollar" unicode="$" horiz-adv-x="747" 
d="M707 778q0 -52 -32 -82t-77 -30q-37 0 -66.5 24.5t-29.5 67.5q0 11 10 40.5t10 35.5q0 36 -61 36q-41 0 -66.5 -33.5t-25.5 -99.5q0 -43 31 -101t68 -108.5t68 -124.5t31 -147q0 -102 -86.5 -187.5t-210.5 -97.5l-55 -196q-8 -31 -51 -31q-20 0 -35.5 11t-15.5 26
q0 3 17 35t41.5 79t37.5 74q-99 7 -154 55t-55 113q0 59 36 94t83 35q43 0 74.5 -29t31.5 -73q0 -17 -5 -54.5t-5 -43.5q0 -15 18.5 -26t42.5 -11q38 0 70.5 33t32.5 102q0 33 -19 75.5t-46 85.5t-54 90t-46 105t-19 115q0 123 90 210t217 87l51 174q8 31 47 31
q25 0 40 -9.5t15 -21.5q0 -4 -14 -33.5t-37 -75.5t-35 -71q60 -13 99 -51.5t39 -96.5z" />
    <glyph glyph-name="percent" unicode="%" horiz-adv-x="1843" 
d="M1653 502q0 88 -39.5 136t-97.5 48q-79 0 -148.5 -65t-109 -167.5t-39.5 -211.5q0 -181 143 -181q71 0 139.5 67t110 170t41.5 204zM1751 492q0 -134 -61 -255t-165.5 -194.5t-224.5 -73.5q-124 0 -200 83t-76 224q0 94 43.5 186t110 158t149 107t158.5 41q128 0 197 -70
t69 -206zM813 1178q0 88 -39.5 136t-97.5 48q-79 0 -148.5 -65t-109 -167.5t-39.5 -211.5q0 -181 143 -181q71 0 139.5 67t110 170t41.5 204zM911 1167q0 -134 -60.5 -254.5t-165 -194t-224.5 -73.5q-124 0 -200.5 83t-76.5 224q0 94 43.5 186t110 158t149 107t158.5 41
q128 0 197 -70.5t69 -206.5zM1579 1362q0 -7 -2.5 -15t-4.5 -12l-3 -4q-148 -153 -240 -266l-569 -692q-54 -66 -131 -163.5t-127.5 -162.5t-52.5 -67q-11 -11 -27 -11q-34 0 -63 23t-29 59q0 7 2.5 15t5.5 12l2 4q143 153 235 266l576 696q53 64 130 161t128 162t53 67
q10 10 29 10q35 0 61.5 -25.5t26.5 -56.5z" />
    <glyph glyph-name="ampersand" unicode="&#x26;" horiz-adv-x="1658" 
d="M1772 1167q0 -72 -28 -141t-79.5 -124.5t-133 -89.5t-179.5 -34q-27 0 -67 4t-67 8l-26 3v-5q23 -13 45.5 -33t51 -56t46 -93t17.5 -125q0 -104 -42 -196.5t-120 -163t-197.5 -111.5t-265.5 -41q-121 0 -223 29t-173 78.5t-121 116.5t-73.5 142.5t-23.5 156.5
q0 128 70.5 240.5t199.5 172.5q-4 5 -10 16.5t-15.5 55t-9.5 98.5q0 88 34.5 160.5t90 117t121.5 68t133 23.5q119 0 183.5 -57.5t64.5 -131.5q0 -58 -39.5 -98.5t-106.5 -40.5q-40 0 -74 27.5t-34 64.5q0 22 4 41t8 29.5t4 11.5q0 6 -4 12.5t-19 12.5t-38 6
q-104 0 -170 -77.5t-66 -188.5q0 -32 8 -61.5t16 -42.5l7 -13q41 14 102 14t97.5 -34t36.5 -87q0 -49 -37 -84.5t-97 -35.5q-29 0 -56 13.5t-45.5 32t-33 37.5t-21.5 32l-7 14q-5 -2 -13.5 -7.5t-29.5 -26.5t-37 -47.5t-29.5 -73t-13.5 -101.5q0 -77 26.5 -141t71 -107.5
t105 -73.5t126.5 -43.5t136 -13.5q92 0 177 21.5t152 61t107.5 103t40.5 141.5q0 92 -52.5 162.5t-136.5 93.5q-76 0 -121 -37t-45 -81q0 -29 14 -49.5t34 -20.5q0 3 1.5 8t7.5 18.5t15 23.5t27 18t41 8q50 0 76 -30.5t26 -72.5q0 -48 -35.5 -85t-103.5 -37q-71 0 -130 55.5
t-59 148.5q0 307 461 328q88 4 154.5 17.5t125 41t89.5 77.5t31 120q0 60 -44 101.5t-100 41.5q-15 0 -25 -6t-10 -14q0 -1 12.5 -29.5t12.5 -52.5q0 -47 -35 -80t-88 -33q-56 0 -94.5 36.5t-38.5 96.5q0 70 60.5 122.5t144.5 52.5q153 0 240.5 -90.5t87.5 -217.5z" />
    <glyph glyph-name="quotesingle" unicode="'" horiz-adv-x="307" 
d="M461 1362q0 -16 -6 -37t-11 -34l-6 -13l-139 -315q-13 -21 -27 -21q-18 0 -27 9t-9 22l10 379q2 43 25 77.5t77 34.5q53 0 83 -28t30 -74z" />
    <glyph glyph-name="parenleft" unicode="(" horiz-adv-x="716" 
d="M1106 1366q0 -31 -41 -35q-169 -38 -315 -129t-253.5 -221t-169 -304.5t-61.5 -369.5q0 -436 266 -702q45 -46 58.5 -61.5t13.5 -28.5q0 -14 -14 -30.5t-33 -16.5q-25 0 -117 92q-66 66 -123.5 145.5t-107 176.5t-78.5 212.5t-29 233.5q0 132 28.5 253.5t79 218.5
t116.5 182.5t142.5 149.5t156.5 115.5t160 85.5t150 54t130 26q41 0 41 -47z" />
    <glyph glyph-name="parenright" unicode=")" horiz-adv-x="716" 
d="M614 553q0 -150 -37.5 -287t-99.5 -241t-145 -194t-172.5 -152.5t-183 -108.5t-174.5 -70.5t-150 -31.5q-41 0 -41 47q0 30 41 34q169 38 315 129t253.5 221t169 304.5t61.5 369.5q0 226 -72 403t-195 300q-44 44 -57.5 60.5t-13.5 29.5q0 14 14 30.5t33 16.5
q24 0 116 -92q66 -66 123.5 -145.5t107 -176.5t78.5 -212.5t29 -233.5z" />
    <glyph glyph-name="asterisk" unicode="*" horiz-adv-x="901" 
d="M901 844q0 -36 -28.5 -62t-61.5 -26q-68 0 -141 73q-28 29 -70 85.5t-59 72.5l-17 -8q1 -5 42.5 -111t41.5 -151q0 -61 -26.5 -97t-69.5 -36t-69.5 36t-26.5 97q0 45 41.5 151t42.5 111l-17 8q-17 -16 -59 -72.5t-70 -85.5q-73 -73 -141 -73q-33 0 -61.5 26t-28.5 62
q0 41 33 74q36 36 99.5 54.5t133 26t82.5 11.5l2 18q-13 4 -81 12t-133.5 25.5t-98.5 50.5q-37 37 -37 74q0 39 26.5 64.5t65.5 25.5q68 0 129 -61q24 -24 72.5 -85t70.5 -83l13 6q-2 11 -43 112t-41 152q0 55 27 94t69 39t69 -39t27 -94q0 -51 -41 -152t-43 -112l13 -6
q22 22 70.5 83t72.5 85q61 61 129 61q39 0 65.5 -25.5t26.5 -64.5q0 -37 -37 -74q-33 -33 -98.5 -50.5t-133.5 -25.5t-81 -12q2 -10 2 -18q13 -4 82.5 -11.5t133 -26t99.5 -54.5q33 -33 33 -74z" />
    <glyph glyph-name="plus" unicode="+" horiz-adv-x="1024" 
d="M963 420q0 -41 -21 -41q-14 0 -88 2t-96 2h-174v-66q0 -76 1 -143t2 -106t1 -48q0 -20 -25 -20h-102q-25 0 -25 20q0 14 2 88.5t2 96.5v178h-61q-76 0 -143 -1t-106 -2t-48 -1q-21 0 -21 24v58q0 65 25 65q14 0 86 -2t94 -2h174v62q0 76 -1 143t-2 106t-1 48q0 20 25 20
h102q25 0 25 -20q0 -14 -2 -88.5t-2 -96.5v-174h61q76 0 143 1t106 2t48 1q21 0 21 -24v-82z" />
    <glyph glyph-name="comma" unicode="," horiz-adv-x="604" 
d="M461 41q0 -73 -30 -139t-75.5 -110.5t-98 -78t-97.5 -49.5t-74 -16q-10 0 -17.5 8t-7.5 16t6.5 14.5t14.5 8.5q15 3 40.5 15t60.5 38.5t64.5 61.5t50.5 90.5t21 119.5l-8 31h-6q-1 -3 -4 -7.5t-13 -17t-21.5 -22t-31 -17t-40.5 -7.5q-61 0 -97.5 40.5t-36.5 102.5
q0 64 49.5 114t120.5 50q93 0 161.5 -67.5t68.5 -178.5z" />
    <glyph glyph-name="hyphen" unicode="-" horiz-adv-x="614" 
d="M563 502q0 -52 -23 -92.5t-48 -40.5h-256q-49 0 -90.5 -2t-43.5 -2q-41 0 -41 65q0 50 17.5 81.5t34.5 31.5h102q175 0 315 14q33 0 33 -55z" />
    <glyph glyph-name="period" unicode="." horiz-adv-x="512" 
d="M369 133q0 -63 -43.5 -108t-110.5 -45t-110.5 45t-43.5 108t43.5 108.5t110.5 45.5t110.5 -45.5t43.5 -108.5z" />
    <glyph glyph-name="slash" unicode="/" horiz-adv-x="921" 
d="M973 1382q0 -8 -20.5 -44.5t-69 -124t-95.5 -179.5l-542 -1085q-42 -83 -236 -471q-16 -31 -51 -31q-32 0 -57 21t-25 51q0 9 27 58.5t75.5 138t81.5 151.5l543 1085q37 74 94 188.5t99 199.5t43 87q14 27 51 27q32 0 57 -21t25 -51z" />
    <glyph glyph-name="zero" unicode="0" horiz-adv-x="993" 
d="M834 614q0 105 -50 165.5t-129 60.5q-94 0 -178 -81.5t-132 -207t-48 -254.5q0 -225 174 -225q86 0 171.5 84t138.5 210.5t53 247.5zM942 604q0 -162 -74.5 -308.5t-200.5 -236.5t-268 -90q-154 0 -246 100t-92 269q0 115 52 226t132 190.5t179 128.5t190 49
q158 0 243 -81.5t85 -246.5z" />
    <glyph glyph-name="one" unicode="1" horiz-adv-x="706" 
d="M727 874q0 -15 -9 -25.5t-22 -10.5q-128 0 -143 -15q-20 -20 -41 -127l-98 -471q-21 -100 -21 -123q0 -20 13 -26q26 -13 137 -13q24 0 24 -32q0 -16 -7.5 -27.5t-20.5 -11.5l-42 2q-42 2 -110 4t-131 2t-122 -2t-93 -4t-37 -2q-10 0 -17 11.5t-7 21.5q0 16 8 27t22 11
q125 0 144 19q18 18 41 123l102 461q18 92 18 141q0 10 -6 16q-9 9 -35.5 12t-109.5 3q-7 0 -14 10.5t-7 21.5q0 14 6 25.5t17 11.5q2 0 14 -0.5t35 -1.5t54 -2t79 -1.5t103 -0.5q49 0 92 0.5t71 1.5t48.5 2t31.5 1.5t13 0.5q8 0 14 -10t6 -23z" />
    <glyph glyph-name="two" unicode="2" horiz-adv-x="931" 
d="M829 676q0 -59 -18.5 -113.5t-48 -97t-75 -83.5t-90.5 -70.5t-105 -61t-107 -53t-107 -47.5q-36 -15 -53 -23l4 -8q58 20 119 20q63 0 152.5 -13t144.5 -13q47 0 80.5 29.5t46.5 56.5q8 16 21 16q11 0 18.5 -6t7.5 -14q0 -13 -11.5 -44.5t-34 -71t-51.5 -75.5t-69 -61
t-80 -25q-84 0 -177 29t-168 57.5t-115 28.5q-18 0 -31 -13q-6 -6 -17 -29t-14 -26q-20 -20 -45 -20q-26 0 -41.5 17t-15.5 38q0 31 20 51q24 24 164 92q108 54 187 103.5t146.5 108t102.5 123.5t35 136q0 79 -44.5 118.5t-108.5 39.5q-62 0 -108 -42.5t-46 -115.5
q0 -27 10.5 -56.5t20.5 -47.5l10 -18q0 -13 -11.5 -22t-29.5 -9q-12 0 -32.5 18.5t-40 61.5t-19.5 94q0 128 95.5 217.5t221.5 89.5q141 0 224 -77t83 -189z" />
    <glyph glyph-name="three" unicode="3" horiz-adv-x="901" 
d="M809 676q0 -127 -83.5 -226.5t-233.5 -162.5l2 -6q113 -10 188.5 -97.5t75.5 -203.5q0 -143 -81.5 -257.5t-209 -174.5t-272.5 -60q-132 0 -230 75t-98 181q0 83 48.5 128.5t115.5 45.5q55 0 94 -35t39 -98q0 -41 -23 -71.5t-46 -41.5l-23 -10q0 -45 43 -70.5t110 -25.5
q51 0 100.5 19t95 57t73.5 106t28 156q0 118 -62.5 202t-172.5 84q-11 0 -30.5 -4t-25.5 -4q-11 0 -18.5 13t-7.5 26q0 26 31 35q172 43 262 139.5t90 198.5q0 75 -46.5 126.5t-121.5 51.5q-70 0 -117 -46.5t-47 -121.5q0 -27 8 -53.5t15.5 -42t7.5 -16.5q0 -10 -10 -20.5
t-31 -10.5q-20 0 -51 51t-31 113t22.5 115.5t58 89.5t81 62t90.5 38t86 12q141 0 224 -77t83 -189z" />
    <glyph glyph-name="four" unicode="4" horiz-adv-x="1064" 
d="M1004 215q0 -3 -14 -29t-37 -78t-40 -108q-4 -12 -16 -12q-3 0 -25 3t-61 6t-84 3h-18l-64 -307l-31 -154q-3 -19 -10.5 -25t-30.5 -6h-149q-31 0 -31 21q0 4 4 21t12.5 50t14.5 62l74 338h-396q-36 0 -74 -2t-62 -4t-27 -2q-8 0 -14.5 9t-6.5 19q0 11 10 21l195 195
l563 573q82 82 107 102.5t47 20.5h41q9 0 16.5 -5.5t7.5 -15.5q0 -4 -6.5 -32t-18.5 -77.5t-20 -90.5l-117 -547h45q38 0 56 1t42.5 5.5t39.5 15.5t26 29q13 21 25 21q11 0 19 -6.5t8 -14.5zM637 618h-8l-439 -450l5 -4h337l58 256z" />
    <glyph glyph-name="five" unicode="5" horiz-adv-x="962" 
d="M963 977q0 -19 -15 -68t-39 -104t-60 -97t-71 -42q-59 0 -162.5 16t-177.5 32l-73 17l-7 -4l-92 -221l4 -4q100 -4 191 -33.5t165 -81.5t118 -133.5t44 -181.5q0 -129 -52 -239.5t-137 -182.5t-190 -112t-214 -40q-140 0 -239 77.5t-99 195.5q0 81 48 124.5t105 43.5
q67 0 105.5 -41.5t38.5 -92.5q0 -30 -9.5 -54t-23 -37t-27.5 -21.5t-24 -11.5l-9 -3q0 -8 7.5 -23t23 -33.5t48 -32t75.5 -13.5q147 0 247.5 112.5t100.5 280.5q0 144 -87.5 236t-250.5 92q-27 0 -50 -6.5t-36 -12.5t-16 -6q-15 0 -26 10t-11 25q0 4 10.5 25t28 57t29.5 66
l102 252q16 40 41.5 118.5t30.5 96.5q2 10 20 10q189 -41 440 -41q74 0 117 92q11 16 27 16q10 0 20.5 -5.5t10.5 -16.5z" />
    <glyph glyph-name="six" unicode="6" horiz-adv-x="1054" 
d="M1096 1403q0 -7 -1 -11.5t-4 -9t-6 -7.5t-10.5 -7.5t-13 -7t-19 -8.5t-22.5 -11q-161 -80 -300 -208t-218 -263l4 -6q57 27 129 27q68 0 125.5 -20.5t96 -55.5t65.5 -81.5t39 -97t12 -104.5q0 -102 -44 -204t-117 -181t-174 -128.5t-208 -49.5q-154 0 -251 99t-97 290
q0 124 41.5 256.5t125.5 261.5t199.5 239.5t275.5 195t341 123.5q10 0 20.5 -8.5t10.5 -22.5zM731 543q0 122 -45 196t-133 74q-68 0 -113 -45q-14 -14 -43.5 -84t-59.5 -193.5t-30 -234.5q0 -211 133 -211q82 0 151 80.5t104.5 193.5t35.5 224z" />
    <glyph glyph-name="seven" unicode="7" horiz-adv-x="972" 
d="M1075 877q0 -17 -10 -27q-1 -1 -9.5 -8.5t-26.5 -23.5t-44.5 -40t-67 -62.5t-89.5 -86t-118.5 -115.5t-146.5 -145q-116 -116 -196.5 -216t-117 -169t-51 -113t-14.5 -76q0 -20 21 -39t45.5 -33.5t45.5 -44t21 -67.5q0 -61 -45 -102t-108 -41q-69 0 -116.5 45.5
t-47.5 138.5q0 125 112.5 313t358.5 434q59 59 132 129.5t116 111.5l43 40l-4 6h-441q-73 0 -102.5 -11.5t-67.5 -49.5q-1 -1 -11 -11.5t-15 -15t-13.5 -9.5t-15.5 -5q-16 0 -28.5 11t-12.5 30q0 4 27 39.5t63 88t54 87.5q22 45 41 102q7 21 24 21q19 0 27 -21q9 -23 37 -32
t96 -9h399q58 0 109.5 2t82.5 4t38 2q11 0 18.5 -11.5t7.5 -20.5z" />
    <glyph glyph-name="eight" unicode="8" horiz-adv-x="1024" 
d="M1055 1167q0 -130 -88 -219t-260 -164q43 -53 63 -78t54 -73t49.5 -81t28.5 -77.5t13 -85.5q0 -181 -140 -300.5t-355 -119.5q-180 0 -284.5 91.5t-104.5 236.5q0 137 96.5 247.5t312.5 196.5q-149 179 -149 344q0 105 60 188t159 127t217 44q148 0 238 -74t90 -203z
M860 1167q0 93 -40.5 147t-112.5 54q-78 0 -133.5 -60t-55.5 -151q0 -78 35.5 -151t101.5 -156q101 66 153 151t52 166zM680 297q0 52 -11.5 97t-42 96t-49 76t-67.5 87q-12 15 -18 23q-132 -62 -194 -166.5t-62 -222.5q0 -111 59 -176.5t145 -65.5q95 0 167.5 68t72.5 184z
" />
    <glyph glyph-name="nine" unicode="9" horiz-adv-x="1044" 
d="M952 543q0 -124 -41.5 -256t-125.5 -261.5t-199.5 -239.5t-275 -194.5t-341.5 -123.5q-11 0 -20.5 8t-9.5 22q0 7 1 11.5t4 9t5.5 7.5t10.5 7.5t13 7t18.5 9t22.5 10.5q161 80 300 208t218 263l-4 6q-57 -27 -129 -27q-68 0 -125.5 20.5t-96 55.5t-65.5 81.5t-39 97
t-12 104.5q0 102 44 204t117 181t174 128.5t208 49.5q154 0 251 -99t97 -290zM727 645q0 211 -133 211q-82 0 -151 -80.5t-104.5 -193.5t-35.5 -224q0 -122 45 -196t133 -74q68 0 113 45q14 14 43.5 84t59.5 193.5t30 234.5z" />
    <glyph glyph-name="colon" unicode=":" horiz-adv-x="614" 
d="M553 748q0 -63 -43.5 -108.5t-110.5 -45.5t-110 45.5t-43 108.5t43 108t110 45t110.5 -45t43.5 -108zM369 133q0 -63 -43.5 -108t-110.5 -45t-110.5 45t-43.5 108t43.5 108.5t110.5 45.5t110.5 -45.5t43.5 -108.5z" />
    <glyph glyph-name="semicolon" unicode=";" horiz-adv-x="614" 
d="M553 748q0 -63 -43.5 -108.5t-110.5 -45.5t-110 45.5t-43 108.5t43 108t110 45t110.5 -45t43.5 -108zM461 41q0 -73 -30 -139t-75.5 -110.5t-98 -78t-97.5 -49.5t-74 -16q-10 0 -17.5 8t-7.5 16t6.5 14.5t14.5 8.5q15 3 40.5 15t60.5 38.5t64.5 61.5t50.5 90.5t21 119.5
l-8 31h-6q-1 -3 -4 -7.5t-13 -17t-21.5 -22t-31 -17t-40.5 -7.5q-61 0 -97.5 40.5t-36.5 102.5q0 64 49.5 114t120.5 50q93 0 161.5 -67.5t68.5 -178.5z" />
    <glyph glyph-name="less" unicode="&#x3c;" horiz-adv-x="768" 
d="M641 80q0 -19 -41 -60q-14 -14 -33.5 -27t-23.5 -13q-7 0 -13 6q-9 9 -56 59.5t-64 67.5l-185 184q-22 22 -55.5 53t-59 54t-28.5 26q-10 10 -10 21q0 10 10 20q3 3 28.5 26t59 54t55.5 53l185 184q17 17 64 67.5t56 59.5q7 7 13 7q4 0 23.5 -13.5t33.5 -27.5
q41 -41 41 -60q0 -6 -6 -12q-5 -5 -51 -46t-82 -77l-236 -235l236 -236q36 -36 82 -77t51 -46q6 -6 6 -12z" />
    <glyph glyph-name="equal" unicode="=" horiz-adv-x="1024" 
d="M963 573q0 -51 -21 -51q-14 0 -119 2t-127 2h-256q-76 0 -158.5 -1t-136.5 -2t-63 -1q-21 0 -21 25v57q0 66 25 66q14 0 117 -2t125 -2h256q76 0 158.5 1t136.5 2t63 1q21 0 21 -25v-72zM963 297q0 -66 -25 -66q-14 0 -117 2.5t-125 2.5h-256q-76 0 -158.5 -1
t-136.5 -2.5t-63 -1.5q-21 0 -21 25v72q0 51 21 51q14 0 119 -2t127 -2h256q76 0 158.5 1t136.5 2t63 1q21 0 21 -25v-57z" />
    <glyph glyph-name="greater" unicode="&#x3e;" horiz-adv-x="768" 
d="M696 451q0 -11 -10 -21q-3 -3 -28.5 -26t-59 -54t-55.5 -53l-185 -184q-17 -17 -64 -67.5t-56 -59.5q-6 -6 -13 -6q-4 0 -24 13t-33 27q-41 41 -41 60q0 6 6 12q5 5 51 46t82 77l236 236l-236 235q-36 36 -82 77t-51 46q-6 6 -6 12q0 19 41 60q14 14 33.5 27.5t23.5 13.5
q6 0 13 -7q9 -9 56 -59.5t64 -67.5l185 -184q22 -22 55.5 -53t59 -54t28.5 -26q10 -10 10 -20z" />
    <glyph glyph-name="question" unicode="?" horiz-adv-x="880" 
d="M932 1075q0 -75 -18.5 -138.5t-50 -107.5t-72 -80t-86 -60.5t-90.5 -45t-85.5 -37t-72 -33t-50 -37t-18.5 -44.5q0 -43 27.5 -68t64.5 -25q14 0 22.5 6.5t8.5 14.5q0 76 51 76q18 0 34.5 -14t16.5 -42q0 -33 -29 -57.5t-64.5 -34.5t-69.5 -10q-111 0 -183.5 68.5
t-72.5 187.5q0 54 31.5 93.5t82 64.5t111.5 46.5t122.5 47.5t112 59.5t82 89.5t31.5 131q0 109 -74.5 170.5t-167.5 61.5q-69 0 -118.5 -35t-49.5 -94q0 -35 21 -35q2 0 6 1t12.5 2t22.5 1q34 0 65 -31.5t31 -81.5q0 -54 -42.5 -93.5t-100.5 -39.5q-80 0 -124 53.5
t-44 131.5q0 53 21 104.5t61 95t106.5 70.5t149.5 27q73 0 141.5 -23t124 -66.5t89.5 -113.5t34 -156zM410 123q0 -63 -43.5 -108.5t-110.5 -45.5t-110.5 45.5t-43.5 108.5t43.5 108t110.5 45t110.5 -45t43.5 -108z" />
    <glyph glyph-name="at" unicode="@" horiz-adv-x="1771" 
d="M1659 696q0 -117 -57.5 -234.5t-149.5 -207.5t-217 -146.5t-252 -56.5q-41 0 -61.5 20t-20.5 52q0 30 24.5 90.5t61.5 124.5l70 123l-6 6q-55 -76 -114.5 -145.5t-125 -132.5t-128 -100.5t-110.5 -37.5q-127 0 -127 133q0 57 25 131t67 149.5t100.5 149t122 130
t135.5 91.5t138 35q29 0 52 -9.5t35.5 -23t21 -27t11.5 -22.5l3 -10l21 51q14 37 71 37q34 0 68.5 -11.5t34.5 -27.5q0 -7 -23 -53l-143 -305q-39 -82 -66.5 -165.5t-27.5 -108.5q0 -9 10 -20t24 -11q95 0 183.5 76.5t142 195.5t53.5 240q0 450 -491 450q-131 0 -249 -47.5
t-204.5 -126.5t-150.5 -179t-96.5 -208.5t-32.5 -212.5q0 -132 38 -240t115 -191.5t206.5 -130t301.5 -46.5q158 0 279.5 52t181.5 112q10 10 12 40t2 103q0 46 30.5 72.5t68.5 26.5q39 0 65.5 -23t26.5 -66q0 -40 -38.5 -94.5t-111 -110.5t-164 -104.5t-209.5 -79
t-235 -30.5q-124 0 -234 26.5t-202.5 81t-159 133t-104 187t-37.5 237.5t49 262.5t136 247t199 203t247 141t270 51.5q103 0 193.5 -16t175 -54t144.5 -96t96 -147.5t36 -202.5zM1100 707q0 39 -15 58t-51 19q-59 0 -148.5 -99.5t-154.5 -224t-65 -194.5q0 -34 7.5 -47.5
t33.5 -13.5q35 0 131 99t179 222t83 181z" />
    <glyph glyph-name="A" unicode="A" horiz-adv-x="1361" 
d="M1352 1434q0 -8 -15 -55t-42 -131.5t-46 -151.5l-235 -840q-31 -106 -31 -143q0 -29 31.5 -37t122.5 -8q14 0 22 -10.5t8 -26.5q0 -39 -30 -39q-4 0 -53 2t-116 4t-116 2q-54 0 -190 -7t-150 -7t-22.5 10t-8.5 24q0 41 31 41q106 0 137 31q21 21 53 113l107 317
q6 19 6 23q0 12 -14 12l-299 -14q-13 -1 -21.5 -7.5t-29.5 -27.5l-195 -201q-109 -113 -109 -174q0 -65 140 -65q30 0 30 -37q0 -39 -30 -39q-3 0 -51.5 2t-105.5 4t-79 2q-122 0 -232 -7t-116 -7q-31 0 -31 34q0 41 41 41q7 0 23.5 3t48 13t61.5 25q99 48 256 205
l1137 1127q30 30 61 30q21 0 36.5 -10.5t15.5 -19.5zM983 1044l-10 5l-369 -383q-24 -24 -24 -31q0 -10 10 -10l239 8q18 2 25 22z" />
    <glyph glyph-name="B" unicode="B" horiz-adv-x="1382" 
d="M1331 1126q0 -89 -34.5 -160.5t-93.5 -117t-130 -72t-151 -33.5v-6q71 -13 127 -35t106 -61t77.5 -103t27.5 -149q0 -55 -20 -108.5t-67 -107t-116 -93.5t-175.5 -65t-236.5 -25q-95 0 -228 5t-151 5q-46 0 -91.5 -1t-78 -2.5t-58 -3t-41 -2.5t-17.5 -1q-12 0 -21.5 10
t-9.5 31q0 18 9 27.5t22 9.5q139 0 163 24q25 25 52 133l245 983q21 99 21 113q0 45 -82 45q-10 0 -51.5 -2t-51.5 -2q-13 0 -21.5 11.5t-8.5 29.5q0 37 24 37q2 0 55 -2t126.5 -3.5t132.5 -0.5q40 0 144.5 5t182.5 5q87 0 161 -18.5t133 -55.5t92.5 -99.5t33.5 -144.5z
M1055 1126q0 240 -226 240q-10 0 -27 -4.5t-24 -11.5q-20 -20 -30 -60l-125 -497q53 -15 135 -15q139 0 218 95.5t79 252.5zM973 389q0 325 -371 332l-121 -485q-20 -76 -20 -113q0 -24 39.5 -39.5t113.5 -15.5q158 0 258.5 85.5t100.5 235.5z" />
    <glyph glyph-name="C" unicode="C" horiz-adv-x="1372" 
d="M1434 1407q0 -4 -5.5 -19.5t-13 -45t-15 -73t-13 -119t-5.5 -167.5v-20q0 -41 -51 -41q-21 0 -31 10q-6 6 -18.5 52t-28 102t-46.5 121t-70 104q-71 71 -195 71q-119 0 -222 -72.5t-169 -187.5t-103.5 -253.5t-37.5 -274.5q0 -98 18.5 -179t56 -145.5t102 -100.5
t150.5 -36q127 0 228 54t198 151q31 31 41 31q15 0 30 -13t15 -28q0 -12 -24.5 -49.5t-77 -90.5t-121 -101.5t-170.5 -83t-211 -34.5q-155 0 -275 77.5t-183.5 210t-63.5 296.5q0 171 61 336.5t165 292t251.5 204.5t310.5 78q89 0 170 -20.5t134.5 -41t74.5 -20.5
q19 0 52 31t44 31q20 0 34 -11t14 -26z" />
    <glyph glyph-name="D" unicode="D" horiz-adv-x="1587" 
d="M1567 819q0 -128 -30.5 -244.5t-101.5 -225t-177 -187.5t-268.5 -126.5t-364.5 -47.5q-79 0 -197.5 6t-151.5 6q-95 0 -163.5 -3t-99 -6t-33.5 -3q-12 0 -21.5 14t-9.5 29q0 37 31 37q93 0 126 4.5t48 19.5q25 25 51 133q3 11 21 91t43.5 190.5t47.5 200.5
q18 70 60 225.5t68 258.5t26 130q0 21 -10 31q-20 20 -174 20q-14 0 -22.5 12.5t-8.5 28.5q0 15 8 25t23 10q5 0 117.5 -7t148.5 -7q41 0 169 5t169 5q145 0 269.5 -43.5t214.5 -123t141 -197.5t51 -261zM1260 860q0 145 -26.5 246t-77 155.5t-112 77.5t-143.5 23
q-58 0 -89.5 -14.5t-53.5 -57.5q-7 -14 -65.5 -233t-98.5 -381q-123 -494 -123 -543q0 -21 15.5 -35t44 -19t47 -6t47.5 -1q316 0 475.5 205.5t159.5 582.5z" />
    <glyph glyph-name="E" unicode="E" horiz-adv-x="1433" 
d="M1434 1106q0 -12 -14 -21.5t-34 -9.5q-19 0 -40 21q-12 12 -92.5 100t-96.5 104q-37 37 -77 47.5t-128 10.5h-61q-80 0 -103 -23q-25 -25 -51 -127l-94 -374q-6 -29 -6 -31q0 -5 0.5 -7.5t5 -5t12.5 -2.5h52q96 0 156 16t100 56q50 50 92 137q15 31 35 31q18 0 27 -7.5
t9 -16.5q0 -8 -16 -45t-38 -94.5t-34 -106.5q-27 -114 -49 -277q-3 -30 -37 -30q-30 0 -30 30q0 80 -7.5 124.5t-29.5 66.5q-21 21 -56 31.5t-62 12t-81 1.5h-47q-26 0 -35 -35l-112 -446q-21 -87 -21 -130q0 -30 72 -30h297q59 0 101.5 19t82.5 59q74 74 195 165t163 91
q19 0 30 -15.5t11 -32.5q0 -5 -25 -30t-54.5 -57t-54.5 -87.5t-25 -115.5q0 -17 5 -34.5t5 -23.5q0 -10 -8 -17t-19 -7q-3 0 -47 2.5t-111 5t-126 2.5h-666q-50 0 -119.5 -3t-120.5 -6t-57 -3q-14 0 -22.5 11.5t-8.5 27.5t7.5 27.5t19.5 11.5q132 0 158 26t51 133l246 973
q24 102 24 123q0 32 -27 38.5t-120 6.5q-13 0 -22 11t-9 26q0 37 31 37q4 0 93 -3t193 -3h492q81 0 142.5 2.5t90.5 5t33 2.5q21 0 21 -25q0 -4 -10.5 -29t-10.5 -49q0 -43 31 -137t31 -98z" />
    <glyph glyph-name="F" unicode="F" horiz-adv-x="1259" 
d="M1423 1106q0 -12 -13.5 -21.5t-33.5 -9.5t-41 21q-12 12 -92 100t-96 104q-37 37 -77 47.5t-128 10.5h-72q-79 0 -102 -23q-26 -26 -51 -123l-96 -403q-9 -35 -9 -37q0 -14 17 -14h61q100 0 156.5 14t99.5 57q55 55 98 144q4 9 6.5 12.5t9 7.5t15.5 4q35 0 35 -24
q0 -8 -16 -45t-38 -94.5t-34 -106.5q-24 -102 -49 -287q-4 -41 -37 -41q-31 0 -31 31q0 180 -35 215q-19 19 -54.5 28.5t-63.5 11t-82 1.5h-54q-24 0 -32 -31l-103 -419q-20 -87 -20 -123q0 -31 34.5 -38t139.5 -7q14 0 22.5 -10.5t8.5 -26.5q0 -41 -31 -41q-6 0 -75 2.5
t-156.5 5t-137.5 2.5q-45 0 -109 -2.5t-112.5 -5t-54.5 -2.5q-14 0 -22.5 10.5t-8.5 26.5q0 15 9.5 28t21.5 13q54 0 74 0.5t43.5 6t35.5 17.5q25 25 52 133l235 983q21 89 21 113q0 29 -26.5 36t-117.5 7q-14 0 -22.5 10.5t-8.5 28.5q0 15 8 25t23 10q4 0 40.5 -1t103 -2
t143.5 -1h502q81 0 145 2.5t95.5 5t35.5 2.5q21 0 21 -25q0 -4 -12.5 -29t-12.5 -49q0 -43 27.5 -137t27.5 -98z" />
    <glyph glyph-name="G" unicode="G" horiz-adv-x="1484" 
d="M1546 573q0 -41 -30 -41q-71 0 -103.5 -6t-50.5 -24q-14 -14 -37 -123l-65 -311q-8 -39 -20.5 -55.5t-41.5 -16.5q-13 0 -49 32.5t-64 32.5q-31 0 -86.5 -23t-134.5 -46t-168 -23q-165 0 -297 83.5t-204 226t-72 315.5q0 168 59 326t161.5 278.5t251 193t316.5 72.5
q89 0 170 -18t134.5 -35.5t74.5 -17.5q22 0 54 28.5t42 28.5q17 0 32.5 -8.5t15.5 -22.5q0 -5 -10 -50t-20.5 -136.5t-10.5 -208.5v-41q0 -41 -52 -41q-19 0 -30 21q-1 3 -14 43.5t-29 85.5t-49 102t-72 96q-92 92 -246 92q-112 0 -207 -72.5t-155.5 -187.5t-94.5 -253
t-34 -275q0 -108 18.5 -198.5t57.5 -163.5t106 -114.5t156 -41.5q178 0 256 78q27 27 40 102l21 102q20 102 20 123q0 15 -10 25q-14 14 -133 14q-13 0 -22 11t-9 26q0 43 31 43q61 -6 225 -6q68 0 193.5 7t155.5 7t30 -35z" />
    <glyph glyph-name="H" unicode="H" horiz-adv-x="1669" 
d="M1802 1409q0 -41 -30 -41q-118 0 -134 -16q-18 -18 -51 -144l-235 -972q-21 -85 -21 -123q0 -29 30.5 -37t115.5 -8q28 0 28 -39t-30 -39q-15 0 -132 5t-169 5q-48 0 -178.5 -4t-141.5 -4q-10 0 -17.5 11t-7.5 24q0 18 9 29.5t22 11.5q82 0 110 4t44 20q27 27 51 133
l109 451q1 4 2.5 10.5t2.5 11t1 7.5q0 8 -13 8h-563q-11 0 -15.5 -8.5t-10.5 -28.5l-107 -440q-20 -81 -20 -130q0 -25 26 -31.5t107 -6.5q26 0 26 -37q0 -15 -6.5 -27t-19.5 -12q-17 0 -123 4t-164 4q-67 0 -184.5 -5t-122.5 -5q-13 0 -22 10.5t-9 28.5q0 39 31 39
q65 0 96 4t47 20q27 27 51 133l236 983q18 78 18 117q0 15 -10 25q-11 11 -34.5 13.5t-82.5 2.5q-26 0 -26 37q0 39 28 39q14 0 116.5 -4t154.5 -4q59 0 179.5 5t133.5 5q9 0 17 -9t8 -26q0 -18 -9.5 -30.5t-21.5 -12.5q-73 0 -96 -3t-37 -17q-25 -25 -51 -138l-93 -379
q-1 -4 -2 -9.5t-1.5 -8.5t-0.5 -6q0 -10 21 -10h547q12 0 18 3t7.5 7t4.5 14l92 389q17 74 17 119q0 15 -10 25q-14 14 -129 14q-31 0 -31 37q0 18 9 28.5t22 10.5q5 0 105.5 -4t121.5 -4q84 0 221.5 6t145.5 6q13 0 21.5 -9.5t8.5 -27.5z" />
    <glyph glyph-name="I" unicode="I" horiz-adv-x="808" 
d="M932 1413q0 -19 -9.5 -30t-21.5 -11q-113 0 -133 -20t-51 -140l-236 -976q-20 -87 -20 -123q0 -31 34.5 -38t118.5 -7q14 0 22.5 -10.5t8.5 -26.5q0 -39 -31 -39q-6 0 -64.5 2t-135.5 4t-127 2q-72 0 -141.5 -2.5t-110.5 -5t-45 -2.5q-12 0 -21.5 10t-9.5 31q0 15 9.5 26
t21.5 11q129 0 153 24q25 25 52 133l235 983q21 99 21 119q0 14 -11 25q-14 14 -133 14q-13 0 -22 11t-9 26q0 39 31 39q17 0 111.5 -4t134.5 -4q71 0 205 7t147 7q12 0 19.5 -10t7.5 -25z" />
    <glyph glyph-name="J" unicode="J" horiz-adv-x="1167" 
d="M1214 1284q0 -48 -29 -82.5t-83 -34.5q-18 0 -34.5 6.5t-26 12.5t-11.5 6q-20 0 -41 -41q-49 -97 -82 -461q18 0 116 6t103 6q9 0 18 -11t9 -32t-9 -36t-28 -15q-2 0 -95.5 5t-123.5 5q-14 -138 -32.5 -256.5t-48.5 -242t-68 -222.5t-92.5 -188t-120.5 -149t-154 -94.5
t-191 -34.5q-81 0 -147 29t-106.5 75t-62 100.5t-21.5 108.5q0 88 47.5 133t115.5 45q61 0 106.5 -39.5t45.5 -103.5q0 -35 -14 -64t-31 -44.5t-31 -30.5t-14 -25q0 -51 40 -76.5t103 -25.5q46 0 92.5 16t75.5 45q47 47 76 131.5t43.5 193t26 221.5t34 250.5t56.5 247.5
q-38 0 -87.5 -2.5t-84.5 -5t-37 -2.5q-14 0 -22.5 14t-8.5 31q0 47 31 47q5 0 104 -5t135 -5q101 263 263 451l-3 4q-78 4 -138.5 26.5t-95 53.5t-67 67t-57.5 65.5t-63.5 49.5t-87.5 20q-44 0 -77.5 -16.5t-51 -42.5t-26.5 -52.5t-9 -51.5q0 -45 22 -75t53 -30
q6 0 36.5 21.5t62.5 21.5q47 0 75.5 -31.5t28.5 -74.5q0 -52 -35.5 -90.5t-99.5 -38.5q-100 0 -157.5 75t-57.5 181q0 61 20 118t57.5 104.5t100 76t139.5 28.5q69 0 120.5 -19t81 -50t52 -68t39 -74t34.5 -68t46.5 -50t67.5 -19q53 195 174 195q52 0 82 -34.5t30 -78.5z
" />
    <glyph glyph-name="K" unicode="K" horiz-adv-x="1566" 
d="M1772 1423q0 -41 -31 -41q-90 0 -204 -63.5t-226 -171.5l-277 -266q-20 -21 -20 -31l10 -41l225 -590q33 -88 62 -117q34 -34 164 -34q14 0 22 -10.5t8 -26.5q0 -17 -8 -29.5t-22 -11.5q-230 10 -349 10q-45 0 -114.5 -2t-123 -4t-59.5 -2q-30 0 -30 39q0 16 8 26.5
t22 10.5q40 0 58.5 1t42.5 6t33.5 16.5t9.5 31.5q0 27 -21 92l-153 430q-19 51 -41 62q-44 22 -156 30l-121 -501q-20 -87 -20 -123q0 -16 8 -25.5t30.5 -13.5t42 -5t62.5 -1q14 0 22.5 -10.5t8.5 -26.5q0 -39 -31 -39q-6 0 -62 2t-130.5 4t-124.5 2q-72 0 -141.5 -2.5
t-110.5 -5t-45 -2.5q-12 0 -21.5 10t-9.5 31q0 15 9.5 26t21.5 11q129 0 153 24q25 25 52 133l235 973q21 86 21 123q0 31 -34.5 38t-119.5 7q-14 0 -22.5 10.5t-8.5 26.5q0 39 31 39q6 0 59.5 -2t125.5 -4t122 -2q72 0 139 3t105.5 6t42.5 3q31 0 31 -33q0 -45 -35 -45
q-92 0 -119 -27q-24 -24 -51 -133l-94 -389q114 -20 165 -20q41 0 82 41l277 286q113 122 113 185q0 18 -9.5 29.5t-30 16t-38 6t-47.5 1.5q-29 0 -29 37q0 39 31 39q3 0 44.5 -1.5t92.5 -3t78 -1.5q84 0 234.5 12t158.5 12q11 0 19 -10t8 -25z" />
    <glyph glyph-name="L" unicode="L" horiz-adv-x="1361" 
d="M1321 389q0 -5 -24 -31.5t-53 -61.5t-53 -98t-24 -132q0 -8 3.5 -25t3.5 -21q0 -14 -10 -22t-23 -8q-3 0 -46 2.5t-109.5 5t-125.5 2.5h-573q-63 0 -134.5 -3t-116.5 -6l-46 -3q-14 0 -22.5 11.5t-8.5 27.5t7.5 27.5t19.5 11.5q77 0 114 4.5t54 21.5q24 24 51 133
l235 983q19 83 19 119q0 15 -10 25q-14 14 -132 14q-13 0 -21.5 11t-8.5 26q0 39 30 39q17 0 111.5 -4t134.5 -4q71 0 210.5 7t152.5 7q12 0 19 -10t7 -25q0 -19 -9 -30t-21 -11q-74 0 -101 -5t-43 -21q-26 -26 -51 -134l-235 -976q-21 -86 -21 -123q0 -22 16 -29.5t56 -7.5
h215q39 0 71 12t50 26.5t43 39.5q69 69 194 172.5t164 103.5q15 0 28 -13t13 -28z" />
    <glyph glyph-name="M" unicode="M" horiz-adv-x="1966" 
d="M2109 1413q0 -19 -9 -30t-21 -11q-134 0 -154 -20q-25 -25 -51 -140l-225 -976q-21 -91 -21 -123q0 -30 38.5 -37.5t125.5 -7.5q14 0 22.5 -10.5t8.5 -26.5q0 -39 -31 -39q-2 0 -120 4t-167 4q-113 0 -220 -7t-128 -7q-12 0 -21.5 10t-9.5 31q0 15 9.5 25.5t21.5 10.5
q125 0 154 29q28 28 51 133l225 983q17 80 17 103q0 30 -37 30h-21q-24 0 -37.5 -11.5t-33.5 -49.5l-471 -901q-23 -46 -61.5 -128t-69 -148.5t-33.5 -71.5q-20 -41 -62 -41q-30 0 -30 24q0 91 -11 201l-102 1075q-3 35 -31 35h-31q-8 0 -12.5 -4t-5.5 -7.5t-4 -13.5
l-152 -655q-28 -118 -49.5 -260t-21.5 -180q0 -70 43 -103.5t141 -33.5q31 0 31 -37q0 -39 -31 -39q-2 0 -60.5 2t-135 4t-121.5 2q-61 0 -142 -4t-84 -4q-30 0 -30 35q0 41 30 41q61 0 98 10t66 39q35 35 103 313l184 748q31 131 31 153q0 12 -9 21q-10 10 -35 12t-126 2
q-25 0 -25 41q0 33 25 33q2 0 144.5 -3t178.5 -3q22 0 133 2t123 2q23 0 32.5 -12.5t12.5 -43.5l78 -829h10l420 799q30 53 52 69.5t61 16.5q6 0 80.5 -2t103.5 -2q77 0 166 3.5t147.5 7t59.5 3.5q12 0 19 -10t7 -25z" />
    <glyph glyph-name="N" unicode="N" horiz-adv-x="1617" 
d="M1802 1403q0 -14 -9.5 -24.5t-20.5 -10.5q-59 0 -92 -9t-62 -38q-19 -19 -37 -62t-26.5 -74t-28.5 -110l-154 -614q-61 -245 -102 -451q-8 -41 -41 -41q-22 0 -32.5 7t-18.5 24q0 1 -113 256l-467 1034q-3 8 -10.5 14.5t-14.5 6.5h-10q-14 0 -20 -21l-123 -512
q-103 -422 -103 -553q0 -48 17.5 -80.5t50.5 -49t70 -23t88 -6.5q13 0 21.5 -10t8.5 -25q0 -43 -30 -43q-2 0 -63 3t-137.5 6t-117.5 3q-59 0 -156 -5t-110 -5q-12 0 -21.5 10t-9.5 31q0 17 9.5 27t21.5 10q91 0 126 14.5t58 60.5q9 17 24 67.5t35.5 128.5t35 135.5
t35.5 144t24 98.5l61 246q7 28 21.5 83t23 88.5t18.5 74t14.5 65.5t4.5 37q0 36 -39.5 46.5t-150.5 10.5q-35 0 -35 45q0 15 9.5 25t21.5 10q29 -4 140.5 -9t207.5 -5h174q44 0 61 -10t31 -42l410 -890h10l82 358q76 335 76 420q0 27 -10.5 45.5t-25 28t-41 15t-47 6.5
t-54.5 1q-13 0 -22 11t-9 26q0 39 31 39q2 0 50 -2t111.5 -4t104.5 -2q144 0 246 10q14 0 22 -12.5t8 -28.5z" />
    <glyph glyph-name="O" unicode="O" horiz-adv-x="1566" 
d="M1536 768q0 -129 -45.5 -251.5t-126.5 -220.5t-186 -172t-230 -114.5t-252 -40.5q-110 0 -211.5 54.5t-176.5 147.5t-120 222.5t-45 272.5q0 158 70 305.5t184.5 255t269 172.5t316.5 65q147 0 274 -92t203 -253t76 -351zM1249 932q0 219 -77.5 338t-229.5 119
q-145 0 -263.5 -123.5t-183.5 -326t-65 -437.5q0 -212 78.5 -334.5t228.5 -122.5q112 0 209 75t162.5 199t103 284t37.5 329z" />
    <glyph glyph-name="P" unicode="P" horiz-adv-x="1269" 
d="M1352 1055q0 -130 -67.5 -236.5t-180 -165.5t-244.5 -59q-89 0 -150 14.5t-126 46.5l-103 -419q-24 -105 -24 -134q0 -23 36.5 -31t151.5 -8q14 0 22.5 -9.5t8.5 -22.5q0 -43 -31 -43q-2 0 -49.5 3t-136.5 6t-193 3q-191 0 -276 -10q-12 0 -21.5 10t-9.5 31q0 15 9.5 26
t21.5 11q129 0 153 24q25 25 52 133l235 983q21 99 21 117q0 16 -11 27q-14 14 -174 14q-13 0 -21.5 11t-8.5 26q0 39 26 39q4 0 100 -4t150 -4q46 0 185.5 7t244.5 7q186 0 298 -105t112 -288zM1075 1096q0 129 -63.5 202.5t-171.5 73.5q-52 0 -72 -20q-19 -19 -41 -103
l-127 -522q74 -41 158 -41q81 0 144 35t99.5 94t55 130t18.5 151z" />
    <glyph glyph-name="Q" unicode="Q" horiz-adv-x="1546" 
d="M1946 -270q0 -41 -18.5 -80.5t-58 -76.5t-96 -65t-139 -44.5t-180.5 -16.5q-139 0 -278.5 39.5t-247.5 96t-204.5 112.5t-183.5 95.5t-151 39.5q-23 0 -39 -7t-21 -14.5t-5 -13.5q0 -12 24.5 -47.5t24.5 -69.5q0 -51 -35.5 -79.5t-83.5 -28.5t-84.5 31.5t-36.5 85.5
q0 51 25 96.5t72.5 81.5t104 66t134.5 56.5t147 45.5t156 39l-2 10q-63 -10 -104 -10q-143 0 -262 69t-190 196.5t-71 287.5q0 175 70.5 333t184.5 267.5t259.5 174t294.5 64.5q163 0 296 -72.5t210.5 -206.5t77.5 -304q0 -169 -67.5 -306t-198.5 -268q-46 -46 -117 -93
t-138.5 -82t-151.5 -71t-137 -55.5t-115.5 -42t-67.5 -24.5l-92 -37l4 -8q67 14 159 14q131 0 246 -20.5t196.5 -53t152 -71.5t125 -78.5t102 -72t96.5 -53t96 -20.5q57 0 85 18t28 44q0 10 -13 24.5t-28 28.5t-28 40t-13 56q0 55 41.5 96t101.5 41q66 0 105 -45t39 -112z
M1239 942q0 209 -86 326.5t-221 117.5q-92 0 -172.5 -50t-138 -132.5t-99 -187t-62 -215.5t-20.5 -217q0 -115 32.5 -213t99.5 -161t155 -63q112 0 209 68t162.5 179.5t103 254.5t37.5 293z" />
    <glyph glyph-name="R" unicode="R" horiz-adv-x="1536" 
d="M1638 31q0 -17 -10.5 -29t-30.5 -12q-256 0 -384.5 16t-178.5 66q-38 38 -80.5 152l-85 228t-80.5 152q-72 72 -196 72l-111 -440q-20 -87 -20 -123q0 -28 36.5 -36.5t116.5 -8.5q14 0 22.5 -10.5t8.5 -26.5q0 -41 -31 -41q-2 0 -39.5 2.5t-118.5 5t-190 2.5
q-50 0 -114 -2.5t-110 -5t-52 -2.5q-12 0 -21.5 10t-9.5 31q0 15 9.5 26t21.5 11q129 0 153 24q25 25 52 133l245 983q21 99 21 117q0 29 -30.5 36t-123.5 7q-14 0 -22.5 12.5t-8.5 32.5q0 14 7.5 23.5t17.5 9.5q4 0 47.5 -2.5t110.5 -5.5t125 -4q230 10 368 10
q178 0 283.5 -78t105.5 -240q0 -178 -117 -289.5t-302 -134.5v-6q11 -2 30 -7.5t62.5 -26.5t70.5 -48q29 -29 69.5 -120.5t89.5 -191.5t97 -148q74 -74 256 -86q41 -3 41 -37zM1065 1137q0 112 -62.5 168.5t-173.5 56.5q-10 0 -27 -4.5t-24 -11.5q-20 -20 -30 -56l-138 -538
q56 -21 117 -21q143 0 240.5 110t97.5 296z" />
    <glyph glyph-name="S" unicode="S" 
d="M1137 1055q0 -14 -17.5 -22.5t-34.5 -8.5q-25 0 -41 31q-71 142 -102 187q-85 125 -203 138q-15 2 -32 2q-91 0 -148 -48t-57 -146q0 -50 28 -99.5t73.5 -93.5t100 -90.5t109 -99t100 -109.5t73.5 -131t28 -155q0 -118 -62.5 -218.5t-176 -161.5t-253.5 -61
q-71 0 -137 19t-111.5 38t-68.5 19q-22 0 -55.5 -25.5t-47.5 -25.5q-21 0 -31 10.5t-10 20.5q0 1 10.5 64t10.5 106q0 92 -10 195l-11 102q0 14 15 22t37 8q15 0 24.5 -9t16.5 -32q11 -34 31 -87.5t60 -136t72 -114.5q92 -92 215 -92q49 0 94 13t85 41t64 80t24 122
q0 50 -27 99t-70.5 93t-96 90t-105 97t-96 105.5t-70.5 125.5t-27 148q0 74 27 144.5t76.5 127.5t126.5 92t170 35q83 0 172.5 -23.5t103.5 -23.5q21 0 47.5 31t44.5 31q41 0 41 -31q0 -6 -2 -45.5t-2 -50.5q0 -46 2.5 -92.5t6 -80.5t7.5 -61.5t6.5 -44t2.5 -18.5z" />
    <glyph glyph-name="T" unicode="T" horiz-adv-x="1443" 
d="M1587 1065q0 -12 -13 -21.5t-28 -9.5q-24 0 -41 17q-26 26 -91 136t-89 134t-50 30.5t-108 6.5h-92q-15 0 -22 -27l-265 -1095q-20 -87 -20 -123q0 -29 34 -37t140 -8q14 0 22.5 -10.5t8.5 -26.5t-8.5 -27.5t-22.5 -11.5q-3 0 -48.5 2t-127 4t-172.5 2q-214 0 -307 -12
q-12 0 -21.5 11t-9.5 32q0 15 9.5 26t21.5 11q80 0 114.5 4.5t49.5 19.5q24 24 51 133l266 1116q0 17 -20 17h-154q-40 0 -61.5 -8.5t-51.5 -38.5q-9 -9 -83.5 -92t-130.5 -134t-83 -51q-16 0 -28.5 11t-12.5 30q0 8 17.5 35t39 60.5t39 86t17.5 105.5q0 25 -3 39t-3 16
q0 11 9 18t22 7q3 0 44.5 -2t105.5 -4t122 -2h238h286h172q81 0 150 2t104.5 4t36.5 2q27 0 27 -25q0 -4 -7.5 -38t-7.5 -58q0 -59 9 -118.5t17.5 -97t8.5 -40.5z" />
    <glyph glyph-name="U" unicode="U" horiz-adv-x="1628" 
d="M1823 1407q0 -18 -9.5 -28.5t-21.5 -10.5q-101 0 -154 -53q-21 -21 -42.5 -73t-35 -99.5t-34.5 -128.5l-133 -543q-63 -260 -216.5 -381t-428.5 -121q-83 0 -157 14t-142 47t-117 82.5t-78 126t-29 171.5q0 128 41 286l133 512q21 86 21 117q0 15 -7.5 23t-40 13t-96.5 5
q-13 0 -21.5 11t-8.5 26q0 41 30 41q50 -10 287 -10q64 0 184 5t138 5q14 0 22 -11.5t8 -23.5q0 -17 -8 -30t-22 -13q-70 0 -99.5 -5t-44.5 -20t-28 -50.5t-37 -123.5l-113 -409q-51 -183 -51 -328q0 -151 100.5 -239.5t257.5 -88.5q84 0 150.5 25.5t111 66t80.5 104.5
t57.5 127t41.5 148l71 308q72 318 72 389q0 15 -6.5 34.5t-13.5 26.5q-35 35 -154 35q-13 0 -22 11t-9 26q0 39 31 39q2 0 50 -2t111.5 -4t104.5 -2q59 0 146 5t100 5q14 0 22.5 -10.5t8.5 -26.5z" />
    <glyph glyph-name="V" unicode="V" horiz-adv-x="1372" 
d="M1782 1413q0 -41 -41 -41q-13 0 -48.5 -8t-64.5 -23q-119 -61 -276 -215l-1137 -1126q-31 -31 -61 -31q-19 0 -35.5 12t-16.5 23q0 7 16.5 61.5t43.5 141t43 141.5l246 860q18 70 18 103q0 36 -30.5 45.5t-121.5 9.5q-30 0 -30 41q0 35 30 35q4 0 53 -2t116 -4t116 -2
q41 0 124 3t150 6t72 3q25 0 25 -39q0 -35 -31 -35q-97 0 -123 -26q-35 -35 -61 -117l-277 -830l11 -4l706 731q113 113 113 185q0 55 -144 55q-30 0 -30 37q0 18 7.5 28.5t18.5 10.5q3 0 42.5 -2t87 -4t69.5 -2q68 0 230 7t163 7q12 0 19.5 -10t7.5 -25z" />
    <glyph glyph-name="W" unicode="W" horiz-adv-x="2222" 
d="M2632 1413q0 -41 -41 -41q-13 0 -48.5 -8t-64.5 -23q-124 -63 -276 -215l-1133 -1126q-31 -31 -65 -31q-17 0 -29 10t-12 21q0 9 13 59.5t41 151.5t38 137l174 649l-10 7l-1004 -1004q-31 -31 -61 -31q-17 0 -34.5 12t-17.5 23q0 9 16.5 63t43.5 140t43 141l246 860
q18 70 18 103q0 36 -30.5 45.5t-121.5 9.5q-30 0 -30 41q0 35 30 35q4 0 53 -2t116 -4t116 -2q41 0 124 3t150 6t72 3q25 0 25 -39q0 -35 -31 -35q-97 0 -123 -26q-31 -31 -61 -117l-277 -830l11 -4l747 762q24 24 42.5 70t18.5 84q0 35 -29 45t-93 10q-14 0 -22.5 10.5
t-8.5 26.5q0 39 31 39q4 0 55.5 -2t121.5 -4t120 -2q41 0 112.5 3t127 6t57.5 3q30 0 30 -39q0 -35 -30 -35q-97 0 -123 -26q-41 -41 -62 -117l-235 -809l10 -4l686 710q113 117 113 185q0 55 -144 55q-30 0 -30 37q0 18 7.5 28.5t18.5 10.5q3 0 42.5 -2t87 -4t69.5 -2
q63 0 155 4t161.5 8t76.5 4q12 0 19.5 -11t7.5 -26z" />
    <glyph glyph-name="X" unicode="X" horiz-adv-x="1484" 
d="M1710 1413q0 -41 -31 -41q-88 0 -181.5 -56.5t-207.5 -168.5l-297 -297q-30 -29 -30 -35q0 -2 10 -37l174 -502q47 -139 82 -174q22 -22 52.5 -28t90.5 -6q14 0 22.5 -10.5t8.5 -26.5q0 -17 -8.5 -29.5t-22.5 -11.5q-230 10 -317 10q-45 0 -117 -2t-128 -4t-62 -2
q-31 0 -31 39q0 16 8.5 26.5t22.5 10.5q27 0 40 0.5t34 1.5t31.5 4.5t22.5 9.5t16.5 16t4.5 23q0 32 -27 123l-127 379h-6l-256 -287q-74 -84 -100.5 -128t-26.5 -77q0 -63 117 -63q14 0 22.5 -11.5t8.5 -27.5t-8.5 -26.5t-22.5 -10.5q-3 0 -44.5 1.5t-92.5 3t-78 1.5
q-243 0 -369 -14q-13 0 -21.5 9.5t-8.5 24.5q0 41 30 41q177 0 400 226l395 399q20 20 20 31q0 10 -6 31l-143 409q-51 143 -82 174q-22 22 -51.5 28.5t-81.5 6.5q-14 0 -22.5 10.5t-8.5 26.5q0 17 8.5 29.5t22.5 11.5q230 -10 307 -10q45 0 117 2t128 4t62 2q31 0 31 -39
q0 -16 -8.5 -26.5t-22.5 -10.5q-27 0 -40 -0.5t-34 -1.5t-31.5 -4.5t-22.5 -9.5t-16.5 -16t-4.5 -23q0 -47 26 -123l93 -277h6l198 215q103 111 103 174q0 64 -125 64q-29 0 -29 37q0 39 31 39q3 0 44.5 -1.5t92.5 -3t78 -1.5q85 0 221 7t137 7q13 0 22 -10t9 -25z" />
    <glyph glyph-name="Y" unicode="Y" horiz-adv-x="1392" 
d="M1618 1307q0 -61 -38.5 -105.5t-104.5 -44.5q-37 0 -65 12.5t-43.5 30.5t-27 36.5t-23.5 31t-26 12.5q-62 0 -141 -87.5t-147.5 -214t-124 -264.5t-78.5 -243l-51 -235q-21 -92 -21 -130q0 -24 36.5 -31t117.5 -7q30 0 30 -37q0 -18 -9.5 -28.5t-20.5 -10.5q-82 8 -338 8
q-79 0 -181.5 -4t-105.5 -4q-31 0 -31 39q0 16 8.5 26.5t22.5 10.5q72 0 106 5t48 19q25 25 51 133l82 338q61 253 61 451q0 137 -49 201.5t-125 64.5q-87 0 -159 -74t-72 -172q0 -16 17.5 -28t42.5 -22.5t50 -24t42.5 -41.5t17.5 -68q0 -52 -36 -84.5t-87 -32.5
q-62 0 -108 51.5t-46 157.5q0 96 47.5 189t120.5 158t161 105t167 40q108 0 174.5 -75.5t66.5 -232.5q0 -87 -17.5 -199.5t-34.5 -181.5l-17 -69v-2q0 -8 8 -8q3 0 5.5 2.5t3.5 5.5l1 2q37 91 65 154.5t72 152.5t82.5 150.5t91.5 128.5t105 108t117 67.5t133 26.5
q84 0 129 -46.5t45 -110.5z" />
    <glyph glyph-name="Z" unicode="Z" horiz-adv-x="1443" 
d="M1556 1399q0 -13 -20 -33q-44 -44 -143 -137l-1076 -1147l5 -6h426q73 0 104 14.5t80 63.5q88 88 207 179t161 91q15 0 28 -15t13 -30q0 -11 -10 -21q-85 -85 -121 -153t-36 -144q0 -11 5 -26t5 -19q0 -26 -33 -26q-9 0 -54.5 2.5t-127.5 5t-181 2.5h-522
q-54 0 -128.5 -2.5t-129 -5t-59.5 -2.5q-13 0 -22 12.5t-9 22.5q0 6 2.5 12t10 15t11 13t15 15t12.5 12l1188 1251l-4 9q-88 6 -145 6h-228q-34 0 -50 -1.5t-36.5 -9.5t-38.5 -26q-12 -12 -54.5 -59.5t-68.5 -73.5q-56 -56 -100.5 -91t-64 -44t-29.5 -9q-15 0 -28 13t-13 28
q0 4 30.5 50.5t61.5 111.5t31 115q0 18 -3 33.5t-3 17.5q0 27 26 27q5 0 113 -3t176 -3h438q54 0 140 2.5t150.5 5t68.5 2.5q13 0 21.5 -16t8.5 -29z" />
    <glyph glyph-name="bracketleft" unicode="[" horiz-adv-x="716" 
d="M1075 1413q0 -29 -12 -49.5t-25 -20.5q-2 0 -37 2.5t-82 4.5t-79 2h-318l-436 -1803h313q143 0 215 7q16 0 28.5 -13t12.5 -35q0 -29 -12.5 -47t-28.5 -18q-14 0 -92 2t-102 2h-481q-21 0 -21 27l471 1949q6 31 25 31h426q60 0 123.5 2t70.5 2q17 0 29 -11.5t12 -33.5z
" />
    <glyph glyph-name="backslash" unicode="\" horiz-adv-x="921" 
d="M901 -487q0 -26 -26.5 -46t-61.5 -20q-33 0 -49 31q-3 7 -34.5 82.5t-79 191.5t-77.5 187l-434 1044q-40 94 -87 196t-70 151.5t-23 55.5q0 29 29.5 48.5t62.5 19.5q29 0 43 -27q3 -6 35 -84t79 -192t79 -188l436 -1045q38 -90 84 -192t70 -154t24 -59z" />
    <glyph glyph-name="bracketright" unicode="]" horiz-adv-x="716" 
d="M799 1427l-471 -1949q-6 -31 -25 -31h-436q-60 0 -124 -2t-71 -2q-17 0 -29 11.5t-12 33.5q0 29 12 49.5t25 20.5q2 0 37.5 -2t82.5 -4.5t79 -2.5h328l436 1803h-303q-154 0 -215 -6q-16 0 -28.5 12.5t-12.5 34.5q0 29 12.5 47t28.5 18q14 0 92 -2t102 -2h471
q21 0 21 -27z" />
    <glyph glyph-name="asciicircum" unicode="^" horiz-adv-x="593" 
d="M676 1444q0 -3 -17 -84t-41 -206t-38 -218q0 -14 -17 -14q-53 0 -93 13t-40 28q0 4 13.5 50.5t33 117t31.5 118.5h-6l-369 -317q-10 -10 -24 -10q-12 0 -19.5 7.5t-7.5 16.5q0 5 7 14.5t15 15.5l7 7l473 430q11 9 26 24t22.5 21t12.5 6q31 0 31 -20z" />
    <glyph glyph-name="underscore" unicode="_" horiz-adv-x="1024" 
d="M993 -205q0 -20 -6.5 -40.5t-19.5 -20.5h-994q-24 0 -24 61q0 62 26 62h988q30 0 30 -62z" />
    <glyph glyph-name="grave" unicode="`" horiz-adv-x="358" 
d="M563 1036q0 -13 -11 -22.5t-26 -9.5q-14 0 -65 51l-199 202q-34 37 -45.5 59.5t-11.5 47.5q0 45 31 72.5t75 27.5q73 0 109 -92l123 -280q20 -45 20 -56z" />
    <glyph glyph-name="a" unicode="a" horiz-adv-x="1095" 
d="M1065 911q0 -6 -8 -26.5t-25.5 -61t-27.5 -65.5l-123 -307q-93 -233 -93 -273q0 -10 7 -17t18 -7q20 0 50.5 30t55.5 64.5t47 67.5l21 32q10 10 23 10q14 0 24 -9.5t10 -20.5q0 -6 -16.5 -34t-43.5 -68t-66.5 -85t-82 -83.5t-93.5 -63.5t-97 -25q-51 0 -76.5 24t-25.5 58
q0 44 92 225l102 205l-10 6q-182 -266 -326 -392t-278 -126q-56 0 -94.5 38.5t-38.5 105.5q0 87 41 198.5t112 218.5t156 198.5t183 147.5t184 56q113 0 147 -103h6l31 93q10 28 30.5 39.5t71.5 11.5t82 -18.5t31 -43.5zM768 748q0 106 -92 106q-82 0 -191 -118.5
t-184.5 -269t-75.5 -241.5q0 -82 72 -82q55 0 169 111.5t208 259t94 234.5z" />
    <glyph glyph-name="b" unicode="b" horiz-adv-x="1034" 
d="M1014 748q0 -89 -45.5 -198t-121.5 -209.5t-166.5 -185t-190.5 -135.5t-183 -51q-106 0 -170.5 54.5t-64.5 140.5q0 75 71 317l185 645q30 98 30 144q0 25 -10 35q-11 11 -33.5 20.5t-45.5 17t-27 9.5q-13 6 -13 24q0 28 21 31q156 13 221 27q27 5 81.5 23t61.5 18h11
q24 0 24 -31q0 -4 -12 -36.5t-36.5 -101.5t-47.5 -139l-225 -682l10 -4q61 107 116.5 184t119 140t134 95t146.5 32q75 0 117.5 -47t42.5 -137zM782 635q0 64 -20 88.5t-55 24.5q-74 0 -180 -105t-183.5 -247.5t-77.5 -241.5q0 -113 92 -113q42 0 98.5 37.5t112.5 101.5
t104.5 139.5t78.5 160t30 155.5z" />
    <glyph glyph-name="c" unicode="c" horiz-adv-x="788" 
d="M809 778q0 -52 -30 -85.5t-83 -33.5q-40 0 -71 26t-31 63q0 17 5 44.5t5 36.5t-10 17t-31 8q-83 0 -158 -93.5t-117 -227t-42 -257.5q0 -67 25.5 -110t76.5 -43q72 0 144 72q18 18 48.5 59t32.5 43q14 14 25 14q14 0 25.5 -8t11.5 -22t-41 -81t-82 -108
q-60 -60 -129 -91.5t-133 -31.5q-98 0 -164 64.5t-66 181.5q0 64 20 142t56 157.5t89.5 155t116.5 133.5t142 93.5t160 35.5q100 0 152.5 -46.5t52.5 -107.5z" />
    <glyph glyph-name="d" unicode="d" horiz-adv-x="1136" 
d="M1239 1444q0 -4 -17 -50.5t-43 -117.5t-42 -119l-215 -655q-86 -262 -86 -318q0 -30 24 -30q26 0 88 86t76 114q4 8 14 8q17 0 29 -9t12 -21q0 -6 -19.5 -43t-57 -91t-83 -105t-105.5 -87.5t-118 -36.5q-50 0 -76 24t-26 58q0 42 13 91.5t48 154.5l66 184l-8 4
q-135 -241 -279 -378.5t-260 -137.5q-164 0 -164 174q0 90 42 199.5t113.5 211.5t156.5 188t179.5 138t174.5 52q61 0 94.5 -25.5t52.5 -87.5h6l82 287q41 139 41 164q0 20 -10 30q-14 14 -36.5 24.5t-45 18t-26.5 9.5q-15 8 -15 26q0 27 21 31q184 20 215 25
q27 4 60.5 14.5t56 18.5t26.5 8h10q14 0 22.5 -11t8.5 -20zM768 748q0 51 -30 78.5t-72 27.5q-75 0 -177.5 -104t-177.5 -250t-75 -254q0 -44 19.5 -68t51.5 -24q55 0 166.5 109t203 253.5t91.5 231.5z" />
    <glyph glyph-name="e" unicode="e" horiz-adv-x="819" 
d="M799 768q0 -67 -38 -123t-96 -91.5t-132.5 -61t-140 -37.5t-126.5 -15q-14 -71 -14 -153q0 -77 33 -120.5t94 -43.5q38 0 77 18.5t68 47t51.5 55.5t37.5 49.5t16 23.5q11 11 20 11q13 0 25 -8.5t12 -22.5q0 -15 -45 -85.5t-94 -119.5q-123 -123 -281 -123
q-104 0 -169.5 63.5t-65.5 182.5q0 107 49 233t127 233t187.5 179t219.5 72q89 0 137 -46t48 -118zM635 788q0 76 -72 76q-68 0 -157 -119.5t-127 -252.5q76 12 138 38t101.5 57.5t66.5 68.5t38.5 70t11.5 62z" />
    <glyph glyph-name="f" unicode="f" horiz-adv-x="634" 
d="M1065 1290q0 -48 -34 -85.5t-89 -37.5q-47 0 -80 29t-33 74q0 29 10.5 62.5t10.5 39.5q0 17 -18 29t-54 12t-66.5 -12.5t-62 -47t-57.5 -90.5t-50.5 -147.5t-43.5 -214.5q46 0 135 5t90 5q25 0 25 -45q0 -26 -14 -45.5t-27 -19.5q-4 0 -41.5 2t-90.5 4t-94 2
q-220 -1126 -405 -1311q-61 -61 -148 -61q-64 0 -108.5 37.5t-44.5 101.5q0 50 33 86.5t79 36.5q34 0 65.5 -18t54 -36t34.5 -18q10 0 25 11.5t26 33.5q18 36 43 229t56.5 487t48.5 421q-41 0 -94.5 -2t-57.5 -2q-9 0 -18 12t-9 33q0 28 9 42.5t18 14.5q6 0 77 -3t91 -3
q71 280 218.5 427t324.5 147q129 0 197.5 -55.5t68.5 -129.5z" />
    <glyph glyph-name="g" unicode="g" horiz-adv-x="952" 
d="M1024 850q0 -52 -32.5 -82.5t-80.5 -30.5q-41 0 -121 49.5t-104 57.5l-4 -4q47 -43 79 -102.5t32 -123.5q0 -92 -47.5 -178.5t-135 -143t-190.5 -56.5q-27 0 -96 8t-88 8q-26 0 -44 -16.5t-18 -51.5q0 -39 37.5 -62.5t97 -34.5t131.5 -20t144 -25.5t131.5 -44.5t97 -84.5
t37.5 -137.5q0 -85 -48 -152t-127 -106t-170.5 -59.5t-187.5 -20.5q-211 0 -320.5 62.5t-109.5 172.5q0 76 70 148.5t207 111.5v7q-2 2 -26 17.5t-30 20t-25.5 20.5t-26 27.5t-17.5 30.5t-15 40.5t-4 47.5q0 72 47.5 116t106.5 44q14 0 32 -2t29 -4l11 -2v6
q-44 17 -88.5 83.5t-44.5 137.5q0 163 115 286.5t274 123.5q66 0 160 -31t106 -31q13 0 29.5 16t30.5 35.5t36.5 35.5t46.5 16q48 0 80.5 -32t32.5 -91zM584 666q0 104 -20 151t-72 47q-58 0 -98 -57.5t-56 -134t-16 -160.5q0 -107 18.5 -156t69.5 -49q47 0 82.5 33.5
t54.5 89t28 114.5t9 122zM655 -297q0 195 -399 195q-55 0 -104.5 -53.5t-49.5 -151.5q0 -99 64.5 -147t171.5 -48q149 0 233 58.5t84 146.5z" />
    <glyph glyph-name="h" unicode="h" horiz-adv-x="1044" 
d="M1024 748q0 -108 -51.5 -246.5t-126 -255t-164 -197t-160.5 -80.5q-52 0 -82 29.5t-30 73.5q0 46 28 74t74 28q22 0 65.5 -30.5t57.5 -30.5q20 0 50.5 40t60.5 103.5t51.5 155.5t21.5 182q0 75 -21.5 114.5t-60.5 39.5q-54 0 -129.5 -63t-138 -145t-109 -155t-53.5 -98
l-67 -277q-3 -17 -28.5 -29t-68.5 -12q-65 0 -88.5 12.5t-23.5 38.5q0 4 19 66.5t51 167.5t53 176l204 696q31 102 31 144q0 25 -10 35q-7 7 -26.5 16.5t-42.5 19t-27 11.5q-17 8 -17 30q0 31 23 31q15 0 94 7t119 14q26 4 59 14.5t56 18.5t28 8h10q11 0 19 -9t8 -18
q0 -4 -11.5 -34.5t-34 -92.5t-42.5 -123l-236 -711l9 -6q246 451 483 451q81 0 127.5 -44.5t46.5 -139.5z" />
    <glyph glyph-name="i" unicode="i" horiz-adv-x="624" 
d="M563 287q0 -7 -23.5 -40.5t-64.5 -80t-90.5 -91t-109 -75.5t-111.5 -31q-56 0 -87.5 33.5t-31.5 69.5q0 18 12 51.5t40.5 101.5t45.5 113l82 215q23 54 42.5 111.5t19.5 72.5q0 8 -7 16.5t-14 8.5q-17 0 -41 -15.5t-47.5 -38.5t-43.5 -45t-35.5 -41t-16.5 -20
q-8 -8 -14 -8q-16 0 -26.5 10t-10.5 23q0 10 40 57.5t96 103.5t128 100t125 44q39 0 78 -26t39 -56q0 -14 -10 -45.5t-22 -61.5t-34.5 -86.5t-36.5 -93.5l-82 -215q-55 -137 -55 -174q0 -31 25 -31q14 0 37.5 16t49 40.5t46.5 47.5t38.5 43t18.5 21q8 8 14 8q16 0 26.5 -9.5
t10.5 -22.5zM625 1274q0 -60 -49.5 -109t-104.5 -49q-61 0 -97 39t-36 105q0 57 49 105t107 48q57 0 94 -39t37 -100z" />
    <glyph glyph-name="j" unicode="j" horiz-adv-x="655" 
d="M594 840q0 -9 -3 -24t-11 -43t-14 -48t-21 -68t-23 -73l-71 -236q-32 -100 -53.5 -163t-62.5 -169.5t-75.5 -176t-86.5 -153t-103.5 -132.5t-117.5 -83t-136 -34q-133 0 -200 60.5t-67 133.5q0 67 38.5 105.5t95.5 38.5q64 0 98.5 -33.5t34.5 -89.5q0 -22 -10.5 -65.5
t-10.5 -57.5q0 -8 13.5 -16.5t27.5 -8.5q98 0 166 119q51 89 126 341q8 25 23 79q22 72 33 111l113 378q17 55 31 117t14 78q0 14 -8 22.5t-17 8.5q-25 0 -65.5 -48.5t-74.5 -103.5l-34 -55q-8 -8 -14 -8q-18 0 -27.5 10t-9.5 20t20 49t57 91t82 101.5t101.5 83.5t108.5 34
t92.5 -30t40.5 -62zM727 1274q0 -64 -46 -111t-108 -47q-60 0 -96.5 38.5t-36.5 94.5q0 67 48 115.5t108 48.5q57 0 94 -39t37 -100z" />
    <glyph glyph-name="k" unicode="k" horiz-adv-x="1044" 
d="M1004 778q0 -66 -36.5 -119t-99 -86t-136.5 -53t-159 -28v-7q80 -25 107 -97t27 -214q0 -68 13 -100.5t52 -32.5q20 0 27 14q2 3 8.5 25.5t14 39.5t26 32.5t43.5 15.5q34 0 53 -19t19 -47q0 -62 -59.5 -97.5t-135.5 -35.5q-111 0 -188.5 48.5t-77.5 105.5v61
q0 51 -1.5 83t-6 71t-14 62t-26 45.5t-42 33.5t-60.5 13l-110 -472q-8 -31 -28 -41t-81 -10q-49 0 -75.5 16.5t-26.5 34.5q0 4 20 72.5t51.5 177t51.5 181.5l184 665q29 119 29 154q0 24 -11 35q-8 8 -29 17.5t-44 18.5t-27 11q-16 8 -16 30q0 12 7.5 21.5t16.5 9.5
q20 0 92.5 7t114.5 14q34 6 83.5 23.5t55.5 17.5h13q22 0 22 -27q0 -3 -10.5 -37.5t-32.5 -105t-39 -127.5l-170 -549l4 -4q122 166 228.5 236.5t224.5 70.5q69 0 111.5 -42.5t42.5 -111.5zM809 707q0 43 -24 64.5t-58 21.5q-65 0 -149.5 -64.5t-208.5 -198.5q31 -4 51 -4
q94 0 182 21t147.5 63.5t59.5 96.5z" />
    <glyph glyph-name="l" unicode="l" horiz-adv-x="604" 
d="M676 1444q0 -4 -12.5 -38t-36 -101t-43.5 -127l-256 -789q-19 -54 -35.5 -123t-16.5 -92q0 -14 9 -22.5t22 -8.5q20 0 72 52q27 27 59 65.5t53 65.5l21 28q8 8 14 8q16 0 26.5 -9.5t10.5 -22.5q0 -11 -38 -66.5t-94.5 -122t-136.5 -119.5t-151 -53q-52 0 -82 32.5
t-30 80.5q0 12 4 30.5t13.5 51t16.5 56t23.5 74t24.5 75.5l235 727q39 121 39 174q0 25 -10 35q-11 11 -31 19.5t-40 14t-25 7.5q-15 8 -15 26q0 27 21 31q105 11 205 31q22 4 56 14.5t58.5 18.5t28.5 8h10q14 0 22.5 -11t8.5 -20z" />
    <glyph glyph-name="m" unicode="m" horiz-adv-x="1669" 
d="M1608 276q0 -7 -27.5 -39.5t-76 -77.5t-106 -87.5t-125.5 -72.5t-126 -30q-35 0 -50.5 17t-15.5 39q0 49 45 149l134 301q46 105 66 160.5t20 91.5q0 21 -14 31t-32 10q-54 0 -130 -66.5t-142 -155.5t-115.5 -170.5t-62.5 -119.5l-82 -246q-12 -41 -92 -41
q-46 0 -79.5 10.5t-33.5 34.5q0 21 41 119l164 410q41 105 41 164q0 29 -13 40t-38 11q-53 0 -138 -87t-161.5 -201.5t-130.5 -223.5l-82 -236q-8 -41 -123 -41q-32 0 -57 11.5t-25 29.5q0 25 41 123l174 440q51 127 51 164q0 8 -6.5 14.5t-13.5 6.5q-18 0 -48 -24.5
t-54.5 -53t-47.5 -57t-24 -29.5q-6 -6 -17 -6t-23 11.5t-12 25.5q0 9 36.5 56.5t88.5 104t118.5 101.5t115.5 45q62 0 89.5 -21.5t27.5 -50.5q0 -14 -18 -61.5t-55.5 -137.5t-53.5 -129l-31 -77l10 -4q145 250 261 365.5t241 115.5q62 0 97.5 -29.5t35.5 -83.5t-72 -235
l-65 -160l10 -4q147 265 269 388.5t255 123.5q85 0 125.5 -35.5t40.5 -87.5q0 -35 -17.5 -85.5t-64.5 -160.5l-92 -215q-57 -134 -57 -164q0 -20 20 -20q8 0 18.5 4t22.5 11t23.5 15.5t24 19t23 20t21.5 20t17.5 17.5t13.5 13l6 7q20 20 31 20q12 0 21.5 -11.5t9.5 -23.5z
" />
    <glyph glyph-name="n" unicode="n" 
d="M1085 276q0 -7 -27.5 -39.5t-76 -77.5t-105.5 -87.5t-125 -72.5t-126 -30q-66 0 -66 62q0 14 5 34t9 32t16 41t15 36l127 287q92 205 92 266q0 21 -13.5 31t-31.5 10q-43 0 -116.5 -65.5t-142 -152.5t-123.5 -171t-68 -123l-82 -246q-12 -41 -103 -41q-102 0 -102 41
q0 25 41 123l174 440q51 127 51 164q0 8 -6.5 14.5t-13.5 6.5q-16 0 -38 -16.5t-43.5 -40.5t-39.5 -47.5t-30 -41.5l-13 -18q-6 -6 -21 -6q-9 0 -19.5 11.5t-10.5 25.5q0 13 36.5 61.5t87 103.5t114.5 98.5t110 43.5q53 0 85 -20.5t32 -51.5q0 -12 -18 -59t-56 -139.5
t-53 -129.5l-31 -77l6 -4q144 243 269.5 362t246.5 119q85 0 124.5 -35.5t39.5 -87.5q0 -35 -17.5 -85.5t-64.5 -160.5l-92 -215q-57 -134 -57 -164q0 -20 20 -20q8 0 18.5 4t22.5 11t23.5 15.5t24 19t23 20t21.5 20t17.5 17.5t13.5 13l6 7q20 20 31 20q12 0 21 -11.5
t9 -23.5z" />
    <glyph glyph-name="o" unicode="o" horiz-adv-x="962" 
d="M901 543q0 -136 -74.5 -269.5t-199 -219t-258.5 -85.5q-140 0 -224 103.5t-84 285.5q0 95 43.5 197.5t114 185.5t168 137t197.5 54q147 0 232 -103t85 -286zM707 707q0 74 -28 113.5t-75 39.5q-66 0 -131.5 -70.5t-112 -173.5t-75.5 -217.5t-29 -203.5q0 -154 102 -154
q66 0 132 71t112.5 173.5t75.5 217.5t29 204z" />
    <glyph glyph-name="p" unicode="p" horiz-adv-x="1064" 
d="M1014 614q0 -112 -55 -229.5t-141 -208.5t-198.5 -149t-220.5 -58q-35 0 -63 8.5t-38 17.5l-11 9l-8 -4l-95 -287q-41 -125 -41 -157q0 -25 31 -33t123 -8q11 0 18 -10t7 -23q0 -37 -25 -37q-5 0 -37 2t-86 4t-113 2q-80 0 -197 -11l-116 -11q-24 0 -24 32q0 35 20 35
q76 0 113.5 18t60.5 64q33 66 62 154l358 1065q-29 -11 -58.5 -28.5t-52 -35t-44.5 -37.5t-34.5 -34t-24.5 -26l-11 -13q-11 -11 -17 -11q-11 0 -23 10t-12 21t23 41.5t61 69t99 77t125 58.5l61 215q21 65 113 65q121 0 121 -45q0 -4 -17 -47l-65 -157l4 -7q49 17 121 17
q140 0 223.5 -94t83.5 -224zM788 614q0 117 -56 181.5t-138 64.5q-32 0 -41 -31l-225 -675q-17 -57 -17 -62q0 -17 21.5 -32t56.5 -15q81 0 157 55.5t127.5 140.5t83 184.5t31.5 188.5z" />
    <glyph glyph-name="q" unicode="q" horiz-adv-x="1054" 
d="M1055 911q0 -4 -8 -28t-22 -63t-21 -62l-328 -1045q-41 -139 -41 -157q0 -24 24 -32.5t99 -8.5q24 0 24 -33q0 -16 -7.5 -25.5t-16.5 -9.5q-2 0 -84 3t-131 3q-57 0 -172.5 -11t-134.5 -11q-12 0 -19.5 11t-7.5 26q0 12 7 21t20 9q68 0 100.5 8.5t56.5 32.5q23 23 68 164
l102 317q24 73 57.5 170.5t55.5 158.5l22 61l-8 6q-133 -227 -258 -337t-248 -110q-164 0 -164 185q0 92 42 202t112.5 209.5t155 183t177 133.5t169.5 50q61 0 95.5 -25.5t57.5 -87.5h7l18 92q10 52 78 52q43 0 72 -9t40 -20.5t11 -22.5zM778 727q0 59 -32 93t-80 34
q-80 0 -181 -99.5t-173 -243.5t-72 -261q0 -55 24 -81t64 -26q58 0 168 118t196 259.5t86 206.5z" />
    <glyph glyph-name="r" unicode="r" horiz-adv-x="890" 
d="M952 788q0 -46 -36 -89.5t-87 -43.5q-33 0 -58.5 15t-37 33.5t-24 33.5t-23.5 15q-25 0 -55.5 -22.5t-63.5 -67t-61 -86.5t-62.5 -106t-53 -100t-46.5 -92l-16 -32q-4 -9 -22 -65.5t-34 -108.5l-16 -52q-9 -29 -36.5 -40t-76.5 -11q-43 0 -69.5 9t-34.5 19.5t-8 22.5
q0 4 51 134l72 184q37 89 67 181t42.5 144.5t12.5 67.5q0 12 -6 19.5t-14 7.5q-11 0 -30.5 -16t-39 -39t-37.5 -45.5t-31 -39.5l-12 -18q-6 -6 -20 -6q-10 0 -22.5 9t-12.5 22t34 61t83.5 103.5t117 99t124.5 43.5q40 0 68 -22.5t28 -59.5q0 -18 -13 -53t-38 -91.5
t-35 -80.5l-103 -252l11 -4q48 90 78 145t69.5 122t67.5 106t63 80t65.5 62t65.5 34.5t72 13.5q67 0 105 -40.5t38 -103.5z" />
    <glyph glyph-name="s" unicode="s" horiz-adv-x="706" 
d="M686 778q0 -52 -31.5 -82t-76.5 -30q-37 0 -67 24.5t-30 67.5q0 11 10.5 40.5t10.5 35.5q0 36 -62 36q-41 0 -66.5 -33.5t-25.5 -99.5q0 -39 20 -84t49 -89t57.5 -90.5t48.5 -103.5t20 -114q0 -110 -96.5 -198.5t-231.5 -88.5q-110 0 -172.5 49.5t-62.5 118.5
q0 59 35.5 91t82.5 32q44 0 75.5 -26t31.5 -70q0 -17 -5 -54.5t-5 -43.5q0 -15 18.5 -26t42.5 -11q38 0 70 33t32 102q0 33 -18.5 76.5t-45 87.5t-53 91.5t-45 104.5t-18.5 111q0 125 89 211t225 86q76 0 135 -41t59 -113z" />
    <glyph glyph-name="t" unicode="t" horiz-adv-x="706" 
d="M737 881q0 -36 -13 -59t-28 -23q-1 0 -41 2.5t-88 5t-69 2.5l-140 -461q-39 -134 -39 -164q0 -12 10 -21t23 -9q20 0 56 36t67.5 78.5t58.5 81.5l27 39q10 10 23 10q12 0 21 -9t9 -21q0 -8 -21.5 -49t-63 -100.5t-93.5 -115.5t-122.5 -95.5t-139.5 -39.5
q-45 0 -73.5 26.5t-28.5 65.5q0 29 10 73.5t19 72t32 100.5l162 502q-22 0 -55 -2.5t-58 -5t-28 -2.5q-13 0 -22 15t-9 40q0 26 11.5 39.5t25.5 13.5q4 0 74 -3t94 -3l45 195q15 61 129 61q92 0 92 -51q0 -1 -37 -119l-29 -86q23 0 105 7l82 7q22 0 22 -34z" />
    <glyph glyph-name="u" unicode="u" horiz-adv-x="1085" 
d="M1044 891q0 -9 -5 -24t-17 -45.5t-18 -47.5l-175 -446q-51 -136 -51 -164q0 -8 7.5 -14.5t17.5 -6.5q13 0 34 16.5t42 40.5t39.5 47.5t31.5 41.5l13 18q6 6 20 6q9 0 20 -9t11 -23q0 -11 -34 -59.5t-83.5 -105.5t-117 -102t-124.5 -45q-53 0 -82.5 20t-29.5 52
q0 18 19 62t54 122t60 144l31 77l-7 5q-145 -244 -271.5 -363t-254.5 -119q-78 0 -116 34t-38 79q0 42 17.5 94t64.5 162l93 215q61 143 61 184q0 11 -6 18t-14 7q-17 0 -40 -14t-45.5 -35.5t-41 -41.5t-33 -38t-15.5 -19q-2 -2 -6.5 -7t-6.5 -7t-5.5 -4t-7.5 -2
q-12 0 -23.5 9.5t-11.5 21.5q0 8 24 41.5t66 78t90.5 86.5t105.5 71.5t103 29.5q41 0 82 -28t41 -64q0 -39 -51 -154l-113 -262q-28 -65 -36.5 -85t-25 -61t-21.5 -63.5t-5 -40.5q0 -22 16.5 -34.5t40.5 -12.5q53 0 142.5 90t170 208.5t128.5 219.5l71 236q16 51 103 51
q112 0 112 -41z" />
    <glyph glyph-name="v" unicode="v" horiz-adv-x="1024" 
d="M973 768q0 -77 -21 -177.5t-66 -210t-105 -201t-147 -151t-183 -59.5q-111 0 -178.5 61.5t-67.5 174.5q0 69 24 148t58.5 142.5t69.5 117.5t59 84l24 30v6q-20 4 -92 4h-72q-153 0 -153 -71q0 -7 20.5 -20.5t41 -35.5t20.5 -51q0 -40 -28 -64t-64 -24q-35 0 -64 27.5
t-29 74.5q0 54 47.5 141t96.5 136q31 31 54.5 41t68.5 10h82q59 0 109 7.5t76.5 15.5t29.5 8q8 0 14 -7t6 -14q0 -9 -33.5 -73t-74 -141.5t-74 -174.5t-33.5 -164q0 -105 44 -160t120 -55q47 0 97 32.5t92.5 89.5t70 146.5t27.5 192.5q0 27 -18.5 53.5t-41 45t-41 47
t-18.5 59.5q0 58 35.5 90.5t83.5 32.5q52 0 92.5 -40t40.5 -124z" />
    <glyph glyph-name="w" unicode="w" horiz-adv-x="1597" 
d="M1546 768q0 -79 -19 -181t-58.5 -211t-92.5 -199.5t-129.5 -149t-161.5 -58.5q-103 0 -153.5 58.5t-50.5 156.5q0 27 4 63t8 59l4 22h-6q-19 -38 -42.5 -77t-65.5 -92.5t-86 -93t-104.5 -68t-121.5 -28.5q-99 0 -157 62.5t-58 163.5q0 72 22 153t54 145.5t63.5 119
t53.5 84.5l22 30v6q-10 4 -82 4h-123q-86 0 -114.5 -20t-28.5 -51q0 -7 20.5 -22t41 -38.5t20.5 -52.5q0 -40 -28 -64t-64 -24q-35 0 -64 25.5t-29 72.5q0 58 47 147.5t97 139.5q31 31 54.5 41t68.5 10h123q63 0 114 7.5t76 15.5l25 8q9 0 16.5 -7.5t7.5 -13.5
q0 -4 -21.5 -39.5t-52.5 -92.5t-61.5 -125t-52 -153.5t-21.5 -162.5q0 -93 32.5 -138.5t100.5 -45.5q52 0 102 29.5t85 71.5t62.5 84t41.5 71l13 30q-4 7 -11.5 19.5t-26.5 50.5t-33 74.5t-26 85t-12 88.5q0 81 50.5 127.5t123.5 46.5q62 0 108 -38t46 -116q0 -55 -33 -142
t-67 -146l-33 -60q0 -118 45.5 -197t138.5 -79q48 0 93.5 26.5t85 78.5t63.5 141.5t24 203.5q0 20 -12.5 38t-29.5 33.5t-34.5 33t-30 43.5t-12.5 57q0 58 35.5 90.5t83.5 32.5q52 0 92.5 -40t40.5 -124zM979 707q0 81 -57 81q-58 0 -58 -81q0 -36 13.5 -82.5t26.5 -74.5
l14 -28h8q53 117 53 185z" />
    <glyph glyph-name="x" unicode="x" horiz-adv-x="1054" 
d="M1065 819q0 -45 -31.5 -78.5t-70.5 -33.5q-36 0 -59.5 15.5t-37.5 30.5t-26 15q-28 0 -93.5 -80.5t-132.5 -185.5l56 -195q21 -73 39 -103t39 -30q33 0 80 65.5t73 118.5q11 21 27 21q12 0 23.5 -8.5t11.5 -22.5q0 -10 -30.5 -68t-74.5 -128.5t-104 -126.5t-109 -56
q-78 0 -123 154l-61 225h-6l-107 -153q-73 -106 -143 -166t-154 -60q-48 0 -80 30.5t-32 82.5q0 47 28.5 80t73.5 33q24 0 43.5 -9.5t29.5 -21.5t23.5 -21.5t26.5 -9.5q27 0 102.5 84t163.5 213l-61 205q-18 61 -33 81.5t-39 20.5q-33 0 -113 -164q-10 -20 -24 -20
q-13 0 -25 9.5t-12 21.5q0 8 15.5 45t44.5 88t63.5 99t79 82t84.5 34q41 0 67 -26t45 -97l62 -225h6l86 133q81 125 142 170t134 45q48 0 80.5 -30.5t32.5 -82.5z" />
    <glyph glyph-name="y" unicode="y" horiz-adv-x="952" 
d="M901 788q0 -48 -17 -131.5t-47.5 -187.5t-76 -221t-99 -231.5t-120.5 -219.5t-137 -185t-151 -127.5t-161 -47.5q-93 0 -143.5 47.5t-50.5 112.5q0 59 33 98t89 39q43 0 78 -29.5t35 -73.5q0 -11 -2 -30t-2 -25q0 -11 10.5 -21t24.5 -10q59 0 136 67.5t131 156.5t54 149
q0 34 -8.5 74t-17.5 68t-29 83l-143 410q-15 42 -24.5 66t-23 51t-27 39t-28.5 12q-39 0 -110 -178q-12 -31 -29 -31q-12 0 -23.5 8t-11.5 19q0 10 12.5 50.5t38 98.5t57.5 112.5t77.5 93t91.5 38.5q107 0 174 -246l164 -553h6q52 105 91.5 239.5t39.5 241.5q0 25 -11 45
t-27 34.5t-31.5 30t-26.5 40t-11 55.5q0 51 36 82t81 31q55 0 92 -36.5t37 -107.5z" />
    <glyph glyph-name="z" unicode="z" horiz-adv-x="1013" 
d="M973 174q0 -43 -21.5 -86.5t-62 -82t-109.5 -63t-155 -24.5q-66 0 -125 26.5t-101 64t-78 75t-71.5 64t-65.5 26.5q-22 0 -34.5 -9.5t-12.5 -21.5q0 -13 23.5 -49.5t23.5 -62.5q0 -40 -31 -66t-71 -26q-38 0 -65 27t-27 65q0 46 27 91t96 114q73 73 211 179.5t240 176.5
l102 70v8q-62 10 -116 39t-89.5 62.5t-65.5 65.5t-58.5 53t-55.5 21q-20 0 -36 -13.5t-16 -33.5q0 -7 19.5 -24t39 -43t19.5 -56q0 -36 -29 -64t-73 -28q-46 0 -77.5 34t-31.5 85q0 78 76 148.5t197 70.5q72 0 125 -19.5t79.5 -48t47 -62.5t32 -62.5t30 -48t44.5 -19.5
q21 0 31 10.5t10 20.5q0 14 -15.5 52t-15.5 60q0 44 31 70.5t72 26.5q37 0 64.5 -26.5t27.5 -70.5q0 -60 -103 -163q-73 -73 -218.5 -186.5t-254.5 -190.5l-110 -78l4 -8q57 22 129 22q57 0 102.5 -27.5t76 -66.5t58.5 -78t64 -66.5t78 -27.5q28 0 44.5 13.5t16.5 27.5
q0 13 -30.5 64t-30.5 79q0 44 33.5 73.5t72.5 29.5q50 0 79.5 -32t29.5 -81z" />
    <glyph glyph-name="braceleft" unicode="{" horiz-adv-x="716" 
d="M881 1423q0 -14 -11.5 -30.5t-25.5 -16.5q-9 0 -29 3t-37 3q-43 0 -69.5 -10t-53.5 -37q-34 -34 -57.5 -112.5t-38.5 -172.5t-31 -189.5t-45.5 -180t-72.5 -127.5q-32 -32 -81 -56.5t-81 -32.5l-33 -9v-9q31 -10 49 -17.5t43 -22.5t38.5 -33.5t23.5 -48.5t10 -68
q0 -68 -71.5 -321.5t-71.5 -313.5q0 -102 112 -102q22 0 43 3t23 3q8 0 14 -11t6 -26q0 -22 -39 -36.5t-88 -14.5q-123 0 -194.5 57.5t-71.5 157.5q0 68 46 195.5t92 257t46 202.5q0 32 -18.5 67.5t-52.5 35.5q-4 0 -27.5 -8.5t-34.5 -8.5q-17 0 -29 13t-12 38q0 28 16.5 45
t34.5 17q11 0 34.5 -7t27.5 -7q42 0 82 40q42 42 67 127t36 182t22 194.5t38 184.5t72 132q62 62 123.5 87t153.5 25q44 0 72.5 -6.5t39.5 -15t11 -19.5z" />
    <glyph glyph-name="bar" unicode="|" horiz-adv-x="512" 
d="M328 -522q0 -13 -22.5 -22t-59.5 -9q-78 0 -78 41q0 7 3 117t3 170v1147q0 91 -2.5 213.5t-5 209t-2.5 89.5q0 41 82 41q78 0 78 -41q0 -7 -3.5 -117t-3.5 -170v-1147q0 -86 2.5 -211t5.5 -216.5t3 -94.5z" />
    <glyph glyph-name="braceright" unicode="}" horiz-adv-x="716" 
d="M666 1249q0 -55 -29 -147.5t-63.5 -176.5t-63.5 -178.5t-29 -152.5q0 -31 19 -66.5t53 -35.5q4 0 27 8t34 8q17 0 29 -13t12 -38q0 -28 -16.5 -45t-34.5 -17q-11 0 -34 7.5t-27 7.5q-41 0 -82 -41q-42 -42 -67 -127t-36 -182t-22.5 -194.5t-38.5 -184.5t-72 -132
q-62 -62 -123 -87t-153 -25q-44 0 -72.5 6.5t-39.5 15t-11 19.5q0 14 11.5 30.5t25.5 16.5q9 0 28.5 -3t36.5 -3q43 0 69.5 10t53.5 37q34 34 57.5 112.5t38.5 172.5t31.5 189.5t46 180t72.5 127.5q32 32 80.5 56.5t81.5 33.5l33 8v9q-31 10 -49 17.5t-43 22.5t-38.5 33.5
t-23.5 48.5t-10 68q0 68 71.5 321.5t71.5 313.5q0 102 -113 102q-22 0 -42.5 -3t-22.5 -3q-8 0 -14.5 11t-6.5 26q0 22 39 36.5t88 14.5q123 0 195 -57.5t72 -157.5z" />
    <glyph glyph-name="asciitilde" unicode="~" horiz-adv-x="727" 
d="M870 1300q0 -55 -63 -135t-137 -80q-37 0 -197 46.5t-203 46.5q-17 0 -31 -11t-14 -20q0 -10 10.5 -31.5t10.5 -30.5q0 -18 -14.5 -31.5t-36.5 -13.5q-23 0 -37.5 16t-14.5 40q0 65 76.5 145t149.5 80q31 0 178 -46t190 -46q51 0 51 31q0 1 -10 18.5t-10 32.5q0 19 14 32
t37 13t37 -16t14 -40z" />
    <glyph glyph-name="nbspace" unicode="&#xa0;" horiz-adv-x="512" 
 />
    <glyph glyph-name="exclamdown" unicode="&#xa1;" horiz-adv-x="614" 
d="M676 1280q0 -63 -43.5 -108.5t-110.5 -45.5t-110 45.5t-43 108.5t43 108.5t110 45.5t110.5 -45.5t43.5 -108.5zM487 979q0 -28 -8 -57l-8 -31q-22 -91 -35 -208t-18.5 -214t-13.5 -189t-26 -160t-50 -100q-40 -40 -103 -40q-68 0 -121 40.5t-53 112.5q0 52 34.5 140
t80.5 176t104.5 217.5t94.5 240.5l14 45q8 26 13 37t15 18t27 7q16 0 34.5 -9t18.5 -26z" />
    <glyph glyph-name="cent" unicode="&#xa2;" horiz-adv-x="788" 
d="M809 778q0 -52 -30 -85.5t-83 -33.5q-40 0 -71 26t-31 63q0 17 5 44.5t5 36.5t-10 17t-31 8q-83 0 -158 -93.5t-117 -227t-42 -257.5q0 -67 25.5 -110t76.5 -43q72 0 144 72q18 18 48.5 59t32.5 43q14 14 25 14q14 0 25.5 -8t11.5 -22t-41 -81t-82 -108
q-109 -109 -221 -119l-55 -198q-8 -31 -52 -31q-20 0 -35.5 11t-15.5 26q0 3 17 35t41.5 79t37.5 74q-90 8 -149.5 72t-59.5 174q0 77 27.5 171t80 188t120.5 173t156.5 130t179.5 55l51 174q8 31 47 31q25 0 40 -9.5t15 -21.5q0 -4 -14 -33t-37 -74.5t-35 -70.5
q78 -11 118 -54.5t40 -95.5z" />
    <glyph glyph-name="sterling" unicode="&#xa3;" horiz-adv-x="901" 
d="M840 225q0 -54 -28.5 -104t-69 -82t-83.5 -51t-75 -19q-59 0 -149 20.5t-150 40.5l-60 21q-8 -9 -21.5 -22.5t-49 -36.5t-62.5 -23q-41 0 -66.5 31t-25.5 72q0 53 34.5 84.5t98.5 31.5q23 0 50 -2.5t43 -5.5l16 -2q5 5 13.5 15t22 44t13.5 70q0 23 -4.5 48t-8.5 39l-4 14
q-19 0 -92.5 -5.5t-75.5 -5.5q-30 0 -30 33q0 45 30 45q4 0 71 -5t77 -5q-49 133 -49 211q0 113 108.5 194.5t249.5 81.5q128 0 202.5 -60.5t74.5 -154.5q0 -46 -33.5 -79t-79.5 -33q-43 0 -72.5 27.5t-29.5 68.5q0 32 25.5 64t25.5 44q0 26 -23 44t-69 18q-77 0 -120.5 -61
t-43.5 -144q0 -32 4 -69.5t11 -85t9 -66.5q26 0 76 5t51 5q27 0 27 -35q0 -43 -37 -43q-5 0 -52 5.5t-65 5.5q0 -61 -37 -116t-104 -122q65 -11 186 -44.5t177 -33.5q22 0 36.5 12.5t14.5 28.5q0 12 -16.5 26.5t-33 34.5t-16.5 46q0 43 30 67.5t67 24.5q42 0 67 -30t25 -77z
" />
    <glyph glyph-name="currency" unicode="&#xa4;" horiz-adv-x="1024" 
d="M840 311l-117 117q-95 -61 -209 -61q-120 0 -211 63l-119 -119q-18 -18 -34 -25.5t-36.5 -3t-43.5 26.5q-56 57 2 115l118 119q-63 91 -63 211q0 114 61 209l-116 116q-18 18 -25.5 34t-3 37t26.5 44q22 22 43.5 26.5t36.5 -3t34 -25.5l115 -117q98 66 215 66
q111 0 211 -64l115 115q18 18 34 25.5t36.5 3t43.5 -26.5q22 -22 26.5 -42.5t-3 -37t-25.5 -35.5l-114 -114q63 -99 63 -211q0 -118 -65 -215l116 -115q18 -18 25.5 -34t3 -37t-26.5 -44q-54 -54 -114 2zM281 754q0 -94 69.5 -164t163.5 -70q97 0 165.5 69.5t68.5 164.5
q0 98 -68 165.5t-166 67.5q-95 0 -164 -68t-69 -165z" />
    <glyph glyph-name="yen" unicode="&#xa5;" horiz-adv-x="1003" 
d="M1106 850q0 -49 -29 -81t-73 -32q-26 0 -45 8t-29.5 20t-18 24t-15 20t-15.5 8q-48 0 -115.5 -81.5t-123 -195.5t-79.5 -212q16 0 76 3t63 3q21 0 21 -29q0 -21 -11.5 -31t-25.5 -10q-1 0 -29.5 1.5t-61.5 3t-44 1.5l-8 -45q-1 -9 -6.5 -39t-10 -55t-4.5 -29
q0 -23 27.5 -32t99.5 -9q27 0 27 -36q0 -11 -8 -22t-17 -11q-2 0 -34 2t-93.5 4t-134.5 2q-63 0 -117.5 -1.5t-84.5 -3t-33 -1.5q-9 0 -15 10t-6 21q0 13 7 24.5t20 11.5q106 0 127 21q15 15 23 37.5t22 85.5l14 65q-19 0 -74 -4t-63 -4q-6 0 -13.5 9t-7.5 26q0 20 10 28.5
t21 8.5q2 0 59.5 -3t79.5 -3q37 159 37 327q0 164 -119 164q-52 0 -97.5 -47.5t-45.5 -95.5q0 -8 12.5 -14.5t30.5 -13t36.5 -16.5t31 -30.5t12.5 -48.5q0 -33 -24.5 -57.5t-67.5 -24.5t-73 36t-30 107q0 114 100 216t208 102q194 0 194 -205q0 -59 -10.5 -128t-20.5 -109
l-10 -39q0 -9 6 -9q3 0 5 2t3 4l1 3q26 71 56 135.5t73.5 133t91 118.5t109 82t126.5 32q46 0 79.5 -30t33.5 -72z" />
    <glyph glyph-name="brokenbar" unicode="&#xa6;" horiz-adv-x="512" 
d="M344 1434q0 -7 -3 -117t-3 -170v-615q0 -20 -10 -20h-123q-10 0 -10 20v390q0 91 -2.5 213.5t-5.5 209t-3 89.5q0 41 82 41q78 0 78 -41zM348 -522q0 -13 -22.5 -22t-59.5 -9q-78 0 -78 41q0 7 3.5 117t3.5 170v614q0 21 10 21h123q10 0 10 -21v-389q0 -86 2.5 -211
t5 -216.5t2.5 -94.5z" />
    <glyph glyph-name="section" unicode="&#xa7;" horiz-adv-x="1024" 
d="M1075 1208q0 -70 -42.5 -117t-110.5 -47q-60 0 -104 34.5t-44 99.5q0 39 19.5 84t19.5 49q0 8 -9.5 19t-40.5 23.5t-77 12.5q-60 0 -113.5 -16t-86.5 -39t-57.5 -46t-34.5 -39l-11 -16q461 -461 461 -1026q0 -209 -71 -379t-204 -269t-303 -99q-89 0 -167 29t-129.5 88.5
t-51.5 138.5q0 70 43 119t111 49q58 0 102.5 -34.5t44.5 -92.5q0 -48 -17.5 -87t-17.5 -46q0 -12 10.5 -25t40.5 -25t72 -12q66 0 124 18t94 44t62 52t37 44l11 18q-210 179 -340.5 462t-130.5 571q0 149 34 271.5t90 203.5t130.5 136.5t151.5 80t157 24.5q144 0 246 -71.5
t102 -184.5zM711 0q0 141 -40.5 303t-98.5 293.5t-116 243t-98 173.5l-41 62h-4q-16 -82 -16 -174q0 -100 21.5 -213t56 -213.5t76 -198.5t82.5 -176t75.5 -138.5t55.5 -93.5l22 -32h4q21 72 21 164z" />
    <glyph glyph-name="dieresis" unicode="&#xa8;" horiz-adv-x="614" 
d="M819 1270q0 -46 -38 -84.5t-87 -38.5t-78.5 28t-29.5 74q0 55 39 94t90 39q50 0 77 -29t27 -83zM438 1239q0 -46 -38 -84.5t-87 -38.5q-48 0 -78 29.5t-30 73.5q0 55 39.5 94t89.5 39q47 0 75.5 -27.5t28.5 -85.5z" />
    <glyph glyph-name="copyright" unicode="&#xa9;" horiz-adv-x="1689" 
d="M1649 717q0 -123 -37.5 -239t-107 -209t-162 -163t-207.5 -108.5t-238 -38.5q-154 0 -293.5 60t-240.5 161.5t-160.5 242t-59.5 294.5t59.5 293.5t160.5 240t240.5 160t293.5 59.5t293.5 -59.5t240 -160t159.5 -240t59 -293.5zM1550 717q0 182 -85.5 334.5t-236 241.5
t-331.5 89t-332 -89t-237 -241.5t-86 -334.5t86 -336t237 -244t332 -90t331.5 90t236 244t85.5 336zM1235 891q0 -7 -13 -14t-22 -7q-12 0 -20 15q-45 91 -115 144.5t-158 53.5q-227 0 -227 -346q0 -162 74.5 -246.5t193.5 -84.5q69 0 132.5 26.5t93.5 56.5q13 13 20 13
q9 0 18 -8.5t9 -22.5q0 -6 -11 -24t-38 -44.5t-63.5 -51t-95.5 -41.5t-126 -17q-189 0 -299.5 118t-110.5 306q0 184 121.5 309t298.5 125q72 0 149 -18.5t87 -18.5q23 0 38.5 13.5t22.5 13.5q10 0 19.5 -5t9.5 -12q0 -1 -1 -9.5t-2 -22t-1 -27.5q0 -36 4 -77t8 -68t4 -29z
" />
    <glyph glyph-name="ordfeminine" unicode="&#xaa;" horiz-adv-x="901" 
d="M1004 1444q0 -4 -5 -17t-9 -23l-5 -11l-125 -308q-88 -220 -88 -258q0 -18 23 -18q14 0 33 16t37 39t33.5 45.5t26.5 40.5l11 17q8 8 18 8q9 0 19 -5t10 -16q0 -10 -6 -22q-7 -14 -25 -43.5t-52 -72.5t-72 -80.5t-87.5 -64t-95.5 -26.5q-33 0 -53 16t-24.5 30.5
t-4.5 25.5q0 38 72 184q7 14 10 21l78 147l-10 6q-133 -205 -265 -317.5t-233 -112.5q-51 0 -82 37t-31 86q0 90 54 210.5t135 225t184 177.5t191 73q29 0 52.5 -9t36.5 -21.5t22.5 -25t12.5 -21.5l3 -9h6l24 86q10 31 78 31q37 0 62.5 -8.5t33 -17t7.5 -15.5zM748 1300
q0 86 -72 86q-63 0 -154.5 -96t-158 -221t-66.5 -205q0 -32 15.5 -50.5t45.5 -18.5q50 0 144 93t170 216t76 196z" />
    <glyph glyph-name="guillemotleft" unicode="&#xab;" horiz-adv-x="901" 
d="M860 819q0 -62 -78.5 -186t-136.5 -182q5 -10 11.5 -29.5t18 -81t11.5 -125.5q0 -74 -19 -119t-46 -45q-10 0 -17 21q-39 117 -82 201t-112 153q-11 11 -11 18q0 10 11 21q1 1 16.5 12t40 28.5t53 40t62.5 51.5t63 58t56.5 58.5t47.5 52.5t35.5 41.5t24.5 30t10 12.5
q10 10 17 10q24 0 24 -41zM512 829q0 -66 -89.5 -199t-135.5 -179q61 -120 61 -287q0 -61 -17 -97t-44 -36q-10 0 -17 20q-80 237 -202 359l-17 16q-10 10 -10 18q0 11 10 21q1 1 16.5 12.5t40 30.5t53.5 42t63 53t63 59t57.5 59t50 53.5t38.5 42.5t27 30.5t11 12.5
q10 10 16 10q25 0 25 -41z" />
    <glyph glyph-name="logicalnot" unicode="&#xac;" horiz-adv-x="1024" 
d="M922 20q0 -20 -25 -20h-102q-25 0 -25 20q0 14 2 109t2 117v137h-395q-76 0 -153.5 -1t-126.5 -2t-58 -1q-8 0 -14.5 8.5t-6.5 22.5v61q0 55 21 55q14 0 108.5 -2t116.5 -2h338q76 0 143 1t106 2t48 1q21 0 21 -24l-4 -144v-61q0 -67 2 -169.5t2 -107.5z" />
    <glyph glyph-name="uni00AD" unicode="&#xad;" horiz-adv-x="614" 
d="M563 502q0 -52 -23 -92.5t-48 -40.5h-256q-49 0 -90.5 -2t-43.5 -2q-41 0 -41 65q0 50 17.5 81.5t34.5 31.5h102q175 0 315 14q33 0 33 -55z" />
    <glyph glyph-name="registered" unicode="&#xae;" horiz-adv-x="1689" 
d="M1649 717q0 -123 -37.5 -239t-107 -209t-162 -163t-207.5 -108.5t-238 -38.5q-154 0 -293.5 60t-240.5 161.5t-160.5 242t-59.5 294.5t59.5 293.5t160.5 240t240.5 160t293.5 59.5t293.5 -59.5t240 -160t159.5 -240t59 -293.5zM1550 717q0 182 -85.5 334.5t-236 241.5
t-331.5 89t-332 -89t-237 -241.5t-86 -334.5t86 -336t237 -244t332 -90t331.5 90t236 244t85.5 336zM1376 322q0 -25 -30 -25q-209 0 -250 41q-24 24 -48.5 83.5t-56 125.5t-73.5 108q-37 37 -121 37v-246q0 -67 8 -75q9 -9 74 -9q22 0 22 -30q0 -12 -6.5 -19.5t-15.5 -7.5
q-3 0 -28 1.5t-63.5 3t-74.5 1.5t-78.5 -1t-71.5 -2t-33 -1q-16 0 -16 29q0 9 5 19t16 10h20q45 0 55 10q8 8 8 61v561q0 68 -10 78q-8 8 -55 8h-21q-22 0 -22 31q0 11 5.5 19t14.5 8q1 0 59 -2t101 -2q23 0 95.5 3t111.5 3q130 0 210.5 -55.5t80.5 -165.5
q0 -40 -11.5 -73.5t-30 -55t-40.5 -38t-44.5 -25.5t-41 -14.5t-30.5 -7.5l-11 -1q96 -14 123 -41q40 -40 98.5 -150t75.5 -127q21 -21 46.5 -35t37.5 -14q6 0 11 -5.5t5 -12.5zM997 911q0 87 -34 130.5t-107 43.5q-35 0 -51 -16q-8 -8 -8 -65v-256q24 0 59.5 -5.5t40.5 -5.5
q100 0 100 174z" />
    <glyph glyph-name="macron" unicode="&#xaf;" horiz-adv-x="634" 
d="M799 1198q0 -39 -12 -57.5t-29 -18.5q-6 0 -75.5 2t-98.5 2h-256q-123 -4 -133 -4q-31 0 -31 45q0 36 12.5 56t28.5 20q3 0 55.5 -2t87.5 -2h256q24 0 92 3t72 3q11 0 21 -14t10 -33z" />
    <glyph glyph-name="degree" unicode="&#xb0;" horiz-adv-x="573" 
d="M717 1188q0 -116 -85.5 -201.5t-201.5 -85.5q-114 0 -185 74.5t-71 191.5q0 115 85.5 198t201.5 83q115 0 185.5 -72t70.5 -188zM594 1188q0 69 -37 106t-106 37q-68 0 -111 -47t-43 -117q0 -69 36.5 -106t102.5 -37q65 0 111.5 47.5t46.5 116.5z" />
    <glyph glyph-name="plusminus" unicode="&#xb1;" horiz-adv-x="921" 
d="M829 522q0 -51 -20 -51q-14 0 -83 2t-91 2h-92v-45q0 -76 1 -125t2 -70t1 -30q0 -21 -25 -21h-102q-25 0 -25 21q0 14 2 103.5t2 111.5v55q-72 0 -131 -1t-92.5 -2t-42.5 -1q-20 0 -20 25v57q0 65 24 65q14 0 81 -2t89 -2h92v62q0 76 -1 120t-2 60t-1 25q0 20 25 20h102
q25 0 25 -20q0 -14 -2 -103.5t-2 -111.5v-52h20q73 0 157.5 2t88.5 2q20 0 20 -24v-72zM829 27q0 -52 -20 -52q-14 0 -93.5 2.5t-101.5 2.5h-153q-85 0 -206 -2.5t-122 -2.5q-20 0 -20 25v57q0 66 24 66q14 0 101.5 -2t109.5 -2h154q73 0 188 2t119 2q20 0 20 -25v-71z" />
    <glyph glyph-name="twosuperior" unicode="&#xb2;" horiz-adv-x="665" 
d="M748 870q0 -21 -26.5 -73t-74.5 -102t-94 -50q-66 0 -141 22t-137 44t-97 22q-9 0 -15.5 -10.5t-10 -23t-15.5 -23t-31 -10.5q-24 0 -39.5 15.5t-15.5 45.5q0 16 15 31q12 12 72 40.5t130 65.5t140.5 85t117.5 116t47 143q0 60 -41.5 91.5t-87.5 31.5q-47 0 -83.5 -35.5
t-36.5 -87.5q0 -27 8.5 -51.5t17.5 -37.5l8 -13q0 -9 -11.5 -18t-29.5 -9q-8 0 -23.5 17t-29.5 51.5t-14 71.5q0 104 77.5 174.5t180.5 70.5q107 0 173.5 -60t66.5 -155q0 -63 -24 -117t-61.5 -94.5t-102.5 -80.5t-129 -70t-159 -68l4 -8q42 12 103 12q55 0 119 -12t96 -12
q63 0 102 78q7 14 21 14q8 0 19.5 -7t11.5 -14z" />
    <glyph glyph-name="threesuperior" unicode="&#xb3;" horiz-adv-x="614" 
d="M686 1311q0 -66 -43 -121t-131 -84v-4q63 -12 103 -57.5t40 -112.5q0 -114 -99 -190t-239 -76q-83 0 -133.5 43t-50.5 100q0 52 29.5 82.5t70.5 30.5q35 0 60.5 -22.5t25.5 -59.5q0 -27 -13.5 -47.5t-26.5 -27.5l-13 -7q0 -2 0.5 -4.5t4.5 -9.5t10.5 -12.5t21.5 -10
t35 -4.5q71 0 117.5 50.5t46.5 133.5q0 54 -32 102t-91 48q-5 0 -18.5 -3.5t-18.5 -3.5q-8 0 -14 9.5t-6 21.5q0 17 36 25q94 22 139.5 71.5t45.5 108.5q0 38 -26.5 62t-65.5 24q-32 0 -57 -24.5t-25 -61.5q0 -14 3.5 -28t7 -23t3.5 -10q0 -8 -9.5 -14.5t-21.5 -6.5
q-5 0 -16 9.5t-23 35t-12 57.5q0 81 59.5 128t141.5 47q83 0 133.5 -46.5t50.5 -117.5z" />
    <glyph glyph-name="acute" unicode="&#xb4;" horiz-adv-x="317" 
d="M481 1399q0 -32 -10.5 -57t-40.5 -62l-164 -209q-47 -67 -61 -67q-16 0 -28.5 9t-12.5 23l20 76l86 287q10 39 38 65.5t71 26.5q39 0 70.5 -27.5t31.5 -64.5z" />
    <glyph glyph-name="mu" unicode="&#xb5;" horiz-adv-x="1320" 
d="M1219 369q0 -9 -13 -49.5t-42.5 -100t-68.5 -115.5t-99 -95.5t-126 -39.5q-34 0 -62.5 17t-44.5 41t-27 48t-15 41l-4 17h-6q-4 -7 -10.5 -18t-29 -39t-47.5 -50t-64 -39.5t-79 -17.5t-74.5 19t-55.5 46t-36.5 54.5t-21.5 46.5l-6 19l-13 -11q-18 -164 -18 -532v-41
q0 -46 -32 -72t-91 -26q-61 0 -92 25.5t-31 72.5q0 79 73.5 388t150.5 589t94 313q28 62 112 62q62 0 97.5 -24t35.5 -69q0 -11 -53.5 -117.5t-116.5 -246t-81 -219.5q0 -26 31.5 -59t97.5 -33q54 0 107 39t94.5 97t85.5 141t74 153.5t65 153t55 122.5q30 62 112 62
q52 0 93 -22t41 -71q0 -23 -97.5 -176.5t-194.5 -295.5l-98 -142q0 -26 19.5 -43.5t62.5 -17.5q22 0 52.5 15.5t59 38t61 52t54 51.5t42.5 44.5t22 23.5q14 14 25 14q6 0 19.5 -8.5t13.5 -15.5z" />
    <glyph glyph-name="paragraph" unicode="&#xb6;" horiz-adv-x="1024" 
d="M1178 1413q0 -18 -10 -30.5t-31 -12.5h-62q-59 0 -88 -29q-10 -10 -20.5 -46.5t-23.5 -108t-25.5 -148.5t-34.5 -208t-43 -246q-6 -35 -19 -108q-17 -100 -27 -153t-31.5 -152.5t-40 -157t-50.5 -143t-65.5 -136t-82 -110t-103 -91.5t-125.5 -54t-153 -22
q-139 0 -238.5 95.5t-99.5 232.5q0 118 78 200.5t199 82.5q82 0 140.5 -48.5t58.5 -136.5q0 -57 -40 -98t-98 -41q-55 0 -89 30t-34 83q0 14 3 26.5t5.5 20.5t2.5 10q0 5 -8.5 9.5t-22.5 4.5q-44 0 -68 -38t-24 -95q0 -44 14.5 -86t44 -79t80.5 -59t117 -22q61 0 114 16
t96.5 44.5t81.5 73t68 96.5t56 121.5t46.5 140t39 159.5t32.5 174t29 189l-6 6q-11 -5 -30.5 -13t-79.5 -21t-119 -13q-149 0 -228.5 99.5t-79.5 259.5q0 75 25 152.5t77 150.5t123.5 130t173 91.5t216.5 34.5q36 0 87 -3t56 -3q143 0 205 8q31 0 31 -29z" />
    <glyph glyph-name="periodcentered" unicode="&#xb7;" horiz-adv-x="614" 
d="M461 451q0 -63 -43.5 -108.5t-110.5 -45.5t-110 45.5t-43 108.5t43 108t110 45t110.5 -45t43.5 -108z" />
    <glyph glyph-name="cedilla" unicode="&#xb8;" horiz-adv-x="368" 
d="M195 0q-31 -20 -123 -92v-4q102 -45 102 -160q0 -87 -87 -156t-173 -69q-42 0 -65 19.5t-23 51.5q0 21 16 38.5t39 17.5q27 0 40.5 -16.5t18 -33t9.5 -16.5q29 0 60.5 34t31.5 89q0 57 -41 85t-98 28q-6 0 -12.5 7.5t-6.5 14.5q0 14 11 19q12 6 106 71l102 72h93z" />
    <glyph glyph-name="onesuperior" unicode="&#xb9;" horiz-adv-x="620" 
d="M754 1413q0 -12 -6 -21.5t-17 -9.5q-111 0 -121 -10q-16 -16 -37 -117l-81 -389q-15 -70 -15 -98q0 -18 24.5 -23.5t102.5 -5.5q6 0 11.5 -9.5t5.5 -18.5q0 -10 -6 -20.5t-11 -10.5l-36 2q-36 1 -92.5 2.5t-106.5 1.5q-59 0 -109.5 -1.5t-77.5 -3t-28 -1.5
q-8 0 -14.5 8.5t-6.5 18.5q0 11 6 21.5t15 10.5q107 0 122 15q17 17 35 106l88 389q17 73 17 109q0 8 -6 14q-10 10 -119 10q-9 0 -16 7.5t-7 19.5t5.5 21.5t15.5 9.5q1 0 32 -1.5t84 -3t107 -1.5t107.5 1.5t85 3t32.5 1.5q6 0 11.5 -9.5t5.5 -17.5z" />
    <glyph glyph-name="ordmasculine" unicode="&#xba;" horiz-adv-x="737" 
d="M850 1116q0 -83 -38 -170t-99 -155.5t-144.5 -112t-169.5 -43.5q-117 0 -186.5 88t-69.5 240q0 107 60 218.5t164 187t217 75.5q123 0 194.5 -87.5t71.5 -240.5zM686 1260q0 59 -25 90.5t-63 31.5q-56 0 -111.5 -59t-93.5 -144.5t-62 -180.5t-24 -169q0 -133 86 -133
q73 0 143 99t110 229.5t40 235.5z" />
    <glyph glyph-name="guillemotright" unicode="&#xbb;" horiz-adv-x="901" 
d="M860 457q0 -11 -10 -21q-1 -1 -16.5 -12.5t-40 -30t-53.5 -41.5t-63 -53t-63 -59t-57.5 -59t-50 -53.5t-38.5 -43t-27 -31t-11 -12.5q-10 -10 -16 -10q-9 0 -17 10t-8 31q0 66 90 200t135 179q-61 120 -61 286q0 61 17 97t44 36q10 0 17 -20q79 -234 203 -358l16 -17
q10 -10 10 -18zM502 457q0 -11 -10 -21q-1 -1 -16.5 -12t-40 -28.5t-53.5 -40t-63 -51.5t-63 -58t-56.5 -58.5t-47.5 -52.5t-35.5 -41.5t-24.5 -30t-10 -12.5q-10 -10 -16 -10q-25 0 -25 41q0 62 78.5 186.5t136.5 182.5q-5 10 -11.5 29.5t-18 80.5t-11.5 125q0 74 19.5 119
t46.5 45q9 0 16 -21q39 -115 82.5 -200t112.5 -154q10 -10 10 -18z" />
    <glyph glyph-name="onequarter" unicode="&#xbc;" horiz-adv-x="1699" 
d="M1608 317q0 -3 -9.5 -21t-27 -56t-31.5 -82q-3 -8 -14 -8q-2 0 -20.5 2t-44 4t-44.5 2h-18l-43 -199q-6 -31 -25 -31h-141q-14 0 -14 15l26 118l21 97h-277q-30 0 -60.5 -2t-31.5 -2q-7 0 -13.5 9t-6.5 17q0 15 10 25q3 3 29 28t65 62t66 63l358 349q43 43 64 54t49 11
q49 0 49 -24q0 -3 -5.5 -27.5t-14 -62.5t-13.5 -64l-68 -320h15q90 0 118 41q13 23 27 23q9 0 17 -6.5t8 -14.5zM1315 553l-8 4l-277 -276l4 -7h215l41 187zM754 1413q0 -12 -6 -21.5t-17 -9.5q-111 0 -121 -10q-16 -16 -37 -117l-81 -389q-15 -70 -15 -98q0 -18 24.5 -23.5
t102.5 -5.5q6 0 11.5 -9.5t5.5 -18.5q0 -10 -6 -20.5t-11 -10.5l-36 2q-36 1 -92.5 2.5t-106.5 1.5q-59 0 -109.5 -1.5t-77.5 -3t-28 -1.5q-8 0 -14.5 8.5t-6.5 18.5q0 11 6 21.5t15 10.5q107 0 122 15q17 17 35 106l88 389q17 73 17 109q0 8 -6 14q-10 10 -119 10
q-9 0 -16 7.5t-7 19.5t5.5 21.5t15.5 9.5q1 0 32 -1.5t84 -3t107 -1.5t107.5 1.5t85 3t32.5 1.5q6 0 11.5 -9.5t5.5 -17.5zM1526 1362q0 -7 -2.5 -15t-5.5 -12l-2 -4q-148 -153 -240 -266l-569 -692q-54 -65 -131 -163t-128 -163t-53 -67q-11 -11 -26 -11q-34 0 -63.5 23
t-29.5 59q0 7 3 15t5 12l3 4q143 153 235 266l576 696q53 64 130 161t128 162t53 67q10 10 29 10q35 0 61.5 -25.5t26.5 -56.5z" />
    <glyph glyph-name="onehalf" unicode="&#xbd;" horiz-adv-x="1720" 
d="M754 1413q0 -12 -6 -21.5t-17 -9.5q-111 0 -121 -10q-16 -16 -37 -117l-81 -389q-15 -70 -15 -98q0 -18 24.5 -23.5t102.5 -5.5q6 0 11.5 -9.5t5.5 -18.5q0 -10 -6 -20.5t-11 -10.5l-36 2q-36 1 -92.5 2.5t-106.5 1.5q-59 0 -109.5 -1.5t-77.5 -3t-28 -1.5
q-8 0 -14.5 8.5t-6.5 18.5q0 11 6 21.5t15 10.5q107 0 122 15q17 17 35 106l88 389q17 73 17 109q0 8 -6 14q-10 10 -119 10q-9 0 -16 7.5t-7 19.5t5.5 21.5t15.5 9.5q1 0 32 -1.5t84 -3t107 -1.5t107.5 1.5t85 3t32.5 1.5q6 0 11.5 -9.5t5.5 -17.5zM1526 1362
q0 -7 -2.5 -15t-5.5 -12l-2 -4q-148 -153 -240 -266l-569 -692q-54 -65 -131 -163t-128 -163t-53 -67q-11 -11 -26 -11q-34 0 -63.5 23t-29.5 59q0 7 3 15t5 12l3 4q143 153 235 266l576 696q53 64 130 161t128 162t53 67q10 10 29 10q35 0 61.5 -25.5t26.5 -56.5zM1638 174
q0 -21 -26 -73t-74 -102t-94 -50q-66 0 -141 22t-137 44t-97 22q-9 0 -15.5 -10.5t-10 -23.5t-15.5 -23.5t-31 -10.5q-24 0 -39.5 16t-15.5 46q0 16 14 30q12 12 72 40.5t130.5 65.5t141 85.5t117.5 116.5t47 143q0 60 -41.5 91.5t-87.5 31.5q-47 0 -84 -35.5t-37 -87.5
q0 -27 9 -51.5t17 -37.5l9 -13q0 -9 -11.5 -18t-29.5 -9q-8 0 -23.5 17t-29.5 51t-14 71q0 105 77.5 175.5t180.5 70.5q107 0 173 -59.5t66 -155.5q0 -63 -23.5 -117t-61.5 -94.5t-103 -80.5t-128.5 -70t-158.5 -68l4 -8q42 12 103 12q55 0 119 -12.5t96 -12.5q63 0 102 78
q7 15 21 15q8 0 19 -7t11 -14z" />
    <glyph glyph-name="threequarters" unicode="&#xbe;" horiz-adv-x="1617" 
d="M1608 317q0 -3 -9.5 -21t-27 -56t-31.5 -82q-3 -8 -14 -8q-2 0 -20.5 2t-44 4t-44.5 2h-18l-43 -199q-6 -31 -25 -31h-141q-14 0 -14 15l26 118l21 97h-277q-30 0 -60.5 -2t-31.5 -2q-7 0 -13.5 9t-6.5 17q0 15 10 25q3 3 29 28t65 62t66 63l358 349q43 43 64 54t49 11
q49 0 49 -24q0 -3 -5.5 -27.5t-14 -62.5t-13.5 -64l-68 -320h15q90 0 118 41q13 23 27 23q9 0 17 -6.5t8 -14.5zM1315 553l-8 4l-277 -276l4 -7h215l41 187zM1495 1362q0 -7 -2.5 -15t-4.5 -12l-3 -4q-148 -153 -240 -266l-569 -692q-54 -66 -131 -163.5t-127.5 -162.5
t-52.5 -67q-11 -11 -27 -11q-34 0 -63 23t-29 59q0 7 2.5 15t5.5 12l2 4q144 153 236 266l575 696q53 64 130 161t128 162t53 67q10 10 29 10q35 0 61.5 -25.5t26.5 -56.5zM686 1311q0 -66 -43 -121t-131 -84v-4q63 -12 103 -57.5t40 -112.5q0 -114 -99 -190t-239 -76
q-83 0 -133.5 43t-50.5 100q0 52 29.5 82.5t70.5 30.5q35 0 60.5 -22.5t25.5 -59.5q0 -27 -13.5 -47.5t-26.5 -27.5l-13 -7q0 -2 0.5 -4.5t4.5 -9.5t10.5 -12.5t21.5 -10t35 -4.5q71 0 117.5 50.5t46.5 133.5q0 54 -32 102t-91 48q-5 0 -18.5 -3.5t-18.5 -3.5q-8 0 -14 9.5
t-6 21.5q0 17 36 25q94 22 139.5 71.5t45.5 108.5q0 38 -26.5 62t-65.5 24q-32 0 -57 -24.5t-25 -61.5q0 -14 3.5 -28t7 -23t3.5 -10q0 -8 -9.5 -14.5t-21.5 -6.5q-5 0 -16 9.5t-23 35t-12 57.5q0 81 59.5 128t141.5 47q83 0 133.5 -46.5t50.5 -117.5z" />
    <glyph glyph-name="questiondown" unicode="&#xbf;" horiz-adv-x="880" 
d="M891 1280q0 -63 -43.5 -108.5t-110.5 -45.5t-110 45.5t-43 108.5t43 108.5t110 45.5t110.5 -45.5t43.5 -108.5zM799 809q0 -47 -24.5 -84t-65 -59.5t-92 -44.5t-105.5 -39.5t-105.5 -45t-92 -59t-65 -83.5t-24.5 -118q0 -109 74.5 -170t167.5 -61q69 0 118.5 35t49.5 94
q0 35 -21 35q-2 0 -6 -1t-12.5 -2t-22.5 -1q-35 0 -65.5 31t-30.5 81q0 54 43 94t101 40q79 0 123 -53.5t44 -131.5q0 -53 -21 -104.5t-60.5 -95t-106 -70.5t-149.5 -27q-73 0 -141.5 23t-124.5 66.5t-90 113.5t-34 156q0 96 30 172t78 123t105.5 83t115.5 59.5t106 44.5
t78 45.5t30 55.5q0 43 -27.5 68t-64.5 25q-14 0 -22.5 -6.5t-8.5 -14.5q0 -76 -51 -76q-18 0 -34.5 14t-16.5 42q0 33 29 57.5t65 34.5t70 10q111 0 183.5 -68.5t72.5 -187.5z" />
    <glyph glyph-name="Agrave" unicode="&#xc0;" horiz-adv-x="1361" 
d="M1352 1434q0 -8 -15 -55t-42 -131.5t-46 -151.5l-235 -840q-31 -106 -31 -143q0 -29 31.5 -37t122.5 -8q14 0 22 -10.5t8 -26.5q0 -39 -30 -39q-4 0 -53 2t-116 4t-116 2q-54 0 -190 -7t-150 -7t-22.5 10t-8.5 24q0 41 31 41q106 0 137 31q21 21 53 113l107 317
q6 19 6 23q0 12 -14 12l-299 -14q-13 -1 -21.5 -7.5t-29.5 -27.5l-195 -201q-109 -113 -109 -174q0 -65 140 -65q30 0 30 -37q0 -39 -30 -39q-3 0 -51.5 2t-105.5 4t-79 2q-122 0 -232 -7t-116 -7q-31 0 -31 34q0 41 41 41q7 0 23.5 3t48 13t61.5 25q99 48 256 205
l1137 1127q30 30 61 30q21 0 36.5 -10.5t15.5 -19.5zM983 1044l-10 5l-369 -383q-24 -24 -24 -31q0 -10 10 -10l239 8q18 2 25 22zM1454 1544q0 -13 -11 -24t-22 -11q-9 0 -20 7q-328 205 -338 215q-35 35 -35 81q0 49 35 76t72 27q24 0 41 -8.5t41 -32.5l225 -305
q12 -15 12 -25z" />
    <glyph glyph-name="Aacute" unicode="&#xc1;" horiz-adv-x="1361" 
d="M1352 1434q0 -8 -15 -55t-42 -131.5t-46 -151.5l-235 -840q-31 -106 -31 -143q0 -29 31.5 -37t122.5 -8q14 0 22 -10.5t8 -26.5q0 -39 -30 -39q-4 0 -53 2t-116 4t-116 2q-54 0 -190 -7t-150 -7t-22.5 10t-8.5 24q0 41 31 41q106 0 137 31q21 21 53 113l107 317
q6 19 6 23q0 12 -14 12l-299 -14q-13 -1 -21.5 -7.5t-29.5 -27.5l-195 -201q-109 -113 -109 -174q0 -65 140 -65q30 0 30 -37q0 -39 -30 -39q-3 0 -51.5 2t-105.5 4t-79 2q-122 0 -232 -7t-116 -7q-31 0 -31 34q0 41 41 41q7 0 23.5 3t48 13t61.5 25q99 48 256 205
l1137 1127q30 30 61 30q21 0 36.5 -10.5t15.5 -19.5zM983 1044l-10 5l-369 -383q-24 -24 -24 -31q0 -10 10 -10l239 8q18 2 25 22zM1665 1812q0 -46 -35 -81q-4 -4 -88.5 -58t-167.5 -105l-82 -52q-12 -7 -20 -7q-11 0 -22 11t-11 24q0 4 3 10.5t6 10.5l3 4q216 295 226 305
q24 24 41 32.5t41 8.5q37 0 71.5 -27t34.5 -76z" />
    <glyph glyph-name="Acircumflex" unicode="&#xc2;" horiz-adv-x="1361" 
d="M1352 1434q0 -8 -15 -55t-42 -131.5t-46 -151.5l-235 -840q-31 -106 -31 -143q0 -29 31.5 -37t122.5 -8q14 0 22 -10.5t8 -26.5q0 -39 -30 -39q-4 0 -53 2t-116 4t-116 2q-54 0 -190 -7t-150 -7t-22.5 10t-8.5 24q0 41 31 41q106 0 137 31q21 21 53 113l107 317
q6 19 6 23q0 12 -14 12l-299 -14q-13 -1 -21.5 -7.5t-29.5 -27.5l-195 -201q-109 -113 -109 -174q0 -65 140 -65q30 0 30 -37q0 -39 -30 -39q-3 0 -51.5 2t-105.5 4t-79 2q-122 0 -232 -7t-116 -7q-31 0 -31 34q0 41 41 41q7 0 23.5 3t48 13t61.5 25q99 48 256 205
l1137 1127q30 30 61 30q21 0 36.5 -10.5t15.5 -19.5zM983 1044l-10 5l-369 -383q-24 -24 -24 -31q0 -10 10 -10l239 8q18 2 25 22zM1608 1935q0 -3 -12 -63.5t-31 -165.5t-33 -197q0 -14 -16 -14q-59 0 -96.5 12.5t-37.5 28.5q0 4 8.5 32t23.5 79t26 94h-6l-275 -236
q-10 -10 -22 -10q-13 0 -22 9.5t-9 21.5q0 3 7 10.5t13 13.5l7 6l383 349q11 9 26 24t22.5 21t12.5 6q12 0 21.5 -5.5t9.5 -15.5z" />
    <glyph glyph-name="Atilde" unicode="&#xc3;" horiz-adv-x="1361" 
d="M1352 1434q0 -8 -15 -55t-42 -131.5t-46 -151.5l-235 -840q-31 -106 -31 -143q0 -29 31.5 -37t122.5 -8q14 0 22 -10.5t8 -26.5q0 -39 -30 -39q-4 0 -53 2t-116 4t-116 2q-54 0 -190 -7t-150 -7t-22.5 10t-8.5 24q0 41 31 41q106 0 137 31q21 21 53 113l107 317
q6 19 6 23q0 12 -14 12l-299 -14q-13 -1 -21.5 -7.5t-29.5 -27.5l-195 -201q-109 -113 -109 -174q0 -65 140 -65q30 0 30 -37q0 -39 -30 -39q-3 0 -51.5 2t-105.5 4t-79 2q-122 0 -232 -7t-116 -7q-31 0 -31 34q0 41 41 41q7 0 23.5 3t48 13t61.5 25q99 48 256 205
l1137 1127q30 30 61 30q21 0 36.5 -10.5t15.5 -19.5zM983 1044l-10 5l-369 -383q-24 -24 -24 -31q0 -10 10 -10l239 8q18 2 25 22zM1649 1853q0 -86 -56.5 -171t-117.5 -85q-74 0 -182 5.5t-167 5.5q-29 0 -45 -14t-16 -31q0 -4 15.5 -26t15.5 -36q0 -25 -16.5 -36
t-35.5 -11q-20 0 -35.5 14t-15.5 48q0 80 65.5 164.5t139.5 84.5q41 0 143.5 -7t174.5 -7q61 0 61 55q0 4 -15.5 26t-15.5 36q0 25 16 36t35 11q20 0 36 -14t16 -48z" />
    <glyph glyph-name="Adieresis" unicode="&#xc4;" horiz-adv-x="1361" 
d="M1352 1434q0 -8 -15 -55t-42 -131.5t-46 -151.5l-235 -840q-31 -106 -31 -143q0 -29 31.5 -37t122.5 -8q14 0 22 -10.5t8 -26.5q0 -39 -30 -39q-4 0 -53 2t-116 4t-116 2q-54 0 -190 -7t-150 -7t-22.5 10t-8.5 24q0 41 31 41q106 0 137 31q21 21 53 113l107 317
q6 19 6 23q0 12 -14 12l-299 -14q-13 -1 -21.5 -7.5t-29.5 -27.5l-195 -201q-109 -113 -109 -174q0 -65 140 -65q30 0 30 -37q0 -39 -30 -39q-3 0 -51.5 2t-105.5 4t-79 2q-122 0 -232 -7t-116 -7q-31 0 -31 34q0 41 41 41q7 0 23.5 3t48 13t61.5 25q99 48 256 205
l1137 1127q30 30 61 30q21 0 36.5 -10.5t15.5 -19.5zM983 1044l-10 5l-369 -383q-24 -24 -24 -31q0 -10 10 -10l239 8q18 2 25 22zM1679 1669q0 -46 -38 -84.5t-87 -38.5t-78.5 28.5t-29.5 74.5q0 55 39 94t90 39q50 0 77 -29.5t27 -83.5zM1298 1638q0 -46 -37.5 -84
t-86.5 -38t-79 29t-30 73q0 54 39.5 93.5t89.5 39.5q47 0 75.5 -27.5t28.5 -85.5z" />
    <glyph glyph-name="Aring" unicode="&#xc5;" horiz-adv-x="1361" 
d="M1536 1567q0 -82 -62 -138.5t-139 -56.5q-45 -133 -86 -276l-235 -840q-31 -106 -31 -143q0 -29 31.5 -37t122.5 -8q14 0 22 -10.5t8 -26.5q0 -39 -30 -39q-4 0 -53 2t-116 4t-116 2q-54 0 -190 -7t-150 -7t-22.5 10t-8.5 24q0 41 31 41q106 0 137 31q21 21 53 113
l107 317q6 19 6 23q0 12 -14 12l-299 -14q-3 0 -5.5 -0.5t-4.5 -1t-4.5 -1.5t-4 -2t-4.5 -3.5t-4.5 -3.5t-5 -4.5t-5.5 -5t-6.5 -6.5t-6.5 -7l-195 -201q-109 -118 -109 -174q0 -65 140 -65q30 0 30 -37q0 -39 -30 -39q-3 0 -51.5 2t-105.5 4t-79 2q-122 0 -232 -7t-116 -7
q-31 0 -31 34q0 41 41 41q7 0 23.5 3t48 13t61.5 25q99 48 256 205l1117 1106q-52 44 -52 133q0 76 59.5 135.5t135.5 59.5t125 -48.5t49 -125.5zM1454 1567q0 43 -26 67.5t-70 24.5t-76.5 -33.5t-32.5 -77.5q0 -94 97 -94q45 0 76.5 33.5t31.5 79.5zM983 1044l-10 5
l-369 -383q-24 -24 -24 -31q0 -10 10 -10l239 8q18 2 25 22z" />
    <glyph glyph-name="AE" unicode="&#xc6;" horiz-adv-x="1976" 
d="M1976 1106q0 -12 -13.5 -21.5t-33.5 -9.5t-41 21q-12 12 -92 100t-96 104q-40 40 -66 49t-108 9h-62q-79 0 -102 -23q-25 -25 -51 -127l-99 -395q-6 -29 -6 -31q0 -5 1 -7.5t5 -4.5t13 -2h55q96 0 156 16t100 56q50 50 92 137q16 31 35 31q18 0 27.5 -8t9.5 -17
q0 -8 -16 -45t-38 -94.5t-34 -106.5q-28 -116 -49 -276q-3 -31 -37 -31q-31 0 -31 31q0 80 -7.5 124t-29.5 66q-21 21 -55.5 31.5t-62 12t-80.5 1.5h-52q-26 0 -34 -34l-109 -426q-21 -89 -21 -123q0 -37 72 -37h256q59 0 101.5 19t82.5 59q74 74 195.5 165t163.5 91
q19 0 30 -15.5t11 -32.5q0 -5 -25 -30t-55 -57t-55 -87.5t-25 -115.5q0 -17 5 -34.5t5 -23.5q0 -10 -7.5 -17t-18.5 -7q-3 0 -47 2.5t-111.5 5t-126.5 2.5h-625q-50 0 -119.5 -3t-120.5 -6t-57 -3q-14 0 -22 11.5t-8 27.5t7 27.5t19 11.5q132 0 158 26q23 23 51 133l113 451
q0 20 -31 20h-235q-24 0 -41 -20l-328 -369q-39 -45 -56 -66.5t-35 -53.5t-18 -56q0 -63 140 -63q30 0 30 -39q0 -37 -26 -37q-3 0 -57.5 2t-117.5 4t-85 2q-67 0 -199 -7t-133 -7q-12 0 -19.5 9.5t-7.5 24.5q0 41 41 41q13 0 48.5 8t64.5 23q45 23 119.5 83t156.5 142
l912 973q20 25 20 41q0 23 -24 29t-109 6q-13 0 -22 11t-9 26q0 37 31 37q4 0 93.5 -3t193.5 -3h461q81 0 142.5 2.5t90.5 5t33 2.5q20 0 20 -25q0 -4 -10 -29t-10 -49q0 -43 30.5 -137t30.5 -98zM1010 1143l-6 4l-338 -379h225q25 0 31 20z" />
    <glyph glyph-name="Ccedilla" unicode="&#xc7;" horiz-adv-x="1372" 
d="M1434 1407q0 -4 -5.5 -19.5t-13 -45t-15 -73t-13 -119t-5.5 -167.5v-20q0 -41 -51 -41q-21 0 -31 10q-6 6 -18.5 52t-28 102t-46.5 121t-70 104q-71 71 -195 71q-119 0 -222 -72.5t-169 -187.5t-103.5 -253.5t-37.5 -274.5q0 -98 18.5 -179t56 -145.5t102 -100.5
t150.5 -36q127 0 228 54t198 151q31 31 41 31q15 0 30 -13t15 -28q0 -9 -16.5 -36.5t-51 -67.5t-80 -81t-112.5 -80.5t-139 -62.5l-123 -92v-4q102 -45 102 -160q0 -87 -87 -156t-173 -69q-42 0 -68 20t-26 51q0 27 16.5 44.5t40.5 17.5q29 0 43.5 -18t19.5 -36t9 -18
q29 0 60.5 34t31.5 89q0 57 -41 85t-98 28q-6 0 -12 7.5t-6 14.5q0 14 10 19q22 11 113 71l55 41v6q-41 -6 -72 -6q-155 0 -275 77.5t-183.5 210t-63.5 296.5q0 171 61 336.5t165 292t251.5 204.5t310.5 78q89 0 170 -20.5t134.5 -41t74.5 -20.5q19 0 52 31t44 31
q20 0 34 -11t14 -26z" />
    <glyph glyph-name="Egrave" unicode="&#xc8;" horiz-adv-x="1433" 
d="M1434 1106q0 -12 -14 -21.5t-34 -9.5q-19 0 -40 21q-12 12 -92.5 100t-96.5 104q-37 37 -77 47.5t-128 10.5h-61q-80 0 -103 -23q-25 -25 -51 -127l-94 -374q-6 -29 -6 -31q0 -5 0.5 -7.5t5 -5t12.5 -2.5h52q96 0 156 16t100 56q50 50 92 137q15 31 35 31q18 0 27 -7.5
t9 -16.5q0 -8 -16 -45t-38 -94.5t-34 -106.5q-27 -114 -49 -277q-3 -30 -37 -30q-30 0 -30 30q0 80 -7.5 124.5t-29.5 66.5q-21 21 -56 31.5t-62 12t-81 1.5h-47q-26 0 -35 -35l-112 -446q-21 -87 -21 -130q0 -30 72 -30h297q59 0 101.5 19t82.5 59q74 74 195 165t163 91
q19 0 30 -15.5t11 -32.5q0 -5 -25 -30t-54.5 -57t-54.5 -87.5t-25 -115.5q0 -17 5 -34.5t5 -23.5q0 -10 -8 -17t-19 -7q-3 0 -47 2.5t-111 5t-126 2.5h-666q-50 0 -119.5 -3t-120.5 -6t-57 -3q-14 0 -22.5 11.5t-8.5 27.5t7.5 27.5t19.5 11.5q132 0 158 26t51 133l246 973
q24 102 24 123q0 32 -27 38.5t-120 6.5q-13 0 -22 11t-9 26q0 37 31 37q4 0 93 -3t193 -3h492q81 0 142.5 2.5t90.5 5t33 2.5q21 0 21 -25q0 -4 -10.5 -29t-10.5 -49q0 -43 31 -137t31 -98zM1085 1524q0 -13 -10.5 -24t-21.5 -11q-12 0 -21 6q-328 205 -338 215
q-35 35 -35 82q0 49 35 75.5t72 26.5q24 0 41 -8.5t41 -32.5l225 -305q12 -14 12 -24z" />
    <glyph glyph-name="Eacute" unicode="&#xc9;" horiz-adv-x="1433" 
d="M1434 1106q0 -12 -14 -21.5t-34 -9.5q-19 0 -40 21q-12 12 -92.5 100t-96.5 104q-37 37 -77 47.5t-128 10.5h-61q-80 0 -103 -23q-25 -25 -51 -127l-94 -374q-6 -29 -6 -31q0 -5 0.5 -7.5t5 -5t12.5 -2.5h52q96 0 156 16t100 56q50 50 92 137q15 31 35 31q18 0 27 -7.5
t9 -16.5q0 -8 -16 -45t-38 -94.5t-34 -106.5q-27 -114 -49 -277q-3 -30 -37 -30q-30 0 -30 30q0 80 -7.5 124.5t-29.5 66.5q-21 21 -56 31.5t-62 12t-81 1.5h-47q-26 0 -35 -35l-112 -446q-21 -87 -21 -130q0 -30 72 -30h297q59 0 101.5 19t82.5 59q74 74 195 165t163 91
q19 0 30 -15.5t11 -32.5q0 -5 -25 -30t-54.5 -57t-54.5 -87.5t-25 -115.5q0 -17 5 -34.5t5 -23.5q0 -10 -8 -17t-19 -7q-3 0 -47 2.5t-111 5t-126 2.5h-666q-50 0 -119.5 -3t-120.5 -6t-57 -3q-14 0 -22.5 11.5t-8.5 27.5t7.5 27.5t19.5 11.5q132 0 158 26t51 133l246 973
q24 102 24 123q0 32 -27 38.5t-120 6.5q-13 0 -22 11t-9 26q0 37 31 37q4 0 93 -3t193 -3h492q81 0 142.5 2.5t90.5 5t33 2.5q21 0 21 -25q0 -4 -10.5 -29t-10.5 -49q0 -43 31 -137t31 -98zM1212 1804q0 -48 -34 -82q-4 -4 -88.5 -58t-167.5 -106l-82 -51q-10 -6 -21 -6
t-22 11t-11 24q0 4 3 10.5t7 10.5l3 4q215 295 225 305q24 24 41 32.5t41 8.5q37 0 71.5 -27t34.5 -76z" />
    <glyph glyph-name="Ecircumflex" unicode="&#xca;" horiz-adv-x="1433" 
d="M1434 1106q0 -12 -14 -21.5t-34 -9.5q-19 0 -40 21q-12 12 -92.5 100t-96.5 104q-37 37 -77 47.5t-128 10.5h-61q-80 0 -103 -23q-25 -25 -51 -127l-94 -374q-6 -29 -6 -31q0 -5 0.5 -7.5t5 -5t12.5 -2.5h52q96 0 156 16t100 56q50 50 92 137q15 31 35 31q18 0 27 -7.5
t9 -16.5q0 -8 -16 -45t-38 -94.5t-34 -106.5q-27 -114 -49 -277q-3 -30 -37 -30q-30 0 -30 30q0 80 -7.5 124.5t-29.5 66.5q-21 21 -56 31.5t-62 12t-81 1.5h-47q-26 0 -35 -35l-112 -446q-21 -87 -21 -130q0 -30 72 -30h297q59 0 101.5 19t82.5 59q74 74 195 165t163 91
q19 0 30 -15.5t11 -32.5q0 -5 -25 -30t-54.5 -57t-54.5 -87.5t-25 -115.5q0 -17 5 -34.5t5 -23.5q0 -10 -8 -17t-19 -7q-3 0 -47 2.5t-111 5t-126 2.5h-666q-50 0 -119.5 -3t-120.5 -6t-57 -3q-14 0 -22.5 11.5t-8.5 27.5t7.5 27.5t19.5 11.5q132 0 158 26t51 133l246 973
q24 102 24 123q0 32 -27 38.5t-120 6.5q-13 0 -22 11t-9 26q0 37 31 37q4 0 93 -3t193 -3h492q81 0 142.5 2.5t90.5 5t33 2.5q21 0 21 -25q0 -4 -10.5 -29t-10.5 -49q0 -43 31 -137t31 -98zM1239 1935q0 -3 -12 -63.5t-31 -165.5t-33 -197q0 -14 -16 -14q-59 0 -96 12.5
t-37 28.5q0 4 8 32t23 79.5t26 93.5h-6l-274 -236q-10 -10 -23 -10t-22 9.5t-9 21.5q0 3 6.5 10.5t13.5 13.5l7 6l383 349q11 9 26 24t22.5 21t12.5 6q12 0 21.5 -5.5t9.5 -15.5z" />
    <glyph glyph-name="Edieresis" unicode="&#xcb;" horiz-adv-x="1433" 
d="M1434 1106q0 -12 -14 -21.5t-34 -9.5q-19 0 -40 21q-12 12 -92.5 100t-96.5 104q-37 37 -77 47.5t-128 10.5h-61q-80 0 -103 -23q-25 -25 -51 -127l-94 -374q-6 -29 -6 -31q0 -5 0.5 -7.5t5 -5t12.5 -2.5h52q96 0 156 16t100 56q50 50 92 137q15 31 35 31q18 0 27 -7.5
t9 -16.5q0 -8 -16 -45t-38 -94.5t-34 -106.5q-27 -114 -49 -277q-3 -30 -37 -30q-30 0 -30 30q0 80 -7.5 124.5t-29.5 66.5q-21 21 -56 31.5t-62 12t-81 1.5h-47q-26 0 -35 -35l-112 -446q-21 -87 -21 -130q0 -30 72 -30h297q59 0 101.5 19t82.5 59q74 74 195 165t163 91
q19 0 30 -15.5t11 -32.5q0 -5 -25 -30t-54.5 -57t-54.5 -87.5t-25 -115.5q0 -17 5 -34.5t5 -23.5q0 -10 -8 -17t-19 -7q-3 0 -47 2.5t-111 5t-126 2.5h-666q-50 0 -119.5 -3t-120.5 -6t-57 -3q-14 0 -22.5 11.5t-8.5 27.5t7.5 27.5t19.5 11.5q132 0 158 26t51 133l246 973
q24 102 24 123q0 32 -27 38.5t-120 6.5q-13 0 -22 11t-9 26q0 37 31 37q4 0 93 -3t193 -3h492q81 0 142.5 2.5t90.5 5t33 2.5q21 0 21 -25q0 -4 -10.5 -29t-10.5 -49q0 -43 31 -137t31 -98zM1249 1669q0 -46 -38 -84.5t-87 -38.5t-78.5 28.5t-29.5 74.5q0 55 39 94t90 39
q50 0 77 -29.5t27 -83.5zM868 1638q0 -46 -38 -84t-87 -38t-78.5 29t-29.5 73q0 54 39.5 93.5t89.5 39.5q47 0 75.5 -27.5t28.5 -85.5z" />
    <glyph glyph-name="Igrave" unicode="&#xcc;" horiz-adv-x="808" 
d="M932 1413q0 -19 -9.5 -30t-21.5 -11q-113 0 -133 -20t-51 -140l-236 -976q-20 -87 -20 -123q0 -31 34.5 -38t118.5 -7q14 0 22.5 -10.5t8.5 -26.5q0 -39 -31 -39q-6 0 -64.5 2t-135.5 4t-127 2q-72 0 -141.5 -2.5t-110.5 -5t-45 -2.5q-12 0 -21.5 10t-9.5 31q0 15 9.5 26
t21.5 11q129 0 153 24q25 25 52 133l235 983q21 99 21 119q0 14 -11 25q-14 14 -133 14q-13 0 -22 11t-9 26q0 39 31 39q17 0 111.5 -4t134.5 -4q71 0 205 7t147 7q12 0 19.5 -10t7.5 -25zM809 1524q0 -13 -11 -24t-22 -11t-20 6q-328 205 -338 215q-35 35 -35 82
q0 49 34.5 75.5t71.5 26.5q24 0 41 -8.5t41 -32.5l226 -305q12 -14 12 -24z" />
    <glyph glyph-name="Iacute" unicode="&#xcd;" horiz-adv-x="808" 
d="M932 1413q0 -19 -9.5 -30t-21.5 -11q-113 0 -133 -20t-51 -140l-236 -976q-20 -87 -20 -123q0 -31 34.5 -38t118.5 -7q14 0 22.5 -10.5t8.5 -26.5q0 -39 -31 -39q-6 0 -64.5 2t-135.5 4t-127 2q-72 0 -141.5 -2.5t-110.5 -5t-45 -2.5q-12 0 -21.5 10t-9.5 31q0 15 9.5 26
t21.5 11q129 0 153 24q25 25 52 133l235 983q21 99 21 119q0 14 -11 25q-14 14 -133 14q-13 0 -22 11t-9 26q0 39 31 39q17 0 111.5 -4t134.5 -4q71 0 205 7t147 7q12 0 19.5 -10t7.5 -25zM928 1792q0 -47 -35 -82q-4 -4 -88.5 -58t-166.5 -106l-83 -51q-10 -6 -20 -6
q-11 0 -22 11t-11 24q0 4 3 10t6 10l3 4q215 295 225 305q24 24 41 32.5t41 8.5q37 0 72 -26.5t35 -75.5z" />
    <glyph glyph-name="Icircumflex" unicode="&#xce;" horiz-adv-x="808" 
d="M932 1413q0 -19 -9.5 -30t-21.5 -11q-113 0 -133 -20t-51 -140l-236 -976q-20 -87 -20 -123q0 -31 34.5 -38t118.5 -7q14 0 22.5 -10.5t8.5 -26.5q0 -39 -31 -39q-6 0 -64.5 2t-135.5 4t-127 2q-72 0 -141.5 -2.5t-110.5 -5t-45 -2.5q-12 0 -21.5 10t-9.5 31q0 15 9.5 26
t21.5 11q129 0 153 24q25 25 52 133l235 983q21 99 21 119q0 14 -11 25q-14 14 -133 14q-13 0 -22 11t-9 26q0 39 31 39q17 0 111.5 -4t134.5 -4q71 0 205 7t147 7q12 0 19.5 -10t7.5 -25zM932 1935q0 -3 -12 -63.5t-31 -165.5t-33 -197q0 -14 -16 -14q-59 0 -96 12.5
t-37 28.5q0 4 8 32t23 79.5t26 93.5h-6l-275 -236q-10 -10 -22 -10q-13 0 -22 9.5t-9 21.5q0 3 7 10.5t13 13.5l7 6l383 349q11 9 26 24t22.5 21t12.5 6q12 0 21.5 -5.5t9.5 -15.5z" />
    <glyph glyph-name="Idieresis" unicode="&#xcf;" horiz-adv-x="808" 
d="M932 1413q0 -19 -9.5 -30t-21.5 -11q-113 0 -133 -20t-51 -140l-236 -976q-20 -87 -20 -123q0 -31 34.5 -38t118.5 -7q14 0 22.5 -10.5t8.5 -26.5q0 -39 -31 -39q-6 0 -64.5 2t-135.5 4t-127 2q-72 0 -141.5 -2.5t-110.5 -5t-45 -2.5q-12 0 -21.5 10t-9.5 31q0 15 9.5 26
t21.5 11q129 0 153 24q25 25 52 133l235 983q21 99 21 119q0 14 -11 25q-14 14 -133 14q-13 0 -22 11t-9 26q0 39 31 39q17 0 111.5 -4t134.5 -4q71 0 205 7t147 7q12 0 19.5 -10t7.5 -25zM963 1669q0 -46 -38 -84.5t-87 -38.5t-79 28.5t-30 74.5q0 55 39.5 94t89.5 39
t77.5 -29.5t27.5 -83.5zM582 1638q0 -46 -38 -84t-87 -38t-79 29t-30 73q0 54 39 93.5t90 39.5q48 0 76.5 -27.5t28.5 -85.5z" />
    <glyph glyph-name="Eth" unicode="&#xd0;" horiz-adv-x="1587" 
d="M1567 799q0 -119 -30.5 -230.5t-101.5 -218.5t-177 -186t-269 -127.5t-364 -48.5q-79 0 -197.5 6t-151.5 6q-95 0 -163.5 -3t-99 -6t-33.5 -3q-14 0 -22.5 13.5t-8.5 33.5q0 33 31 33q87 0 123 4.5t51 19.5q25 25 51 133q3 11 21 91t43.5 190.5t47.5 200.5l33 122
q-37 0 -78.5 -2.5t-68.5 -5t-29 -2.5q-14 0 -22.5 14t-8.5 31q0 47 31 47q1 0 70.5 -5t124.5 -5q102 383 102 420q0 21 -10 31q-20 20 -174 20q-14 0 -22.5 12.5t-8.5 28.5q0 15 8 25t23 10q5 0 117.5 -7t148.5 -7q41 0 169 5t169 5q147 0 270 -42.5t213.5 -122t141.5 -203
t51 -277.5zM1260 870q0 114 -19 200.5t-51.5 141t-80.5 89t-100.5 48t-117.5 13.5q-50 0 -80.5 -14.5t-52.5 -57.5q-16 -31 -107 -389q20 0 114.5 6t98.5 6q9 0 18 -11t9 -32t-9 -36t-28 -15q-2 0 -96 5t-125 5l-39 -153q-38 -154 -80.5 -341t-42.5 -202q0 -21 10 -31
q30 -30 144 -30q216 0 359.5 98t209.5 273.5t66 426.5z" />
    <glyph glyph-name="Ntilde" unicode="&#xd1;" horiz-adv-x="1617" 
d="M1853 1403q0 -14 -9.5 -24.5t-20.5 -10.5q-59 0 -92 -9t-62 -38q-19 -19 -37 -62t-26.5 -74t-28.5 -110l-154 -614q-61 -245 -102 -451q-8 -41 -41 -41q-36 0 -51 31q-1 1 -113 256l-467 1034q-8 21 -24 21h-11q-14 0 -20 -21l-123 -512q-102 -418 -102 -553
q0 -48 17 -80.5t50 -49t70 -23t88 -6.5q13 0 22 -10t9 -25q0 -43 -31 -43q-2 0 -63 3t-137.5 6t-117.5 3q-59 0 -156 -5t-110 -5q-30 0 -30 41q0 17 9 27t21 10q92 0 127 14.5t58 60.5q9 17 24.5 68t35 127t34.5 138t34.5 142t24.5 99l62 246q7 28 21.5 83t23 88.5t18.5 74
t14.5 65.5t4.5 37q0 36 -40 46.5t-151 10.5q-35 0 -35 45q0 15 9.5 25t21.5 10q29 -4 140.5 -9t207.5 -5h174q44 0 61 -10t31 -42l410 -890h10l82 358q76 335 76 420q0 27 -10.5 45.5t-25 28t-41 15t-47 6.5t-54.5 1q-13 0 -22 11t-9 26q0 39 31 39q2 0 50 -2t111.5 -4
t104.5 -2q144 0 246 10q14 0 22 -12.5t8 -28.5zM1495 1874q0 -86 -56.5 -171t-117.5 -85q-74 0 -181.5 5t-166.5 5q-29 0 -45.5 -14t-16.5 -31q0 -4 15.5 -25.5t15.5 -35.5q0 -25 -16 -36t-35 -11q-20 0 -35.5 13.5t-15.5 47.5q0 51 29 109.5t77.5 99.5t97.5 41
q41 0 143.5 -7t174.5 -7q61 0 61 55q0 4 -15 25.5t-15 35.5q0 25 16 36t35 11q20 0 35.5 -13.5t15.5 -47.5z" />
    <glyph glyph-name="Ograve" unicode="&#xd2;" horiz-adv-x="1566" 
d="M1536 768q0 -129 -45.5 -251.5t-126.5 -220.5t-186 -172t-230 -114.5t-252 -40.5q-110 0 -211.5 54.5t-176.5 147.5t-120 222.5t-45 272.5q0 158 70 305.5t184.5 255t269 172.5t316.5 65q147 0 274 -92t203 -253t76 -351zM1249 932q0 219 -77.5 338t-229.5 119
q-145 0 -263.5 -123.5t-183.5 -326t-65 -437.5q0 -212 78.5 -334.5t228.5 -122.5q112 0 209 75t162.5 199t103 284t37.5 329zM1147 1544q0 -13 -11 -24t-22 -11q-10 0 -20 7q-328 205 -338 215q-35 35 -35 81q0 49 34.5 76t71.5 27q24 0 41 -8.5t41 -32.5l226 -305
q12 -15 12 -25z" />
    <glyph glyph-name="Oacute" unicode="&#xd3;" horiz-adv-x="1566" 
d="M1536 768q0 -129 -45.5 -251.5t-126.5 -220.5t-186 -172t-230 -114.5t-252 -40.5q-110 0 -211.5 54.5t-176.5 147.5t-120 222.5t-45 272.5q0 158 70 305.5t184.5 255t269 172.5t316.5 65q147 0 274 -92t203 -253t76 -351zM1249 932q0 219 -77.5 338t-229.5 119
q-145 0 -263.5 -123.5t-183.5 -326t-65 -437.5q0 -212 78.5 -334.5t228.5 -122.5q112 0 209 75t162.5 199t103 284t37.5 329zM1294 1812q0 -47 -34 -81q-4 -4 -88.5 -58t-167.5 -105l-82 -52q-12 -7 -21 -7q-11 0 -22 11t-11 24q0 4 3 10.5t7 10.5l3 4q215 295 225 305
q24 24 41 32.5t41 8.5q37 0 71.5 -27t34.5 -76z" />
    <glyph glyph-name="Ocircumflex" unicode="&#xd4;" horiz-adv-x="1566" 
d="M1536 768q0 -129 -45.5 -251.5t-126.5 -220.5t-186 -172t-230 -114.5t-252 -40.5q-110 0 -211.5 54.5t-176.5 147.5t-120 222.5t-45 272.5q0 158 70 305.5t184.5 255t269 172.5t316.5 65q147 0 274 -92t203 -253t76 -351zM1249 932q0 219 -77.5 338t-229.5 119
q-145 0 -263.5 -123.5t-183.5 -326t-65 -437.5q0 -212 78.5 -334.5t228.5 -122.5q112 0 209 75t162.5 199t103 284t37.5 329zM1270 1935q0 -3 -12 -63.5t-31 -165.5t-33 -197q0 -14 -16 -14q-59 0 -96.5 12.5t-37.5 28.5q0 4 8.5 32t23.5 79t26 94h-6l-275 -236
q-10 -10 -22 -10q-13 0 -22 9.5t-9 21.5q0 3 7 10.5t13 13.5l7 6l383 349q11 9 26 24t22.5 21t12.5 6q12 0 21.5 -5.5t9.5 -15.5z" />
    <glyph glyph-name="Otilde" unicode="&#xd5;" horiz-adv-x="1566" 
d="M1536 768q0 -129 -45.5 -251.5t-126.5 -220.5t-186 -172t-230 -114.5t-252 -40.5q-110 0 -211.5 54.5t-176.5 147.5t-120 222.5t-45 272.5q0 158 70 305.5t184.5 255t269 172.5t316.5 65q147 0 274 -92t203 -253t76 -351zM1249 932q0 219 -77.5 338t-229.5 119
q-145 0 -263.5 -123.5t-183.5 -326t-65 -437.5q0 -212 78.5 -334.5t228.5 -122.5q112 0 209 75t162.5 199t103 284t37.5 329zM1362 1874q0 -86 -56.5 -171t-117.5 -85q-74 0 -181.5 5t-166.5 5q-29 0 -45.5 -14t-16.5 -31q0 -4 15.5 -25.5t15.5 -35.5q0 -25 -16 -36t-35 -11
q-20 0 -35.5 13.5t-15.5 47.5q0 51 29 109.5t77.5 99.5t97.5 41q41 0 143.5 -7t174.5 -7q61 0 61 55q0 4 -15 25.5t-15 35.5q0 25 16 36t35 11q20 0 35.5 -13.5t15.5 -47.5z" />
    <glyph glyph-name="Odieresis" unicode="&#xd6;" horiz-adv-x="1566" 
d="M1536 768q0 -129 -45.5 -251.5t-126.5 -220.5t-186 -172t-230 -114.5t-252 -40.5q-110 0 -211.5 54.5t-176.5 147.5t-120 222.5t-45 272.5q0 158 70 305.5t184.5 255t269 172.5t316.5 65q147 0 274 -92t203 -253t76 -351zM1249 932q0 219 -77.5 338t-229.5 119
q-145 0 -263.5 -123.5t-183.5 -326t-65 -437.5q0 -212 78.5 -334.5t228.5 -122.5q112 0 209 75t162.5 199t103 284t37.5 329zM1331 1669q0 -46 -38 -84.5t-87 -38.5t-78.5 28.5t-29.5 74.5q0 55 39 94t90 39q50 0 77 -29.5t27 -83.5zM950 1638q0 -46 -38 -84t-87 -38
t-78.5 29t-29.5 73q0 54 39.5 93.5t89.5 39.5q47 0 75.5 -27.5t28.5 -85.5z" />
    <glyph glyph-name="multiply" unicode="&#xd7;" horiz-adv-x="1024" 
d="M973 113q0 -11 -41 -52t-55 -41q-6 0 -13 7l-106 106l-215 215l-215 -215q-17 -17 -57.5 -57t-49.5 -49q-7 -7 -12 -7q-14 0 -55 41t-41 52q0 6 6 12q5 5 58 55t89 86l185 185l-185 184q-36 36 -89 86t-58 55q-6 6 -6 12q0 11 41 52t55 41q5 0 12 -7q9 -9 49.5 -49
t57.5 -57l215 -215l215 215l106 106q7 7 13 7q14 0 55 -41t41 -52q0 -6 -6 -12q-5 -5 -58.5 -55t-89.5 -86l-184 -184l184 -185q36 -36 89.5 -86t58.5 -55q6 -6 6 -12z" />
    <glyph glyph-name="Oslash" unicode="&#xd8;" horiz-adv-x="1566" 
d="M1536 768q0 -129 -45.5 -251.5t-126.5 -220.5t-186 -172t-230 -114.5t-252 -40.5q-92 0 -181 40t-163 114q-18 -18 -47.5 -52.5t-51.5 -61.5t-24 -29q-11 -11 -34 -11t-42.5 19.5t-19.5 42.5q0 18 12 30q2 2 22.5 21.5t53.5 51t66 65.5q-68 93 -106 215t-38 252
q0 158 70 305.5t184.5 255t269 172.5t316.5 65q92 0 178 -36.5t154 -104.5q16 16 45 50.5t51 62t23 28.5q11 11 30 11q23 0 42.5 -19.5t19.5 -42.5q0 -21 -10 -31l-134 -133q72 -92 113 -221t41 -260zM1208 1198q-73 191 -266 191q-145 0 -263.5 -123.5t-183.5 -326
t-65 -437.5q0 -27 2.5 -63t5.5 -59l2 -22zM1249 932q0 32 -3 72.5t-6 65.5l-3 24l-770 -844q34 -97 103 -151t167 -54q112 0 209 75t162.5 199t103 284t37.5 329z" />
    <glyph glyph-name="Ugrave" unicode="&#xd9;" horiz-adv-x="1628" 
d="M1823 1407q0 -18 -9.5 -28.5t-21.5 -10.5q-101 0 -154 -53q-21 -21 -42.5 -73t-35 -99.5t-34.5 -128.5l-133 -543q-63 -260 -216.5 -381t-428.5 -121q-83 0 -157 14t-142 47t-117 82.5t-78 126t-29 171.5q0 128 41 286l133 512q21 86 21 117q0 15 -7.5 23t-40 13t-96.5 5
q-13 0 -21.5 11t-8.5 26q0 41 30 41q50 -10 287 -10q64 0 184 5t138 5q14 0 22 -11.5t8 -23.5q0 -17 -8 -30t-22 -13q-70 0 -99.5 -5t-44.5 -20t-28 -50.5t-37 -123.5l-113 -409q-51 -183 -51 -328q0 -151 100.5 -239.5t257.5 -88.5q84 0 150.5 25.5t111 66t80.5 104.5
t57.5 127t41.5 148l71 308q72 318 72 389q0 15 -6.5 34.5t-13.5 26.5q-35 35 -154 35q-13 0 -22 11t-9 26q0 39 31 39q2 0 50 -2t111.5 -4t104.5 -2q59 0 146 5t100 5q14 0 22.5 -10.5t8.5 -26.5zM1208 1524q0 -13 -10.5 -24t-21.5 -11q-12 0 -21 6q-328 205 -338 215
q-35 35 -35 82q0 49 35 75.5t72 26.5q24 0 41 -8.5t41 -32.5l225 -305q12 -14 12 -24z" />
    <glyph glyph-name="Uacute" unicode="&#xda;" horiz-adv-x="1628" 
d="M1823 1407q0 -18 -9.5 -28.5t-21.5 -10.5q-101 0 -154 -53q-21 -21 -42.5 -73t-35 -99.5t-34.5 -128.5l-133 -543q-63 -260 -216.5 -381t-428.5 -121q-83 0 -157 14t-142 47t-117 82.5t-78 126t-29 171.5q0 128 41 286l133 512q21 86 21 117q0 15 -7.5 23t-40 13t-96.5 5
q-13 0 -21.5 11t-8.5 26q0 41 30 41q50 -10 287 -10q64 0 184 5t138 5q14 0 22 -11.5t8 -23.5q0 -17 -8 -30t-22 -13q-70 0 -99.5 -5t-44.5 -20t-28 -50.5t-37 -123.5l-113 -409q-51 -183 -51 -328q0 -151 100.5 -239.5t257.5 -88.5q84 0 150.5 25.5t111 66t80.5 104.5
t57.5 127t41.5 148l71 308q72 318 72 389q0 15 -6.5 34.5t-13.5 26.5q-35 35 -154 35q-13 0 -22 11t-9 26q0 39 31 39q2 0 50 -2t111.5 -4t104.5 -2q59 0 146 5t100 5q14 0 22.5 -10.5t8.5 -26.5zM1376 1792q0 -47 -35 -82q-4 -4 -88.5 -58t-166.5 -106l-82 -51
q-10 -6 -21 -6t-22 11t-11 24q0 4 3 10t7 10l3 4q215 295 225 305q24 24 41 32.5t41 8.5q37 0 71.5 -26.5t34.5 -75.5z" />
    <glyph glyph-name="Ucircumflex" unicode="&#xdb;" horiz-adv-x="1628" 
d="M1823 1407q0 -18 -9.5 -28.5t-21.5 -10.5q-101 0 -154 -53q-21 -21 -42.5 -73t-35 -99.5t-34.5 -128.5l-133 -543q-63 -260 -216.5 -381t-428.5 -121q-83 0 -157 14t-142 47t-117 82.5t-78 126t-29 171.5q0 128 41 286l133 512q21 86 21 117q0 15 -7.5 23t-40 13t-96.5 5
q-13 0 -21.5 11t-8.5 26q0 41 30 41q50 -10 287 -10q64 0 184 5t138 5q14 0 22 -11.5t8 -23.5q0 -17 -8 -30t-22 -13q-70 0 -99.5 -5t-44.5 -20t-28 -50.5t-37 -123.5l-113 -409q-51 -183 -51 -328q0 -151 100.5 -239.5t257.5 -88.5q84 0 150.5 25.5t111 66t80.5 104.5
t57.5 127t41.5 148l71 308q72 318 72 389q0 15 -6.5 34.5t-13.5 26.5q-35 35 -154 35q-13 0 -22 11t-9 26q0 39 31 39q2 0 50 -2t111.5 -4t104.5 -2q59 0 146 5t100 5q14 0 22.5 -10.5t8.5 -26.5zM1423 1935q0 -3 -12 -63.5t-30.5 -165.5t-32.5 -197q0 -14 -17 -14
q-59 0 -96 12.5t-37 28.5q0 4 8 32t23 79.5t26 93.5h-6l-274 -236q-10 -10 -23 -10t-21.5 9.5t-8.5 21.5q0 3 6.5 10.5t13.5 13.5l6 6l383 349q10 9 26 24t23.5 21t12.5 6q12 0 21 -5.5t9 -15.5z" />
    <glyph glyph-name="Udieresis" unicode="&#xdc;" horiz-adv-x="1628" 
d="M1823 1407q0 -18 -9.5 -28.5t-21.5 -10.5q-101 0 -154 -53q-21 -21 -42.5 -73t-35 -99.5t-34.5 -128.5l-133 -543q-63 -260 -216.5 -381t-428.5 -121q-83 0 -157 14t-142 47t-117 82.5t-78 126t-29 171.5q0 128 41 286l133 512q21 86 21 117q0 15 -7.5 23t-40 13t-96.5 5
q-13 0 -21.5 11t-8.5 26q0 41 30 41q50 -10 287 -10q64 0 184 5t138 5q14 0 22 -11.5t8 -23.5q0 -17 -8 -30t-22 -13q-70 0 -99.5 -5t-44.5 -20t-28 -50.5t-37 -123.5l-113 -409q-51 -183 -51 -328q0 -151 100.5 -239.5t257.5 -88.5q84 0 150.5 25.5t111 66t80.5 104.5
t57.5 127t41.5 148l71 308q72 318 72 389q0 15 -6.5 34.5t-13.5 26.5q-35 35 -154 35q-13 0 -22 11t-9 26q0 39 31 39q2 0 50 -2t111.5 -4t104.5 -2q59 0 146 5t100 5q14 0 22.5 -10.5t8.5 -26.5zM1434 1669q0 -46 -38 -84.5t-87 -38.5t-79 28.5t-30 74.5q0 55 39 94t90 39
q50 0 77.5 -29.5t27.5 -83.5zM1053 1638q0 -46 -38 -84t-87 -38t-79 29t-30 73q0 54 39.5 93.5t89.5 39.5q48 0 76.5 -27.5t28.5 -85.5z" />
    <glyph glyph-name="Yacute" unicode="&#xdd;" horiz-adv-x="1392" 
d="M1618 1307q0 -61 -38.5 -105.5t-104.5 -44.5q-37 0 -65 12.5t-43.5 30.5t-27 36.5t-23.5 31t-26 12.5q-62 0 -141 -87.5t-147.5 -214t-124 -264.5t-78.5 -243l-51 -235q-21 -92 -21 -130q0 -24 36.5 -31t117.5 -7q30 0 30 -37q0 -18 -9.5 -28.5t-20.5 -10.5q-82 8 -338 8
q-79 0 -181.5 -4t-105.5 -4q-31 0 -31 39q0 16 8.5 26.5t22.5 10.5q72 0 106 5t48 19q25 25 51 133l82 338q61 253 61 451q0 137 -49 201.5t-125 64.5q-87 0 -159 -74t-72 -172q0 -16 17.5 -28t42.5 -22.5t50 -24t42.5 -41.5t17.5 -68q0 -52 -36 -84.5t-87 -32.5
q-62 0 -108 51.5t-46 157.5q0 96 47.5 189t120.5 158t161 105t167 40q108 0 174.5 -75.5t66.5 -232.5q0 -87 -17.5 -199.5t-34.5 -181.5l-17 -69v-2q0 -8 8 -8q3 0 5.5 2.5t3.5 5.5l1 2q37 91 65 154.5t72 152.5t82.5 150.5t91.5 128.5t105 108t117 67.5t133 26.5
q84 0 129 -46.5t45 -110.5zM1303 1804q0 -47 -35 -82q-4 -4 -88.5 -58t-167.5 -106l-82 -51q-10 -6 -21 -6t-21.5 11t-10.5 24q0 4 3 10.5t6 10.5l3 4q215 295 225 305q24 24 41 32.5t41 8.5q37 0 72 -27t35 -76z" />
    <glyph glyph-name="Thorn" unicode="&#xde;" horiz-adv-x="1228" 
d="M1290 788q0 -130 -67 -236t-179.5 -165t-244.5 -59q-89 0 -150.5 14.5t-126.5 46.5l-41 -174q-18 -85 -18 -109q0 -14 10 -24q16 -16 141 -16q13 0 22 -11t9 -26q0 -39 -31 -39q-17 0 -116.5 5t-139.5 5q-71 0 -210 -7t-152 -7q-12 0 -19.5 9.5t-7.5 24.5q0 19 9.5 30
t21.5 11q122 0 143 21t52 143l235 973q21 92 21 123t-34.5 38t-119.5 7q-14 0 -22.5 10.5t-8.5 26.5q0 39 31 39q6 0 65 -2t136 -4t127 -2q72 0 138.5 2.5t105 5t42.5 2.5q12 0 21.5 -10t9.5 -31q0 -15 -9.5 -26t-21.5 -11q-120 0 -149 -29q-23 -23 -45 -125l-8 -38
q70 8 172 8q186 0 297.5 -105.5t111.5 -288.5zM1014 829q0 129 -64 203t-172 74q-50 0 -71 -21q-32 -32 -48 -102l-122 -522q71 -41 159 -41q81 0 144 34.5t100 93.5t55.5 130t18.5 151z" />
    <glyph glyph-name="germandbls" unicode="&#xdf;" horiz-adv-x="1208" 
d="M1167 1208q0 -244 -286 -362v-6q10 -2 25.5 -7t56 -29.5t71.5 -58t56.5 -98.5t25.5 -145q0 -71 -23 -145t-69 -143.5t-108 -124t-148.5 -87.5t-183.5 -33q-89 0 -137 47t-48 107q0 47 30.5 80t82.5 33q60 0 81 -38.5t21 -115.5q0 -16 8.5 -26.5t22.5 -10.5
q109 0 184.5 109.5t75.5 275.5q0 64 -15 116t-38.5 84t-53.5 53t-57.5 29.5t-54.5 8.5q-24 0 -48.5 -6t-29.5 -6q-12 0 -23.5 14t-11.5 35q0 30 41 41q168 51 258.5 163t90.5 236q0 205 -175 205q-47 0 -87.5 -19t-70 -50.5t-54.5 -76t-42 -92.5t-31 -102.5t-24 -104
t-19 -99.5q-6 -34 -9 -50q-228 -1133 -406 -1311q-61 -61 -147 -61q-64 0 -109 37.5t-45 101.5q0 50 33.5 86.5t79.5 36.5q34 0 65.5 -18t53.5 -36t34 -18q10 0 25 11.5t26 33.5q18 36 42 226.5t53.5 468.5t48.5 411q16 110 48 210t84.5 190t120.5 155t161 103.5t200 38.5
q177 0 262.5 -72.5t85.5 -194.5z" />
    <glyph glyph-name="agrave" unicode="&#xe0;" horiz-adv-x="1095" 
d="M1065 911q0 -6 -8 -26.5t-25.5 -61t-27.5 -65.5l-123 -307q-93 -233 -93 -273q0 -10 7 -17t18 -7q20 0 50.5 30t55.5 64.5t47 67.5l21 32q10 10 23 10q14 0 24 -9.5t10 -20.5q0 -6 -16.5 -34t-43.5 -68t-66.5 -85t-82 -83.5t-93.5 -63.5t-97 -25q-51 0 -76.5 24t-25.5 58
q0 44 92 225l102 205l-10 6q-182 -266 -326 -392t-278 -126q-56 0 -94.5 38.5t-38.5 105.5q0 87 41 198.5t112 218.5t156 198.5t183 147.5t184 56q113 0 147 -103h6l31 93q10 28 30.5 39.5t71.5 11.5t82 -18.5t31 -43.5zM768 748q0 106 -92 106q-82 0 -191 -118.5
t-184.5 -269t-75.5 -241.5q0 -82 72 -82q55 0 169 111.5t208 259t94 234.5zM901 1036q0 -13 -11 -22.5t-26 -9.5q-14 0 -65 51l-199 202q-34 37 -45.5 59.5t-11.5 47.5q0 45 31 72.5t75 27.5q73 0 109 -92l123 -280q20 -45 20 -56z" />
    <glyph glyph-name="aacute" unicode="&#xe1;" horiz-adv-x="1095" 
d="M1065 911q0 -6 -8 -26.5t-25.5 -61t-27.5 -65.5l-123 -307q-93 -233 -93 -273q0 -10 7 -17t18 -7q20 0 50.5 30t55.5 64.5t47 67.5l21 32q10 10 23 10q14 0 24 -9.5t10 -20.5q0 -6 -16.5 -34t-43.5 -68t-66.5 -85t-82 -83.5t-93.5 -63.5t-97 -25q-51 0 -76.5 24t-25.5 58
q0 44 92 225l102 205l-10 6q-182 -266 -326 -392t-278 -126q-56 0 -94.5 38.5t-38.5 105.5q0 87 41 198.5t112 218.5t156 198.5t183 147.5t184 56q113 0 147 -103h6l31 93q10 28 30.5 39.5t71.5 11.5t82 -18.5t31 -43.5zM768 748q0 106 -92 106q-82 0 -191 -118.5
t-184.5 -269t-75.5 -241.5q0 -82 72 -82q55 0 169 111.5t208 259t94 234.5zM1034 1399q0 -32 -10.5 -57t-40.5 -62l-164 -209q-47 -67 -61 -67q-16 0 -28.5 9t-12.5 23l20 76l86 287q10 39 38 65.5t71 26.5q39 0 70.5 -27.5t31.5 -64.5z" />
    <glyph glyph-name="acircumflex" unicode="&#xe2;" horiz-adv-x="1095" 
d="M1065 911q0 -6 -8 -26.5t-25.5 -61t-27.5 -65.5l-123 -307q-93 -233 -93 -273q0 -10 7 -17t18 -7q20 0 50.5 30t55.5 64.5t47 67.5l21 32q10 10 23 10q14 0 24 -9.5t10 -20.5q0 -6 -16.5 -34t-43.5 -68t-66.5 -85t-82 -83.5t-93.5 -63.5t-97 -25q-51 0 -76.5 24t-25.5 58
q0 44 92 225l102 205l-10 6q-182 -266 -326 -392t-278 -126q-56 0 -94.5 38.5t-38.5 105.5q0 87 41 198.5t112 218.5t156 198.5t183 147.5t184 56q113 0 147 -103h6l31 93q10 28 30.5 39.5t71.5 11.5t82 -18.5t31 -43.5zM768 748q0 106 -92 106q-82 0 -191 -118.5
t-184.5 -269t-75.5 -241.5q0 -82 72 -82q55 0 169 111.5t208 259t94 234.5zM1096 1464q0 -3 -12 -63.5t-31 -165.5t-33 -197q0 -14 -16 -14q-59 0 -96.5 12.5t-37.5 28.5q0 4 8.5 32t23.5 79t26 94h-6l-275 -236q-10 -10 -22 -10q-13 0 -22 9.5t-9 21.5q0 3 7 10.5t13 13.5
l7 6l383 349q11 9 26 24t22.5 21t12.5 6q12 0 21.5 -5.5t9.5 -15.5z" />
    <glyph glyph-name="atilde" unicode="&#xe3;" horiz-adv-x="1095" 
d="M1065 911q0 -6 -8 -26.5t-25.5 -61t-27.5 -65.5l-123 -307q-93 -233 -93 -273q0 -10 7 -17t18 -7q20 0 50.5 30t55.5 64.5t47 67.5l21 32q10 10 23 10q14 0 24 -9.5t10 -20.5q0 -6 -16.5 -34t-43.5 -68t-66.5 -85t-82 -83.5t-93.5 -63.5t-97 -25q-51 0 -76.5 24t-25.5 58
q0 44 92 225l102 205l-10 6q-182 -266 -326 -392t-278 -126q-56 0 -94.5 38.5t-38.5 105.5q0 87 41 198.5t112 218.5t156 198.5t183 147.5t184 56q113 0 147 -103h6l31 93q10 28 30.5 39.5t71.5 11.5t82 -18.5t31 -43.5zM768 748q0 106 -92 106q-82 0 -191 -118.5
t-184.5 -269t-75.5 -241.5q0 -82 72 -82q55 0 169 111.5t208 259t94 234.5zM1085 1403q0 -86 -56.5 -171t-117.5 -85q-74 0 -181.5 5t-166.5 5q-29 0 -45 -14t-16 -31q0 -4 15 -25.5t15 -35.5q0 -25 -16 -36t-35 -11q-20 0 -35.5 13.5t-15.5 47.5q0 80 65.5 165t139.5 85
q41 0 143 -7.5t174 -7.5q62 0 62 56q0 4 -15.5 25.5t-15.5 35.5q0 25 16 36t35 11q20 0 35.5 -13.5t15.5 -47.5z" />
    <glyph glyph-name="adieresis" unicode="&#xe4;" horiz-adv-x="1095" 
d="M1065 911q0 -6 -8 -26.5t-25.5 -61t-27.5 -65.5l-123 -307q-93 -233 -93 -273q0 -10 7 -17t18 -7q20 0 50.5 30t55.5 64.5t47 67.5l21 32q10 10 23 10q14 0 24 -9.5t10 -20.5q0 -6 -16.5 -34t-43.5 -68t-66.5 -85t-82 -83.5t-93.5 -63.5t-97 -25q-51 0 -76.5 24t-25.5 58
q0 44 92 225l102 205l-10 6q-182 -266 -326 -392t-278 -126q-56 0 -94.5 38.5t-38.5 105.5q0 87 41 198.5t112 218.5t156 198.5t183 147.5t184 56q113 0 147 -103h6l31 93q10 28 30.5 39.5t71.5 11.5t82 -18.5t31 -43.5zM768 748q0 106 -92 106q-82 0 -191 -118.5
t-184.5 -269t-75.5 -241.5q0 -82 72 -82q55 0 169 111.5t208 259t94 234.5zM1122 1270q0 -46 -38 -84.5t-87 -38.5t-78.5 28t-29.5 74q0 55 39.5 94t89.5 39t77 -29t27 -83zM741 1239q0 -46 -38 -84.5t-87 -38.5q-48 0 -78 29.5t-30 73.5q0 55 39 94t90 39q47 0 75.5 -27.5
t28.5 -85.5z" />
    <glyph glyph-name="aring" unicode="&#xe5;" horiz-adv-x="1095" 
d="M1065 911q0 -6 -8 -26.5t-25.5 -61t-27.5 -65.5l-123 -307q-93 -233 -93 -273q0 -10 7 -17t18 -7q20 0 50.5 30t55.5 64.5t47 67.5l21 32q10 10 23 10q14 0 24 -9.5t10 -20.5q0 -6 -16.5 -34t-43.5 -68t-66.5 -85t-82 -83.5t-93.5 -63.5t-97 -25q-51 0 -76.5 24t-25.5 58
q0 44 92 225l102 205l-10 6q-182 -266 -326 -392t-278 -126q-56 0 -94.5 38.5t-38.5 105.5q0 87 41 198.5t112 218.5t156 198.5t183 147.5t184 56q113 0 147 -103h6l31 93q10 28 30.5 39.5t71.5 11.5t82 -18.5t31 -43.5zM768 748q0 106 -92 106q-82 0 -191 -118.5
t-184.5 -269t-75.5 -241.5q0 -82 72 -82q55 0 169 111.5t208 259t94 234.5zM1055 1219q0 -77 -59.5 -136t-135.5 -59t-125 49t-49 125t59 135.5t136 59.5t125.5 -48.5t48.5 -125.5zM973 1219q0 43 -26 67.5t-70 24.5t-76.5 -33.5t-32.5 -77.5q0 -94 96 -94q45 0 77 33.5
t32 79.5z" />
    <glyph glyph-name="ae" unicode="&#xe6;" horiz-adv-x="1239" 
d="M1219 768q0 -57 -27 -105.5t-73 -82.5t-101.5 -60.5t-118 -42.5t-116.5 -25t-103 -12q-14 -71 -14 -153q0 -76 35.5 -120t97.5 -44q38 0 77 18.5t68 47t51.5 55.5t37.5 49.5t16 23.5q11 11 20 11q13 0 25 -8.5t12 -22.5q0 -15 -45 -85.5t-94 -119.5q-123 -123 -281 -123
q-104 0 -166.5 67t-62.5 200h-6q-6 -11 -17 -29t-48 -64t-77 -81t-102 -64t-125 -29q-64 0 -103.5 40t-39.5 114q0 83 56.5 179.5t150.5 184t208 165t236.5 132.5t228.5 76q10 8 29 20t75 32t111 20q89 0 137 -46t48 -118zM1055 788q0 76 -72 76q-68 0 -161 -120t-130 -252
q94 15 167.5 50.5t114 79t61 86.5t20.5 80zM696 758q-135 -45 -258.5 -136.5t-198.5 -199t-75 -197.5q0 -38 22 -60t60 -22q29 0 62.5 22t61 53.5t51 63.5t37.5 54l13 22q70 245 225 400z" />
    <glyph glyph-name="ccedilla" unicode="&#xe7;" horiz-adv-x="788" 
d="M809 778q0 -52 -30 -85.5t-83 -33.5q-40 0 -71 26t-31 63q0 17 5 44.5t5 36.5t-10 17t-31 8q-83 0 -158 -93.5t-117 -227t-42 -257.5q0 -67 25.5 -110t76.5 -43q72 0 144 72q18 18 48.5 59t32.5 43q14 14 25 14q14 0 25.5 -8t11.5 -22t-41 -81t-82 -108q-24 -24 -124 -88
t-132 -96v-4q102 -45 102 -160q0 -87 -87 -156t-173 -69q-42 0 -65 19.5t-23 51.5q0 21 16.5 38.5t39.5 17.5q27 0 40.5 -16.5t17.5 -33t9 -16.5q29 0 60.5 34t31.5 89q0 57 -41 85t-98 28q-6 0 -12 7.5t-6 14.5q0 14 10 19q4 2 106 71l62 41q2 6 0 6q-98 0 -162 61.5
t-64 178.5q0 64 20 142t56 157.5t89.5 155t116.5 133.5t142 93.5t160 35.5q100 0 152.5 -46.5t52.5 -107.5z" />
    <glyph glyph-name="egrave" unicode="&#xe8;" horiz-adv-x="819" 
d="M799 768q0 -67 -38 -123t-96 -91.5t-132.5 -61t-140 -37.5t-126.5 -15q-14 -71 -14 -153q0 -77 33 -120.5t94 -43.5q38 0 77 18.5t68 47t51.5 55.5t37.5 49.5t16 23.5q11 11 20 11q13 0 25 -8.5t12 -22.5q0 -15 -45 -85.5t-94 -119.5q-123 -123 -281 -123
q-104 0 -169.5 63.5t-65.5 182.5q0 107 49 233t127 233t187.5 179t219.5 72q89 0 137 -46t48 -118zM635 788q0 76 -72 76q-68 0 -157 -119.5t-127 -252.5q76 12 138 38t101.5 57.5t66.5 68.5t38.5 70t11.5 62zM707 1036q0 -13 -11 -22.5t-26 -9.5t-66 51l-198 202
q-34 37 -46 60t-12 47q0 44 31.5 72t75.5 28q72 0 108 -92l123 -280q21 -47 21 -56z" />
    <glyph glyph-name="eacute" unicode="&#xe9;" horiz-adv-x="819" 
d="M799 768q0 -67 -38 -123t-96 -91.5t-132.5 -61t-140 -37.5t-126.5 -15q-14 -71 -14 -153q0 -77 33 -120.5t94 -43.5q38 0 77 18.5t68 47t51.5 55.5t37.5 49.5t16 23.5q11 11 20 11q13 0 25 -8.5t12 -22.5q0 -15 -45 -85.5t-94 -119.5q-123 -123 -281 -123
q-104 0 -169.5 63.5t-65.5 182.5q0 107 49 233t127 233t187.5 179t219.5 72q89 0 137 -46t48 -118zM635 788q0 76 -72 76q-68 0 -157 -119.5t-127 -252.5q76 12 138 38t101.5 57.5t66.5 68.5t38.5 70t11.5 62zM932 1399q0 -32 -10.5 -57t-40.5 -62l-164 -209
q-48 -67 -62 -67q-16 0 -28.5 9t-12.5 23l21 76l86 287q10 39 37.5 65.5t70.5 26.5q39 0 71 -27.5t32 -64.5z" />
    <glyph glyph-name="ecircumflex" unicode="&#xea;" horiz-adv-x="819" 
d="M799 768q0 -67 -38 -123t-96 -91.5t-132.5 -61t-140 -37.5t-126.5 -15q-14 -71 -14 -153q0 -77 33 -120.5t94 -43.5q38 0 77 18.5t68 47t51.5 55.5t37.5 49.5t16 23.5q11 11 20 11q13 0 25 -8.5t12 -22.5q0 -15 -45 -85.5t-94 -119.5q-123 -123 -281 -123
q-104 0 -169.5 63.5t-65.5 182.5q0 107 49 233t127 233t187.5 179t219.5 72q89 0 137 -46t48 -118zM635 788q0 76 -72 76q-68 0 -157 -119.5t-127 -252.5q76 12 138 38t101.5 57.5t66.5 68.5t38.5 70t11.5 62zM911 1444q0 -3 -12 -63.5t-30.5 -165.5t-32.5 -197
q0 -14 -17 -14q-59 0 -96 12t-37 28q0 4 8 32t23 79.5t26 93.5h-6l-274 -235q-10 -10 -23 -10t-21.5 9t-8.5 21q0 3 6.5 10.5t13.5 13.5l6 7l383 348q10 9 26 24t23.5 21t12.5 6q30 0 30 -20z" />
    <glyph glyph-name="edieresis" unicode="&#xeb;" horiz-adv-x="819" 
d="M799 768q0 -67 -38 -123t-96 -91.5t-132.5 -61t-140 -37.5t-126.5 -15q-14 -71 -14 -153q0 -77 33 -120.5t94 -43.5q38 0 77 18.5t68 47t51.5 55.5t37.5 49.5t16 23.5q11 11 20 11q13 0 25 -8.5t12 -22.5q0 -15 -45 -85.5t-94 -119.5q-123 -123 -281 -123
q-104 0 -169.5 63.5t-65.5 182.5q0 107 49 233t127 233t187.5 179t219.5 72q89 0 137 -46t48 -118zM635 788q0 76 -72 76q-68 0 -157 -119.5t-127 -252.5q76 12 138 38t101.5 57.5t66.5 68.5t38.5 70t11.5 62zM901 1270q0 -46 -38 -84.5t-87 -38.5t-78.5 28t-29.5 74
q0 55 39 94t90 39q50 0 77 -29t27 -83zM520 1239q0 -46 -38 -84.5t-87 -38.5q-48 0 -78 29.5t-30 73.5q0 55 39.5 94t89.5 39q47 0 75.5 -27.5t28.5 -85.5z" />
    <glyph glyph-name="igrave" unicode="&#xec;" horiz-adv-x="624" 
d="M563 287q0 -7 -23.5 -40.5t-64.5 -80t-90.5 -91t-109 -75.5t-111.5 -31q-56 0 -87.5 33.5t-31.5 69.5q0 18 12 51.5t40.5 101.5t45.5 113l82 215q23 54 42.5 111.5t19.5 72.5q0 8 -7 16.5t-14 8.5q-17 0 -41 -15.5t-47.5 -38.5t-43.5 -45t-35.5 -41t-16.5 -20
q-8 -8 -14 -8q-16 0 -26.5 10t-10.5 23q0 10 40 57.5t96 103.5t128 100t125 44q39 0 78 -26t39 -56q0 -14 -10 -45.5t-22 -61.5t-34.5 -86.5t-36.5 -93.5l-82 -215q-55 -137 -55 -174q0 -31 25 -31q14 0 37.5 16t49 40.5t46.5 47.5t38.5 43t18.5 21q8 8 14 8q16 0 26.5 -9.5
t10.5 -22.5zM563 1036q0 -13 -11 -22.5t-26 -9.5q-14 0 -65 51l-199 202q-34 37 -45.5 59.5t-11.5 47.5q0 45 31 72.5t75 27.5q73 0 109 -92l123 -280q20 -45 20 -56z" />
    <glyph glyph-name="iacute" unicode="&#xed;" horiz-adv-x="624" 
d="M563 287q0 -7 -23.5 -40.5t-64.5 -80t-90.5 -91t-109 -75.5t-111.5 -31q-56 0 -87.5 33.5t-31.5 69.5q0 18 12 51.5t40.5 101.5t45.5 113l82 215q23 54 42.5 111.5t19.5 72.5q0 8 -7 16.5t-14 8.5q-17 0 -41 -15.5t-47.5 -38.5t-43.5 -45t-35.5 -41t-16.5 -20
q-8 -8 -14 -8q-16 0 -26.5 10t-10.5 23q0 10 40 57.5t96 103.5t128 100t125 44q39 0 78 -26t39 -56q0 -14 -10 -45.5t-22 -61.5t-34.5 -86.5t-36.5 -93.5l-82 -215q-55 -137 -55 -174q0 -31 25 -31q14 0 37.5 16t49 40.5t46.5 47.5t38.5 43t18.5 21q8 8 14 8q16 0 26.5 -9.5
t10.5 -22.5zM737 1399q0 -32 -10.5 -57t-40.5 -62l-164 -209q-47 -67 -61 -67q-16 0 -28.5 9t-12.5 23l20 76l86 287q10 39 38 65.5t71 26.5q39 0 70.5 -27.5t31.5 -64.5z" />
    <glyph glyph-name="icircumflex" unicode="&#xee;" horiz-adv-x="624" 
d="M563 287q0 -7 -23.5 -40.5t-64.5 -80t-90.5 -91t-109 -75.5t-111.5 -31q-56 0 -87.5 33.5t-31.5 69.5q0 18 12 51.5t40.5 101.5t45.5 113l82 215q23 54 42.5 111.5t19.5 72.5q0 8 -7 16.5t-14 8.5q-17 0 -41 -15.5t-47.5 -38.5t-43.5 -45t-35.5 -41t-16.5 -20
q-8 -8 -14 -8q-16 0 -26.5 10t-10.5 23q0 10 40 57.5t96 103.5t128 100t125 44q39 0 78 -26t39 -56q0 -14 -10 -45.5t-22 -61.5t-34.5 -86.5t-36.5 -93.5l-82 -215q-55 -137 -55 -174q0 -31 25 -31q14 0 37.5 16t49 40.5t46.5 47.5t38.5 43t18.5 21q8 8 14 8q16 0 26.5 -9.5
t10.5 -22.5zM727 1444q0 -3 -12 -63.5t-31 -165.5t-33 -197q0 -14 -16 -14q-59 0 -96 12t-37 28q0 4 8 32t23 79.5t26 93.5h-6l-274 -235q-10 -10 -23 -10t-22 9t-9 21q0 3 6.5 10.5t13.5 13.5l7 7l383 348q11 9 26 24t22.5 21t12.5 6q31 0 31 -20z" />
    <glyph glyph-name="idieresis" unicode="&#xef;" horiz-adv-x="624" 
d="M563 287q0 -7 -23.5 -40.5t-64.5 -80t-90.5 -91t-109 -75.5t-111.5 -31q-56 0 -87.5 33.5t-31.5 69.5q0 18 12 51.5t40.5 101.5t45.5 113l82 215q23 54 42.5 111.5t19.5 72.5q0 8 -7 16.5t-14 8.5q-17 0 -41 -15.5t-47.5 -38.5t-43.5 -45t-35.5 -41t-16.5 -20
q-8 -8 -14 -8q-16 0 -26.5 10t-10.5 23q0 10 40 57.5t96 103.5t128 100t125 44q39 0 78 -26t39 -56q0 -14 -10 -45.5t-22 -61.5t-34.5 -86.5t-36.5 -93.5l-82 -215q-55 -137 -55 -174q0 -31 25 -31q14 0 37.5 16t49 40.5t46.5 47.5t38.5 43t18.5 21q8 8 14 8q16 0 26.5 -9.5
t10.5 -22.5zM766 1270q0 -46 -38 -84.5t-87 -38.5t-79 28t-30 74q0 54 39.5 93.5t90.5 39.5q50 0 77 -29t27 -83zM385 1239q0 -46 -38 -84.5t-87 -38.5q-48 0 -78 29.5t-30 73.5q0 55 39 94t90 39q47 0 75.5 -27.5t28.5 -85.5z" />
    <glyph glyph-name="eth" unicode="&#xf0;" horiz-adv-x="972" 
d="M901 573q0 -155 -75 -295.5t-198.5 -224.5t-258.5 -84q-139 0 -223.5 102t-84.5 277q0 132 71.5 267.5t192 226t248.5 90.5q36 0 65.5 -5t40.5 -11l11 -5l6 4q-14 141 -69 267q-128 -84 -135 -88q-18 -9 -21 -9q-15 0 -28 14t-13 29q0 26 25 39q4 2 28.5 13.5t58.5 27.5
t60 29q-52 112 -110 170q-15 15 -15 31q0 18 14 27.5t25 9.5q30 0 82 -52q23 -23 49.5 -55t42.5 -53l15 -21q28 16 61 39t54.5 39t23.5 17q8 4 16 4q14 0 27.5 -18t13.5 -34q0 -6 -3 -12t-6 -9l-3 -3q-84 -37 -154 -74q166 -287 166 -670zM707 707q0 74 -28 113.5t-75 39.5
q-66 0 -131.5 -70.5t-112 -173.5t-75.5 -217.5t-29 -203.5q0 -154 102 -154q66 0 132 71t112.5 173.5t75.5 217.5t29 204z" />
    <glyph glyph-name="ntilde" unicode="&#xf1;" 
d="M1085 276q0 -7 -27.5 -39.5t-76 -77.5t-105.5 -87.5t-125 -72.5t-126 -30q-66 0 -66 62q0 14 5 34t9 32t16 41t15 36l127 287q92 205 92 266q0 21 -13.5 31t-31.5 10q-43 0 -116.5 -65.5t-142 -152.5t-123.5 -171t-68 -123l-82 -246q-12 -41 -103 -41q-102 0 -102 41
q0 25 41 123l174 440q51 127 51 164q0 8 -6.5 14.5t-13.5 6.5q-16 0 -38 -16.5t-43.5 -40.5t-39.5 -47.5t-30 -41.5l-13 -18q-6 -6 -21 -6q-9 0 -19.5 11.5t-10.5 25.5q0 13 36.5 61.5t87 103.5t114.5 98.5t110 43.5q53 0 85 -20.5t32 -51.5q0 -12 -18 -59t-56 -139.5
t-53 -129.5l-31 -77l6 -4q144 243 269.5 362t246.5 119q85 0 124.5 -35.5t39.5 -87.5q0 -35 -17.5 -85.5t-64.5 -160.5l-92 -215q-57 -134 -57 -164q0 -20 20 -20q8 0 18.5 4t22.5 11t23.5 15.5t24 19t23 20t21.5 20t17.5 17.5t13.5 13l6 7q20 20 31 20q12 0 21 -11.5
t9 -23.5zM1106 1403q0 -86 -56.5 -171t-117.5 -85q-74 0 -181.5 5t-166.5 5q-29 0 -45.5 -14t-16.5 -31q0 -4 15.5 -25.5t15.5 -35.5q0 -25 -16 -36t-35 -11q-20 0 -35.5 13.5t-15.5 47.5q0 51 29 109.5t77.5 99.5t97.5 41q41 0 143.5 -7.5t174.5 -7.5q61 0 61 56
q0 4 -15 25.5t-15 35.5q0 25 16 36t35 11q20 0 35.5 -13.5t15.5 -47.5z" />
    <glyph glyph-name="ograve" unicode="&#xf2;" horiz-adv-x="962" 
d="M901 543q0 -136 -74.5 -269.5t-199 -219t-258.5 -85.5q-140 0 -224 103.5t-84 285.5q0 95 43.5 197.5t114 185.5t168 137t197.5 54q147 0 232 -103t85 -286zM707 707q0 74 -28 113.5t-75 39.5q-66 0 -131.5 -70.5t-112 -173.5t-75.5 -217.5t-29 -203.5q0 -154 102 -154
q66 0 132 71t112.5 173.5t75.5 217.5t29 204zM778 1036q0 -13 -11 -22.5t-26 -9.5q-14 0 -65 51l-199 202q-34 37 -45.5 59.5t-11.5 47.5q0 45 31 72.5t75 27.5q73 0 109 -92l123 -280q20 -45 20 -56z" />
    <glyph glyph-name="oacute" unicode="&#xf3;" horiz-adv-x="962" 
d="M901 543q0 -136 -74.5 -269.5t-199 -219t-258.5 -85.5q-140 0 -224 103.5t-84 285.5q0 95 43.5 197.5t114 185.5t168 137t197.5 54q147 0 232 -103t85 -286zM707 707q0 74 -28 113.5t-75 39.5q-66 0 -131.5 -70.5t-112 -173.5t-75.5 -217.5t-29 -203.5q0 -154 102 -154
q66 0 132 71t112.5 173.5t75.5 217.5t29 204zM911 1399q0 -32 -10.5 -57t-40.5 -62l-164 -209q-47 -67 -61 -67q-16 0 -28.5 9t-12.5 23l20 76l86 287q10 39 38 65.5t71 26.5q39 0 70.5 -27.5t31.5 -64.5z" />
    <glyph glyph-name="ocircumflex" unicode="&#xf4;" horiz-adv-x="962" 
d="M901 543q0 -136 -74.5 -269.5t-199 -219t-258.5 -85.5q-140 0 -224 103.5t-84 285.5q0 95 43.5 197.5t114 185.5t168 137t197.5 54q147 0 232 -103t85 -286zM707 707q0 74 -28 113.5t-75 39.5q-66 0 -131.5 -70.5t-112 -173.5t-75.5 -217.5t-29 -203.5q0 -154 102 -154
q66 0 132 71t112.5 173.5t75.5 217.5t29 204zM952 1444q0 -3 -12 -63.5t-30.5 -165.5t-32.5 -197q0 -14 -17 -14q-59 0 -96 12t-37 28q0 4 8 32t23 79.5t26 93.5h-6l-274 -235q-10 -10 -23 -10t-21.5 9t-8.5 21q0 3 6.5 10.5t12.5 13.5l7 7l383 348q10 9 26 24t23.5 21
t12.5 6q30 0 30 -20z" />
    <glyph glyph-name="otilde" unicode="&#xf5;" horiz-adv-x="962" 
d="M901 543q0 -136 -74.5 -269.5t-199 -219t-258.5 -85.5q-140 0 -224 103.5t-84 285.5q0 95 43.5 197.5t114 185.5t168 137t197.5 54q147 0 232 -103t85 -286zM707 707q0 74 -28 113.5t-75 39.5q-66 0 -131.5 -70.5t-112 -173.5t-75.5 -217.5t-29 -203.5q0 -154 102 -154
q66 0 132 71t112.5 173.5t75.5 217.5t29 204zM1004 1403q0 -86 -57 -171t-118 -85q-74 0 -181.5 5t-166.5 5q-29 0 -45 -14t-16 -31q0 -4 15.5 -25.5t15.5 -35.5q0 -25 -16.5 -36t-35.5 -11q-20 0 -35.5 13.5t-15.5 47.5q0 80 65.5 165t139.5 85q41 0 143 -7.5t174 -7.5
q62 0 62 56q0 4 -15.5 25.5t-15.5 35.5q0 25 16 36t35 11q20 0 36 -13.5t16 -47.5z" />
    <glyph glyph-name="odieresis" unicode="&#xf6;" horiz-adv-x="962" 
d="M901 543q0 -136 -74.5 -269.5t-199 -219t-258.5 -85.5q-140 0 -224 103.5t-84 285.5q0 95 43.5 197.5t114 185.5t168 137t197.5 54q147 0 232 -103t85 -286zM707 707q0 74 -28 113.5t-75 39.5q-66 0 -131.5 -70.5t-112 -173.5t-75.5 -217.5t-29 -203.5q0 -154 102 -154
q66 0 132 71t112.5 173.5t75.5 217.5t29 204zM1004 1270q0 -46 -38 -84.5t-87 -38.5t-79 28t-30 74q0 55 39 94t90 39q50 0 77.5 -29t27.5 -83zM623 1239q0 -46 -38 -84.5t-87 -38.5t-79 29.5t-30 73.5q0 55 39.5 94t89.5 39q48 0 76.5 -27.5t28.5 -85.5z" />
    <glyph glyph-name="divide" unicode="&#xf7;" horiz-adv-x="1024" 
d="M649 745q0 -58 -39 -96.5t-96 -38.5t-96 38.5t-39 96.5q0 57 39 96.5t96 39.5t96 -39.5t39 -96.5zM963 430q0 -51 -21 -51q-14 0 -119 2t-127 2h-235q-76 0 -163.5 -1t-147 -2t-68.5 -1q-21 0 -21 24v58q0 65 25 65q14 0 127 -2t135 -2h236q76 0 158.5 1t136.5 2t63 1
q21 0 21 -24v-72zM649 156q0 -58 -39 -97t-96 -39t-96 39t-39 97q0 57 39 96t96 39t96 -39t39 -96z" />
    <glyph glyph-name="oslash" unicode="&#xf8;" horiz-adv-x="962" 
d="M911 963q-57 -62 -104 -123q41 -41 67.5 -120.5t26.5 -176.5q0 -136 -74.5 -269.5t-199 -219t-258.5 -85.5q-104 0 -164 51q-13 -21 -28 -47.5t-23 -41t-11 -17.5q-1 -1 -3 -3.5t-3.5 -3.5l-4.5 -3t-7 -3t-10 -2t-13 -1q-19 0 -35 15t-16 34q62 74 101 121
q-40 40 -65.5 117t-25.5 173q0 95 43.5 197.5t114 185.5t168 137t197.5 54q99 0 172 -49q14 21 30.5 47.5t26.5 42.5t12 18q13 13 35 13q19 0 35 -14t16 -27zM694 793q-26 67 -90 67q-56 0 -110.5 -44.5t-96.5 -116t-74.5 -158t-49.5 -176t-17 -164.5zM707 707l-437 -603
q25 -63 88 -63q70 0 136.5 68t112 169t73 216.5t27.5 212.5z" />
    <glyph glyph-name="ugrave" unicode="&#xf9;" 
d="M1106 891q0 -9 -5.5 -24.5t-17 -44.5t-18.5 -48l-174 -446q-51 -136 -51 -164q0 -8 7 -14.5t17 -6.5q13 0 34 16.5t42 40.5t39.5 47.5t31.5 41.5l13 18q6 6 20 6q9 0 20 -9t11 -23q0 -11 -33.5 -59.5t-83 -105.5t-117 -102t-124.5 -45q-53 0 -83 20t-30 52q0 18 19 62
t54 122t60 144l31 77l-6 5q-145 -244 -271.5 -363t-254.5 -119q-78 0 -116 34t-38 79q0 42 17.5 94t64.5 162l92 215q61 143 61 184q0 11 -6 18t-14 7q-17 0 -40 -14t-45 -35.5t-40.5 -41.5t-33 -38t-15.5 -19q-20 -20 -27 -20q-12 0 -23.5 9.5t-11.5 21.5q0 8 24.5 41.5
t66.5 78t90.5 86.5t105.5 71.5t103 29.5q41 0 81.5 -28t40.5 -64q0 -39 -51 -154l-112 -262q-28 -65 -36.5 -85t-25 -61t-21.5 -63.5t-5 -40.5q0 -22 16.5 -34.5t40.5 -12.5q53 0 142 90t169.5 208.5t128.5 219.5l72 236q16 51 102 51q53 0 83 -11t30 -30zM881 1036
q0 -13 -11 -22.5t-26 -9.5t-66 51l-198 202q-34 37 -46 60t-12 47q0 44 31.5 72t75.5 28q72 0 108 -92l123 -280q21 -47 21 -56z" />
    <glyph glyph-name="uacute" unicode="&#xfa;" 
d="M1106 891q0 -9 -5.5 -24.5t-17 -44.5t-18.5 -48l-174 -446q-51 -136 -51 -164q0 -8 7 -14.5t17 -6.5q13 0 34 16.5t42 40.5t39.5 47.5t31.5 41.5l13 18q6 6 20 6q9 0 20 -9t11 -23q0 -11 -33.5 -59.5t-83 -105.5t-117 -102t-124.5 -45q-53 0 -83 20t-30 52q0 18 19 62
t54 122t60 144l31 77l-6 5q-145 -244 -271.5 -363t-254.5 -119q-78 0 -116 34t-38 79q0 42 17.5 94t64.5 162l92 215q61 143 61 184q0 11 -6 18t-14 7q-17 0 -40 -14t-45 -35.5t-40.5 -41.5t-33 -38t-15.5 -19q-20 -20 -27 -20q-12 0 -23.5 9.5t-11.5 21.5q0 8 24.5 41.5
t66.5 78t90.5 86.5t105.5 71.5t103 29.5q41 0 81.5 -28t40.5 -64q0 -39 -51 -154l-112 -262q-28 -65 -36.5 -85t-25 -61t-21.5 -63.5t-5 -40.5q0 -22 16.5 -34.5t40.5 -12.5q53 0 142 90t169.5 208.5t128.5 219.5l72 236q16 51 102 51q53 0 83 -11t30 -30zM1014 1399
q0 -32 -10.5 -57t-40.5 -62l-164 -209q-48 -67 -62 -67q-16 0 -28.5 9t-12.5 23l21 76l86 287q10 39 37.5 65.5t70.5 26.5q39 0 71 -27.5t32 -64.5z" />
    <glyph glyph-name="ucircumflex" unicode="&#xfb;" 
d="M1106 891q0 -9 -5.5 -24.5t-17 -44.5t-18.5 -48l-174 -446q-51 -136 -51 -164q0 -8 7 -14.5t17 -6.5q13 0 34 16.5t42 40.5t39.5 47.5t31.5 41.5l13 18q6 6 20 6q9 0 20 -9t11 -23q0 -11 -33.5 -59.5t-83 -105.5t-117 -102t-124.5 -45q-53 0 -83 20t-30 52q0 18 19 62
t54 122t60 144l31 77l-6 5q-145 -244 -271.5 -363t-254.5 -119q-78 0 -116 34t-38 79q0 42 17.5 94t64.5 162l92 215q61 143 61 184q0 11 -6 18t-14 7q-17 0 -40 -14t-45 -35.5t-40.5 -41.5t-33 -38t-15.5 -19q-20 -20 -27 -20q-12 0 -23.5 9.5t-11.5 21.5q0 8 24.5 41.5
t66.5 78t90.5 86.5t105.5 71.5t103 29.5q41 0 81.5 -28t40.5 -64q0 -39 -51 -154l-112 -262q-28 -65 -36.5 -85t-25 -61t-21.5 -63.5t-5 -40.5q0 -22 16.5 -34.5t40.5 -12.5q53 0 142 90t169.5 208.5t128.5 219.5l72 236q16 51 102 51q53 0 83 -11t30 -30zM1106 1444
q0 -3 -12 -63.5t-31 -165.5t-33 -197q0 -14 -16 -14q-59 0 -96 12t-37 28q0 4 8 32t23 79.5t26 93.5h-6l-275 -235q-10 -10 -22 -10q-13 0 -22 9t-9 21q0 3 7 10.5t13 13.5l7 7l383 348q11 9 26 24t22.5 21t12.5 6q31 0 31 -20z" />
    <glyph glyph-name="udieresis" unicode="&#xfc;" 
d="M1106 891q0 -9 -5.5 -24.5t-17 -44.5t-18.5 -48l-174 -446q-51 -136 -51 -164q0 -8 7 -14.5t17 -6.5q13 0 34 16.5t42 40.5t39.5 47.5t31.5 41.5l13 18q6 6 20 6q9 0 20 -9t11 -23q0 -11 -33.5 -59.5t-83 -105.5t-117 -102t-124.5 -45q-53 0 -83 20t-30 52q0 18 19 62
t54 122t60 144l31 77l-6 5q-145 -244 -271.5 -363t-254.5 -119q-78 0 -116 34t-38 79q0 42 17.5 94t64.5 162l92 215q61 143 61 184q0 11 -6 18t-14 7q-17 0 -40 -14t-45 -35.5t-40.5 -41.5t-33 -38t-15.5 -19q-20 -20 -27 -20q-12 0 -23.5 9.5t-11.5 21.5q0 8 24.5 41.5
t66.5 78t90.5 86.5t105.5 71.5t103 29.5q41 0 81.5 -28t40.5 -64q0 -39 -51 -154l-112 -262q-28 -65 -36.5 -85t-25 -61t-21.5 -63.5t-5 -40.5q0 -22 16.5 -34.5t40.5 -12.5q53 0 142 90t169.5 208.5t128.5 219.5l72 236q16 51 102 51q53 0 83 -11t30 -30zM1106 1270
q0 -46 -38 -84.5t-87 -38.5t-79 28t-30 74q0 55 39 94t90 39q50 0 77.5 -29t27.5 -83zM725 1239q0 -46 -38 -84.5t-87 -38.5q-48 0 -78 29.5t-30 73.5q0 55 39 94t90 39q47 0 75.5 -27.5t28.5 -85.5z" />
    <glyph glyph-name="yacute" unicode="&#xfd;" horiz-adv-x="952" 
d="M901 788q0 -48 -17 -131.5t-47.5 -187.5t-76 -221t-99 -231.5t-120.5 -219.5t-137 -185t-151 -127.5t-161 -47.5q-93 0 -143.5 47.5t-50.5 112.5q0 59 33 98t89 39q43 0 78 -29.5t35 -73.5q0 -11 -2 -30t-2 -25q0 -11 10.5 -21t24.5 -10q59 0 136 67.5t131 156.5t54 149
q0 34 -8.5 74t-17.5 68t-29 83l-143 410q-15 42 -24.5 66t-23 51t-27 39t-28.5 12q-39 0 -110 -178q-12 -31 -29 -31q-12 0 -23.5 8t-11.5 19q0 10 12.5 50.5t38 98.5t57.5 112.5t77.5 93t91.5 38.5q107 0 174 -246l164 -553h6q52 105 91.5 239.5t39.5 241.5q0 25 -11 45
t-27 34.5t-31.5 30t-26.5 40t-11 55.5q0 51 36 82t81 31q55 0 92 -36.5t37 -107.5zM829 1399q0 -32 -10.5 -57t-40.5 -62l-164 -209q-47 -67 -61 -67q-16 0 -28.5 9t-12.5 23l20 76l86 287q10 39 38 65.5t71 26.5q39 0 70.5 -27.5t31.5 -64.5z" />
    <glyph glyph-name="thorn" unicode="&#xfe;" horiz-adv-x="1064" 
d="M1014 614q0 -112 -55 -229.5t-141 -208.5t-198.5 -149t-220.5 -58q-35 0 -63 8.5t-38 17.5l-11 9l-8 -4l-95 -287q-41 -125 -41 -157q0 -25 31 -33t123 -8q11 0 18 -10t7 -23q0 -37 -25 -37q-5 0 -37 2t-86 4t-113 2q-80 0 -197 -11l-116 -11q-24 0 -24 32q0 35 20 35
q76 0 113.5 18t60.5 64q26 51 51 123l369 1096q-29 -11 -58.5 -28.5t-52 -35t-44.5 -37.5t-34.5 -34t-24.5 -26l-11 -13q-11 -11 -17 -11q-11 0 -23 10t-12 21t23.5 41.5t62 68.5t99 76.5t123.5 57.5l61 217q41 148 41 164q0 25 -10 35q-11 11 -31.5 19.5t-41.5 14t-26 7.5
q-14 7 -14 26q0 27 21 31q102 11 204 31q22 4 56 14.5t59 18.5t29 8h10q14 0 22.5 -11t8.5 -20q0 -4 -12.5 -38t-36 -101t-43.5 -127l-84 -256l4 -7q49 17 121 17q140 0 223.5 -94t83.5 -224zM788 614q0 117 -56 181.5t-138 64.5q-32 0 -41 -31l-225 -675q-17 -57 -17 -62
q0 -17 21.5 -32t56.5 -15q81 0 157 55.5t127.5 140.5t83 184.5t31.5 188.5z" />
    <glyph glyph-name="ydieresis" unicode="&#xff;" horiz-adv-x="952" 
d="M901 788q0 -48 -17 -131.5t-47.5 -187.5t-76 -221t-99 -231.5t-120.5 -219.5t-137 -185t-151 -127.5t-161 -47.5q-93 0 -143.5 47.5t-50.5 112.5q0 59 33 98t89 39q43 0 78 -29.5t35 -73.5q0 -11 -2 -30t-2 -25q0 -11 10.5 -21t24.5 -10q59 0 136 67.5t131 156.5t54 149
q0 34 -8.5 74t-17.5 68t-29 83l-143 410q-15 42 -24.5 66t-23 51t-27 39t-28.5 12q-39 0 -110 -178q-12 -31 -29 -31q-12 0 -23.5 8t-11.5 19q0 10 12.5 50.5t38 98.5t57.5 112.5t77.5 93t91.5 38.5q107 0 174 -246l164 -553h6q52 105 91.5 239.5t39.5 241.5q0 25 -11 45
t-27 34.5t-31.5 30t-26.5 40t-11 55.5q0 51 36 82t81 31q55 0 92 -36.5t37 -107.5zM881 1270q0 -46 -38 -84.5t-87 -38.5t-79 28t-30 74q0 55 39.5 94t89.5 39t77.5 -29t27.5 -83zM500 1239q0 -46 -38 -84.5t-87 -38.5t-79 29.5t-30 73.5q0 55 39 94t90 39q48 0 76.5 -27.5
t28.5 -85.5z" />
    <glyph glyph-name="Amacron" unicode="&#x100;" horiz-adv-x="1361" 
d="M1352 1434q0 -8 -15 -55t-42 -131.5t-46 -151.5l-235 -840q-31 -106 -31 -143q0 -29 31.5 -37t122.5 -8q14 0 22 -10.5t8 -26.5q0 -39 -30 -39q-4 0 -53 2t-116 4t-116 2q-54 0 -190 -7t-150 -7t-22.5 10t-8.5 24q0 41 31 41q106 0 137 31q21 21 53 113l107 317
q6 19 6 23q0 12 -14 12l-299 -14q-13 -1 -21.5 -7.5t-29.5 -27.5l-195 -201q-109 -113 -109 -174q0 -65 140 -65q30 0 30 -37q0 -39 -30 -39q-3 0 -51.5 2t-105.5 4t-79 2q-122 0 -232 -7t-116 -7q-31 0 -31 34q0 41 41 41q7 0 23.5 3t48 13t61.5 25q99 48 256 205
l1137 1127q30 30 61 30q21 0 36.5 -10.5t15.5 -19.5zM983 1044l-10 5l-369 -383q-24 -24 -24 -31q0 -10 10 -10l239 8q18 2 25 22zM1677 1698q0 -39 -12 -57.5t-29 -18.5q-6 0 -75.5 2t-98.5 2h-256q-123 -4 -133 -4q-31 0 -31 45q0 36 12.5 56t28.5 20q3 0 56 -2t88 -2h256
q24 0 92 3t72 3q11 0 20.5 -14t9.5 -33z" />
    <glyph glyph-name="amacron" unicode="&#x101;" horiz-adv-x="1095" 
d="M1065 911q0 -6 -8 -26.5t-25.5 -61t-27.5 -65.5l-123 -307q-93 -233 -93 -273q0 -10 7 -17t18 -7q20 0 50.5 30t55.5 64.5t47 67.5l21 32q10 10 23 10q14 0 24 -9.5t10 -20.5q0 -6 -16.5 -34t-43.5 -68t-66.5 -85t-82 -83.5t-93.5 -63.5t-97 -25q-51 0 -76.5 24t-25.5 58
q0 44 92 225l102 205l-10 6q-182 -266 -326 -392t-278 -126q-56 0 -94.5 38.5t-38.5 105.5q0 87 41 198.5t112 218.5t156 198.5t183 147.5t184 56q113 0 147 -103h6l31 93q10 28 30.5 39.5t71.5 11.5t82 -18.5t31 -43.5zM768 748q0 106 -92 106q-82 0 -191 -118.5
t-184.5 -269t-75.5 -241.5q0 -82 72 -82q55 0 169 111.5t208 259t94 234.5zM1116 1198q0 -39 -12 -57.5t-29 -18.5q-6 0 -75.5 2t-98.5 2h-256q-123 -4 -133 -4q-31 0 -31 45q0 36 12.5 56t28.5 20q3 0 56 -2t88 -2h256q24 0 91.5 3t71.5 3q11 0 21 -14t10 -33z" />
    <glyph glyph-name="Abreve" unicode="&#x102;" horiz-adv-x="1361" 
d="M1352 1434q0 -8 -15 -55t-42 -131.5t-46 -151.5l-235 -840q-31 -106 -31 -143q0 -29 31.5 -37t122.5 -8q14 0 22 -10.5t8 -26.5q0 -39 -30 -39q-4 0 -53 2t-116 4t-116 2q-54 0 -190 -7t-150 -7t-22.5 10t-8.5 24q0 41 31 41q106 0 137 31q21 21 53 113l107 317
q6 19 6 23q0 12 -14 12l-299 -14q-13 -1 -21.5 -7.5t-29.5 -27.5l-195 -201q-109 -113 -109 -174q0 -65 140 -65q30 0 30 -37q0 -39 -30 -39q-3 0 -51.5 2t-105.5 4t-79 2q-122 0 -232 -7t-116 -7q-31 0 -31 34q0 41 41 41q7 0 23.5 3t48 13t61.5 25q99 48 256 205
l1137 1127q30 30 61 30q21 0 36.5 -10.5t15.5 -19.5zM983 1044l-10 5l-369 -383q-24 -24 -24 -31q0 -10 10 -10l239 8q18 2 25 22zM1737 1810q0 -20 -16.5 -55t-51 -77t-80.5 -78.5t-112.5 -61.5t-139.5 -25q-67 0 -122 27t-87 68.5t-49.5 86.5t-17.5 85q0 51 41 51
q17 0 20 -21q14 -79 87 -121t159 -42q42 0 81.5 9t70 24t56.5 32t45.5 36.5t32.5 33.5t22 26t10 13q10 10 24 10q6 0 16.5 -7.5t10.5 -13.5z" />
    <glyph glyph-name="abreve" unicode="&#x103;" horiz-adv-x="1095" 
d="M1065 911q0 -6 -8 -26.5t-25.5 -61t-27.5 -65.5l-123 -307q-93 -233 -93 -273q0 -10 7 -17t18 -7q20 0 50.5 30t55.5 64.5t47 67.5l21 32q10 10 23 10q14 0 24 -9.5t10 -20.5q0 -6 -16.5 -34t-43.5 -68t-66.5 -85t-82 -83.5t-93.5 -63.5t-97 -25q-51 0 -76.5 24t-25.5 58
q0 44 92 225l102 205l-10 6q-182 -266 -326 -392t-278 -126q-56 0 -94.5 38.5t-38.5 105.5q0 87 41 198.5t112 218.5t156 198.5t183 147.5t184 56q113 0 147 -103h6l31 93q10 28 30.5 39.5t71.5 11.5t82 -18.5t31 -43.5zM768 748q0 106 -92 106q-82 0 -191 -118.5
t-184.5 -269t-75.5 -241.5q0 -82 72 -82q55 0 169 111.5t208 259t94 234.5zM1196 1331q0 -20 -16.5 -55t-51 -77t-80 -78.5t-112 -61.5t-139.5 -25q-67 0 -122 27t-87.5 68t-50 86t-17.5 85q0 52 41 52q18 0 21 -21q14 -79 87 -121.5t158 -42.5q42 0 81.5 9t70 24t56.5 32
t45.5 36.5t32.5 33.5t22 26t10 13q11 11 24 11q6 0 16.5 -7.5t10.5 -13.5z" />
    <glyph glyph-name="Aogonek" unicode="&#x104;" horiz-adv-x="1361" 
d="M1352 1434q0 -8 -15.5 -55.5t-42 -130.5t-45.5 -152l-235 -840q-31 -106 -31 -143q0 -29 31.5 -37t122.5 -8q14 0 22 -10.5t8 -26.5q0 -39 -30 -39q-5 0 -41 1.5t-91.5 3.5t-99.5 3q-194 -127 -194 -276q0 -37 28.5 -65t79.5 -28q70 0 127 37q17 -13 17 -37
q0 -12 -12 -33t-29 -38q-47 -47 -110 -75t-126 -28q-83 0 -133.5 46.5t-50.5 117.5q0 50 22 100t55 89.5t78 77.5t84.5 64t81.5 48q-56 -1 -176 -7.5t-135 -6.5q-14 0 -22.5 10t-8.5 24q0 41 31 41q106 0 137 31q21 21 53 113l107 317q6 19 6 23q0 12 -14 12l-299 -14
q-3 0 -5.5 -0.5t-4.5 -1t-4.5 -1.5t-4 -2t-4.5 -3.5t-4.5 -3.5t-5 -4.5t-5.5 -5t-6.5 -6.5t-6.5 -7l-195 -201q-109 -113 -109 -174q0 -65 140 -65q30 0 30 -37q0 -39 -30 -39q-3 0 -51.5 2t-105.5 4t-79 2q-122 0 -232 -7t-116 -7q-31 0 -31 34q0 41 41 41q7 0 23.5 3
t48 13t61.5 25q99 48 256 205l1137 1127q30 30 61 30q21 0 36.5 -10.5t15.5 -19.5zM983 1044l-10 5l-369 -383q-24 -24 -24 -31q0 -10 10 -10l239 8q18 2 25 22z" />
    <glyph glyph-name="aogonek" unicode="&#x105;" horiz-adv-x="1095" 
d="M1065 911q0 -6 -8 -26.5t-25.5 -61t-27.5 -65.5l-123 -307q-93 -233 -93 -273q0 -10 7 -17t18 -7q20 0 50.5 30t55.5 64.5t47 67.5l21 32q10 10 23 10q14 0 24 -9.5t10 -20.5q0 -12 -35.5 -69t-106 -136.5t-144.5 -122.5q-58 -34 -100 -73.5t-62.5 -75.5t-29.5 -65.5
t-9 -55.5q0 -41 29 -70t80 -29q70 0 127 37q16 -12 16 -37q0 -28 -41 -69q-47 -47 -110 -76t-126 -29q-83 0 -133.5 46.5t-50.5 117.5q0 54 24.5 107.5t66 98t86 79t96.5 65.5q-38 6 -58 29t-20 51q0 44 92 225l102 205l-10 6q-182 -266 -326 -392t-278 -126
q-56 0 -94.5 38.5t-38.5 105.5q0 87 41 198.5t112 218.5t156 198.5t183 147.5t184 56q113 0 147 -103h6l31 93q10 28 30.5 39.5t71.5 11.5t82 -18.5t31 -43.5zM768 748q0 106 -92 106q-82 0 -191 -118.5t-184.5 -269t-75.5 -241.5q0 -82 72 -82q55 0 169 111.5t208 259
t94 234.5z" />
    <glyph glyph-name="Cacute" unicode="&#x106;" horiz-adv-x="1372" 
d="M1434 1407q0 -4 -5.5 -19.5t-13 -45t-15 -73t-13 -119t-5.5 -167.5v-20q0 -41 -51 -41q-21 0 -31 10q-6 6 -18.5 52t-28 102t-46.5 121t-70 104q-71 71 -195 71q-119 0 -222 -72.5t-169 -187.5t-103.5 -253.5t-37.5 -274.5q0 -98 18.5 -179t56 -145.5t102 -100.5
t150.5 -36q127 0 228 54t198 151q31 31 41 31q15 0 30 -13t15 -28q0 -12 -24.5 -49.5t-77 -90.5t-121 -101.5t-170.5 -83t-211 -34.5q-155 0 -275 77.5t-183.5 210t-63.5 296.5q0 171 61 336.5t165 292t251.5 204.5t310.5 78q89 0 170 -20.5t134.5 -41t74.5 -20.5
q19 0 52 31t44 31q20 0 34 -11t14 -26zM1296 1829q0 -48 -34 -82q-4 -4 -88.5 -58t-167.5 -105l-82 -52q-10 -6 -21 -6t-22 11t-11 24q0 4 3 10t7 10l3 4q215 295 225 305q24 24 41 32.5t41 8.5q37 0 71.5 -26.5t34.5 -75.5z" />
    <glyph glyph-name="cacute" unicode="&#x107;" horiz-adv-x="788" 
d="M809 778q0 -52 -30 -85.5t-83 -33.5q-40 0 -71 26t-31 63q0 17 5 44.5t5 36.5t-10 17t-31 8q-83 0 -158 -93.5t-117 -227t-42 -257.5q0 -67 25.5 -110t76.5 -43q72 0 144 72q18 18 48.5 59t32.5 43q14 14 25 14q14 0 25.5 -8t11.5 -22t-41 -81t-82 -108
q-60 -60 -129 -91.5t-133 -31.5q-98 0 -164 64.5t-66 181.5q0 64 20 142t56 157.5t89.5 155t116.5 133.5t142 93.5t160 35.5q100 0 152.5 -46.5t52.5 -107.5zM893 1399q0 -32 -10.5 -57t-40.5 -62l-164 -209q-48 -67 -62 -67q-16 0 -28.5 9t-12.5 23l21 76l86 287
q10 39 38 65.5t71 26.5q39 0 70.5 -27.5t31.5 -64.5z" />
    <glyph glyph-name="Ccircumflex" unicode="&#x108;" horiz-adv-x="1372" 
d="M1434 1407q0 -4 -5.5 -19.5t-13 -45t-15 -73t-13 -119t-5.5 -167.5v-20q0 -41 -51 -41q-21 0 -31 10q-6 6 -18.5 52t-28 102t-46.5 121t-70 104q-71 71 -195 71q-119 0 -222 -72.5t-169 -187.5t-103.5 -253.5t-37.5 -274.5q0 -98 18.5 -179t56 -145.5t102 -100.5
t150.5 -36q127 0 228 54t198 151q31 31 41 31q15 0 30 -13t15 -28q0 -12 -24.5 -49.5t-77 -90.5t-121 -101.5t-170.5 -83t-211 -34.5q-155 0 -275 77.5t-183.5 210t-63.5 296.5q0 171 61 336.5t165 292t251.5 204.5t310.5 78q89 0 170 -20.5t134.5 -41t74.5 -20.5
q19 0 52 31t44 31q20 0 34 -11t14 -26zM1272 1964q0 -3 -12 -63.5t-31 -165.5t-33 -197q0 -14 -16 -14q-59 0 -96 12.5t-37 28.5q0 4 8 32t23 79t26 93h-6l-275 -235q-10 -10 -22 -10q-13 0 -22 9t-9 21q0 3 7 10.5t13 13.5l7 7l383 348q11 10 26 24.5t23 21t12 6.5
q12 0 21.5 -5.5t9.5 -15.5z" />
    <glyph glyph-name="ccircumflex" unicode="&#x109;" horiz-adv-x="788" 
d="M809 778q0 -52 -30 -85.5t-83 -33.5q-40 0 -71 26t-31 63q0 17 5 44.5t5 36.5t-10 17t-31 8q-83 0 -158 -93.5t-117 -227t-42 -257.5q0 -67 25.5 -110t76.5 -43q72 0 144 72q18 18 48.5 59t32.5 43q14 14 25 14q14 0 25.5 -8t11.5 -22t-41 -81t-82 -108
q-60 -60 -129 -91.5t-133 -31.5q-98 0 -164 64.5t-66 181.5q0 64 20 142t56 157.5t89.5 155t116.5 133.5t142 93.5t160 35.5q100 0 152.5 -46.5t52.5 -107.5zM874 1444q0 -3 -12 -63.5t-30.5 -165.5t-32.5 -197q0 -14 -17 -14q-59 0 -96 12t-37 28q0 4 8.5 32t23.5 79t26 94
h-7l-274 -235q-10 -10 -23 -10t-21.5 9t-8.5 21q0 3 6.5 10.5t12.5 13.5l7 7l383 348q10 9 26 24t23.5 21t12.5 6q30 0 30 -20z" />
    <glyph glyph-name="Cdotaccent" unicode="&#x10a;" horiz-adv-x="1372" 
d="M1434 1407q0 -4 -5.5 -19.5t-13 -45t-15 -73t-13 -119t-5.5 -167.5v-20q0 -41 -51 -41q-21 0 -31 10q-6 6 -18.5 52t-28 102t-46.5 121t-70 104q-71 71 -195 71q-119 0 -222 -72.5t-169 -187.5t-103.5 -253.5t-37.5 -274.5q0 -98 18.5 -179t56 -145.5t102 -100.5
t150.5 -36q127 0 228 54t198 151q31 31 41 31q15 0 30 -13t15 -28q0 -12 -24.5 -49.5t-77 -90.5t-121 -101.5t-170.5 -83t-211 -34.5q-155 0 -275 77.5t-183.5 210t-63.5 296.5q0 171 61 336.5t165 292t251.5 204.5t310.5 78q89 0 170 -20.5t134.5 -41t74.5 -20.5
q19 0 52 31t44 31q20 0 34 -11t14 -26zM1147 1739q0 -46 -39 -84.5t-88 -38.5t-79 29t-30 73q0 54 39.5 93.5t89.5 39.5q48 0 77.5 -27t29.5 -85z" />
    <glyph glyph-name="cdotaccent" unicode="&#x10b;" horiz-adv-x="788" 
d="M809 778q0 -52 -30 -85.5t-83 -33.5q-40 0 -71 26t-31 63q0 17 5 44.5t5 36.5t-10 17t-31 8q-83 0 -158 -93.5t-117 -227t-42 -257.5q0 -67 25.5 -110t76.5 -43q72 0 144 72q18 18 48.5 59t32.5 43q14 14 25 14q14 0 25.5 -8t11.5 -22t-41 -81t-82 -108
q-60 -60 -129 -91.5t-133 -31.5q-98 0 -164 64.5t-66 181.5q0 64 20 142t56 157.5t89.5 155t116.5 133.5t142 93.5t160 35.5q100 0 152.5 -46.5t52.5 -107.5zM791 1239q0 -46 -39 -84.5t-88 -38.5t-79 29.5t-30 73.5q0 55 39.5 94t89.5 39q48 0 77.5 -27.5t29.5 -85.5z" />
    <glyph glyph-name="Ccaron" unicode="&#x10c;" horiz-adv-x="1372" 
d="M1434 1407q0 -4 -5.5 -19.5t-13 -45t-15 -73t-13 -119t-5.5 -167.5v-20q0 -41 -51 -41q-21 0 -31 10q-6 6 -18.5 52t-28 102t-46.5 121t-70 104q-71 71 -195 71q-119 0 -222 -72.5t-169 -187.5t-103.5 -253.5t-37.5 -274.5q0 -98 18.5 -179t56 -145.5t102 -100.5
t150.5 -36q127 0 228 54t198 151q31 31 41 31q15 0 30 -13t15 -28q0 -12 -24.5 -49.5t-77 -90.5t-121 -101.5t-170.5 -83t-211 -34.5q-155 0 -275 77.5t-183.5 210t-63.5 296.5q0 171 61 336.5t165 292t251.5 204.5t310.5 78q89 0 170 -20.5t134.5 -41t74.5 -20.5
q19 0 52 31t44 31q20 0 34 -11t14 -26zM1409 1954q0 -3 -6.5 -10.5t-13.5 -13.5l-7 -7l-383 -348q-11 -9 -26 -24t-22.5 -21t-12.5 -6q-31 0 -31 20q0 3 12 63.5t31 165.5t33 197q0 15 27 15q52 0 87.5 -12.5t35.5 -28.5q0 -4 -8.5 -32t-23.5 -79t-26 -94h6l277 235
q11 11 20 11q15 0 23 -10.5t8 -20.5z" />
    <glyph glyph-name="ccaron" unicode="&#x10d;" horiz-adv-x="788" 
d="M809 778q0 -52 -30 -85.5t-83 -33.5q-40 0 -71 26t-31 63q0 17 5 44.5t5 36.5t-10 17t-31 8q-83 0 -158 -93.5t-117 -227t-42 -257.5q0 -67 25.5 -110t76.5 -43q72 0 144 72q18 18 48.5 59t32.5 43q14 14 25 14q14 0 25.5 -8t11.5 -22t-41 -81t-82 -108
q-60 -60 -129 -91.5t-133 -31.5q-98 0 -164 64.5t-66 181.5q0 64 20 142t56 157.5t89.5 155t116.5 133.5t142 93.5t160 35.5q100 0 152.5 -46.5t52.5 -107.5zM1032 1434q0 -3 -6.5 -10.5t-13.5 -13.5l-6 -7l-383 -348q-10 -9 -26 -24t-23.5 -21t-12.5 -6q-31 0 -31 20
q0 3 12 63.5t31 165.5t33 197q0 14 27 14q52 0 87.5 -12.5t35.5 -28.5q0 -4 -8.5 -32t-23.5 -78.5t-26 -93.5h7l276 235q10 10 20 10q15 0 23 -10t8 -20z" />
    <glyph glyph-name="Dcaron" unicode="&#x10e;" horiz-adv-x="1587" 
d="M1567 819q0 -128 -30.5 -244.5t-101.5 -225t-177 -187.5t-268.5 -126.5t-364.5 -47.5q-79 0 -197.5 6t-151.5 6q-95 0 -163.5 -3t-99 -6t-33.5 -3q-12 0 -21.5 14t-9.5 29q0 37 31 37q93 0 126 4.5t48 19.5q25 25 51 133q3 11 21 91t43.5 190.5t47.5 200.5
q18 70 60 225.5t68 258.5t26 130q0 21 -10 31q-20 20 -174 20q-14 0 -22.5 12.5t-8.5 28.5q0 15 8 25t23 10q5 0 117.5 -7t148.5 -7q41 0 169 5t169 5q145 0 269.5 -43.5t214.5 -123t141 -197.5t51 -261zM1260 860q0 145 -26.5 246t-77 155.5t-112 77.5t-143.5 23
q-58 0 -89.5 -14.5t-53.5 -57.5q-7 -14 -65.5 -233t-98.5 -381q-123 -494 -123 -543q0 -21 15.5 -35t44 -19t47 -6t47.5 -1q316 0 475.5 205.5t159.5 582.5zM1333 1933q0 -3 -6.5 -10.5t-12.5 -13.5l-7 -6l-383 -349q-10 -9 -26 -24t-23.5 -21t-12.5 -6q-12 0 -21.5 5.5
t-9.5 15.5q0 3 12 63.5t31 165.5t33 197q0 14 27 14q52 0 87.5 -12.5t35.5 -28.5q0 -4 -8.5 -32t-23.5 -79t-26 -94h7l276 236q10 10 21 10q15 0 22.5 -10.5t7.5 -20.5z" />
    <glyph glyph-name="dcaron" unicode="&#x10f;" horiz-adv-x="1443" 
d="M1239 1444q0 -4 -17 -50.5t-43 -117.5t-42 -119l-215 -655q-86 -262 -86 -318q0 -30 24 -30q26 0 88 86t76 114q4 8 14 8q17 0 29 -9t12 -21q0 -6 -19.5 -43t-57 -91t-83 -105t-105.5 -87.5t-118 -36.5q-50 0 -76 24t-26 58q0 42 13 91.5t48 154.5l66 184l-8 4
q-135 -241 -279 -378.5t-260 -137.5q-164 0 -164 174q0 90 42 199.5t113.5 211.5t156.5 188t179.5 138t174.5 52q61 0 94.5 -25.5t52.5 -87.5h6l82 287q41 139 41 164q0 20 -10 30q-14 14 -36.5 24.5t-45 18t-26.5 9.5q-15 8 -15 26q0 27 21 31q184 20 215 25
q27 4 60.5 14.5t56 18.5t26.5 8h10q14 0 22.5 -11t8.5 -20zM768 748q0 51 -30 78.5t-72 27.5q-75 0 -177.5 -104t-177.5 -250t-75 -254q0 -44 19.5 -68t51.5 -24q55 0 166.5 109t203 253.5t91.5 231.5zM1282 1298q0 63 58 111.5t128 48.5q65 0 107.5 -39t42.5 -112
q0 -72 -37 -138t-89 -107t-99 -66t-76 -29l-29 53q82 22 144.5 86.5t66.5 167.5h-6q-5 -8 -15 -20t-41 -32t-63 -20q-46 0 -69 28t-23 68z" />
    <glyph glyph-name="Dcroat" unicode="&#x110;" horiz-adv-x="1587" 
d="M1567 799q0 -119 -30.5 -230.5t-101.5 -218.5t-177 -186t-269 -127.5t-364 -48.5q-79 0 -197.5 6t-151.5 6q-95 0 -163.5 -3t-99 -6t-33.5 -3q-14 0 -22.5 13.5t-8.5 33.5q0 33 31 33q87 0 123 4.5t51 19.5q25 25 51 133q3 11 21 91t43.5 190.5t47.5 200.5l33 122
q-37 0 -78.5 -2.5t-68.5 -5t-29 -2.5q-14 0 -22.5 14t-8.5 31q0 47 31 47q1 0 70.5 -5t124.5 -5q102 383 102 420q0 21 -10 31q-20 20 -174 20q-14 0 -22.5 12.5t-8.5 28.5q0 15 8 25t23 10q5 0 117.5 -7t148.5 -7q41 0 169 5t169 5q147 0 270 -42.5t213.5 -122t141.5 -203
t51 -277.5zM1260 870q0 114 -19 200.5t-51.5 141t-80.5 89t-100.5 48t-117.5 13.5q-50 0 -80.5 -14.5t-52.5 -57.5q-16 -31 -107 -389q20 0 114.5 6t98.5 6q9 0 18 -11t9 -32t-9 -36t-28 -15q-2 0 -96 5t-125 5l-39 -153q-38 -154 -80.5 -341t-42.5 -202q0 -21 10 -31
q30 -30 144 -30q216 0 359.5 98t209.5 273.5t66 426.5z" />
    <glyph glyph-name="dcroat" unicode="&#x111;" horiz-adv-x="1136" 
d="M1239 1444q0 -4 -17 -50.5t-43 -117.5t-42 -119l-4 -10l182 12q9 0 17.5 -11t8.5 -32q0 -51 -36 -51q-4 0 -39 2t-81 4.5t-75 3.5l-188 -573q-86 -262 -86 -318q0 -30 24 -30q26 0 88 86t76 114q4 8 14 8q17 0 29 -9t12 -21q0 -6 -19.5 -43t-57 -91t-83 -105
t-105.5 -87.5t-118 -36.5q-50 0 -76 24t-26 58q0 42 13 91.5t48 154.5l66 184l-8 4q-135 -241 -279 -378.5t-260 -137.5q-164 0 -164 174q0 90 42 199.5t113.5 211.5t156.5 188t179.5 138t174.5 52q61 0 94.5 -25.5t52.5 -87.5h6l72 252l-276 -6q-14 0 -22.5 14t-8.5 31
q0 47 31 47l299 -8q28 110 28 121q0 20 -10 30q-14 14 -36.5 24.5t-45 18t-26.5 9.5q-15 8 -15 26q0 27 21 31q184 20 215 25q27 4 60.5 14.5t56 18.5t26.5 8h10q14 0 22.5 -11t8.5 -20zM768 748q0 51 -30 78.5t-72 27.5q-75 0 -177.5 -104t-177.5 -250t-75 -254
q0 -44 19.5 -68t51.5 -24q55 0 166.5 109t203 253.5t91.5 231.5z" />
    <glyph glyph-name="Emacron" unicode="&#x112;" horiz-adv-x="1433" 
d="M1434 1106q0 -12 -14 -21.5t-34 -9.5q-19 0 -40 21q-12 12 -92.5 100t-96.5 104q-37 37 -77 47.5t-128 10.5h-61q-80 0 -103 -23q-25 -25 -51 -127l-94 -374q-6 -29 -6 -31q0 -5 0.5 -7.5t5 -5t12.5 -2.5h52q96 0 156 16t100 56q50 50 92 137q15 31 35 31q18 0 27 -7.5
t9 -16.5q0 -8 -16 -45t-38 -94.5t-34 -106.5q-27 -114 -49 -277q-3 -30 -37 -30q-30 0 -30 30q0 80 -7.5 124.5t-29.5 66.5q-21 21 -56 31.5t-62 12t-81 1.5h-47q-26 0 -35 -35l-112 -446q-21 -87 -21 -130q0 -30 72 -30h297q59 0 101.5 19t82.5 59q74 74 195 165t163 91
q19 0 30 -15.5t11 -32.5q0 -5 -25 -30t-54.5 -57t-54.5 -87.5t-25 -115.5q0 -17 5 -34.5t5 -23.5q0 -10 -8 -17t-19 -7q-3 0 -47 2.5t-111 5t-126 2.5h-666q-50 0 -119.5 -3t-120.5 -6t-57 -3q-14 0 -22.5 11.5t-8.5 27.5t7.5 27.5t19.5 11.5q132 0 158 26t51 133l246 973
q24 102 24 123q0 32 -27 38.5t-120 6.5q-13 0 -22 11t-9 26q0 37 31 37q4 0 93 -3t193 -3h492q81 0 142.5 2.5t90.5 5t33 2.5q21 0 21 -25q0 -4 -10.5 -29t-10.5 -49q0 -43 31 -137t31 -98zM1257 1698q0 -76 -40 -76q-6 0 -76 2t-99 2h-256q-123 -4 -133 -4q-30 0 -30 45
q0 36 12.5 56t28.5 20q3 0 55.5 -2t87.5 -2h256q24 0 92 3t72 3q11 0 20.5 -14t9.5 -33z" />
    <glyph glyph-name="emacron" unicode="&#x113;" horiz-adv-x="819" 
d="M799 768q0 -67 -38 -123t-96 -91.5t-132.5 -61t-140 -37.5t-126.5 -15q-14 -71 -14 -153q0 -77 33 -120.5t94 -43.5q38 0 77 18.5t68 47t51.5 55.5t37.5 49.5t16 23.5q11 11 20 11q13 0 25 -8.5t12 -22.5q0 -15 -45 -85.5t-94 -119.5q-123 -123 -281 -123
q-104 0 -169.5 63.5t-65.5 182.5q0 107 49 233t127 233t187.5 179t219.5 72q89 0 137 -46t48 -118zM635 788q0 76 -72 76q-68 0 -157 -119.5t-127 -252.5q76 12 138 38t101.5 57.5t66.5 68.5t38.5 70t11.5 62zM961 1198q0 -39 -12 -57.5t-29 -18.5q-6 0 -76 2t-99 2h-256
q-123 -4 -133 -4q-30 0 -30 45q0 36 12.5 56t28.5 20q3 0 55.5 -2t87.5 -2h256q24 0 92 3t72 3q11 0 21 -14t10 -33z" />
    <glyph glyph-name="Ebreve" unicode="&#x114;" horiz-adv-x="1433" 
d="M1434 1106q0 -12 -14 -21.5t-34 -9.5q-19 0 -40 21q-12 12 -92.5 100t-96.5 104q-37 37 -77 47.5t-128 10.5h-61q-80 0 -103 -23q-25 -25 -51 -127l-94 -374q-6 -29 -6 -31q0 -5 0.5 -7.5t5 -5t12.5 -2.5h52q96 0 156 16t100 56q50 50 92 137q15 31 35 31q18 0 27 -7.5
t9 -16.5q0 -8 -16 -45t-38 -94.5t-34 -106.5q-27 -114 -49 -277q-3 -30 -37 -30q-30 0 -30 30q0 80 -7.5 124.5t-29.5 66.5q-21 21 -56 31.5t-62 12t-81 1.5h-47q-26 0 -35 -35l-112 -446q-21 -87 -21 -130q0 -30 72 -30h297q59 0 101.5 19t82.5 59q74 74 195 165t163 91
q19 0 30 -15.5t11 -32.5q0 -5 -25 -30t-54.5 -57t-54.5 -87.5t-25 -115.5q0 -17 5 -34.5t5 -23.5q0 -10 -8 -17t-19 -7q-3 0 -47 2.5t-111 5t-126 2.5h-666q-50 0 -119.5 -3t-120.5 -6t-57 -3q-14 0 -22.5 11.5t-8.5 27.5t7.5 27.5t19.5 11.5q132 0 158 26t51 133l246 973
q24 102 24 123q0 32 -27 38.5t-120 6.5q-13 0 -22 11t-9 26q0 37 31 37q4 0 93 -3t193 -3h492q81 0 142.5 2.5t90.5 5t33 2.5q21 0 21 -25q0 -4 -10.5 -29t-10.5 -49q0 -43 31 -137t31 -98zM1317 1810q0 -20 -16.5 -55t-51 -77t-80 -78.5t-112 -61.5t-139.5 -25
q-67 0 -122 27t-87.5 68.5t-50 86.5t-17.5 85q0 51 41 51q17 0 20 -21q14 -79 87 -121t159 -42q42 0 81.5 9t70 24t56.5 32t45.5 36.5t32.5 33.5t22 26t10 13q10 10 24 10q6 0 16.5 -7.5t10.5 -13.5z" />
    <glyph glyph-name="ebreve" unicode="&#x115;" horiz-adv-x="819" 
d="M799 768q0 -67 -38 -123t-96 -91.5t-132.5 -61t-140 -37.5t-126.5 -15q-14 -71 -14 -153q0 -77 33 -120.5t94 -43.5q38 0 77 18.5t68 47t51.5 55.5t37.5 49.5t16 23.5q11 11 20 11q13 0 25 -8.5t12 -22.5q0 -15 -45 -85.5t-94 -119.5q-123 -123 -281 -123
q-104 0 -169.5 63.5t-65.5 182.5q0 107 49 233t127 233t187.5 179t219.5 72q89 0 137 -46t48 -118zM635 788q0 76 -72 76q-68 0 -157 -119.5t-127 -252.5q76 12 138 38t101.5 57.5t66.5 68.5t38.5 70t11.5 62zM1020 1311q0 -20 -16.5 -55t-51 -77t-80 -78.5t-112 -61.5
t-139.5 -25q-67 0 -122 27t-87.5 68t-50 86t-17.5 85q0 51 41 51q19 0 21 -20q14 -79 87 -121.5t158 -42.5q42 0 81.5 9t70 24t56.5 32t45.5 36.5t32.5 33.5t22 26t10 13q10 10 24 10q6 0 16.5 -7t10.5 -13z" />
    <glyph glyph-name="Edotaccent" unicode="&#x116;" horiz-adv-x="1433" 
d="M1434 1106q0 -12 -14 -21.5t-34 -9.5q-19 0 -40 21q-12 12 -92.5 100t-96.5 104q-37 37 -77 47.5t-128 10.5h-61q-80 0 -103 -23q-25 -25 -51 -127l-94 -374q-6 -29 -6 -31q0 -5 0.5 -7.5t5 -5t12.5 -2.5h52q96 0 156 16t100 56q50 50 92 137q15 31 35 31q18 0 27 -7.5
t9 -16.5q0 -8 -16 -45t-38 -94.5t-34 -106.5q-27 -114 -49 -277q-3 -30 -37 -30q-30 0 -30 30q0 80 -7.5 124.5t-29.5 66.5q-21 21 -56 31.5t-62 12t-81 1.5h-47q-26 0 -35 -35l-112 -446q-21 -87 -21 -130q0 -30 72 -30h297q59 0 101.5 19t82.5 59q74 74 195 165t163 91
q19 0 30 -15.5t11 -32.5q0 -5 -25 -30t-54.5 -57t-54.5 -87.5t-25 -115.5q0 -17 5 -34.5t5 -23.5q0 -10 -8 -17t-19 -7q-3 0 -47 2.5t-111 5t-126 2.5h-666q-50 0 -119.5 -3t-120.5 -6t-57 -3q-14 0 -22.5 11.5t-8.5 27.5t7.5 27.5t19.5 11.5q132 0 158 26t51 133l246 973
q24 102 24 123q0 32 -27 38.5t-120 6.5q-13 0 -22 11t-9 26q0 37 31 37q4 0 93 -3t193 -3h492q81 0 142.5 2.5t90.5 5t33 2.5q21 0 21 -25q0 -4 -10.5 -29t-10.5 -49q0 -43 31 -137t31 -98zM1102 1739q0 -46 -39 -84.5t-88 -38.5t-79 29t-30 73q0 54 39 93.5t90 39.5
q48 0 77.5 -27t29.5 -85z" />
    <glyph glyph-name="edotaccent" unicode="&#x117;" horiz-adv-x="819" 
d="M799 768q0 -67 -38 -123t-96 -91.5t-132.5 -61t-140 -37.5t-126.5 -15q-14 -71 -14 -153q0 -77 33 -120.5t94 -43.5q38 0 77 18.5t68 47t51.5 55.5t37.5 49.5t16 23.5q11 11 20 11q13 0 25 -8.5t12 -22.5q0 -15 -45 -85.5t-94 -119.5q-123 -123 -281 -123
q-104 0 -169.5 63.5t-65.5 182.5q0 107 49 233t127 233t187.5 179t219.5 72q89 0 137 -46t48 -118zM635 788q0 76 -72 76q-68 0 -157 -119.5t-127 -252.5q76 12 138 38t101.5 57.5t66.5 68.5t38.5 70t11.5 62zM805 1239q0 -46 -39 -84.5t-88 -38.5t-79 29.5t-30 73.5
q0 55 39.5 94t89.5 39q48 0 77.5 -27.5t29.5 -85.5z" />
    <glyph glyph-name="Eogonek" unicode="&#x118;" horiz-adv-x="1433" 
d="M1434 1106q0 -12 -14 -21.5t-34 -9.5q-19 0 -40 21q-12 12 -92.5 100t-96.5 104q-37 37 -77 47.5t-128 10.5h-61q-80 0 -103 -23q-25 -25 -51 -127l-94 -374q-6 -29 -6 -31q0 -5 0.5 -7.5t5 -5t12.5 -2.5h52q96 0 156 16t100 56q50 50 92 137q15 31 35 31q18 0 27 -7.5
t9 -16.5q0 -8 -16 -45t-38 -94.5t-34 -106.5q-27 -114 -49 -277q-3 -30 -37 -30q-30 0 -30 30q0 80 -7.5 124.5t-29.5 66.5q-21 21 -56 31.5t-62 12t-81 1.5h-47q-26 0 -35 -35l-112 -446q-21 -87 -21 -130q0 -30 72 -30h297q59 0 101.5 19t82.5 59q74 74 195 165t163 91
q19 0 30 -15.5t11 -32.5q0 -5 -25 -30t-54.5 -57t-54.5 -87.5t-25 -115.5q0 -17 5 -34.5t5 -23.5q0 -10 -8 -17t-19 -7q-3 0 -47 2.5t-111 5t-126 2.5h-58q-194 -127 -194 -276q0 -37 28.5 -65t79.5 -28q70 0 127 37q17 -13 17 -37q0 -12 -12 -33t-29 -38q-47 -47 -110 -75
t-126 -28q-83 0 -133.5 46.5t-50.5 117.5q0 50 22 100t55 89.5t78 77.5t84.5 64t81.5 48h-526q-50 0 -119.5 -3t-120.5 -6t-57 -3q-14 0 -22.5 11.5t-8.5 27.5t7.5 27.5t19.5 11.5q132 0 158 26q23 23 51 133l246 973q24 102 24 123q0 32 -27 38.5t-120 6.5q-13 0 -22 11
t-9 26q0 37 31 37q4 0 93 -3t193 -3h492q81 0 142.5 2.5t90.5 5t33 2.5q21 0 21 -25q0 -4 -10.5 -29t-10.5 -49q0 -43 31 -137t31 -98z" />
    <glyph glyph-name="eogonek" unicode="&#x119;" horiz-adv-x="819" 
d="M799 768q0 -67 -38 -123t-96 -91.5t-132.5 -61t-140 -37.5t-126.5 -15q-14 -71 -14 -153q0 -77 33 -120.5t94 -43.5q38 0 77 18.5t68 47t51.5 55.5t37.5 49.5t16 23.5q11 11 20 11q13 0 25 -8.5t12 -22.5q0 -15 -45 -85.5t-94 -119.5q-34 -34 -76 -61q-77 -51 -126.5 -97
t-70.5 -85t-27.5 -65.5t-6.5 -59.5q0 -37 28.5 -65t79.5 -28q70 0 127 37q17 -13 17 -37q0 -12 -12 -33t-29 -38q-47 -47 -110 -75t-126 -28q-83 0 -133.5 46.5t-50.5 117.5q0 54 24.5 107.5t67 98t86 79t94.5 65.5q-27 -2 -37 -2q-104 0 -169.5 63.5t-65.5 182.5
q0 107 49 233t127 233t187.5 179t219.5 72q89 0 137 -46t48 -118zM635 788q0 76 -72 76q-68 0 -157 -119.5t-127 -252.5q76 12 138 38t101.5 57.5t66.5 68.5t38.5 70t11.5 62z" />
    <glyph glyph-name="Ecaron" unicode="&#x11a;" horiz-adv-x="1433" 
d="M1434 1106q0 -12 -14 -21.5t-34 -9.5q-19 0 -40 21q-12 12 -92.5 100t-96.5 104q-37 37 -77 47.5t-128 10.5h-61q-80 0 -103 -23q-25 -25 -51 -127l-94 -374q-6 -29 -6 -31q0 -5 0.5 -7.5t5 -5t12.5 -2.5h52q96 0 156 16t100 56q50 50 92 137q15 31 35 31q18 0 27 -7.5
t9 -16.5q0 -8 -16 -45t-38 -94.5t-34 -106.5q-27 -114 -49 -277q-3 -30 -37 -30q-30 0 -30 30q0 80 -7.5 124.5t-29.5 66.5q-21 21 -56 31.5t-62 12t-81 1.5h-47q-26 0 -35 -35l-112 -446q-21 -87 -21 -130q0 -30 72 -30h297q59 0 101.5 19t82.5 59q74 74 195 165t163 91
q19 0 30 -15.5t11 -32.5q0 -5 -25 -30t-54.5 -57t-54.5 -87.5t-25 -115.5q0 -17 5 -34.5t5 -23.5q0 -10 -8 -17t-19 -7q-3 0 -47 2.5t-111 5t-126 2.5h-666q-50 0 -119.5 -3t-120.5 -6t-57 -3q-14 0 -22.5 11.5t-8.5 27.5t7.5 27.5t19.5 11.5q132 0 158 26t51 133l246 973
q24 102 24 123q0 32 -27 38.5t-120 6.5q-13 0 -22 11t-9 26q0 37 31 37q4 0 93 -3t193 -3h492q81 0 142.5 2.5t90.5 5t33 2.5q21 0 21 -25q0 -4 -10.5 -29t-10.5 -49q0 -43 31 -137t31 -98zM1343 1933q0 -3 -6.5 -10.5t-12.5 -13.5l-7 -6l-383 -349q-10 -9 -26 -24
t-23.5 -21t-12.5 -6q-12 0 -21 5.5t-9 15.5q0 3 12 63.5t31 165.5t33 197q0 14 26 14q52 0 87.5 -12.5t35.5 -28.5q0 -4 -8 -32t-23 -79.5t-26 -93.5h6l276 236q10 10 21 10q15 0 22.5 -10.5t7.5 -20.5z" />
    <glyph glyph-name="ecaron" unicode="&#x11b;" horiz-adv-x="819" 
d="M799 768q0 -67 -38 -123t-96 -91.5t-132.5 -61t-140 -37.5t-126.5 -15q-14 -71 -14 -153q0 -77 33 -120.5t94 -43.5q38 0 77 18.5t68 47t51.5 55.5t37.5 49.5t16 23.5q11 11 20 11q13 0 25 -8.5t12 -22.5q0 -15 -45 -85.5t-94 -119.5q-123 -123 -281 -123
q-104 0 -169.5 63.5t-65.5 182.5q0 107 49 233t127 233t187.5 179t219.5 72q89 0 137 -46t48 -118zM635 788q0 76 -72 76q-68 0 -157 -119.5t-127 -252.5q76 12 138 38t101.5 57.5t66.5 68.5t38.5 70t11.5 62zM1047 1434q0 -3 -6.5 -10.5t-13.5 -13.5l-7 -7l-383 -348
q-10 -9 -26 -24t-23.5 -21t-12.5 -6q-30 0 -30 20q0 3 12 63.5t31 165.5t33 197q0 14 26 14q52 0 87.5 -12.5t35.5 -28.5q0 -4 -8 -32t-23 -79t-26 -93h6l276 235q10 10 21 10q15 0 23 -10t8 -20z" />
    <glyph glyph-name="Gcircumflex" unicode="&#x11c;" horiz-adv-x="1484" 
d="M1546 573q0 -41 -30 -41q-71 0 -103.5 -6t-50.5 -24q-14 -14 -37 -123l-65 -311q-8 -39 -20.5 -55.5t-41.5 -16.5q-13 0 -49 32.5t-64 32.5q-31 0 -86.5 -23t-134.5 -46t-168 -23q-165 0 -297 83.5t-204 226t-72 315.5q0 168 59 326t161.5 278.5t251 193t316.5 72.5
q89 0 170 -18t134.5 -35.5t74.5 -17.5q22 0 54 28.5t42 28.5q17 0 32.5 -8.5t15.5 -22.5q0 -5 -10 -50t-20.5 -136.5t-10.5 -208.5v-41q0 -41 -52 -41q-19 0 -30 21q-1 3 -14 43.5t-29 85.5t-49 102t-72 96q-92 92 -246 92q-112 0 -207 -72.5t-155.5 -187.5t-94.5 -253
t-34 -275q0 -108 18.5 -198.5t57.5 -163.5t106 -114.5t156 -41.5q178 0 256 78q27 27 40 102l21 102q20 102 20 123q0 15 -10 25q-14 14 -133 14q-13 0 -22 11t-9 26q0 43 31 43q61 -6 225 -6q68 0 193.5 7t155.5 7t30 -35zM1225 1964q0 -3 -12 -63.5t-31 -165.5t-33 -197
q0 -14 -16 -14q-59 0 -96.5 12.5t-37.5 28.5q0 4 8.5 32t23.5 78.5t26 93.5h-6l-275 -235q-10 -10 -22 -10q-13 0 -22 9t-9 21q0 3 6.5 10.5t13.5 13.5l7 7l383 348q11 10 26 24.5t23 21t12 6.5q12 0 21.5 -5.5t9.5 -15.5z" />
    <glyph glyph-name="gcircumflex" unicode="&#x11d;" horiz-adv-x="952" 
d="M1024 850q0 -52 -32.5 -82.5t-80.5 -30.5q-41 0 -121 49.5t-104 57.5l-4 -4q47 -43 79 -102.5t32 -123.5q0 -92 -47.5 -178.5t-135 -143t-190.5 -56.5q-27 0 -96 8t-88 8q-26 0 -44 -16.5t-18 -51.5q0 -39 37.5 -62.5t97 -34.5t131.5 -20t144 -25.5t131.5 -44.5t97 -84.5
t37.5 -137.5q0 -85 -48 -152t-127 -106t-170.5 -59.5t-187.5 -20.5q-211 0 -320.5 62.5t-109.5 172.5q0 76 70 148.5t207 111.5v7q-2 2 -26 17.5t-30 20t-25.5 20.5t-26 27.5t-17.5 30.5t-15 40.5t-4 47.5q0 72 47.5 116t106.5 44q14 0 32 -2t29 -4l11 -2v6
q-44 17 -88.5 83.5t-44.5 137.5q0 163 115 286.5t274 123.5q66 0 160 -31t106 -31q13 0 29.5 16t30.5 35.5t36.5 35.5t46.5 16q48 0 80.5 -32t32.5 -91zM584 666q0 104 -20 151t-72 47q-58 0 -98 -57.5t-56 -134t-16 -160.5q0 -107 18.5 -156t69.5 -49q47 0 82.5 33.5
t54.5 89t28 114.5t9 122zM655 -297q0 195 -399 195q-55 0 -104.5 -53.5t-49.5 -151.5q0 -99 64.5 -147t171.5 -48q149 0 233 58.5t84 146.5zM811 1444q0 -3 -12 -63.5t-31 -165.5t-33 -197q0 -14 -16 -14q-59 0 -96 12t-37 28q0 4 8 32t23 79.5t26 93.5h-6l-275 -235
q-10 -10 -22 -10q-13 0 -22 9t-9 21q0 3 6.5 10.5t13.5 13.5l7 7l383 348q11 9 26 24t22.5 21t12.5 6q31 0 31 -20z" />
    <glyph glyph-name="Gbreve" unicode="&#x11e;" horiz-adv-x="1484" 
d="M1546 573q0 -41 -30 -41q-71 0 -103.5 -6t-50.5 -24q-14 -14 -37 -123l-65 -311q-8 -39 -20.5 -55.5t-41.5 -16.5q-13 0 -49 32.5t-64 32.5q-31 0 -86.5 -23t-134.5 -46t-168 -23q-165 0 -297 83.5t-204 226t-72 315.5q0 168 59 326t161.5 278.5t251 193t316.5 72.5
q89 0 170 -18t134.5 -35.5t74.5 -17.5q22 0 54 28.5t42 28.5q17 0 32.5 -8.5t15.5 -22.5q0 -5 -10 -50t-20.5 -136.5t-10.5 -208.5v-41q0 -41 -52 -41q-19 0 -30 21q-1 3 -14 43.5t-29 85.5t-49 102t-72 96q-92 92 -246 92q-112 0 -207 -72.5t-155.5 -187.5t-94.5 -253
t-34 -275q0 -108 18.5 -198.5t57.5 -163.5t106 -114.5t156 -41.5q178 0 256 78q27 27 40 102l21 102q20 102 20 123q0 15 -10 25q-14 14 -133 14q-13 0 -22 11t-9 26q0 43 31 43q61 -6 225 -6q68 0 193.5 7t155.5 7t30 -35zM1346 1831q0 -20 -16.5 -55t-51 -77t-80.5 -78.5
t-112.5 -61.5t-139.5 -25q-67 0 -122 27t-87 68t-49.5 86t-17.5 85q0 51 41 51q17 0 20 -20q14 -79 87 -121.5t159 -42.5q42 0 81.5 9t69.5 24t56 32t45.5 36.5t32.5 33.5t22 26t10 13q10 10 25 10q6 0 16.5 -7t10.5 -13z" />
    <glyph glyph-name="gbreve" unicode="&#x11f;" horiz-adv-x="952" 
d="M1024 850q0 -52 -32.5 -82.5t-80.5 -30.5q-41 0 -121 49.5t-104 57.5l-4 -4q47 -43 79 -102.5t32 -123.5q0 -92 -47.5 -178.5t-135 -143t-190.5 -56.5q-27 0 -96 8t-88 8q-26 0 -44 -16.5t-18 -51.5q0 -39 37.5 -62.5t97 -34.5t131.5 -20t144 -25.5t131.5 -44.5t97 -84.5
t37.5 -137.5q0 -85 -48 -152t-127 -106t-170.5 -59.5t-187.5 -20.5q-211 0 -320.5 62.5t-109.5 172.5q0 76 70 148.5t207 111.5v7q-2 2 -26 17.5t-30 20t-25.5 20.5t-26 27.5t-17.5 30.5t-15 40.5t-4 47.5q0 72 47.5 116t106.5 44q14 0 32 -2t29 -4l11 -2v6
q-44 17 -88.5 83.5t-44.5 137.5q0 163 115 286.5t274 123.5q66 0 160 -31t106 -31q13 0 29.5 16t30.5 35.5t36.5 35.5t46.5 16q48 0 80.5 -32t32.5 -91zM584 666q0 104 -20 151t-72 47q-58 0 -98 -57.5t-56 -134t-16 -160.5q0 -107 18.5 -156t69.5 -49q47 0 82.5 33.5
t54.5 89t28 114.5t9 122zM655 -297q0 195 -399 195q-55 0 -104.5 -53.5t-49.5 -151.5q0 -99 64.5 -147t171.5 -48q149 0 233 58.5t84 146.5zM942 1311q0 -20 -16.5 -55t-51 -77t-80 -78.5t-112 -61.5t-139.5 -25q-67 0 -122 27t-87.5 68t-50 86t-17.5 85q0 51 41 51
q19 0 21 -20q14 -79 87 -121.5t158 -42.5q42 0 81.5 9t70 24t56.5 32t45.5 36.5t32.5 33.5t22 26t10 13q10 10 24 10q6 0 16.5 -7t10.5 -13z" />
    <glyph glyph-name="Gdotaccent" unicode="&#x120;" horiz-adv-x="1484" 
d="M1546 573q0 -41 -30 -41q-71 0 -103.5 -6t-50.5 -24q-14 -14 -37 -123l-65 -311q-8 -39 -20.5 -55.5t-41.5 -16.5q-13 0 -49 32.5t-64 32.5q-31 0 -86.5 -23t-134.5 -46t-168 -23q-165 0 -297 83.5t-204 226t-72 315.5q0 168 59 326t161.5 278.5t251 193t316.5 72.5
q89 0 170 -18t134.5 -35.5t74.5 -17.5q22 0 54 28.5t42 28.5q17 0 32.5 -8.5t15.5 -22.5q0 -5 -10 -50t-20.5 -136.5t-10.5 -208.5v-41q0 -41 -52 -41q-19 0 -30 21q-1 3 -14 43.5t-29 85.5t-49 102t-72 96q-92 92 -246 92q-112 0 -207 -72.5t-155.5 -187.5t-94.5 -253
t-34 -275q0 -108 18.5 -198.5t57.5 -163.5t106 -114.5t156 -41.5q178 0 256 78q27 27 40 102l21 102q20 102 20 123q0 15 -10 25q-14 14 -133 14q-13 0 -22 11t-9 26q0 43 31 43q61 -6 225 -6q68 0 193.5 7t155.5 7t30 -35zM1130 1739q0 -46 -38.5 -84.5t-87.5 -38.5t-79 29
t-30 73q0 54 39.5 93.5t89.5 39.5q48 0 77 -27t29 -85z" />
    <glyph glyph-name="gdotaccent" unicode="&#x121;" horiz-adv-x="952" 
d="M1024 850q0 -52 -32.5 -82.5t-80.5 -30.5q-41 0 -121 49.5t-104 57.5l-4 -4q47 -43 79 -102.5t32 -123.5q0 -92 -47.5 -178.5t-135 -143t-190.5 -56.5q-27 0 -96 8t-88 8q-26 0 -44 -16.5t-18 -51.5q0 -39 37.5 -62.5t97 -34.5t131.5 -20t144 -25.5t131.5 -44.5t97 -84.5
t37.5 -137.5q0 -85 -48 -152t-127 -106t-170.5 -59.5t-187.5 -20.5q-211 0 -320.5 62.5t-109.5 172.5q0 76 70 148.5t207 111.5v7q-2 2 -26 17.5t-30 20t-25.5 20.5t-26 27.5t-17.5 30.5t-15 40.5t-4 47.5q0 72 47.5 116t106.5 44q14 0 32 -2t29 -4l11 -2v6
q-44 17 -88.5 83.5t-44.5 137.5q0 163 115 286.5t274 123.5q66 0 160 -31t106 -31q13 0 29.5 16t30.5 35.5t36.5 35.5t46.5 16q48 0 80.5 -32t32.5 -91zM584 666q0 104 -20 151t-72 47q-58 0 -98 -57.5t-56 -134t-16 -160.5q0 -107 18.5 -156t69.5 -49q47 0 82.5 33.5
t54.5 89t28 114.5t9 122zM655 -297q0 195 -399 195q-55 0 -104.5 -53.5t-49.5 -151.5q0 -99 64.5 -147t171.5 -48q149 0 233 58.5t84 146.5zM727 1239q0 -46 -39 -84.5t-88 -38.5q-48 0 -78 29.5t-30 73.5q0 55 39 94t90 39q48 0 77 -27.5t29 -85.5z" />
    <glyph glyph-name="Gcommaaccent" unicode="&#x122;" horiz-adv-x="1484" 
d="M1546 573q0 -41 -30 -41q-71 0 -103.5 -6t-50.5 -24q-14 -14 -37 -123l-65 -311q-8 -39 -20.5 -55.5t-41.5 -16.5q-13 0 -49 32.5t-64 32.5q-31 0 -86.5 -23t-134.5 -46t-168 -23q-165 0 -297 83.5t-204 226t-72 315.5q0 168 59 326t161.5 278.5t251 193t316.5 72.5
q89 0 170 -18t134.5 -35.5t74.5 -17.5q22 0 54 28.5t42 28.5q17 0 32.5 -8.5t15.5 -22.5q0 -5 -10 -50t-20.5 -136.5t-10.5 -208.5v-41q0 -41 -52 -41q-19 0 -30 21q-1 3 -14 43.5t-29 85.5t-49 102t-72 96q-92 92 -246 92q-112 0 -207 -72.5t-155.5 -187.5t-94.5 -253
t-34 -275q0 -108 18.5 -198.5t57.5 -163.5t106 -114.5t156 -41.5q178 0 256 78q27 27 40 102l21 102q20 102 20 123q0 15 -10 25q-14 14 -133 14q-13 0 -22 11t-9 26q0 43 31 43q61 -6 225 -6q68 0 193.5 7t155.5 7t30 -35zM512 -309q0 63 58 111t128 48q65 0 107.5 -39
t42.5 -112q0 -72 -37 -138t-89 -107t-99 -66t-76 -29l-29 53q82 22 144.5 86.5t66.5 167.5h-6q-5 -8 -15 -20t-41 -32t-63 -20q-46 0 -69 28.5t-23 68.5z" />
    <glyph glyph-name="gcommaaccent" unicode="&#x123;" horiz-adv-x="952" 
d="M686 1145q0 -48 -38.5 -84.5t-100.5 -36.5q-73 0 -119.5 50t-46.5 116q0 59 28.5 111.5t71.5 86t90.5 53t87.5 19.5q6 0 12.5 -6.5t6.5 -15.5q0 -13 -10 -13q-1 -1 -17.5 -8.5t-33.5 -16t-39 -27t-39 -40.5t-29 -56.5t-12 -74.5h4q3 5 9 13t29 21t50 13q44 0 70 -30
t26 -74zM1024 850q0 -52 -32.5 -82.5t-80.5 -30.5q-41 0 -121 49.5t-104 57.5l-4 -4q47 -43 79 -102.5t32 -123.5q0 -92 -47.5 -178.5t-135 -143t-190.5 -56.5q-27 0 -96 8t-88 8q-26 0 -44 -16.5t-18 -51.5q0 -39 37.5 -62.5t97 -34.5t131.5 -20t144 -25.5t131.5 -44.5
t97 -84.5t37.5 -137.5q0 -85 -48 -152t-127 -106t-170.5 -59.5t-187.5 -20.5q-211 0 -320.5 62.5t-109.5 172.5q0 76 70 148.5t207 111.5v7q-2 2 -26 17.5t-30 20t-25.5 20.5t-26 27.5t-17.5 30.5t-15 40.5t-4 47.5q0 72 47.5 116t106.5 44q14 0 32 -2t29 -4l11 -2v6
q-44 17 -88.5 83.5t-44.5 137.5q0 163 115 286.5t274 123.5q66 0 160 -31t106 -31q13 0 29.5 16t30.5 35.5t36.5 35.5t46.5 16q48 0 80.5 -32t32.5 -91zM584 666q0 104 -20 151t-72 47q-58 0 -98 -57.5t-56 -134t-16 -160.5q0 -107 18.5 -156t69.5 -49q47 0 82.5 33.5
t54.5 89t28 114.5t9 122zM655 -297q0 195 -399 195q-55 0 -104.5 -53.5t-49.5 -151.5q0 -99 64.5 -147t171.5 -48q149 0 233 58.5t84 146.5z" />
    <glyph glyph-name="Hcircumflex" unicode="&#x124;" horiz-adv-x="1669" 
d="M1802 1409q0 -41 -30 -41q-118 0 -134 -16q-18 -18 -51 -144l-235 -972q-21 -85 -21 -123q0 -29 30.5 -37t115.5 -8q28 0 28 -39t-30 -39q-15 0 -132 5t-169 5q-48 0 -178.5 -4t-141.5 -4q-10 0 -17.5 11t-7.5 24q0 18 9 29.5t22 11.5q82 0 110 4t44 20q27 27 51 133
l109 451q1 4 2.5 10.5t2.5 11t1 7.5q0 8 -13 8h-563q-11 0 -15.5 -8.5t-10.5 -28.5l-107 -440q-20 -81 -20 -130q0 -25 26 -31.5t107 -6.5q26 0 26 -37q0 -15 -6.5 -27t-19.5 -12q-17 0 -123 4t-164 4q-67 0 -184.5 -5t-122.5 -5q-13 0 -22 10.5t-9 28.5q0 39 31 39
q65 0 96 4t47 20q27 27 51 133l236 983q18 78 18 117q0 15 -10 25q-11 11 -34.5 13.5t-82.5 2.5q-26 0 -26 37q0 39 28 39q14 0 116.5 -4t154.5 -4q59 0 179.5 5t133.5 5q9 0 17 -9t8 -26q0 -18 -9.5 -30.5t-21.5 -12.5q-73 0 -96 -3t-37 -17q-25 -25 -51 -138l-93 -379
q-1 -4 -2 -9.5t-1.5 -8.5t-0.5 -6q0 -10 21 -10h547q12 0 18 3t7.5 7t4.5 14l92 389q17 74 17 119q0 15 -10 25q-14 14 -129 14q-31 0 -31 37q0 18 9 28.5t22 10.5q5 0 105.5 -4t121.5 -4q84 0 221.5 6t145.5 6q13 0 21.5 -9.5t8.5 -27.5zM1337 1944q0 -3 -12 -63.5
t-30.5 -165.5t-32.5 -197q0 -7 -6 -11t-11 -4q-59 0 -96 12.5t-37 28.5q0 4 8 32t23 79.5t26 93.5h-6l-274 -236q-10 -10 -23 -10t-21.5 9.5t-8.5 21.5q0 3 6.5 10.5t13.5 13.5l6 7l383 348q10 9 26 24t23.5 21t12.5 6q30 0 30 -20z" />
    <glyph glyph-name="hcircumflex" unicode="&#x125;" horiz-adv-x="1044" 
d="M1024 748q0 -108 -51.5 -246.5t-126 -255t-164 -197t-160.5 -80.5q-52 0 -82 29.5t-30 73.5q0 46 28 74t74 28q22 0 65.5 -30.5t57.5 -30.5q20 0 50.5 40t60.5 103.5t51.5 155.5t21.5 182q0 75 -21.5 114.5t-60.5 39.5q-54 0 -129.5 -63t-138 -145t-109 -155t-53.5 -98
l-67 -277q-3 -17 -28.5 -29t-68.5 -12q-65 0 -88.5 12.5t-23.5 38.5q0 4 19 66.5t51 167.5t53 176l204 696q31 102 31 144q0 25 -10 35q-7 7 -26.5 16.5t-42.5 19t-27 11.5q-17 8 -17 30q0 31 23 31q15 0 94 7t119 14q26 4 59 14.5t56 18.5t28 8h10q11 0 19 -9t8 -18
q0 -4 -11.5 -34.5t-34 -92.5t-42.5 -123l-236 -711l9 -6q246 451 483 451q81 0 127.5 -44.5t46.5 -139.5zM819 1964q0 -3 -12 -63.5t-31 -165.5t-33 -197q0 -14 -16 -14q-59 0 -96 12.5t-37 28.5q0 4 8 32t23 79t26 93h-6l-274 -235q-10 -10 -23 -10t-22 9t-9 21
q0 3 6.5 10.5t13.5 13.5l7 7l383 348q11 10 26 24.5t23 21t12 6.5q12 0 21.5 -5.5t9.5 -15.5z" />
    <glyph glyph-name="Itilde" unicode="&#x128;" horiz-adv-x="808" 
d="M932 1413q0 -19 -9.5 -30t-21.5 -11q-113 0 -133 -20t-51 -140l-236 -976q-20 -87 -20 -123q0 -31 34.5 -38t118.5 -7q14 0 22.5 -10.5t8.5 -26.5q0 -39 -31 -39q-6 0 -64.5 2t-135.5 4t-127 2q-72 0 -141.5 -2.5t-110.5 -5t-45 -2.5q-12 0 -21.5 10t-9.5 31q0 15 9.5 26
t21.5 11q129 0 153 24q25 25 52 133l235 983q21 99 21 119q0 14 -11 25q-14 14 -133 14q-13 0 -22 11t-9 26q0 39 31 39q17 0 111.5 -4t134.5 -4q71 0 205 7t147 7q12 0 19.5 -10t7.5 -25zM989 1903q0 -86 -56.5 -171t-117.5 -85q-74 0 -181.5 5t-166.5 5q-29 0 -45 -14
t-16 -31q0 -4 15 -26t15 -36q0 -25 -16 -36t-35 -11q-20 0 -35.5 14t-15.5 48q0 80 65.5 165t139.5 85q41 0 143 -7.5t174 -7.5q62 0 62 55q0 4 -15.5 26t-15.5 36q0 25 16 36t35 11q20 0 35.5 -13.5t15.5 -47.5z" />
    <glyph glyph-name="itilde" unicode="&#x129;" horiz-adv-x="624" 
d="M563 287q0 -7 -23.5 -40.5t-64.5 -80t-90.5 -91t-109 -75.5t-111.5 -31q-56 0 -87.5 33.5t-31.5 69.5q0 18 12 51.5t40.5 101.5t45.5 113l82 215q23 54 42.5 111.5t19.5 72.5q0 8 -7 16.5t-14 8.5q-17 0 -41 -15.5t-47.5 -38.5t-43.5 -45t-35.5 -41t-16.5 -20
q-8 -8 -14 -8q-16 0 -26.5 10t-10.5 23q0 10 40 57.5t96 103.5t128 100t125 44q39 0 78 -26t39 -56q0 -14 -10 -45.5t-22 -61.5t-34.5 -86.5t-36.5 -93.5l-82 -215q-55 -137 -55 -174q0 -31 25 -31q14 0 37.5 16t49 40.5t46.5 47.5t38.5 43t18.5 21q8 8 14 8q16 0 26.5 -9.5
t10.5 -22.5zM764 1362q0 -86 -56.5 -171t-117.5 -85q-74 0 -181.5 5t-166.5 5q-29 0 -45.5 -14t-16.5 -31q0 -4 15.5 -25.5t15.5 -35.5q0 -25 -16 -36t-35 -11q-20 0 -35.5 13.5t-15.5 47.5q0 51 29 109.5t77.5 99.5t97.5 41q41 0 143.5 -7t174.5 -7q61 0 61 55
q0 4 -15 25.5t-15 35.5q0 25 16 36t35 11q20 0 35.5 -13.5t15.5 -47.5z" />
    <glyph glyph-name="Imacron" unicode="&#x12a;" horiz-adv-x="808" 
d="M932 1413q0 -19 -9.5 -30t-21.5 -11q-113 0 -133 -20t-51 -140l-236 -976q-20 -87 -20 -123q0 -31 34.5 -38t118.5 -7q14 0 22.5 -10.5t8.5 -26.5q0 -39 -31 -39q-6 0 -64.5 2t-135.5 4t-127 2q-72 0 -141.5 -2.5t-110.5 -5t-45 -2.5q-12 0 -21.5 10t-9.5 31q0 15 9.5 26
t21.5 11q129 0 153 24q25 25 52 133l235 983q21 99 21 119q0 14 -11 25q-14 14 -133 14q-13 0 -22 11t-9 26q0 39 31 39q17 0 111.5 -4t134.5 -4q71 0 205 7t147 7q12 0 19.5 -10t7.5 -25zM973 1698q0 -39 -12 -57.5t-29 -18.5q-6 0 -75.5 2t-98.5 2h-256q-123 -4 -133 -4
q-31 0 -31 45q0 36 12.5 56t28.5 20q3 0 55.5 -2t87.5 -2h256q24 0 92 3t72 3q11 0 21 -14t10 -33z" />
    <glyph glyph-name="imacron" unicode="&#x12b;" horiz-adv-x="624" 
d="M563 287q0 -7 -23.5 -40.5t-64.5 -80t-90.5 -91t-109 -75.5t-111.5 -31q-56 0 -87.5 33.5t-31.5 69.5q0 18 12 51.5t40.5 101.5t45.5 113l82 215q23 54 42.5 111.5t19.5 72.5q0 8 -7 16.5t-14 8.5q-17 0 -41 -15.5t-47.5 -38.5t-43.5 -45t-35.5 -41t-16.5 -20
q-8 -8 -14 -8q-16 0 -26.5 10t-10.5 23q0 10 40 57.5t96 103.5t128 100t125 44q39 0 78 -26t39 -56q0 -14 -10 -45.5t-22 -61.5t-34.5 -86.5t-36.5 -93.5l-82 -215q-55 -137 -55 -174q0 -31 25 -31q14 0 37.5 16t49 40.5t46.5 47.5t38.5 43t18.5 21q8 8 14 8q16 0 26.5 -9.5
t10.5 -22.5zM774 1198q0 -39 -12 -57.5t-29 -18.5q-6 0 -75.5 2t-98.5 2h-256q-123 -4 -133 -4q-31 0 -31 45q0 36 12.5 56t28.5 20q3 0 56 -2t88 -2h256q24 0 91.5 3t71.5 3q11 0 21 -14t10 -33z" />
    <glyph glyph-name="Ibreve" unicode="&#x12c;" horiz-adv-x="808" 
d="M932 1413q0 -19 -9.5 -30t-21.5 -11q-113 0 -133 -20t-51 -140l-236 -976q-20 -87 -20 -123q0 -31 34.5 -38t118.5 -7q14 0 22.5 -10.5t8.5 -26.5q0 -39 -31 -39q-6 0 -64.5 2t-135.5 4t-127 2q-72 0 -141.5 -2.5t-110.5 -5t-45 -2.5q-12 0 -21.5 10t-9.5 31q0 15 9.5 26
t21.5 11q129 0 153 24q25 25 52 133l235 983q21 99 21 119q0 14 -11 25q-14 14 -133 14q-13 0 -22 11t-9 26q0 39 31 39q17 0 111.5 -4t134.5 -4q71 0 205 7t147 7q12 0 19.5 -10t7.5 -25zM1012 1810q0 -20 -16.5 -55t-51 -77t-80.5 -78.5t-112.5 -61.5t-139.5 -25
q-67 0 -122 27t-87 68.5t-49.5 86.5t-17.5 85q0 51 41 51q17 0 20 -21q14 -79 87 -121t159 -42q42 0 81.5 9t70 24t56.5 32t45.5 36.5t32.5 33.5t22 26t10 13q10 10 24 10q6 0 16.5 -7.5t10.5 -13.5z" />
    <glyph glyph-name="Iogonek" unicode="&#x12e;" horiz-adv-x="808" 
d="M932 1413q0 -19 -9.5 -30t-21.5 -11q-113 0 -133 -20q-24 -24 -51 -140l-236 -976q-20 -87 -20 -123q0 -31 34.5 -38t118.5 -7q14 0 22.5 -10.5t8.5 -26.5q0 -39 -31 -39q-5 0 -33 1t-73.5 2.5t-85.5 2.5q-193 -128 -193 -274q0 -37 29 -65t80 -28q70 0 127 37
q16 -12 16 -37q0 -12 -12 -33t-29 -38q-47 -47 -109.5 -75t-125.5 -28q-83 0 -134 47t-51 117q0 62 32 122.5t84.5 109t102 83.5t103.5 64h-55q-72 0 -141.5 -2.5t-110.5 -5t-45 -2.5q-12 0 -21.5 10t-9.5 31q0 15 9.5 26t21.5 11q129 0 153 24q25 25 52 133l235 983
q21 87 21 119q0 14 -11 25q-14 14 -133 14q-13 0 -22 11t-9 26q0 39 31 39q17 0 111.5 -4t134.5 -4q71 0 205 7t147 7q12 0 19.5 -10t7.5 -25z" />
    <glyph glyph-name="iogonek" unicode="&#x12f;" horiz-adv-x="624" 
d="M348 -369q0 -12 -12 -33t-29 -38q-47 -47 -109.5 -75t-125.5 -28q-83 0 -134 47t-51 117q0 54 23.5 107.5t64.5 97.5t85 79t94 64q-50 4 -79.5 36.5t-29.5 66.5q0 18 12 51.5t40.5 101.5t45.5 113l82 215q62 158 62 184q0 8 -7 16.5t-14 8.5q-17 0 -41 -15.5t-47.5 -38.5
t-43.5 -45t-35.5 -41t-16.5 -20q-8 -8 -14 -8q-16 0 -26.5 10t-10.5 23q0 10 40 57.5t96 103.5t128 100t125 44q39 0 78 -26t39 -56q0 -14 -10 -45.5t-22 -61.5t-34.5 -86.5t-36.5 -93.5l-82 -215q-55 -147 -55 -174q0 -31 25 -31q14 0 37.5 16t49 40.5t46.5 47.5t38.5 43
t18.5 21q8 8 14 8q16 0 26.5 -9.5t10.5 -22.5q0 -9 -34 -55.5t-97 -110.5t-125 -101q-99 -59 -155 -141.5t-56 -154.5q0 -37 29 -65t80 -28q70 0 127 37q16 -12 16 -37zM625 1274q0 -60 -49.5 -109t-104.5 -49q-61 0 -97 39t-36 105q0 57 49 105t107 48q57 0 94 -39t37 -100
z" />
    <glyph glyph-name="Idotaccent" unicode="&#x130;" horiz-adv-x="808" 
d="M932 1413q0 -19 -9.5 -30t-21.5 -11q-113 0 -133 -20t-51 -140l-236 -976q-20 -87 -20 -123q0 -31 34.5 -38t118.5 -7q14 0 22.5 -10.5t8.5 -26.5q0 -39 -31 -39q-6 0 -64.5 2t-135.5 4t-127 2q-72 0 -141.5 -2.5t-110.5 -5t-45 -2.5q-12 0 -21.5 10t-9.5 31q0 15 9.5 26
t21.5 11q129 0 153 24q25 25 52 133l235 983q21 99 21 119q0 14 -11 25q-14 14 -133 14q-13 0 -22 11t-9 26q0 39 31 39q17 0 111.5 -4t134.5 -4q71 0 205 7t147 7q12 0 19.5 -10t7.5 -25zM784 1739q0 -46 -39 -84.5t-88 -38.5t-78.5 29t-29.5 73q0 54 39.5 93.5t89.5 39.5
q48 0 77 -27t29 -85z" />
    <glyph glyph-name="dotlessi" unicode="&#x131;" horiz-adv-x="624" 
d="M563 287q0 -7 -23.5 -40.5t-64.5 -80t-90.5 -91t-109 -75.5t-111.5 -31q-56 0 -87.5 33.5t-31.5 69.5q0 18 12 51.5t40.5 101.5t45.5 113l82 215q23 54 42.5 111.5t19.5 72.5q0 8 -7 16.5t-14 8.5q-17 0 -41 -15.5t-47.5 -38.5t-43.5 -45t-35.5 -41t-16.5 -20
q-8 -8 -14 -8q-16 0 -26.5 10t-10.5 23q0 10 40 57.5t96 103.5t128 100t125 44q39 0 78 -26t39 -56q0 -14 -10 -45.5t-22 -61.5t-34.5 -86.5t-36.5 -93.5l-82 -215q-55 -137 -55 -174q0 -31 25 -31q14 0 37.5 16t49 40.5t46.5 47.5t38.5 43t18.5 21q8 8 14 8q16 0 26.5 -9.5
t10.5 -22.5z" />
    <glyph glyph-name="IJ" unicode="&#x132;" horiz-adv-x="1976" 
d="M932 1413q0 -19 -9.5 -30t-21.5 -11q-113 0 -133 -20t-51 -140l-236 -976q-20 -87 -20 -123q0 -31 34.5 -38t118.5 -7q14 0 22.5 -10.5t8.5 -26.5q0 -39 -31 -39q-6 0 -64.5 2t-135.5 4t-127 2q-72 0 -141.5 -2.5t-110.5 -5t-45 -2.5q-12 0 -21.5 10t-9.5 31q0 15 9.5 26
t21.5 11q129 0 153 24q25 25 52 133l235 983q21 99 21 119q0 14 -11 25q-14 14 -133 14q-13 0 -22 11t-9 26q0 39 31 39q17 0 111.5 -4t134.5 -4q71 0 205 7t147 7q12 0 19.5 -10t7.5 -25zM2023 1284q0 -48 -29 -82.5t-83 -34.5q-18 0 -34.5 6.5t-26 12.5t-11.5 6
q-21 0 -41 -41q-49 -97 -82 -461q18 0 116 6t103 6q9 0 18 -11t9 -32t-9 -36t-28 -15q-2 0 -95.5 5t-123.5 5q-14 -138 -32.5 -256.5t-48.5 -242t-68 -222.5t-92.5 -188t-120.5 -149t-154 -94.5t-191 -34.5q-81 0 -147 29t-106.5 75t-62 100.5t-21.5 108.5q0 88 47.5 133
t115.5 45q61 0 106.5 -39.5t45.5 -103.5q0 -35 -14 -64t-31 -44.5t-31 -30.5t-14 -25q0 -51 40 -76.5t103 -25.5q46 0 92.5 16t75.5 45q47 47 76 131.5t43.5 193t26 221.5t34 250.5t56.5 247.5q-38 0 -87.5 -2.5t-84.5 -5t-37 -2.5q-14 0 -22.5 14t-8.5 31q0 47 31 47
q5 0 104 -5t135 -5q102 265 262 451l-2 4q-78 4 -138.5 26.5t-95 53.5t-67.5 67t-58 65.5t-63.5 49.5t-87.5 20q-57 0 -96 -29t-53 -64t-14 -70q0 -45 22 -75t53 -30q6 0 36.5 21.5t62.5 21.5q47 0 75.5 -31.5t28.5 -74.5q0 -52 -35.5 -90.5t-99.5 -38.5q-100 0 -157.5 75
t-57.5 181q0 61 20 118t57.5 104.5t100 76t139.5 28.5q69 0 120.5 -19t81 -50t52 -68t39 -74t34.5 -68t46.5 -50t67.5 -19q53 195 174 195q52 0 82 -34.5t30 -78.5z" />
    <glyph glyph-name="ij" unicode="&#x133;" horiz-adv-x="1280" 
d="M563 287q0 -7 -23.5 -40.5t-64.5 -80t-90.5 -91t-109 -75.5t-111.5 -31q-56 0 -87.5 33.5t-31.5 69.5q0 18 12 51.5t40.5 101.5t45.5 113l82 215q23 54 42.5 111.5t19.5 72.5q0 8 -7 16.5t-14 8.5q-17 0 -41 -15.5t-47.5 -38.5t-43.5 -45t-35.5 -41t-16.5 -20
q-8 -8 -14 -8q-16 0 -26.5 10t-10.5 23q0 10 40 57.5t96 103.5t128 100t125 44q39 0 78 -26t39 -56q0 -14 -10 -45.5t-22 -61.5t-34.5 -86.5t-36.5 -93.5l-82 -215q-55 -137 -55 -174q0 -31 25 -31q14 0 37.5 16t49 40.5t46.5 47.5t38.5 43t18.5 21q8 8 14 8q16 0 26.5 -9.5
t10.5 -22.5zM625 1274q0 -60 -49.5 -109t-104.5 -49q-61 0 -97 39t-36 105q0 57 49 105t107 48q57 0 94 -39t37 -100zM1219 840q0 -9 -3 -24t-11 -43t-14 -48t-21 -68t-23 -73l-72 -236q-32 -100 -53.5 -163t-62.5 -169.5t-75.5 -176t-86.5 -153t-103.5 -132.5t-117.5 -83
t-136 -34q-133 0 -199.5 60.5t-66.5 133.5q0 67 38.5 105.5t94.5 38.5q64 0 98.5 -33.5t34.5 -89.5q0 -22 -10 -65.5t-10 -57.5q0 -8 13.5 -16.5t27.5 -8.5q98 0 166 119q51 89 126 341q8 25 23 79q22 72 33 111l113 378q17 55 31 117t14 78q0 14 -8 22.5t-17 8.5
q-25 0 -65.5 -48.5t-74.5 -103.5l-34 -55q-8 -8 -14 -8q-18 0 -27.5 10t-9.5 20t20 49t57 91t81.5 101.5t101 83.5t108.5 34t93 -30t41 -62zM1352 1274q0 -64 -46 -111t-108 -47q-60 0 -96.5 38.5t-36.5 94.5q0 67 48 115.5t108 48.5q57 0 94 -39t37 -100z" />
    <glyph glyph-name="Jcircumflex" unicode="&#x134;" horiz-adv-x="1167" 
d="M1214 1284q0 -48 -29 -82.5t-83 -34.5q-18 0 -34.5 6.5t-26 12.5t-11.5 6q-20 0 -41 -41q-49 -97 -82 -461q18 0 116 6t103 6q9 0 18 -11t9 -32t-9 -36t-28 -15q-2 0 -95.5 5t-123.5 5q-14 -138 -32.5 -256.5t-48.5 -242t-68 -222.5t-92.5 -188t-120.5 -149t-154 -94.5
t-191 -34.5q-81 0 -147 29t-106.5 75t-62 100.5t-21.5 108.5q0 88 47.5 133t115.5 45q61 0 106.5 -39.5t45.5 -103.5q0 -35 -14 -64t-31 -44.5t-31 -30.5t-14 -25q0 -51 40 -76.5t103 -25.5q46 0 92.5 16t75.5 45q47 47 76 131.5t43.5 193t26 221.5t34 250.5t56.5 247.5
q-38 0 -87.5 -2.5t-84.5 -5t-37 -2.5q-14 0 -22.5 14t-8.5 31q0 47 31 47q5 0 104 -5t135 -5q101 263 263 451l-3 4q-78 4 -138.5 26.5t-95 53.5t-67 67t-57.5 65.5t-63.5 49.5t-87.5 20q-44 0 -77.5 -16.5t-51 -42.5t-26.5 -52.5t-9 -51.5q0 -45 22 -75t53 -30
q6 0 36.5 21.5t62.5 21.5q47 0 75.5 -31.5t28.5 -74.5q0 -52 -35.5 -90.5t-99.5 -38.5q-100 0 -157.5 75t-57.5 181q0 61 20 118t57.5 104.5t100 76t139.5 28.5q69 0 120.5 -19t81 -50t52 -68t39 -74t34.5 -68t46.5 -50t67.5 -19q53 195 174 195q52 0 82 -34.5t30 -78.5z
M1255 1978q0 -3 -12 -63.5t-30.5 -165.5t-32.5 -197q0 -14 -17 -14q-59 0 -96 12.5t-37 28.5q0 4 8 32t23 79.5t26 93.5h-6l-274 -236q-10 -10 -23 -10t-21.5 9.5t-8.5 21.5q0 3 6.5 10.5t13.5 13.5l6 6l383 349q10 9 26 24t23.5 21t12.5 6q12 0 21 -5.5t9 -15.5z" />
    <glyph glyph-name="jcircumflex" unicode="&#x135;" horiz-adv-x="655" 
d="M594 840q0 -9 -3 -24t-11 -43t-14 -48t-21 -68t-23 -73l-71 -236q-22 -70 -39.5 -125t-45.5 -132t-53 -137t-60 -131t-69 -123.5t-77 -104.5t-87 -84.5t-96.5 -53t-107.5 -20.5q-133 0 -200 60.5t-67 133.5q0 67 38.5 105.5t95.5 38.5q64 0 98.5 -33.5t34.5 -89.5
q0 -22 -10.5 -65.5t-10.5 -57.5q0 -8 13.5 -16.5t27.5 -8.5q98 0 166 119q51 89 126 341q8 25 23 79q22 72 33 111l113 378q17 55 31 117t14 78q0 14 -8 22.5t-17 8.5q-25 0 -65.5 -48.5t-74.5 -103.5l-34 -55q-8 -8 -14 -8q-18 0 -27.5 10t-9.5 20t20 49t57 91t82 101.5
t101.5 83.5t108.5 34t92.5 -30t40.5 -62zM743 1444q0 -3 -12 -63.5t-30.5 -165.5t-32.5 -197q0 -14 -17 -14q-59 0 -96 12t-37 28q0 4 8 32t23 79.5t26 93.5h-6l-274 -235q-10 -10 -23 -10t-21.5 9t-8.5 21q0 3 6.5 10.5t13.5 13.5l6 7l383 348q10 9 26 24t23.5 21t12.5 6
q30 0 30 -20z" />
    <glyph glyph-name="Kcommaaccent" unicode="&#x136;" horiz-adv-x="1566" 
d="M1772 1423q0 -41 -31 -41q-90 0 -204 -63.5t-226 -171.5l-277 -266q-20 -21 -20 -31l10 -41l225 -590q33 -88 62 -117q34 -34 164 -34q14 0 22 -10.5t8 -26.5q0 -17 -8 -29.5t-22 -11.5q-230 10 -349 10q-45 0 -114.5 -2t-123 -4t-59.5 -2q-30 0 -30 39q0 16 8 26.5
t22 10.5q40 0 58.5 1t42.5 6t33.5 16.5t9.5 31.5q0 27 -21 92l-153 430q-19 51 -41 62q-44 22 -156 30l-121 -501q-20 -87 -20 -123q0 -16 8 -25.5t30.5 -13.5t42 -5t62.5 -1q14 0 22.5 -10.5t8.5 -26.5q0 -39 -31 -39q-6 0 -62 2t-130.5 4t-124.5 2q-72 0 -141.5 -2.5
t-110.5 -5t-45 -2.5q-12 0 -21.5 10t-9.5 31q0 15 9.5 26t21.5 11q129 0 153 24q25 25 52 133l235 973q21 86 21 123q0 31 -34.5 38t-119.5 7q-14 0 -22.5 10.5t-8.5 26.5q0 39 31 39q6 0 59.5 -2t125.5 -4t122 -2q72 0 139 3t105.5 6t42.5 3q31 0 31 -33q0 -45 -35 -45
q-92 0 -119 -27q-24 -24 -51 -133l-94 -389q114 -20 165 -20q41 0 82 41l277 286q113 122 113 185q0 18 -9.5 29.5t-30 16t-38 6t-47.5 1.5q-29 0 -29 37q0 39 31 39q3 0 44.5 -1.5t92.5 -3t78 -1.5q84 0 234.5 12t158.5 12q11 0 19 -10t8 -25zM451 -309q0 63 58 111t128 48
q65 0 107 -39t42 -112q0 -72 -37 -138t-89 -107t-99 -66t-76 -29l-28 53q82 22 144.5 86.5t66.5 167.5h-6q-5 -8 -15 -20t-41 -32t-63 -20q-46 0 -69 28.5t-23 68.5z" />
    <glyph glyph-name="kcommaaccent" unicode="&#x137;" horiz-adv-x="1044" 
d="M1004 778q0 -66 -36.5 -119t-99 -86t-136.5 -53t-159 -28v-7q80 -25 107 -97t27 -214q0 -68 13 -100.5t52 -32.5q20 0 27 14q2 3 8.5 25.5t14 39.5t26 32.5t43.5 15.5q34 0 53 -19t19 -47q0 -62 -59.5 -97.5t-135.5 -35.5q-111 0 -188.5 48.5t-77.5 105.5v61
q0 51 -1.5 83t-6 71t-14 62t-26 45.5t-42 33.5t-60.5 13l-110 -472q-8 -31 -28 -41t-81 -10q-49 0 -75.5 16.5t-26.5 34.5q0 4 20 72.5t51.5 177t51.5 181.5l184 665q29 119 29 154q0 24 -11 35q-8 8 -29 17.5t-44 18.5t-27 11q-16 8 -16 30q0 12 7.5 21.5t16.5 9.5
q20 0 92.5 7t114.5 14q34 6 83.5 23.5t55.5 17.5h13q22 0 22 -27q0 -3 -10.5 -37.5t-32.5 -105t-39 -127.5l-170 -549l4 -4q122 166 228.5 236.5t224.5 70.5q69 0 111.5 -42.5t42.5 -111.5zM809 707q0 43 -24 64.5t-58 21.5q-65 0 -149.5 -64.5t-208.5 -198.5q31 -4 51 -4
q94 0 182 21t147.5 63.5t59.5 96.5zM190 -309q0 63 58 111t129 48q65 0 107 -39t42 -112q0 -72 -37 -138t-89 -107t-99 -66t-76 -29l-28 53q82 22 144.5 86.5t66.5 167.5h-7q-2 -3 -5.5 -8t-15.5 -17t-24.5 -21.5t-32.5 -17.5t-40 -8q-46 0 -69.5 29t-23.5 68z" />
    <glyph glyph-name="Lacute" unicode="&#x139;" horiz-adv-x="1361" 
d="M1321 389q0 -5 -24 -31.5t-53 -61.5t-53 -98t-24 -132q0 -8 3.5 -25t3.5 -21q0 -14 -10 -22t-23 -8q-3 0 -46 2.5t-109.5 5t-125.5 2.5h-573q-63 0 -134.5 -3t-116.5 -6l-46 -3q-14 0 -22.5 11.5t-8.5 27.5t7.5 27.5t19.5 11.5q77 0 114 4.5t54 21.5q24 24 51 133
l235 983q19 83 19 119q0 15 -10 25q-14 14 -132 14q-13 0 -21.5 11t-8.5 26q0 39 30 39q17 0 111.5 -4t134.5 -4q71 0 210.5 7t152.5 7q12 0 19 -10t7 -25q0 -19 -9 -30t-21 -11q-74 0 -101 -5t-43 -21q-26 -26 -51 -134l-235 -976q-21 -86 -21 -123q0 -22 16 -29.5t56 -7.5
h215q39 0 71 12t50 26.5t43 39.5q69 69 194 172.5t164 103.5q15 0 28 -13t13 -28zM967 1806q0 -47 -35 -82q-4 -4 -88.5 -58t-167.5 -106l-82 -51q-10 -6 -21 -6t-21.5 11t-10.5 24q0 4 3 10.5t6 10.5l3 4q215 295 225 305q24 24 41 32.5t41 8.5q37 0 72 -27t35 -76z" />
    <glyph glyph-name="lacute" unicode="&#x13a;" horiz-adv-x="604" 
d="M676 1444q0 -4 -12.5 -38t-36 -101t-43.5 -127l-256 -789q-19 -54 -35.5 -123t-16.5 -92q0 -14 9 -22.5t22 -8.5q20 0 72 52q27 27 59 65.5t53 65.5l21 28q8 8 14 8q16 0 26.5 -9.5t10.5 -22.5q0 -11 -38 -66.5t-94.5 -122t-136.5 -119.5t-151 -53q-52 0 -82 32.5
t-30 80.5q0 12 4 30.5t13.5 51t16.5 56t23.5 74t24.5 75.5l235 727q39 121 39 174q0 25 -10 35q-11 11 -31 19.5t-40 14t-25 7.5q-15 8 -15 26q0 27 21 31q105 11 205 31q22 4 56 14.5t58.5 18.5t28.5 8h10q14 0 22.5 -11t8.5 -20zM834 1806q0 -47 -35 -82q-4 -4 -88.5 -58
t-166.5 -106l-83 -51q-10 -6 -21 -6t-21.5 11t-10.5 24q0 4 3 10.5t6 10.5l3 4q215 295 225 305q24 24 41 32.5t41 8.5q37 0 72 -27t35 -76z" />
    <glyph glyph-name="Lcommaaccent" unicode="&#x13b;" horiz-adv-x="1361" 
d="M1321 389q0 -5 -24 -31.5t-53 -61.5t-53 -98t-24 -132q0 -8 3.5 -25t3.5 -21q0 -14 -10 -22t-23 -8q-3 0 -46 2.5t-109.5 5t-125.5 2.5h-573q-63 0 -134.5 -3t-116.5 -6l-46 -3q-14 0 -22.5 11.5t-8.5 27.5t7.5 27.5t19.5 11.5q77 0 114 4.5t54 21.5q24 24 51 133
l235 983q19 83 19 119q0 15 -10 25q-14 14 -132 14q-13 0 -21.5 11t-8.5 26q0 39 30 39q17 0 111.5 -4t134.5 -4q71 0 210.5 7t152.5 7q12 0 19 -10t7 -25q0 -19 -9 -30t-21 -11q-74 0 -101 -5t-43 -21q-26 -26 -51 -134l-235 -976q-21 -86 -21 -123q0 -22 16 -29.5t56 -7.5
h215q39 0 71 12t50 26.5t43 39.5q69 69 194 172.5t164 103.5q15 0 28 -13t13 -28zM369 -309q0 63 58 111t128 48q65 0 107.5 -39t42.5 -112q0 -59 -25 -113.5t-61.5 -93t-79.5 -68.5t-78.5 -46t-57.5 -19l-28 53q82 22 144.5 86.5t66.5 167.5h-6q-5 -8 -15 -20t-41 -32
t-63 -20q-46 0 -69 28.5t-23 68.5z" />
    <glyph glyph-name="lcommaaccent" unicode="&#x13c;" horiz-adv-x="604" 
d="M676 1444q0 -4 -12.5 -38t-36 -101t-43.5 -127l-256 -789q-19 -54 -35.5 -123t-16.5 -92q0 -14 9 -22.5t22 -8.5q20 0 72 52q27 27 59 65.5t53 65.5l21 28q8 8 14 8q16 0 26.5 -9.5t10.5 -22.5q0 -11 -38 -66.5t-94.5 -122t-136.5 -119.5t-151 -53q-52 0 -82 32.5
t-30 80.5q0 12 4 30.5t13.5 51t16.5 56t23.5 74t24.5 75.5l235 727q39 121 39 174q0 25 -10 35q-11 11 -31 19.5t-40 14t-25 7.5q-15 8 -15 26q0 27 21 31q105 11 205 31q22 4 56 14.5t58.5 18.5t28.5 8h10q14 0 22.5 -11t8.5 -20zM-90 -309q0 63 58 111t128 48
q65 0 107.5 -39t42.5 -112q0 -72 -37 -138t-89 -107t-99 -66t-76 -29l-29 53q82 22 144.5 86.5t66.5 167.5h-6q-5 -8 -15 -20t-41 -32t-63 -20q-46 0 -69 28.5t-23 68.5z" />
    <glyph glyph-name="Lcaron" unicode="&#x13d;" horiz-adv-x="1361" 
d="M1321 389q0 -5 -24 -31.5t-53 -61.5t-53 -98t-24 -132q0 -8 3.5 -25t3.5 -21q0 -14 -10 -22t-23 -8q-3 0 -46 2.5t-109.5 5t-125.5 2.5h-573q-63 0 -134.5 -3t-116.5 -6l-46 -3q-14 0 -22.5 11.5t-8.5 27.5t7.5 27.5t19.5 11.5q77 0 114 4.5t54 21.5q24 24 51 133
l235 983q19 83 19 119q0 15 -10 25q-14 14 -132 14q-13 0 -21.5 11t-8.5 26q0 39 30 39q17 0 111.5 -4t134.5 -4q71 0 210.5 7t152.5 7q12 0 19 -10t7 -25q0 -19 -9 -30t-21 -11q-74 0 -101 -5t-43 -21q-26 -26 -51 -134l-235 -976q-21 -86 -21 -123q0 -22 16 -29.5t56 -7.5
h215q39 0 71 12t50 26.5t43 39.5q69 69 194 172.5t164 103.5q15 0 28 -13t13 -28zM1106 1288q0 63 58 111.5t128 48.5q65 0 107.5 -39.5t42.5 -112.5q0 -72 -37 -138t-89 -107t-99 -66t-76 -29l-29 54q82 22 144.5 86.5t66.5 167.5h-6q-5 -8 -15 -20t-41 -32t-63 -20
q-46 0 -69 28t-23 68z" />
    <glyph glyph-name="lcaron" unicode="&#x13e;" horiz-adv-x="878" 
d="M676 1444q0 -4 -12.5 -38t-36 -101t-43.5 -127l-256 -789q-19 -54 -35.5 -123t-16.5 -92q0 -14 9 -22.5t22 -8.5q20 0 72 52q27 27 59 65.5t53 65.5l21 28q8 8 14 8q16 0 26.5 -9.5t10.5 -22.5q0 -11 -38 -66.5t-94.5 -122t-136.5 -119.5t-151 -53q-52 0 -82 32.5
t-30 80.5q0 12 4 30.5t13.5 51t16.5 56t23.5 74t24.5 75.5l235 727q39 121 39 174q0 25 -10 35q-11 11 -31 19.5t-40 14t-25 7.5q-15 8 -15 26q0 27 21 31q105 11 205 31q22 4 56 14.5t58.5 18.5t28.5 8h10q14 0 22.5 -11t8.5 -20zM717 1288q0 63 58 111.5t128 48.5
q65 0 107.5 -39.5t42.5 -112.5q0 -72 -37 -138t-89 -107t-99 -66t-76 -29l-29 54q82 22 144.5 86.5t66.5 167.5h-6q-5 -8 -15 -20t-41 -32t-63 -20q-46 0 -69 28t-23 68z" />
    <glyph glyph-name="Ldot" unicode="&#x13f;" horiz-adv-x="1361" 
d="M1321 389q0 -5 -24 -31.5t-53 -61.5t-53 -98t-24 -132q0 -8 3.5 -25t3.5 -21q0 -14 -10 -22t-23 -8q-3 0 -46 2.5t-109.5 5t-125.5 2.5h-573q-63 0 -134.5 -3t-116.5 -6l-46 -3q-14 0 -22.5 11.5t-8.5 27.5t7.5 27.5t19.5 11.5q77 0 114 4.5t54 21.5q24 24 51 133
l235 983q19 83 19 119q0 15 -10 25q-14 14 -132 14q-13 0 -21.5 11t-8.5 26q0 39 30 39q17 0 111.5 -4t134.5 -4q71 0 210.5 7t152.5 7q12 0 19 -10t7 -25q0 -19 -9 -30t-21 -11q-74 0 -101 -5t-43 -21q-26 -26 -51 -134l-235 -976q-21 -86 -21 -123q0 -22 16 -29.5t56 -7.5
h215q39 0 71 12t50 26.5t43 39.5q69 69 194 172.5t164 103.5q15 0 28 -13t13 -28zM1303 717q0 -63 -43.5 -108.5t-110.5 -45.5t-110.5 45.5t-43.5 108.5t43.5 108t110.5 45t110.5 -45t43.5 -108z" />
    <glyph glyph-name="ldot" unicode="&#x140;" horiz-adv-x="927" 
d="M676 1444q0 -4 -12.5 -38t-36 -101t-43.5 -127l-256 -789q-19 -54 -35.5 -123t-16.5 -92q0 -14 9 -22.5t22 -8.5q20 0 72 52q27 27 59 65.5t53 65.5l21 28q8 8 14 8q16 0 26.5 -9.5t10.5 -22.5q0 -11 -38 -66.5t-94.5 -122t-136.5 -119.5t-151 -53q-52 0 -82 32.5
t-30 80.5q0 12 4 30.5t13.5 51t16.5 56t23.5 74t24.5 75.5l235 727q39 121 39 174q0 25 -10 35q-11 11 -31 19.5t-40 14t-25 7.5q-15 8 -15 26q0 27 21 31q105 11 205 31q22 4 56 14.5t58.5 18.5t28.5 8h10q14 0 22.5 -11t8.5 -20zM928 664q0 -63 -43.5 -108.5t-110.5 -45.5
t-110 45.5t-43 108.5t43 108t110 45t110.5 -45t43.5 -108z" />
    <glyph glyph-name="Lslash" unicode="&#x141;" horiz-adv-x="1361" 
d="M1321 389q0 -5 -24 -31.5t-53 -61.5t-53 -98t-24 -132q0 -8 3.5 -25t3.5 -21q0 -14 -10 -22t-23 -8q-3 0 -46 2.5t-109.5 5t-125.5 2.5h-573q-63 0 -134.5 -3t-116.5 -6l-46 -3q-14 0 -22.5 11.5t-8.5 27.5t7.5 27.5t19.5 11.5q77 0 114 4.5t54 21.5q24 24 51 133l63 264
l-32 -16q-12 -5 -44.5 -21.5t-57.5 -29t-28 -12.5q-14 0 -29.5 15t-15.5 36q0 10 6.5 22.5t14.5 16.5l180 78l31 14l147 616q19 83 19 119q0 15 -10 25q-14 14 -132 14q-13 0 -21.5 11t-8.5 26q0 39 30 39q17 0 111.5 -4t134.5 -4q71 0 210.5 7t152.5 7q12 0 19 -10t7 -25
q0 -19 -9 -30t-21 -11q-74 0 -101 -5t-43 -21q-26 -26 -51 -134l-115 -473l21 9q56 26 133.5 66t124.5 65.5t57 31.5q18 11 29 11q10 0 23.5 -21.5t13.5 -40.5q0 -32 -25 -45q-3 -2 -61 -25t-140.5 -58t-140.5 -62l-57 -27l-98 -407q-21 -86 -21 -123q0 -22 16 -29.5
t56 -7.5h215q39 0 71 12t50 26.5t43 39.5q69 69 194 172.5t164 103.5q15 0 28 -13t13 -28z" />
    <glyph glyph-name="lslash" unicode="&#x142;" horiz-adv-x="614" 
d="M676 1444q0 -4 -12.5 -38t-36 -101t-43.5 -127l-113 -349l16 11q24 13 78.5 50.5t57.5 39.5q1 0 3 1t3 1q13 0 25 -19t12 -32q0 -9 -7 -20t-16 -15q-116 -58 -156 -82l-47 -29l-112 -346q-52 -163 -52 -215q0 -14 9 -22.5t22 -8.5q20 0 72 52q27 27 59 65.5t53 65.5
l21 28q8 8 14 8q16 0 26.5 -9.5t10.5 -22.5q0 -11 -38 -66.5t-94.5 -122t-136.5 -119.5t-151 -53q-52 0 -82 32.5t-30 80.5q0 12 4 30.5t13.5 51t16.5 56t23.5 74t24.5 75.5l69 215l-26 -17q-12 -7 -32.5 -20.5t-36.5 -23.5t-17 -11q-4 -2 -9 -2q-14 0 -27.5 16.5
t-13.5 32.5q0 17 13 23q75 37 147 80l33 20l135 414q39 121 39 174q0 25 -10 35q-11 11 -31 19.5t-40 14t-25 7.5q-15 8 -15 26q0 27 21 31q105 11 205 31q22 4 56 14.5t58.5 18.5t28.5 8h10q14 0 22.5 -11t8.5 -20z" />
    </font>
</defs>
</svg>
