<?xml version="1.0" standalone="no"?>
<!DOCTYPE svg PUBLIC "-//W3C//DTD SVG 1.1//EN" "http://www.w3.org/Graphics/SVG/1.1/DTD/svg11.dtd" >
<svg xmlns="http://www.w3.org/2000/svg" xmlns:xlink="http://www.w3.org/1999/xlink" version="1.1">
<metadata>
Created by FontForge 20201107 at Wed Oct  1 18:21:05 2025
 By 
Copyright (c) 2015 by Bitstream Inc. All rights reserved.
</metadata>
<defs>
<font id="FleischmanBTPro-Italic" horiz-adv-x="1464" >
  <font-face 
    font-family="Fleischman BT Pro"
    font-weight="400"
    font-style="italic"
    font-stretch="normal"
    units-per-em="2048"
    panose-1="2 2 6 2 6 5 2 9 2 6"
    ascent="1638"
    descent="-410"
    x-height="922"
    cap-height="1446"
    bbox="-420 -569 2468 1946"
    underline-thickness="40"
    underline-position="-271"
    slope="-11"
    unicode-range="U+0020-FB05"
  />
<missing-glyph horiz-adv-x="1024" 
d="M256 0v1434h512v-1434h-512zM328 1362v-1290h368v1290h-368z" />
    <glyph glyph-name="f_b" unicode="fb" horiz-adv-x="1556" 
d="M942 1223q-61 12 -61 77q0 22 10 49t10 37q0 17 -26.5 32.5t-75.5 15.5q-59 0 -108.5 -28t-86 -73.5t-69 -116.5t-55 -144.5t-46.5 -170.5q30 0 135 5t109 5q22 0 22 -39q0 -23 -14 -41t-29 -18q-188 6 -241 6q-253 -1010 -383 -1270q-59 -118 -195 -118q-46 0 -75 32
t-29 76q0 43 27 71t67 28q25 0 50.5 -20t45 -40t29.5 -20q17 0 29 12q16 16 45.5 129t74 328.5t75 370.5t81.5 421q-20 0 -75 -2t-58 -2q-29 0 -29 41q0 22 11.5 35.5t25.5 13.5q6 0 63 -2t80 -2q150 574 543 574q97 0 195 -48q29 4 59.5 16t49.5 22t22 10h10q6 0 10 -6.5
t4 -14.5q0 -9 -12.5 -45.5t-36 -98.5t-33.5 -91l-253 -756l8 -6q48 78 91 139.5t97 125t105 105.5t111.5 68.5t119.5 26.5q69 0 104 -43t35 -121q0 -89 -43.5 -198t-115.5 -209t-157 -185t-175.5 -135.5t-163.5 -50.5q-215 0 -215 194q0 70 39 195zM1337 686q0 56 -15 81.5
t-52 25.5q-62 0 -150.5 -72t-164 -171t-129.5 -208t-54 -178q0 -68 22.5 -100.5t73.5 -32.5q53 0 134 68.5t155 166t127 215t53 205.5z" />
    <glyph glyph-name="f_h" unicode="fh" horiz-adv-x="1546" 
d="M1495 778q0 -106 -57 -249t-137 -262t-169 -203t-149 -84q-42 0 -67 23.5t-25 62.5q0 40 22 64t60 24q18 0 60 -25t63 -25q15 0 30 15q89 89 152 265t63 312q0 51 -12.5 77t-48.5 26q-61 0 -176 -118t-207.5 -252t-108.5 -193l-61 -226q-6 -30 -92 -30q-36 0 -49 10.5
t-13 29.5q0 4 11 41l362 1162q-61 12 -61 77q0 22 10 49t10 37q0 16 -28.5 32t-77.5 16q-59 0 -108.5 -28t-86 -73.5t-69 -116.5t-55 -144.5t-46.5 -170.5q30 0 135 5t109 5q22 0 22 -39q0 -23 -14 -41t-29 -18q-188 6 -241 6q-253 -1010 -383 -1270q-59 -118 -195 -118
q-46 0 -75 32t-29 76q0 43 27 71t67 28q25 0 50.5 -20t45 -40t29.5 -20q17 0 29 12q16 16 45.5 129t74 328.5t75 370.5t81.5 421q-20 0 -75 -2t-58 -2q-29 0 -29 41q0 22 11.5 35.5t25.5 13.5q6 0 63 -2t80 -2q150 574 543 574q101 0 199 -48q29 4 59.5 16t49.5 22t22 10h10
q6 0 10.5 -6.5t4.5 -14.5q0 -9 -12.5 -45.5t-36 -98.5t-33.5 -91l-271 -811l6 -9q53 84 96 146.5t103.5 138t113 124t114.5 81.5t118 33q123 0 123 -144z" />
    <glyph glyph-name="f_j" unicode="fj" horiz-adv-x="1054" 
d="M1085 1292q0 -48 -29 -76t-75 -28q-35 0 -62.5 25t-27.5 63q0 22 15.5 56t15.5 44q0 11 -10.5 23.5t-37.5 23.5t-65 11q-62 0 -116 -29.5t-93 -78t-72.5 -119.5t-56.5 -144t-43 -162h320q63 0 119 7.5t86 15.5l30 8q7 0 14 -7t7 -14q0 -4 -8 -27t-26.5 -83t-37.5 -131
l-174 -647q-41 -151 -106 -277t-158 -210.5t-191 -84.5q-76 0 -133 43t-57 117q0 42 26 69t62 27q41 0 66.5 -24t25.5 -62q0 -15 -3 -49t-3 -49q0 -29 35 -29q32 0 62 16.5t53.5 42t46.5 68t39.5 82t34.5 96.5t29.5 99t26.5 102l179 696q14 58 14 97q0 15 -22 20.5t-89 5.5
h-286q-271 -993 -410 -1270q-29 -59 -80 -88.5t-110 -29.5q-48 0 -77.5 32t-29.5 76q0 43 27 71t67 28q25 0 49.5 -20t43 -40t28.5 -20q19 0 31 12q53 53 301 1249q-24 0 -75.5 -2t-53.5 -2q-29 0 -29 41q0 22 11.5 35.5t25.5 13.5q6 0 60 -2t79 -2q26 89 58 166t80.5 154.5
t106 131.5t136.5 88t170 34q122 0 194 -56t72 -127z" />
    <glyph glyph-name="f_k" unicode="fk" horiz-adv-x="1495" 
d="M1464 799q0 -242 -430 -303v-4q31 -21 56 -46q39 -39 51 -90.5t12 -150.5q0 -94 13 -131t48 -37q17 0 25 8q2 2 5.5 26.5t17.5 44t43 19.5q26 0 41.5 -16t15.5 -41q0 -48 -38.5 -73t-98.5 -25q-48 0 -96 20.5t-80 52.5q-35 35 -35 82v29q0 142 -9 202.5t-47 98.5
q-43 43 -88 43h-14l-149 -485q-7 -26 -27 -34.5t-62 -8.5q-36 0 -50.5 8.5t-14.5 27.5q0 6 22 72l388 1135q-62 12 -62 77q0 22 10.5 49t10.5 37q0 15 -36.5 31.5t-86.5 16.5q-59 0 -108.5 -28t-86 -73.5t-69 -116.5t-55 -144.5t-46.5 -170.5q30 0 135 5t109 5q22 0 22 -39
q0 -23 -14 -41t-29 -18q-188 6 -241 6q-253 -1010 -383 -1270q-59 -118 -195 -118q-46 0 -75 32t-29 76q0 43 27 71t67 28q25 0 50.5 -20t45 -40t29.5 -20q17 0 29 12q16 16 45.5 129t74 328.5t75 370.5t81.5 421q-20 0 -75 -2t-58 -2q-29 0 -29 41q0 22 11.5 35.5
t25.5 13.5q6 0 63 -2t80 -2q150 574 543 574q117 0 215 -48q29 4 59.5 16t49.5 22t22 10h11q6 0 10 -6.5t4 -14.5q0 -16 -82 -235l-225 -625l4 -2q85 122 222 226t226 104q60 0 94.5 -34t34.5 -89zM1337 725q0 43 -22.5 68.5t-59.5 25.5q-127 0 -389 -287q29 -2 45 -2
q102 0 197 21.5t162 67.5t67 106z" />
    <glyph glyph-name="ff" unicode="ff" horiz-adv-x="1126" 
d="M1561 1315q0 -49 -29 -78t-74 -29q-35 0 -61.5 25t-26.5 63q0 22 13.5 57t13.5 44q0 14 -23.5 25.5t-52.5 11.5q-78 0 -150 -72q-123 -123 -198 -461q30 0 135 5t109 5q22 0 22 -39q0 -23 -14 -41t-29 -18l-50 1q-50 2 -109.5 3.5t-82.5 1.5q-245 -954 -395 -1253
q-59 -119 -190 -119q-46 0 -76.5 32.5t-30.5 76.5q0 42 27 70t67 28q25 0 50 -20t44 -40t29 -20q17 0 29 12q31 31 115.5 403t173.5 830h-387l-49.5 -211.5t-53.5 -226.5t-48.5 -198t-53.5 -204.5t-47.5 -163.5t-51.5 -157.5t-47 -108.5q-59 -118 -194 -118q-46 0 -76.5 32
t-30.5 76q0 42 27.5 70.5t67.5 28.5q25 0 50 -20t43.5 -40t28.5 -20q17 0 29 12q43 43 228 1167q10 55 14 82q-19 0 -73.5 -2t-59.5 -2q-27 0 -27 41q0 22 11.5 35.5t25.5 13.5q6 0 60 -2t77 -2q23 113 82 229.5t123 180.5q147 147 358 147q79 0 138 -32.5t88 -79.5
q136 129 282 129q100 0 165 -47t65 -113zM928 1182q-54 21 -54 82q0 22 15.5 55t15.5 43q0 25 -31 40t-71 15q-51 0 -96.5 -19.5t-79 -49.5t-64 -75.5t-51 -89t-39.5 -99t-29.5 -95.5t-21.5 -88h393q26 117 113 281z" />
    <glyph glyph-name="fi" unicode="fi" horiz-adv-x="1044" 
d="M1085 1292q0 -48 -29 -76t-75 -28q-35 0 -62.5 25t-27.5 63q0 22 15.5 56t15.5 44q0 19 -24.5 38.5t-78.5 19.5q-62 0 -116 -30t-93 -77.5t-74 -120t-58.5 -143.5t-47.5 -162h318q63 0 116.5 7.5t81.5 15.5l27 8q7 0 13.5 -6.5t6.5 -14.5q0 -4 -10.5 -28t-37.5 -87
t-54 -130l-160 -400q-37 -92 -37 -119q0 -20 23 -20q11 0 33.5 17t47 42t46 49.5t38.5 44.5l17 19q6 6 16 6q8 0 17.5 -8t9.5 -18q0 -7 -2 -11q-6 -12 -39 -54t-82.5 -96.5t-112 -96t-112.5 -41.5q-31 0 -56.5 18.5t-25.5 54.5q0 21 7.5 48t16.5 48.5t25 58.5t25 58l172 430
q30 78 30 103q0 13 -22 16.5t-70 3.5h-286q-12 -46 -52 -208.5t-56 -225t-51 -198.5t-55.5 -205.5t-49.5 -165t-53.5 -158.5t-47.5 -109q-59 -118 -197 -118q-46 0 -75 32t-29 76q0 43 27 71t67 28q25 0 49.5 -20t43 -40t28.5 -20q19 0 31 12q13 13 33.5 91.5t49 223t53 277
t61.5 337t59 320.5q-24 0 -71.5 -2t-49.5 -2q-29 0 -29 41q0 22 11.5 35.5t25.5 13.5q6 0 58 -2t75 -2q23 88 54.5 166t80.5 154.5t108.5 131.5t142 88.5t177.5 33.5q122 0 189 -55.5t67 -127.5z" />
    <glyph glyph-name="fl" unicode="fl" horiz-adv-x="1095" 
d="M1178 1454q0 -9 -12.5 -45.5t-36 -98.5t-33.5 -91l-312 -912q-30 -92 -30 -143q0 -25 18 -25t54 38.5t68.5 83.5t61 86t29.5 42q6 6 12 6q9 0 19 -7t10 -19q0 -5 -4 -13q-9 -18 -31.5 -55.5t-63 -94.5t-83.5 -106t-94.5 -84.5t-94.5 -35.5q-33 0 -55 22t-22 51
q0 60 53 213l188 553h-403q-253 -1010 -383 -1270q-59 -118 -195 -118q-46 0 -75 32t-29 76q0 43 27 71t67 28q25 0 50.5 -20t45 -40t29.5 -20q17 0 29 12q16 16 45.5 129t74 328.5t75 370.5t81.5 421q-20 0 -75 -2t-58 -2q-29 0 -29 41q0 22 11.5 35.5t25.5 13.5q6 0 63 -2
t80 -2q150 574 543 574q97 0 195 -48q32 4 64.5 16t52 22t22.5 10h10q6 0 10.5 -6.5t4.5 -14.5zM963 1223q-72 11 -72 77q0 22 10 49t10 37q0 11 -8 21t-34.5 18.5t-69.5 8.5q-59 0 -108.5 -28t-86 -73.5t-69 -116.5t-55 -144.5t-46.5 -170.5q221 0 416 6z" />
    <glyph glyph-name="ffi" unicode="ffi" horiz-adv-x="1587" 
d="M1628 1292q0 -48 -29 -76t-75 -28q-35 0 -62.5 25t-27.5 63q0 22 15 56t15 44q0 19 -24 38.5t-78 19.5q-62 0 -116 -30t-93 -77.5t-74 -120t-58.5 -143.5t-47.5 -162h317q63 0 116.5 7.5t81.5 15.5l28 8q7 0 13.5 -6.5t6.5 -14.5q0 -4 -10.5 -28t-37.5 -87t-54 -130
l-160 -400q-37 -92 -37 -119q0 -20 23 -20q11 0 33.5 17t47 42t46 49.5t38.5 44.5l17 19q6 6 16 6q8 0 17.5 -8t9.5 -18q0 -7 -2 -11q-6 -12 -39 -54t-82.5 -96.5t-112 -96t-112.5 -41.5q-31 0 -56.5 18.5t-25.5 54.5q0 21 7.5 48.5t16 48t25 58.5t24.5 58l172 430
q31 80 31 103q0 13 -21.5 16.5t-70.5 3.5h-287q-247 -962 -393 -1253q-59 -119 -190 -119q-46 0 -76.5 32.5t-30.5 76.5q0 42 27 70t67 28q25 0 50 -20t44 -40t29 -20q17 0 29 12q31 31 115.5 403t173.5 830h-387l-49.5 -211.5t-53.5 -226.5t-48.5 -198t-53.5 -204.5
t-47.5 -163.5t-51.5 -157.5t-47 -108.5q-59 -118 -194 -118q-46 0 -76.5 32t-30.5 76q0 42 27.5 70.5t67.5 28.5q25 0 50 -20t43.5 -40t28.5 -20q17 0 29 12q43 43 228 1167q10 55 14 82q-19 0 -73.5 -2t-59.5 -2q-27 0 -27 41q0 22 11.5 35.5t25.5 13.5q6 0 60 -2t77 -2
q23 113 82 229.5t123 180.5q147 147 358 147q79 0 138 -32.5t88 -79.5q136 129 323 129q122 0 189 -55.5t67 -127.5zM926 1182q-52 20 -52 82q0 22 15.5 55t15.5 43q0 25 -31 40t-71 15q-51 0 -96.5 -19.5t-79 -49.5t-64 -75.5t-51 -89t-39.5 -99t-29.5 -95.5t-21.5 -88h393
q33 149 111 281z" />
    <glyph glyph-name="ffl" unicode="ffl" horiz-adv-x="1638" 
d="M1720 1454q0 -9 -12.5 -45.5t-36 -98.5t-33.5 -91l-311 -912q-31 -96 -31 -143q0 -25 19 -25q18 0 54 38.5t68.5 83.5t61 86t29.5 42q6 6 12 6q9 0 19 -7t10 -19q0 -5 -4 -13q-9 -18 -31.5 -55.5t-63 -94.5t-83.5 -106t-94.5 -84.5t-94.5 -35.5q-33 0 -55.5 22t-22.5 51
q0 57 54 213l188 553h-406q-103 -403 -211 -750.5t-186 -502.5q-59 -119 -190 -119q-46 0 -76.5 32.5t-30.5 76.5q0 42 27 70t67 28q25 0 50 -20t44 -40t29 -20q17 0 29 12q31 31 115.5 403t173.5 830h-387l-49.5 -211.5t-53.5 -226.5t-48.5 -198t-53.5 -204.5t-47.5 -163.5
t-51.5 -157.5t-47 -108.5q-59 -118 -194 -118q-46 0 -76.5 32t-30.5 76q0 42 27.5 70.5t67.5 28.5q25 0 50 -20t43.5 -40t28.5 -20q17 0 29 12q43 43 228 1167q10 55 14 82q-19 0 -73.5 -2t-59.5 -2q-27 0 -27 41q0 22 11.5 35.5t25.5 13.5q6 0 60 -2t77 -2q23 113 82 229.5
t123 180.5q147 147 358 147q79 0 138 -32.5t88 -79.5q136 129 313 129q96 0 194 -48q32 4 64.5 16t52.5 22t23 10h10q6 0 10 -6.5t4 -14.5zM1505 1223q-71 10 -71 77q0 22 10 49t10 37q0 8 -5 15.5t-16.5 15t-35 12.5t-56.5 5q-59 0 -108.5 -28t-85.5 -73.5t-68.5 -116.5
t-55 -144.5t-46.5 -170.5q221 0 416 6zM926 1182q-52 20 -52 82q0 22 15.5 55t15.5 43q0 25 -31 40t-71 15q-51 0 -96.5 -19.5t-79 -49.5t-64 -75.5t-51 -89t-39.5 -99t-29.5 -95.5t-21.5 -88h393q33 149 111 281z" />
    <glyph glyph-name=".notdef" horiz-adv-x="1024" 
d="M256 0v1434h512v-1434h-512zM328 1362v-1290h368v1290h-368z" />
    <glyph glyph-name=".null" horiz-adv-x="0" 
 />
    <glyph glyph-name="nonmarkingreturn" horiz-adv-x="682" 
 />
    <glyph glyph-name="space" unicode=" " horiz-adv-x="512" 
 />
    <glyph glyph-name="exclam" unicode="!" horiz-adv-x="573" 
d="M625 1311q0 -55 -36.5 -153.5t-84.5 -198t-103.5 -237.5t-83.5 -251l-10 -41q-12 -51 -37 -51q-17 0 -33 8.5t-16 22.5q0 9 6.5 30.5t8.5 30.5l8 31q36 137 58.5 299.5t30.5 268.5t29 199t58 130q35 35 82 35q54 0 88.5 -34.5t34.5 -88.5zM297 102q0 -51 -36 -86.5
t-87 -35.5t-87 35.5t-36 86.5t36 87t87 36t87 -36t36 -87z" />
    <glyph glyph-name="quotedbl" unicode="&#x22;" horiz-adv-x="573" 
d="M707 1346q0 -16 -71 -181.5t-83 -189.5q-6 -12 -21 -12q-9 0 -14.5 6t-5.5 14l31 369q2 33 22.5 57.5t52.5 24.5q43 0 66 -22.5t23 -65.5zM440 1346q0 -16 -71 -182t-82 -189q-6 -12 -21 -12q-9 0 -14.5 6t-5.5 14l30 369q2 33 23 57.5t53 24.5q88 0 88 -88z" />
    <glyph glyph-name="numbersign" unicode="#" horiz-adv-x="1085" 
d="M1106 700q0 -28 -10 -50.5t-31 -22.5q-13 0 -95 2t-110 2h-33l-122 -348q76 0 166.5 2t91.5 2q8 0 15 -8.5t7 -22.5q0 -26 -9.5 -51t-23.5 -25t-93 2t-101 2h-88l-113 -356q-3 -12 -16.5 -19.5t-28.5 -7.5q-28 0 -44.5 11.5t-16.5 23.5q0 10 71 215l47 133h-245
l-123 -356q-7 -27 -37 -27q-28 0 -46 10t-18 27q0 2 84 238l37 108q-66 0 -128 -2t-64 -2q-9 0 -19 8.5t-10 22.5q0 31 10 53.5t31 22.5q7 0 84 -2t100 -2h27l125 348q-80 0 -151 -2l-72 -2q-9 0 -20 9t-11 23q0 78 41 78q7 0 74 -2t90 -2h84l116 348q3 12 16.5 21.5
t28.5 9.5q62 0 62 -37q0 -2 -72 -205l-49 -137h246l121 348q8 31 47 31q55 0 55 -37q0 -1 -72 -198l-51 -144q46 0 95 1t81.5 2t38.5 1q10 0 20.5 -9.5t10.5 -27.5zM725 631h-246l-123 -348h246z" />
    <glyph glyph-name="dollar" unicode="$" horiz-adv-x="675" 
d="M625 784q0 -39 -25 -66.5t-61 -27.5t-57 21.5t-21 54.5q0 6 4 23t4 26q0 24 -21 34.5t-49 10.5q-43 0 -74.5 -38.5t-31.5 -94.5q0 -50 28.5 -110t62.5 -108.5t62.5 -119t28.5 -139.5q0 -102 -75.5 -181t-180.5 -87l-51 -166q-3 -13 -15 -22t-28 -9t-29.5 8.5t-13.5 22.5
q0 3 15.5 32t38 70t32.5 62q-69 8 -113.5 47.5t-44.5 105.5q0 39 27 67.5t65 28.5q39 0 63.5 -23.5t24.5 -60.5q0 -9 -3 -35.5t-3 -39.5q0 -18 17 -26.5t41 -8.5q59 0 85.5 42t26.5 101q0 38 -26 97.5t-57 113.5t-57 127t-26 135q0 109 74.5 190t200.5 81l47 153
q3 12 15.5 21.5t27.5 9.5q17 0 30 -7.5t13 -21.5q0 -3 -14 -29t-36.5 -67t-35.5 -68q51 -15 83 -48t32 -81z" />
    <glyph glyph-name="percent" unicode="%" horiz-adv-x="1751" 
d="M1526 1372q0 -7 -2.5 -15t-5.5 -12l-2 -4q-154 -163 -246 -276l-563 -686q-53 -65 -130.5 -162t-128.5 -161t-53 -66q-10 -10 -26 -10q-23 0 -42.5 19t-19.5 42q0 7 2.5 15t4.5 12l3 4q154 163 246 276l563 686q53 65 130.5 162t128.5 161t53 66q11 11 26 11
q23 0 42.5 -19.5t19.5 -42.5zM1669 522q0 -65 -20.5 -139t-60.5 -145t-93.5 -129t-125.5 -93.5t-150 -35.5q-59 0 -104 22.5t-71 61t-38.5 84.5t-12.5 98q0 99 44.5 195.5t112 164.5t146.5 110t148 42q119 0 172 -59.5t53 -176.5zM1604 522q0 76 -34 125t-106 49
q-88 0 -165 -75.5t-119.5 -186t-42.5 -219.5q0 -168 133 -168q80 0 159.5 78t127 189t47.5 208zM860 1198q0 -82 -33 -176t-90 -176t-144 -136.5t-183 -54.5q-114 0 -170 77.5t-56 189.5q0 99 44.5 195.5t112 164.5t146.5 110t148 42q119 0 172 -59.5t53 -176.5zM795 1198
q0 76 -34 125t-106 49q-88 0 -165 -75.5t-119.5 -186t-42.5 -219.5q0 -168 133 -168q80 0 159.5 78t127 189t47.5 208z" />
    <glyph glyph-name="ampersand" unicode="&#x26;" horiz-adv-x="1638" 
d="M1751 1188q0 -84 -32 -153t-80 -110.5t-107.5 -69.5t-109.5 -39t-91 -11q-27 0 -70.5 2t-62.5 2l-61 -6v-6q88 -29 144 -112t56 -183q0 -72 -23.5 -145t-73.5 -141t-119 -120.5t-169 -84t-215 -31.5q-122 0 -230 31.5t-195 93t-138 164t-51 233.5q0 82 28.5 153.5
t69 114.5t81 74.5t68.5 43.5l29 13q-5 8 -11.5 22.5t-18 60t-11.5 91.5q0 153 115.5 256t284.5 103q86 0 145.5 -49.5t59.5 -124.5q0 -52 -32 -87.5t-91 -35.5q-44 0 -73.5 31t-29.5 71q0 24 15.5 52.5t15.5 29.5q0 12 -16 21.5t-45 9.5q-30 0 -64 -10t-70 -32.5
t-64.5 -54.5t-46.5 -81.5t-18 -108.5q0 -36 7 -69.5t13 -48.5l7 -15q61 20 92 20q56 0 86.5 -30t30.5 -72q0 -45 -32.5 -79t-90.5 -34q-34 0 -68 28.5t-51 56.5l-18 28q-6 -3 -16.5 -9t-37 -30t-47 -53t-37 -78.5t-16.5 -106.5q0 -77 36.5 -154.5t98.5 -138.5t151 -99
t185 -38q122 0 222.5 32t162 84t94.5 115t33 128t-24.5 119.5t-61.5 87.5t-72.5 52.5t-66.5 26.5q-80 0 -122 -42.5t-42 -104.5q0 -29 15 -48.5t40 -19.5q5 36 31 64.5t68 28.5q38 0 62 -27t24 -66t-34 -73.5t-103 -34.5q-70 0 -122.5 52.5t-52.5 127.5q0 78 31.5 137
t87.5 94t123 53.5t148 22.5q45 2 71 3.5t70.5 6t72.5 10.5t66.5 16.5t62.5 24.5t51 34.5t42 46t25 60t10 75.5q0 80 -47.5 127t-106.5 47q-16 0 -28.5 -8.5t-12.5 -22.5q0 -2 10.5 -27.5t10.5 -44.5q0 -45 -33 -73.5t-80 -28.5q-53 0 -83 34t-30 89q0 66 61 112t134 46
q125 0 216 -84.5t91 -206.5z" />
    <glyph glyph-name="quotesingle" unicode="'" horiz-adv-x="307" 
d="M440 1346q0 -16 -71 -182t-82 -189q-6 -12 -21 -12q-9 0 -14.5 6t-5.5 14l30 369q2 33 23 57.5t53 24.5q88 0 88 -88z" />
    <glyph glyph-name="parenleft" unicode="(" horiz-adv-x="716" 
d="M1065 1378q0 -19 -12 -29t-29 -12q-161 -27 -308.5 -117.5t-260 -226t-179.5 -320t-67 -386.5q0 -211 73 -385.5t189 -290.5q12 -12 28.5 -28t26 -25t19 -19.5t14 -17.5t4.5 -13q0 -14 -12 -27t-25 -13q-12 0 -34.5 17.5t-79.5 74.5q-136 136 -223 336.5t-87 435.5
q0 149 36.5 286t98 241.5t142 194.5t167 153t175 109t165.5 69.5t138 27.5q17 0 29 -9t12 -26z" />
    <glyph glyph-name="parenright" unicode=")" horiz-adv-x="716" 
d="M614 543q0 -149 -36.5 -285.5t-97.5 -240.5t-141.5 -193.5t-167 -152t-175.5 -108t-165 -68.5t-138 -27q-41 0 -41 34q0 19 12 29t29 12q129 22 250 83t223 157.5t179 218t120 273t43 313.5q0 211 -73.5 389t-188.5 293q-12 12 -28.5 27.5t-26 25t-19 19.5t-14 17
t-4.5 13q0 14 11.5 27.5t24.5 13.5q23 0 115 -92q135 -135 222 -339t87 -439z" />
    <glyph glyph-name="asterisk" unicode="*" horiz-adv-x="890" 
d="M891 825q0 -24 -17.5 -39.5t-44.5 -15.5q-46 0 -90.5 25t-74.5 57t-70.5 75.5t-69.5 65.5l-6 -4q0 -13 33 -119t33 -153q0 -62 -20.5 -97.5t-55.5 -35.5q-34 0 -56 36t-22 97q0 47 33 153t33 119l-9 4q-29 -22 -69.5 -65.5t-69.5 -75.5t-73.5 -57t-90.5 -25
q-27 0 -44 15.5t-17 39.5q0 38 24 62q32 32 79.5 54t88.5 31t89.5 19.5t72.5 20.5v10q-24 10 -72.5 20.5t-89.5 19.5t-88.5 31t-79.5 54q-24 24 -24 61q0 24 17 40t44 16q46 0 90.5 -25.5t73.5 -57t69.5 -75.5t69.5 -66l9 7q0 13 -33 117t-33 157q0 58 19.5 95.5t58.5 37.5
q34 0 55 -38.5t21 -94.5q0 -53 -33 -157t-33 -117l6 -7q29 22 69.5 66t70.5 75.5t74.5 57t90.5 25.5q27 0 44.5 -16t17.5 -40q0 -34 -27 -61q-40 -40 -101 -63t-130.5 -37.5t-95.5 -24.5v-10q26 -10 94.5 -23.5t129 -36t103.5 -65.5q27 -27 27 -62z" />
    <glyph glyph-name="plus" unicode="+" horiz-adv-x="1024" 
d="M963 430q0 -14 -6.5 -24.5t-14.5 -10.5q-14 0 -88 2t-96 2h-195v-82q0 -76 1 -143t2 -106t1 -48q0 -20 -24 -20h-62q-24 0 -24 20q0 14 2 88.5t2 96.5v194h-82q-76 0 -143 -1t-106 -2t-48 -1q-21 0 -21 25v41q0 15 7 30t14 15q14 0 88 -2t96 -2h195v82q0 76 -1 143
t-2 106t-1 48q0 20 24 20h62q24 0 24 -20q0 -14 -2 -88.5t-2 -96.5v-194h82q76 0 143 1t106 2t48 1q21 0 21 -25v-51z" />
    <glyph glyph-name="comma" unicode="," horiz-adv-x="532" 
d="M369 31q0 -56 -23 -108.5t-58 -90.5t-76 -67t-78 -43.5t-62 -14.5q-10 0 -15.5 7.5t-5.5 17.5q0 7 21 12q14 3 41 19t62.5 45t61 80.5t25.5 111.5q0 14 -2.5 24t-5.5 14l-2 3h-6q-3 -6 -10 -15t-31 -24.5t-51 -15.5q-52 0 -77.5 32.5t-25.5 73.5q0 48 42.5 90.5
t101.5 42.5q76 0 125 -54.5t49 -139.5z" />
    <glyph glyph-name="hyphen" unicode="-" horiz-adv-x="614" 
d="M532 502q0 -50 -17.5 -81.5t-53.5 -31.5h-365q-35 0 -35 41q0 43 14 67.5t31 24.5h160q49 0 90 1t66 2.5t42.5 3t26.5 2.5t11 1q30 0 30 -30z" />
    <glyph glyph-name="period" unicode="." horiz-adv-x="491" 
d="M307 102q0 -51 -36 -86.5t-87 -35.5t-87 35.5t-36 86.5t36 87t87 36t87 -36t36 -87z" />
    <glyph glyph-name="slash" unicode="/" horiz-adv-x="921" 
d="M963 1403q0 -8 -19 -45.5t-72 -138t-94 -181.5l-553 -1089q-37 -73 -89.5 -187t-90.5 -199t-39 -87q-14 -29 -57 -29q-23 0 -37 14t-14 37q0 6 11.5 31.5t34 69.5t44 86t53.5 103.5t51 98.5l543 1076q37 74 89.5 185.5t90.5 194t39 84.5q14 27 47 27q24 0 43 -14.5
t19 -36.5z" />
    <glyph glyph-name="zero" unicode="0" horiz-adv-x="942" 
d="M870 608q0 -79 -22 -165t-67 -168.5t-105.5 -148.5t-145 -106t-178.5 -40q-75 0 -134 28.5t-94.5 77.5t-54 110t-18.5 130q0 117 50 229.5t126.5 191.5t169 127t176.5 48q152 0 224.5 -82t72.5 -232zM799 614q0 98 -46.5 167t-142.5 69q-77 0 -149 -51.5t-122 -132
t-80 -179.5t-30 -192q0 -46 9 -85.5t28.5 -74t56 -54.5t87.5 -20q97 0 189 90t146 218t54 245z" />
    <glyph glyph-name="one" unicode="1" horiz-adv-x="696" 
d="M696 881q0 -14 -7 -24.5t-21 -10.5q-123 0 -140 -17q-22 -22 -47 -133l-106 -471q-27 -128 -27 -139q0 -10 4 -14q17 -17 154 -17q8 0 13 -7t5 -17q0 -35 -22 -35l-36 1q-35 1 -96 2t-124 1q-68 0 -121.5 -1t-80.5 -2t-30 -1q-10 0 -17 7.5t-7 16.5q0 14 7 24.5t17 10.5
q129 0 146 17q20 20 45 133l112 471q25 105 25 137q0 10 -6 16q-17 17 -154 17q-8 0 -13 7t-5 17q0 35 22 35l35 -1q35 -1 98.5 -2t131.5 -1q46 0 85 0.5t62.5 1t40.5 1t26 1t11 0.5q8 0 14 -7.5t6 -16.5z" />
    <glyph glyph-name="two" unicode="2" horiz-adv-x="880" 
d="M778 676q0 -47 -13 -91.5t-32.5 -81.5t-54.5 -74.5t-68.5 -66.5t-85 -62t-92.5 -56.5t-103.5 -53.5t-105.5 -49.5t-110 -48.5l2 -6q59 27 161 27q44 0 139 -15.5t179 -15.5q46 0 80.5 32t48.5 60q4 8 16 8q5 0 12 -5.5t7 -12.5q0 -24 -32 -78t-90 -105t-114 -51
q-62 0 -126.5 17.5t-110 38t-104 38t-109.5 17.5q-20 0 -31 -21q0 -1 -3.5 -8.5t-6.5 -13t-9 -13.5t-12 -13t-16 -9t-21 -4q-15 0 -30 11.5t-15 35.5q0 20 15 35q28 28 139 82q88 44 157.5 84t141.5 91.5t119.5 102t77.5 111.5t30 123q0 81 -47 122.5t-121 41.5
q-79 0 -136.5 -51.5t-57.5 -133.5q0 -20 4 -39.5t10 -33.5t12.5 -25t10.5 -17t4 -7q0 -8 -6.5 -14.5t-14.5 -6.5q-29 0 -55.5 49t-26.5 115q0 124 93.5 205.5t214.5 81.5q129 0 207.5 -69t78.5 -177z" />
    <glyph glyph-name="three" unicode="3" horiz-adv-x="860" 
d="M768 655q0 -125 -85 -220.5t-243 -158.5l2 -6q113 0 189 -90t76 -221q0 -135 -71 -241t-190 -163t-262 -57q-126 0 -216.5 70.5t-90.5 175.5q0 69 38.5 111.5t98.5 42.5q50 0 84.5 -33.5t34.5 -79.5q0 -29 -9.5 -52t-23 -35.5t-27 -21t-23.5 -11.5l-9 -3q0 -11 6 -25.5
t22.5 -33.5t54 -32t91.5 -13q78 0 140 28.5t100 77.5t57.5 111.5t19.5 132.5q0 75 -26.5 140.5t-86.5 111t-143 45.5q-11 0 -29 -5t-22 -5q-6 0 -8.5 0.5t-7.5 2.5t-7.5 7.5t-2.5 15.5q0 20 26 25q187 43 288 146t101 212q0 92 -51 138t-133 46q-90 0 -142 -52.5t-52 -131.5
q0 -27 7.5 -53.5t15 -42t7.5 -16.5q0 -8 -7.5 -14.5t-18.5 -6.5q-8 0 -23 18.5t-29 56t-14 79.5q0 76 30 136t78 93.5t99 50.5t100 17q145 0 216 -75t71 -192z" />
    <glyph glyph-name="four" unicode="4" horiz-adv-x="1003" 
d="M932 184q0 -4 -11.5 -25t-32 -65.5t-38.5 -93.5q-3 -8 -14 -8q-3 0 -28 2t-66.5 4t-86.5 2h-20l-113 -451q-5 -25 -10.5 -33t-19.5 -8h-123q-21 0 -21 15q0 4 6.5 28.5t17 64t17.5 67.5l82 317h-430q-36 0 -67 -2t-48 -4t-20 -2q-8 0 -13.5 5.5t-5.5 12.5q0 10 11 21
q1 1 36 34.5t81.5 79t80.5 80.5l590 604q58 58 82.5 75.5t40.5 17.5h31q24 0 24 -21q0 -6 -4.5 -20t-19.5 -64t-33 -121l-141 -563h51q32 0 46.5 0.5t36.5 3t34 7.5t25 15t22 25q13 21 24 21t19 -6.5t8 -14.5zM655 696h-6l-536 -559l4 -4h385l106 399z" />
    <glyph glyph-name="five" unicode="5" horiz-adv-x="921" 
d="M942 967q0 -27 -23.5 -89.5t-66 -122t-84.5 -59.5q-50 0 -151 16.5t-177 33.5l-75 16l-7 -4l-110 -262l4 -4q132 -5 243.5 -55t182 -146t70.5 -219q0 -130 -49 -240t-129.5 -182t-181 -112t-204.5 -40q-132 0 -224.5 76t-92.5 190q0 68 37.5 111t95.5 43q54 0 88.5 -34.5
t34.5 -88.5q0 -26 -9.5 -47t-23 -32.5t-27 -19.5t-23.5 -10l-9 -3q0 -11 8 -28.5t25.5 -40t57.5 -38.5t93 -16q103 0 189.5 62.5t133 158.5t46.5 199q0 104 -52.5 182t-137.5 116.5t-189 38.5q-22 0 -42 -6t-31.5 -12t-14.5 -6q-23 0 -23 20q0 4 6.5 16.5t16.5 31.5t16 32
l133 303q17 39 41.5 115.5t30.5 99.5q3 11 16 11q53 -16 171.5 -28.5t242.5 -12.5q55 0 84.5 25t48.5 67q7 10 21 10q6 0 13 -4.5t7 -11.5z" />
    <glyph glyph-name="six" unicode="6" horiz-adv-x="972" 
d="M1024 1397q0 -12 -15 -21.5t-51 -23.5q-152 -64 -305 -203.5t-223 -288.5l4 -6q78 37 150 37q98 0 169.5 -51.5t104.5 -129t33 -167.5q0 -112 -44 -217t-114.5 -180t-161.5 -120.5t-182 -45.5q-136 0 -221.5 92.5t-85.5 275.5q0 116 36 244.5t112.5 259.5t183 244
t260 201t330.5 126q9 0 14.5 -8t5.5 -18zM717 584q0 113 -49.5 182.5t-145.5 69.5q-40 0 -70 -12.5t-42 -24.5q-18 -18 -46.5 -66.5t-61 -120.5t-55 -171t-22.5 -195q0 -215 164 -215q73 0 137 53t104.5 135.5t63.5 178.5t23 186z" />
    <glyph glyph-name="seven" unicode="7" horiz-adv-x="901" 
d="M1034 891q0 -11 -10 -21q-1 -1 -16 -14t-46 -41t-76.5 -70.5t-122.5 -117t-169 -166.5q-111 -111 -197 -215t-134 -178t-79 -139t-41 -102.5t-10 -62.5q0 -20 17.5 -37t39 -28t39 -34t17.5 -54q0 -47 -35 -80t-88 -33q-56 0 -94.5 38.5t-38.5 105.5q0 89 53.5 204.5
t118.5 210t186.5 232t189 206.5t194.5 196l50 50l-4 7h-491q-65 0 -123 -58q-55 -55 -72 -55q-14 0 -22.5 9t-8.5 22q0 5 18.5 29.5t45 61t39.5 62.5t25 56.5t18.5 48t7.5 18.5q8 8 21 8q12 0 16 -18q6 -31 76 -31h512q36 0 77 2t68.5 4t30.5 2q8 0 13 -5.5t5 -12.5z" />
    <glyph glyph-name="eight" unicode="8" horiz-adv-x="1003" 
d="M1034 1178q0 -57 -24 -109.5t-59 -90.5t-87 -74t-96 -59t-98 -46q103 -129 129 -169q71 -110 71 -220q0 -97 -38.5 -179t-103 -136t-147 -84.5t-171.5 -30.5q-106 0 -190 36.5t-136.5 114t-52.5 186.5q0 146 110.5 252t319.5 189q-3 5 -34 47.5t-39 55t-31 51t-31 61
t-16.5 57t-8.5 66.5q0 138 122.5 238t293.5 100q147 0 232 -68t85 -188zM881 1167q0 84 -52 147.5t-143 63.5q-89 0 -152 -67.5t-63 -153.5q0 -80 43.5 -154.5t120.5 -162.5q113 55 179.5 145t66.5 182zM696 338q0 95 -46 178.5t-154 200.5q-130 -58 -215.5 -175t-85.5 -255
q0 -110 65 -178t160 -68q116 0 196 92.5t80 204.5z" />
    <glyph glyph-name="nine" unicode="9" horiz-adv-x="1003" 
d="M891 553q0 -116 -37 -244.5t-114.5 -259.5t-184.5 -244t-259.5 -201t-326.5 -126q-7 0 -13.5 8.5t-6.5 17.5q0 17 71 45q151 63 302 202.5t221 289.5l-4 6q-79 -37 -140 -37q-81 0 -144 29.5t-99.5 79.5t-55 110.5t-18.5 128.5q0 112 44 217t114.5 180.5t161.5 121
t182 45.5q136 0 221.5 -93t85.5 -276zM748 655q0 215 -164 215q-74 0 -137.5 -51t-104 -131.5t-63.5 -175t-23 -184.5q0 -262 205 -262q65 0 112 47q15 15 41 61t57.5 116.5t54 169.5t22.5 195z" />
    <glyph glyph-name="colon" unicode=":" horiz-adv-x="614" 
d="M522 758q0 -51 -36 -87t-87 -36t-87 36t-36 87t36 87t87 36t87 -36t36 -87zM307 123q0 -51 -36 -87t-87 -36t-87 36t-36 87t36 87t87 36t87 -36t36 -87z" />
    <glyph glyph-name="semicolon" unicode=";" horiz-adv-x="614" 
d="M512 758q0 -51 -36 -87t-87 -36t-87 36t-36 87t36 87t87 36t87 -36t36 -87zM358 51q0 -69 -34.5 -132t-83.5 -103t-98 -64t-81 -24q-20 0 -20 24q0 7 20 12q10 2 29.5 11.5t48.5 31t53.5 49.5t42 71.5t17.5 92.5q0 14 -2.5 24t-5.5 14l-2 3h-6q-1 -2 -3.5 -6t-11.5 -13.5
t-19 -16.5t-26 -13t-33 -6q-52 0 -77 32.5t-25 74.5q0 48 42 90.5t101 42.5q76 0 125 -55t49 -140z" />
    <glyph glyph-name="less" unicode="&#x3c;" horiz-adv-x="768" 
d="M635 850q0 -6 -6 -12q-5 -5 -66.5 -60.5t-97.5 -91.5l-236 -235l195 -195q45 -45 91.5 -88.5t77 -71t36.5 -33.5q2 -2 2 -6q0 -20 -27 -47q-30 -30 -41 -30q-6 0 -12 6q-5 5 -31 32.5t-72 75t-100 101.5l-123 122q-22 22 -50 48t-48 44t-23 21q-12 12 -12 21q0 8 12 20
q3 3 23 21t48 44t50 48l205 204q17 17 64.5 67.5t56.5 59.5q7 7 12 7q10 0 41 -31t31 -41z" />
    <glyph glyph-name="equal" unicode="=" horiz-adv-x="1024" 
d="M952 573q0 -15 -6 -24.5t-14 -9.5q-14 0 -88 2t-96 2h-359q-76 0 -143 -1t-106 -2t-48 -1q-20 0 -20 24v41q0 15 6.5 30t13.5 15q14 0 88 -2t96 -2h359q76 0 143 1t106 2t48 1q20 0 20 -24v-52zM952 297q0 -15 -6.5 -30t-13.5 -15q-14 0 -88 2t-96 2h-359q-76 0 -143 -1
t-106 -2t-48 -1q-20 0 -20 24v52q0 14 6 24t14 10q14 0 88 -2t96 -2h359q76 0 143 1t106 2t48 1q20 0 20 -24v-41z" />
    <glyph glyph-name="greater" unicode="&#x3e;" horiz-adv-x="768" 
d="M676 451q0 -9 -12 -21q-3 -3 -23 -21t-48 -44t-50 -48l-123 -122q-54 -54 -100 -101.5t-72 -75t-31 -32.5q-6 -6 -12 -6q-11 0 -41 30q-27 27 -27 47q0 4 2 6q5 5 36.5 32.5t77.5 70.5t91 90l195 195l-236 235q-36 36 -97.5 91.5t-66.5 60.5q-6 6 -6 12q0 10 31 41t41 31
q5 0 12 -7q9 -9 56.5 -59.5t64.5 -67.5l205 -204q22 -22 50 -48t48 -44t23 -21q12 -12 12 -20z" />
    <glyph glyph-name="question" unicode="?" horiz-adv-x="870" 
d="M911 1096q0 -87 -29.5 -156t-76.5 -112t-103.5 -76.5t-113 -57.5t-103.5 -47.5t-76.5 -54.5t-29.5 -70q0 -52 32.5 -82t80.5 -30q18 0 31 7.5t18.5 15.5t10 17.5t5.5 10.5q12 12 27 12q21 0 31 -12t10 -27q0 -35 -48.5 -65.5t-115.5 -30.5q-97 0 -166.5 69t-69.5 156
q0 72 51 123q34 34 101 69t130.5 65.5t124.5 71t98.5 102.5t37.5 143q0 101 -72 163t-194 62q-64 0 -114 -35.5t-50 -87.5q0 -15 6.5 -28t13.5 -13q1 0 19.5 5t42.5 5q35 0 63.5 -26t28.5 -76q0 -51 -37 -82t-86 -31q-60 0 -101.5 44t-41.5 130q0 112 93.5 189.5t213.5 77.5
q167 0 262.5 -91.5t95.5 -246.5zM381 102q0 -54 -34.5 -88t-88.5 -34t-88.5 34t-34.5 88t34.5 88.5t88.5 34.5t88.5 -34.5t34.5 -88.5z" />
    <glyph glyph-name="at" unicode="@" horiz-adv-x="1751" 
d="M1618 696q0 -153 -101.5 -305t-254.5 -246t-299 -94q-68 0 -68 72q0 31 23.5 92.5t58.5 122.5l70 123l-5 4q-75 -103 -155.5 -192t-170.5 -155.5t-153 -66.5q-53 0 -82.5 34t-29.5 89q0 93 57 214.5t140.5 225t187 175t188.5 71.5q54 0 82 -33.5t35 -68.5l26 71
q6 15 16.5 22t20 8t29.5 1q35 0 61.5 -8.5t26.5 -24.5q0 -7 -23 -53l-143 -305q-40 -86 -75.5 -183.5t-35.5 -121.5q0 -21 25 -21q104 0 203 80.5t161 212t62 271.5q0 111 -40.5 195.5t-111.5 134t-159 74t-191 24.5q-137 0 -258 -46.5t-209 -125t-152 -181t-96 -216.5
t-32 -228q0 -119 36.5 -224t108.5 -190.5t192.5 -135.5t276.5 -50q159 0 297 46.5t215 123.5q23 23 35.5 54.5t14 50t1.5 48.5q0 32 21 57t51 25q72 0 72 -71q0 -37 -36.5 -89.5t-105.5 -108t-156 -103.5t-201 -78.5t-228 -30.5q-158 0 -291 43.5t-230 124.5t-151.5 203.5
t-54.5 273.5q0 111 33 222.5t91 209t141.5 182.5t180.5 146t212 96t233 35q92 0 178 -17.5t166 -56.5t139.5 -96t95 -142.5t35.5 -189.5zM1100 707q0 81 -72 81q-48 0 -119 -65.5t-133 -154.5t-106.5 -186.5t-44.5 -156.5q0 -25 7.5 -35t33.5 -10q45 0 150.5 101t194.5 230
t89 196z" />
    <glyph glyph-name="A" unicode="A" horiz-adv-x="1361" 
d="M1403 1430q0 -4 -16 -48t-44 -123.5t-49 -152.5l-270 -901q-20 -65 -20 -101q0 -14 8 -22q10 -10 40 -13t109 -3q27 0 27 -33t-31 -33h-174q-58 0 -141.5 -3.5t-144.5 -7t-64 -3.5q-25 0 -25 32q0 33 27 33q110 0 141 31q13 13 22 34t33 89l132 387q1 3 2.5 8.5t2.5 9.5
t1 6q0 11 -13 11l-350 -21q-21 -2 -47 -28l-256 -271q-52 -55 -88.5 -114.5t-36.5 -88.5q0 -14 8 -22q10 -10 42 -13t110 -3q24 0 24 -33t-28 -33h-172q-84 0 -209 -6t-133 -6q-25 0 -25 32q0 33 27 33q54 0 112 23q60 24 267 231l1124 1120q35 35 47 35q31 0 31 -32z
M1149 1143q0 8 -8 8q-9 0 -49 -37l-410 -407q-23 -23 -23 -31t11 -8l305 8q9 0 13.5 3t6 6t4.5 11l140 410q10 31 10 37z" />
    <glyph glyph-name="B" unicode="B" horiz-adv-x="1310" 
d="M1270 1135q0 -84 -32.5 -156.5t-86.5 -121t-119.5 -79.5t-134.5 -41v-4q295 -74 295 -303q0 -91 -31 -165t-84 -124.5t-125 -85t-152.5 -50t-168.5 -15.5q-77 0 -203.5 5t-171.5 5q-44 0 -103 -1.5t-102 -3t-47 -1.5q-24 0 -24 33q0 32 24 32q143 0 164 21q23 23 53 125
l314 1044q18 59 18 82q0 17 -10 27q-13 13 -47.5 16.5t-118.5 3.5q-25 0 -25 33t25 33q2 0 106.5 -3t155.5 -3q28 0 121 4t137 4q178 0 275.5 -87t97.5 -224zM1096 1147q0 120 -66.5 183t-193.5 63q-41 0 -58 -17q-21 -21 -33 -65l-159 -533q66 -12 127 -12q193 0 288 87
t95 294zM999 430q0 154 -99 226.5t-310 72.5h-19l-157 -524q-21 -72 -21 -96q0 -20 13 -33q25 -25 174 -25q215 0 317 92.5t102 286.5z" />
    <glyph glyph-name="C" unicode="C" horiz-adv-x="1351" 
d="M1393 1384q0 -4 -5.5 -18.5t-13 -43t-15 -70t-13 -112.5t-5.5 -157v-20q0 -23 -9.5 -32t-31.5 -9q-14 0 -24 10q-8 8 -25 82.5t-48 163.5t-75 133q-94 94 -221 94q-105 0 -195.5 -55t-151.5 -142t-105 -195.5t-64 -214.5t-20 -200q0 -506 325 -506q124 0 219 51.5
t207 163.5q27 27 41 27q11 0 21 -10.5t10 -22.5q0 -11 -21 -39t-36 -43q-80 -80 -145 -128t-154 -79.5t-193 -31.5q-112 0 -205.5 46.5t-155.5 125t-96 182.5t-34 219q0 168 56 332t152 291.5t235 206.5t294 79q86 0 154.5 -18t101 -39t62.5 -39t48 -18q22 0 60 38
q27 27 41 27t24.5 -9.5t10.5 -19.5z" />
    <glyph glyph-name="D" unicode="D" horiz-adv-x="1546" 
d="M1516 819q0 -163 -42.5 -298.5t-119.5 -233.5t-185.5 -165.5t-241 -100.5t-284.5 -33q-77 0 -202 6t-167 6t-110.5 -2.5t-122 -5t-57.5 -2.5q-25 0 -25 33q0 32 25 32q100 0 136 5.5t58 27.5q36 36 72 158q3 12 17 62.5t35.5 127.5t45.5 158q39 130 113.5 367.5
t83.5 267.5q18 61 18 98q0 19 -10 29q-26 26 -182 26q-25 0 -25 33t25 33q5 0 110.5 -4t141.5 -4q43 0 145 2t133 2q99 0 190 -25.5t168.5 -77t134.5 -125t89.5 -175.5t32.5 -222zM1305 901q0 483 -383 483q-80 0 -113.5 -24.5t-58.5 -89.5q-36 -96 -224 -717
q-114 -379 -114 -444q0 -21 10 -31q18 -18 55.5 -23.5t116.5 -5.5q184 0 322 61.5t222.5 176t125.5 268t41 346.5z" />
    <glyph glyph-name="E" unicode="E" horiz-adv-x="1341" 
d="M1341 1118q0 -12 -12 -21.5t-24 -9.5t-25 13q-21 21 -96 116t-105 125q-20 20 -55 25.5t-104 5.5h-91q-61 0 -82 -4.5t-36 -19.5q-14 -14 -22 -35.5t-25 -81.5l-109 -404q-2 -8 -2 -12q0 -8 16 -8h72q93 0 153 13.5t107 60.5q25 25 54.5 83t31.5 60q12 8 23 8q10 0 15 -5
t5 -11q0 -8 -9.5 -36.5t-28 -84.5t-34.5 -113q-29 -104 -51 -262q-3 -20 -26 -20t-23 20q0 98 -5 138t-28 63q-17 17 -51.5 26t-60.5 10t-76 1h-80q-22 0 -27 -21l-137 -512q-28 -100 -28 -129q0 -14 8 -22t32 -10.5t103 -2.5h219q44 0 66 1t53.5 7t55.5 20t48 38
q82 82 202.5 180.5t145.5 98.5q33 0 33 -37q0 -9 -12 -21q-156 -156 -156 -293q0 -10 4 -22.5t4 -16.5q0 -22 -38 -22q-9 0 -52.5 1.5t-123.5 3t-179 1.5h-538q-48 0 -108 -1.5t-102 -3t-46 -1.5q-25 0 -25 33q0 32 25 32q91 0 121 4t49 23q11 11 21 38.5t30 100.5l264 983
q29 107 29 127q0 12 -9 21q-12 12 -151 12q-25 0 -25 33t25 33h694q80 0 159.5 3t84.5 3q22 0 22 -19q0 -5 -12 -32t-12 -54q0 -33 17 -84t33.5 -90.5t16.5 -42.5z" />
    <glyph glyph-name="F" unicode="F" horiz-adv-x="1157" 
d="M1321 1118q0 -12 -12 -21.5t-25 -9.5q-11 0 -24 13q-21 21 -96 116t-105 125q-20 20 -55 25.5t-105 5.5h-111q-62 0 -83.5 -3.5t-36.5 -18.5q-19 -19 -47 -142l-91 -391q-2 -12 -2 -14q0 -6 17 -6h71q62 0 99 3t83 20t79 50q25 25 58.5 83.5t35.5 60.5q8 8 22 8
q10 0 15.5 -5.5t5.5 -10.5q0 -8 -11.5 -36.5t-32 -84t-36.5 -113.5q-19 -69 -47 -268q-3 -21 -27 -21q-22 0 -22 21q0 95 -6.5 137t-32.5 68q-18 18 -50.5 27t-58.5 10.5t-78 1.5h-75q-23 0 -29 -25l-115 -498q-20 -95 -20 -116q0 -23 8 -31q19 -19 162 -19q24 0 24 -32
q0 -33 -24 -33q-40 0 -143.5 3t-149.5 3q-49 0 -135.5 -3t-110.5 -3t-24 33q0 32 24 32q68 0 103 4.5t51 20.5q13 13 22 41t25 100l227 983q23 101 23 123q0 14 -11 25q-12 12 -39.5 15t-101.5 3q-24 0 -24 33t24 33q27 0 116 -3t156 -3h437q80 0 159 3t84 3q23 0 23 -19
q0 -6 -12.5 -32t-12.5 -54q0 -33 17 -84t34 -90.5t17 -42.5z" />
    <glyph glyph-name="G" unicode="G" 
d="M1475 541q0 -33 -31 -33q-66 0 -94 -6t-45 -23q-21 -21 -48 -143l-61 -266q-8 -33 -31 -33q-18 0 -30 12q-39 39 -72 39q-15 0 -46 -17t-66.5 -37t-101.5 -37t-142 -17q-113 0 -215.5 47t-176.5 127t-117.5 189.5t-43.5 229.5q0 135 33 265.5t97 242.5t152 197.5
t205.5 134.5t249.5 49q76 0 142 -14.5t102 -32.5t69.5 -32.5t52.5 -14.5q25 0 64 39q27 27 41 27t23.5 -9.5t9.5 -19.5q0 -1 -9.5 -37.5t-19.5 -121t-10 -202.5v-20q0 -23 -8 -32t-27 -9q-17 0 -27 10q-8 8 -31.5 67.5t-61 133t-77.5 113.5q-98 98 -233 98
q-102 0 -189.5 -55t-147 -142t-102 -196t-62 -216t-19.5 -202q0 -113 19 -205.5t59 -168t111 -117.5t167 -42q196 0 295 99q22 22 33 78l22 98q19 84 19 123q0 13 -11 24q-15 15 -96 15q-24 0 -24 32q0 33 24 33q5 0 61 -1t87 -1q84 0 191.5 6t115.5 6q31 0 31 -32z" />
    <glyph glyph-name="H" unicode="H" horiz-adv-x="1587" 
d="M1731 1413q0 -33 -25 -33q-119 0 -147 -28q-21 -21 -48 -144l-227 -983q-20 -95 -20 -116q0 -23 8 -31q13 -13 38 -16t95 -3q25 0 25 -32q0 -33 -25 -33q-15 0 -112.5 3t-149.5 3q-49 0 -141 -3t-101 -3q-24 0 -24 33q0 32 24 32q65 0 98.5 4.5t49.5 20.5q13 13 22 41
t25 100l106 461q4 20 4 27q0 8 -12 8h-666q-20 0 -26 -29l-109 -467q-20 -95 -20 -116q0 -23 8 -31q12 -12 37.5 -15.5t89.5 -3.5q24 0 24 -32q0 -33 -24 -33q-18 0 -110.5 3t-145.5 3q-59 0 -150 -3t-98 -3q-24 0 -24 33q0 32 24 32q69 0 103.5 4.5t50.5 20.5q20 20 47 141
l227 983q23 101 23 123q0 14 -11 25q-18 18 -125 18q-24 0 -24 33t24 33q15 0 97.5 -3t132.5 -3q57 0 155 4t111 4q25 0 25 -33t-25 -33q-74 0 -101.5 -5t-45.5 -23q-13 -13 -21.5 -40.5t-25.5 -99.5l-89 -381q-4 -24 -4 -30q0 -11 21 -11h651q18 0 22.5 3.5t8.5 21.5
l92 397q23 101 23 123q0 14 -11 25q-14 14 -125 14q-24 0 -24 33t24 33q5 0 74 -1t90 -1q84 0 204 6t128 6q25 0 25 -33z" />
    <glyph glyph-name="I" unicode="I" horiz-adv-x="727" 
d="M870 1413q0 -33 -28 -33q-67 0 -98 -5.5t-48 -22.5q-18 -18 -47 -144l-248 -983q-22 -90 -22 -119q0 -18 10 -28q12 -12 43 -15.5t111 -3.5q24 0 24 -32q0 -33 -24 -33q-25 0 -124 3t-159 3q-57 0 -150 -3t-106 -3q-24 0 -24 33q0 32 24 32q72 0 108 5.5t52 21.5
q15 15 43 116q4 15 6 23l248 983q22 91 22 123q0 15 -10 25t-39 12t-102 2q-25 0 -25 33t25 33q19 0 85.5 -1t94.5 -1q84 0 205 6t129 6q24 0 24 -33z" />
    <glyph glyph-name="J" unicode="J" horiz-adv-x="1157" 
d="M1188 1208q0 -41 -28.5 -68.5t-69.5 -27.5q-12 0 -32.5 7t-27.5 7q-8 0 -16 -8q-28 -28 -66.5 -164.5t-62.5 -287.5q19 0 109 7t96 7q24 0 24 -37q0 -47 -35 -47q-4 0 -93 4t-112 4q-58 -367 -165.5 -636.5t-237.5 -399.5q-137 -137 -311 -137q-109 0 -185.5 70
t-76.5 171q0 52 32.5 87.5t81.5 35.5q45 0 76 -29t31 -69q0 -37 -18.5 -65t-37 -47.5t-18.5 -35.5q0 -27 38.5 -44t92.5 -17q121 0 201 80q62 62 104 169.5t59.5 207t43 250t49.5 243.5q12 47 24.5 88.5t19.5 59.5l7 18q-33 0 -126.5 -4t-94.5 -4q-21 0 -21 35q0 41 23 41
q7 0 94 -4t146 -4q124 292 233 401l-2 4q-67 7 -118.5 28.5t-82 49t-55 59t-44.5 61.5t-43 54.5t-58.5 39.5t-83.5 15q-98 0 -155.5 -57t-57.5 -131q0 -84 51 -84q2 0 32 16.5t48 16.5q47 0 76.5 -29t29.5 -78q0 -47 -35 -77.5t-88 -30.5q-73 0 -120.5 62t-47.5 157
q0 131 88 226t220 95q73 0 127.5 -18t84 -45.5t52 -64t33.5 -69.5t27 -66.5t34 -51.5q33 -33 94 -33q17 78 52.5 134.5t93.5 56.5q41 0 69.5 -28t28.5 -69z" />
    <glyph glyph-name="K" unicode="K" horiz-adv-x="1515" 
d="M1690 1423q0 -32 -23 -32q-164 0 -444 -256l-314 -289q-8 -9 -8 -17l4 -20l234 -604q35 -95 59 -119q16 -16 51 -21.5t105 -5.5q24 0 24 -32q0 -33 -24 -33q-4 0 -53 1.5t-114 3t-108 1.5q-47 0 -112 -1.5t-112.5 -3t-51.5 -1.5q-25 0 -25 33q0 32 25 32q122 0 145 23
q10 10 10 24q0 37 -20 99l-156 444q-16 49 -41 74q-14 14 -108 27l-51 6l-168 -537q-25 -90 -25 -110q0 -23 10 -33t36.5 -13.5t94.5 -3.5q25 0 25 -32q0 -33 -25 -33t-118.5 3t-153.5 3q-57 0 -149 -3t-105 -3q-24 0 -24 33q0 32 24 32q77 0 111 5t47 18q25 25 55 125
l326 1040q18 56 18 84q0 13 -10 23q-22 22 -133 22q-25 0 -25 33t25 33q3 0 108.5 -2t149.5 -2t100.5 1.5t96 3t42.5 1.5q25 0 25 -33t-25 -33q-107 0 -129 -22q-27 -27 -51 -109l-133 -428q111 -16 131 -16q25 0 40 6.5t36 26.5l338 319q139 130 139 180q0 15 -10 25
q-16 16 -121 16q-25 0 -25 33t25 33h180q84 0 203 7t127 7q25 0 25 -33z" />
    <glyph glyph-name="L" unicode="L" horiz-adv-x="1300" 
d="M1270 373q0 -8 -13 -21q-145 -145 -145 -297q0 -10 4 -22.5t4 -16.5q0 -22 -39 -22q-9 0 -52 1.5t-123 3t-179 1.5h-457q-48 0 -113 -1.5t-112 -3t-51 -1.5q-25 0 -25 33q0 32 31 32q94 0 129.5 4t54.5 23t49 139l248 987q23 95 23 119q0 15 -10 25t-33 12t-88 2
q-25 0 -25 33t25 33q11 0 76.5 -1t91.5 -1q55 0 193.5 6t152.5 6q24 0 24 -33t-24 -33q-76 0 -113 -5t-55 -23q-17 -17 -43 -123l-252 -1004q-27 -106 -27 -129q0 -13 9 -22q8 -8 31.5 -10.5t101.5 -2.5h137q44 0 66 1t53.5 7t55.5 20t48 38q89 89 201.5 186t136.5 97
q33 0 33 -37z" />
    <glyph glyph-name="M" unicode="M" horiz-adv-x="1904" 
d="M2028 1413q0 -33 -25 -33q-146 0 -174 -28q-23 -23 -60 -144l-309 -983q-22 -70 -22 -116q0 -23 8 -31q12 -12 42.5 -15.5t110.5 -3.5q25 0 25 -32q0 -33 -25 -33t-129 3t-165 3q-57 0 -151 -3t-107 -3q-25 0 -25 33q0 32 25 32q75 0 110 4.5t51 20.5q20 20 60 141
l309 983q27 80 27 123q0 33 -37 33h-21q-13 0 -39.5 -29.5t-67.5 -91t-67 -102.5t-72 -115l-409 -670q-25 -42 -71 -126t-80 -147t-40 -69q-14 -14 -28 -14q-19 0 -19 20q0 3 4 65.5t8 151.5t5 152l12 889q0 70 -33 70h-35q-26 0 -39 -45l-213 -666q-45 -140 -80.5 -273
t-35.5 -169q0 -69 26 -95q41 -41 146 -41q24 0 24 -32q0 -33 -24 -33q-5 0 -50.5 1.5t-107 3t-106.5 1.5q-61 0 -140 -3t-82 -3q-24 0 -24 33q0 32 24 32q109 0 156 47q18 18 43.5 76.5t41.5 105.5t46 138l273 834q18 52 18 77q0 13 -8 21q-11 11 -45 13.5t-118 2.5h-30
q-24 0 -24 33t24 33q2 0 141 -3t175 -3q23 0 96 2t84 2q65 0 65 -54l-28 -929q0 -25 12 -25q11 0 35 39l545 895q47 74 129 74q34 0 81.5 -2t65.5 -2q84 0 184 6t109 6q25 0 25 -33z" />
    <glyph glyph-name="N" unicode="N" horiz-adv-x="1648" 
d="M1823 1407q0 -33 -25 -33q-111 0 -164 -53q-29 -29 -65 -133l-273 -819q-21 -64 -48 -154.5t-44 -149.5l-16 -59q-7 -26 -39 -26q-29 0 -39 26q-61 174 -102 285l-383 1012q-14 36 -31 36h-19q-13 0 -18.5 -7t-11.5 -29l-213 -666q-101 -312 -101 -434q0 -59 35 -94
q29 -29 71 -39.5t112 -10.5q24 0 24 -32q0 -33 -24 -33q-5 0 -66 1.5t-138 3t-122 1.5q-61 0 -139.5 -3t-81.5 -3q-25 0 -25 33q0 32 25 32q49 0 84 8t55.5 25t29.5 29t19 33q18 36 50 131.5t74.5 233.5t64.5 202l182 539q18 56 18 77q0 13 -8 21q-13 13 -46.5 16.5
t-121.5 3.5q-24 0 -24 33t24 33q1 0 124 -5t167 -5h139q33 0 48.5 -18t37.5 -75l389 -999h6l150 477q125 394 125 459q0 42 -19 61q-16 16 -42.5 24.5t-45.5 9.5t-55 1q-24 0 -24 33t24 33q14 0 111.5 -3t146.5 -3t123.5 3t89.5 3q25 0 25 -33z" />
    <glyph glyph-name="O" unicode="O" 
d="M1423 768q0 -147 -62.5 -291t-164.5 -253t-240 -176.5t-280 -67.5q-146 0 -268.5 92.5t-193.5 253.5t-71 352q0 150 66 295t171 251.5t242.5 172t274.5 65.5q147 0 268 -91t189.5 -250t68.5 -353zM1229 942q0 217 -88 338t-252 121q-113 0 -215.5 -71t-176.5 -191.5
t-117.5 -287.5t-43.5 -351q0 -205 89 -332t251 -127q112 0 214 69.5t176.5 188.5t118.5 287t44 356z" />
    <glyph glyph-name="P" unicode="P" horiz-adv-x="1177" 
d="M1260 1090q0 -197 -130.5 -328t-318.5 -131q-82 0 -137 13.5t-119 51.5l-137 -479q-21 -75 -21 -108q0 -22 11 -33q10 -10 47 -13.5t135 -3.5q24 0 24 -32q0 -33 -24 -33t-137 3t-179 3q-56 0 -151.5 -3t-108.5 -3q-24 0 -24 33q0 32 24 32q74 0 107.5 4t46.5 17
q25 25 55 131l297 1034q17 63 17 86q0 12 -11 23q-18 18 -180 18q-24 0 -24 33t28 33q12 0 73 -2t91 -2q51 0 167 6t196 6q187 0 285 -100t98 -256zM1081 1126q0 116 -65 193.5t-193 77.5q-44 0 -61 -17q-12 -12 -27 -55l-166 -580q85 -45 172 -45q84 0 150 34.5t107 94.5
t62 135.5t21 161.5z" />
    <glyph glyph-name="Q" unicode="Q" horiz-adv-x="1515" 
d="M1905 -330q0 -117 -107.5 -178t-298.5 -61q-77 0 -140 10.5t-143.5 43t-138 60.5t-184.5 95l-70 36q-312 166 -430 166q-39 0 -61.5 -12t-22.5 -33q0 -23 16.5 -58.5t16.5 -55.5q0 -40 -28.5 -65.5t-71.5 -25.5q-39 0 -69 30t-30 73q0 39 15.5 73.5t37.5 60t62 51
t73 41.5t88 35t89 29t92 27l152 43l-4 6q-60 -8 -99 -8q-140 0 -248.5 72.5t-165.5 193t-57 265.5q0 181 67 345.5t176 280t250.5 184t286.5 68.5q118 0 216.5 -45.5t163.5 -124t101 -182t36 -219.5q0 -171 -71 -324t-196 -278q-80 -80 -188.5 -143t-198.5 -96t-208.5 -77
t-188.5 -79l-25 -13l7 -8q97 12 165 12q115 0 222 -22.5t189 -58t157 -79t137 -86.5t115.5 -78.5t105.5 -58t96 -22.5q67 0 110.5 21.5t43.5 49.5q0 12 -27 39q-45 45 -45 86q0 48 33 80.5t82 32.5t82 -34.5t33 -84.5zM1274 987q0 189 -86 303.5t-240 114.5
q-101 0 -193 -53.5t-160 -143t-118.5 -204.5t-76 -242t-25.5 -250q0 -193 86 -306.5t221 -113.5q162 0 299 124t215 330t78 441z" />
    <glyph glyph-name="R" unicode="R" horiz-adv-x="1413" 
d="M1495 27q0 -18 -9 -25.5t-30 -7.5q-188 0 -284.5 12.5t-145.5 61.5q-35 35 -69.5 118t-59 165.5t-63 169t-80.5 128.5q-36 36 -81 47t-116 11l-154 -490q-24 -77 -24 -108q0 -23 10 -33q17 -17 172 -17q25 0 25 -32q0 -33 -25 -33t-133 3t-168 3q-57 0 -155 -3t-111 -3
q-25 0 -25 33q0 32 25 32q135 0 158 23q26 26 47 98l333 1067q19 63 19 84q0 13 -10 23q-28 28 -166 28q-25 0 -25 33t25 33q3 0 102.5 -5t143.5 -5q48 0 150 3t132 3q180 0 275.5 -82t95.5 -227q0 -188 -130 -306.5t-323 -126.5v-4q112 -46 150 -84q26 -26 59 -94.5
t62 -140t69.5 -147.5t79.5 -115q36 -36 86.5 -47t124.5 -11q23 0 33 -6.5t10 -25.5zM1096 1155q0 114 -67.5 176t-190.5 62q-45 0 -62 -17q-13 -13 -26 -51l-181 -573q85 -15 138 -15q174 0 281.5 114.5t107.5 303.5z" />
    <glyph glyph-name="S" unicode="S" horiz-adv-x="1105" 
d="M1116 1065q0 -13 -13 -21t-26 -8q-21 0 -33 23q0 1 -18.5 42t-35 76.5t-41 77.5t-42.5 60q-51 51 -96 68.5t-115 17.5q-86 0 -145 -58.5t-59 -142.5q0 -88 34 -141.5t179 -198.5q62 -62 95 -97t70.5 -82.5t54.5 -84t28.5 -84t11.5 -102.5q0 -114 -62 -213.5t-165.5 -158
t-221.5 -58.5q-59 0 -112 16t-83 35t-57 35t-39 16q-21 0 -58 -31t-48 -31q-18 0 -27.5 7.5t-9.5 17.5q0 5 4.5 33.5t9 69.5t4.5 77q0 76 -5 170.5t-5 96.5q0 30 41 30q17 0 25 -8q6 -6 28.5 -85t52.5 -166t56 -113q53 -53 106.5 -79t122.5 -26q70 0 133.5 27.5t108.5 88
t45 142.5q0 42 -12 82t-29 72.5t-54 77t-67 76t-88 89.5q-84 84 -123 132.5t-61.5 109t-22.5 139.5q0 97 46.5 184.5t129.5 142t181 54.5q68 0 125 -14t89.5 -28.5t41.5 -14.5q17 0 39 22q5 5 15.5 18t14.5 17q13 13 31 13q29 0 29 -21v-61q0 -81 5.5 -158.5t11 -122.5
t5.5 -47z" />
    <glyph glyph-name="T" unicode="T" horiz-adv-x="1341" 
d="M1464 1079q0 -12 -12 -21t-25 -9q-12 0 -24 12q-27 27 -90 149.5t-76 135.5q-16 16 -33.5 21t-50.5 5h-156q-16 0 -22 -6q-7 -7 -10 -20l-301 -1121q-21 -79 -21 -116q0 -23 8 -31q12 -12 47 -15.5t131 -3.5q25 0 25 -32q0 -33 -25 -33q-4 0 -62 1.5t-134.5 3t-124.5 1.5
t-116 -1.5t-117.5 -3t-53.5 -1.5q-24 0 -24 33q0 32 24 32q68 0 98 1t59 7t42 19q25 25 53 139l295 1098q8 32 8 41q0 8 -12 8h-139q-45 0 -72 -7.5t-53 -33.5q-1 -1 -73.5 -88.5t-135.5 -150.5q-43 -43 -64 -43q-32 0 -32 36q0 4 28 46t56 105t28 116q0 11 -2 36t-2 29
q0 23 37 23q8 0 112.5 -3t168.5 -3h557q36 0 92 2.5t99 5t48 2.5q25 0 25 -25q0 -4 -9.5 -34t-9.5 -54q0 -51 10.5 -111t20.5 -100t10 -41z" />
    <glyph glyph-name="U" unicode="U" horiz-adv-x="1556" 
d="M1751 1407q0 -33 -25 -33q-31 0 -73 -13.5t-68 -39.5q-33 -33 -65 -130.5t-101 -371.5l-53 -213q-24 -94 -48.5 -165.5t-61.5 -147t-85 -129t-111.5 -97t-149.5 -65.5t-191 -22q-116 0 -206 24.5t-145 64t-90.5 96.5t-49 116.5t-13.5 128.5q0 145 55 327l144 467
q26 82 26 121q0 23 -8 31q-12 12 -39.5 15t-107.5 3q-25 0 -25 33t25 33q13 0 116 -3t162 -3t162.5 3t116.5 3q24 0 24 -33t-24 -33q-51 0 -68.5 -0.5t-45.5 -2.5t-40.5 -7t-21.5 -14q-22 -22 -60 -146l-141 -467q-43 -145 -43 -286q0 -175 90.5 -267t296.5 -92q87 0 158 29
t120 74.5t88.5 115.5t64 138.5t46.5 156.5l53 213q91 368 91 451q0 46 -23 69q-35 35 -139 35q-25 0 -25 33t25 33q6 0 102.5 -3t145.5 -3q50 0 122.5 3t87.5 3q25 0 25 -33z" />
    <glyph glyph-name="V" unicode="V" horiz-adv-x="1341" 
d="M1690 1415q0 -33 -25 -33q-72 0 -127 -28q-82 -42 -260 -228l-1053 -1114q-29 -32 -49 -32q-17 0 -30 11.5t-13 24.5q0 6 20.5 61.5t51.5 140.5t49 142l272 869q21 68 21 100q0 15 -8 23q-22 22 -152 22q-25 0 -25 33t25 33q4 0 51 -1.5t112 -3t114 -1.5q41 0 101 1.5
t104.5 3t48.5 1.5q24 0 24 -33t-24 -33q-72 0 -101 -4t-43 -18q-13 -13 -22 -34t-33 -89l-301 -869q-10 -31 -10 -36q0 -9 8 -9q17 0 41 27l719 784q51 56 87.5 113.5t36.5 89.5q0 15 -8 23q-10 10 -41.5 13t-109.5 3q-25 0 -25 33t25 33h176q84 0 212 7t136 7q25 0 25 -33z
" />
    <glyph glyph-name="W" unicode="W" horiz-adv-x="2099" 
d="M2468 1415q0 -33 -25 -33q-64 0 -127 -32q-106 -54 -276 -224l-1114 -1114q-32 -32 -49 -32t-30 11.5t-13 24.5q0 6 17.5 57t53.5 150.5t49 136.5l242 666l-6 6l-965 -1020q-32 -32 -49 -32t-30 11.5t-13 24.5q0 6 21.5 61.5t53.5 140.5t50 142l272 869q21 68 21 100
q0 15 -8 23q-22 22 -152 22q-24 0 -24 33t24 33q4 0 52.5 -1.5t113.5 -3t111 -1.5q44 0 103.5 1.5t103 3t47.5 1.5q24 0 24 -33t-24 -33q-72 0 -100 -4t-42 -18q-21 -21 -57 -123l-301 -864q-10 -35 -10 -37q0 -9 8 -9q14 0 39 25l702 739q59 64 93 121.5t34 124.5
q0 15 -10 25q-20 20 -117 20q-24 0 -24 33t24 33q5 0 48 -1.5t100 -3t96 -1.5q40 0 98 1.5t100.5 3t47.5 1.5q24 0 24 -33t-24 -33q-92 0 -123 -31q-33 -33 -64 -114l-331 -873q-11 -34 -11 -37q0 -8 8 -8q14 0 41 27l766 788q125 128 125 195q0 14 -8 22q-29 29 -131 29
q-25 0 -25 33t25 33q3 0 74.5 -2t105.5 -2q85 0 210.5 7t129.5 7q25 0 25 -33z" />
    <glyph glyph-name="X" unicode="X" horiz-adv-x="1402" 
d="M1608 1415q0 -33 -25 -33q-74 0 -129 -28q-94 -48 -260 -219l-293 -304q-14 -14 -14 -22q0 -11 8 -43l156 -541q33 -115 59 -141q16 -16 50 -20.5t108 -4.5q24 0 24 -32q0 -33 -24 -33q-13 0 -108 3t-152 3q-60 0 -159 -3t-124 -3t-25 33q0 32 25 32q79 0 108 3.5
t41 15.5q9 9 9 31q0 27 -25 116l-119 410q-5 14 -6 14q-4 0 -18 -14l-305 -328q-50 -54 -87.5 -113t-37.5 -90q0 -14 8 -22q10 -10 41.5 -13t109.5 -3q25 0 25 -33t-25 -33h-176q-84 0 -221 -7t-145 -7q-25 0 -25 32q0 33 25 33q68 0 125 29q113 58 280 227l379 383
q23 23 23 33q0 15 -7 39l-129 446q-38 127 -55 144q-14 14 -42 18t-95 4q-25 0 -25 33t25 33q13 0 93.5 -3t139.5 -3t153 3t107 3q25 0 25 -33t-25 -33q-102 0 -120 -18q-11 -11 -11 -25q0 -43 23 -123l88 -303q4 -18 10 -18q5 0 17 12l211 236q120 134 120 194q0 15 -8 23
q-16 16 -114 16q-25 0 -25 33t25 33h143q95 0 220.5 7t129.5 7q25 0 25 -33z" />
    <glyph glyph-name="Y" unicode="Y" horiz-adv-x="1290" 
d="M1475 1311q0 -59 -40 -98t-89 -39q-36 0 -61.5 15t-38.5 37t-22.5 43.5t-21 36.5t-26.5 15q-23 0 -66 -43q-93 -93 -215 -325.5t-182 -440.5l-82 -287q-25 -85 -25 -119q0 -18 10 -28q19 -19 162 -19q18 0 24.5 -6.5t6.5 -25.5q0 -33 -27 -33q-23 0 -131.5 3t-169.5 3
q-57 0 -168.5 -3t-124.5 -3q-24 0 -24 33q0 32 31 32q84 0 126 4.5t58 20.5q17 17 28 44t33 97l107 348q78 259 78 451q0 128 -41 203.5t-121 75.5q-55 0 -101.5 -45t-71 -113.5t-24.5 -140.5q0 -37 29 -66q7 -7 35.5 -27t36.5 -28q28 -28 28 -64q0 -30 -21 -48.5t-52 -18.5
q-34 0 -58 21t-36 57t-17.5 73.5t-5.5 79.5q0 112 48.5 212.5t134 163t185.5 62.5q68 0 114 -46t64.5 -116.5t18.5 -162.5q0 -63 -8.5 -126t-16.5 -100t-32 -133l-8 -32q-3 -9 -3 -13q0 -6 5 -6q7 0 10 10l43 103q60 141 146 291.5t186 250.5q121 121 231 121
q66 0 109 -41.5t43 -109.5z" />
    <glyph glyph-name="Z" unicode="Z" horiz-adv-x="1392" 
d="M1536 1417q0 -4 -41 -45l-1266 -1302l4 -9h443q86 0 127.5 11t85.5 55q79 79 206 181t152 102q33 0 33 -37q0 -9 -12 -21q-166 -166 -166 -297q0 -10 4 -22.5t4 -16.5q0 -22 -39 -22q-9 0 -52 1.5t-123 3t-179 1.5h-410q-54 0 -130 -1.5t-130.5 -3t-58.5 -1.5
q-13 0 -21 11t-8 24q0 24 25 49l1255 1280l-4 8q-88 6 -145 6h-261q-46 0 -73.5 -7.5t-53.5 -33.5q-12 -12 -55 -58.5t-69 -72.5q-127 -127 -158 -127q-33 0 -33 37q0 4 30.5 45t61.5 102.5t31 114.5q0 11 -1 26t-1 19q0 23 37 23q7 0 107 -3t167 -3h369q54 0 132 2t135 4
t61 2q10 0 15 -8t5 -17z" />
    <glyph glyph-name="bracketleft" unicode="[" horiz-adv-x="665" 
d="M1014 1423q0 -23 -13 -41t-28 -18q-2 0 -36.5 2t-80.5 4t-78 2h-342l-446 -1843h348q154 0 215 6q21 0 31 -7.5t10 -29.5q0 -23 -12.5 -39t-28.5 -16q-14 0 -92.5 2t-102.5 2h-481q-20 0 -20 31l471 1945q6 31 24 31h426q60 0 124 2t71 2q41 0 41 -35z" />
    <glyph glyph-name="backslash" unicode="\" horiz-adv-x="921" 
d="M870 -502q0 -22 -17 -36.5t-40 -14.5q-14 0 -29.5 7.5t-21.5 19.5q-3 5 -32.5 85t-73 194.5t-74.5 189.5l-555 1323q-7 17 -22.5 49t-25.5 55t-10 29q0 24 19 39.5t43 15.5q33 0 47 -27q3 -6 31.5 -81.5t72 -187.5t74.5 -187l522 -1252q18 -44 36 -84t27 -60.5
t16.5 -37.5t10 -25t2.5 -14z" />
    <glyph glyph-name="bracketright" unicode="]" horiz-adv-x="665" 
d="M809 1423l-471 -1945q-6 -31 -25 -31h-426q-60 0 -134 -2t-81 -2q-41 0 -41 35q0 23 13 41t28 18q2 0 41.5 -2t90.5 -4t83 -2h342l447 1843h-328q-154 0 -215 -6q-21 0 -31 7.5t-10 29.5q0 23 12.5 39t28.5 16q14 0 92.5 -2t102.5 -2h460q21 0 21 -31z" />
    <glyph glyph-name="asciicircum" unicode="^" horiz-adv-x="563" 
d="M666 1413q0 -1 -12.5 -59.5t-33.5 -175.5t-36 -242q0 -7 -7.5 -10.5t-13.5 -3.5q-36 0 -69 8t-33 22q0 4 13.5 55.5t33.5 128.5t31 124h-7l-389 -328q-15 -10 -20 -10q-8 0 -14.5 6.5t-6.5 13.5q0 10 25 31l457 409q7 6 16.5 15.5l15 15t12 11t10.5 8t7 2.5q21 0 21 -21z
" />
    <glyph glyph-name="underscore" unicode="_" horiz-adv-x="1024" 
d="M963 -184q0 -16 -8.5 -28.5t-22.5 -12.5h-973q-19 0 -30 8t-11 33q0 16 8.5 28.5t22.5 12.5h973q19 0 30 -8t11 -33z" />
    <glyph glyph-name="grave" unicode="`" horiz-adv-x="307" 
d="M512 1028q0 -10 -10 -17t-19 -7q-4 0 -11.5 7t-19 19.5t-12.5 13.5q-176 211 -221 277q-14 21 -14 41q0 31 24.5 51.5t57.5 20.5q20 0 43 -23q13 -13 49 -87.5t77.5 -167t51.5 -112.5q4 -8 4 -16z" />
    <glyph glyph-name="a" unicode="a" horiz-adv-x="993" 
d="M993 911q0 -11 -20 -47l-187 -379q-135 -274 -135 -327q0 -23 21 -23q16 0 43 22t54.5 54.5t52.5 64t42.5 55.5t18.5 25q6 6 12 6q9 0 18 -7t9 -19q0 -4 -4 -12q-9 -18 -50.5 -71.5t-95.5 -115.5t-114 -109.5t-95 -47.5t-56.5 17t-21.5 34q0 33 20.5 85.5t41 89.5
t57.5 101l103 176l-11 4q-385 -507 -577 -507q-61 0 -95 38t-34 95q0 72 31 162.5t82.5 179t121 174t143 150t152 104t144.5 39.5q32 0 57.5 -12t38.5 -29t21.5 -34.5t10.5 -29.5l3 -12h4l45 106q10 25 27.5 33t50.5 8q71 0 71 -41zM748 748q0 112 -97 112q-67 0 -156 -83
t-161.5 -196t-123 -231t-50.5 -186q0 -62 59 -62q43 0 132.5 74t177 175t153.5 214.5t66 182.5z" />
    <glyph glyph-name="b" unicode="b" horiz-adv-x="983" 
d="M932 758q0 -111 -68 -250.5t-166 -254.5t-214.5 -194t-207.5 -79q-215 0 -215 194q0 70 39 195l258 819q21 68 21 106q0 25 -10 35q-17 17 -62 35l-45 18q-6 6 -6 17q0 10 8 18q1 1 32.5 3.5t75 7t68.5 10.5q24 6 51 15.5t43.5 15.5t22.5 6h10q27 0 27 -27
q0 -6 -14 -44.5t-36 -98t-34 -97.5l-250 -745l8 -6q61 99 116 174t122.5 145.5t140 108t146.5 37.5q69 0 104 -43t35 -121zM764 686q0 56 -15.5 81.5t-52.5 25.5q-62 0 -150.5 -72t-164 -171t-129 -208t-53.5 -178q0 -68 22.5 -100.5t73.5 -32.5q53 0 134 68.5t155 166
t127 215t53 205.5z" />
    <glyph glyph-name="c" unicode="c" horiz-adv-x="727" 
d="M748 788q0 -45 -27 -73.5t-66 -28.5t-65.5 25t-26.5 67q0 22 6 47.5t6 28.5q0 23 -36 23q-64 0 -130 -66t-113.5 -162t-77.5 -203.5t-30 -189.5q0 -158 103 -158q75 0 151 76q22 22 47.5 53.5t28.5 34.5q12 12 25 12q10 0 17 -7.5t7 -16.5q0 -6 -15 -33t-41 -64t-50 -61
q-112 -112 -225 -112q-205 0 -205 245q0 70 25.5 160.5t74 184t112 172.5t148 129.5t172.5 50.5q85 0 135 -36.5t50 -97.5z" />
    <glyph glyph-name="d" unicode="d" horiz-adv-x="1005" 
d="M1128 1448q0 -8 -13 -43.5t-38 -99.5t-41 -107l-309 -870q-39 -115 -39 -123q0 -19 17 -19q16 0 45 28t54 61t46 63l22 31q6 6 13 6q9 0 17.5 -7.5t8.5 -19.5q0 -4 -4 -12q-15 -30 -72 -110t-137.5 -163t-126.5 -83q-23 0 -41 17t-18 44q0 69 98 287l70 155l-10 4
q-28 -52 -69 -114.5t-97 -133t-112.5 -127.5t-118.5 -94.5t-113 -37.5q-69 0 -104.5 42t-35.5 121q0 89 43 198t113 209.5t152.5 185t169 135.5t153.5 51q28 0 50 -11.5t33.5 -28t19.5 -33.5t10 -29l2 -11h4l119 379q18 62 18 106q0 23 -12 35t-54.5 30t-43.5 19q-6 6 -6 19
q0 12 6 18q2 2 32.5 4.5t73.5 7.5t68 11q24 6 51.5 15.5t45 15.5t24.5 6h12q24 0 24 -27zM723 733q0 121 -88 121q-52 0 -130.5 -67.5t-149 -164t-121 -213t-50.5 -204.5q0 -49 23 -74t65 -25q58 0 167.5 123t196.5 275.5t87 228.5z" />
    <glyph glyph-name="e" unicode="e" horiz-adv-x="768" 
d="M748 788q0 -82 -55.5 -150t-139 -108t-170 -62t-158.5 -22q-30 -102 -30 -200q0 -67 27 -107.5t85 -40.5q60 0 105.5 23.5t99.5 77.5q16 16 44 50l28 34q12 12 24 12q10 0 17.5 -8t7.5 -17q0 -11 -37.5 -67t-71.5 -90q-67 -67 -133 -100t-145 -33q-98 0 -151.5 60.5
t-53.5 184.5q0 99 47 221t120.5 227.5t175 177t200.5 71.5q76 0 120 -36t44 -98zM625 809q0 30 -15.5 47.5t-42.5 17.5q-84 0 -179 -116t-148 -269q93 12 169.5 48.5t122 83.5t69.5 96t24 92z" />
    <glyph glyph-name="f" unicode="f" horiz-adv-x="563" 
d="M1004 1313q0 -48 -29.5 -76.5t-75.5 -28.5q-35 0 -60.5 24.5t-25.5 63.5q0 22 13.5 57t13.5 44q0 14 -21.5 25.5t-50.5 11.5q-75 0 -147 -72q-125 -125 -197 -461q30 0 135 5t109 5q22 0 22 -39q0 -23 -14 -41t-29 -18q-188 6 -241 6q-250 -998 -386 -1270
q-59 -118 -192 -118q-46 0 -75 32t-29 76q0 43 27 71t67 28q25 0 50 -20t44 -40t29 -20q16 0 28 12q49 49 279 1249q-20 0 -75.5 -2t-59.5 -2q-27 0 -27 41q0 22 11.5 35.5t25.5 13.5q6 0 63 -2t80 -2q26 121 90 244.5t136 195.5q134 134 276 134q105 0 170.5 -47.5
t65.5 -114.5z" />
    <glyph glyph-name="g" unicode="g" horiz-adv-x="858" 
d="M909 844q0 -41 -26.5 -67.5t-67.5 -26.5q-33 0 -98.5 40.5t-91.5 47.5l-2 -4q88 -88 88 -199q0 -158 -107 -275.5t-246 -117.5q-32 0 -87 9t-76 9q-37 0 -58.5 -23t-21.5 -57q0 -48 26 -74q28 -28 85.5 -45t124 -26t134.5 -19.5t130.5 -32.5t97.5 -57q55 -55 55 -151
q0 -84 -42 -151.5t-111.5 -108.5t-153.5 -62.5t-174 -21.5q-74 0 -144 13t-131 40t-98 73.5t-37 106.5q0 45 25.5 88t67.5 75.5t88 56.5t94 40v4q-28 15 -46.5 26t-40.5 30.5t-34.5 40t-21.5 51t-9 67.5q0 68 52 114t122 46l59 -6v6q-120 77 -120 209q0 103 46 196.5
t129.5 153.5t182.5 60q44 0 89 -17.5t78.5 -35t49.5 -17.5q17 0 29 12q2 2 14 17t23 27t28 23t33 11q40 0 67 -28.5t27 -69.5zM573 666q0 93 -27 149.5t-85 56.5q-51 0 -93 -34.5t-67.5 -89.5t-39 -118.5t-13.5 -127.5q0 -94 27 -152.5t87 -58.5q54 0 96 35t66 91.5
t36.5 120t12.5 128.5zM655 -291q0 53 -35 93.5t-95 64.5t-134 35.5t-158 11.5q-79 0 -137.5 -70.5t-58.5 -150.5q0 -96 62.5 -151.5t176.5 -55.5q181 0 280 58t99 165z" />
    <glyph glyph-name="h" unicode="h" horiz-adv-x="983" 
d="M932 778q0 -106 -57 -249t-137 -262t-169 -203t-149 -84q-42 0 -67 23.5t-25 62.5q0 40 22 64t60 24q18 0 59.5 -25t62.5 -25q16 0 31 15q89 89 152 265t63 312q0 51 -12.5 77t-48.5 26q-61 0 -176 -118t-207.5 -252t-108.5 -193l-61 -226q-6 -30 -92 -30q-36 0 -49 10.5
t-13 29.5q0 8 10 41l355 1127q20 64 20 106q0 25 -10 35q-14 14 -37 24.5t-41 16.5t-20 8q-6 6 -6 19q0 10 6 16q2 2 31.5 5t72 8.5t66.5 11.5t51.5 15.5t44 15.5t20.5 6h11q26 0 26 -27q0 -6 -14 -44.5t-36 -98t-34 -97.5l-268 -800l6 -9q53 84 96 146.5t103.5 138t113 124
t114.5 81.5t118 33q123 0 123 -144z" />
    <glyph glyph-name="i" unicode="i" horiz-adv-x="563" 
d="M553 1296q0 -43 -33 -76.5t-74 -33.5t-66.5 26.5t-25.5 69.5t33 77t74 34t66.5 -27t25.5 -70zM492 840q0 -16 -22.5 -80.5t-49.5 -124.5l-160 -365q-37 -81 -37 -123q0 -20 23 -20q11 0 33.5 17t47 42t46 49.5t38.5 44.5l17 19q6 6 16 6q8 0 17.5 -8t9.5 -18q0 -7 -2 -11
q-6 -12 -39 -54t-82.5 -96.5t-112 -96t-112.5 -41.5q-31 0 -56.5 18.5t-25.5 54.5q0 21 8 49.5t15.5 47t27 60.5t25.5 56l174 400q26 58 26 88q0 14 -14 14q-19 0 -48 -25.5t-52 -55t-44.5 -58.5t-23.5 -31q-6 -6 -12 -6q-9 0 -19 7t-10 19q0 5 4 13q13 27 63.5 93t122 132
t115.5 66q39 0 66 -25t27 -57z" />
    <glyph glyph-name="j" unicode="j" horiz-adv-x="595" 
d="M647 1296q0 -43 -32.5 -76.5t-73.5 -33.5t-66.5 26.5t-25.5 69.5t32.5 77t73.5 34t66.5 -27t25.5 -70zM522 848q0 -54 -57 -215l-205 -610q-37 -112 -90 -215t-116.5 -188.5t-139.5 -137t-150 -51.5q-51 0 -89.5 16.5t-57.5 42t-28 49.5t-9 45q0 46 27.5 74.5t66.5 28.5
q36 0 62 -22t26 -58q0 -17 -5 -56t-5 -57q0 -20 33 -20q28 0 55 12t52 38.5t45.5 54t42.5 73t37.5 79.5t36 90.5t31.5 89t30 89.5l194 592q39 123 39 145q0 25 -18 25q-17 0 -52.5 -38t-68 -82.5t-61 -85.5t-29.5 -42q-6 -6 -13 -6q-9 0 -18.5 7.5t-9.5 19.5q0 4 4 12
q8 16 32 55t64.5 94.5t84 105.5t92.5 85t87 35q31 0 55.5 -24t24.5 -50z" />
    <glyph glyph-name="k" unicode="k" horiz-adv-x="942" 
d="M911 799q0 -242 -430 -303v-4q31 -21 56 -46q39 -39 51 -90.5t12 -150.5q0 -93 13.5 -130.5t48.5 -37.5q16 0 24 8q2 2 5.5 26.5t17.5 44t43 19.5q26 0 41.5 -16t15.5 -41q0 -48 -38.5 -73t-98.5 -25q-48 0 -96 20.5t-80 52.5q-35 35 -35 82v29q0 77 -1 111t-6 77.5
t-16.5 68t-31.5 44.5q-17 17 -42 30t-47 13h-14l-149 -485q-7 -26 -27 -34.5t-61 -8.5q-36 0 -51 8.5t-15 27.5q0 3 23 72l376 1100q21 61 21 110q0 31 -10 41q-15 15 -54.5 30.5t-40.5 16.5q-6 6 -6 19q0 12 6 18q1 1 29.5 2.5t69 5t65.5 9.5q23 6 52.5 15t47.5 14.5
t25 5.5h8q25 0 25 -27q0 -8 -14 -46.5t-38.5 -103.5t-37.5 -100l-217 -604l4 -2q85 122 222 226t226 104q60 0 94.5 -34t34.5 -89zM784 725q0 43 -22.5 68.5t-59.5 25.5q-127 0 -389 -287q29 -2 45 -2q102 0 197 21.5t162 67.5t67 106z" />
    <glyph glyph-name="l" unicode="l" horiz-adv-x="563" 
d="M645 1448q0 -8 -15.5 -48t-39.5 -101t-37 -101l-303 -889q-33 -102 -33 -145q0 -25 19 -25q18 0 54 38.5t68.5 83.5t61 86t29.5 42q6 6 12 6q9 0 18.5 -7t9.5 -19q0 -5 -4 -13q-12 -25 -45.5 -77.5t-86.5 -124t-117 -123t-117 -51.5q-33 0 -55.5 22t-22.5 51q0 66 51 213
l318 922q20 58 20 106q0 25 -10 35q-15 15 -60.5 30.5t-46.5 16.5q-6 6 -6 19q0 12 6 18q2 2 32.5 5.5t74 9.5t67.5 12t54.5 15t49.5 14.5t23 5.5h7q24 0 24 -27z" />
    <glyph glyph-name="m" unicode="m" horiz-adv-x="1556" 
d="M1454 823q0 -31 -11.5 -73t-24.5 -74t-38 -88l-153 -357q-27 -70 -27 -81q0 -17 12 -17q16 0 44 25.5t51.5 55.5t45 58.5t23.5 30.5q6 6 13 6q9 0 18.5 -7t9.5 -19q0 -5 -4 -13q-8 -16 -44.5 -61t-85.5 -97.5t-104.5 -92t-91.5 -39.5q-34 0 -53.5 16.5t-19.5 44.5
q0 30 69 190l160 371q43 95 43 148q0 31 -10.5 43t-34.5 12q-56 0 -170 -124t-210 -267t-122 -213l-63 -181q-7 -23 -26 -31.5t-58 -8.5q-34 0 -55 10.5t-21 29.5q0 16 16 52l222 540q39 103 39 140q0 47 -56 47q-43 0 -144.5 -110.5t-192.5 -243.5t-117 -203l-68 -211
q-8 -28 -26 -39.5t-56 -11.5q-43 0 -57.5 9.5t-14.5 30.5t13 50l200 518q54 134 54 162q0 22 -25 22q-15 0 -42.5 -26.5t-51 -58t-43.5 -60t-21 -29.5q-6 -6 -12 -6q-9 0 -19 7t-10 19q0 3 5 13q10 21 38.5 63.5t70.5 96t92 92.5t89 39q45 0 69 -17t24 -45q0 -9 -3 -22
t-9.5 -31.5t-13.5 -35.5t-18 -43t-18.5 -43.5t-20.5 -46.5t-20 -44l-90 -209l8 -4q140 218 203 298q187 242 340 243q61 0 83.5 -17.5t22.5 -60.5q0 -23 -12 -60t-26 -68t-38.5 -84.5t-37.5 -82.5l-90 -211l8 -4q53 85 99 152.5t112 153.5t122.5 143.5t120.5 98t117 40.5
q123 0 123 -99z" />
    <glyph glyph-name="n" unicode="n" horiz-adv-x="1085" 
d="M983 823q0 -32 -12.5 -76.5t-22.5 -69.5t-37 -89l-135 -314q-47 -115 -47 -131q0 -18 14 -18q18 0 50.5 30t61 65t53.5 68t26 34q6 6 12 6q9 0 19 -7.5t10 -19.5q0 -4 -4 -12q-7 -14 -29.5 -46.5t-63 -78.5t-86 -86.5t-103 -69t-109.5 -28.5q-23 0 -34 11.5t-11 28.5
q0 31 14 66l219 498q51 115 51 170q0 26 -12.5 35.5t-38.5 9.5q-57 0 -166 -111.5t-201 -243t-118 -202.5l-78 -222q-7 -23 -27 -31.5t-59 -8.5q-58 0 -58 40q0 21 13 50l200 518q54 134 54 162q0 22 -21 22q-17 0 -45.5 -26.5t-52 -58t-43.5 -60.5l-21 -29q-6 -6 -12 -6
q-9 0 -19 7t-10 19q0 3 5 13q10 20 40.5 63.5t74 96.5t95.5 92t91 39q43 0 67.5 -18.5t24.5 -43.5q0 -18 -16.5 -58.5t-49.5 -108.5t-47 -99l-88 -211l6 -4q49 77 80 124t83 120t93 118t91.5 91t99.5 68t96 22q70 0 101.5 -29t31.5 -70z" />
    <glyph glyph-name="o" unicode="o" horiz-adv-x="849" 
d="M653 727q0 70 -29.5 107.5t-86.5 37.5q-74 0 -158 -116.5t-139.5 -281.5t-55.5 -300q0 -69 30 -107t87 -38q74 0 158 116.5t139 281.5t55 300zM788 618q0 -153 -72.5 -301.5t-190.5 -242.5t-242 -94q-80 0 -133.5 42.5t-76 108.5t-22.5 152q0 111 42.5 226.5t110.5 206
t160.5 148.5t186.5 58q118 0 177.5 -86t59.5 -218z" />
    <glyph glyph-name="p" unicode="p" horiz-adv-x="952" 
d="M901 618q0 -114 -50.5 -230.5t-131 -205.5t-186.5 -145.5t-211 -56.5q-33 0 -61 11.5t-40 26.5l-4 -2l-111 -348q-28 -89 -28 -119q0 -14 8 -22q14 -14 154 -14q20 0 20 -31t-20 -31q-26 0 -104.5 2t-106.5 2q-41 0 -147 -12t-128 -12q-20 0 -20 30q0 31 20 31
q49 0 91 10t57 25q26 26 45 84l401 1206q-76 -23 -172 -119q-12 -12 -26 -28t-24 -28t-11 -13q-6 -6 -15 -6t-16.5 7t-7.5 19q0 8 23.5 41.5t47.5 57.5q111 111 226 143l65 207q8 25 26 37t58 12q66 0 66 -41q0 -15 -15 -41l-65 -158q50 15 108 15q120 0 202.5 -89.5
t82.5 -214.5zM745 614q0 111 -57 179.5t-160 68.5q-24 0 -34.5 -14.5t-20.5 -44.5l-219 -678q-6 -18 -6 -39q0 -29 17.5 -43t64.5 -14q65 0 138.5 49t134.5 127.5t101.5 188.5t40.5 220z" />
    <glyph glyph-name="q" unicode="q" horiz-adv-x="931" 
d="M922 885q0 -6 -33 -107l-354 -1110q-29 -92 -29 -117q0 -16 8 -24q14 -14 117 -14q20 0 20 -31t-20 -31q-7 0 -79 2t-95 2q-44 0 -147.5 -12t-127.5 -12q-20 0 -20 30q0 31 20 31q113 0 150 37q25 25 39 68l127 403l137 389q-6 2 -10 4q-62 -102 -137 -191.5t-165 -155.5
t-163 -66q-69 0 -104.5 42t-35.5 121q0 95 42.5 206.5t112 210.5t151.5 181.5t169 131.5t156 49q28 0 50 -12t33.5 -29t19.5 -34.5t10 -29.5l2 -12h4l18 80q8 41 52 41q41 0 61.5 -12t20.5 -29zM723 727q0 58 -22 92.5t-66 34.5q-56 0 -136 -64.5t-150.5 -159.5
t-120.5 -212.5t-50 -212.5q0 -49 22.5 -76t63.5 -27q45 0 124 73.5t152.5 172.5t128 207.5t54.5 171.5z" />
    <glyph glyph-name="r" unicode="r" horiz-adv-x="808" 
d="M891 815q0 -45 -31 -76.5t-76 -31.5q-24 0 -40.5 11.5t-23 26t-16 26t-22.5 11.5q-42 0 -130.5 -117.5t-161 -243.5t-97.5 -188l-78 -202q-10 -30 -28.5 -40.5t-53.5 -10.5q-82 0 -82 40q0 9 21 56l110 264q142 356 142 410q0 22 -23 22q-15 0 -43 -26.5t-51.5 -58
t-44.5 -60.5l-21 -29q-6 -6 -12 -6q-9 0 -19 7t-10 19q0 5 4 13q10 20 40.5 63.5t75.5 96.5t100 92t100 39q33 0 52.5 -16t19.5 -46q0 -18 -18.5 -62t-49 -110t-45.5 -104l-105 -260l9 -5q99 173 196 322.5t146 198.5q82 82 159 82q49 0 78 -31t29 -76z" />
    <glyph glyph-name="s" unicode="s" horiz-adv-x="624" 
d="M604 784q0 -40 -23 -67t-63 -27q-36 0 -57 21.5t-21 54.5q0 6 4.5 23t4.5 26q0 14 -11 25q-18 18 -59 18q-45 0 -76 -38.5t-31 -92.5q0 -41 19 -86.5t46 -88t53.5 -88t45.5 -101.5t19 -113q0 -110 -84 -190t-197 -80q-80 0 -132 40.5t-52 110.5q0 40 27 69t65 29
q39 0 63.5 -23.5t24.5 -60.5q0 -9 -3 -35.5t-3 -39.5q0 -35 55 -35q60 0 87.5 42.5t27.5 100.5q0 38 -25.5 97.5t-56.5 113.5t-56.5 127t-25.5 135q0 108 74.5 189.5t181.5 81.5q72 0 125 -37.5t53 -100.5z" />
    <glyph glyph-name="t" unicode="t" horiz-adv-x="614" 
d="M655 881q0 -29 -14 -49.5t-29 -20.5q-137 8 -176 8l-190 -510q-35 -96 -35 -145q0 -25 20 -25q19 0 56.5 38.5t70.5 83.5t61.5 86t29.5 42q6 6 12 6q9 0 18.5 -7t9.5 -19q0 -5 -4 -13q-11 -22 -48.5 -77t-92 -125t-120.5 -122t-115 -52q-78 0 -78 71q0 68 57 215l213 553
q-23 0 -69.5 -5t-49.5 -5q-28 0 -28 47q0 22 11 36.5t25 14.5q6 0 63 -5t79 -5l63 203q7 27 26 37t58 10q68 0 68 -41q0 -11 -17 -49l-61 -156q20 0 89 7t75 7q22 0 22 -34z" />
    <glyph glyph-name="u" unicode="u" horiz-adv-x="1044" 
d="M993 881q0 -10 -14 -52l-211 -536q-45 -133 -45 -143q0 -21 18 -21q15 0 44.5 26.5t54 57t46.5 59.5l23 29q6 6 13 6q9 0 18.5 -7t9.5 -19q0 -5 -4 -13q-6 -12 -28 -42.5t-59 -73t-77 -80.5t-86 -65t-82 -27q-25 0 -46 18.5t-21 42.5q0 19 16 59.5t47.5 107.5t44.5 99
l93 211l-9 4q-54 -85 -97.5 -148.5t-106 -142.5t-116.5 -129.5t-118 -86t-121 -35.5q-108 0 -108 98q0 76 67 235l154 357q26 67 26 82q0 16 -12 16q-15 0 -43 -24t-51 -52t-45 -55.5t-23 -28.5q-6 -6 -12 -6q-9 0 -19 7.5t-10 19.5q0 2 5 12q8 16 44 60t83 94t99.5 88.5
t84.5 38.5q88 0 88 -62q0 -9 -4 -23.5t-13 -37.5t-15.5 -38.5t-20.5 -47t-19 -43.5l-160 -371q-43 -101 -43 -160q0 -43 46 -43q48 0 125.5 68t150 161t131.5 185.5t78 144.5l78 215q9 28 28.5 40t57.5 12q65 0 65 -41z" />
    <glyph glyph-name="v" unicode="v" horiz-adv-x="931" 
d="M870 782q0 -47 -8.5 -110.5t-27.5 -140t-45 -153t-65 -148.5t-84 -127.5t-105 -89t-125 -33.5q-86 0 -145.5 67.5t-59.5 165.5q0 81 31.5 181t69 172.5t69 129.5t31.5 62q0 14 -33 14h-97q-81 0 -123 -24t-42 -60q0 -13 18.5 -29t36.5 -36.5t18 -44.5q0 -34 -20.5 -55
t-52.5 -21q-34 0 -57 24t-23 60q0 62 50 140.5t101 129.5q23 23 44 34t53 11h18q71 0 121.5 5.5t73 10.5t24.5 5q8 0 13.5 -7t5.5 -14q0 -12 -37 -79.5t-82 -146.5t-82 -174.5t-37 -156.5q0 -107 46.5 -171t121.5 -64q87 0 160.5 75t114 190t40.5 236q0 25 -18 52t-40 47
t-40 47.5t-18 52.5q0 52 23.5 82.5t72.5 30.5q52 0 81 -36.5t29 -103.5z" />
    <glyph glyph-name="w" unicode="w" horiz-adv-x="1474" 
d="M1413 782q0 -61 -10.5 -140.5t-31 -171t-56 -177.5t-79.5 -156.5t-107.5 -113.5t-135.5 -43q-43 0 -76 12.5t-53 37.5t-32.5 51t-18 66.5t-7 70t-1.5 73.5l2 37h-6q-51 -96 -106 -170.5t-123.5 -126t-131.5 -51.5q-87 0 -145.5 63t-58.5 160q0 81 33.5 182.5t74 176
t74 133t33.5 63.5q0 14 -33 14h-131q-84 0 -130 -22.5t-46 -61.5q0 -13 18.5 -29t36.5 -36.5t18 -44.5q0 -34 -20.5 -55t-52.5 -21q-34 0 -57 24t-23 60q0 62 50 140.5t101 129.5q24 24 43.5 34.5t50.5 10.5h62q71 0 122.5 5.5t75 10.5t25.5 5q9 0 16 -7t7 -14
q0 -12 -39.5 -80.5t-86.5 -149.5t-86.5 -179.5t-39.5 -163.5q0 -112 36.5 -163.5t116.5 -51.5q48 0 107 42.5t103 97t74 103t30 64.5q0 3 -46 140t-46 198q0 71 43 117.5t120 46.5q55 0 89 -35t34 -88t-35.5 -148t-71.5 -170.5t-36 -81.5q0 -57 8 -105.5t26 -90.5t51 -66
t79 -24q94 0 166.5 72.5t107.5 182.5t35 234q0 28 -11.5 52.5t-28.5 43t-33.5 36.5t-28 39.5t-11.5 45.5q0 46 24.5 74.5t68.5 28.5q51 0 80.5 -36.5t29.5 -103.5zM909 715q0 38 -19 60t-50 22q-32 0 -51 -21t-19 -53q0 -39 15 -102.5t29 -107.5l15 -44h5q8 16 20.5 43
t33.5 92.5t21 110.5z" />
    <glyph glyph-name="x" unicode="x" horiz-adv-x="1034" 
d="M1024 827q0 -41 -27 -69.5t-67 -28.5q-26 0 -46.5 16t-35.5 32t-29 16q-22 0 -63 -41q-31 -31 -80.5 -94.5t-83.5 -111.5l-33 -48l72 -252q10 -34 17 -52.5t19.5 -34.5t28.5 -16q20 0 52.5 33t61.5 77t48 74.5t23 39.5q6 12 20 12q11 0 20 -7t9 -18q0 -15 -51 -105
t-124.5 -179.5t-121.5 -89.5q-74 0 -113 159l-59 234h-4q-156 -221 -226 -291q-102 -102 -186 -102q-43 0 -69.5 26.5t-26.5 67.5q0 42 26 70t66 28q33 0 65 -33t48 -33q20 0 61 41q36 36 92 107.5t95 125.5l38 54l-59 217q-14 59 -29 83t-35 24q-51 0 -143 -183
q-6 -12 -20 -12q-11 0 -20 7t-9 18q0 15 41 95t103 159.5t106 79.5q20 0 36.5 -11t28.5 -28.5t24.5 -49t21 -61.5t20.5 -78l35 -135h4q142 199 203 260q103 103 178 103q43 0 70.5 -27t27.5 -68z" />
    <glyph glyph-name="y" unicode="y" horiz-adv-x="911" 
d="M860 788q0 -68 -29.5 -193t-81 -277t-126.5 -308.5t-159.5 -285.5t-188 -211t-203.5 -82q-75 0 -130 42t-55 117q0 52 33 90.5t80 38.5q48 0 80.5 -28t32.5 -74q0 -16 -2 -39.5t-2 -28.5q0 -30 34 -30q66 0 144 78q76 76 135 174t59 188q0 62 -32 168l-158 500
q-38 131 -76 131q-18 0 -39.5 -26t-39 -65t-31.5 -76t-23 -67l-10 -30q-6 -13 -21 -13q-11 0 -19.5 7t-8.5 18q0 13 18.5 75.5t48.5 140.5t76.5 139t93.5 61q29 0 54.5 -22.5t45.5 -64.5t33 -78t27 -87l172 -584h6q6 11 15.5 31t34 82t43.5 123t34.5 145t15.5 158
q0 27 -15 52t-33 42t-33 42t-15 52q0 48 29 78.5t74 30.5q56 0 84 -40.5t28 -93.5z" />
    <glyph glyph-name="z" unicode="z" horiz-adv-x="942" 
d="M891 168q0 -100 -94.5 -164.5t-225.5 -64.5q-48 0 -89.5 17.5t-69.5 43.5t-56 56.5t-50 56.5t-51 43.5t-60 17.5q-35 0 -52.5 -12t-17.5 -29q0 -13 13.5 -39t13.5 -39q0 -33 -21.5 -54t-56.5 -21q-32 0 -53 20t-21 51q0 51 72 123q41 41 181 165.5t260 228.5l120 104
l-2 4q-32 0 -79 36.5t-88 80t-88 80t-79 36.5q-35 0 -51.5 -14.5t-16.5 -34.5q0 -12 26 -44t26 -58q0 -34 -25 -58t-61 -24t-60 26.5t-24 65.5q0 82 73 138.5t168 56.5q58 0 103 -16.5t69.5 -41.5t45.5 -54t34.5 -54t33.5 -41.5t44 -16.5q45 0 45 33q0 10 -8 41t-8 47
q0 30 22 50t53 20t50.5 -20t19.5 -52q0 -61 -68 -121l-567 -506l4 -4q65 19 103 19q42 0 79 -25.5t64.5 -62l55 -73t64.5 -62t79 -25.5t62 17t20 36q0 14 -26 54.5t-26 68.5q0 36 27 64t72 28t68.5 -28.5t23.5 -69.5z" />
    <glyph glyph-name="braceleft" unicode="{" horiz-adv-x="675" 
d="M881 1413q0 -8 -7 -19.5t-14 -11.5q-6 0 -34.5 5.5t-57.5 5.5q-66 0 -112.5 -35.5t-72 -96t-42.5 -135t-31 -159t-29.5 -161.5t-45.5 -148.5t-73 -114.5q-29 -29 -68.5 -51t-63.5 -30l-25 -7v-9q6 -2 15.5 -5t34 -17t43.5 -32.5t34.5 -52t15.5 -73.5q0 -62 -68.5 -312
t-68.5 -312q0 -59 31 -96.5t96 -37.5q24 0 47.5 5.5t24.5 5.5q8 0 16 -8t8 -19q0 -21 -37.5 -33t-68.5 -12q-123 0 -189.5 53t-66.5 152q0 68 41 197.5t82 259.5t41 198q0 29 -24 67t-58 38q-10 0 -29 -6.5t-29 -6.5q-13 0 -24 10t-11 31q0 30 16.5 46t31.5 16q11 0 26 -6.5
t19 -6.5q54 0 112 58q37 37 59.5 109.5t32.5 154t20.5 173t33 174t61.5 149.5t113.5 107t181.5 40q34 0 73.5 -10.5t39.5 -30.5z" />
    <glyph glyph-name="bar" unicode="|" horiz-adv-x="512" 
d="M307 -522q0 -13 -16 -22t-45 -9q-58 0 -58 41q0 7 3.5 147.5t3.5 200.5v1024q0 91 -2.5 229t-5.5 240t-3 105q0 41 62 41q31 0 44 -9t13 -32q0 -7 -3 -148t-3 -201v-1024q0 -86 2.5 -226.5t5 -247t2.5 -109.5z" />
    <glyph glyph-name="braceright" unicode="}" horiz-adv-x="634" 
d="M553 461q0 -30 -16.5 -46t-30.5 -16q-9 0 -20 3.5t-18 6.5l-7 3q-6 0 -16.5 -1.5t-40.5 -16t-56 -40.5q-36 -36 -59 -116.5t-35 -174.5t-25 -189.5t-42 -182t-74 -131.5q-113 -113 -277 -113q-33 0 -67.5 10t-34.5 31q0 8 6.5 19.5t13.5 11.5q3 0 13 -2.5t28.5 -5.5
t40.5 -3q45 0 80 16.5t74 55.5q34 34 59 112.5t42 171t35 186.5t47.5 176.5t68.5 121.5q36 36 78 60.5t66 31.5l24 6v9q-6 2 -15.5 5t-34.5 17t-44 32.5t-34.5 52t-15.5 73.5q0 63 68.5 316.5t68.5 308.5q0 59 -31 97t-96 38q-24 0 -50 -4.5t-27 -4.5q-8 0 -13.5 7.5
t-5.5 19.5q0 17 39 29t68 12q123 0 189.5 -53t66.5 -152q0 -68 -41 -197.5t-82 -259.5t-41 -198q0 -39 27.5 -72t64.5 -33q6 0 21 6.5t26 6.5q35 0 35 -41z" />
    <glyph glyph-name="asciitilde" unicode="~" horiz-adv-x="655" 
d="M829 1300q0 -58 -56.5 -131t-137.5 -73q-67 0 -192 41t-167 41q-15 0 -27.5 -6.5t-12.5 -14.5q0 -6 8 -21.5t8 -29.5q0 -12 -12 -21.5t-29 -9.5q-16 0 -26.5 12.5t-10.5 28.5q0 66 54 120t110 54q32 0 162.5 -35.5t185.5 -35.5q37 0 59.5 14t22.5 27q0 1 -10 15.5
t-10 29.5q0 13 11 24.5t29 11.5q15 0 28 -10t13 -31z" />
    <glyph glyph-name="nbspace" unicode="&#xa0;" horiz-adv-x="512" 
 />
    <glyph glyph-name="exclamdown" unicode="&#xa1;" horiz-adv-x="573" 
d="M645 1311q0 -51 -36 -87t-87 -36t-87 36t-36 87t36 87t87 36t87 -36t36 -87zM475 1004q0 -7 -2 -16t-6 -22.5t-6 -23.5l-8 -31q-36 -137 -59 -299.5t-31 -268.5t-29 -199t-58 -130q-34 -34 -81 -34q-54 0 -88.5 34t-34.5 88q0 55 36.5 153.5t84 198t103 237.5t83.5 251
l10 41q12 51 37 51q17 0 33 -8t16 -22z" />
    <glyph glyph-name="cent" unicode="&#xa2;" horiz-adv-x="798" 
d="M778 788q0 -45 -26.5 -73.5t-65.5 -28.5q-40 0 -66 26t-26 66q0 22 6 47.5t6 28.5q0 23 -37 23q-64 0 -130 -66t-113 -162t-77 -203.5t-30 -189.5q0 -158 103 -158q75 0 151 76q22 22 47.5 53.5t28.5 34.5q12 12 24 12q10 0 17.5 -7.5t7.5 -16.5q0 -6 -15 -33t-41 -64
t-50 -61q-98 -98 -201 -110l-45 -156q-3 -12 -14.5 -21.5t-26.5 -9.5q-16 0 -28.5 8.5t-12.5 22.5q0 4 14 29.5t36.5 66t31.5 58.5q-185 15 -185 245q0 70 25 160.5t73.5 184t111 172.5t147 129.5t172.5 50.5h6l45 153q3 12 14.5 21.5t26.5 9.5q16 0 28.5 -8.5t12.5 -22.5
q0 -3 -13.5 -27.5t-34.5 -63t-34 -66.5q59 -8 98 -43t39 -87z" />
    <glyph glyph-name="sterling" unicode="&#xa3;" horiz-adv-x="890" 
d="M809 236q0 -61 -28 -112.5t-67.5 -81.5t-77.5 -46t-63 -16q-60 0 -118.5 12t-138 36.5t-111.5 32.5q-7 -9 -19 -22.5t-44.5 -36t-59.5 -22.5q-31 0 -51.5 24t-20.5 62q0 44 31.5 72t71.5 28l102 -4q8 6 20 17.5t32 52t20 85.5q0 18 -4.5 41.5t-9.5 37.5l-5 14
q-29 0 -100 -4l-72 -5q-24 0 -24 29q0 20 9.5 28.5t20.5 8.5q2 0 67 -3t87 -3q-41 112 -41 184q0 123 101 210t247 87q95 0 160 -50.5t65 -133.5q0 -42 -26.5 -70.5t-65.5 -28.5q-30 0 -52.5 23.5t-22.5 54.5q0 22 25.5 50t25.5 42q0 26 -29 46t-80 20q-93 0 -143.5 -56.5
t-50.5 -162.5q0 -55 5 -108.5t10 -79.5l5 -27q34 0 70 2.5t59.5 5t24.5 2.5q30 0 30 -31q0 -18 -10.5 -29.5t-25.5 -11.5q-5 0 -65.5 5.5t-78.5 5.5q0 -75 -28.5 -130t-98.5 -122q92 -12 215 -49t174 -37q33 0 54.5 24t21.5 37q0 17 -18 34.5t-36 37t-18 41.5q0 31 20.5 51
t51.5 20q32 0 55 -22t23 -59z" />
    <glyph glyph-name="currency" unicode="&#xa4;" horiz-adv-x="1024" 
d="M160 754q0 125 78 219q-137 134 -138 135q-28 28 -2 57q30 26 58 -2q0 -1 133 -137q98 82 225 82q121 0 221 -80l41 41t36.5 37t27.5 28.5t19.5 20l8.5 8.5q28 28 58 2q26 -29 -2 -57l-8.5 -8.5t-20.5 -19.5t-29 -27.5t-37 -36.5l-41 -41q80 -100 80 -221
q0 -128 -82 -226q135 -132 138 -133q28 -28 2 -57q-30 -26 -58 2q-3 2 -135 137q-94 -78 -219 -78q-123 0 -223 80q-31 -32 -64.5 -66.5t-51 -52.5t-19.5 -20q-28 -28 -58 -2q-26 29 2 57q1 1 20 19t53.5 51t66.5 65q-80 100 -80 224zM248 752q0 -109 77.5 -187t186.5 -78
q112 0 190 78t78 187q0 112 -78 190t-190 78q-109 0 -186.5 -78t-77.5 -190z" />
    <glyph glyph-name="yen" unicode="&#xa5;" horiz-adv-x="931" 
d="M1024 844q0 -46 -28.5 -71t-63.5 -25q-30 0 -50.5 14.5t-28.5 31.5t-18 31.5t-22 14.5q-44 0 -114.5 -102.5t-125 -218.5t-77.5 -191q16 0 76 3t63 3q20 0 20 -29q0 -21 -11.5 -31t-25.5 -10q-1 0 -31 2t-64.5 4t-45.5 2l-37 -125q-16 -56 -16 -75q0 -14 24.5 -18.5
t83.5 -4.5q21 0 21 -26q0 -10 -9 -18.5t-18 -8.5q-4 0 -38.5 1t-83 2t-87.5 1q-37 0 -84 -1t-81 -2t-39 -1q-9 0 -15 9t-6 20q0 26 27 26q111 0 121 10q20 20 41 82l41 131q-20 0 -74.5 -5t-57.5 -5q-26 0 -26 33q0 20 10 28.5t21 8.5q1 0 60 -3t85 -3q7 18 16.5 50t26 119
t16.5 162q0 170 -102 170q-66 0 -115 -53t-49 -110q0 -17 16.5 -28t37 -18t37 -26.5t16.5 -50.5q0 -28 -22.5 -48t-53.5 -20q-36 0 -64 34.5t-28 104.5q0 75 46.5 147t118.5 116.5t142 44.5q73 0 108 -57t35 -148q0 -59 -11 -125.5t-21 -103.5l-11 -37q0 -9 4 -9l9 7
q81 186 130 269q136 224 289 224q47 0 80 -28t33 -70z" />
    <glyph glyph-name="brokenbar" unicode="&#xa6;" horiz-adv-x="512" 
d="M303 1434q0 -7 -3 -148t-3 -201v-553q0 -20 -10 -20h-82q-10 0 -10 20v328q0 91 -2.5 229t-5.5 240t-3 105q0 41 62 41q31 0 44 -9t13 -32zM307 -522q0 -13 -16 -22t-45 -9q-58 0 -58 41q0 7 3.5 147.5t3.5 200.5v553q0 21 10 21h82q10 0 10 -21v-328q0 -86 2.5 -226.5
t5 -247t2.5 -109.5z" />
    <glyph glyph-name="section" unicode="&#xa7;" horiz-adv-x="1024" 
d="M1044 1249q0 -70 -37.5 -111.5t-105.5 -41.5q-48 0 -85.5 35.5t-37.5 87.5q0 39 15.5 73.5t15.5 38.5q0 7 -4.5 15t-24.5 17t-53 9q-64 0 -121.5 -15.5t-97 -38.5t-72.5 -53.5t-51.5 -55t-30.5 -48.5q58 -58 90 -91t90 -99.5t92 -117t77.5 -128t67.5 -149t41 -163.5
t17 -188q0 -373 -157 -575.5t-436 -202.5q-49 0 -97.5 12.5t-92 37.5t-70.5 68t-27 97q0 57 37 102.5t96 45.5q55 0 94 -33.5t39 -83.5q0 -36 -18.5 -72.5t-18.5 -40.5q0 -21 32.5 -36t65.5 -15q245 0 390 215q-482 412 -482 932q0 365 155 571.5t419 206.5q48 0 97 -12.5
t92 -36.5t70 -65t27 -91zM737 61q0 92 -23 197.5t-60 201t-82 189.5t-90 169.5t-82 134t-60 90.5l-23 32h-4q-37 -122 -37 -235q0 -94 23 -200.5t60 -201t82 -187t90 -166t82 -130.5t60 -88l23 -31h4q37 92 37 225z" />
    <glyph glyph-name="dieresis" unicode="&#xa8;" horiz-adv-x="604" 
d="M799 1276q0 -43 -33 -77t-74 -34t-66.5 27t-25.5 70t33 76.5t74 33.5t66.5 -27t25.5 -69zM393 1235q0 -43 -32.5 -77t-73.5 -34q-40 0 -66 28t-26 69q0 43 32.5 76.5t73.5 33.5t66.5 -26.5t25.5 -69.5z" />
    <glyph glyph-name="copyright" unicode="&#xa9;" horiz-adv-x="1679" 
d="M1628 717q0 -202 -98 -372.5t-267.5 -270t-371.5 -99.5t-371.5 99.5t-267.5 270t-98 372.5q0 151 58 287.5t156.5 235t235 156.5t287.5 58t287.5 -58t235 -156.5t156.5 -235t58 -287.5zM1546 717q0 182 -86 334.5t-237 241.5t-332 89t-332 -89t-237 -241.5t-86 -334.5
t86 -336t237 -244t332 -90t332 90t237 244t86 336zM1227 922q0 -7 -10.5 -14t-18.5 -7q-13 0 -20 14q-84 170 -277 170q-126 0 -196 -87.5t-70 -260.5q0 -175 79.5 -264.5t227.5 -89.5q70 0 129.5 26t95.5 62q12 12 21 12q7 0 13.5 -7t6.5 -15q0 -5 -12.5 -22t-39.5 -41.5
t-63.5 -47t-93 -38t-118.5 -15.5q-169 0 -284.5 123t-115.5 307q0 111 55 208t150 154.5t205 57.5q72 0 148.5 -20.5t86.5 -20.5q23 0 39 15.5t23 15.5q9 0 16.5 -5t7.5 -12q0 -1 -1 -8.5t-2 -20t-1 -26.5q0 -36 5 -69.5t9.5 -52.5t4.5 -21z" />
    <glyph glyph-name="ordfeminine" unicode="&#xaa;" horiz-adv-x="829" 
d="M942 1434q0 -4 -4.5 -17t-9.5 -24l-4 -11l-125 -307q-92 -230 -92 -272q0 -19 22 -19q12 0 30 11.5t36 28.5t38 37.5t34 37.5t25 30l11 13q8 6 10 6q19 0 19 -18q0 -6 -2 -10q-8 -17 -38.5 -57t-74.5 -88t-100.5 -84t-102.5 -36q-27 0 -39 13.5t-12 27.5q0 79 72 226
l74 149l-7 4q-54 -73 -111.5 -140.5t-124 -133.5t-130.5 -106t-111 -40q-52 0 -82 32.5t-30 80.5q0 90 57 209t139.5 221.5t184 174t182.5 71.5q41 0 69 -27t35 -53l8 -27h5l26 86q10 31 72 31q22 0 36.5 -6t14.5 -14zM748 1300q0 76 -72 76q-59 0 -134 -61t-136 -145.5
t-103.5 -177t-42.5 -152.5q0 -66 47 -66q55 0 161.5 98.5t193 226.5t86.5 201z" />
    <glyph glyph-name="guillemotleft" unicode="&#xab;" horiz-adv-x="890" 
d="M829 819q0 -98 -229 -368q51 -147 51 -267q0 -36 -10.5 -79.5t-30.5 -43.5q-3 0 -17 45t-49.5 125.5t-84.5 147.5l-39 51q-6 6 -6 14q0 9 18 27q1 1 13.5 10.5t34 27t49 40.5t66 58.5t77.5 74.5q37 37 72.5 77.5t52 60.5t18.5 20q14 0 14 -21zM508 850q0 -47 -49.5 -132
t-99 -148.5t-97.5 -118.5q55 -145 55 -287q0 -43 -10 -83t-26 -40h-7q-2 0 -6.5 16t-15 47.5t-26 70.5t-46 94.5t-69.5 109.5l-23 31q-4 6 -11.5 15.5t-11.5 15.5t-4 10q0 3 9 12q1 1 16.5 12.5t42 31.5t58.5 46.5t74.5 64.5t82.5 78q43 43 80.5 86t52.5 60.5t19 17.5h2
q10 0 10 -10z" />
    <glyph glyph-name="logicalnot" unicode="&#xac;" horiz-adv-x="1024" 
d="M922 20q0 -20 -25 -20h-61q-25 0 -25 20q0 14 2 88.5t2 96.5v194h-477q-76 0 -143 -1t-106 -2t-48 -1q-21 0 -21 25v41q0 15 7 30t14 15q14 0 88 -2t96 -2h379q76 0 143 1t106 2t48 1q21 0 21 -25l-4 -123v-102q0 -67 2 -149t2 -87z" />
    <glyph glyph-name="uni00AD" unicode="&#xad;" horiz-adv-x="614" 
d="M532 502q0 -50 -17.5 -81.5t-53.5 -31.5h-365q-35 0 -35 41q0 43 14 67.5t31 24.5h160q49 0 90 1t66 2.5t42.5 3t26.5 2.5t11 1q30 0 30 -30z" />
    <glyph glyph-name="registered" unicode="&#xae;" horiz-adv-x="1679" 
d="M1628 717q0 -202 -98 -372.5t-267.5 -270t-371.5 -99.5t-371.5 99.5t-267.5 270t-98 372.5q0 151 58 287.5t156.5 235t235 156.5t287.5 58t287.5 -58t235 -156.5t156.5 -235t58 -287.5zM1546 717q0 182 -86 334.5t-237 241.5t-332 89t-332 -89t-237 -241.5t-86 -334.5
t86 -336t237 -244t332 -90t332 90t237 244t86 336zM1370 322q0 -25 -31 -25q-166 0 -213 47q-34 34 -96 149.5t-108 161.5q-52 52 -152 52v-267q0 -67 8 -75q9 -9 82 -9q23 0 23 -26q0 -12 -6.5 -18.5t-16.5 -6.5q-3 0 -30.5 1.5t-68.5 3t-77 1.5t-67 -1t-48.5 -2t-21.5 -1
q-17 0 -17 27q0 8 5 16t16 8h18q49 0 58 9q6 6 6 63v574q0 67 -10 77q-9 9 -52 9h-20q-21 0 -21 26q0 23 19 23q1 0 46.5 -1t88.5 -1q23 0 94.5 2t110.5 2q126 0 202 -57t76 -162q0 -52 -20 -93t-48.5 -62.5t-57 -36t-48.5 -18.5l-20 -5q92 -32 112 -52q35 -35 88 -134
t97 -142q21 -21 45.5 -31t38.5 -10q16 0 16 -16zM1024 922q0 83 -41.5 128.5t-142.5 45.5q-45 0 -62 -17q-8 -8 -8 -65v-262q22 0 69.5 -7.5t61.5 -7.5q60 0 91.5 49t31.5 136z" />
    <glyph glyph-name="macron" unicode="&#xaf;" horiz-adv-x="512" 
d="M676 1178q0 -23 -11 -38.5t-26 -15.5q-7 0 -45.5 1t-61.5 1h-256q-24 0 -52 -2t-29 -2q-10 0 -20.5 8.5t-10.5 26.5q0 23 11 38t26 15q6 0 41.5 -1t64.5 -1h256q24 0 52.5 2t29.5 2q11 0 21 -8t10 -26z" />
    <glyph glyph-name="degree" unicode="&#xb0;" horiz-adv-x="614" 
d="M743 1188q0 -107 -82.5 -190t-189.5 -83t-176.5 72t-69.5 180q0 107 84.5 189t192.5 82q106 0 173.5 -71t67.5 -179zM653 1188q0 75 -43 116.5t-118 41.5q-73 0 -124 -52.5t-51 -126.5q0 -76 43 -117.5t117 -41.5q72 0 124 54t52 126z" />
    <glyph glyph-name="plusminus" unicode="&#xb1;" horiz-adv-x="921" 
d="M819 522q0 -15 -6 -25t-14 -10q-14 0 -88.5 2.5t-96.5 2.5h-92v-82q0 -76 1 -120t2 -60t1 -25q0 -21 -24 -21h-62q-24 0 -24 21q0 14 2 88t2 96v103h-82q-76 0 -122.5 -1t-65 -2.5t-27.5 -1.5q-21 0 -21 25v41q0 15 7 30t14 15q14 0 88 -2t96 -2h113v82q0 73 -2 137
t-2 68q0 20 24 20h62q24 0 24 -20q0 -14 -2 -88.5t-2 -96.5v-102h82q59 0 99 0.5t53 1.5t23.5 1.5t19.5 0.5q20 0 20 -25v-51zM809 41q0 -15 -7 -30t-14 -15q-14 0 -88 2t-96 2h-174q-76 0 -143 -1t-106 -2t-48 -1q-20 0 -20 24v52q0 14 6 24t14 10q14 0 88 -2t96 -2h175
q76 0 143 1t105.5 2t47.5 1q21 0 21 -24v-41z" />
    <glyph glyph-name="twosuperior" unicode="&#xb2;" horiz-adv-x="655" 
d="M727 1260q0 -62 -30 -121.5t-72.5 -104.5t-112.5 -94t-124.5 -79.5t-135.5 -72.5l4 -6q41 11 102 11q48 0 110 -15.5t126 -15.5q50 0 92 84q5 10 21 10q6 0 13 -4.5t7 -11.5q0 -21 -23.5 -65.5t-69 -87t-91.5 -42.5q-65 0 -124 20.5t-114 41t-110 20.5q-7 0 -12.5 -15.5
t-18 -30.5t-37.5 -15q-13 0 -24 10t-11 31q0 23 27 48t70.5 51.5t96 56.5t105 67.5t96 80t70.5 99.5t27 119q0 65 -36.5 99t-86.5 34q-61 0 -99 -42.5t-38 -111.5q0 -27 7.5 -50.5t14.5 -35.5l8 -12q0 -8 -6 -14t-14 -6q-24 0 -48 43.5t-24 95.5q0 105 71.5 170t174.5 65
q105 0 162 -56t57 -148z" />
    <glyph glyph-name="threesuperior" unicode="&#xb3;" horiz-adv-x="604" 
d="M696 1311q0 -66 -53 -126t-151 -89v-4q72 0 123 -43t51 -117q0 -114 -99 -190t-239 -76q-83 0 -134 43t-51 100q0 50 28.5 76t64.5 26q32 0 56.5 -20.5t24.5 -50.5q0 -27 -14.5 -47.5t-28.5 -27.5l-14 -7q0 -2 1 -5t6.5 -11t14 -14.5t26 -11.5t40.5 -5q80 0 132 52
t52 148q0 54 -36.5 99t-106.5 45q-5 0 -18.5 -3t-18.5 -3q-20 0 -20 24q0 15 37 23q99 23 154 72.5t55 111.5q0 51 -27.5 76.5t-69.5 25.5q-43 0 -74.5 -26t-31.5 -76q0 -14 3.5 -28t7 -23t3.5 -10q0 -7 -9.5 -14t-17.5 -7q-4 0 -13.5 9.5t-19.5 35t-10 57.5q0 73 60 118.5
t137 45.5q78 0 129 -42.5t51 -110.5z" />
    <glyph glyph-name="acute" unicode="&#xb4;" horiz-adv-x="266" 
d="M440 1372q0 -20 -14 -41l-207 -317q-10 -10 -20 -10q-8 0 -16.5 6.5t-8.5 13.5q0 8 4 20l129 355q16 45 62 45q27 0 49 -18.5t22 -53.5z" />
    <glyph glyph-name="mu" unicode="&#xb5;" horiz-adv-x="1187" 
d="M1137 362q0 -46 -46 -135.5t-123.5 -168t-148.5 -78.5q-43 0 -77 19t-51.5 46t-28.5 54t-14 46l-3 19h-6q-4 -7 -11 -19.5t-31 -44.5t-49 -56t-63 -44t-75 -20q-40 0 -77 21t-61 51t-42 60t-26 51l-9 21q-4 0 -6.5 -2.5t-3.5 -5.5l-1 -2q-5 -22 -11.5 -64.5t-18 -188.5
t-11.5 -310v-62q0 -32 -22.5 -54.5t-59.5 -22.5q-45 0 -68.5 26t-23.5 72q0 116 148.5 677t179.5 623q23 52 82 52q36 0 64 -20t28 -62q0 -5 -47.5 -101.5t-106.5 -240.5t-81 -252q0 -11 5.5 -28t19 -40t44.5 -39t74 -16q56 0 113 41.5t101.5 102.5t92 149t79.5 160.5
t69.5 159t56.5 124.5q30 62 92 62q34 0 63 -25t29 -68q0 -23 -92 -174t-184 -291l-92 -139q0 -14 3 -27.5t10.5 -29.5t25 -25.5t42.5 -9.5q29 0 65 17t67.5 41.5t64 56t54.5 56t39 44.5l18 21q14 14 20 14t13.5 -6t7.5 -15z" />
    <glyph glyph-name="paragraph" unicode="&#xb6;" horiz-adv-x="1024" 
d="M1178 1413q0 -18 -10 -30.5t-31 -12.5h-62q-59 0 -88 -29q-24 -24 -60.5 -194.5t-107.5 -562.5q-8 -45 -24 -140q-17 -99 -26 -150.5t-29.5 -147.5t-37.5 -151t-47.5 -136.5t-62.5 -129t-78.5 -104t-99.5 -86.5t-122 -50.5t-149 -20.5q-140 0 -239 90.5t-99 226.5
q0 117 78 197.5t199 80.5q81 0 137.5 -49t56.5 -137q0 -56 -39 -94.5t-94 -38.5q-54 0 -88.5 34.5t-34.5 88.5q0 14 3 26.5t5.5 20.5t2.5 10q0 5 -8.5 10t-22.5 5q-49 0 -75.5 -43.5t-26.5 -90.5q0 -119 77.5 -192.5t188.5 -73.5q78 0 143.5 27t115.5 73t92 120t72 155
t57 191.5t45.5 216t37.5 241.5l-6 6q-11 -5 -30.5 -13t-79.5 -21t-119 -13q-149 0 -228.5 99.5t-79.5 259.5q0 75 25 152.5t77 150.5t123.5 130t173 91.5t216.5 34.5q36 0 87 -3t56 -3q143 0 205 8q31 0 31 -29z" />
    <glyph glyph-name="periodcentered" unicode="&#xb7;" horiz-adv-x="512" 
d="M379 451q0 -51 -36 -87t-87 -36t-87 36t-36 87t36 86.5t87 35.5t87 -35.5t36 -86.5z" />
    <glyph glyph-name="cedilla" unicode="&#xb8;" horiz-adv-x="337" 
d="M143 0q-31 -20 -123 -92v-4q93 -56 93 -160q0 -74 -75.5 -149.5t-170.5 -75.5q-39 0 -65.5 20.5t-26.5 50.5q0 21 14.5 36.5t36.5 15.5q27 0 40.5 -19t19 -38t12.5 -19q37 0 74.5 37t37.5 100q0 32 -12 57.5t-32.5 40.5t-38 22.5t-36.5 12.5q-14 4 -14 21q0 4 82 61
l123 82h61z" />
    <glyph glyph-name="onesuperior" unicode="&#xb9;" horiz-adv-x="614" 
d="M737 1413q0 -29 -22 -29q-103 0 -115 -12q-18 -18 -41 -112l-86 -390q-22 -103 -22 -112t4 -13q10 -10 127 -10q6 0 11 -7.5t5 -16.5q0 -10 -7.5 -19.5t-12.5 -9.5l-30 1q-29 1 -79 2t-100 1q-59 0 -104.5 -1t-67.5 -2t-23 -1q-8 0 -14 7.5t-6 17.5q0 11 5.5 19.5
t14.5 8.5q106 0 119 13q23 23 41 112l92 389q20 86 20 109q0 8 -6 14q-10 10 -127 10q-16 0 -16 27q0 29 20 29q1 0 30 -1t80 -2t105 -1t99 1t68 2t24 1q6 0 10 -8.5t4 -16.5z" />
    <glyph glyph-name="ordmasculine" unicode="&#xba;" horiz-adv-x="747" 
d="M840 1188q0 -89 -39.5 -185t-102 -172.5t-148 -126t-171.5 -49.5q-100 0 -157.5 70t-57.5 176q0 119 67.5 243t178.5 207t225 83q96 0 150.5 -70.5t54.5 -175.5zM717 1270q0 123 -103 123q-69 0 -147 -96t-129 -232t-51 -246q0 -123 102 -123q69 0 147 96t129.5 232
t51.5 246z" />
    <glyph glyph-name="guillemotright" unicode="&#xbb;" horiz-adv-x="890" 
d="M809 453q0 -7 -6 -13q-1 -1 -18 -13.5t-45.5 -35t-63.5 -52t-81 -71t-89 -84.5q-30 -30 -62.5 -67.5t-49.5 -56.5t-21 -19h-4q-7 0 -7 12q0 47 51.5 134.5t98.5 147.5t96 116q-55 158 -55 286q0 39 10.5 81t28.5 42h4q2 0 13.5 -41t50.5 -126t102 -171l20 -30
q27 -35 27 -39zM455 457q0 -12 -11 -23l-30 -24q-30 -23 -86 -72.5t-119 -112.5q-38 -38 -77 -81t-57 -63t-22 -20q-12 0 -12 17q0 57 80.5 178t148.5 195q-51 147 -51 266q0 36 10.5 79.5t32.5 43.5q3 0 20.5 -50t57 -135.5t88.5 -152.5l23 -31q4 -8 4 -14z" />
    <glyph glyph-name="onequarter" unicode="&#xbc;" horiz-adv-x="1669" 
d="M1516 1372q0 -7 -3 -15t-5 -12l-3 -4q-153 -163 -245 -276l-564 -686q-53 -65 -130.5 -162t-128 -161t-52.5 -66q-10 -10 -27 -10q-23 0 -42 19t-19 42q0 7 2.5 15t4.5 12l3 4q154 163 246 276l563 686q53 65 130.5 162t128 161t52.5 66q11 11 27 11q23 0 42.5 -19.5
t19.5 -42.5zM1597 317q0 -3 -9.5 -19.5t-26.5 -53t-31 -80.5q-3 -8 -14 -8q-1 0 -17 2t-46.5 4t-66.5 2h-16l-51 -205q-5 -19 -9 -25t-16 -6h-102q-14 0 -14 15q0 3 6.5 25t16.5 55.5t16 56.5l22 84h-283q-30 0 -62.5 -3t-33.5 -3q-16 0 -16 16q0 11 10 21q2 2 30 27.5
t67 62t67 63.5l358 348q50 49 69 62.5t34 13.5q24 0 32.5 -4t8.5 -16q0 -6 -6.5 -30.5t-17.5 -64.5t-17 -63l-82 -320h30q41 0 57.5 1t38 10.5t33.5 29.5q10 19 21 19q20 0 20 -17zM737 1413q0 -29 -22 -29q-103 0 -115 -12q-18 -18 -41 -112l-86 -390q-22 -103 -22 -112
t4 -13q10 -10 127 -10q6 0 11 -7.5t5 -16.5q0 -10 -7.5 -19.5t-12.5 -9.5l-30 1q-29 1 -79 2t-100 1q-59 0 -104.5 -1t-67.5 -2t-23 -1q-8 0 -14 7.5t-6 17.5q0 11 5.5 19.5t14.5 8.5q106 0 119 13q23 23 41 112l92 389q20 86 20 109q0 8 -6 14q-10 10 -127 10q-16 0 -16 27
q0 29 20 29q1 0 30 -1t80 -2t105 -1t99 1t68 2t24 1q6 0 10 -8.5t4 -16.5zM1356 604l-8 4l-330 -327l4 -7h246l47 187q7 30 17.5 66t17.5 57z" />
    <glyph glyph-name="onehalf" unicode="&#xbd;" horiz-adv-x="1710" 
d="M1516 1372q0 -7 -3 -15t-5 -12l-3 -4q-153 -163 -245 -276l-564 -686q-53 -65 -130.5 -162t-128 -161t-52.5 -66q-10 -10 -27 -10q-23 0 -42 19t-19 42q0 7 2.5 15t4.5 12l3 4q154 163 246 276l563 686q53 65 130.5 162t128 161t52.5 66q11 11 27 11q23 0 42.5 -19.5
t19.5 -42.5zM737 1413q0 -29 -22 -29q-103 0 -115 -12q-18 -18 -41 -112l-86 -390q-22 -103 -22 -112t4 -13q10 -10 127 -10q6 0 11 -7.5t5 -16.5q0 -10 -7.5 -19.5t-12.5 -9.5l-30 1q-29 1 -79 2t-100 1q-59 0 -104.5 -1t-67.5 -2t-23 -1q-8 0 -14 7.5t-6 17.5
q0 11 5.5 19.5t14.5 8.5q106 0 119 13q23 23 41 112l92 389q20 86 20 109q0 8 -6 14q-10 10 -127 10q-16 0 -16 27q0 29 20 29q1 0 30 -1t80 -2t105 -1t99 1t68 2t24 1q6 0 10 -8.5t4 -16.5zM1628 563q0 -45 -15.5 -88.5t-39.5 -79t-63.5 -73t-76.5 -65.5t-90.5 -60.5
t-93.5 -54t-96 -50.5l4 -6q42 10 103 10q48 0 109.5 -15t125.5 -15q50 0 92 84q5 10 21 10q6 0 13 -5t7 -12q0 -14 -15 -45t-38.5 -65t-59 -59t-71.5 -25q-65 0 -124 20.5t-114 41t-110 20.5q-7 0 -12.5 -15.5t-18 -31t-37.5 -15.5q-13 0 -24 10t-11 31q0 23 27 48
t70.5 51.5t96 56.5t105 67.5t96 80t70.5 99.5t27 119q0 65 -36.5 99.5t-86.5 34.5q-61 0 -99 -42.5t-38 -111.5q0 -27 7.5 -50.5t15.5 -35.5l7 -12q0 -8 -6.5 -14.5t-13.5 -6.5q-24 0 -48 43.5t-24 95.5q0 105 71.5 170.5t174.5 65.5q104 0 161.5 -56.5t57.5 -148.5z" />
    <glyph glyph-name="threequarters" unicode="&#xbe;" horiz-adv-x="1617" 
d="M1475 1372q0 -7 -2.5 -15t-5.5 -12l-3 -4q-153 -163 -245 -276l-564 -686q-53 -65 -130.5 -162t-128 -161t-52.5 -66q-10 -10 -27 -10q-23 0 -42 19t-19 42q0 7 2.5 15t5.5 12l2 4q154 163 246 276l563 686q53 65 130.5 162t128 161t52.5 66q11 11 27 11q23 0 42.5 -19.5
t19.5 -42.5zM1559 317q0 -3 -9.5 -19.5t-27 -53t-31.5 -80.5q-3 -8 -14 -8q-1 0 -17 2t-46 4t-66 2h-17l-51 -205q-5 -19 -9 -25t-16 -6h-102q-14 0 -14 15q0 3 6.5 25t16.5 55.5t16 56.5l22 84h-282q-30 0 -63 -3t-34 -3q-16 0 -16 16q0 11 10 21q2 2 30 27.5t67 62
t67 63.5l358 348q50 49 69 62.5t34 13.5q24 0 32.5 -4t8.5 -16q0 -6 -6.5 -30.5t-17.5 -64.5t-17 -63l-82 -320h31q41 0 57.5 1t38 10.5t33.5 29.5q10 19 20 19q21 0 21 -17zM1317 604l-8 4l-330 -327l4 -7h246l47 187q7 30 17.5 66t16.5 57zM696 1311q0 -66 -53 -126
t-151 -89v-4q72 0 123 -43t51 -117q0 -114 -99 -190t-239 -76q-83 0 -134 43t-51 100q0 50 28.5 76t64.5 26q32 0 56.5 -20.5t24.5 -50.5q0 -27 -14.5 -47.5t-28.5 -27.5l-14 -7q0 -2 1 -5t6.5 -11t14 -14.5t26 -11.5t40.5 -5q80 0 132 52t52 148q0 54 -36.5 99t-106.5 45
q-5 0 -18.5 -3t-18.5 -3q-20 0 -20 24q0 15 37 23q99 23 154 72.5t55 111.5q0 51 -27.5 76.5t-69.5 25.5q-43 0 -74.5 -26t-31.5 -76q0 -14 3.5 -28t7 -23t3.5 -10q0 -7 -9.5 -14t-17.5 -7q-4 0 -13.5 9.5t-19.5 35t-10 57.5q0 73 60 118.5t137 45.5q78 0 129 -42.5
t51 -110.5z" />
    <glyph glyph-name="questiondown" unicode="&#xbf;" horiz-adv-x="870" 
d="M858 1311q0 -54 -34.5 -88.5t-88.5 -34.5t-88.5 34.5t-34.5 88.5t34.5 88.5t88.5 34.5t88.5 -34.5t34.5 -88.5zM768 850q0 -72 -51 -123q-34 -34 -101 -69t-130.5 -65.5t-124.5 -71t-98.5 -102.5t-37.5 -143q0 -101 72.5 -163t194.5 -62q64 0 113.5 35.5t49.5 87.5
q0 15 -6.5 28t-13.5 13q-1 0 -19.5 -5t-42.5 -5q-35 0 -63.5 26t-28.5 76q0 51 37 82t86 31q60 0 102 -44t42 -130q0 -112 -94 -189t-214 -77q-167 0 -262.5 91t-95.5 246q0 87 29.5 156t76.5 112t103.5 76.5t113 57.5t103.5 47.5t76.5 54.5t29.5 70q0 52 -32 82.5t-80 30.5
q-18 0 -31 -7.5t-19 -16t-10.5 -18t-5.5 -10.5q-12 -12 -26 -12q-21 0 -31 12t-10 27q0 35 48.5 65.5t114.5 30.5q97 0 166.5 -69t69.5 -156z" />
    <glyph glyph-name="Agrave" unicode="&#xc0;" horiz-adv-x="1361" 
d="M1403 1430q0 -4 -16 -48t-44 -123.5t-49 -152.5l-270 -901q-20 -65 -20 -101q0 -14 8 -22q10 -10 40 -13t109 -3q27 0 27 -33t-31 -33h-174q-58 0 -141.5 -3.5t-144.5 -7t-64 -3.5q-25 0 -25 32q0 33 27 33q110 0 141 31q13 13 22 34t33 89l132 387q1 3 2.5 8.5t2.5 9.5
t1 6q0 11 -13 11l-350 -21q-21 -2 -47 -28l-256 -271q-52 -55 -88.5 -114.5t-36.5 -88.5q0 -14 8 -22q10 -10 42 -13t110 -3q24 0 24 -33t-28 -33h-172q-84 0 -209 -6t-133 -6q-25 0 -25 32q0 33 27 33q54 0 112 23q60 24 267 231l1124 1120q35 35 47 35q31 0 31 -32z
M1149 1143q0 8 -8 8q-9 0 -49 -37l-410 -407q-23 -23 -23 -31t11 -8l305 8q9 0 13.5 3t6 6t4.5 11l140 410q10 31 10 37zM1464 1511q0 -8 -7.5 -15t-16.5 -7l-15 4l-309 215q-35 28 -35 64q0 26 22 48.5t46 22.5q25 0 51 -26l250 -281q14 -15 14 -25z" />
    <glyph glyph-name="Aacute" unicode="&#xc1;" horiz-adv-x="1361" 
d="M1403 1430q0 -4 -16 -48t-44 -123.5t-49 -152.5l-270 -901q-20 -65 -20 -101q0 -14 8 -22q10 -10 40 -13t109 -3q27 0 27 -33t-31 -33h-174q-58 0 -141.5 -3.5t-144.5 -7t-64 -3.5q-25 0 -25 32q0 33 27 33q110 0 141 31q13 13 22 34t33 89l132 387q1 3 2.5 8.5t2.5 9.5
t1 6q0 11 -13 11l-350 -21q-21 -2 -47 -28l-256 -271q-52 -55 -88.5 -114.5t-36.5 -88.5q0 -14 8 -22q10 -10 42 -13t110 -3q24 0 24 -33t-28 -33h-172q-84 0 -209 -6t-133 -6q-25 0 -25 32q0 33 27 33q54 0 112 23q60 24 267 231l1124 1120q35 35 47 35q31 0 31 -32z
M1149 1143q0 8 -8 8q-9 0 -49 -37l-410 -407q-23 -23 -23 -31t11 -8l305 8q9 0 13.5 3t6 6t4.5 11l140 410q10 31 10 37zM1731 1772q0 -40 -35 -64l-310 -215q-10 -4 -14 -4q-9 0 -16.5 7t-7.5 15q0 4 3.5 10.5t6.5 10.5l4 4l250 281q26 26 51 26q24 0 46 -22.5t22 -48.5z
" />
    <glyph glyph-name="Acircumflex" unicode="&#xc2;" horiz-adv-x="1361" 
d="M1403 1430q0 -4 -16 -48t-44 -123.5t-49 -152.5l-270 -901q-20 -65 -20 -101q0 -14 8 -22q10 -10 40 -13t109 -3q27 0 27 -33t-31 -33h-174q-58 0 -141.5 -3.5t-144.5 -7t-64 -3.5q-25 0 -25 32q0 33 27 33q110 0 141 31q13 13 22 34t33 89l132 387q1 3 2.5 8.5t2.5 9.5
t1 6q0 11 -13 11l-350 -21q-21 -2 -47 -28l-256 -271q-52 -55 -88.5 -114.5t-36.5 -88.5q0 -14 8 -22q10 -10 42 -13t110 -3q24 0 24 -33t-28 -33h-172q-84 0 -209 -6t-133 -6q-25 0 -25 32q0 33 27 33q54 0 112 23q60 24 267 231l1124 1120q35 35 47 35q31 0 31 -32z
M1149 1143q0 8 -8 8q-9 0 -49 -37l-410 -407q-23 -23 -23 -31t11 -8l305 8q9 0 13.5 3t6 6t4.5 11l140 410q10 31 10 37zM1649 1884q0 -3 -11 -55.5t-29 -150t-32 -189.5q0 -14 -16 -14q-26 0 -61.5 8.5t-35.5 21.5q0 4 8 37t23.5 93.5t26.5 105.5h-6l-287 -246
q-10 -10 -21 -10q-8 0 -14 6.5t-6 13.5q0 5 20 25l359 323q11 10 26 24.5t23 21t12 6.5q21 0 21 -21z" />
    <glyph glyph-name="Atilde" unicode="&#xc3;" horiz-adv-x="1361" 
d="M1403 1430q0 -4 -16 -48t-44 -123.5t-49 -152.5l-270 -901q-20 -65 -20 -101q0 -14 8 -22q10 -10 40 -13t109 -3q27 0 27 -33t-31 -33h-174q-58 0 -141.5 -3.5t-144.5 -7t-64 -3.5q-25 0 -25 32q0 33 27 33q110 0 141 31q13 13 22 34t33 89l132 387q1 3 2.5 8.5t2.5 9.5
t1 6q0 11 -13 11l-350 -21q-21 -2 -47 -28l-256 -271q-52 -55 -88.5 -114.5t-36.5 -88.5q0 -14 8 -22q10 -10 42 -13t110 -3q24 0 24 -33t-28 -33h-172q-84 0 -209 -6t-133 -6q-25 0 -25 32q0 33 27 33q54 0 112 23q60 24 267 231l1124 1120q35 35 47 35q31 0 31 -32z
M1149 1143q0 8 -8 8q-9 0 -49 -37l-410 -407q-23 -23 -23 -31t11 -8l305 8q9 0 13.5 3t6 6t4.5 11l140 410q10 31 10 37zM1690 1802q0 -61 -18 -107.5t-46.5 -70.5t-56 -35.5t-53.5 -11.5q-74 0 -161.5 5t-146.5 5q-67 0 -67 -31q0 -6 11 -20.5t11 -28.5q0 -12 -12 -22
t-29 -10q-15 0 -26 13t-11 28q0 79 47 133.5t97 54.5q28 0 121.5 -1t171.5 -1q30 0 52.5 4.5t33.5 10.5t18 14.5t8.5 14t1.5 11.5q0 1 -12 17.5t-12 31.5q0 13 11.5 24t29.5 11q14 0 25.5 -10t11.5 -29z" />
    <glyph glyph-name="Adieresis" unicode="&#xc4;" horiz-adv-x="1361" 
d="M1403 1430q0 -4 -16 -48t-44 -123.5t-49 -152.5l-270 -901q-20 -65 -20 -101q0 -14 8 -22q10 -10 40 -13t109 -3q27 0 27 -33t-31 -33h-174q-58 0 -141.5 -3.5t-144.5 -7t-64 -3.5q-25 0 -25 32q0 33 27 33q110 0 141 31q13 13 22 34t33 89l132 387q1 3 2.5 8.5t2.5 9.5
t1 6q0 11 -13 11l-350 -21q-21 -2 -47 -28l-256 -271q-52 -55 -88.5 -114.5t-36.5 -88.5q0 -14 8 -22q10 -10 42 -13t110 -3q24 0 24 -33t-28 -33h-172q-84 0 -209 -6t-133 -6q-25 0 -25 32q0 33 27 33q54 0 112 23q60 24 267 231l1124 1120q35 35 47 35q31 0 31 -32z
M1149 1143q0 8 -8 8q-9 0 -49 -37l-410 -407q-23 -23 -23 -31t11 -8l305 8q9 0 13.5 3t6 6t4.5 11l140 410q10 31 10 37zM1679 1675q0 -43 -32.5 -76.5t-73.5 -33.5t-66.5 26.5t-25.5 69.5t32.5 77t73.5 34t66.5 -27.5t25.5 -69.5zM1274 1634q0 -43 -33 -76.5t-74 -33.5
t-66.5 27.5t-25.5 68.5q0 43 33 77t74 34t66.5 -27t25.5 -70z" />
    <glyph glyph-name="Aring" unicode="&#xc5;" horiz-adv-x="1361" 
d="M1587 1585q0 -74 -57.5 -128t-130.5 -54q-68 -174 -105 -297l-270 -901q-20 -68 -20 -101q0 -14 8 -22q10 -10 40.5 -13t110.5 -3q25 0 25 -33t-25 -33h-180q-58 0 -141.5 -3.5t-144.5 -7t-64 -3.5q-25 0 -25 32q0 33 25 33q112 0 143 31q22 22 55 123l132 387
q1 3 2.5 8.5t2.5 9.5t1 6q0 11 -13 11l-350 -21q-21 -2 -47 -28l-256 -271q-52 -55 -88.5 -114.5t-36.5 -88.5q0 -14 8 -22q10 -10 42 -13t110 -3q24 0 24 -33t-24 -33h-176q-84 0 -209 -6t-133 -6q-25 0 -25 32q0 33 25 33q56 0 114 23q60 24 267 231l1116 1116
q-37 21 -58.5 59t-21.5 87q0 72 57 127t129 55t118 -47t46 -119zM1520 1585q0 47 -27.5 72.5t-75.5 25.5q-47 0 -79.5 -33.5t-32.5 -80.5t26.5 -73t73.5 -26q46 0 80.5 34t34.5 81zM1149 1143q0 8 -8 8q-14 0 -51 -37l-408 -407q-23 -23 -23 -31t11 -8l305 8q9 0 13.5 3t6 6
t4.5 11l142 410q8 25 8 37z" />
    <glyph glyph-name="AE" unicode="&#xc6;" horiz-adv-x="1812" 
d="M1843 1118q0 -12 -12 -21.5t-25 -9.5q-11 0 -24 13q-21 21 -96 116t-105 125q-20 20 -55 25.5t-105 5.5h-110q-61 0 -82.5 -4.5t-36.5 -19.5q-14 -14 -22 -35.5t-25 -81.5l-109 -404q-2 -8 -2 -12q0 -8 17 -8h71q93 0 153 13.5t107 60.5q25 25 54.5 83t31.5 60q12 8 23 8
q9 0 14.5 -5t5.5 -11q0 -8 -9.5 -36t-28 -85t-33.5 -113q-29 -104 -51 -262q-3 -20 -27 -20q-23 0 -23 20q0 72 -1 99t-8 56.5t-23 45.5q-17 17 -51.5 26t-61 10t-76.5 1h-80q-21 0 -26 -21l-138 -512q-28 -100 -28 -129q0 -14 8 -22t32 -10.5t103 -2.5h158q44 0 66 1
t53.5 7t55.5 20t48 38q81 81 203 180t147 99q33 0 33 -37q0 -9 -12 -21q-158 -158 -158 -293q0 -10 4 -22.5t4 -16.5q0 -22 -39 -22q-9 0 -52 1.5t-123 3t-179 1.5h-477q-48 0 -108 -1.5t-102 -3t-46 -1.5q-25 0 -25 33q0 32 25 32q91 0 121 4t49 23q18 18 51 139l133 498
q6 21 6 25q0 10 -12 10h-307q-28 0 -53 -31l-351 -420q-129 -152 -129 -203q0 -13 9 -22q10 -10 41.5 -13t109.5 -3q25 0 25 -33t-25 -33h-176q-84 0 -209 -6t-133 -6q-25 0 -25 32q0 33 25 33q57 0 115 23q34 13 113 82t153 149l895 1008q10 10 10 20q0 13 -8 21
q-7 7 -44 9.5t-153 2.5q-24 0 -24 33t24 33h838q80 0 159.5 3t84.5 3q22 0 22 -19q0 -5 -12 -32t-12 -54q0 -33 17 -84t33.5 -90.5t16.5 -42.5zM971 1292q0 8 -8 8q-7 0 -52 -51l-358 -409q-14 -14 -14 -25q0 -8 16 -8h264q22 0 31 27l113 419q8 33 8 39z" />
    <glyph glyph-name="Ccedilla" unicode="&#xc7;" horiz-adv-x="1351" 
d="M1393 1384q0 -4 -5.5 -18.5t-13 -43t-15 -70t-13 -112.5t-5.5 -157v-20q0 -23 -9.5 -32t-31.5 -9q-14 0 -24 10q-8 8 -25 82.5t-48 163.5t-75 133q-94 94 -221 94q-105 0 -195.5 -55t-151.5 -142t-105 -195.5t-64 -214.5t-20 -200q0 -506 325 -506q124 0 219 51.5
t207 163.5q27 27 41 27q11 0 21 -10.5t10 -22.5q0 -11 -21 -39t-36 -43q-167 -167 -318 -219q-111 -76 -127 -92v-4q90 -55 90 -160q0 -80 -76.5 -152.5t-173.5 -72.5q-43 0 -72.5 20t-29.5 62q0 22 16.5 39.5t45.5 17.5q24 0 39 -13t19 -28t9.5 -28t13.5 -13q37 0 70 32
t33 95q0 32 -12.5 58.5t-33 42.5t-39 25t-36.5 13q-14 4 -14 19q0 3 13 11.5t36 22.5t35 23l92 62v6q-45 -6 -72 -6q-112 0 -205.5 46.5t-155.5 125t-96 182.5t-34 219q0 168 56 332t152 291.5t235 206.5t294 79q86 0 154.5 -18t101 -39t62.5 -39t48 -18q22 0 60 38
q27 27 41 27t24.5 -9.5t10.5 -19.5z" />
    <glyph glyph-name="Egrave" unicode="&#xc8;" horiz-adv-x="1341" 
d="M1341 1118q0 -12 -12 -21.5t-24 -9.5t-25 13q-21 21 -96 116t-105 125q-20 20 -55 25.5t-104 5.5h-91q-61 0 -82 -4.5t-36 -19.5q-14 -14 -22 -35.5t-25 -81.5l-109 -404q-2 -8 -2 -12q0 -8 16 -8h72q93 0 153 13.5t107 60.5q25 25 54.5 83t31.5 60q12 8 23 8q10 0 15 -5
t5 -11q0 -8 -9.5 -36.5t-28 -84.5t-34.5 -113q-29 -104 -51 -262q-3 -20 -26 -20t-23 20q0 98 -5 138t-28 63q-17 17 -51.5 26t-60.5 10t-76 1h-80q-22 0 -27 -21l-137 -512q-28 -100 -28 -129q0 -14 8 -22t32 -10.5t103 -2.5h219q44 0 66 1t53.5 7t55.5 20t48 38
q82 82 202.5 180.5t145.5 98.5q33 0 33 -37q0 -9 -12 -21q-156 -156 -156 -293q0 -10 4 -22.5t4 -16.5q0 -22 -38 -22q-9 0 -52.5 1.5t-123.5 3t-179 1.5h-538q-48 0 -108 -1.5t-102 -3t-46 -1.5q-25 0 -25 33q0 32 25 32q91 0 121 4t49 23q11 11 21 38.5t30 100.5l264 983
q29 107 29 127q0 12 -9 21q-12 12 -151 12q-25 0 -25 33t25 33h694q80 0 159.5 3t84.5 3q22 0 22 -19q0 -5 -12 -32t-12 -54q0 -33 17 -84t33.5 -90.5t16.5 -42.5zM1067 1511q0 -8 -8 -15t-17 -7l-14 4l-309 215q-35 28 -35 64q0 26 22 48.5t46 22.5q25 0 51 -26l250 -281
q14 -15 14 -25z" />
    <glyph glyph-name="Eacute" unicode="&#xc9;" horiz-adv-x="1341" 
d="M1341 1118q0 -12 -12 -21.5t-24 -9.5t-25 13q-21 21 -96 116t-105 125q-20 20 -55 25.5t-104 5.5h-91q-61 0 -82 -4.5t-36 -19.5q-14 -14 -22 -35.5t-25 -81.5l-109 -404q-2 -8 -2 -12q0 -8 16 -8h72q93 0 153 13.5t107 60.5q25 25 54.5 83t31.5 60q12 8 23 8q10 0 15 -5
t5 -11q0 -8 -9.5 -36.5t-28 -84.5t-34.5 -113q-29 -104 -51 -262q-3 -20 -26 -20t-23 20q0 98 -5 138t-28 63q-17 17 -51.5 26t-60.5 10t-76 1h-80q-22 0 -27 -21l-137 -512q-28 -100 -28 -129q0 -14 8 -22t32 -10.5t103 -2.5h219q44 0 66 1t53.5 7t55.5 20t48 38
q82 82 202.5 180.5t145.5 98.5q33 0 33 -37q0 -9 -12 -21q-156 -156 -156 -293q0 -10 4 -22.5t4 -16.5q0 -22 -38 -22q-9 0 -52.5 1.5t-123.5 3t-179 1.5h-538q-48 0 -108 -1.5t-102 -3t-46 -1.5q-25 0 -25 33q0 32 25 32q91 0 121 4t49 23q11 11 21 38.5t30 100.5l264 983
q29 107 29 127q0 12 -9 21q-12 12 -151 12q-25 0 -25 33t25 33h694q80 0 159.5 3t84.5 3q22 0 22 -19q0 -5 -12 -32t-12 -54q0 -33 17 -84t33.5 -90.5t16.5 -42.5zM1157 1772q0 -40 -35 -64l-309 -215q-10 -4 -14 -4q-9 0 -17 7t-8 15q0 4 3.5 10.5t6.5 10.5l4 4l250 281
q26 26 52 26q24 0 45.5 -22.5t21.5 -48.5z" />
    <glyph glyph-name="Ecircumflex" unicode="&#xca;" horiz-adv-x="1341" 
d="M1341 1118q0 -12 -12 -21.5t-24 -9.5t-25 13q-21 21 -96 116t-105 125q-20 20 -55 25.5t-104 5.5h-91q-61 0 -82 -4.5t-36 -19.5q-14 -14 -22 -35.5t-25 -81.5l-109 -404q-2 -8 -2 -12q0 -8 16 -8h72q93 0 153 13.5t107 60.5q25 25 54.5 83t31.5 60q12 8 23 8q10 0 15 -5
t5 -11q0 -8 -9.5 -36.5t-28 -84.5t-34.5 -113q-29 -104 -51 -262q-3 -20 -26 -20t-23 20q0 98 -5 138t-28 63q-17 17 -51.5 26t-60.5 10t-76 1h-80q-22 0 -27 -21l-137 -512q-28 -100 -28 -129q0 -14 8 -22t32 -10.5t103 -2.5h219q44 0 66 1t53.5 7t55.5 20t48 38
q82 82 202.5 180.5t145.5 98.5q33 0 33 -37q0 -9 -12 -21q-156 -156 -156 -293q0 -10 4 -22.5t4 -16.5q0 -22 -38 -22q-9 0 -52.5 1.5t-123.5 3t-179 1.5h-538q-48 0 -108 -1.5t-102 -3t-46 -1.5q-25 0 -25 33q0 32 25 32q91 0 121 4t49 23q11 11 21 38.5t30 100.5l264 983
q29 107 29 127q0 12 -9 21q-12 12 -151 12q-25 0 -25 33t25 33h694q80 0 159.5 3t84.5 3q22 0 22 -19q0 -5 -12 -32t-12 -54q0 -33 17 -84t33.5 -90.5t16.5 -42.5zM1137 1898q0 -3 -11 -55.5t-29 -150t-32 -189.5q0 -14 -16 -14q-26 0 -61.5 9t-35.5 22q0 4 8 37t23.5 92.5
t26.5 105.5h-6l-287 -246q-10 -10 -21 -10q-7 0 -13.5 6.5t-6.5 14.5q0 4 20 24l359 324q11 9 26 24t22.5 21t12.5 6q21 0 21 -21z" />
    <glyph glyph-name="Edieresis" unicode="&#xcb;" horiz-adv-x="1341" 
d="M1341 1118q0 -12 -12 -21.5t-24 -9.5t-25 13q-21 21 -96 116t-105 125q-20 20 -55 25.5t-104 5.5h-91q-61 0 -82 -4.5t-36 -19.5q-14 -14 -22 -35.5t-25 -81.5l-109 -404q-2 -8 -2 -12q0 -8 16 -8h72q93 0 153 13.5t107 60.5q25 25 54.5 83t31.5 60q12 8 23 8q10 0 15 -5
t5 -11q0 -8 -9.5 -36.5t-28 -84.5t-34.5 -113q-29 -104 -51 -262q-3 -20 -26 -20t-23 20q0 98 -5 138t-28 63q-17 17 -51.5 26t-60.5 10t-76 1h-80q-22 0 -27 -21l-137 -512q-28 -100 -28 -129q0 -14 8 -22t32 -10.5t103 -2.5h219q44 0 66 1t53.5 7t55.5 20t48 38
q82 82 202.5 180.5t145.5 98.5q33 0 33 -37q0 -9 -12 -21q-156 -156 -156 -293q0 -10 4 -22.5t4 -16.5q0 -22 -38 -22q-9 0 -52.5 1.5t-123.5 3t-179 1.5h-538q-48 0 -108 -1.5t-102 -3t-46 -1.5q-25 0 -25 33q0 32 25 32q91 0 121 4t49 23q11 11 21 38.5t30 100.5l264 983
q29 107 29 127q0 12 -9 21q-12 12 -151 12q-25 0 -25 33t25 33h694q80 0 159.5 3t84.5 3q22 0 22 -19q0 -5 -12 -32t-12 -54q0 -33 17 -84t33.5 -90.5t16.5 -42.5zM1229 1675q0 -43 -33 -76.5t-74 -33.5t-66.5 26.5t-25.5 69.5t33 77t74 34t66.5 -27.5t25.5 -69.5zM823 1634
q0 -43 -32.5 -76.5t-73.5 -33.5t-66.5 27.5t-25.5 68.5q0 43 32.5 77t73.5 34t66.5 -27t25.5 -70z" />
    <glyph glyph-name="Igrave" unicode="&#xcc;" horiz-adv-x="727" 
d="M870 1413q0 -33 -28 -33q-67 0 -98 -5.5t-48 -22.5q-18 -18 -47 -144l-248 -983q-22 -90 -22 -119q0 -18 10 -28q12 -12 43 -15.5t111 -3.5q24 0 24 -32q0 -33 -24 -33q-25 0 -124 3t-159 3q-57 0 -150 -3t-106 -3q-24 0 -24 33q0 32 24 32q72 0 108 5.5t52 21.5
q15 15 43 116q4 15 6 23l248 983q22 91 22 123q0 15 -10 25t-39 12t-102 2q-25 0 -25 33t25 33q19 0 85.5 -1t94.5 -1q84 0 205 6t129 6q24 0 24 -33zM793 1511q0 -8 -8 -15t-17 -7l-14 4l-310 215q-34 27 -34 64q0 26 21.5 48.5t45.5 22.5q25 0 51 -26l250 -281
q15 -15 15 -25z" />
    <glyph glyph-name="Iacute" unicode="&#xcd;" horiz-adv-x="727" 
d="M870 1413q0 -33 -28 -33q-67 0 -98 -5.5t-48 -22.5q-18 -18 -47 -144l-248 -983q-22 -90 -22 -119q0 -18 10 -28q12 -12 43 -15.5t111 -3.5q24 0 24 -32q0 -33 -24 -33q-25 0 -124 3t-159 3q-57 0 -150 -3t-106 -3q-24 0 -24 33q0 32 24 32q72 0 108 5.5t52 21.5
q15 15 43 116q4 15 6 23l248 983q22 91 22 123q0 15 -10 25t-39 12t-102 2q-25 0 -25 33t25 33q19 0 85.5 -1t94.5 -1q84 0 205 6t129 6q24 0 24 -33zM891 1772q0 -40 -35 -64l-309 -215q-11 -4 -15 -4q-9 0 -16.5 7t-7.5 15q0 4 3.5 10.5t6.5 10.5l4 4l250 281q26 26 51 26
q24 0 46 -22.5t22 -48.5z" />
    <glyph glyph-name="Icircumflex" unicode="&#xce;" horiz-adv-x="727" 
d="M870 1413q0 -33 -28 -33q-67 0 -98 -5.5t-48 -22.5q-18 -18 -47 -144l-248 -983q-22 -90 -22 -119q0 -18 10 -28q12 -12 43 -15.5t111 -3.5q24 0 24 -32q0 -33 -24 -33q-25 0 -124 3t-159 3q-57 0 -150 -3t-106 -3q-24 0 -24 33q0 32 24 32q72 0 108 5.5t52 21.5
q15 15 43 116q4 15 6 23l248 983q22 91 22 123q0 15 -10 25t-39 12t-102 2q-25 0 -25 33t25 33q19 0 85.5 -1t94.5 -1q84 0 205 6t129 6q24 0 24 -33zM870 1898q0 -3 -11 -55.5t-28.5 -150t-31.5 -189.5q0 -14 -17 -14q-26 0 -61 9t-35 22q0 4 8 36.5t23 93.5t26 105h-6
l-286 -246q-10 -10 -21 -10q-7 0 -13.5 6.5t-6.5 14.5q0 4 20 24l358 324q10 9 26 24t23.5 21t12.5 6q20 0 20 -21z" />
    <glyph glyph-name="Idieresis" unicode="&#xcf;" horiz-adv-x="727" 
d="M870 1413q0 -33 -28 -33q-67 0 -98 -5.5t-48 -22.5q-18 -18 -47 -144l-248 -983q-22 -90 -22 -119q0 -18 10 -28q12 -12 43 -15.5t111 -3.5q24 0 24 -32q0 -33 -24 -33q-25 0 -124 3t-159 3q-57 0 -150 -3t-106 -3q-24 0 -24 33q0 32 24 32q72 0 108 5.5t52 21.5
q15 15 43 116q4 15 6 23l248 983q22 91 22 123q0 15 -10 25t-39 12t-102 2q-25 0 -25 33t25 33q19 0 85.5 -1t94.5 -1q84 0 205 6t129 6q24 0 24 -33zM922 1675q0 -43 -33 -76.5t-74 -33.5t-66.5 26.5t-25.5 69.5t32.5 77t73.5 34t67 -27.5t26 -69.5zM516 1634
q0 -43 -32.5 -76.5t-73.5 -33.5t-67 28t-26 68q0 43 33 77t74 34t66.5 -27t25.5 -70z" />
    <glyph glyph-name="Eth" unicode="&#xd0;" horiz-adv-x="1546" 
d="M1516 819q0 -163 -42.5 -298.5t-119.5 -233.5t-185.5 -165.5t-241 -100.5t-284.5 -33q-77 0 -202 6t-167 6t-110.5 -2.5t-122 -5t-57.5 -2.5q-25 0 -25 33q0 32 25 32q100 0 136 5.5t58 27.5q36 36 72 158q3 12 17 62.5t35.5 127.5t45.5 158l70 225q-29 0 -83.5 -2
t-55.5 -2q-29 0 -29 41q0 22 11.5 35.5t25.5 13.5q1 0 65 -2t90 -2l103 328q18 61 18 98q0 19 -10 29q-26 26 -182 26q-25 0 -25 33t25 33q5 0 110.5 -4t141.5 -4q43 0 145 2t133 2q99 0 190 -25.5t168.5 -77t134.5 -125t89.5 -175.5t32.5 -222zM1305 901q0 483 -383 483
q-80 0 -113.5 -24.5t-58.5 -89.5q-31 -80 -117 -369q37 0 137 5t102 5q23 0 23 -39q0 -25 -13 -42t-30 -17q-2 0 -51.5 1.5t-109 3t-85.5 1.5l-80 -266q-114 -379 -114 -444q0 -21 10 -31q18 -18 55.5 -23.5t116.5 -5.5q184 0 322 61.5t222.5 176t125.5 268t41 346.5z" />
    <glyph glyph-name="Ntilde" unicode="&#xd1;" horiz-adv-x="1648" 
d="M1823 1407q0 -33 -25 -33q-111 0 -164 -53q-29 -29 -65 -133l-273 -819q-21 -64 -48 -154.5t-44 -149.5l-16 -59q-7 -26 -39 -26q-29 0 -39 26q-61 174 -102 285l-383 1012q-14 36 -31 36h-19q-13 0 -18.5 -7t-11.5 -29l-213 -666q-101 -312 -101 -434q0 -59 35 -94
q29 -29 71 -39.5t112 -10.5q24 0 24 -32q0 -33 -24 -33q-5 0 -66 1.5t-138 3t-122 1.5q-61 0 -139.5 -3t-81.5 -3q-25 0 -25 33q0 32 25 32q49 0 84 8t55.5 25t29.5 29t19 33q18 36 50 131.5t74.5 233.5t64.5 202l182 539q18 56 18 77q0 13 -8 21q-13 13 -46.5 16.5
t-121.5 3.5q-24 0 -24 33t24 33q1 0 124 -5t167 -5h139q33 0 48.5 -18t37.5 -75l389 -999h6l150 477q125 394 125 459q0 42 -19 61q-16 16 -42.5 24.5t-45.5 9.5t-55 1q-24 0 -24 33t24 33q14 0 111.5 -3t146.5 -3t123.5 3t89.5 3q25 0 25 -33zM1423 1802q0 -61 -18 -107.5
t-46.5 -70.5t-56 -35.5t-53.5 -11.5q-74 0 -161 5t-146 5q-68 0 -68 -31q0 -6 11.5 -20.5t11.5 -28.5q0 -12 -12 -22t-29 -10q-15 0 -26 13t-11 28q0 79 47 133.5t97 54.5q28 0 121 -1t171 -1q30 0 52.5 4.5t34 10.5t18.5 14.5t8.5 14t1.5 11.5q0 1 -12 17.5t-12 31.5
q0 13 11 24t29 11q14 0 25.5 -10t11.5 -29z" />
    <glyph glyph-name="Ograve" unicode="&#xd2;" 
d="M1423 768q0 -147 -62.5 -291t-164.5 -253t-240 -176.5t-280 -67.5q-146 0 -268.5 92.5t-193.5 253.5t-71 352q0 150 66 295t171 251.5t242.5 172t274.5 65.5q147 0 268 -91t189.5 -250t68.5 -353zM1229 942q0 217 -88 338t-252 121q-113 0 -215.5 -71t-176.5 -191.5
t-117.5 -287.5t-43.5 -351q0 -205 89 -332t251 -127q112 0 214 69.5t176.5 188.5t118.5 287t44 356zM1090 1532q0 -8 -8 -15.5t-17 -7.5l-14 4l-310 216q-34 27 -34 63q0 26 21.5 49t45.5 23t51 -27l250 -281q15 -14 15 -24z" />
    <glyph glyph-name="Oacute" unicode="&#xd3;" 
d="M1423 768q0 -147 -62.5 -291t-164.5 -253t-240 -176.5t-280 -67.5q-146 0 -268.5 92.5t-193.5 253.5t-71 352q0 150 66 295t171 251.5t242.5 172t274.5 65.5q147 0 268 -91t189.5 -250t68.5 -353zM1229 942q0 217 -88 338t-252 121q-113 0 -215.5 -71t-176.5 -191.5
t-117.5 -287.5t-43.5 -351q0 -205 89 -332t251 -127q112 0 214 69.5t176.5 188.5t118.5 287t44 356zM1260 1792q0 -38 -35 -63l-310 -216q-10 -4 -14 -4q-9 0 -16.5 7.5t-7.5 15.5q0 4 3.5 10t7.5 10l3 4l250 281q27 27 51 27t46 -23t22 -49z" />
    <glyph glyph-name="Ocircumflex" unicode="&#xd4;" 
d="M1423 768q0 -147 -62.5 -291t-164.5 -253t-240 -176.5t-280 -67.5q-146 0 -268.5 92.5t-193.5 253.5t-71 352q0 150 66 295t171 251.5t242.5 172t274.5 65.5q147 0 268 -91t189.5 -250t68.5 -353zM1229 942q0 217 -88 338t-252 121q-113 0 -215.5 -71t-176.5 -191.5
t-117.5 -287.5t-43.5 -351q0 -205 89 -332t251 -127q112 0 214 69.5t176.5 188.5t118.5 287t44 356zM1188 1919q0 -3 -11 -55.5t-29 -150t-32 -189.5q0 -7 -5.5 -11t-10.5 -4q-26 0 -61 9t-35 22q0 4 8 36.5t23.5 94t25.5 105.5h-6l-287 -246q-10 -10 -20 -10
q-8 0 -14.5 6.5t-6.5 13.5q0 4 21 25l358 323q11 9 26 24t22.5 21t12.5 6q21 0 21 -20z" />
    <glyph glyph-name="Otilde" unicode="&#xd5;" 
d="M1423 768q0 -147 -62.5 -291t-164.5 -253t-240 -176.5t-280 -67.5q-146 0 -268.5 92.5t-193.5 253.5t-71 352q0 150 66 295t171 251.5t242.5 172t274.5 65.5q147 0 268 -91t189.5 -250t68.5 -353zM1229 942q0 217 -88 338t-252 121q-113 0 -215.5 -71t-176.5 -191.5
t-117.5 -287.5t-43.5 -351q0 -205 89 -332t251 -127q112 0 214 69.5t176.5 188.5t118.5 287t44 356zM1260 1802q0 -61 -18.5 -107.5t-47 -70.5t-56 -35.5t-53.5 -11.5q-74 0 -161 5t-146 5q-67 0 -67 -31q0 -6 11 -20.5t11 -28.5q0 -12 -12 -22t-29 -10q-15 0 -26 13t-11 28
q0 79 47 133.5t97 54.5q28 0 121.5 -1t171.5 -1q30 0 52.5 4.5t33.5 10.5t18 14.5t8.5 14t1.5 11.5q0 1 -12 17.5t-12 31.5q0 13 11.5 24t29.5 11q14 0 25.5 -10t11.5 -29z" />
    <glyph glyph-name="Odieresis" unicode="&#xd6;" 
d="M1423 768q0 -147 -62.5 -291t-164.5 -253t-240 -176.5t-280 -67.5q-146 0 -268.5 92.5t-193.5 253.5t-71 352q0 150 66 295t171 251.5t242.5 172t274.5 65.5q147 0 268 -91t189.5 -250t68.5 -353zM1229 942q0 217 -88 338t-252 121q-113 0 -215.5 -71t-176.5 -191.5
t-117.5 -287.5t-43.5 -351q0 -205 89 -332t251 -127q112 0 214 69.5t176.5 188.5t118.5 287t44 356zM1249 1696q0 -43 -32.5 -77t-73.5 -34t-66.5 26.5t-25.5 69.5t32.5 77t73.5 34t66.5 -27t25.5 -69zM844 1655q0 -43 -33 -77t-74 -34t-66.5 27.5t-25.5 68.5q0 43 33 77
t74 34t66.5 -26.5t25.5 -69.5z" />
    <glyph glyph-name="multiply" unicode="&#xd7;" horiz-adv-x="1024" 
d="M963 799q0 -6 -7 -13q-5 -5 -66 -60t-97 -91l-185 -184l144 -144q45 -45 91 -88t76.5 -70.5t36.5 -33.5q2 -2 2 -6q0 -22 -26 -48q-30 -30 -41 -30q-6 0 -12 6q-5 5 -31 32.5t-72 75t-100 101.5l-133 133l-133 -133q-54 -54 -100 -101.5t-72 -75t-31 -32.5q-6 -6 -12 -6
q-11 0 -41 30q-27 27 -27 48q0 4 2 6q6 6 36.5 33.5t77 70.5t91.5 88l143 144l-184 184q-33 33 -96 89.5t-68 61.5q-6 6 -6 13q0 10 31 41q30 30 41 30q6 0 12 -6q9 -9 56.5 -59.5t64.5 -67.5l215 -215l215 215q17 17 64.5 67.5t56.5 59.5q6 6 12 6q11 0 41 -30
q31 -31 31 -41z" />
    <glyph glyph-name="Oslash" unicode="&#xd8;" 
d="M1485 1417q0 -14 -21 -35q-2 -2 -74.5 -70t-91.5 -87q125 -191 125 -457q0 -147 -62.5 -291t-164.5 -253t-240 -176.5t-280 -67.5q-107 0 -204 51.5t-171 146.5q-156 -176 -164 -184l-14 -14q-24 0 -43 14.5t-19 36.5q0 15 15 30l184 179q-117 183 -117 436
q0 150 65.5 295.5t170.5 252t242.5 172.5t275.5 66q105 0 198 -47.5t162 -132.5q150 162 156 168q14 14 21 14q14 0 32.5 -11.5t18.5 -35.5zM1184 1204q-84 201 -293 201q-113 0 -216 -71t-177 -191.5t-118 -288t-44 -352.5q0 -45 4 -86.5t8 -60.5l4 -19zM1229 942
q0 45 -5.5 93.5t-11.5 74.5l-6 25l-831 -873q39 -105 117 -163t184 -58q152 0 278.5 117.5t200.5 325t74 458.5z" />
    <glyph glyph-name="Ugrave" unicode="&#xd9;" horiz-adv-x="1556" 
d="M1751 1407q0 -33 -25 -33q-31 0 -73 -13.5t-68 -39.5q-33 -33 -65 -130.5t-101 -371.5l-53 -213q-24 -94 -48.5 -165.5t-61.5 -147t-85 -129t-111.5 -97t-149.5 -65.5t-191 -22q-116 0 -206 24.5t-145 64t-90.5 96.5t-49 116.5t-13.5 128.5q0 145 55 327l144 467
q26 82 26 121q0 23 -8 31q-12 12 -39.5 15t-107.5 3q-25 0 -25 33t25 33q13 0 116 -3t162 -3t162.5 3t116.5 3q24 0 24 -33t-24 -33q-51 0 -68.5 -0.5t-45.5 -2.5t-40.5 -7t-21.5 -14q-22 -22 -60 -146l-141 -467q-43 -145 -43 -286q0 -175 90.5 -267t296.5 -92q87 0 158 29
t120 74.5t88.5 115.5t64 138.5t46.5 156.5l53 213q91 368 91 451q0 46 -23 69q-35 35 -139 35q-25 0 -25 33t25 33q6 0 102.5 -3t145.5 -3q50 0 122.5 3t87.5 3q25 0 25 -33zM1202 1511q0 -8 -7.5 -15t-16.5 -7l-15 4l-309 215q-35 28 -35 64q0 26 22 48.5t46 22.5
q25 0 51 -26l250 -281q14 -15 14 -25z" />
    <glyph glyph-name="Uacute" unicode="&#xda;" horiz-adv-x="1556" 
d="M1751 1407q0 -33 -25 -33q-31 0 -73 -13.5t-68 -39.5q-33 -33 -65 -130.5t-101 -371.5l-53 -213q-24 -94 -48.5 -165.5t-61.5 -147t-85 -129t-111.5 -97t-149.5 -65.5t-191 -22q-116 0 -206 24.5t-145 64t-90.5 96.5t-49 116.5t-13.5 128.5q0 145 55 327l144 467
q26 82 26 121q0 23 -8 31q-12 12 -39.5 15t-107.5 3q-25 0 -25 33t25 33q13 0 116 -3t162 -3t162.5 3t116.5 3q24 0 24 -33t-24 -33q-51 0 -68.5 -0.5t-45.5 -2.5t-40.5 -7t-21.5 -14q-22 -22 -60 -146l-141 -467q-43 -145 -43 -286q0 -175 90.5 -267t296.5 -92q87 0 158 29
t120 74.5t88.5 115.5t64 138.5t46.5 156.5l53 213q91 368 91 451q0 46 -23 69q-35 35 -139 35q-25 0 -25 33t25 33q6 0 102.5 -3t145.5 -3q50 0 122.5 3t87.5 3q25 0 25 -33zM1341 1772q0 -40 -34 -64l-310 -215q-10 -4 -14 -4q-9 0 -17 7t-8 15q0 4 4 10.5t8 10.5l3 4
l250 281q26 26 51 26q24 0 45.5 -22.5t21.5 -48.5z" />
    <glyph glyph-name="Ucircumflex" unicode="&#xdb;" horiz-adv-x="1556" 
d="M1751 1407q0 -33 -25 -33q-31 0 -73 -13.5t-68 -39.5q-33 -33 -65 -130.5t-101 -371.5l-53 -213q-24 -94 -48.5 -165.5t-61.5 -147t-85 -129t-111.5 -97t-149.5 -65.5t-191 -22q-116 0 -206 24.5t-145 64t-90.5 96.5t-49 116.5t-13.5 128.5q0 145 55 327l144 467
q26 82 26 121q0 23 -8 31q-12 12 -39.5 15t-107.5 3q-25 0 -25 33t25 33q13 0 116 -3t162 -3t162.5 3t116.5 3q24 0 24 -33t-24 -33q-51 0 -68.5 -0.5t-45.5 -2.5t-40.5 -7t-21.5 -14q-22 -22 -60 -146l-141 -467q-43 -145 -43 -286q0 -175 90.5 -267t296.5 -92q87 0 158 29
t120 74.5t88.5 115.5t64 138.5t46.5 156.5l53 213q91 368 91 451q0 46 -23 69q-35 35 -139 35q-25 0 -25 33t25 33q6 0 102.5 -3t145.5 -3q50 0 122.5 3t87.5 3q25 0 25 -33zM1300 1898q0 -3 -11 -55.5t-28.5 -150t-31.5 -189.5q0 -14 -17 -14q-26 0 -61 9t-35 22q0 4 8 37
t23.5 92.5t26.5 105.5h-7l-286 -246q-10 -10 -21 -10q-7 0 -13.5 6.5t-6.5 14.5q0 4 20 24l359 324q11 9 26 24t22.5 21t12.5 6q20 0 20 -21z" />
    <glyph glyph-name="Udieresis" unicode="&#xdc;" horiz-adv-x="1556" 
d="M1751 1407q0 -33 -25 -33q-31 0 -73 -13.5t-68 -39.5q-33 -33 -65 -130.5t-101 -371.5l-53 -213q-24 -94 -48.5 -165.5t-61.5 -147t-85 -129t-111.5 -97t-149.5 -65.5t-191 -22q-116 0 -206 24.5t-145 64t-90.5 96.5t-49 116.5t-13.5 128.5q0 145 55 327l144 467
q26 82 26 121q0 23 -8 31q-12 12 -39.5 15t-107.5 3q-25 0 -25 33t25 33q13 0 116 -3t162 -3t162.5 3t116.5 3q24 0 24 -33t-24 -33q-51 0 -68.5 -0.5t-45.5 -2.5t-40.5 -7t-21.5 -14q-22 -22 -60 -146l-141 -467q-43 -145 -43 -286q0 -175 90.5 -267t296.5 -92q87 0 158 29
t120 74.5t88.5 115.5t64 138.5t46.5 156.5l53 213q91 368 91 451q0 46 -23 69q-35 35 -139 35q-25 0 -25 33t25 33q6 0 102.5 -3t145.5 -3q50 0 122.5 3t87.5 3q25 0 25 -33zM1413 1675q0 -43 -32.5 -76.5t-73.5 -33.5t-67 26.5t-26 69.5t33 77t74 34t66.5 -27.5t25.5 -69.5
zM1008 1634q0 -43 -33 -76.5t-74 -33.5t-66.5 27.5t-25.5 68.5q0 43 32.5 77t73.5 34t67 -27t26 -70z" />
    <glyph glyph-name="Yacute" unicode="&#xdd;" horiz-adv-x="1290" 
d="M1475 1311q0 -59 -40 -98t-89 -39q-36 0 -61.5 15t-38.5 37t-22.5 43.5t-21 36.5t-26.5 15q-23 0 -66 -43q-93 -93 -215 -325.5t-182 -440.5l-82 -287q-25 -85 -25 -119q0 -18 10 -28q19 -19 162 -19q18 0 24.5 -6.5t6.5 -25.5q0 -33 -27 -33q-23 0 -131.5 3t-169.5 3
q-57 0 -168.5 -3t-124.5 -3q-24 0 -24 33q0 32 31 32q84 0 126 4.5t58 20.5q17 17 28 44t33 97l107 348q78 259 78 451q0 128 -41 203.5t-121 75.5q-55 0 -101.5 -45t-71 -113.5t-24.5 -140.5q0 -37 29 -66q7 -7 35.5 -27t36.5 -28q28 -28 28 -64q0 -30 -21 -48.5t-52 -18.5
q-34 0 -58 21t-36 57t-17.5 73.5t-5.5 79.5q0 112 48.5 212.5t134 163t185.5 62.5q68 0 114 -46t64.5 -116.5t18.5 -162.5q0 -63 -8.5 -126t-16.5 -100t-32 -133l-8 -32q-3 -9 -3 -13q0 -6 5 -6q7 0 10 10l43 103q60 141 146 291.5t186 250.5q121 121 231 121
q66 0 109 -41.5t43 -109.5zM1219 1772q0 -40 -35 -64l-310 -215q-10 -4 -14 -4q-9 0 -16.5 7t-7.5 15q0 4 3.5 10.5t6.5 10.5l4 4l250 281q26 26 51 26q24 0 46 -22.5t22 -48.5z" />
    <glyph glyph-name="Thorn" unicode="&#xde;" horiz-adv-x="1105" 
d="M1147 803q0 -197 -131.5 -328t-319.5 -131q-81 0 -138.5 12t-115.5 45l-41 -176q-20 -92 -20 -116q0 -23 8 -31q12 -12 43 -15.5t111 -3.5q24 0 24 -32q0 -33 -24 -33q-25 0 -124 3t-159 3q-57 0 -150 -3t-106 -3q-24 0 -24 33q0 32 24 32q75 0 110.5 4.5t51.5 20.5
q13 13 22 41t25 100l227 983q23 101 23 123q0 15 -10 25t-39.5 12t-102.5 2q-24 0 -24 33t24 33q19 0 86 -1t95 -1q84 0 204.5 6t128.5 6q25 0 25 -33t-25 -33q-67 0 -99.5 -5.5t-49.5 -22.5q-18 -18 -47 -144l-11 -49q58 6 109 6q192 0 306 -104.5t114 -257.5zM969 850
q0 112 -80 189t-213 77q-42 0 -59.5 -19t-26.5 -59l-135 -579q85 -45 170 -45q67 0 124 24t97 65t68 96.5t41.5 119t13.5 131.5z" />
    <glyph glyph-name="germandbls" unicode="&#xdf;" horiz-adv-x="1075" 
d="M1096 1198q0 -97 -85.5 -205.5t-232.5 -177.5v-6q9 -4 24.5 -11.5t54.5 -36t68.5 -63t54 -93t24.5 -124.5q0 -92 -35.5 -182t-98.5 -161t-156.5 -114.5t-201.5 -43.5q-79 0 -131.5 36.5t-52.5 96.5q0 45 26.5 73.5t65.5 28.5q37 0 55.5 -18t22.5 -43.5t6 -51t13 -43.5
t36 -18q117 0 207 109t90 260q0 75 -24.5 138.5t-59.5 99.5t-67.5 55.5t-53.5 19.5q-24 0 -47.5 -3t-24.5 -3q-41 0 -41 41q0 10 5.5 16t21.5 14q2 1 31.5 11t60 23.5t78.5 45.5t90 74q62 62 97.5 135.5t35.5 141.5q0 90 -44.5 142t-139.5 52q-241 0 -369 -512
q-63 -253 -101 -399.5t-97 -364.5t-108 -363t-89 -225q-59 -118 -197 -118q-46 0 -75 32t-29 76q0 43 27 71t67 28q25 0 50.5 -20t45 -40t29.5 -20q17 0 29 12q24 24 78 270.5t141 681.5l76 379q58 289 198.5 431.5t333.5 142.5q162 0 240 -74t78 -203z" />
    <glyph glyph-name="agrave" unicode="&#xe0;" horiz-adv-x="993" 
d="M993 911q0 -11 -20 -47l-187 -379q-135 -274 -135 -327q0 -23 21 -23q16 0 43 22t54.5 54.5t52.5 64t42.5 55.5t18.5 25q6 6 12 6q9 0 18 -7t9 -19q0 -4 -4 -12q-9 -18 -50.5 -71.5t-95.5 -115.5t-114 -109.5t-95 -47.5t-56.5 17t-21.5 34q0 33 20.5 85.5t41 89.5
t57.5 101l103 176l-11 4q-385 -507 -577 -507q-61 0 -95 38t-34 95q0 72 31 162.5t82.5 179t121 174t143 150t152 104t144.5 39.5q32 0 57.5 -12t38.5 -29t21.5 -34.5t10.5 -29.5l3 -12h4l45 106q10 25 27.5 33t50.5 8q71 0 71 -41zM748 748q0 112 -97 112q-67 0 -156 -83
t-161.5 -196t-123 -231t-50.5 -186q0 -62 59 -62q43 0 132.5 74t177 175t153.5 214.5t66 182.5zM809 1028q0 -10 -10 -17t-19 -7q-4 0 -11.5 7t-19 19.5t-12.5 13.5q-176 211 -221 277q-14 21 -14 41q0 31 24.5 51.5t57.5 20.5q20 0 43 -23q13 -13 49 -87.5t77.5 -167
t51.5 -112.5q4 -8 4 -16z" />
    <glyph glyph-name="aacute" unicode="&#xe1;" horiz-adv-x="993" 
d="M993 911q0 -11 -20 -47l-187 -379q-135 -274 -135 -327q0 -23 21 -23q16 0 43 22t54.5 54.5t52.5 64t42.5 55.5t18.5 25q6 6 12 6q9 0 18 -7t9 -19q0 -4 -4 -12q-9 -18 -50.5 -71.5t-95.5 -115.5t-114 -109.5t-95 -47.5t-56.5 17t-21.5 34q0 33 20.5 85.5t41 89.5
t57.5 101l103 176l-11 4q-385 -507 -577 -507q-61 0 -95 38t-34 95q0 72 31 162.5t82.5 179t121 174t143 150t152 104t144.5 39.5q32 0 57.5 -12t38.5 -29t21.5 -34.5t10.5 -29.5l3 -12h4l45 106q10 25 27.5 33t50.5 8q71 0 71 -41zM748 748q0 112 -97 112q-67 0 -156 -83
t-161.5 -196t-123 -231t-50.5 -186q0 -62 59 -62q43 0 132.5 74t177 175t153.5 214.5t66 182.5zM973 1372q0 -18 -15 -41l-206 -317q-10 -10 -21 -10q-8 0 -16 6.5t-8 13.5q0 8 4 20l129 355q16 45 61 45q27 0 49.5 -18.5t22.5 -53.5z" />
    <glyph glyph-name="acircumflex" unicode="&#xe2;" horiz-adv-x="993" 
d="M993 911q0 -11 -20 -47l-187 -379q-135 -274 -135 -327q0 -23 21 -23q16 0 43 22t54.5 54.5t52.5 64t42.5 55.5t18.5 25q6 6 12 6q9 0 18 -7t9 -19q0 -4 -4 -12q-9 -18 -50.5 -71.5t-95.5 -115.5t-114 -109.5t-95 -47.5t-56.5 17t-21.5 34q0 33 20.5 85.5t41 89.5
t57.5 101l103 176l-11 4q-385 -507 -577 -507q-61 0 -95 38t-34 95q0 72 31 162.5t82.5 179t121 174t143 150t152 104t144.5 39.5q32 0 57.5 -12t38.5 -29t21.5 -34.5t10.5 -29.5l3 -12h4l45 106q10 25 27.5 33t50.5 8q71 0 71 -41zM748 748q0 112 -97 112q-67 0 -156 -83
t-161.5 -196t-123 -231t-50.5 -186q0 -62 59 -62q43 0 132.5 74t177 175t153.5 214.5t66 182.5zM1014 1413q0 -3 -11 -55.5t-29 -150t-32 -189.5q0 -14 -16 -14q-26 0 -61.5 8.5t-35.5 21.5q0 4 8 37t23.5 93.5t26.5 105.5h-6l-287 -246q-10 -10 -21 -10q-7 0 -13.5 6
t-6.5 14q0 5 20 25l359 323q11 10 26 24.5t23 21t12 6.5q21 0 21 -21z" />
    <glyph glyph-name="atilde" unicode="&#xe3;" horiz-adv-x="993" 
d="M993 911q0 -11 -20 -47l-187 -379q-135 -274 -135 -327q0 -23 21 -23q16 0 43 22t54.5 54.5t52.5 64t42.5 55.5t18.5 25q6 6 12 6q9 0 18 -7t9 -19q0 -4 -4 -12q-9 -18 -50.5 -71.5t-95.5 -115.5t-114 -109.5t-95 -47.5t-56.5 17t-21.5 34q0 33 20.5 85.5t41 89.5
t57.5 101l103 176l-11 4q-385 -507 -577 -507q-61 0 -95 38t-34 95q0 72 31 162.5t82.5 179t121 174t143 150t152 104t144.5 39.5q32 0 57.5 -12t38.5 -29t21.5 -34.5t10.5 -29.5l3 -12h4l45 106q10 25 27.5 33t50.5 8q71 0 71 -41zM748 748q0 112 -97 112q-67 0 -156 -83
t-161.5 -196t-123 -231t-50.5 -186q0 -62 59 -62q43 0 132.5 74t177 175t153.5 214.5t66 182.5zM1034 1352q0 -61 -18 -108t-46.5 -71t-56 -35.5t-53.5 -11.5q-74 0 -161 5.5t-146 5.5q-68 0 -68 -31q0 -6 11.5 -20.5t11.5 -28.5q0 -12 -12 -22.5t-29 -10.5q-15 0 -26 13
t-11 28q0 80 46.5 134t96.5 54q28 0 121.5 -1t171.5 -1q30 0 52.5 4.5t34 11t18.5 15t8.5 14t1.5 11.5q0 1 -12.5 17.5t-12.5 31.5q0 13 11.5 24t29.5 11q14 0 25.5 -10t11.5 -29z" />
    <glyph glyph-name="adieresis" unicode="&#xe4;" horiz-adv-x="993" 
d="M993 911q0 -11 -20 -47l-187 -379q-135 -274 -135 -327q0 -23 21 -23q16 0 43 22t54.5 54.5t52.5 64t42.5 55.5t18.5 25q6 6 12 6q9 0 18 -7t9 -19q0 -4 -4 -12q-9 -18 -50.5 -71.5t-95.5 -115.5t-114 -109.5t-95 -47.5t-56.5 17t-21.5 34q0 33 20.5 85.5t41 89.5
t57.5 101l103 176l-11 4q-385 -507 -577 -507q-61 0 -95 38t-34 95q0 72 31 162.5t82.5 179t121 174t143 150t152 104t144.5 39.5q32 0 57.5 -12t38.5 -29t21.5 -34.5t10.5 -29.5l3 -12h4l45 106q10 25 27.5 33t50.5 8q71 0 71 -41zM748 748q0 112 -97 112q-67 0 -156 -83
t-161.5 -196t-123 -231t-50.5 -186q0 -62 59 -62q43 0 132.5 74t177 175t153.5 214.5t66 182.5zM1040 1276q0 -43 -32.5 -77t-73.5 -34t-66.5 27t-25.5 70t32.5 76.5t73.5 33.5t66.5 -27t25.5 -69zM635 1235q0 -43 -33 -77t-74 -34q-40 0 -66 28t-26 69q0 43 33 76.5
t74 33.5t66.5 -26.5t25.5 -69.5z" />
    <glyph glyph-name="aring" unicode="&#xe5;" horiz-adv-x="993" 
d="M1024 1206q0 -72 -56 -127t-128 -55t-118 47t-46 119t56 127t128 55t118 -47t46 -119zM963 1206q0 49 -28.5 77t-78.5 28q-49 0 -84 -35.5t-35 -85.5q0 -49 28.5 -77t78.5 -28q49 0 84 35.5t35 85.5zM993 911q0 -11 -20 -47l-187 -379q-135 -274 -135 -327q0 -23 21 -23
q16 0 43 22t54.5 54.5t52.5 64t42.5 55.5t18.5 25q6 6 12 6q9 0 18 -7t9 -19q0 -4 -4 -12q-9 -18 -50.5 -71.5t-95.5 -115.5t-114 -109.5t-95 -47.5t-56.5 17t-21.5 34q0 33 20.5 85.5t41 89.5t57.5 101l103 176l-11 4q-385 -507 -577 -507q-61 0 -95 38t-34 95
q0 72 31 162.5t82.5 179t121 174t143 150t152 104t144.5 39.5q32 0 57.5 -12t38.5 -29t21.5 -34.5t10.5 -29.5l3 -12h4l45 106q10 25 27.5 33t50.5 8q71 0 71 -41zM748 748q0 112 -97 112q-67 0 -156 -83t-161.5 -196t-123 -231t-50.5 -186q0 -62 59 -62q43 0 132.5 74
t177 175t153.5 214.5t66 182.5z" />
    <glyph glyph-name="ae" unicode="&#xe6;" horiz-adv-x="1177" 
d="M1157 778q0 -62 -36.5 -120t-94.5 -101t-129.5 -76.5t-141.5 -52t-130 -22.5q-21 -95 -21 -150q0 -158 111 -158q60 0 106.5 23.5t100.5 77.5q15 15 41 47.5t30 36.5q12 12 23 12t18.5 -7.5t7.5 -17.5q0 -11 -36.5 -66.5t-71.5 -90.5q-133 -133 -268 -133
q-98 0 -156.5 60t-58.5 185l2 31h-7q-33 -48 -70.5 -92t-85.5 -87.5t-101.5 -70t-102.5 -26.5q-57 0 -92 36t-35 97q0 98 50.5 194.5t131 172.5t176 143t190.5 114t169 76t117 37q104 72 202 72q75 0 118.5 -37.5t43.5 -106.5zM1034 799q0 35 -16 55t-45 20t-70 -23t-78 -60
q-50 -50 -100.5 -145t-87.5 -197q36 4 84 20t103.5 47t102 70t77 95.5t30.5 117.5zM696 758q-285 -110 -434 -269t-149 -315q0 -72 71 -72q34 0 77.5 29.5t80.5 72t69.5 84.5t50.5 72l19 29q2 8 7.5 22t24 57t41 85t61 99t81.5 106z" />
    <glyph glyph-name="ccedilla" unicode="&#xe7;" horiz-adv-x="727" 
d="M748 786q0 -42 -27 -71t-66 -29q-40 0 -66 26t-26 66q0 22 6 47.5t6 28.5q0 23 -32 23q-85 0 -170 -107.5t-135 -250t-50 -253.5q0 -157 103 -157q43 0 89.5 25.5t111.5 90.5q5 5 16 18.5t16 18.5q12 12 25 12q10 0 17 -7.5t7 -16.5t-37.5 -60t-74.5 -88
q-32 -32 -122 -91t-144 -103v-4q92 -56 92 -160q0 -78 -78 -151.5t-168 -73.5q-39 0 -65.5 20.5t-26.5 50.5q0 21 14.5 36.5t36.5 15.5q27 0 40.5 -19t19 -38t12.5 -19q45 0 78.5 41.5t33.5 95.5q0 48 -29.5 83.5t-88.5 49.5q-15 4 -15 21q0 4 11 12.5t38 26.5l33 22l92 62
v6q-194 22 -194 239q0 70 25.5 160.5t74 184t112 172.5t148 129.5t172.5 50.5q85 0 135 -36.5t50 -99.5z" />
    <glyph glyph-name="egrave" unicode="&#xe8;" horiz-adv-x="768" 
d="M748 788q0 -82 -55.5 -150t-139 -108t-170 -62t-158.5 -22q-30 -102 -30 -200q0 -67 27 -107.5t85 -40.5q60 0 105.5 23.5t99.5 77.5q16 16 44 50l28 34q12 12 24 12q10 0 17.5 -8t7.5 -17q0 -11 -37.5 -67t-71.5 -90q-67 -67 -133 -100t-145 -33q-98 0 -151.5 60.5
t-53.5 184.5q0 99 47 221t120.5 227.5t175 177t200.5 71.5q76 0 120 -36t44 -98zM625 809q0 30 -15.5 47.5t-42.5 17.5q-84 0 -179 -116t-148 -269q93 12 169.5 48.5t122 83.5t69.5 96t24 92zM645 1028q0 -10 -10 -17t-19 -7q-4 0 -11.5 7t-19 19.5t-12.5 13.5
q-176 211 -221 277q-14 21 -14 41q0 31 24.5 51.5t57.5 20.5q20 0 43 -23q13 -13 49 -87.5t77.5 -167t51.5 -112.5q4 -8 4 -16z" />
    <glyph glyph-name="eacute" unicode="&#xe9;" horiz-adv-x="768" 
d="M748 788q0 -82 -55.5 -150t-139 -108t-170 -62t-158.5 -22q-30 -102 -30 -200q0 -67 27 -107.5t85 -40.5q60 0 105.5 23.5t99.5 77.5q16 16 44 50l28 34q12 12 24 12q10 0 17.5 -8t7.5 -17q0 -11 -37.5 -67t-71.5 -90q-67 -67 -133 -100t-145 -33q-98 0 -151.5 60.5
t-53.5 184.5q0 99 47 221t120.5 227.5t175 177t200.5 71.5q76 0 120 -36t44 -98zM625 809q0 30 -15.5 47.5t-42.5 17.5q-84 0 -179 -116t-148 -269q93 12 169.5 48.5t122 83.5t69.5 96t24 92zM870 1372q0 -20 -14 -41l-207 -317q-10 -10 -20 -10q-8 0 -16.5 6.5t-8.5 13.5
q0 8 4 20l129 355q16 45 62 45q27 0 49 -18.5t22 -53.5z" />
    <glyph glyph-name="ecircumflex" unicode="&#xea;" horiz-adv-x="768" 
d="M748 788q0 -82 -55.5 -150t-139 -108t-170 -62t-158.5 -22q-30 -102 -30 -200q0 -67 27 -107.5t85 -40.5q60 0 105.5 23.5t99.5 77.5q16 16 44 50l28 34q12 12 24 12q10 0 17.5 -8t7.5 -17q0 -11 -37.5 -67t-71.5 -90q-67 -67 -133 -100t-145 -33q-98 0 -151.5 60.5
t-53.5 184.5q0 99 47 221t120.5 227.5t175 177t200.5 71.5q76 0 120 -36t44 -98zM625 809q0 30 -15.5 47.5t-42.5 17.5q-84 0 -179 -116t-148 -269q93 12 169.5 48.5t122 83.5t69.5 96t24 92zM829 1413q0 -3 -11 -55.5t-28.5 -150t-31.5 -189.5q0 -14 -17 -14q-26 0 -61 8.5
t-35 21.5q0 4 8 36.5t23.5 94t25.5 105.5h-6l-286 -246q-10 -10 -21 -10q-7 0 -13.5 6t-6.5 14q0 5 20 25l359 323q11 10 26 24.5t23 21t12 6.5q20 0 20 -21z" />
    <glyph glyph-name="edieresis" unicode="&#xeb;" horiz-adv-x="768" 
d="M748 788q0 -82 -55.5 -150t-139 -108t-170 -62t-158.5 -22q-30 -102 -30 -200q0 -67 27 -107.5t85 -40.5q60 0 105.5 23.5t99.5 77.5q16 16 44 50l28 34q12 12 24 12q10 0 17.5 -8t7.5 -17q0 -11 -37.5 -67t-71.5 -90q-67 -67 -133 -100t-145 -33q-98 0 -151.5 60.5
t-53.5 184.5q0 99 47 221t120.5 227.5t175 177t200.5 71.5q76 0 120 -36t44 -98zM625 809q0 30 -15.5 47.5t-42.5 17.5q-84 0 -179 -116t-148 -269q93 12 169.5 48.5t122 83.5t69.5 96t24 92zM922 1276q0 -43 -33 -77t-74 -34t-66.5 27t-25.5 70t32.5 76.5t73.5 33.5t67 -27
t26 -69zM516 1235q0 -43 -32.5 -77t-73.5 -34t-67 28t-26 69q0 43 33 76.5t74 33.5t66.5 -26.5t25.5 -69.5z" />
    <glyph glyph-name="igrave" unicode="&#xec;" horiz-adv-x="563" 
d="M492 840q0 -16 -22.5 -80.5t-49.5 -124.5l-160 -365q-37 -81 -37 -123q0 -20 23 -20q11 0 33.5 17t47 42t46 49.5t38.5 44.5l17 19q6 6 16 6q8 0 17.5 -8t9.5 -18q0 -7 -2 -11q-6 -12 -39 -54t-82.5 -96.5t-112 -96t-112.5 -41.5q-31 0 -56.5 18.5t-25.5 54.5
q0 21 8 49.5t15.5 47t27 60.5t25.5 56l176 404q24 53 24 84q0 14 -14 14q-19 0 -48 -25.5t-52 -55t-44.5 -58.5t-23.5 -31q-6 -6 -12 -6q-9 0 -19 7t-10 19q0 5 4 13q13 27 63.5 93t122 132t115.5 66q39 0 66 -25t27 -57zM512 1028q0 -10 -10 -17t-19 -7q-4 0 -11.5 7
t-19 19.5t-12.5 13.5q-176 211 -221 277q-14 21 -14 41q0 31 24.5 51.5t57.5 20.5q20 0 43 -23q13 -13 49 -87.5t77.5 -167t51.5 -112.5q4 -8 4 -16z" />
    <glyph glyph-name="iacute" unicode="&#xed;" horiz-adv-x="563" 
d="M492 840q0 -16 -22.5 -80.5t-49.5 -124.5l-160 -365q-37 -81 -37 -123q0 -20 23 -20q11 0 33.5 17t47 42t46 49.5t38.5 44.5l17 19q6 6 16 6q8 0 17.5 -8t9.5 -18q0 -7 -2 -11q-6 -12 -39 -54t-82.5 -96.5t-112 -96t-112.5 -41.5q-31 0 -56.5 18.5t-25.5 54.5
q0 21 8 49.5t15.5 47t27 60.5t25.5 56l176 404q24 53 24 84q0 14 -14 14q-19 0 -48 -25.5t-52 -55t-44.5 -58.5t-23.5 -31q-6 -6 -12 -6q-9 0 -19 7t-10 19q0 5 4 13q13 27 63.5 93t122 132t115.5 66q39 0 66 -25t27 -57zM707 1372q0 -18 -15 -41l-207 -317q-10 -10 -20 -10
q-8 0 -16.5 6.5t-8.5 13.5q0 8 4 20l129 355q16 45 62 45q27 0 49.5 -18.5t22.5 -53.5z" />
    <glyph glyph-name="icircumflex" unicode="&#xee;" horiz-adv-x="563" 
d="M492 840q0 -16 -22.5 -80.5t-49.5 -124.5l-160 -365q-37 -81 -37 -123q0 -20 23 -20q11 0 33.5 17t47 42t46 49.5t38.5 44.5l17 19q6 6 16 6q8 0 17.5 -8t9.5 -18q0 -7 -2 -11q-6 -12 -39 -54t-82.5 -96.5t-112 -96t-112.5 -41.5q-31 0 -56.5 18.5t-25.5 54.5
q0 21 8 49.5t15.5 47t27 60.5t25.5 56l176 404q24 53 24 84q0 14 -14 14q-19 0 -48 -25.5t-52 -55t-44.5 -58.5t-23.5 -31q-6 -6 -12 -6q-9 0 -19 7t-10 19q0 5 4 13q13 27 63.5 93t122 132t115.5 66q39 0 66 -25t27 -57zM686 1413q0 -3 -11 -55.5t-29 -150t-32 -189.5
q0 -14 -16 -14q-26 0 -61 8.5t-35 21.5q0 4 8 36.5t23.5 94t25.5 105.5h-6l-287 -246q-10 -10 -20 -10q-8 0 -14.5 6.5t-6.5 13.5q0 4 21 25l358 323q11 9 26.5 24t23.5 21.5t12 6.5q20 0 20 -21z" />
    <glyph glyph-name="idieresis" unicode="&#xef;" horiz-adv-x="563" 
d="M492 840q0 -16 -22.5 -80.5t-49.5 -124.5l-160 -365q-37 -81 -37 -123q0 -20 23 -20q11 0 33.5 17t47 42t46 49.5t38.5 44.5l17 19q6 6 16 6q8 0 17.5 -8t9.5 -18q0 -7 -2 -11q-6 -12 -39 -54t-82.5 -96.5t-112 -96t-112.5 -41.5q-31 0 -56.5 18.5t-25.5 54.5
q0 21 8 49.5t15.5 47t27 60.5t25.5 56l176 404q24 53 24 84q0 14 -14 14q-19 0 -48 -25.5t-52 -55t-44.5 -58.5t-23.5 -31q-6 -6 -12 -6q-9 0 -19 7t-10 19q0 5 4 13q13 27 63.5 93t122 132t115.5 66q39 0 66 -25t27 -57zM748 1255q0 -43 -33 -76.5t-74 -33.5t-66.5 26.5
t-25.5 69.5t32.5 77t73.5 34t67 -27.5t26 -69.5zM342 1214q0 -43 -32.5 -76.5t-73.5 -33.5t-67 28t-26 68q0 43 33 77t74 34t66.5 -27t25.5 -70z" />
    <glyph glyph-name="eth" unicode="&#xf0;" horiz-adv-x="860" 
d="M809 1331q0 -4 -2.5 -9t-4.5 -8l-3 -3q-72 -31 -127 -62q64 -117 95.5 -252.5t31.5 -259.5q0 -138 -39 -274t-105 -243t-163 -173.5t-205 -66.5q-35 0 -70.5 13t-72.5 43.5t-60 92.5t-23 147q0 72 21 157.5t63.5 172t99 157t135 115t163.5 44.5q32 0 60 -5t40 -11l12 -5
q-2 20 -6 53t-22.5 112.5t-42.5 131.5q-44 -25 -144 -90q-9 -6 -16 -6q-11 0 -22 11.5t-11 23.5q0 18 19 26q15 6 70.5 34.5t82.5 45.5q-15 35 -51 95t-51 75q-10 10 -10 21q0 13 11 21.5t19 8.5q21 0 62 -41q52 -52 102 -133l117 78q10 4 12 4q12 0 23.5 -14.5t11.5 -26.5z
M666 686q0 78 -29.5 131t-93.5 53q-69 0 -138.5 -78.5t-117.5 -189.5t-78.5 -228.5t-30.5 -199.5q0 -60 31.5 -104.5t91.5 -44.5q65 0 134 74.5t118 179.5t81 217.5t32 189.5z" />
    <glyph glyph-name="ntilde" unicode="&#xf1;" horiz-adv-x="1085" 
d="M983 823q0 -32 -12.5 -76.5t-22.5 -69.5t-37 -89l-135 -314q-47 -115 -47 -131q0 -18 14 -18q18 0 50.5 30t61 65t53.5 68t26 34q6 6 12 6q9 0 19 -7.5t10 -19.5q0 -4 -4 -12q-7 -14 -29.5 -46.5t-63 -78.5t-86 -86.5t-103 -69t-109.5 -28.5q-23 0 -34 11.5t-11 28.5
q0 31 14 66l219 498q51 115 51 170q0 26 -12.5 35.5t-38.5 9.5q-57 0 -166 -111.5t-201 -243t-118 -202.5l-78 -222q-7 -23 -27 -31.5t-59 -8.5q-58 0 -58 40q0 21 13 50l200 518q54 134 54 162q0 22 -21 22q-17 0 -45.5 -26.5t-52 -58t-43.5 -60.5l-21 -29q-6 -6 -12 -6
q-9 0 -19 7t-10 19q0 3 5 13q10 20 40.5 63.5t74 96.5t95.5 92t91 39q43 0 67.5 -18.5t24.5 -43.5q0 -18 -16.5 -58.5t-49.5 -108.5t-47 -99l-88 -211l6 -4q49 77 80 124t83 120t93 118t91.5 91t99.5 68t96 22q70 0 101.5 -29t31.5 -70zM1014 1352q0 -61 -18 -108t-46.5 -71
t-56 -35.5t-53.5 -11.5q-74 0 -161.5 5.5t-146.5 5.5q-67 0 -67 -31q0 -6 11 -20.5t11 -28.5q0 -12 -12 -22.5t-29 -10.5q-15 0 -25.5 13t-10.5 28q0 80 46.5 134t96.5 54q28 0 121.5 -1t171.5 -1q30 0 52.5 4.5t34 11t18.5 15t8.5 14t1.5 11.5q0 1 -12.5 17.5t-12.5 31.5
q0 13 11.5 24t29.5 11q14 0 25.5 -10t11.5 -29z" />
    <glyph glyph-name="ograve" unicode="&#xf2;" horiz-adv-x="849" 
d="M653 727q0 70 -29.5 107.5t-86.5 37.5q-74 0 -158 -116.5t-139.5 -281.5t-55.5 -300q0 -69 30 -107t87 -38q74 0 158 116.5t139 281.5t55 300zM788 618q0 -153 -72.5 -301.5t-190.5 -242.5t-242 -94q-80 0 -133.5 42.5t-76 108.5t-22.5 152q0 111 42.5 226.5t110.5 206
t160.5 148.5t186.5 58q118 0 177.5 -86t59.5 -218zM686 1028q0 -10 -10 -17t-19 -7q-4 0 -11.5 7t-19 19.5t-12.5 13.5q-176 211 -221 277q-14 21 -14 41q0 31 24.5 51.5t57.5 20.5q20 0 43 -23q13 -13 49 -87.5t77.5 -167t51.5 -112.5q4 -8 4 -16z" />
    <glyph glyph-name="oacute" unicode="&#xf3;" horiz-adv-x="849" 
d="M653 727q0 70 -29.5 107.5t-86.5 37.5q-74 0 -158 -116.5t-139.5 -281.5t-55.5 -300q0 -69 30 -107t87 -38q74 0 158 116.5t139 281.5t55 300zM788 618q0 -153 -72.5 -301.5t-190.5 -242.5t-242 -94q-80 0 -133.5 42.5t-76 108.5t-22.5 152q0 111 42.5 226.5t110.5 206
t160.5 148.5t186.5 58q118 0 177.5 -86t59.5 -218zM809 1372q0 -20 -14 -41l-207 -317q-10 -10 -21 -10q-8 0 -16 6.5t-8 13.5q0 8 4 20l129 355q16 45 61 45q27 0 49.5 -18.5t22.5 -53.5z" />
    <glyph glyph-name="ocircumflex" unicode="&#xf4;" horiz-adv-x="849" 
d="M653 727q0 70 -29.5 107.5t-86.5 37.5q-74 0 -158 -116.5t-139.5 -281.5t-55.5 -300q0 -69 30 -107t87 -38q74 0 158 116.5t139 281.5t55 300zM788 618q0 -153 -72.5 -301.5t-190.5 -242.5t-242 -94q-80 0 -133.5 42.5t-76 108.5t-22.5 152q0 111 42.5 226.5t110.5 206
t160.5 148.5t186.5 58q118 0 177.5 -86t59.5 -218zM850 1413q0 -3 -11 -55.5t-29 -150t-32 -189.5q0 -14 -16 -14q-26 0 -61 8.5t-35 21.5q0 4 8 36.5t23.5 94t25.5 105.5h-6l-287 -246q-10 -10 -20 -10q-8 0 -14.5 6.5t-6.5 13.5q0 4 21 25l358 323q11 10 26 24.5t23 21
t12 6.5q21 0 21 -21z" />
    <glyph glyph-name="otilde" unicode="&#xf5;" horiz-adv-x="849" 
d="M653 727q0 70 -29.5 107.5t-86.5 37.5q-74 0 -158 -116.5t-139.5 -281.5t-55.5 -300q0 -69 30 -107t87 -38q74 0 158 116.5t139 281.5t55 300zM788 618q0 -153 -72.5 -301.5t-190.5 -242.5t-242 -94q-80 0 -133.5 42.5t-76 108.5t-22.5 152q0 111 42.5 226.5t110.5 206
t160.5 148.5t186.5 58q118 0 177.5 -86t59.5 -218zM911 1352q0 -61 -18 -108t-46.5 -71t-56 -35.5t-53.5 -11.5q-74 0 -161 5.5t-146 5.5q-68 0 -68 -31q0 -6 11.5 -20.5t11.5 -28.5q0 -12 -12 -22.5t-29 -10.5q-15 0 -26 13t-11 28q0 79 47 133.5t97 54.5q28 0 121 -1
t171 -1q30 0 52.5 4.5t34 11t18.5 15t8.5 14t1.5 11.5q0 1 -12 17.5t-12 31.5q0 13 11 24t29 11q14 0 25.5 -10t11.5 -29z" />
    <glyph glyph-name="odieresis" unicode="&#xf6;" horiz-adv-x="849" 
d="M653 727q0 70 -29.5 107.5t-86.5 37.5q-74 0 -158 -116.5t-139.5 -281.5t-55.5 -300q0 -69 30 -107t87 -38q74 0 158 116.5t139 281.5t55 300zM788 618q0 -153 -72.5 -301.5t-190.5 -242.5t-242 -94q-80 0 -133.5 42.5t-76 108.5t-22.5 152q0 111 42.5 226.5t110.5 206
t160.5 148.5t186.5 58q118 0 177.5 -86t59.5 -218zM922 1276q0 -43 -33 -77t-74 -34t-66.5 27t-25.5 70t32.5 76.5t73.5 33.5t67 -27t26 -69zM516 1235q0 -43 -32.5 -77t-73.5 -34t-67 28t-26 69q0 43 33 76.5t74 33.5t66.5 -26.5t25.5 -69.5z" />
    <glyph glyph-name="divide" unicode="&#xf7;" horiz-adv-x="1024" 
d="M608 764q0 -40 -28 -68t-68 -28t-68 28t-28 68t28 68t68 28t68 -28t28 -68zM963 430q0 -14 -6.5 -24.5t-14.5 -10.5q-14 0 -88 2t-96 2h-379q-76 0 -143 -1t-106 -2t-48 -1q-21 0 -21 25v41q0 15 7 30t14 15q14 0 88 -2t96 -2h379q76 0 143 1t106 2t48 1q21 0 21 -25v-51
zM608 137q0 -40 -28 -68t-68 -28t-68 28t-28 68t28 68t68 28t68 -28t28 -68z" />
    <glyph glyph-name="oslash" unicode="&#xf8;" horiz-adv-x="839" 
d="M846 973l-115 -142q5 -9 13 -26.5t21 -73.5t13 -113q0 -155 -70.5 -304t-185 -241.5t-235.5 -92.5q-39 0 -73.5 12t-49.5 24l-14 13l-68 -111q-12 -20 -37 -20q-19 0 -34 13t-15 28q66 74 113 137q-48 80 -48 207q0 153 69.5 301.5t183.5 243t235 94.5q43 0 78.5 -13
t50.5 -26l14 -13l68 113q17 21 39 21q18 0 32.5 -11t14.5 -20zM649 809q-29 63 -112 63q-80 0 -167 -122t-141.5 -288.5t-54.5 -297.5zM666 741l-473 -651q1 -2 3.5 -6.5t11.5 -15t20.5 -18.5t31 -14.5t41.5 -6.5q81 0 168 121.5t142 289t55 301.5z" />
    <glyph glyph-name="ugrave" unicode="&#xf9;" horiz-adv-x="1044" 
d="M993 881q0 -10 -14 -52l-211 -536q-45 -133 -45 -143q0 -21 18 -21q15 0 44.5 26.5t54 57t46.5 59.5l23 29q6 6 13 6q9 0 18.5 -7t9.5 -19q0 -5 -4 -13q-6 -12 -28 -42.5t-59 -73t-77 -80.5t-86 -65t-82 -27q-25 0 -46 18.5t-21 42.5q0 19 16 59.5t47.5 107.5t44.5 99
l93 211l-9 4q-54 -85 -97.5 -148.5t-106 -142.5t-116.5 -129.5t-118 -86t-121 -35.5q-108 0 -108 98q0 76 67 235l154 357q26 67 26 82q0 16 -12 16q-15 0 -43 -24t-51 -52t-45 -55.5t-23 -28.5q-6 -6 -12 -6q-9 0 -19 7.5t-10 19.5q0 2 5 12q8 16 44 60t83 94t99.5 88.5
t84.5 38.5q88 0 88 -62q0 -9 -4 -23.5t-13 -37.5t-15.5 -38.5t-20.5 -47t-19 -43.5l-160 -371q-43 -101 -43 -160q0 -43 46 -43q48 0 125.5 68t150 161t131.5 185.5t78 144.5l78 215q9 28 28.5 40t57.5 12q65 0 65 -41zM809 1028q0 -10 -10 -17t-19 -7q-4 0 -11.5 7
t-19 19.5t-12.5 13.5q-176 211 -221 277q-14 21 -14 41q0 31 24.5 51.5t57.5 20.5q20 0 43 -23q13 -13 49 -87.5t77.5 -167t51.5 -112.5q4 -8 4 -16z" />
    <glyph glyph-name="uacute" unicode="&#xfa;" horiz-adv-x="1044" 
d="M993 881q0 -10 -14 -52l-211 -536q-45 -133 -45 -143q0 -21 18 -21q15 0 44.5 26.5t54 57t46.5 59.5l23 29q6 6 13 6q9 0 18.5 -7t9.5 -19q0 -5 -4 -13q-6 -12 -28 -42.5t-59 -73t-77 -80.5t-86 -65t-82 -27q-25 0 -46 18.5t-21 42.5q0 19 16 59.5t47.5 107.5t44.5 99
l93 211l-9 4q-54 -85 -97.5 -148.5t-106 -142.5t-116.5 -129.5t-118 -86t-121 -35.5q-108 0 -108 98q0 76 67 235l154 357q26 67 26 82q0 16 -12 16q-15 0 -43 -24t-51 -52t-45 -55.5t-23 -28.5q-6 -6 -12 -6q-9 0 -19 7.5t-10 19.5q0 2 5 12q8 16 44 60t83 94t99.5 88.5
t84.5 38.5q88 0 88 -62q0 -9 -4 -23.5t-13 -37.5t-15.5 -38.5t-20.5 -47t-19 -43.5l-160 -371q-43 -101 -43 -160q0 -43 46 -43q48 0 125.5 68t150 161t131.5 185.5t78 144.5l78 215q9 28 28.5 40t57.5 12q65 0 65 -41zM932 1372q0 -20 -14 -41l-207 -317q-10 -10 -21 -10
q-8 0 -16 6.5t-8 13.5q0 8 4 20l129 355q16 45 61 45q27 0 49.5 -18.5t22.5 -53.5z" />
    <glyph glyph-name="ucircumflex" unicode="&#xfb;" horiz-adv-x="1044" 
d="M993 881q0 -10 -14 -52l-211 -536q-45 -133 -45 -143q0 -21 18 -21q15 0 44.5 26.5t54 57t46.5 59.5l23 29q6 6 13 6q9 0 18.5 -7t9.5 -19q0 -5 -4 -13q-6 -12 -28 -42.5t-59 -73t-77 -80.5t-86 -65t-82 -27q-25 0 -46 18.5t-21 42.5q0 19 16 59.5t47.5 107.5t44.5 99
l93 211l-9 4q-54 -85 -97.5 -148.5t-106 -142.5t-116.5 -129.5t-118 -86t-121 -35.5q-108 0 -108 98q0 76 67 235l154 357q26 67 26 82q0 16 -12 16q-15 0 -43 -24t-51 -52t-45 -55.5t-23 -28.5q-6 -6 -12 -6q-9 0 -19 7.5t-10 19.5q0 2 5 12q8 16 44 60t83 94t99.5 88.5
t84.5 38.5q88 0 88 -62q0 -9 -4 -23.5t-13 -37.5t-15.5 -38.5t-20.5 -47t-19 -43.5l-160 -371q-43 -101 -43 -160q0 -43 46 -43q48 0 125.5 68t150 161t131.5 185.5t78 144.5l78 215q9 28 28.5 40t57.5 12q65 0 65 -41zM963 1413q0 -3 -11 -55.5t-29 -150t-32 -189.5
q0 -14 -17 -14q-26 0 -61 8.5t-35 21.5q0 4 8 37t23.5 93.5t26.5 105.5h-7l-286 -246q-10 -10 -21 -10q-8 0 -14 6t-6 14q0 5 20 25l359 323q11 10 26 24.5t23 21t12 6.5q21 0 21 -21z" />
    <glyph glyph-name="udieresis" unicode="&#xfc;" horiz-adv-x="1044" 
d="M993 881q0 -10 -14 -52l-211 -536q-45 -133 -45 -143q0 -21 18 -21q15 0 44.5 26.5t54 57t46.5 59.5l23 29q6 6 13 6q9 0 18.5 -7t9.5 -19q0 -5 -4 -13q-6 -12 -28 -42.5t-59 -73t-77 -80.5t-86 -65t-82 -27q-25 0 -46 18.5t-21 42.5q0 19 16 59.5t47.5 107.5t44.5 99
l93 211l-9 4q-54 -85 -97.5 -148.5t-106 -142.5t-116.5 -129.5t-118 -86t-121 -35.5q-108 0 -108 98q0 76 67 235l154 357q26 67 26 82q0 16 -12 16q-15 0 -43 -24t-51 -52t-45 -55.5t-23 -28.5q-6 -6 -12 -6q-9 0 -19 7.5t-10 19.5q0 2 5 12q8 16 44 60t83 94t99.5 88.5
t84.5 38.5q88 0 88 -62q0 -9 -4 -23.5t-13 -37.5t-15.5 -38.5t-20.5 -47t-19 -43.5l-160 -371q-43 -101 -43 -160q0 -43 46 -43q48 0 125.5 68t150 161t131.5 185.5t78 144.5l78 215q9 28 28.5 40t57.5 12q65 0 65 -41zM1065 1276q0 -43 -33 -77t-74 -34t-66.5 27t-25.5 70
t33 76.5t74 33.5t66.5 -27t25.5 -69zM659 1235q0 -43 -32.5 -77t-73.5 -34q-40 0 -66 28t-26 69q0 43 32.5 76.5t73.5 33.5t66.5 -26.5t25.5 -69.5z" />
    <glyph glyph-name="yacute" unicode="&#xfd;" horiz-adv-x="911" 
d="M860 788q0 -68 -29.5 -193t-81 -277t-126.5 -308.5t-159.5 -285.5t-188 -211t-203.5 -82q-75 0 -130 42t-55 117q0 52 33 90.5t80 38.5q48 0 80.5 -28t32.5 -74q0 -16 -2 -39.5t-2 -28.5q0 -30 34 -30q66 0 144 78q76 76 135 174t59 188q0 62 -32 168l-158 500
q-38 131 -76 131q-18 0 -39.5 -26t-39 -65t-31.5 -76t-23 -67l-10 -30q-6 -13 -21 -13q-11 0 -19.5 7t-8.5 18q0 13 18.5 75.5t48.5 140.5t76.5 139t93.5 61q29 0 54.5 -22.5t45.5 -64.5t33 -78t27 -87l172 -584h6q6 11 15.5 31t34 82t43.5 123t34.5 145t15.5 158
q0 27 -15 52t-33 42t-33 42t-15 52q0 48 29 78.5t74 30.5q56 0 84 -40.5t28 -93.5zM799 1362q0 -18 -15 -41l-206 -317q-11 -11 -21 -11q-8 0 -16.5 7t-8.5 14q0 5 5 20l129 355q16 45 61 45q27 0 49.5 -18.5t22.5 -53.5z" />
    <glyph glyph-name="thorn" unicode="&#xfe;" horiz-adv-x="952" 
d="M901 618q0 -114 -50.5 -230.5t-131 -205.5t-186.5 -145.5t-211 -56.5q-33 0 -61 11.5t-40 26.5l-4 -2l-111 -348q-28 -89 -28 -119q0 -14 8 -22q14 -14 154 -14q20 0 20 -31t-20 -31q-26 0 -104.5 2t-106.5 2q-41 0 -147 -12t-128 -12q-20 0 -20 30q0 31 20 31
q49 0 91 10t57 25q26 26 45 84l401 1208q-73 -22 -172 -121q-12 -12 -26 -28t-24 -28t-11 -13q-6 -6 -15 -6t-16.5 7t-7.5 19q0 8 23.5 41.5t47.5 57.5q113 113 222 143l92 297q20 78 20 106q0 25 -10 35q-17 17 -61 35l-45 18q-7 7 -7 17q0 9 9 18q1 1 32.5 3.5t75 7
t68.5 10.5q24 6 51 15.5t43 15.5t22 6h11q26 0 26 -27q0 -6 -84 -240l-100 -299q51 13 104 13q120 0 202.5 -89.5t82.5 -214.5zM745 614q0 111 -57 179.5t-160 68.5q-16 0 -27.5 -10.5t-16 -21t-11.5 -31.5l-219 -674q-6 -18 -6 -39q0 -29 17.5 -43t64.5 -14q65 0 138.5 49
t134.5 127.5t101.5 188.5t40.5 220z" />
    <glyph glyph-name="ydieresis" unicode="&#xff;" horiz-adv-x="911" 
d="M860 788q0 -68 -29.5 -193t-81 -277t-126.5 -308.5t-159.5 -285.5t-188 -211t-203.5 -82q-75 0 -130 42t-55 117q0 52 33 90.5t80 38.5q48 0 80.5 -28t32.5 -74q0 -16 -2 -39.5t-2 -28.5q0 -30 34 -30q66 0 144 78q76 76 135 174t59 188q0 62 -32 168l-158 500
q-38 131 -76 131q-18 0 -39.5 -26t-39 -65t-31.5 -76t-23 -67l-10 -30q-6 -13 -21 -13q-11 0 -19.5 7t-8.5 18q0 13 18.5 75.5t48.5 140.5t76.5 139t93.5 61q29 0 54.5 -22.5t45.5 -64.5t33 -78t27 -87l172 -584h6q6 11 15.5 31t34 82t43.5 123t34.5 145t15.5 158
q0 27 -15 52t-33 42t-33 42t-15 52q0 48 29 78.5t74 30.5q56 0 84 -40.5t28 -93.5zM860 1276q0 -43 -32.5 -77t-73.5 -34t-66.5 27t-25.5 70t32.5 76.5t73.5 33.5t66.5 -27t25.5 -69zM455 1235q0 -43 -33 -77t-74 -34q-40 0 -66 28t-26 69q0 43 32.5 76.5t73.5 33.5
t67 -26.5t26 -69.5z" />
    <glyph glyph-name="Amacron" unicode="&#x100;" horiz-adv-x="1361" 
d="M1403 1430q0 -4 -16 -48t-44 -123.5t-49 -152.5l-270 -901q-20 -65 -20 -101q0 -14 8 -22q10 -10 40 -13t109 -3q27 0 27 -33t-31 -33h-174q-58 0 -141.5 -3.5t-144.5 -7t-64 -3.5q-25 0 -25 32q0 33 27 33q110 0 141 31q13 13 22 34t33 89l132 387q1 3 2.5 8.5t2.5 9.5
t1 6q0 11 -13 11l-350 -21q-21 -2 -47 -28l-256 -271q-52 -55 -88.5 -114.5t-36.5 -88.5q0 -14 8 -22q10 -10 42 -13t110 -3q24 0 24 -33t-28 -33h-172q-84 0 -209 -6t-133 -6q-25 0 -25 32q0 33 27 33q54 0 112 23q60 24 267 231l1124 1120q35 35 47 35q31 0 31 -32z
M1149 1143q0 8 -8 8q-9 0 -49 -37l-410 -407q-23 -23 -23 -31t11 -8l305 8q9 0 13.5 3t6 6t4.5 11l140 410q10 31 10 37zM1698 1690q0 -23 -11 -38.5t-26 -15.5q-7 0 -45.5 1t-61.5 1h-256q-24 0 -52 -2t-29 -2q-10 0 -20.5 8.5t-10.5 26.5q0 23 11 38t26 15q6 0 41.5 -1
t64.5 -1h256q24 0 52.5 2t29.5 2q11 0 21 -8t10 -26z" />
    <glyph glyph-name="amacron" unicode="&#x101;" horiz-adv-x="993" 
d="M993 911q0 -11 -20 -47l-187 -379q-135 -274 -135 -327q0 -23 21 -23q16 0 43 22t54.5 54.5t52.5 64t42.5 55.5t18.5 25q6 6 12 6q9 0 18 -7t9 -19q0 -4 -4 -12q-9 -18 -50.5 -71.5t-95.5 -115.5t-114 -109.5t-95 -47.5t-56.5 17t-21.5 34q0 33 20.5 85.5t41 89.5
t57.5 101l103 176l-11 4q-385 -507 -577 -507q-61 0 -95 38t-34 95q0 72 31 162.5t82.5 179t121 174t143 150t152 104t144.5 39.5q32 0 57.5 -12t38.5 -29t21.5 -34.5t10.5 -29.5l3 -12h4l45 106q10 25 27.5 33t50.5 8q71 0 71 -41zM748 748q0 112 -97 112q-67 0 -156 -83
t-161.5 -196t-123 -231t-50.5 -186q0 -62 59 -62q43 0 132.5 74t177 175t153.5 214.5t66 182.5zM1032 1178q0 -23 -11 -38.5t-26 -15.5q-7 0 -45 1t-61 1h-256q-24 0 -52.5 -2t-29.5 -2q-10 0 -20.5 8.5t-10.5 26.5q0 23 11 38t26 15q6 0 42 -1t65 -1h256q24 0 52 2t29 2
q11 0 21 -8t10 -26z" />
    <glyph glyph-name="Abreve" unicode="&#x102;" horiz-adv-x="1361" 
d="M1403 1430q0 -4 -16 -48t-44 -123.5t-49 -152.5l-270 -901q-20 -65 -20 -101q0 -14 8 -22q10 -10 40 -13t109 -3q27 0 27 -33t-31 -33h-174q-58 0 -141.5 -3.5t-144.5 -7t-64 -3.5q-25 0 -25 32q0 33 27 33q110 0 141 31q13 13 22 34t33 89l132 387q1 3 2.5 8.5t2.5 9.5
t1 6q0 11 -13 11l-350 -21q-21 -2 -47 -28l-256 -271q-52 -55 -88.5 -114.5t-36.5 -88.5q0 -14 8 -22q10 -10 42 -13t110 -3q24 0 24 -33t-28 -33h-172q-84 0 -209 -6t-133 -6q-25 0 -25 32q0 33 27 33q54 0 112 23q60 24 267 231l1124 1120q35 35 47 35q31 0 31 -32z
M1149 1143q0 8 -8 8q-9 0 -49 -37l-410 -407q-23 -23 -23 -31t11 -8l305 8q9 0 13.5 3t6 6t4.5 11l140 410q10 31 10 37zM1794 1817q0 -12 -16 -43.5t-49 -74t-76.5 -81t-106.5 -65.5t-131 -27q-66 0 -115 26t-73.5 67t-35.5 79.5t-11 73.5q0 61 30 61q16 0 19 -10
q7 -86 65.5 -135.5t151.5 -49.5q48 0 93 13t76.5 32.5t59 43.5t43 43t27.5 36l12 17q10 10 21 10q6 0 11 -5t5 -11z" />
    <glyph glyph-name="abreve" unicode="&#x103;" horiz-adv-x="993" 
d="M993 911q0 -11 -20 -47l-187 -379q-135 -274 -135 -327q0 -23 21 -23q16 0 43 22t54.5 54.5t52.5 64t42.5 55.5t18.5 25q6 6 12 6q9 0 18 -7t9 -19q0 -4 -4 -12q-9 -18 -50.5 -71.5t-95.5 -115.5t-114 -109.5t-95 -47.5t-56.5 17t-21.5 34q0 33 20.5 85.5t41 89.5
t57.5 101l103 176l-11 4q-385 -507 -577 -507q-61 0 -95 38t-34 95q0 72 31 162.5t82.5 179t121 174t143 150t152 104t144.5 39.5q32 0 57.5 -12t38.5 -29t21.5 -34.5t10.5 -29.5l3 -12h4l45 106q10 25 27.5 33t50.5 8q71 0 71 -41zM748 748q0 112 -97 112q-67 0 -156 -83
t-161.5 -196t-123 -231t-50.5 -186q0 -62 59 -62q43 0 132.5 74t177 175t153.5 214.5t66 182.5zM1128 1305q0 -12 -15.5 -43.5t-49 -74t-76.5 -81t-106 -65.5t-131 -27q-54 0 -96.5 18t-68 45t-42.5 61.5t-23 64.5t-6 57q0 61 31 61q15 0 18 -10q7 -86 65.5 -135.5
t151.5 -49.5q48 0 93.5 13t76.5 32.5t59 43.5t43.5 43t27.5 36l12 17q10 10 20 10q6 0 11 -5t5 -11z" />
    <glyph glyph-name="Aogonek" unicode="&#x104;" horiz-adv-x="1361" 
d="M1403 1430q0 -5 -15.5 -48.5t-43.5 -123.5t-50 -152l-270 -901q-20 -65 -20 -101q0 -14 8 -22q10 -10 40 -13t109 -3q27 0 27 -33t-31 -33h-235q-92 -67 -146.5 -146.5t-54.5 -144.5q0 -108 119 -108q55 0 114 39q9 -6 9 -19q0 -7 -8.5 -24t-22.5 -31q-98 -98 -225 -98
q-74 0 -114 45.5t-40 117.5q0 51 30.5 107t79.5 105t100 88t101 69q-47 -1 -101.5 -4.5t-90.5 -6.5t-39 -3q-25 0 -25 32q0 33 27 33q110 0 141 31q13 13 22 34t33 89l132 387q1 3 2.5 8.5t2.5 9.5t1 6q0 11 -13 11l-350 -21q-21 -2 -47 -28l-256 -271q-52 -55 -88.5 -114.5
t-36.5 -88.5q0 -14 8 -22q10 -10 42 -13t110 -3q24 0 24 -33t-28 -33h-172q-84 0 -209 -6t-133 -6q-25 0 -25 32q0 33 27 33q54 0 112 23q60 24 267 231l1124 1120q35 35 47 35q31 0 31 -32zM1149 1143q0 8 -8 8q-9 0 -49 -37l-410 -407q-23 -23 -23 -31t11 -8l305 8
q9 0 13.5 3t6 6t4.5 11l140 410q10 31 10 37z" />
    <glyph glyph-name="aogonek" unicode="&#x105;" horiz-adv-x="993" 
d="M993 911q0 -7 -20 -47l-187 -379q-135 -274 -135 -327q0 -23 21 -23q16 0 43 22t54.5 54.5t52.5 64t42.5 55.5t18.5 25q6 6 12 6q9 0 18 -7t9 -19q0 -4 -4 -12q-18 -39 -115 -154.5t-178 -169.5q-90 -60 -145.5 -143t-55.5 -148q0 -108 119 -108q55 0 114 39q9 -6 9 -19
q0 -7 -9.5 -25t-21.5 -30q-98 -98 -225 -98q-74 0 -114 45.5t-40 117.5q0 62 47.5 133t108.5 123.5t127 92.5q-26 7 -40 22t-14 29q0 33 20.5 85.5t41 89.5t57.5 101l103 176l-11 4q-385 -507 -577 -507q-61 0 -95 38t-34 95q0 72 31 162.5t82.5 179t121 174t143 150
t152 104t144.5 39.5q32 0 57.5 -12t38.5 -29t21.5 -34.5t10.5 -29.5l3 -12h4l45 106q10 25 27.5 33t50.5 8q71 0 71 -41zM748 748q0 112 -97 112q-67 0 -156 -83t-161.5 -196t-123 -231t-50.5 -186q0 -62 59 -62q43 0 132.5 74t177 175t153.5 214.5t66 182.5z" />
    <glyph glyph-name="Cacute" unicode="&#x106;" horiz-adv-x="1351" 
d="M1393 1384q0 -4 -5.5 -18.5t-13 -43t-15 -70t-13 -112.5t-5.5 -157v-20q0 -23 -9.5 -32t-31.5 -9q-14 0 -24 10q-8 8 -25 82.5t-48 163.5t-75 133q-94 94 -221 94q-105 0 -195.5 -55t-151.5 -142t-105 -195.5t-64 -214.5t-20 -200q0 -506 325 -506q124 0 219 51.5
t207 163.5q27 27 41 27q11 0 21 -10.5t10 -22.5q0 -11 -21 -39t-36 -43q-80 -80 -145 -128t-154 -79.5t-193 -31.5q-112 0 -205.5 46.5t-155.5 125t-96 182.5t-34 219q0 168 56 332t152 291.5t235 206.5t294 79q86 0 154.5 -18t101 -39t62.5 -39t48 -18q22 0 60 38
q27 27 41 27t24.5 -9.5t10.5 -19.5zM1272 1792q0 -38 -35 -63l-309 -216q-11 -4 -15 -4q-9 0 -16.5 7.5t-7.5 15.5q0 4 3.5 10t7.5 10l3 4l250 281q27 27 51 27t46 -23t22 -49z" />
    <glyph glyph-name="cacute" unicode="&#x107;" horiz-adv-x="727" 
d="M748 788q0 -45 -27 -73.5t-66 -28.5t-65.5 25t-26.5 67q0 22 6 47.5t6 28.5q0 23 -36 23q-64 0 -130 -66t-113.5 -162t-77.5 -203.5t-30 -189.5q0 -158 103 -158q75 0 151 76q22 22 47.5 53.5t28.5 34.5q12 12 25 12q10 0 17 -7.5t7 -16.5q0 -6 -15 -33t-41 -64t-50 -61
q-112 -112 -225 -112q-205 0 -205 245q0 70 25.5 160.5t74 184t112 172.5t148 129.5t172.5 50.5q85 0 135 -36.5t50 -97.5zM827 1372q0 -20 -14 -41l-207 -317q-10 -10 -20 -10q-8 0 -16.5 6.5t-8.5 13.5q0 8 4 20l129 355q16 45 62 45q27 0 49 -18.5t22 -53.5z" />
    <glyph glyph-name="Ccircumflex" unicode="&#x108;" horiz-adv-x="1351" 
d="M1393 1384q0 -4 -5.5 -18.5t-13 -43t-15 -70t-13 -112.5t-5.5 -157v-20q0 -23 -9.5 -32t-31.5 -9q-14 0 -24 10q-8 8 -25 82.5t-48 163.5t-75 133q-94 94 -221 94q-105 0 -195.5 -55t-151.5 -142t-105 -195.5t-64 -214.5t-20 -200q0 -506 325 -506q124 0 219 51.5
t207 163.5q27 27 41 27q11 0 21 -10.5t10 -22.5q0 -11 -21 -39t-36 -43q-80 -80 -145 -128t-154 -79.5t-193 -31.5q-112 0 -205.5 46.5t-155.5 125t-96 182.5t-34 219q0 168 56 332t152 291.5t235 206.5t294 79q86 0 154.5 -18t101 -39t62.5 -39t48 -18q22 0 60 38
q27 27 41 27t24.5 -9.5t10.5 -19.5zM1243 1919q0 -3 -11 -55.5t-29 -150t-32 -189.5q0 -7 -5.5 -11t-10.5 -4q-26 0 -61 9t-35 22q0 4 8 36.5t23.5 94t25.5 105.5h-6l-287 -246q-10 -10 -20 -10q-8 0 -14.5 6.5t-6.5 13.5q0 4 21 25l358 323q10 9 26 24t23.5 21t12.5 6
q20 0 20 -20z" />
    <glyph glyph-name="ccircumflex" unicode="&#x109;" horiz-adv-x="727" 
d="M748 788q0 -45 -27 -73.5t-66 -28.5t-65.5 25t-26.5 67q0 22 6 47.5t6 28.5q0 23 -36 23q-64 0 -130 -66t-113.5 -162t-77.5 -203.5t-30 -189.5q0 -158 103 -158q75 0 151 76q22 22 47.5 53.5t28.5 34.5q12 12 25 12q10 0 17 -7.5t7 -16.5q0 -6 -15 -33t-41 -64t-50 -61
q-112 -112 -225 -112q-205 0 -205 245q0 70 25.5 160.5t74 184t112 172.5t148 129.5t172.5 50.5q85 0 135 -36.5t50 -97.5zM860 1413q0 -3 -11 -55.5t-29 -150t-32 -189.5q0 -14 -16 -14q-26 0 -61 8.5t-35 21.5q0 4 8 36.5t23.5 94t25.5 105.5h-6l-287 -246
q-10 -10 -20 -10q-8 0 -14.5 6.5t-6.5 13.5q0 4 21 25l358 323q11 9 26.5 24t23.5 21.5t12 6.5q20 0 20 -21z" />
    <glyph glyph-name="Cdotaccent" unicode="&#x10a;" horiz-adv-x="1351" 
d="M1393 1384q0 -4 -5.5 -18.5t-13 -43t-15 -70t-13 -112.5t-5.5 -157v-20q0 -23 -9.5 -32t-31.5 -9q-14 0 -24 10q-8 8 -25 82.5t-48 163.5t-75 133q-94 94 -221 94q-105 0 -195.5 -55t-151.5 -142t-105 -195.5t-64 -214.5t-20 -200q0 -506 325 -506q124 0 219 51.5
t207 163.5q27 27 41 27q11 0 21 -10.5t10 -22.5q0 -11 -21 -39t-36 -43q-80 -80 -145 -128t-154 -79.5t-193 -31.5q-112 0 -205.5 46.5t-155.5 125t-96 182.5t-34 219q0 168 56 332t152 291.5t235 206.5t294 79q86 0 154.5 -18t101 -39t62.5 -39t48 -18q22 0 60 38
q27 27 41 27t24.5 -9.5t10.5 -19.5zM1112 1776q0 -43 -32.5 -77t-73.5 -34t-67 26.5t-26 69.5t33 77t74 34t66.5 -26.5t25.5 -69.5z" />
    <glyph glyph-name="cdotaccent" unicode="&#x10b;" horiz-adv-x="727" 
d="M748 788q0 -45 -27 -73.5t-66 -28.5t-65.5 25t-26.5 67q0 22 6 47.5t6 28.5q0 23 -36 23q-64 0 -130 -66t-113.5 -162t-77.5 -203.5t-30 -189.5q0 -158 103 -158q75 0 151 76q22 22 47.5 53.5t28.5 34.5q12 12 25 12q10 0 17 -7.5t7 -16.5q0 -6 -15 -33t-41 -64t-50 -61
q-112 -112 -225 -112q-205 0 -205 245q0 70 25.5 160.5t74 184t112 172.5t148 129.5t172.5 50.5q85 0 135 -36.5t50 -97.5zM729 1235q0 -43 -32.5 -77t-73.5 -34t-67 27t-26 70t33 76.5t74 33.5t66.5 -26.5t25.5 -69.5z" />
    <glyph glyph-name="Ccaron" unicode="&#x10c;" horiz-adv-x="1351" 
d="M1393 1384q0 -4 -5.5 -18.5t-13 -43t-15 -70t-13 -112.5t-5.5 -157v-20q0 -23 -9.5 -32t-31.5 -9q-14 0 -24 10q-8 8 -25 82.5t-48 163.5t-75 133q-94 94 -221 94q-105 0 -195.5 -55t-151.5 -142t-105 -195.5t-64 -214.5t-20 -200q0 -506 325 -506q124 0 219 51.5
t207 163.5q27 27 41 27q11 0 21 -10.5t10 -22.5q0 -11 -21 -39t-36 -43q-80 -80 -145 -128t-154 -79.5t-193 -31.5q-112 0 -205.5 46.5t-155.5 125t-96 182.5t-34 219q0 168 56 332t152 291.5t235 206.5t294 79q86 0 154.5 -18t101 -39t62.5 -39t48 -18q22 0 60 38
q27 27 41 27t24.5 -9.5t10.5 -19.5zM1350 1909q0 -4 -21 -25l-358 -323q-6 -6 -16 -15.5t-15.5 -15t-12 -11t-11 -8t-7.5 -2.5q-20 0 -20 21q0 3 11 55.5t29 150t32 189.5q0 14 16 14q26 0 61 -8.5t35 -21.5q0 -4 -8 -36.5t-23.5 -94t-25.5 -105.5h6l287 246q15 10 20 10
q8 0 14.5 -6.5t6.5 -13.5z" />
    <glyph glyph-name="ccaron" unicode="&#x10d;" horiz-adv-x="727" 
d="M748 788q0 -45 -27 -73.5t-66 -28.5t-65.5 25t-26.5 67q0 22 6 47.5t6 28.5q0 23 -36 23q-64 0 -130 -66t-113.5 -162t-77.5 -203.5t-30 -189.5q0 -158 103 -158q75 0 151 76q22 22 47.5 53.5t28.5 34.5q12 12 25 12q10 0 17 -7.5t7 -16.5q0 -6 -15 -33t-41 -64t-50 -61
q-112 -112 -225 -112q-205 0 -205 245q0 70 25.5 160.5t74 184t112 172.5t148 129.5t172.5 50.5q85 0 135 -36.5t50 -97.5zM967 1403q0 -4 -21 -25l-358 -323q-5 -5 -16 -15.5t-16 -14.5t-12 -10t-11 -8.5t-7 -2.5q-20 0 -20 20q0 3 11 55.5t29 150t32 189.5q0 7 5.5 11
t10.5 4q26 0 61 -9t35 -22q0 -4 -8 -36.5t-23.5 -94t-25.5 -105.5h6l287 246q15 10 20 10q8 0 14.5 -6.5t6.5 -13.5z" />
    <glyph glyph-name="Dcaron" unicode="&#x10e;" horiz-adv-x="1546" 
d="M1516 819q0 -163 -42.5 -298.5t-119.5 -233.5t-185.5 -165.5t-241 -100.5t-284.5 -33q-77 0 -202 6t-167 6t-110.5 -2.5t-122 -5t-57.5 -2.5q-25 0 -25 33q0 32 25 32q100 0 136 5.5t58 27.5q36 36 72 158q3 12 17 62.5t35.5 127.5t45.5 158q39 130 113.5 367.5
t83.5 267.5q18 61 18 98q0 19 -10 29q-26 26 -182 26q-25 0 -25 33t25 33q5 0 110.5 -4t141.5 -4q43 0 145 2t133 2q99 0 190 -25.5t168.5 -77t134.5 -125t89.5 -175.5t32.5 -222zM1305 901q0 483 -383 483q-80 0 -113.5 -24.5t-58.5 -89.5q-36 -96 -224 -717
q-114 -379 -114 -444q0 -21 10 -31q18 -18 55.5 -23.5t116.5 -5.5q184 0 322 61.5t222.5 176t125.5 268t41 346.5zM1358 1909q0 -4 -21 -25l-358 -323q-7 -6 -16.5 -15.5l-15 -15t-12 -11t-10.5 -8t-7 -2.5q-21 0 -21 21q0 3 11 55.5t29 150t32 189.5q0 14 16 14
q26 0 61 -8.5t35 -21.5q0 -4 -8 -36.5t-23.5 -94t-25.5 -105.5h6l287 246q15 10 20 10q8 0 14.5 -6.5t6.5 -13.5z" />
    <glyph glyph-name="dcaron" unicode="&#x10f;" horiz-adv-x="1218" 
d="M1128 1448q0 -8 -13 -43.5t-38 -99.5t-41 -107l-309 -870q-39 -115 -39 -123q0 -19 17 -19q16 0 45 28t54 61t46 63l22 31q6 6 13 6q9 0 17.5 -7.5t8.5 -19.5q0 -4 -4 -12q-15 -30 -72 -110t-137.5 -163t-126.5 -83q-23 0 -41 17t-18 44q0 69 98 287l70 155l-10 4
q-28 -52 -69 -114.5t-97 -133t-112.5 -127.5t-118.5 -94.5t-113 -37.5q-69 0 -104.5 42t-35.5 121q0 89 43 198t113 209.5t152.5 185t169 135.5t153.5 51q28 0 50 -11.5t33.5 -28t19.5 -33.5t10 -29l2 -11h4l119 379q18 62 18 106q0 23 -12 35t-54.5 30t-43.5 19q-6 6 -6 19
q0 12 6 18q2 2 32.5 4.5t73.5 7.5t68 11q24 6 51.5 15.5t45 15.5t24.5 6h12q24 0 24 -27zM723 733q0 121 -88 121q-52 0 -130.5 -67.5t-149 -164t-121 -213t-50.5 -204.5q0 -49 23 -74t65 -25q58 0 167.5 123t196.5 275.5t87 228.5zM1358 1300h-6q-5 -8 -14.5 -17.5
t-31 -20.5t-44.5 -11q-30 0 -46 18t-16 48q0 44 41.5 80.5t104.5 36.5q51 0 79.5 -33t28.5 -86q0 -59 -33 -117t-79 -97t-91.5 -63t-72.5 -24q-13 0 -13 12q0 10 13 16q5 2 22.5 11t47.5 29.5t56.5 45t46 61t19.5 73.5q0 13 -3 22.5t-6 12.5z" />
    <glyph glyph-name="Dcroat" unicode="&#x110;" horiz-adv-x="1546" 
d="M1516 819q0 -163 -42.5 -298.5t-119.5 -233.5t-185.5 -165.5t-241 -100.5t-284.5 -33q-77 0 -202 6t-167 6t-110.5 -2.5t-122 -5t-57.5 -2.5q-25 0 -25 33q0 32 25 32q100 0 136 5.5t58 27.5q36 36 72 158q3 12 17 62.5t35.5 127.5t45.5 158l70 225q-29 0 -83.5 -2
t-55.5 -2q-29 0 -29 41q0 22 11.5 35.5t25.5 13.5q1 0 65 -2t90 -2l103 328q18 61 18 98q0 19 -10 29q-26 26 -182 26q-25 0 -25 33t25 33q5 0 110.5 -4t141.5 -4q43 0 145 2t133 2q99 0 190 -25.5t168.5 -77t134.5 -125t89.5 -175.5t32.5 -222zM1305 901q0 483 -383 483
q-80 0 -113.5 -24.5t-58.5 -89.5q-31 -80 -117 -369q37 0 137 5t102 5q23 0 23 -39q0 -25 -13 -42t-30 -17q-2 0 -51.5 1.5t-109 3t-85.5 1.5l-80 -266q-114 -379 -114 -444q0 -21 10 -31q18 -18 55.5 -23.5t116.5 -5.5q184 0 322 61.5t222.5 176t125.5 268t41 346.5z" />
    <glyph glyph-name="dcroat" unicode="&#x111;" horiz-adv-x="1005" 
d="M1128 1448q0 -8 -13 -43.5t-38 -99.5t-41 -107l-10 -31l174 11q23 0 23 -39q0 -25 -13 -42.5t-30 -17.5l-185 6l-268 -757q-39 -115 -39 -123q0 -19 17 -19q16 0 45 28t54 61t46 63l22 31q6 6 13 6q9 0 17.5 -7.5t8.5 -19.5q0 -4 -4 -12q-15 -30 -72 -110t-137.5 -163
t-126.5 -83q-23 0 -41 17t-18 44q0 69 98 287l70 155l-10 4q-28 -52 -69 -114.5t-97 -133t-112.5 -127.5t-118.5 -94.5t-113 -37.5q-69 0 -104.5 42t-35.5 121q0 89 43 198t113 209.5t152.5 185t169 135.5t153.5 51q28 0 50 -11.5t33.5 -28t19.5 -33.5t10 -29l2 -11h4
l86 276l-250 -4q-28 0 -28 41q0 22 11 35.5t25 13.5q1 0 20 -0.5t48.5 -1t63 -1t71 -1t66.5 -0.5l6 21q18 62 18 106q0 23 -12 35t-54.5 30t-43.5 19q-6 6 -6 19q0 12 6 18q2 2 32.5 4.5t73.5 7.5t68 11q24 6 51.5 15.5t45 15.5t24.5 6h12q24 0 24 -27zM723 733
q0 121 -88 121q-52 0 -130.5 -67.5t-149 -164t-121 -213t-50.5 -204.5q0 -49 23 -74t65 -25q58 0 167.5 123t196.5 275.5t87 228.5z" />
    <glyph glyph-name="Emacron" unicode="&#x112;" horiz-adv-x="1341" 
d="M1341 1118q0 -12 -12 -21.5t-24 -9.5t-25 13q-21 21 -96 116t-105 125q-20 20 -55 25.5t-104 5.5h-91q-61 0 -82 -4.5t-36 -19.5q-14 -14 -22 -35.5t-25 -81.5l-109 -404q-2 -8 -2 -12q0 -8 16 -8h72q93 0 153 13.5t107 60.5q25 25 54.5 83t31.5 60q12 8 23 8q10 0 15 -5
t5 -11q0 -8 -9.5 -36.5t-28 -84.5t-34.5 -113q-29 -104 -51 -262q-3 -20 -26 -20t-23 20q0 98 -5 138t-28 63q-17 17 -51.5 26t-60.5 10t-76 1h-80q-22 0 -27 -21l-137 -512q-28 -100 -28 -129q0 -14 8 -22t32 -10.5t103 -2.5h219q44 0 66 1t53.5 7t55.5 20t48 38
q82 82 202.5 180.5t145.5 98.5q33 0 33 -37q0 -9 -12 -21q-156 -156 -156 -293q0 -10 4 -22.5t4 -16.5q0 -22 -38 -22q-9 0 -52.5 1.5t-123.5 3t-179 1.5h-538q-48 0 -108 -1.5t-102 -3t-46 -1.5q-25 0 -25 33q0 32 25 32q91 0 121 4t49 23q11 11 21 38.5t30 100.5l264 983
q29 107 29 127q0 12 -9 21q-12 12 -151 12q-25 0 -25 33t25 33h694q80 0 159.5 3t84.5 3q22 0 22 -19q0 -5 -12 -32t-12 -54q0 -33 17 -84t33.5 -90.5t16.5 -42.5zM1161 1690q0 -23 -11 -38.5t-26 -15.5q-7 0 -45 1t-61 1h-256q-24 0 -52.5 -2t-29.5 -2q-10 0 -20.5 8.5
t-10.5 26.5q0 23 11 38t26 15q6 0 42 -1t65 -1h256q24 0 52 2t29 2q11 0 21 -8t10 -26z" />
    <glyph glyph-name="emacron" unicode="&#x113;" horiz-adv-x="768" 
d="M748 788q0 -82 -55.5 -150t-139 -108t-170 -62t-158.5 -22q-30 -102 -30 -200q0 -67 27 -107.5t85 -40.5q60 0 105.5 23.5t99.5 77.5q16 16 44 50l28 34q12 12 24 12q10 0 17.5 -8t7.5 -17q0 -11 -37.5 -67t-71.5 -90q-67 -67 -133 -100t-145 -33q-98 0 -151.5 60.5
t-53.5 184.5q0 99 47 221t120.5 227.5t175 177t200.5 71.5q76 0 120 -36t44 -98zM625 809q0 30 -15.5 47.5t-42.5 17.5q-84 0 -179 -116t-148 -269q93 12 169.5 48.5t122 83.5t69.5 96t24 92zM911 1178q0 -23 -11 -38.5t-26 -15.5q-7 0 -45 1t-61 1h-256q-24 0 -52.5 -2
t-29.5 -2q-10 0 -20.5 8.5t-10.5 26.5q0 23 11 38t26 15q6 0 42 -1t65 -1h256q24 0 52.5 2t29.5 2q10 0 20 -8t10 -26z" />
    <glyph glyph-name="Ebreve" unicode="&#x114;" horiz-adv-x="1341" 
d="M1278 1817q0 -12 -16 -43.5t-49 -74t-76.5 -81t-106.5 -65.5t-131 -27q-66 0 -115 26t-73.5 67t-35.5 79.5t-11 73.5q0 61 30 61q16 0 19 -10q7 -86 65.5 -135.5t151.5 -49.5q48 0 93 13t76.5 32.5t59 43.5t43 43t27.5 36l12 17q10 10 21 10q6 0 11 -5t5 -11zM1341 1118
q0 -12 -12 -21.5t-24 -9.5t-25 13q-21 21 -96 116t-105 125q-20 20 -55 25.5t-104 5.5h-91q-61 0 -82 -4.5t-36 -19.5q-14 -14 -22 -35.5t-25 -81.5l-109 -404q-2 -8 -2 -12q0 -8 16 -8h72q93 0 153 13.5t107 60.5q25 25 54.5 83t31.5 60q12 8 23 8q10 0 15 -5t5 -11
q0 -8 -9.5 -36.5t-28 -84.5t-34.5 -113q-29 -104 -51 -262q-3 -20 -26 -20t-23 20q0 98 -5 138t-28 63q-17 17 -51.5 26t-60.5 10t-76 1h-80q-22 0 -27 -21l-137 -512q-28 -100 -28 -129q0 -14 8 -22t32 -10.5t103 -2.5h219q44 0 66 1t53.5 7t55.5 20t48 38
q82 82 202.5 180.5t145.5 98.5q33 0 33 -37q0 -9 -12 -21q-156 -156 -156 -293q0 -10 4 -22.5t4 -16.5q0 -22 -38 -22q-9 0 -52.5 1.5t-123.5 3t-179 1.5h-538q-48 0 -108 -1.5t-102 -3t-46 -1.5q-25 0 -25 33q0 32 25 32q91 0 121 4t49 23q11 11 21 38.5t30 100.5l264 983
q29 107 29 127q0 12 -9 21q-12 12 -151 12q-25 0 -25 33t25 33h694q80 0 159.5 3t84.5 3q22 0 22 -19q0 -5 -12 -32t-12 -54q0 -33 17 -84t33.5 -90.5t16.5 -42.5z" />
    <glyph glyph-name="ebreve" unicode="&#x115;" horiz-adv-x="768" 
d="M748 788q0 -82 -55.5 -150t-139 -108t-170 -62t-158.5 -22q-30 -102 -30 -200q0 -67 27 -107.5t85 -40.5q60 0 105.5 23.5t99.5 77.5q16 16 44 50l28 34q12 12 24 12q10 0 17.5 -8t7.5 -17q0 -11 -37.5 -67t-71.5 -90q-67 -67 -133 -100t-145 -33q-98 0 -151.5 60.5
t-53.5 184.5q0 99 47 221t120.5 227.5t175 177t200.5 71.5q76 0 120 -36t44 -98zM625 809q0 30 -15.5 47.5t-42.5 17.5q-84 0 -179 -116t-148 -269q93 12 169.5 48.5t122 83.5t69.5 96t24 92zM1008 1305q0 -12 -16 -43.5t-49 -74t-76.5 -81t-106.5 -65.5t-131 -27
q-54 0 -96.5 18t-68 45t-42.5 61.5t-23 64.5t-6 57q0 61 31 61q15 0 18 -10q7 -86 65.5 -135.5t151.5 -49.5q48 0 93.5 13t76.5 32.5t59 43.5t43.5 43t27.5 36l12 17q10 10 20 10q6 0 11.5 -5t5.5 -11z" />
    <glyph glyph-name="Edotaccent" unicode="&#x116;" horiz-adv-x="1341" 
d="M1014 1747q0 -43 -33 -77t-74 -34t-66.5 27t-25.5 70t33 76.5t74 33.5t66.5 -26.5t25.5 -69.5zM1341 1118q0 -12 -12 -21.5t-24 -9.5t-25 13q-21 21 -96 116t-105 125q-20 20 -55 25.5t-104 5.5h-91q-61 0 -82 -4.5t-36 -19.5q-14 -14 -22 -35.5t-25 -81.5l-109 -404
q-2 -8 -2 -12q0 -8 16 -8h72q93 0 153 13.5t107 60.5q25 25 54.5 83t31.5 60q12 8 23 8q10 0 15 -5t5 -11q0 -8 -9.5 -36.5t-28 -84.5t-34.5 -113q-29 -104 -51 -262q-3 -20 -26 -20t-23 20q0 98 -5 138t-28 63q-17 17 -51.5 26t-60.5 10t-76 1h-80q-22 0 -27 -21l-137 -512
q-28 -100 -28 -129q0 -14 8 -22t32 -10.5t103 -2.5h219q44 0 66 1t53.5 7t55.5 20t48 38q82 82 202.5 180.5t145.5 98.5q33 0 33 -37q0 -9 -12 -21q-156 -156 -156 -293q0 -10 4 -22.5t4 -16.5q0 -22 -38 -22q-9 0 -52.5 1.5t-123.5 3t-179 1.5h-538q-48 0 -108 -1.5
t-102 -3t-46 -1.5q-25 0 -25 33q0 32 25 32q91 0 121 4t49 23q11 11 21 38.5t30 100.5l264 983q29 107 29 127q0 12 -9 21q-12 12 -151 12q-25 0 -25 33t25 33h694q80 0 159.5 3t84.5 3q22 0 22 -19q0 -5 -12 -32t-12 -54q0 -33 17 -84t33.5 -90.5t16.5 -42.5z" />
    <glyph glyph-name="edotaccent" unicode="&#x117;" horiz-adv-x="768" 
d="M748 788q0 -82 -55.5 -150t-139 -108t-170 -62t-158.5 -22q-30 -102 -30 -200q0 -67 27 -107.5t85 -40.5q60 0 105.5 23.5t99.5 77.5q16 16 44 50l28 34q12 12 24 12q10 0 17.5 -8t7.5 -17q0 -11 -37.5 -67t-71.5 -90q-67 -67 -133 -100t-145 -33q-98 0 -151.5 60.5
t-53.5 184.5q0 99 47 221t120.5 227.5t175 177t200.5 71.5q76 0 120 -36t44 -98zM625 809q0 30 -15.5 47.5t-42.5 17.5q-84 0 -179 -116t-148 -269q93 12 169.5 48.5t122 83.5t69.5 96t24 92zM784 1235q0 -43 -32.5 -77t-73.5 -34t-66.5 27t-25.5 70t32.5 76.5t73.5 33.5
t66.5 -26.5t25.5 -69.5z" />
    <glyph glyph-name="Eogonek" unicode="&#x118;" horiz-adv-x="1341" 
d="M1341 1118q0 -12 -12 -21.5t-24 -9.5t-25 13q-21 21 -96 116t-105 125q-20 20 -55 25.5t-104 5.5h-91q-61 0 -82 -4.5t-36 -19.5q-24 -24 -47 -117l-109 -404q-2 -8 -2 -12q0 -8 16 -8h72q93 0 153 13.5t107 60.5q25 25 54.5 83t31.5 60q12 8 23 8q10 0 15 -5t5 -11
q0 -8 -9.5 -36.5t-28 -84.5t-34.5 -113q-29 -104 -51 -262q-3 -20 -26 -20t-23 20q0 98 -5 138t-28 63q-17 17 -51.5 26t-60.5 10t-76 1h-80q-22 0 -27 -21l-137 -512q-28 -100 -28 -129q0 -14 8 -22t32 -10.5t103 -2.5h219q44 0 66 1t53.5 7t55.5 20t48 38
q82 82 202.5 180.5t145.5 98.5q33 0 33 -37q0 -9 -12 -21q-156 -156 -156 -293q0 -10 4 -22.5t4 -16.5q0 -22 -38 -22q-1 0 -90 3t-177 3q-91 -65 -143.5 -146t-52.5 -145q0 -108 118 -108q56 0 115 39q8 -5 8 -19q0 -8 -8.5 -25t-21.5 -30q-98 -98 -226 -98
q-74 0 -113.5 45.5t-39.5 117.5q0 51 31.5 108t81 106t101.5 88.5t101 66.5h-577q-48 0 -108 -1.5t-102 -3t-46 -1.5q-25 0 -25 33q0 32 25 32q91 0 121 4t49 23q11 11 21 38.5t30 100.5l264 983q29 107 29 127q0 12 -9 21q-12 12 -151 12q-25 0 -25 33t25 33h694
q80 0 159.5 3t84.5 3q22 0 22 -19q0 -5 -12 -32t-12 -54q0 -33 17 -84t33.5 -90.5t16.5 -42.5z" />
    <glyph glyph-name="eogonek" unicode="&#x119;" horiz-adv-x="768" 
d="M748 788q0 -82 -55.5 -150t-139 -108t-170 -62t-158.5 -22q-30 -102 -30 -200q0 -67 27 -107.5t85 -40.5q60 0 105.5 23.5t99.5 77.5q16 16 44 50l28 34q12 12 24 12q10 0 17.5 -8t7.5 -17q0 -10 -38.5 -66.5t-72.5 -90.5q-12 -12 -85.5 -77.5t-104.5 -96.5
q-48 -48 -85.5 -110t-37.5 -120q0 -108 119 -108q55 0 114 39q9 -6 9 -19q0 -7 -8.5 -24t-22.5 -31q-98 -98 -225 -98q-74 0 -114 45.5t-40 117.5q0 85 85 186.5t191 172.5q-50 -10 -71 -10q-98 0 -151.5 60.5t-53.5 184.5q0 99 47 221t120.5 227.5t175 177t200.5 71.5
q76 0 120 -36t44 -98zM625 809q0 30 -15.5 47.5t-42.5 17.5q-84 0 -179 -116t-148 -269q93 12 169.5 48.5t122 83.5t69.5 96t24 92z" />
    <glyph glyph-name="Ecaron" unicode="&#x11a;" horiz-adv-x="1341" 
d="M1341 1118q0 -12 -12 -21.5t-24 -9.5t-25 13q-21 21 -96 116t-105 125q-20 20 -55 25.5t-104 5.5h-91q-61 0 -82 -4.5t-36 -19.5q-14 -14 -22 -35.5t-25 -81.5l-109 -404q-2 -8 -2 -12q0 -8 16 -8h72q93 0 153 13.5t107 60.5q25 25 54.5 83t31.5 60q12 8 23 8q10 0 15 -5
t5 -11q0 -8 -9.5 -36.5t-28 -84.5t-34.5 -113q-29 -104 -51 -262q-3 -20 -26 -20t-23 20q0 98 -5 138t-28 63q-17 17 -51.5 26t-60.5 10t-76 1h-80q-22 0 -27 -21l-137 -512q-28 -100 -28 -129q0 -14 8 -22t32 -10.5t103 -2.5h219q44 0 66 1t53.5 7t55.5 20t48 38
q82 82 202.5 180.5t145.5 98.5q33 0 33 -37q0 -9 -12 -21q-156 -156 -156 -293q0 -10 4 -22.5t4 -16.5q0 -22 -38 -22q-9 0 -52.5 1.5t-123.5 3t-179 1.5h-538q-48 0 -108 -1.5t-102 -3t-46 -1.5q-25 0 -25 33q0 32 25 32q91 0 121 4t49 23q11 11 21 38.5t30 100.5l264 983
q29 107 29 127q0 12 -9 21q-12 12 -151 12q-25 0 -25 33t25 33h694q80 0 159.5 3t84.5 3q22 0 22 -19q0 -5 -12 -32t-12 -54q0 -33 17 -84t33.5 -90.5t16.5 -42.5zM1292 1888q0 -4 -20 -24l-359 -324q-6 -6 -16 -15.5t-15.5 -14.5t-12 -10.5t-10.5 -8t-7 -2.5q-21 0 -21 20
q0 3 11 56t29 150.5t32 189.5q0 14 17 14q26 0 61 -9t35 -22q0 -4 -8 -37t-23.5 -92.5t-26.5 -105.5h7l286 245q17 11 21 11q7 0 13.5 -6.5t6.5 -14.5z" />
    <glyph glyph-name="ecaron" unicode="&#x11b;" horiz-adv-x="768" 
d="M748 788q0 -82 -55.5 -150t-139 -108t-170 -62t-158.5 -22q-30 -102 -30 -200q0 -67 27 -107.5t85 -40.5q60 0 105.5 23.5t99.5 77.5q16 16 44 50l28 34q12 12 24 12q10 0 17.5 -8t7.5 -17q0 -11 -37.5 -67t-71.5 -90q-67 -67 -133 -100t-145 -33q-98 0 -151.5 60.5
t-53.5 184.5q0 99 47 221t120.5 227.5t175 177t200.5 71.5q76 0 120 -36t44 -98zM625 809q0 30 -15.5 47.5t-42.5 17.5q-84 0 -179 -116t-148 -269q93 12 169.5 48.5t122 83.5t69.5 96t24 92zM981 1403q0 -5 -20 -25l-359 -323q-6 -6 -16 -15.5t-15.5 -14.5t-12 -10.5
t-10.5 -8t-7 -2.5q-21 0 -21 20q0 3 11 55.5t29 150t32 189.5q0 7 5.5 11t10.5 4q26 0 61.5 -9t35.5 -22q0 -4 -8 -37t-23.5 -93.5t-26.5 -105.5h6l287 246q15 10 21 10q7 0 13.5 -6.5t6.5 -13.5z" />
    <glyph glyph-name="Gcircumflex" unicode="&#x11c;" 
d="M1475 541q0 -33 -31 -33q-66 0 -94 -6t-45 -23q-21 -21 -48 -143l-61 -266q-8 -33 -31 -33q-18 0 -30 12q-39 39 -72 39q-15 0 -46 -17t-66.5 -37t-101.5 -37t-142 -17q-113 0 -215.5 47t-176.5 127t-117.5 189.5t-43.5 229.5q0 135 33 265.5t97 242.5t152 197.5
t205.5 134.5t249.5 49q76 0 142 -14.5t102 -32.5t69.5 -32.5t52.5 -14.5q25 0 64 39q27 27 41 27t23.5 -9.5t9.5 -19.5q0 -1 -9.5 -37.5t-19.5 -121t-10 -202.5v-20q0 -23 -8 -32t-27 -9q-17 0 -27 10q-8 8 -31.5 67.5t-61 133t-77.5 113.5q-98 98 -233 98
q-102 0 -189.5 -55t-147 -142t-102 -196t-62 -216t-19.5 -202q0 -113 19 -205.5t59 -168t111 -117.5t167 -42q196 0 295 99q22 22 33 78l22 98q19 84 19 123q0 13 -11 24q-15 15 -96 15q-24 0 -24 32q0 33 24 33q5 0 61 -1t87 -1q84 0 191.5 6t115.5 6q31 0 31 -32z
M1192 1925q0 -3 -11 -55.5t-29 -150t-32 -189.5q0 -14 -16 -14q-26 0 -61 8.5t-35 21.5q0 4 8 36.5t23.5 94t25.5 105.5h-6l-287 -246q-10 -10 -20 -10q-8 0 -14.5 6.5t-6.5 13.5q0 4 21 25l358 323q11 10 26 24.5t23 21t12 6.5q21 0 21 -21z" />
    <glyph glyph-name="gcircumflex" unicode="&#x11d;" horiz-adv-x="858" 
d="M909 844q0 -41 -26.5 -67.5t-67.5 -26.5q-33 0 -98.5 40.5t-91.5 47.5l-2 -4q88 -88 88 -199q0 -158 -107 -275.5t-246 -117.5q-32 0 -87 9t-76 9q-37 0 -58.5 -23t-21.5 -57q0 -48 26 -74q28 -28 85.5 -45t124 -26t134.5 -19.5t130.5 -32.5t97.5 -57q55 -55 55 -151
q0 -84 -42 -151.5t-111.5 -108.5t-153.5 -62.5t-174 -21.5q-74 0 -144 13t-131 40t-98 73.5t-37 106.5q0 45 25.5 88t67.5 75.5t88 56.5t94 40v4q-28 15 -46.5 26t-40.5 30.5t-34.5 40t-21.5 51t-9 67.5q0 68 52 114t122 46l59 -6v6q-120 77 -120 209q0 103 46 196.5
t129.5 153.5t182.5 60q44 0 89 -17.5t78.5 -35t49.5 -17.5q17 0 29 12q2 2 14 17t23 27t28 23t33 11q40 0 67 -28.5t27 -69.5zM573 666q0 93 -27 149.5t-85 56.5q-51 0 -93 -34.5t-67.5 -89.5t-39 -118.5t-13.5 -127.5q0 -94 27 -152.5t87 -58.5q54 0 96 35t66 91.5
t36.5 120t12.5 128.5zM655 -291q0 53 -35 93.5t-95 64.5t-134 35.5t-158 11.5q-79 0 -137.5 -70.5t-58.5 -150.5q0 -96 62.5 -151.5t176.5 -55.5q181 0 280 58t99 165zM752 1413q0 -3 -11 -55.5t-29 -150t-32 -189.5q0 -14 -16 -14q-26 0 -61.5 8.5t-35.5 21.5q0 4 8 37
t23.5 93.5t26.5 105.5h-7l-286 -246q-10 -10 -21 -10q-7 0 -13.5 6t-6.5 14q0 5 20 25l359 323q11 10 26 24.5t23 21t12 6.5q21 0 21 -21z" />
    <glyph glyph-name="Gbreve" unicode="&#x11e;" 
d="M1305 1845q0 -12 -16 -43.5t-49 -74t-76.5 -81t-106.5 -65.5t-131 -27q-54 0 -96.5 18t-68 45t-42.5 61.5t-23 64.5t-6 57q0 62 31 62q14 0 18 -11q7 -86 65.5 -135t151.5 -49q48 0 93.5 13t76.5 32t59 43.5t43.5 43.5t27.5 35l12 17q11 11 20 11q6 0 11.5 -5.5
t5.5 -11.5zM1475 541q0 -33 -31 -33q-66 0 -94 -6t-45 -23q-21 -21 -48 -143l-61 -266q-8 -33 -31 -33q-18 0 -30 12q-39 39 -72 39q-15 0 -46 -17t-66.5 -37t-101.5 -37t-142 -17q-113 0 -215.5 47t-176.5 127t-117.5 189.5t-43.5 229.5q0 135 33 265.5t97 242.5t152 197.5
t205.5 134.5t249.5 49q76 0 142 -14.5t102 -32.5t69.5 -32.5t52.5 -14.5q25 0 64 39q27 27 41 27t23.5 -9.5t9.5 -19.5q0 -1 -9.5 -37.5t-19.5 -121t-10 -202.5v-20q0 -23 -8 -32t-27 -9q-17 0 -27 10q-8 8 -31.5 67.5t-61 133t-77.5 113.5q-98 98 -233 98
q-102 0 -189.5 -55t-147 -142t-102 -196t-62 -216t-19.5 -202q0 -113 19 -205.5t59 -168t111 -117.5t167 -42q196 0 295 99q22 22 33 78l22 98q19 84 19 123q0 13 -11 24q-15 15 -96 15q-24 0 -24 32q0 33 24 33q5 0 61 -1t87 -1q84 0 191.5 6t115.5 6q31 0 31 -32z" />
    <glyph glyph-name="gbreve" unicode="&#x11f;" horiz-adv-x="858" 
d="M844 1305q0 -12 -16 -43.5t-49 -74t-76.5 -81t-106.5 -65.5t-131 -27q-54 0 -96.5 18t-68 45t-42.5 61.5t-23 64.5t-6 57q0 61 31 61q16 0 19 -10q7 -86 65.5 -135.5t151.5 -49.5q48 0 93 13t76.5 32.5t59 43.5t43 43t27.5 36l12 17q10 10 20 10q6 0 11.5 -5t5.5 -11z
M909 844q0 -41 -26.5 -67.5t-67.5 -26.5q-33 0 -98.5 40.5t-91.5 47.5l-2 -4q88 -88 88 -199q0 -158 -107 -275.5t-246 -117.5q-32 0 -87 9t-76 9q-37 0 -58.5 -23t-21.5 -57q0 -48 26 -74q28 -28 85.5 -45t124 -26t134.5 -19.5t130.5 -32.5t97.5 -57q55 -55 55 -151
q0 -84 -42 -151.5t-111.5 -108.5t-153.5 -62.5t-174 -21.5q-74 0 -144 13t-131 40t-98 73.5t-37 106.5q0 45 25.5 88t67.5 75.5t88 56.5t94 40v4q-28 15 -46.5 26t-40.5 30.5t-34.5 40t-21.5 51t-9 67.5q0 68 52 114t122 46l59 -6v6q-120 77 -120 209q0 103 46 196.5
t129.5 153.5t182.5 60q44 0 89 -17.5t78.5 -35t49.5 -17.5q17 0 29 12q2 2 14 17t23 27t28 23t33 11q40 0 67 -28.5t27 -69.5zM573 666q0 93 -27 149.5t-85 56.5q-51 0 -93 -34.5t-67.5 -89.5t-39 -118.5t-13.5 -127.5q0 -94 27 -152.5t87 -58.5q54 0 96 35t66 91.5
t36.5 120t12.5 128.5zM655 -291q0 53 -35 93.5t-95 64.5t-134 35.5t-158 11.5q-79 0 -137.5 -70.5t-58.5 -150.5q0 -96 62.5 -151.5t176.5 -55.5q181 0 280 58t99 165z" />
    <glyph glyph-name="Gdotaccent" unicode="&#x120;" 
d="M1475 541q0 -33 -31 -33q-66 0 -94 -6t-45 -23q-21 -21 -48 -143l-61 -266q-8 -33 -31 -33q-18 0 -30 12q-39 39 -72 39q-15 0 -46 -17t-66.5 -37t-101.5 -37t-142 -17q-113 0 -215.5 47t-176.5 127t-117.5 189.5t-43.5 229.5q0 135 33 265.5t97 242.5t152 197.5
t205.5 134.5t249.5 49q76 0 142 -14.5t102 -32.5t69.5 -32.5t52.5 -14.5q25 0 64 39q27 27 41 27t23.5 -9.5t9.5 -19.5q0 -1 -9.5 -37.5t-19.5 -121t-10 -202.5v-20q0 -23 -8 -32t-27 -9q-17 0 -27 10q-8 8 -31.5 67.5t-61 133t-77.5 113.5q-98 98 -233 98
q-102 0 -189.5 -55t-147 -142t-102 -196t-62 -216t-19.5 -202q0 -113 19 -205.5t59 -168t111 -117.5t167 -42q196 0 295 99q22 22 33 78l22 98q19 84 19 123q0 13 -11 24q-15 15 -96 15q-24 0 -24 32q0 33 24 33q5 0 61 -1t87 -1q84 0 191.5 6t115.5 6q31 0 31 -32z
M1081 1776q0 -43 -32.5 -77t-73.5 -34t-66.5 26.5t-25.5 69.5t32.5 77t73.5 34t66.5 -26.5t25.5 -69.5z" />
    <glyph glyph-name="gdotaccent" unicode="&#x121;" horiz-adv-x="858" 
d="M621 1235q0 -43 -33 -77t-74 -34t-66.5 27t-25.5 70t32.5 76.5t73.5 33.5t67 -26.5t26 -69.5zM909 844q0 -41 -26.5 -67.5t-67.5 -26.5q-33 0 -98.5 40.5t-91.5 47.5l-2 -4q88 -88 88 -199q0 -158 -107 -275.5t-246 -117.5q-32 0 -87 9t-76 9q-37 0 -58.5 -23t-21.5 -57
q0 -48 26 -74q28 -28 85.5 -45t124 -26t134.5 -19.5t130.5 -32.5t97.5 -57q55 -55 55 -151q0 -84 -42 -151.5t-111.5 -108.5t-153.5 -62.5t-174 -21.5q-74 0 -144 13t-131 40t-98 73.5t-37 106.5q0 45 25.5 88t67.5 75.5t88 56.5t94 40v4q-28 15 -46.5 26t-40.5 30.5
t-34.5 40t-21.5 51t-9 67.5q0 68 52 114t122 46l59 -6v6q-120 77 -120 209q0 103 46 196.5t129.5 153.5t182.5 60q44 0 89 -17.5t78.5 -35t49.5 -17.5q17 0 29 12q2 2 14 17t23 27t28 23t33 11q40 0 67 -28.5t27 -69.5zM573 666q0 93 -27 149.5t-85 56.5q-51 0 -93 -34.5
t-67.5 -89.5t-39 -118.5t-13.5 -127.5q0 -94 27 -152.5t87 -58.5q54 0 96 35t66 91.5t36.5 120t12.5 128.5zM655 -291q0 53 -35 93.5t-95 64.5t-134 35.5t-158 11.5q-79 0 -137.5 -70.5t-58.5 -150.5q0 -96 62.5 -151.5t176.5 -55.5q181 0 280 58t99 165z" />
    <glyph glyph-name="Gcommaaccent" unicode="&#x122;" 
d="M1475 541q0 -33 -31 -33q-66 0 -94 -6t-45 -23q-21 -21 -48 -143l-61 -266q-8 -33 -31 -33q-18 0 -30 12q-39 39 -72 39q-15 0 -46 -17t-66.5 -37t-101.5 -37t-142 -17q-113 0 -215.5 47t-176.5 127t-117.5 189.5t-43.5 229.5q0 135 33 265.5t97 242.5t152 197.5
t205.5 134.5t249.5 49q76 0 142 -14.5t102 -32.5t69.5 -32.5t52.5 -14.5q25 0 64 39q27 27 41 27t23.5 -9.5t9.5 -19.5q0 -1 -9.5 -37.5t-19.5 -121t-10 -202.5v-20q0 -23 -8 -32t-27 -9q-17 0 -27 10q-8 8 -31.5 67.5t-61 133t-77.5 113.5q-98 98 -233 98
q-102 0 -189.5 -55t-147 -142t-102 -196t-62 -216t-19.5 -202q0 -113 19 -205.5t59 -168t111 -117.5t167 -42q196 0 295 99q22 22 33 78l22 98q19 84 19 123q0 13 -11 24q-15 15 -96 15q-24 0 -24 32q0 33 24 33q5 0 61 -1t87 -1q84 0 191.5 6t115.5 6q31 0 31 -32z
M719 -283h-6q-5 -8 -14.5 -17.5t-31 -20.5t-44.5 -11q-30 0 -46 18t-16 48q0 44 41.5 80t104.5 36q51 0 79.5 -32.5t28.5 -85.5q0 -59 -33 -117t-79 -97t-91.5 -63t-72.5 -24q-13 0 -13 12q0 9 13 16q5 2 22.5 10.5t47.5 29t56.5 45t46 61t19.5 73.5q0 13 -3 22.5t-6 13.5z
" />
    <glyph glyph-name="gcommaaccent" unicode="&#x123;" horiz-adv-x="858" 
d="M909 844q0 -41 -26.5 -67.5t-67.5 -26.5q-33 0 -98.5 40.5t-91.5 47.5l-2 -4q88 -88 88 -199q0 -158 -107 -275.5t-246 -117.5q-32 0 -87 9t-76 9q-37 0 -58.5 -23t-21.5 -57q0 -48 26 -74q28 -28 85.5 -45t124 -26t134.5 -19.5t130.5 -32.5t97.5 -57q55 -55 55 -151
q0 -84 -42 -151.5t-111.5 -108.5t-153.5 -62.5t-174 -21.5q-74 0 -144 13t-131 40t-98 73.5t-37 106.5q0 45 25.5 88t67.5 75.5t88 56.5t94 40v4q-28 15 -46.5 26t-40.5 30.5t-34.5 40t-21.5 51t-9 67.5q0 68 52 114t122 46l59 -6v6q-120 77 -120 209q0 103 46 196.5
t129.5 153.5t182.5 60q44 0 89 -17.5t78.5 -35t49.5 -17.5q17 0 29 12q2 2 14 17t23 27t28 23t33 11q40 0 67 -28.5t27 -69.5zM573 666q0 93 -27 149.5t-85 56.5q-51 0 -93 -34.5t-67.5 -89.5t-39 -118.5t-13.5 -127.5q0 -94 27 -152.5t87 -58.5q54 0 96 35t66 91.5
t36.5 120t12.5 128.5zM655 -291q0 53 -35 93.5t-95 64.5t-134 35.5t-158 11.5q-79 0 -137.5 -70.5t-58.5 -150.5q0 -96 62.5 -151.5t176.5 -55.5q181 0 280 58t99 165zM639 1370q0 -5 -6 -8q-31 -7 -59 -19t-55.5 -33t-43.5 -54.5t-16 -75.5q0 -8 1.5 -15t3.5 -9l1 -3h4
q2 4 6 10t20 15.5t37 9.5q33 0 56.5 -21t23.5 -57q0 -40 -30.5 -68t-73.5 -28q-62 0 -96.5 44.5t-34.5 102.5q0 52 25.5 96.5t64 72.5t80.5 43.5t78 15.5q14 0 14 -19z" />
    <glyph glyph-name="Hcircumflex" unicode="&#x124;" horiz-adv-x="1587" 
d="M1731 1413q0 -33 -25 -33q-119 0 -147 -28q-21 -21 -48 -144l-227 -983q-20 -95 -20 -116q0 -23 8 -31q13 -13 38 -16t95 -3q25 0 25 -32q0 -33 -25 -33q-15 0 -112.5 3t-149.5 3q-49 0 -141 -3t-101 -3q-24 0 -24 33q0 32 24 32q65 0 98.5 4.5t49.5 20.5q13 13 22 41
t25 100l106 461q4 20 4 27q0 8 -12 8h-666q-20 0 -26 -29l-109 -467q-20 -95 -20 -116q0 -23 8 -31q12 -12 37.5 -15.5t89.5 -3.5q24 0 24 -32q0 -33 -24 -33q-18 0 -110.5 3t-145.5 3q-59 0 -150 -3t-98 -3q-24 0 -24 33q0 32 24 32q69 0 103.5 4.5t50.5 20.5q20 20 47 141
l227 983q23 101 23 123q0 14 -11 25q-18 18 -125 18q-24 0 -24 33t24 33q15 0 97.5 -3t132.5 -3q57 0 155 4t111 4q25 0 25 -33t-25 -33q-74 0 -101.5 -5t-45.5 -23q-13 -13 -21.5 -40.5t-25.5 -99.5l-89 -381q-4 -24 -4 -30q0 -11 21 -11h651q18 0 22.5 3.5t8.5 21.5
l92 397q23 101 23 123q0 14 -11 25q-14 14 -125 14q-24 0 -24 33t24 33q5 0 74 -1t90 -1q84 0 204 6t128 6q25 0 25 -33zM1294 1898q0 -3 -11 -55.5t-28.5 -150t-31.5 -189.5q0 -14 -17 -14q-26 0 -61 9t-35 22q0 4 8 36.5t23 93.5t26 105h-6l-287 -246q-10 -10 -20 -10
q-7 0 -13.5 6.5t-6.5 14.5q0 4 20 24l358 324q10 9 26 24t23.5 21t12.5 6q20 0 20 -21z" />
    <glyph glyph-name="hcircumflex" unicode="&#x125;" horiz-adv-x="983" 
d="M932 778q0 -106 -57 -249t-137 -262t-169 -203t-149 -84q-42 0 -67 23.5t-25 62.5q0 40 22 64t60 24q18 0 59.5 -25t62.5 -25q16 0 31 15q89 89 152 265t63 312q0 51 -12.5 77t-48.5 26q-61 0 -176 -118t-207.5 -252t-108.5 -193l-61 -226q-6 -30 -92 -30q-36 0 -49 10.5
t-13 29.5q0 8 10 41l355 1127q20 64 20 106q0 25 -10 35q-14 14 -37 24.5t-41 16.5t-20 8q-6 6 -6 19q0 10 6 16q2 2 31.5 5t72 8.5t66.5 11.5t51.5 15.5t44 15.5t20.5 6h11q26 0 26 -27q0 -6 -14 -44.5t-36 -98t-34 -97.5l-268 -800l6 -9q53 84 96 146.5t103.5 138t113 124
t114.5 81.5t118 33q123 0 123 -144zM801 1919q0 -3 -11 -55.5t-29 -150t-32 -189.5q0 -7 -5.5 -11t-10.5 -4q-26 0 -61.5 9t-35.5 22q0 4 8 37t23.5 93.5t26.5 105.5h-6l-287 -246q-10 -10 -21 -10q-8 0 -14 6t-6 14q0 5 20 25l359 323q11 9 26 24t22.5 21t12.5 6
q21 0 21 -20z" />
    <glyph glyph-name="Itilde" unicode="&#x128;" horiz-adv-x="727" 
d="M870 1413q0 -33 -28 -33q-67 0 -98 -5.5t-48 -22.5q-18 -18 -47 -144l-248 -983q-22 -90 -22 -119q0 -18 10 -28q12 -12 43 -15.5t111 -3.5q24 0 24 -32q0 -33 -24 -33q-25 0 -124 3t-159 3q-57 0 -150 -3t-106 -3q-24 0 -24 33q0 32 24 32q72 0 108 5.5t52 21.5
q15 15 43 116q4 15 6 23l248 983q22 91 22 123q0 15 -10 25t-39 12t-102 2q-25 0 -25 33t25 33q19 0 85.5 -1t94.5 -1q84 0 205 6t129 6q24 0 24 -33zM965 1837q0 -61 -18 -107.5t-46.5 -70.5t-56 -35.5t-53.5 -11.5q-74 0 -161.5 5t-146.5 5q-67 0 -67 -31q0 -6 11 -20.5
t11 -28.5q0 -12 -12 -22.5t-29 -10.5q-15 0 -26 13t-11 28q0 80 47 134.5t97 54.5q28 0 121.5 -1t171.5 -1q30 0 52.5 4.5t33.5 10.5t18 14.5t8.5 14t1.5 11.5q0 1 -12 17.5t-12 31.5q0 13 11.5 24t29.5 11q14 0 25.5 -10t11.5 -29z" />
    <glyph glyph-name="itilde" unicode="&#x129;" horiz-adv-x="563" 
d="M492 840q0 -16 -22.5 -80.5t-49.5 -124.5l-160 -365q-37 -81 -37 -123q0 -20 23 -20q11 0 33.5 17t47 42t46 49.5t38.5 44.5l17 19q6 6 16 6q8 0 17.5 -8t9.5 -18q0 -7 -2 -11q-6 -12 -39 -54t-82.5 -96.5t-112 -96t-112.5 -41.5q-31 0 -56.5 18.5t-25.5 54.5
q0 21 8 49.5t15.5 47t27 60.5t25.5 56l176 404q24 53 24 84q0 14 -14 14q-19 0 -48 -25.5t-52 -55t-44.5 -58.5t-23.5 -31q-6 -6 -12 -6q-9 0 -19 7t-10 19q0 5 4 13q13 27 63.5 93t122 132t115.5 66q39 0 66 -25t27 -57zM795 1378q0 -61 -18 -107.5t-46.5 -70.5t-56 -35.5
t-53.5 -11.5q-74 0 -161.5 5t-146.5 5q-34 0 -50.5 -6t-16.5 -24q0 -6 11 -21t11 -29q0 -12 -12 -22t-29 -10q-15 0 -26 13t-11 28q0 79 47 133.5t97 54.5q28 0 121.5 -1t171.5 -1q30 0 52.5 4.5t33.5 10.5t18 14.5t8.5 14t1.5 11.5q0 1 -12 17.5t-12 31.5q0 13 11.5 24
t29.5 11q14 0 25.5 -10t11.5 -29z" />
    <glyph glyph-name="Imacron" unicode="&#x12a;" horiz-adv-x="727" 
d="M870 1413q0 -33 -28 -33q-67 0 -98 -5.5t-48 -22.5q-18 -18 -47 -144l-248 -983q-22 -90 -22 -119q0 -18 10 -28q12 -12 43 -15.5t111 -3.5q24 0 24 -32q0 -33 -24 -33q-25 0 -124 3t-159 3q-57 0 -150 -3t-106 -3q-24 0 -24 33q0 32 24 32q72 0 108 5.5t52 21.5
q15 15 43 116q4 15 6 23l248 983q22 91 22 123q0 15 -10 25t-39 12t-102 2q-25 0 -25 33t25 33q19 0 85.5 -1t94.5 -1q84 0 205 6t129 6q24 0 24 -33zM903 1663q0 -23 -11 -38t-26 -15q-7 0 -45 1t-61 1h-256q-24 0 -52.5 -2t-29.5 -2q-11 0 -21 8t-10 26q0 23 11 38.5
t26 15.5q6 0 42 -1t65 -1h256q24 0 52 2t29 2q10 0 20.5 -8.5t10.5 -26.5z" />
    <glyph glyph-name="imacron" unicode="&#x12b;" horiz-adv-x="563" 
d="M492 840q0 -16 -22.5 -80.5t-49.5 -124.5l-160 -365q-37 -81 -37 -123q0 -20 23 -20q11 0 33.5 17t47 42t46 49.5t38.5 44.5l17 19q6 6 16 6q8 0 17.5 -8t9.5 -18q0 -7 -2 -11q-6 -12 -39 -54t-82.5 -96.5t-112 -96t-112.5 -41.5q-31 0 -56.5 18.5t-25.5 54.5
q0 21 8 49.5t15.5 47t27 60.5t25.5 56l176 404q24 53 24 84q0 14 -14 14q-19 0 -48 -25.5t-52 -55t-44.5 -58.5t-23.5 -31q-6 -6 -12 -6q-9 0 -19 7t-10 19q0 5 4 13q13 27 63.5 93t122 132t115.5 66q39 0 66 -25t27 -57zM741 1204q0 -23 -10.5 -38t-25.5 -15q-7 0 -45.5 1
t-61.5 1h-256q-24 0 -52.5 -2t-29.5 -2q-10 0 -20.5 8.5t-10.5 26.5q0 23 11 38t26 15q6 0 42 -1t65 -1h256q24 0 52.5 2t29.5 2q10 0 20 -8.5t10 -26.5z" />
    <glyph glyph-name="Ibreve" unicode="&#x12c;" horiz-adv-x="727" 
d="M1008 1817q0 -12 -16 -43.5t-49 -74t-76.5 -81t-106.5 -65.5t-131 -27q-54 0 -96.5 18t-68 45t-42.5 61.5t-23 64.5t-6 57q0 61 31 61q15 0 18 -10q7 -86 65.5 -135.5t151.5 -49.5q48 0 93.5 13t76.5 32.5t59 43.5t43.5 43t27.5 36l12 17q10 10 20 10q6 0 11.5 -5
t5.5 -11zM870 1413q0 -33 -28 -33q-67 0 -98 -5.5t-48 -22.5q-18 -18 -47 -144l-248 -983q-22 -90 -22 -119q0 -18 10 -28q12 -12 43 -15.5t111 -3.5q24 0 24 -32q0 -33 -24 -33q-25 0 -124 3t-159 3q-57 0 -150 -3t-106 -3q-24 0 -24 33q0 32 24 32q72 0 108 5.5t52 21.5
q15 15 43 116q4 15 6 23l248 983q22 91 22 123q0 15 -10 25t-39 12t-102 2q-25 0 -25 33t25 33q19 0 85.5 -1t94.5 -1q84 0 205 6t129 6q24 0 24 -33z" />
    <glyph glyph-name="ibreve" unicode="&#x12d;" horiz-adv-x="563" 
d="M492 840q0 -16 -22.5 -80.5t-49.5 -124.5l-160 -365q-37 -81 -37 -123q0 -20 23 -20q11 0 33.5 17t47 42t46 49.5t38.5 44.5l17 19q6 6 16 6q8 0 17.5 -8t9.5 -18q0 -7 -2 -11q-6 -12 -39 -54t-82.5 -96.5t-112 -96t-112.5 -41.5q-31 0 -56.5 18.5t-25.5 54.5
q0 21 8 49.5t15.5 47t27 60.5t25.5 56l176 404q24 53 24 84q0 14 -14 14q-19 0 -48 -25.5t-52 -55t-44.5 -58.5t-23.5 -31q-6 -6 -12 -6q-9 0 -19 7t-10 19q0 5 4 13q13 27 63.5 93t122 132t115.5 66q39 0 66 -25t27 -57zM838 1331q0 -12 -16 -43.5t-49 -74t-76.5 -81
t-106.5 -65.5t-131 -27q-54 0 -96.5 18t-68 45t-42.5 61.5t-23 64.5t-6 57q0 62 31 62q14 0 18 -11q7 -86 65.5 -135t151.5 -49q48 0 93.5 13t76.5 32t59 43.5t43.5 43.5t27.5 35l12 17q11 11 20 11q6 0 11.5 -5.5t5.5 -11.5z" />
    <glyph glyph-name="Iogonek" unicode="&#x12e;" horiz-adv-x="727" 
d="M870 1413q0 -33 -28 -33q-67 0 -98 -5.5t-48 -22.5q-3 -3 -6 -8t-6 -13t-5.5 -15t-6.5 -20.5t-6.5 -24t-7.5 -29.5t-9 -34l-248 -983q-22 -90 -22 -119q0 -18 10 -28q12 -12 43 -15.5t111 -3.5q24 0 24 -32q0 -33 -24 -33q-17 0 -80.5 2t-100.5 2q-90 -66 -142 -145.5
t-52 -143.5q0 -108 119 -108q55 0 114 39q9 -6 9 -19q0 -7 -8.5 -24t-22.5 -31q-98 -98 -225 -98q-74 0 -114 45.5t-40 117.5q0 51 31.5 108t81 106t101 88.5t99.5 66.5h-53q-61 0 -152.5 -3t-103.5 -3q-24 0 -24 33q0 32 24 32q72 0 108 5.5t52 21.5q18 18 49 139l248 983
q22 91 22 123q0 15 -10 25t-39 12t-102 2q-25 0 -25 33t25 33q19 0 85.5 -1t94.5 -1q84 0 205 6t129 6q24 0 24 -33z" />
    <glyph glyph-name="iogonek" unicode="&#x12f;" horiz-adv-x="563" 
d="M553 1296q0 -43 -33 -76.5t-74 -33.5t-66.5 26.5t-25.5 69.5t33 77t74 34t66.5 -27t25.5 -70zM492 840q0 -16 -22.5 -80.5t-49.5 -124.5l-160 -365q-37 -81 -37 -123q0 -20 23 -20q11 0 33.5 17t47 42t46 49.5t38.5 44.5l17 19q6 6 16 6q8 0 17.5 -8t9.5 -18q0 -7 -2 -11
q-6 -11 -40.5 -54.5t-93.5 -105t-110 -98.5q-81 -59 -126.5 -141.5t-45.5 -155.5q0 -52 31.5 -82t91.5 -30q56 0 115 39q8 -5 8 -19q0 -7 -8.5 -24t-22.5 -31q-98 -98 -225 -98q-73 0 -113.5 50.5t-40.5 123.5q0 89 69.5 181t174.5 157q-39 0 -65.5 18t-26.5 55q0 21 8 49.5
t15.5 47t27 60.5t25.5 56l174 400q26 58 26 88q0 14 -14 14q-19 0 -48 -25.5t-52 -55t-44.5 -58.5t-23.5 -31q-6 -6 -12 -6q-9 0 -19 7t-10 19q0 5 4 13q13 27 63.5 93t122 132t115.5 66q39 0 66 -25t27 -57z" />
    <glyph glyph-name="Idotaccent" unicode="&#x130;" horiz-adv-x="727" 
d="M784 1747q0 -43 -32.5 -77t-73.5 -34t-66.5 27t-25.5 70t32.5 76.5t73.5 33.5t66.5 -26.5t25.5 -69.5zM870 1413q0 -33 -28 -33q-67 0 -98 -5.5t-48 -22.5q-18 -18 -47 -144l-248 -983q-22 -90 -22 -119q0 -18 10 -28q12 -12 43 -15.5t111 -3.5q24 0 24 -32
q0 -33 -24 -33q-25 0 -124 3t-159 3q-57 0 -150 -3t-106 -3q-24 0 -24 33q0 32 24 32q72 0 108 5.5t52 21.5q15 15 43 116q4 15 6 23l248 983q22 91 22 123q0 15 -10 25t-39 12t-102 2q-25 0 -25 33t25 33q19 0 85.5 -1t94.5 -1q84 0 205 6t129 6q24 0 24 -33z" />
    <glyph glyph-name="dotlessi" unicode="&#x131;" horiz-adv-x="563" 
d="M492 840q0 -16 -22.5 -80.5t-49.5 -124.5l-160 -365q-37 -81 -37 -123q0 -20 23 -20q11 0 33.5 17t47 42t46 49.5t38.5 44.5l17 19q6 6 16 6q8 0 17.5 -8t9.5 -18q0 -7 -2 -11q-6 -12 -39 -54t-82.5 -96.5t-112 -96t-112.5 -41.5q-31 0 -56.5 18.5t-25.5 54.5
q0 21 8 49.5t15.5 47t27 60.5t25.5 56l176 404q24 53 24 84q0 14 -14 14q-19 0 -48 -25.5t-52 -55t-44.5 -58.5t-23.5 -31q-6 -6 -12 -6q-9 0 -19 7t-10 19q0 5 4 13q13 27 63.5 93t122 132t115.5 66q39 0 66 -25t27 -57z" />
    <glyph glyph-name="IJ" unicode="&#x132;" horiz-adv-x="1884" 
d="M870 1413q0 -33 -28 -33q-67 0 -98 -5.5t-48 -22.5q-18 -18 -47 -144l-248 -983q-22 -90 -22 -119q0 -18 10 -28q12 -12 43 -15.5t111 -3.5q24 0 24 -32q0 -33 -24 -33q-25 0 -124 3t-159 3q-57 0 -150 -3t-106 -3q-24 0 -24 33q0 32 24 32q72 0 108 5.5t52 21.5
q15 15 43 116q4 15 6 23l248 983q22 91 22 123q0 15 -10 25t-39 12t-102 2q-25 0 -25 33t25 33q19 0 85.5 -1t94.5 -1q84 0 205 6t129 6q24 0 24 -33zM1915 1208q0 -41 -28.5 -68.5t-69.5 -27.5q-12 0 -32.5 7t-27.5 7q-8 0 -16 -8q-28 -28 -66.5 -164.5t-62.5 -287.5
q19 0 109 7t96 7q24 0 24 -37q0 -47 -35 -47q-4 0 -92.5 4t-111.5 4q-58 -366 -166 -636t-238 -400q-137 -137 -311 -137q-109 0 -185.5 70t-76.5 171q0 52 32.5 87.5t81.5 35.5q45 0 76 -29t31 -69q0 -37 -18.5 -65t-37 -47.5t-18.5 -35.5q0 -27 38.5 -44t92.5 -17
q121 0 201 80q62 62 104 169.5t59.5 207t43 250t49.5 243.5q12 47 25 88.5t19 59.5l7 18q-33 0 -126.5 -4t-94.5 -4q-21 0 -21 35q0 41 23 41q7 0 94 -4t146 -4q124 292 233 401l-2 4q-67 7 -118.5 28.5t-82 49t-55 59t-44.5 61.5t-43 54.5t-58.5 39.5t-83.5 15
q-98 0 -155.5 -57t-57.5 -131q0 -84 51 -84q2 0 32 16.5t48 16.5q47 0 76.5 -29t29.5 -78q0 -47 -35 -77.5t-88 -30.5q-73 0 -120.5 62t-47.5 157q0 131 88 226t220 95q73 0 127.5 -18t84 -45.5t52 -64t33.5 -69.5t27 -66.5t34 -51.5q33 -33 94 -33q17 78 52.5 134.5
t93.5 56.5q41 0 69.5 -28t28.5 -69z" />
    <glyph glyph-name="ij" unicode="&#x133;" horiz-adv-x="1159" 
d="M553 1296q0 -43 -33 -76.5t-74 -33.5t-66.5 26.5t-25.5 69.5t33 77t74 34t66.5 -27t25.5 -70zM492 840q0 -16 -22.5 -80.5t-49.5 -124.5l-160 -365q-37 -81 -37 -123q0 -20 23 -20q11 0 33.5 17t47 42t46 49.5t38.5 44.5l17 19q6 6 16 6q8 0 17.5 -8t9.5 -18q0 -7 -2 -11
q-6 -12 -39 -54t-82.5 -96.5t-112 -96t-112.5 -41.5q-31 0 -56.5 18.5t-25.5 54.5q0 21 8 49.5t15.5 47t27 60.5t25.5 56l174 400q26 58 26 88q0 14 -14 14q-19 0 -48 -25.5t-52 -55t-44.5 -58.5t-23.5 -31q-6 -6 -12 -6q-9 0 -19 7t-10 19q0 5 4 13q13 27 63.5 93t122 132
t115.5 66q39 0 66 -25t27 -57zM1210 1296q0 -43 -32.5 -76.5t-73.5 -33.5t-66.5 26.5t-25.5 69.5t32.5 77t73.5 34t66.5 -27t25.5 -70zM1085 848q0 -54 -57 -215l-205 -610q-37 -112 -89.5 -215t-116.5 -188.5t-139.5 -137t-149.5 -51.5q-51 0 -89.5 16.5t-58 42t-28.5 49.5
t-9 45q0 46 27.5 74.5t67.5 28.5q36 0 62 -22t26 -58q0 -17 -5.5 -56t-5.5 -57q0 -20 33 -20q28 0 55 12t52 38.5t45.5 54t42.5 73t37.5 79.5t36 90.5t31.5 89t30 89.5l194 592q39 123 39 145q0 25 -18 25q-17 0 -52.5 -38t-68 -82.5t-61 -85.5t-29.5 -42q-6 -6 -12 -6
q-9 0 -19 7.5t-10 19.5q0 4 4 12q8 16 32 55t65 94.5t84 105.5t92.5 85t87.5 35q31 0 55 -24t24 -50z" />
    <glyph glyph-name="Jcircumflex" unicode="&#x134;" horiz-adv-x="1157" 
d="M1188 1208q0 -41 -28.5 -68.5t-69.5 -27.5q-12 0 -32.5 7t-27.5 7q-8 0 -16 -8q-28 -28 -66.5 -164.5t-62.5 -287.5q19 0 109 7t96 7q24 0 24 -37q0 -47 -35 -47q-4 0 -93 4t-112 4q-58 -367 -165.5 -636.5t-237.5 -399.5q-137 -137 -311 -137q-109 0 -185.5 70
t-76.5 171q0 52 32.5 87.5t81.5 35.5q45 0 76 -29t31 -69q0 -37 -18.5 -65t-37 -47.5t-18.5 -35.5q0 -27 38.5 -44t92.5 -17q121 0 201 80q62 62 104 169.5t59.5 207t43 250t49.5 243.5q12 47 24.5 88.5t19.5 59.5l7 18q-33 0 -126.5 -4t-94.5 -4q-21 0 -21 35q0 41 23 41
q7 0 94 -4t146 -4q124 292 233 401l-2 4q-67 7 -118.5 28.5t-82 49t-55 59t-44.5 61.5t-43 54.5t-58.5 39.5t-83.5 15q-98 0 -155.5 -57t-57.5 -131q0 -84 51 -84q2 0 32 16.5t48 16.5q47 0 76.5 -29t29.5 -78q0 -47 -35 -77.5t-88 -30.5q-73 0 -120.5 62t-47.5 157
q0 131 88 226t220 95q73 0 127.5 -18t84 -45.5t52 -64t33.5 -69.5t27 -66.5t34 -51.5q33 -33 94 -33q17 78 52.5 134.5t93.5 56.5q41 0 69.5 -28t28.5 -69zM1143 1919q0 -3 -11 -55.5t-29 -150t-32 -189.5q0 -7 -5.5 -11t-10.5 -4q-26 0 -61.5 9t-35.5 22q0 4 8 37
t23.5 93.5t26.5 105.5h-6l-287 -246q-10 -10 -21 -10q-8 0 -14 6t-6 14q0 5 20 25l359 323q11 9 26 24t22.5 21t12.5 6q21 0 21 -20z" />
    <glyph glyph-name="jcircumflex" unicode="&#x135;" horiz-adv-x="595" 
d="M522 848q0 -54 -57 -215l-205 -610q-37 -112 -90 -215t-116.5 -188.5t-139.5 -137t-150 -51.5q-51 0 -89.5 16.5t-57.5 42t-28 49.5t-9 45q0 46 27.5 74.5t66.5 28.5q36 0 62 -22t26 -58q0 -17 -5 -56t-5 -57q0 -20 33 -20q28 0 55 12t52 38.5t45.5 54t42.5 73t37.5 79.5
t36 90.5t31.5 89t30 89.5l194 592q39 123 39 145q0 25 -18 25q-17 0 -52.5 -38t-68 -82.5t-61 -85.5t-29.5 -42q-6 -6 -13 -6q-9 0 -18.5 7.5t-9.5 19.5q0 4 4 12q8 16 32 55t64.5 94.5t84 105.5t92.5 85t87 35q31 0 55.5 -24t24.5 -50zM723 1440q0 -3 -11 -56t-29 -150.5
t-32 -189.5q0 -14 -16 -14q-26 0 -61 9t-35 22q0 4 8 36.5t23 93.5t26 105h-6l-287 -245q-11 -11 -20 -11q-7 0 -14 7t-7 14q0 3 21 24l358 324q11 9 26 24t22.5 21t12.5 6q21 0 21 -20z" />
    <glyph glyph-name="Kcommaaccent" unicode="&#x136;" horiz-adv-x="1515" 
d="M662 -283h-7q-5 -8 -14.5 -17.5t-31 -20.5t-44.5 -11q-30 0 -45.5 18t-15.5 48q0 44 41 80t104 36q51 0 80 -33t29 -85q0 -59 -33 -117t-79 -97t-92 -63t-73 -24q-12 0 -12 12q0 10 12 16q5 2 22.5 10.5t48 29t57 45t46 61t19.5 73.5q0 13 -3 22.5t-6 13.5zM1690 1423
q0 -32 -23 -32q-164 0 -444 -256l-314 -289q-8 -9 -8 -17l4 -20l234 -604q35 -95 59 -119q16 -16 51 -21.5t105 -5.5q24 0 24 -32q0 -33 -24 -33q-4 0 -53 1.5t-114 3t-108 1.5q-47 0 -112 -1.5t-112.5 -3t-51.5 -1.5q-25 0 -25 33q0 32 25 32q122 0 145 23q10 10 10 24
q0 37 -20 99l-156 444q-16 49 -41 74q-14 14 -108 27l-51 6l-168 -537q-25 -90 -25 -110q0 -23 10 -33t36.5 -13.5t94.5 -3.5q25 0 25 -32q0 -33 -25 -33t-118.5 3t-153.5 3q-57 0 -149 -3t-105 -3q-24 0 -24 33q0 32 24 32q77 0 111 5t47 18q25 25 55 125l326 1040
q18 56 18 84q0 13 -10 23q-22 22 -133 22q-25 0 -25 33t25 33q3 0 108.5 -2t149.5 -2t100.5 1.5t96 3t42.5 1.5q25 0 25 -33t-25 -33q-107 0 -129 -22q-27 -27 -51 -109l-133 -428q111 -16 131 -16q25 0 40 6.5t36 26.5l338 319q139 130 139 180q0 15 -10 25q-16 16 -121 16
q-25 0 -25 33t25 33h180q84 0 203 7t127 7q25 0 25 -33z" />
    <glyph glyph-name="kcommaaccent" unicode="&#x137;" horiz-adv-x="942" 
d="M911 799q0 -242 -430 -303v-4q31 -21 56 -46q39 -39 51 -90.5t12 -150.5q0 -93 13.5 -130.5t48.5 -37.5q16 0 24 8q2 2 5.5 26.5t17.5 44t43 19.5q26 0 41.5 -16t15.5 -41q0 -48 -38.5 -73t-98.5 -25q-48 0 -96 20.5t-80 52.5q-35 35 -35 82v29q0 77 -1 111t-6 77.5
t-16.5 68t-31.5 44.5q-17 17 -42 30t-47 13h-14l-149 -485q-7 -26 -27 -34.5t-61 -8.5q-36 0 -51 8.5t-15 27.5q0 3 23 72l376 1100q21 61 21 110q0 31 -10 41q-15 15 -54.5 30.5t-40.5 16.5q-6 6 -6 19q0 12 6 18q1 1 29.5 2.5t69 5t65.5 9.5q23 6 52.5 15t47.5 14.5
t25 5.5h8q25 0 25 -27q0 -8 -14 -46.5t-38.5 -103.5t-37.5 -100l-217 -604l4 -2q85 122 222 226t226 104q60 0 94.5 -34t34.5 -89zM784 725q0 43 -22.5 68.5t-59.5 25.5q-127 0 -389 -287q29 -2 45 -2q102 0 197 21.5t162 67.5t67 106zM313 -283h-6q-5 -8 -14.5 -17.5
t-31 -20.5t-44.5 -11q-30 0 -45.5 18t-15.5 48q0 44 41 80t104 36q51 0 80 -33t29 -85q0 -59 -33 -117t-79 -97t-92 -63t-73 -24q-12 0 -12 12q0 10 12 16q5 2 22.5 10.5t48 29t57 45t46 61t19.5 73.5q0 13 -3 22.5t-7 13.5z" />
    <glyph glyph-name="Lacute" unicode="&#x139;" horiz-adv-x="1300" 
d="M1270 373q0 -8 -13 -21q-145 -145 -145 -297q0 -10 4 -22.5t4 -16.5q0 -22 -39 -22q-9 0 -52 1.5t-123 3t-179 1.5h-457q-48 0 -113 -1.5t-112 -3t-51 -1.5q-25 0 -25 33q0 32 31 32q94 0 129.5 4t54.5 23t49 139l248 987q23 95 23 119q0 15 -10 25t-33 12t-88 2
q-25 0 -25 33t25 33q11 0 76.5 -1t91.5 -1q55 0 193.5 6t152.5 6q24 0 24 -33t-24 -33q-76 0 -113 -5t-55 -23q-17 -17 -43 -123l-252 -1004q-27 -106 -27 -129q0 -13 9 -22q8 -8 31.5 -10.5t101.5 -2.5h137q44 0 66 1t53.5 7t55.5 20t48 38q89 89 201.5 186t136.5 97
q33 0 33 -37zM963 1772q0 -40 -35 -64l-310 -215q-10 -4 -14 -4q-9 0 -16.5 7t-7.5 15q0 4 3.5 10.5t6.5 10.5l4 4l250 281q26 26 51 26q24 0 46 -22.5t22 -48.5z" />
    <glyph glyph-name="lacute" unicode="&#x13a;" horiz-adv-x="563" 
d="M645 1448q0 -8 -15.5 -48t-39.5 -101t-37 -101l-303 -889q-33 -102 -33 -145q0 -25 19 -25q18 0 54 38.5t68.5 83.5t61 86t29.5 42q6 6 12 6q9 0 18.5 -7t9.5 -19q0 -5 -4 -13q-12 -25 -45.5 -77.5t-86.5 -124t-117 -123t-117 -51.5q-33 0 -55.5 22t-22.5 51q0 66 51 213
l318 922q20 58 20 106q0 25 -10 35q-15 15 -60.5 30.5t-46.5 16.5q-6 6 -6 19q0 12 6 18q2 2 32.5 5.5t74 9.5t67.5 12t54.5 15t49.5 14.5t23 5.5h7q24 0 24 -27zM854 1792q0 -38 -35 -63l-309 -216q-10 -4 -14 -4q-9 0 -17 7.5t-8 15.5q0 4 3.5 10t7.5 10l3 4l250 281
q27 27 51 27t46 -23t22 -49z" />
    <glyph glyph-name="Lcommaaccent" unicode="&#x13b;" horiz-adv-x="1300" 
d="M575 -283h-6q-5 -8 -14.5 -17.5t-31 -20.5t-44.5 -11q-30 0 -45.5 18t-15.5 48q0 44 41 80t104 36q51 0 80 -33t29 -85q0 -59 -33 -117t-79 -97t-92 -63t-73 -24q-12 0 -12 12q0 10 12 16q5 2 22.5 10.5t48 29t57 45t46 61t19.5 73.5q0 13 -3 22.5t-7 13.5zM1270 373
q0 -8 -13 -21q-145 -145 -145 -297q0 -10 4 -22.5t4 -16.5q0 -22 -39 -22q-9 0 -52 1.5t-123 3t-179 1.5h-457q-48 0 -113 -1.5t-112 -3t-51 -1.5q-25 0 -25 33q0 32 31 32q94 0 129.5 4t54.5 23t49 139l248 987q23 95 23 119q0 15 -10 25t-33 12t-88 2q-25 0 -25 33t25 33
q11 0 76.5 -1t91.5 -1q55 0 193.5 6t152.5 6q24 0 24 -33t-24 -33q-76 0 -113 -5t-55 -23q-17 -17 -43 -123l-252 -1004q-27 -106 -27 -129q0 -13 9 -22q8 -8 31.5 -10.5t101.5 -2.5h137q44 0 66 1t53.5 7t55.5 20t48 38q89 89 201.5 186t136.5 97q33 0 33 -37z" />
    <glyph glyph-name="lcommaaccent" unicode="&#x13c;" horiz-adv-x="563" 
d="M645 1448q0 -8 -15.5 -48t-39.5 -101t-37 -101l-303 -889q-33 -102 -33 -145q0 -25 19 -25q18 0 54 38.5t68.5 83.5t61 86t29.5 42q6 6 12 6q9 0 18.5 -7t9.5 -19q0 -5 -4 -13q-12 -25 -45.5 -77.5t-86.5 -124t-117 -123t-117 -51.5q-33 0 -55.5 22t-22.5 51q0 66 51 213
l318 922q20 58 20 106q0 25 -10 35q-15 15 -60.5 30.5t-46.5 16.5q-6 6 -6 19q0 12 6 18q2 2 32.5 5.5t74 9.5t67.5 12t54.5 15t49.5 14.5t23 5.5h7q24 0 24 -27zM125 -283h-6q-5 -8 -14.5 -17.5t-31 -20.5t-44.5 -11q-30 0 -46 18t-16 48q0 44 41.5 80t104.5 36
q51 0 79.5 -32.5t28.5 -85.5q0 -59 -33 -117t-79 -97t-91.5 -63t-72.5 -24q-13 0 -13 12q0 9 13 16q5 2 22.5 10.5t47.5 29t56.5 45t46 61t19.5 73.5q0 13 -3 22.5t-6 13.5z" />
    <glyph glyph-name="Lcaron" unicode="&#x13d;" horiz-adv-x="1300" 
d="M1270 373q0 -8 -13 -21q-145 -145 -145 -297q0 -10 4 -22.5t4 -16.5q0 -22 -39 -22q-9 0 -52 1.5t-123 3t-179 1.5h-457q-48 0 -113 -1.5t-112 -3t-51 -1.5q-25 0 -25 33q0 32 31 32q94 0 129.5 4t54.5 23t49 139l248 987q23 95 23 119q0 15 -10 25t-33 12t-88 2
q-25 0 -25 33t25 33q11 0 76.5 -1t91.5 -1q55 0 193.5 6t152.5 6q24 0 24 -33t-24 -33q-76 0 -113 -5t-55 -23q-17 -17 -43 -123l-252 -1004q-27 -106 -27 -129q0 -13 9 -22q8 -8 31.5 -10.5t101.5 -2.5h137q44 0 66 1t53.5 7t55.5 20t48 38q89 89 201.5 186t136.5 97
q33 0 33 -37zM1278 1300h-6q-5 -8 -14.5 -17.5t-31 -20.5t-44.5 -11q-30 0 -46 18t-16 48q0 44 41.5 80.5t104.5 36.5q51 0 79.5 -33t28.5 -86q0 -59 -33 -117t-79 -97t-91.5 -63t-72.5 -24q-13 0 -13 12q0 10 13 16q5 2 22.5 11t47.5 29.5t56.5 45t46 61t19.5 73.5
q0 13 -3 22.5t-6 12.5z" />
    <glyph glyph-name="lcaron" unicode="&#x13e;" horiz-adv-x="733" 
d="M645 1448q0 -8 -15.5 -48t-39.5 -101t-37 -101l-303 -889q-33 -102 -33 -145q0 -25 19 -25q18 0 54 38.5t68.5 83.5t61 86t29.5 42q6 6 12 6q9 0 18.5 -7t9.5 -19q0 -5 -4 -13q-12 -25 -45.5 -77.5t-86.5 -124t-117 -123t-117 -51.5q-33 0 -55.5 22t-22.5 51q0 66 51 213
l318 922q20 58 20 106q0 25 -10 35q-15 15 -60.5 30.5t-46.5 16.5q-6 6 -6 19q0 12 6 18q2 2 32.5 5.5t74 9.5t67.5 12t54.5 15t49.5 14.5t23 5.5h7q24 0 24 -27zM872 1300h-6q-5 -8 -14.5 -17.5t-31 -20.5t-44.5 -11q-30 0 -45.5 18t-15.5 48q0 44 41 80.5t104 36.5
q51 0 80 -33t29 -86q0 -59 -33 -117t-79 -97t-92 -63t-73 -24q-12 0 -12 12q0 10 12 16q5 2 22.5 11t47.5 29.5t57 45t46.5 61t19.5 73.5q0 13 -3.5 22.5t-6.5 12.5z" />
    <glyph glyph-name="Ldot" unicode="&#x13f;" horiz-adv-x="1300" 
d="M1202 723q0 -43 -32.5 -77t-73.5 -34t-66.5 27t-25.5 70t32.5 76.5t73.5 33.5t66.5 -26.5t25.5 -69.5zM1270 373q0 -8 -13 -21q-145 -145 -145 -297q0 -10 4 -22.5t4 -16.5q0 -22 -39 -22q-9 0 -52 1.5t-123 3t-179 1.5h-457q-48 0 -113 -1.5t-112 -3t-51 -1.5
q-25 0 -25 33q0 32 31 32q94 0 129.5 4t54.5 23t49 139l248 987q23 95 23 119q0 15 -10 25t-33 12t-88 2q-25 0 -25 33t25 33q11 0 76.5 -1t91.5 -1q55 0 193.5 6t152.5 6q24 0 24 -33t-24 -33q-76 0 -113 -5t-55 -23q-17 -17 -43 -123l-252 -1004q-27 -106 -27 -129
q0 -13 9 -22q8 -8 31.5 -10.5t101.5 -2.5h137q44 0 66 1t53.5 7t55.5 20t48 38q89 89 201.5 186t136.5 97q33 0 33 -37z" />
    <glyph glyph-name="ldot" unicode="&#x140;" horiz-adv-x="792" 
d="M793 662q0 -43 -33 -77t-74 -34t-66.5 26.5t-25.5 69.5t32.5 77t73.5 34t67 -26.5t26 -69.5zM645 1448q0 -8 -15.5 -48t-39.5 -101t-37 -101l-303 -889q-33 -102 -33 -145q0 -25 19 -25q18 0 54 38.5t68.5 83.5t61 86t29.5 42q6 6 12 6q9 0 18.5 -7t9.5 -19q0 -5 -4 -13
q-12 -25 -45.5 -77.5t-86.5 -124t-117 -123t-117 -51.5q-33 0 -55.5 22t-22.5 51q0 66 51 213l318 922q20 58 20 106q0 25 -10 35q-15 15 -60.5 30.5t-46.5 16.5q-6 6 -6 19q0 12 6 18q2 2 32.5 5.5t74 9.5t67.5 12t54.5 15t49.5 14.5t23 5.5h7q24 0 24 -27z" />
    <glyph glyph-name="Lslash" unicode="&#x141;" horiz-adv-x="1300" 
d="M1270 373q0 -8 -13 -21q-145 -145 -145 -297q0 -10 4 -22.5t4 -16.5q0 -22 -39 -22q-9 0 -52 1.5t-123 3t-179 1.5h-457q-48 0 -113 -1.5t-112 -3t-51 -1.5q-25 0 -25 33q0 32 31 32q94 0 129.5 4t54.5 23t49 139l72 283l-43 -27q-132 -82 -135 -82q-14 0 -29.5 15.5
t-15.5 36.5q0 20 20 30l160 86l68 39l151 606q23 95 23 119q0 15 -10 25t-33 12t-88 2q-25 0 -25 33t25 33q11 0 76.5 -1t91.5 -1q55 0 193.5 6t152.5 6q24 0 24 -33t-24 -33q-76 0 -113 -5t-55 -23q-17 -17 -43 -123l-125 -496l117 68q35 21 83 52.5t82.5 55.5t36.5 25
q13 8 25 8q10 0 23.5 -19t13.5 -38q0 -27 -27 -41q-167 -83 -221 -115l-156 -90l-104 -414q-27 -106 -27 -129q0 -13 9 -22q8 -8 31.5 -10.5t101.5 -2.5h137q44 0 66 1t53.5 7t55.5 20t48 38q89 89 201.5 186t136.5 97q33 0 33 -37z" />
    <glyph glyph-name="lslash" unicode="&#x142;" horiz-adv-x="573" 
d="M655 1448q0 -8 -15.5 -48t-39.5 -101t-37 -101l-131 -383l14 8q31 18 88 56.5t60 40.5q1 0 3 1t3 1q13 0 24 -17.5t11 -30.5q0 -18 -23 -30q-90 -45 -135 -72l-74 -43l-143 -420q-33 -102 -33 -145q0 -25 19 -25q18 0 54 38.5t68.5 83.5t61 86t29.5 42q6 6 12 6
q9 0 19 -7t10 -19q0 -5 -4 -13q-9 -18 -31.5 -55.5t-63 -94.5t-83.5 -106t-94.5 -84.5t-94.5 -35.5q-33 0 -55.5 22t-22.5 51q0 66 51 213l123 359l-16 -11q-20 -12 -47.5 -29.5t-46 -29t-19.5 -12.5q-4 -2 -8 -2q-15 0 -26 13t-11 28q0 16 12 22q64 32 144 80l49 29
l164 475q20 58 20 106q0 25 -10 35q-15 15 -60 30.5t-46 16.5q-7 7 -7 19q0 11 7 18q2 2 32.5 5.5t74 9.5t67.5 12t54.5 15t49.5 14.5t23 5.5h6q24 0 24 -27z" />
    <glyph glyph-name="Nacute" unicode="&#x143;" horiz-adv-x="1648" 
d="M1823 1407q0 -33 -25 -33q-111 0 -164 -53q-29 -29 -65 -133l-273 -819q-21 -64 -48 -154.5t-44 -149.5l-16 -59q-7 -26 -39 -26q-29 0 -39 26q-61 174 -102 285l-383 1012q-14 36 -31 36h-19q-13 0 -18.5 -7t-11.5 -29l-213 -666q-101 -312 -101 -434q0 -59 35 -94
q29 -29 71 -39.5t112 -10.5q24 0 24 -32q0 -33 -24 -33q-5 0 -66 1.5t-138 3t-122 1.5q-61 0 -139.5 -3t-81.5 -3q-25 0 -25 33q0 32 25 32q49 0 84 8t55.5 25t29.5 29t19 33q18 36 50 131.5t74.5 233.5t64.5 202l182 539q18 56 18 77q0 13 -8 21q-13 13 -46.5 16.5
t-121.5 3.5q-24 0 -24 33t24 33q1 0 124 -5t167 -5h139q33 0 48.5 -18t37.5 -75l389 -999h6l150 477q125 394 125 459q0 42 -19 61q-16 16 -42.5 24.5t-45.5 9.5t-55 1q-24 0 -24 33t24 33q14 0 111.5 -3t146.5 -3t123.5 3t89.5 3q25 0 25 -33zM1341 1772q0 -40 -34 -64
l-310 -215q-10 -4 -14 -4q-9 0 -17 7t-8 15q0 4 4 10.5t8 10.5l3 4l250 281q26 26 51 26q24 0 45.5 -22.5t21.5 -48.5z" />
    <glyph glyph-name="nacute" unicode="&#x144;" horiz-adv-x="1085" 
d="M983 823q0 -32 -12.5 -76.5t-22.5 -69.5t-37 -89l-135 -314q-47 -115 -47 -131q0 -18 14 -18q18 0 50.5 30t61 65t53.5 68t26 34q6 6 12 6q9 0 19 -7.5t10 -19.5q0 -4 -4 -12q-7 -14 -29.5 -46.5t-63 -78.5t-86 -86.5t-103 -69t-109.5 -28.5q-23 0 -34 11.5t-11 28.5
q0 31 14 66l219 498q51 115 51 170q0 26 -12.5 35.5t-38.5 9.5q-57 0 -166 -111.5t-201 -243t-118 -202.5l-78 -222q-7 -23 -27 -31.5t-59 -8.5q-58 0 -58 40q0 21 13 50l200 518q54 134 54 162q0 22 -21 22q-17 0 -45.5 -26.5t-52 -58t-43.5 -60.5l-21 -29q-6 -6 -12 -6
q-9 0 -19 7t-10 19q0 3 5 13q10 20 40.5 63.5t74 96.5t95.5 92t91 39q43 0 67.5 -18.5t24.5 -43.5q0 -18 -16.5 -58.5t-49.5 -108.5t-47 -99l-88 -211l6 -4q49 77 80 124t83 120t93 118t91.5 91t99.5 68t96 22q70 0 101.5 -29t31.5 -70zM915 1372q0 -20 -14 -41l-207 -317
q-10 -10 -20 -10q-8 0 -16.5 6.5t-8.5 13.5q0 8 4 20l129 355q16 45 62 45q27 0 49 -18.5t22 -53.5z" />
    <glyph glyph-name="Ncommaaccent" unicode="&#x145;" horiz-adv-x="1648" 
d="M647 -283h-6q-5 -8 -14.5 -17.5t-31 -20.5t-44.5 -11q-30 0 -46 18t-16 48q0 44 41.5 80t104.5 36q51 0 79.5 -32.5t28.5 -85.5q0 -59 -33 -117t-79 -97t-91.5 -63t-72.5 -24q-12 0 -12 12q0 10 12 16q5 2 22.5 10.5t47.5 29t56.5 45t46 61t19.5 73.5q0 13 -3 22.5
t-6 13.5zM1823 1407q0 -33 -25 -33q-111 0 -164 -53q-29 -29 -65 -133l-273 -819q-21 -64 -48 -154.5t-44 -149.5l-16 -59q-7 -26 -39 -26q-29 0 -39 26q-61 174 -102 285l-383 1012q-14 36 -31 36h-19q-13 0 -18.5 -7t-11.5 -29l-213 -666q-101 -312 -101 -434
q0 -59 35 -94q29 -29 71 -39.5t112 -10.5q24 0 24 -32q0 -33 -24 -33q-5 0 -66 1.5t-138 3t-122 1.5q-61 0 -139.5 -3t-81.5 -3q-25 0 -25 33q0 32 25 32q49 0 84 8t55.5 25t29.5 29t19 33q18 36 50 131.5t74.5 233.5t64.5 202l182 539q18 56 18 77q0 13 -8 21
q-13 13 -46.5 16.5t-121.5 3.5q-24 0 -24 33t24 33q1 0 124 -5t167 -5h139q33 0 48.5 -18t37.5 -75l389 -999h6l150 477q125 394 125 459q0 42 -19 61q-16 16 -42.5 24.5t-45.5 9.5t-55 1q-24 0 -24 33t24 33q14 0 111.5 -3t146.5 -3t123.5 3t89.5 3q25 0 25 -33z" />
    <glyph glyph-name="ncommaaccent" unicode="&#x146;" horiz-adv-x="1085" 
d="M983 823q0 -32 -12.5 -76.5t-22.5 -69.5t-37 -89l-135 -314q-47 -115 -47 -131q0 -18 14 -18q18 0 50.5 30t61 65t53.5 68t26 34q6 6 12 6q9 0 19 -7.5t10 -19.5q0 -4 -4 -12q-7 -14 -29.5 -46.5t-63 -78.5t-86 -86.5t-103 -69t-109.5 -28.5q-23 0 -34 11.5t-11 28.5
q0 31 14 66l219 498q51 115 51 170q0 26 -12.5 35.5t-38.5 9.5q-57 0 -166 -111.5t-201 -243t-118 -202.5l-78 -222q-7 -23 -27 -31.5t-59 -8.5q-58 0 -58 40q0 21 13 50l200 518q54 134 54 162q0 22 -21 22q-17 0 -45.5 -26.5t-52 -58t-43.5 -60.5l-21 -29q-6 -6 -12 -6
q-9 0 -19 7t-10 19q0 3 5 13q10 20 40.5 63.5t74 96.5t95.5 92t91 39q43 0 67.5 -18.5t24.5 -43.5q0 -18 -16.5 -58.5t-49.5 -108.5t-47 -99l-88 -211l6 -4q49 77 80 124t83 120t93 118t91.5 91t99.5 68t96 22q70 0 101.5 -29t31.5 -70zM365 -283h-7q-5 -8 -14.5 -17.5
t-31 -20.5t-44.5 -11q-30 0 -45.5 18t-15.5 48q0 44 41 80t104 36q51 0 80 -33t29 -85q0 -59 -33 -117t-79 -97t-92 -63t-73 -24q-12 0 -12 12q0 10 12 16q5 2 22.5 10.5t48 29t57 45t46 61t19.5 73.5q0 13 -3 22.5t-6 13.5z" />
    <glyph glyph-name="Ncaron" unicode="&#x147;" horiz-adv-x="1648" 
d="M1823 1407q0 -33 -25 -33q-111 0 -164 -53q-29 -29 -65 -133l-273 -819q-21 -64 -48 -154.5t-44 -149.5l-16 -59q-7 -26 -39 -26q-29 0 -39 26q-61 174 -102 285l-383 1012q-14 36 -31 36h-19q-13 0 -18.5 -7t-11.5 -29l-213 -666q-101 -312 -101 -434q0 -59 35 -94
q29 -29 71 -39.5t112 -10.5q24 0 24 -32q0 -33 -24 -33q-5 0 -66 1.5t-138 3t-122 1.5q-61 0 -139.5 -3t-81.5 -3q-25 0 -25 33q0 32 25 32q49 0 84 8t55.5 25t29.5 29t19 33q18 36 50 131.5t74.5 233.5t64.5 202l182 539q18 56 18 77q0 13 -8 21q-13 13 -46.5 16.5
t-121.5 3.5q-24 0 -24 33t24 33q1 0 124 -5t167 -5h139q33 0 48.5 -18t37.5 -75l389 -999h6l150 477q125 394 125 459q0 42 -19 61q-16 16 -42.5 24.5t-45.5 9.5t-55 1q-24 0 -24 33t24 33q14 0 111.5 -3t146.5 -3t123.5 3t89.5 3q25 0 25 -33zM1475 1888q0 -3 -21 -24
l-358 -324q-5 -5 -16 -15.5t-16 -14.5t-12 -10t-11 -8.5t-7 -2.5q-20 0 -20 20q0 3 11 56t28.5 150.5t31.5 189.5q0 14 17 14q26 0 61 -9t35 -22q0 -4 -8 -36.5t-23 -93.5t-26 -105h6l287 245q16 11 20 11q8 0 14.5 -6.5t6.5 -14.5z" />
    <glyph glyph-name="ncaron" unicode="&#x148;" horiz-adv-x="1085" 
d="M983 823q0 -32 -12.5 -76.5t-22.5 -69.5t-37 -89l-135 -314q-47 -115 -47 -131q0 -18 14 -18q18 0 50.5 30t61 65t53.5 68t26 34q6 6 12 6q9 0 19 -7.5t10 -19.5q0 -4 -4 -12q-7 -14 -29.5 -46.5t-63 -78.5t-86 -86.5t-103 -69t-109.5 -28.5q-23 0 -34 11.5t-11 28.5
q0 31 14 66l219 498q51 115 51 170q0 26 -12.5 35.5t-38.5 9.5q-57 0 -166 -111.5t-201 -243t-118 -202.5l-78 -222q-7 -23 -27 -31.5t-59 -8.5q-58 0 -58 40q0 21 13 50l200 518q54 134 54 162q0 22 -21 22q-17 0 -45.5 -26.5t-52 -58t-43.5 -60.5l-21 -29q-6 -6 -12 -6
q-9 0 -19 7t-10 19q0 3 5 13q10 20 40.5 63.5t74 96.5t95.5 92t91 39q43 0 67.5 -18.5t24.5 -43.5q0 -18 -16.5 -58.5t-49.5 -108.5t-47 -99l-88 -211l6 -4q49 77 80 124t83 120t93 118t91.5 91t99.5 68t96 22q70 0 101.5 -29t31.5 -70zM1096 1403q0 -4 -21 -25l-358 -323
q-5 -5 -16 -15.5t-16 -14.5t-12 -10t-11 -8.5t-7 -2.5q-20 0 -20 20q0 3 11 55.5t29 150t32 189.5q0 7 5.5 11t10.5 4q26 0 61 -9t35 -22q0 -4 -8 -36.5t-23.5 -94t-25.5 -105.5h6l287 246q15 10 20 10q8 0 14.5 -6.5t6.5 -13.5z" />
    </font>
</defs>
</svg>
