<?xml version="1.0" standalone="no"?>
<!DOCTYPE svg PUBLIC "-//W3C//DTD SVG 1.1//EN" "http://www.w3.org/Graphics/SVG/1.1/DTD/svg11.dtd" >
<svg xmlns="http://www.w3.org/2000/svg" xmlns:xlink="http://www.w3.org/1999/xlink" version="1.1">
<metadata>
Created by FontForge 20201107 at Wed Oct  1 18:21:06 2025
 By 
Copyright 2011 by Timo Gaessner, 123buero. All rights reserved.
</metadata>
<defs>
<font id="MaisonNeue-Demi" horiz-adv-x="1331" >
  <font-face 
    font-family="Maison Neue Demi"
    font-weight="600"
    font-stretch="normal"
    units-per-em="2048"
    panose-1="2 0 0 0 0 0 0 0 0 0"
    ascent="1587"
    descent="-461"
    x-height="1085"
    cap-height="1434"
    bbox="-236 -614 2607 2007"
    underline-thickness="184"
    underline-position="-245"
    unicode-range="U+000D-FB02"
  />
<missing-glyph horiz-adv-x="1425" 
d="M113 0v866q0 156 80 293.5t218.5 221t299.5 83.5q163 0 302.5 -83.5t219.5 -221t80 -293.5v-866h-58l-133 133l-139 -133l-129 133l-145 -133l-142 133l-129 -133l-137 133l-135 -133h-53zM850 625l129 129l131 -129l29 28l-131 129l131 131l-29 29l-131 -131l-129 131
l-29 -29l129 -131l-129 -129zM317 625l129 129l132 -129l28 28l-131 129l131 131l-28 29l-132 -131l-129 131l-28 -29l129 -131l-129 -129z" />
    <glyph glyph-name="fi" unicode="fi" horiz-adv-x="1226" 
d="M205 0v885h-164v200h170v158q0 139 68.5 195.5t199.5 56.5h164v-207h-117q-54 0 -74 -20.5t-20 -77.5v-105h637v-1085h-233v885h-398v-885h-233zM831 1264v231h242v-231h-242z" />
    <glyph glyph-name="fl" unicode="fl" horiz-adv-x="1226" 
d="M205 0v885h-164v200h170v158q0 139 68.5 195.5t199.5 56.5h164v-207h-117q-54 0 -74 -20.5t-20 -77.5v-105h399v410h242v-1495h-242v885h-393v-885h-233z" />
    <glyph glyph-name=".notdef" horiz-adv-x="1425" 
d="M113 0v866q0 156 80 293.5t218.5 221t299.5 83.5q163 0 302.5 -83.5t219.5 -221t80 -293.5v-866h-58l-133 133l-139 -133l-129 133l-145 -133l-142 133l-129 -133l-137 133l-135 -133h-53zM850 625l129 129l131 -129l29 28l-131 129l131 131l-29 29l-131 -131l-129 131
l-29 -29l129 -131l-129 -129zM317 625l129 129l132 -129l28 28l-131 129l131 131l-28 29l-132 -131l-129 131l-28 -29l129 -131l-129 -129z" />
    <glyph glyph-name=".null" horiz-adv-x="0" 
 />
    <glyph glyph-name=".null" horiz-adv-x="0" 
 />
    <glyph glyph-name="nonmarkingreturn" horiz-adv-x="682" 
 />
    <glyph glyph-name="CR" unicode="&#xd;" horiz-adv-x="512" 
 />
    <glyph glyph-name="space" unicode=" " horiz-adv-x="512" 
 />
    <glyph glyph-name="exclam" unicode="!" horiz-adv-x="673" 
d="M215 457v977h242v-977h-242zM195 0v272h284v-272h-284z" />
    <glyph glyph-name="quotedbl" unicode="&#x22;" horiz-adv-x="790" 
d="M446 944v490h160v-490h-160zM164 944v490h160v-490h-160z" />
    <glyph glyph-name="numbersign" unicode="#" horiz-adv-x="1394" 
d="M377 279l16 274h-260v162h273l16 282h-219v160h229l19 277h172l-19 -277h221l17 277h174l-19 -277h265v-160h-275l-18 -282h221v-162h-232l-16 -274h-172l16 274h-221l-16 -274h-172zM575 715h222l16 282h-219z" />
    <glyph glyph-name="dollar" unicode="$" horiz-adv-x="1351" 
d="M102 483l254 56q26 -156 86.5 -238t184.5 -100q0 75 1 225t1 225q-249 70 -357 170.5t-108 243.5q0 76 31 145t88.5 123.5t147 89t198.5 39.5v125h104v-127q183 -14 308.5 -110.5t162.5 -274.5l-227 -61q-30 93 -86 151t-158 70v-385q200 -60 313.5 -126t158 -141
t44.5 -182q0 -192 -136.5 -308.5t-379.5 -123.5v-170h-106v174q-224 20 -359.5 149.5t-165.5 360.5zM733 621v-428q134 0 207.5 53t73.5 149q0 81 -58.5 129t-222.5 97zM403 1069q0 -65 50 -106.5t176 -79.5v356q-115 -4 -170.5 -52t-55.5 -118z" />
    <glyph glyph-name="percent" unicode="%" horiz-adv-x="1918" 
d="M471 795q80 0 122 69.5t42 188.5q0 116 -42.5 175.5t-121.5 59.5t-120.5 -59.5t-41.5 -175.5q0 -119 41 -188.5t121 -69.5zM471 629q-148 0 -243 108.5t-95 319.5q0 98 29 176.5t78 126.5t108 73t123 25t123.5 -25.5t108.5 -73.5t78.5 -126.5t29.5 -175.5
q0 -194 -97.5 -311t-242.5 -117zM1446 141q80 0 122 69.5t42 188.5q0 116 -42.5 176t-121.5 60t-120.5 -60t-41.5 -176q0 -119 41 -188.5t121 -69.5zM1446 -25q-148 0 -243 108.5t-95 319.5q0 98 29 177t78 127t108 73t123 25t123.5 -25.5t108.5 -73.5t78.5 -127t29.5 -176
q0 -194 -97.5 -311t-242.5 -117zM393 -74l1002 1669l133 -82l-1000 -1667z" />
    <glyph glyph-name="ampersand" unicode="&#x26;" horiz-adv-x="1447" 
d="M1274 68l-193 165q-21 -44 -53 -84t-87 -83.5t-143 -70t-196 -26.5q-223 0 -356 113t-133 303q0 73 20 138.5t49 111.5t69.5 86t74.5 63.5t71 42.5q-143 132 -143 297q0 151 109 245.5t266 94.5q179 0 293 -89t143 -259l-223 -53q-25 99 -69.5 145.5t-129.5 46.5
q-78 0 -119 -39t-41 -98q0 -49 23.5 -83t81.5 -83l352 -301h4v195h205v-377l268 -231zM920 389l-371 318q-84 -32 -147.5 -109.5t-63.5 -181.5q0 -110 75.5 -169t204.5 -59q122 0 203 56.5t99 144.5z" />
    <glyph glyph-name="quotesingle" unicode="'" horiz-adv-x="507" 
d="M174 944v490h160v-490h-160z" />
    <glyph glyph-name="parenleft" unicode="(" horiz-adv-x="774" 
d="M682 -305l-121 -98q-25 24 -65 74t-102.5 152t-113.5 216.5t-88.5 274.5t-37.5 319q0 117 20 230.5t50 202t72.5 173.5t79.5 142t80 111t64 76.5t41 41.5l121 -101q-80 -95 -133.5 -174t-103.5 -185t-74.5 -234.5t-24.5 -282.5q0 -273 95 -515.5t241 -422.5z" />
    <glyph glyph-name="parenright" unicode=")" horiz-adv-x="774" 
d="M193 -403l-121 98q146 180 241 422.5t95 515.5q0 154 -24.5 282.5t-74.5 234.5t-103.5 185t-133.5 174l121 101q20 -19 41 -41.5t64 -76.5t80 -111t79.5 -142t72.5 -173.5t50 -202t20 -230.5q0 -159 -37.5 -319t-88.5 -274.5t-113.5 -216.5t-102.5 -152t-65 -74z" />
    <glyph glyph-name="asterisk" unicode="*" horiz-adv-x="1024" 
d="M170 780l180 219l-237 138l92 155l217 -127v269h178v-271l221 129l90 -157l-239 -138l184 -217l-135 -114l-211 247l-205 -249z" />
    <glyph glyph-name="plus" unicode="+" horiz-adv-x="1191" 
d="M500 205v459h-408v182h408v414h192v-414h408v-182h-408v-459h-192z" />
    <glyph glyph-name="comma" unicode="," horiz-adv-x="632" 
d="M174 -256v125q63 10 81.5 39t18.5 92h-100v272h285v-239q0 -124 -68.5 -201t-216.5 -88z" />
    <glyph glyph-name="hyphen" unicode="-" horiz-adv-x="858" 
d="M92 588v186h674v-186h-674z" />
    <glyph glyph-name="period" unicode="." horiz-adv-x="632" 
d="M174 0v272h285v-272h-285z" />
    <glyph glyph-name="slash" unicode="/" horiz-adv-x="927" 
d="M20 -27l738 1557l149 -68l-737 -1552z" />
    <glyph glyph-name="zero" unicode="0" horiz-adv-x="1253" 
d="M627 -31q-123 0 -221.5 46t-171.5 138.5t-112.5 240.5t-39.5 343q0 180 41 320.5t114.5 228.5t172 133t217.5 45q120 0 218.5 -45t171.5 -133t113.5 -228.5t40.5 -320.5q0 -384 -146 -576t-398 -192zM627 193q153 0 228 129.5t75 416.5q0 502 -303 502t-303 -502
q0 -287 75 -416.5t228 -129.5z" />
    <glyph glyph-name="one" unicode="1" horiz-adv-x="958" 
d="M432 0v1163l-309 -194v260l330 205h209v-1434h-230z" />
    <glyph glyph-name="two" unicode="2" horiz-adv-x="1198" 
d="M113 0v180q0 192 88 307q48 59 126 111.5t195 112.5q164 86 202 111q97 64 122 141q12 35 12 79q0 84 -67.5 145.5t-186.5 61.5q-247 0 -272 -297l-230 29q13 230 149 356.5t365 126.5q209 0 340 -120t131 -318q0 -62 -14.5 -116t-44 -98t-61.5 -78.5t-81 -68t-87 -55.5
t-94 -51q-186 -95 -228 -124q-44 -30 -67 -64q-35 -53 -35 -140h721v-231h-983z" />
    <glyph glyph-name="three" unicode="3" horiz-adv-x="1216" 
d="M72 469l233 49q22 -169 97 -251.5t212 -82.5q133 0 205 64t72 170q0 119 -75.5 178t-215.5 59h-88v195h70q45 0 85.5 9t79 29.5t61.5 60.5t23 95q0 94 -61 149.5t-166 55.5q-202 0 -239 -235l-222 41q19 189 145.5 299t323.5 110q194 0 319.5 -106t125.5 -297
q0 -60 -19 -110.5t-50 -83.5t-60.5 -53t-59.5 -32v-6q47 -13 90 -41.5t81.5 -72.5t61.5 -110.5t23 -145.5q0 -196 -136.5 -316.5t-371.5 -120.5q-227 0 -371.5 125.5t-172.5 374.5z" />
    <glyph glyph-name="four" unicode="4" horiz-adv-x="1187" 
d="M51 293v223l555 918h361v-918h170v-223h-170v-293h-230v293h-686zM287 516h450v739h-4z" />
    <glyph glyph-name="five" unicode="5" horiz-adv-x="1224" 
d="M92 360l227 93q36 -121 114 -193t196 -72q130 0 211.5 77t81.5 218q0 139 -80 214t-205 75q-193 0 -299 -160l-193 95l125 727h750v-224h-567l-64 -366l2 -2q38 44 116.5 80t201.5 36q85 0 165 -35t142 -96t99.5 -152.5t37.5 -197.5q0 -157 -71 -274t-189 -175.5
t-264 -58.5q-208 0 -343.5 107t-193.5 284z" />
    <glyph glyph-name="six" unicode="6" horiz-adv-x="1286" 
d="M692 188q130 0 203.5 80.5t73.5 208.5q0 127 -75.5 205t-209.5 78q-130 0 -209.5 -83t-79.5 -196q0 -132 82.5 -212.5t214.5 -80.5zM1139 1096l-219 -58q-57 211 -248 211q-138 0 -229 -130t-95 -355l2 -2q131 188 385 188q85 0 166 -31.5t147 -90t106 -151.5t40 -206
q0 -155 -69 -270.5t-181.5 -173.5t-251.5 -58q-123 0 -227.5 43.5t-186.5 130.5t-129 229.5t-47 327.5q0 212 70 385t204 276t308 103q101 0 182.5 -30t135.5 -83t88 -117t49 -138z" />
    <glyph glyph-name="seven" unicode="7" horiz-adv-x="1021" 
d="M55 0l674 1208v4h-709v222h951v-250l-643 -1184h-273z" />
    <glyph glyph-name="eight" unicode="8" horiz-adv-x="1181" 
d="M590 1262q-112 0 -170 -57t-58 -140q0 -82 63 -138.5t165 -56.5t165.5 56.5t63.5 138.5q0 83 -58.5 140t-170.5 57zM590 -31q-236 0 -381.5 116.5t-145.5 324.5q0 130 74.5 234t188.5 140v4q-189 83 -189 297q0 158 125.5 268.5t327.5 110.5t330.5 -110.5t128.5 -268.5
q0 -213 -191 -297v-4q111 -38 185.5 -141.5t74.5 -232.5q0 -208 -146 -324.5t-382 -116.5zM590 190q144 0 216.5 66.5t72.5 173.5q0 108 -79.5 176t-209.5 68t-209.5 -67.5t-79.5 -176.5q0 -107 72.5 -173.5t216.5 -66.5z" />
    <glyph glyph-name="nine" unicode="9" horiz-adv-x="1253" 
d="M135 326l215 75q57 -217 275 -217q139 0 215.5 116.5t72.5 358.5h-4q-5 -20 -27 -46.5t-62 -58t-109 -52.5t-152 -21q-91 0 -176 33.5t-152.5 94.5t-108 155t-40.5 205q0 112 40 206.5t108.5 157t159.5 97t192 34.5q91 0 172 -26t152.5 -84t123 -144.5t81.5 -214
t30 -284.5q0 -376 -139.5 -559t-383.5 -183q-108 0 -195 30.5t-143.5 83t-91.5 113t-53 130.5zM592 690q125 0 201.5 71t76.5 195q0 127 -78.5 210t-209.5 83q-118 0 -194.5 -78t-76.5 -202q0 -125 76 -202t205 -77z" />
    <glyph glyph-name="colon" unicode=":" horiz-adv-x="632" 
d="M174 0v272h285v-272h-285zM174 805v280h285v-280h-285z" />
    <glyph glyph-name="semicolon" unicode=";" horiz-adv-x="632" 
d="M174 -256v125q63 10 81.5 39t18.5 92h-100v272h285v-239q0 -124 -68.5 -201t-216.5 -88zM174 805v280h285v-280h-285z" />
    <glyph glyph-name="less" unicode="&#x3c;" horiz-adv-x="1085" 
d="M92 649l2 144l799 477l100 -162l-647 -387l647 -389l-102 -164z" />
    <glyph glyph-name="equal" unicode="=" horiz-adv-x="1173" 
d="M113 479v185h948v-185h-948zM113 844v184h948v-184h-948z" />
    <glyph glyph-name="greater" unicode="&#x3e;" horiz-adv-x="1085" 
d="M981 793l2 -144l-799 -481l-102 164l647 389l-647 387l100 162z" />
    <glyph glyph-name="question" unicode="?" horiz-adv-x="1083" 
d="M391 440v80q0 52 13.5 94t43.5 76t59.5 57.5t78.5 55.5q94 64 123 92q69 68 69 160q0 77 -55.5 131.5t-171.5 54.5q-254 0 -270 -285l-230 23q3 217 132 351t374 134q195 0 325 -113t130 -282q0 -72 -15.5 -127t-49 -96.5t-64.5 -67.5t-82 -61q-14 -9 -44 -29t-42 -28.5
t-34 -25.5t-31 -28.5t-20.5 -28t-15.5 -34.5t-4 -39v-64h-219zM371 0v272h282v-272h-282z" />
    <glyph glyph-name="at" unicode="@" horiz-adv-x="1501" 
d="M885 553v176h-4q-10 -26 -76 -43l-96 -27q-58 -15 -83.5 -41.5t-25.5 -72.5q0 -105 143 -105q49 0 95.5 30t46.5 83zM1024 193l72 -119q-15 -11 -38 -23.5t-69.5 -33.5t-111.5 -34.5t-132 -13.5q-160 0 -286 56.5t-205.5 157.5t-120.5 235t-41 293q0 214 79 382.5
t233.5 267.5t361.5 99q152 0 274.5 -55t202.5 -153t123 -231t43 -290q0 -162 -36 -260t-99 -137t-160 -39q-64 0 -111.5 24.5t-70.5 69.5h-4q-76 -94 -209 -94q-120 0 -197.5 68t-77.5 172q0 96 55.5 153t162.5 86l104 29q68 19 91.5 35t23.5 55q0 43 -30 69.5t-93 26.5
q-120 0 -146 -125l-145 37q18 114 99 173t186 59q130 0 207 -68t77 -201v-352q0 -82 80 -82q154 0 154 297q0 100 -19 188.5t-59 164.5t-98.5 130.5t-142.5 85.5t-185 31q-128 0 -230.5 -47t-168 -130.5t-100 -195t-34.5 -243.5q0 -131 31 -240t92.5 -191t160.5 -128
t228 -46q149 0 279 87z" />
    <glyph glyph-name="A" unicode="A" horiz-adv-x="1269" 
d="M1010 0l-86 246h-580l-84 -246h-240l517 1434h196l516 -1434h-239zM633 1083l-217 -630h436l-215 630h-4z" />
    <glyph glyph-name="B" unicode="B" horiz-adv-x="1329" 
d="M174 0v1434h590q190 0 305 -109t115 -272q0 -183 -166 -277v-4q91 -40 155 -123.5t64 -210.5q0 -96 -25 -171t-82.5 -137t-163.5 -96t-255 -34h-537zM416 846h315q103 0 158 46t55 134q0 91 -56.5 137.5t-158.5 46.5h-313v-364zM416 223h256q53 0 86.5 2t76 8t68 20.5
t49 37.5t34.5 60t11 87q0 65 -21.5 107t-67 63.5t-99 29t-135.5 7.5h-258v-422z" />
    <glyph glyph-name="C" unicode="C" horiz-adv-x="1359" 
d="M1024 561l254 -51q-25 -242 -176.5 -391.5t-390.5 -149.5q-103 0 -194 27.5t-169.5 87t-135 147.5t-88.5 215t-32 283q0 180 52 323.5t139.5 231.5t196.5 134t229 46q223 0 377 -140t180 -370l-250 -39q-53 326 -305 326q-74 0 -138 -28.5t-117 -88t-83.5 -161.5
t-30.5 -238q0 -138 29.5 -242.5t81 -166.5t116.5 -92.5t142 -30.5q268 0 313 368z" />
    <glyph glyph-name="D" unicode="D" horiz-adv-x="1345" 
d="M416 223h211q68 0 122.5 13t103.5 47t82 89t52 142.5t19 204.5q0 249 -99.5 370t-267.5 121h-223v-987zM174 0v1434h469q97 0 186.5 -26t169 -83t138.5 -139.5t93 -202.5t34 -264q0 -159 -36 -285t-95.5 -206t-142.5 -132.5t-171 -74t-188 -21.5h-457z" />
    <glyph glyph-name="E" unicode="E" horiz-adv-x="1189" 
d="M174 0v1434h893v-224h-651v-368h594v-215h-594v-404h651v-223h-893z" />
    <glyph glyph-name="F" unicode="F" horiz-adv-x="1150" 
d="M174 0v1434h895v-224h-653v-424h594v-213h-594v-573h-242z" />
    <glyph glyph-name="G" unicode="G" horiz-adv-x="1351" 
d="M709 -31q-129 0 -238 44t-195 133.5t-135 240.5t-49 350q0 174 52 315.5t139 229.5t196.5 135t229.5 47q215 0 364.5 -131t181.5 -352l-243 -39q-12 63 -34.5 114t-57.5 93.5t-89 66t-122 23.5q-156 0 -261.5 -130.5t-105.5 -371.5q0 -140 29 -246.5t80 -170.5t116 -95.5
t142 -31.5q149 0 233.5 87t83.5 244h-297v209h531v-172q0 -183 -71.5 -318.5t-195.5 -204.5t-284 -69z" />
    <glyph glyph-name="H" unicode="H" horiz-adv-x="1372" 
d="M174 0v1434h242v-590h540v590h242v-1434h-242v635h-540v-635h-242z" />
    <glyph glyph-name="I" unicode="I" horiz-adv-x="610" 
d="M184 0v1434h242v-1434h-242z" />
    <glyph glyph-name="J" unicode="J" horiz-adv-x="962" 
d="M31 299l223 74q36 -180 158 -180q79 0 113 38.5t34 128.5v1074h240v-1053q0 -213 -103.5 -312.5t-283.5 -99.5q-156 0 -257 93t-124 237z" />
    <glyph glyph-name="K" unicode="K" horiz-adv-x="1273" 
d="M154 0v1434h241v-639h4l535 639h293l-531 -631l588 -803h-291l-465 629h-4l-129 -164v-465h-241z" />
    <glyph glyph-name="L" unicode="L" horiz-adv-x="1058" 
d="M174 0v1434h242v-1211h602v-223h-844z" />
    <glyph glyph-name="M" unicode="M" horiz-adv-x="1767" 
d="M174 0v1434h281l430 -1000h4l426 1000h278v-1434h-241v985h-4l-433 -985h-61l-432 985h-6v-985h-242z" />
    <glyph glyph-name="N" unicode="N" horiz-adv-x="1415" 
d="M174 0v1434h252l569 -1014h4v1014h242v-1434h-246l-575 1014h-4v-1014h-242z" />
    <glyph glyph-name="O" unicode="O" horiz-adv-x="1417" 
d="M711 193q77 0 140.5 29.5t115 91t80 167t28.5 246.5q0 249 -104.5 380.5t-259.5 131.5q-157 0 -262 -130t-105 -380q0 -141 29 -246.5t80.5 -167.5t116 -92t141.5 -30zM711 -31q-97 0 -185.5 26t-168.5 84t-138 144.5t-92.5 216t-34.5 289.5q0 144 34.5 265.5t93.5 207
t138 145.5t168.5 88.5t184.5 28.5t183.5 -28.5t167 -89t137 -146t92.5 -207.5t34 -266q0 -160 -34 -289t-91.5 -215.5t-137 -144.5t-167 -83.5t-184.5 -25.5z" />
    <glyph glyph-name="P" unicode="P" horiz-adv-x="1255" 
d="M174 0v1434h571q219 0 354.5 -121.5t135.5 -331.5q0 -209 -130.5 -329t-356.5 -120h-332v-532h-242zM416 756h325q106 0 176 60t70 165q0 118 -71.5 173.5t-176.5 55.5h-323v-454z" />
    <glyph glyph-name="Q" unicode="Q" horiz-adv-x="1417" 
d="M1200 -33l-129 127q-155 -125 -360 -125q-97 0 -185.5 26t-168.5 84t-138 144.5t-92.5 216t-34.5 289.5q0 144 34.5 265.5t93.5 207t138 145.5t168.5 88.5t184.5 28.5t183.5 -28.5t167 -89t137 -146t92.5 -207.5t34 -266q0 -308 -135 -502l135 -133zM600 565l125 125
l295 -295q55 126 55 332q0 249 -104.5 380.5t-259.5 131.5q-157 0 -262 -130t-105 -380q0 -141 29 -246.5t80.5 -167.5t116 -92t141.5 -30q125 0 204 57z" />
    <glyph glyph-name="R" unicode="R" horiz-adv-x="1306" 
d="M174 0v1434h571q222 0 356 -118.5t134 -328.5q0 -163 -86.5 -270.5t-233.5 -145.5l310 -571h-269l-290 551h-250v-551h-242zM416 760h311q123 0 193.5 55t70.5 172t-70 172t-194 55h-311v-454z" />
    <glyph glyph-name="S" unicode="S" horiz-adv-x="1236" 
d="M82 483l254 56q28 -183 97 -264.5t226 -81.5q131 0 205 52t74 142q0 62 -26.5 100t-106 76t-246.5 90q-225 70 -322.5 170t-97.5 244q0 78 31.5 149.5t89.5 126.5t149 88t201 33q97 0 182.5 -23.5t156 -70.5t119 -123.5t65.5 -175.5l-236 -57q-29 107 -94.5 166
t-192.5 59q-116 0 -174.5 -47.5t-58.5 -122.5q0 -37 11.5 -60t52.5 -50t107.5 -53t190.5 -68q131 -44 214.5 -87.5t133.5 -96.5t69.5 -112t19.5 -141q0 -187 -140.5 -309.5t-378.5 -122.5q-248 0 -395.5 130t-179.5 384z" />
    <glyph glyph-name="T" unicode="T" horiz-adv-x="1157" 
d="M459 0v1210h-428v224h1095v-224h-426v-1210h-241z" />
    <glyph glyph-name="U" unicode="U" horiz-adv-x="1345" 
d="M143 467v967h242v-955q0 -136 72.5 -211t214.5 -75q143 0 217 75t74 207v959h239v-967q0 -231 -145 -364.5t-385 -133.5t-384.5 133.5t-144.5 364.5z" />
    <glyph glyph-name="V" unicode="V" horiz-adv-x="1296" 
d="M535 0l-515 1434h254l377 -1082h8l365 1082h252l-508 -1434h-233z" />
    <glyph glyph-name="W" unicode="W" horiz-adv-x="1843" 
d="M346 0l-274 1434h245l195 -1010h4l340 1010h137l338 -1010h4l195 1010h242l-275 -1434h-252l-323 983h-4l-318 -983h-254z" />
    <glyph glyph-name="X" unicode="X" horiz-adv-x="1230" 
d="M31 0l446 764l-393 670h274l279 -519h6l275 519h266l-410 -711l426 -723h-274l-312 571h-4l-313 -571h-266z" />
    <glyph glyph-name="Y" unicode="Y" horiz-adv-x="1196" 
d="M479 0v604l-469 830h258l328 -611h4l330 611h256l-469 -830v-604h-238z" />
    <glyph glyph-name="Z" unicode="Z" horiz-adv-x="1214" 
d="M92 0v219l731 979v4h-698v232h997v-220l-735 -981v-4h729v-229h-1024z" />
    <glyph glyph-name="bracketleft" unicode="[" horiz-adv-x="741" 
d="M154 -373v1868h516v-156h-348v-1556h348v-156h-516z" />
    <glyph glyph-name="backslash" unicode="\" horiz-adv-x="927" 
d="M758 -90l-738 1552l150 68l737 -1557z" />
    <glyph glyph-name="bracketright" unicode="]" horiz-adv-x="741" 
d="M649 1495v-1868h-516v156h348v1556h-348v156h516z" />
    <glyph glyph-name="asciicircum" unicode="^" horiz-adv-x="1136" 
d="M133 666l354 768h162l355 -768h-189l-246 561l-245 -561h-191z" />
    <glyph glyph-name="underscore" unicode="_" horiz-adv-x="1253" 
d="M113 -313v170h1028v-170h-1028z" />
    <glyph glyph-name="grave" unicode="`" horiz-adv-x="604" 
d="M315 1219l-223 254h256l164 -254h-197z" />
    <glyph glyph-name="a" unicode="a" horiz-adv-x="1107" 
d="M776 0v109h-4q-6 -9 -15.5 -21t-36 -34.5t-59 -40t-85 -31t-111.5 -13.5q-98 0 -173.5 26.5t-120 71.5t-67 101t-22.5 119q0 140 84.5 215t284.5 123q181 45 235.5 74.5t54.5 86.5q0 56 -49.5 92.5t-148.5 36.5q-60 0 -103.5 -15.5t-70 -44.5t-41.5 -59t-27 -71l-199 76
q35 139 145.5 227t289.5 88q94 0 171 -23t138 -71t95 -129.5t34 -190.5v-702h-199zM498 459q-114 -28 -152.5 -66t-38.5 -90q0 -131 178 -131q131 0 198 53t67 129v217h-5q-8 -17 -21.5 -29t-69 -34t-156.5 -49z" />
    <glyph glyph-name="b" unicode="b" horiz-adv-x="1224" 
d="M387 662v-246q0 -98 68.5 -167t181.5 -69q130 0 201 93t71 270t-71 269.5t-201 92.5q-115 0 -182.5 -72t-67.5 -171zM154 0v1495h233v-514h4q9 12 20 23.5t38 33.5t56.5 37.5t75.5 28t95 12.5q203 0 335 -158t132 -415q0 -261 -128 -417.5t-343 -156.5q-177 0 -297 135
h-4v-104h-217z" />
    <glyph glyph-name="c" unicode="c" horiz-adv-x="1116" 
d="M813 432l231 -49q-33 -196 -150 -305t-308 -109q-221 0 -362.5 152t-141.5 422q0 261 143 417t359 156q186 0 306.5 -111.5t141.5 -289.5l-219 -37q-15 102 -70 164.5t-157 62.5q-125 0 -199 -95t-74 -267q0 -171 71.5 -267t201.5 -96q191 0 227 252z" />
    <glyph glyph-name="d" unicode="d" horiz-adv-x="1224" 
d="M838 416v246q0 100 -66.5 171.5t-181.5 71.5q-132 0 -203.5 -92.5t-71.5 -269.5t71.5 -270t203.5 -93q112 0 180 69t68 167zM854 0v104h-4q-11 -14 -28 -30t-54 -43t-94 -44.5t-121 -17.5q-215 0 -343 156.5t-128 417.5q0 133 39 243t104.5 181t149.5 110t176 39
q177 0 283 -135h4v514h233v-1495h-217z" />
    <glyph glyph-name="e" unicode="e" horiz-adv-x="1157" 
d="M874 360l168 -137q-158 -254 -450 -254q-224 0 -367 157t-143 417q0 172 65.5 303.5t179 200.5t255.5 69q216 0 354.5 -155.5t138.5 -417.5v-70h-758q5 -136 75 -216.5t196 -80.5q48 0 89.5 13t69 29.5t54.5 45.5t40.5 47.5t32.5 48.5zM319 649h529q-6 115 -73.5 187.5
t-192.5 72.5q-118 0 -187 -78t-76 -182z" />
    <glyph glyph-name="f" unicode="f" horiz-adv-x="712" 
d="M205 0v885h-164v200h168v158q0 139 68.5 195.5t199.5 56.5h201v-207h-154q-54 0 -74 -20.5t-20 -77.5v-105h272v-200h-266v-885h-231z" />
    <glyph glyph-name="g" unicode="g" horiz-adv-x="1230" 
d="M162 -213l180 115q43 -94 104.5 -141.5t163.5 -47.5q112 0 178 62t66 186v139h-4q-36 -53 -111 -92t-170 -39q-102 0 -191 39t-154.5 110.5t-103.5 181t-38 243.5q0 133 40 243t107 181t154 110t182 39q101 0 174.5 -38t118.5 -97h4v104h225v-1091q0 -235 -131.5 -360.5
t-345.5 -125.5q-169 0 -283.5 76.5t-164.5 202.5zM854 408v262q0 96 -68 165.5t-182 69.5q-131 0 -210 -94t-79 -268q0 -175 78.5 -269t210.5 -94q111 0 180.5 66.5t69.5 161.5z" />
    <glyph glyph-name="h" unicode="h" horiz-adv-x="1216" 
d="M154 0v1495h233v-516h4q36 55 120.5 96t170.5 41q175 0 283 -106.5t108 -290.5v-719h-231v664q0 106 -57.5 171.5t-166.5 65.5q-104 0 -167.5 -62t-63.5 -157v-682h-233z" />
    <glyph glyph-name="i" unicode="i" horiz-adv-x="548" 
d="M158 0v1085h233v-1085h-233zM154 1264v231h241v-231h-241z" />
    <glyph glyph-name="j" unicode="j" horiz-adv-x="548" 
d="M31 -399v243h45q43 0 62.5 24t19.5 75v1142h233v-1200q0 -143 -64 -213.5t-198 -70.5h-98zM154 1264v231h241v-231h-241z" />
    <glyph glyph-name="k" unicode="k" horiz-adv-x="1155" 
d="M154 0v1495h233v-874h4l416 464h297l-393 -436l434 -649h-264l-344 514h-5l-145 -160v-354h-233z" />
    <glyph glyph-name="l" unicode="l" horiz-adv-x="548" 
d="M154 0v1495h241v-1495h-241z" />
    <glyph glyph-name="m" unicode="m" horiz-adv-x="1761" 
d="M154 0v1085h213v-104h4q38 59 110.5 97t157.5 38q91 0 165.5 -42t113.5 -107h4q41 64 118 106.5t172 42.5q187 0 296.5 -103t109.5 -272v-741h-215v688q0 99 -49 156t-152 57q-97 0 -150 -54.5t-53 -144.5v-702h-217v688q0 98 -50 155.5t-148 57.5q-101 0 -152 -56
t-51 -143v-702h-227z" />
    <glyph glyph-name="n" unicode="n" horiz-adv-x="1206" 
d="M154 0v1085h225v-104h4q45 58 124.5 96.5t168.5 38.5q180 0 283.5 -107t103.5 -298v-711h-232v649q0 125 -49 188.5t-161 63.5q-107 0 -170.5 -61.5t-63.5 -165.5v-674h-233z" />
    <glyph glyph-name="o" unicode="o" horiz-adv-x="1167" 
d="M586 180q122 0 196 95t74 268t-74 267.5t-196 94.5q-123 0 -198 -93.5t-75 -268.5q0 -176 74.5 -269.5t198.5 -93.5zM586 -31q-107 0 -198.5 38t-159.5 109.5t-107 181t-39 245.5q0 135 41 245.5t111 181t160.5 108.5t191.5 38t190.5 -38t158.5 -108.5t109.5 -181
t40.5 -245.5q0 -270 -140.5 -422t-358.5 -152z" />
    <glyph glyph-name="p" unicode="p" horiz-adv-x="1241" 
d="M387 670v-262q0 -95 69.5 -161.5t180.5 -66.5q132 0 210.5 94t78.5 269q0 174 -79 268t-210 94q-114 0 -182 -69.5t-68 -165.5zM154 -461v1546h223v-104h4q9 11 18 21.5t37 33.5t58.5 38.5t80.5 28.5t105 13q94 0 179.5 -39t152.5 -110t107 -181t40 -243t-37.5 -243
t-102.5 -181.5t-151.5 -110.5t-185.5 -39q-65 0 -120.5 17t-92 45t-51.5 42.5t-27 30.5h-4v-565h-233z" />
    <glyph glyph-name="q" unicode="q" horiz-adv-x="1241" 
d="M854 408v262q0 96 -68 165.5t-182 69.5q-131 0 -210 -94t-79 -268q0 -175 78.5 -269t210.5 -94q111 0 180.5 66.5t69.5 161.5zM854 -461v565h-4l-6 -7q-5 -7 -10 -12.5t-15 -15.5t-20 -18.5t-25 -19t-31 -19t-36.5 -17t-42.5 -14t-49 -9t-56 -3.5q-99 0 -185.5 39
t-151.5 110.5t-102.5 181.5t-37.5 243t40 243t107 181t152.5 110t179.5 39q55 0 105 -13t80.5 -28.5t58.5 -38.5t37 -33.5t18 -21.5h4v104h223v-1546h-233z" />
    <glyph glyph-name="r" unicode="r" horiz-adv-x="741" 
d="M154 0v1085h221v-114h4q32 62 93.5 98.5t131.5 36.5q44 0 96 -21l-36 -227q-61 16 -86 16q-191 0 -191 -270v-604h-233z" />
    <glyph glyph-name="s" unicode="s" horiz-adv-x="1058" 
d="M72 362l213 52q14 -121 80.5 -184.5t181.5 -63.5q109 0 169 37.5t60 101.5q0 61 -54.5 89.5t-244.5 82.5q-191 54 -277.5 126.5t-86.5 191.5q0 131 106.5 226t292.5 95t295.5 -85.5t148.5 -231.5l-196 -58q-29 86 -86 133.5t-162 47.5q-87 0 -136.5 -34.5t-49.5 -82.5
q0 -19 4 -32t19 -26.5t33 -23t59 -24t84.5 -27.5t119.5 -35q134 -38 210.5 -87.5t104 -107t27.5 -141.5q0 -60 -25 -116.5t-75 -106t-136 -79.5t-196 -30q-93 0 -170 22t-130.5 59.5t-92.5 88.5t-60.5 106.5t-29.5 116.5z" />
    <glyph glyph-name="t" unicode="t" horiz-adv-x="776" 
d="M205 362v523h-164v200h170v267h221v-267h273v-200h-271v-498q0 -90 28 -126t113 -36h87v-225h-105q-197 0 -274.5 87t-77.5 275z" />
    <glyph glyph-name="u" unicode="u" horiz-adv-x="1177" 
d="M143 383v702h234v-675q0 -120 43.5 -168.5t146.5 -48.5t163.5 57.5t60.5 175.5v659h233v-1085h-225v104h-4q-13 -18 -32 -36.5t-53 -43t-85.5 -40t-110.5 -15.5q-186 0 -278.5 109t-92.5 305z" />
    <glyph glyph-name="v" unicode="v" horiz-adv-x="1128" 
d="M467 0l-436 1085h241l291 -749h4l291 749h240l-436 -1085h-195z" />
    <glyph glyph-name="w" unicode="w" horiz-adv-x="1644" 
d="M311 0l-239 1085h229l154 -755h4l258 755h211l241 -753h5l174 753h225l-260 -1085h-226l-264 815h-4l-284 -815h-224z" />
    <glyph glyph-name="x" unicode="x" horiz-adv-x="1103" 
d="M31 0l375 559l-353 526h246l252 -383h4l250 383h246l-351 -526l373 -559h-252l-268 408h-4l-266 -408h-252z" />
    <glyph glyph-name="y" unicode="y" horiz-adv-x="1101" 
d="M238 -461l204 510l-422 1036h246l285 -747h4l285 747h241l-618 -1546h-225z" />
    <glyph glyph-name="z" unicode="z" horiz-adv-x="1110" 
d="M92 0v193l613 673v4h-584v215h883v-188l-603 -670v-4h617v-223h-926z" />
    <glyph glyph-name="braceleft" unicode="{" horiz-adv-x="792" 
d="M258 -53v426q0 65 -24 92t-84 27h-58v182h58q59 0 83.5 29.5t24.5 95.5v377q0 94 21 157.5t64 98.5t98 49t132 14h107v-164h-125q-70 0 -99.5 -41.5t-29.5 -142.5v-354q0 -49 -14.5 -89t-34.5 -61t-42 -35.5t-35.5 -19t-16.5 -4.5l5 -2q6 -2 14 -6l19 -9.5t22.5 -15
t23.5 -20.5t22.5 -27t18.5 -34t13 -42t5 -51v-402q0 -101 31 -142.5t106 -41.5h117v-164h-107q-77 0 -132 14.5t-98 49.5t-64 98.5t-21 157.5z" />
    <glyph glyph-name="bar" unicode="|" horiz-adv-x="548" 
d="M195 -614v2201h159v-2201h-159z" />
    <glyph glyph-name="braceright" unicode="}" horiz-adv-x="792" 
d="M494 373v-426q0 -94 -21 -157.5t-64.5 -98.5t-98.5 -49.5t-132 -14.5h-106v164h116q75 0 106.5 41.5t31.5 142.5v402q0 27 5 51t13 42t18.5 34t22.5 27t23.5 20.5t22.5 15l19 9.5t14 6l5 2q-3 0 -16.5 4.5t-35.5 19t-42 35.5t-34.5 61t-14.5 89v354q0 101 -29.5 142.5
t-99.5 41.5h-125v164h106q77 0 132 -14t98.5 -49t64.5 -98.5t21 -157.5v-377q0 -66 24.5 -95.5t83.5 -29.5h57v-182h-57q-60 0 -84 -27t-24 -92z" />
    <glyph glyph-name="asciitilde" unicode="~" horiz-adv-x="1230" 
d="M383 762q-35 0 -62 -17t-44.5 -48.5t-26 -56.5t-17.5 -60l-141 45q14 85 50 155t100.5 118t146.5 48q68 0 137 -28t116 -61t103 -61t101 -28q29 0 53 13t39 30t27.5 44.5t18.5 47t13 47.5l142 -45q-14 -85 -50 -155t-100.5 -118t-146.5 -48q-68 0 -137.5 28t-117 61
t-103.5 61t-101 28z" />
    <glyph glyph-name="nbspace" unicode="&#xa0;" horiz-adv-x="409" 
 />
    <glyph glyph-name="exclamdown" unicode="&#xa1;" horiz-adv-x="673" 
d="M205 -348v977h241v-977h-241zM184 813v272h285v-272h-285z" />
    <glyph glyph-name="cent" unicode="&#xa2;" horiz-adv-x="1146" 
d="M834 432l231 -49q-31 -189 -141 -297t-289 -117v-194h-72v196q-205 14 -333 164.5t-128 407.5q0 248 129.5 402t331.5 169v178h72v-178q172 -9 284.5 -119t133.5 -280l-219 -37q-33 209 -199 225v-721q164 18 199 250zM334 543q0 -157 59.5 -251.5t169.5 -109.5v719
q-106 -15 -167.5 -108.5t-61.5 -249.5z" />
    <glyph glyph-name="sterling" unicode="&#xa3;" horiz-adv-x="1325" 
d="M174 0v223h68q106 0 106 105v301h-174v166h174v223q0 226 113 336t305 110q182 0 291.5 -104t134.5 -301l-225 -45q-22 126 -63 180.5t-134 54.5q-182 0 -182 -225v-229h373v-166h-373v-406h602v-223h-1016z" />
    <glyph glyph-name="currency" unicode="&#xa4;" horiz-adv-x="1349" 
d="M154 233l133 134q-97 134 -97 307q0 168 97 305l-133 133l82 82l129 -131q137 117 309 117q181 0 313 -113l127 127l82 -82l-131 -131q94 -137 94 -307q0 -177 -96 -309l133 -132l-82 -81l-131 129q-130 -105 -309 -105q-181 0 -307 107l-131 -131zM676 389q48 0 89.5 14
t78 45t57.5 88t21 136q0 81 -21 140t-57.5 90.5t-78 46t-89.5 14.5q-49 0 -91 -14.5t-78.5 -46t-57.5 -90.5t-21 -140q0 -79 21 -136t57.5 -88t78.5 -45t91 -14z" />
    <glyph glyph-name="yen" unicode="&#xa5;" horiz-adv-x="1366" 
d="M147 254v190h414v166h-414v189h304l-359 635h264l322 -598h4l326 598h266l-363 -635h306v-189h-414v-166h414v-190h-416v-254h-240v254h-414z" />
    <glyph glyph-name="brokenbar" unicode="&#xa6;" horiz-adv-x="583" 
d="M195 657v670h194v-670h-194zM195 -268v669h194v-669h-194z" />
    <glyph glyph-name="section" unicode="&#xa7;" horiz-adv-x="1316" 
d="M502 485l280 -108q60 -23 95 -49q39 29 62.5 69.5t23.5 77.5q0 92 -146 148l-282 108q-58 22 -93 47q-40 -29 -64 -69t-24 -76q0 -93 148 -148zM846 16q0 61 -38.5 101.5t-121.5 75.5l-340 135q-231 91 -231 299q-1 85 49 160.5t131 117.5q-57 72 -57 193
q0 163 113.5 264.5t289.5 101.5q182 0 301 -99t145 -288l-221 -45q-32 217 -217 217q-89 0 -132.5 -47t-43.5 -108q0 -63 38 -104.5t120 -74.5l340 -137q230 -91 233 -299q0 -84 -51 -160t-131 -118q59 -71 59 -189q0 -163 -113.5 -264.5t-289.5 -101.5q-182 0 -301.5 99
t-145.5 288l222 45q32 -217 217 -217q89 0 132.5 47t43.5 108z" />
    <glyph glyph-name="dieresis" unicode="&#xa8;" horiz-adv-x="856" 
d="M113 1229v219h229v-219h-229zM516 1229v219h227v-219h-227z" />
    <glyph glyph-name="copyright" unicode="&#xa9;" horiz-adv-x="1447" 
d="M723 92q-176 0 -321 83t-227.5 228.5t-82.5 321.5t82.5 320.5t227.5 227.5t321 83t321.5 -83t228.5 -228t83 -320q0 -176 -83 -321.5t-228.5 -228.5t-321.5 -83zM723 213q213 0 358.5 148t145.5 364q0 140 -66 256.5t-182 184t-256 67.5t-255.5 -67.5t-181 -184
t-65.5 -256.5q0 -216 144.5 -364t357.5 -148zM860 645l162 -41q-22 -131 -98 -202.5t-191 -71.5q-142 0 -233.5 103.5t-91.5 287.5q0 182 93.5 286.5t231.5 104.5q113 0 188.5 -72.5t94.5 -195.5l-160 -29q-10 62 -41 102.5t-82 40.5q-68 0 -111.5 -61t-43.5 -176
q0 -126 44 -182t111 -56q106 0 127 162z" />
    <glyph glyph-name="ordfeminine" unicode="&#xaa;" horiz-adv-x="722" 
d="M489 786v62h-2q-2 -3 -6 -8.5t-19 -19.5t-33 -24.5t-49 -19t-67 -8.5q-116 0 -173.5 55t-57.5 135q0 84 48.5 125.5t168.5 71.5q75 18 111 32t45.5 25.5t9.5 30.5q0 31 -27 52.5t-80 21.5q-63 0 -94.5 -30t-46.5 -77l-127 52q24 79 90.5 130.5t173.5 51.5
q118 0 192.5 -61.5t74.5 -190.5v-406h-132zM330 1051q-59 -15 -78 -35.5t-19 -46.5q0 -66 93 -66q73 0 108 27.5t35 66.5v113h-2q-4 -9 -10 -14.5t-37.5 -18t-89.5 -26.5z" />
    <glyph glyph-name="guillemotleft" unicode="&#xab;" horiz-adv-x="1175" 
d="M399 195l-225 380l221 381h215l-223 -381l227 -380h-215zM807 195l-225 380l221 381h215l-223 -381l227 -380h-215z" />
    <glyph glyph-name="logicalnot" unicode="&#xac;" horiz-adv-x="1243" 
d="M113 709v215h977v-549h-226v334h-751z" />
    <glyph glyph-name="registered" unicode="&#xae;" horiz-adv-x="903" 
d="M453 791q124 0 207 84.5t83 209.5t-83 209t-207 84q-125 0 -209 -84t-84 -209t84.5 -209.5t208.5 -84.5zM453 725q-154 0 -257.5 103t-103.5 257t103.5 257.5t257.5 103.5q152 0 255 -103.5t103 -257.5t-103 -257t-255 -103zM324 868v430h143q71 0 110 -34.5t39 -98.5
q0 -48 -26 -80.5t-70 -46.5l94 -170h-84l-86 166h-43v-166h-77zM401 1102h60q80 0 80 63q0 64 -80 64h-60v-127z" />
    <glyph glyph-name="macron" unicode="&#xaf;" horiz-adv-x="815" 
d="M113 1270v151h589v-151h-589z" />
    <glyph glyph-name="degree" unicode="&#xb0;" horiz-adv-x="794" 
d="M397 983q-129 0 -212 87t-83 216q0 127 85.5 217t209.5 90q128 0 211.5 -88.5t83.5 -218.5q0 -132 -83 -217.5t-212 -85.5zM397 1135q56 0 92.5 34t36.5 117q0 85 -37 120.5t-92 35.5q-57 0 -94 -35.5t-37 -120.5q0 -151 131 -151z" />
    <glyph glyph-name="plusminus" unicode="&#xb1;" horiz-adv-x="1214" 
d="M92 856v184h418v322h195v-322h417v-184h-417v-364h-195v364h-418zM139 176v184h944v-184h-944z" />
    <glyph glyph-name="twosuperior" unicode="&#xb2;" horiz-adv-x="718" 
d="M61 969v127q0 110 58 180q48 57 192 129q105 54 133 76q58 46 58 112q0 47 -36.5 79t-96.5 32q-74 0 -111.5 -41.5t-46.5 -124.5l-160 21q9 139 93 216.5t227 77.5q125 0 208 -72t83 -198q0 -53 -18.5 -97t-53.5 -77.5t-71.5 -57t-86.5 -46.5q-89 -46 -123.5 -67.5
t-48.5 -43.5q-14 -20 -14 -55h422v-170h-607z" />
    <glyph glyph-name="threesuperior" unicode="&#xb3;" horiz-adv-x="776" 
d="M31 1255l162 37q24 -184 172 -184q72 0 112.5 32.5t40.5 92.5q0 125 -147 125h-68v131h49q60 0 91.5 26t31.5 76q0 53 -29.5 83t-89.5 30q-110 0 -129 -129l-155 29q12 117 89.5 183t200.5 66q117 0 194 -63.5t77 -171.5q0 -70 -35 -114.5t-72 -59.5v-4q22 -6 44.5 -20.5
t47.5 -39.5t40.5 -66.5t15.5 -92.5q0 -113 -81 -188t-228 -75q-139 0 -227.5 75.5t-106.5 221.5z" />
    <glyph glyph-name="acute" unicode="&#xb4;" horiz-adv-x="604" 
d="M92 1219l164 254h256l-223 -254h-197z" />
    <glyph glyph-name="mu" unicode="&#xb5;" horiz-adv-x="1210" 
d="M164 -461v1546h233v-647q0 -120 57.5 -182.5t166.5 -62.5q104 0 158.5 58.5t54.5 162.5v671h233v-1085h-227v104h-4q-26 -51 -89.5 -93t-150.5 -42q-64 0 -118 20t-85 54h-2v-504h-227z" />
    <glyph glyph-name="paragraph" unicode="&#xb6;" horiz-adv-x="1126" 
d="M340 -279v910q-140 3 -235 97.5t-95 242.5q0 158 96.5 249t241.5 91h625v-1590h-178v1389h-275v-1389h-180z" />
    <glyph glyph-name="periodcentered" unicode="&#xb7;" horiz-adv-x="632" 
d="M174 621v272h285v-272h-285z" />
    <glyph glyph-name="cedilla" unicode="&#xb8;" horiz-adv-x="550" 
d="M31 -346l80 96q68 -65 149 -65q100 0 100 73q0 29 -27.5 45.5t-62.5 16.5q-28 0 -54 -8t-38 -16l-12 -7l-90 49l96 162h113l-76 -119l2 -2q46 31 113 31q65 0 119.5 -42.5t54.5 -113.5q0 -93 -62.5 -144.5t-163.5 -51.5q-145 0 -241 96z" />
    <glyph glyph-name="onesuperior" unicode="&#xb9;" horiz-adv-x="536" 
d="M219 969v682l-188 -117v184l200 125h152v-874h-164z" />
    <glyph glyph-name="ordmasculine" unicode="&#xba;" horiz-adv-x="716" 
d="M358 909q67 0 106.5 52t39.5 147q0 93 -40.5 145t-105.5 52t-106 -51.5t-41 -145.5q0 -96 39.5 -147.5t107.5 -51.5zM358 768q-129 0 -213 90.5t-84 249.5q0 158 86 248t211 90t211 -90t86 -248q0 -159 -84 -249.5t-213 -90.5z" />
    <glyph glyph-name="guillemotright" unicode="&#xbb;" horiz-adv-x="1175" 
d="M991 575l-225 -380h-215l227 380l-223 381h215zM584 575l-226 -380h-215l228 380l-224 381h215z" />
    <glyph glyph-name="onequarter" unicode="&#xbc;" horiz-adv-x="1679" 
d="M248 -74l1001 1669l133 -82l-999 -1667zM229 559v682l-188 -117v185l201 125h151v-875h-164zM952 174v154l332 546h236v-546h98v-154h-98v-174h-168v174h-400zM1108 328h246v397h-4z" />
    <glyph glyph-name="onehalf" unicode="&#xbd;" horiz-adv-x="1789" 
d="M248 -76l1001 1669l133 -82l-999 -1667zM229 557v682l-188 -117v185l201 125h151v-875h-164zM1061 0v127q0 111 57 180q47 56 193 129q106 54 136 79q54 45 54 110q0 47 -36.5 78.5t-96.5 31.5q-74 0 -111.5 -41.5t-46.5 -124.5l-159 21q9 140 93 217.5t226 77.5
q125 0 208 -72.5t83 -198.5q0 -53 -18.5 -97t-53 -77.5t-71.5 -57t-86 -46.5q-89 -46 -123.5 -67.5t-48.5 -43.5q-15 -21 -15 -55h422v-170h-606z" />
    <glyph glyph-name="threequarters" unicode="&#xbe;" horiz-adv-x="1820" 
d="M416 -74l1001 1669l133 -82l-999 -1667zM61 846l162 37q24 -185 172 -185q72 0 113 32.5t41 92.5q0 125 -148 125h-67v131h49q60 0 91.5 26.5t31.5 76.5q0 53 -29.5 82.5t-89.5 29.5q-110 0 -129 -129l-156 29q12 117 90 183.5t201 66.5q117 0 194 -64t77 -172
q0 -70 -35 -114.5t-72 -59.5v-4q22 -6 44.5 -20.5t47.5 -39.5t40.5 -66.5t15.5 -92.5q0 -113 -81 -187.5t-229 -74.5q-139 0 -227.5 75.5t-106.5 221.5zM1094 174v154l331 546h236v-546h98v-154h-98v-174h-168v174h-399zM1249 328h246v397h-4z" />
    <glyph glyph-name="questiondown" unicode="&#xbf;" horiz-adv-x="1083" 
d="M682 645v-80q0 -52 -13.5 -94t-43.5 -75.5t-59.5 -57t-78.5 -55.5q-94 -64 -123 -92q-69 -68 -69 -160q0 -77 55.5 -132t171.5 -55q60 0 106.5 16.5t76 43.5t49 65t28 76.5t11.5 83.5l229 -23q-3 -217 -132 -351t-374 -134q-195 0 -325 113t-130 282q0 72 15.5 127t49 97
t64.5 68.5t82 60.5q14 9 44 29t42 28.5t34 25.5t31 28.5t20.5 28t15.5 34.5t4 39v63h219zM702 1085v-272h-282v272h282z" />
    <glyph glyph-name="Agrave" unicode="&#xc0;" horiz-adv-x="1269" 
d="M1010 0l-86 246h-580l-84 -246h-240l517 1434h196l516 -1434h-239zM633 1083l-217 -630h436l-215 630h-4zM532 1567l-223 254h256l164 -254h-197z" />
    <glyph glyph-name="Aacute" unicode="&#xc1;" horiz-adv-x="1269" 
d="M1010 0l-86 246h-580l-84 -246h-240l517 1434h196l516 -1434h-239zM633 1083l-217 -630h436l-215 630h-4zM555 1567l164 254h258l-225 -254h-197z" />
    <glyph glyph-name="Acircumflex" unicode="&#xc2;" horiz-adv-x="1269" 
d="M1010 0l-86 246h-580l-84 -246h-240l517 1434h196l516 -1434h-239zM633 1083l-217 -630h436l-215 630h-4zM381 1628l137 176h258l139 -176l-127 -98l-141 180l-143 -180z" />
    <glyph glyph-name="Atilde" unicode="&#xc3;" horiz-adv-x="1269" 
d="M1010 0l-86 246h-580l-84 -246h-240l517 1434h196l516 -1434h-239zM633 1083l-217 -630h436l-215 630h-4zM453 1567h-121q35 213 198 213q52 0 100 -19.5t85 -39t63 -19.5q58 0 74 67h121q-35 -213 -199 -213q-52 0 -100.5 19.5t-85.5 39t-62 19.5q-31 0 -48 -16.5
t-25 -50.5z" />
    <glyph glyph-name="Adieresis" unicode="&#xc4;" horiz-adv-x="1269" 
d="M1010 0l-86 246h-580l-84 -246h-240l517 1434h196l516 -1434h-239zM633 1083l-217 -630h436l-215 630h-4zM332 1567v219h229v-219h-229zM735 1567v219h228v-219h-228z" />
    <glyph glyph-name="Aring" unicode="&#xc5;" horiz-adv-x="1269" 
d="M1010 0l-86 246h-580l-84 -246h-240l512 1423q-44 28 -69 77t-25 108q0 90 60.5 153.5t148.5 63.5q92 0 151.5 -62.5t59.5 -154.5q0 -67 -31.5 -119.5t-85.5 -77.5l508 -1411h-239zM633 1083l-217 -630h436l-215 630h-4zM647 1501q35 0 62.5 29t27.5 80q0 52 -27 79
t-63 27t-61 -27t-25 -79q0 -51 25.5 -80t60.5 -29z" />
    <glyph glyph-name="AE" unicode="&#xc6;" horiz-adv-x="1777" 
d="M20 0l539 1434h1096v-224h-574v-368h516v-209h-516v-410h574v-223h-815v268h-471l-101 -268h-248zM444 481h396v729h-129z" />
    <glyph glyph-name="Ccedilla" unicode="&#xc7;" horiz-adv-x="1359" 
d="M528 -346l80 96q68 -65 150 -65q100 0 100 73q0 29 -27.5 45.5t-62.5 16.5q-28 0 -54 -8t-38 -16l-12 -7l-91 49l80 135q-120 10 -219.5 59t-177 139t-121 232.5t-43.5 325.5q0 180 52 323.5t139.5 231.5t196.5 134t229 46q223 0 377 -140t180 -370l-250 -39
q-53 326 -305 326q-74 0 -138 -28.5t-117 -88t-83.5 -161.5t-30.5 -238q0 -138 29.5 -242.5t81 -166.5t116.5 -92.5t142 -30.5q268 0 313 368l254 -51q-24 -228 -160 -374.5t-354 -164.5l-57 -90l2 -2q47 31 112 31t119.5 -42.5t54.5 -113.5q0 -93 -62 -144.5t-163 -51.5
q-146 0 -242 96z" />
    <glyph glyph-name="Egrave" unicode="&#xc8;" horiz-adv-x="1189" 
d="M174 0v1434h893v-224h-651v-368h594v-215h-594v-404h651v-223h-893zM545 1567l-223 254h256l163 -254h-196z" />
    <glyph glyph-name="Eacute" unicode="&#xc9;" horiz-adv-x="1189" 
d="M174 0v1434h893v-224h-651v-368h594v-215h-594v-404h651v-223h-893zM485 1567l164 254h258l-225 -254h-197z" />
    <glyph glyph-name="Ecircumflex" unicode="&#xca;" horiz-adv-x="1189" 
d="M174 0v1434h893v-224h-651v-368h594v-215h-594v-404h651v-223h-893zM354 1628l138 176h258l139 -176l-127 -98l-141 180l-144 -180z" />
    <glyph glyph-name="Edieresis" unicode="&#xcb;" horiz-adv-x="1189" 
d="M174 0v1434h893v-224h-651v-368h594v-215h-594v-404h651v-223h-893zM295 1567v219h229v-219h-229zM698 1567v219h228v-219h-228z" />
    <glyph glyph-name="Igrave" unicode="&#xcc;" horiz-adv-x="610" 
d="M184 0v1434h242v-1434h-242zM186 1567l-223 254h256l164 -254h-197z" />
    <glyph glyph-name="Iacute" unicode="&#xcd;" horiz-adv-x="610" 
d="M184 0v1434h242v-1434h-242zM168 1567l164 254h258l-225 -254h-197z" />
    <glyph glyph-name="Icircumflex" unicode="&#xce;" horiz-adv-x="610" 
d="M184 0v1434h242v-1434h-242zM12 1628l138 176h258l139 -176l-127 -98l-141 180l-144 -180z" />
    <glyph glyph-name="Idieresis" unicode="&#xcf;" horiz-adv-x="610" 
d="M184 0v1434h242v-1434h-242zM-37 1567v219h230v-219h-230zM367 1567v219h227v-219h-227z" />
    <glyph glyph-name="Eth" unicode="&#xd0;" horiz-adv-x="1384" 
d="M203 0v645h-142v199h142v590h479q98 0 187.5 -26t169 -83t138 -139.5t92.5 -202t34 -264.5q0 -159 -35.5 -285t-95 -206t-142.5 -132.5t-171.5 -74t-188.5 -21.5h-467zM444 223h222q68 0 121.5 13t103 47t82 89t52 142.5t19.5 204.5q0 252 -99 371.5t-267 119.5h-234
v-366h310v-199h-310v-422z" />
    <glyph glyph-name="Ntilde" unicode="&#xd1;" horiz-adv-x="1415" 
d="M174 0v1434h252l569 -1014h4v1014h242v-1434h-246l-575 1014h-4v-1014h-242zM516 1567h-121q35 213 199 213q52 0 100 -19.5t85 -39t63 -19.5q57 0 73 67h121q-35 -213 -198 -213q-52 0 -100.5 19.5t-85.5 39t-62 19.5q-58 0 -74 -67z" />
    <glyph glyph-name="Ograve" unicode="&#xd2;" horiz-adv-x="1417" 
d="M711 193q77 0 140.5 29.5t115 91t80 167t28.5 246.5q0 249 -104.5 380.5t-259.5 131.5q-157 0 -262 -130t-105 -380q0 -141 29 -246.5t80.5 -167.5t116 -92t141.5 -30zM711 -31q-97 0 -185.5 26t-168.5 84t-138 144.5t-92.5 216t-34.5 289.5q0 144 34.5 265.5t93.5 207
t138 145.5t168.5 88.5t184.5 28.5t183.5 -28.5t167 -89t137 -146t92.5 -207.5t34 -266q0 -160 -34 -289t-91.5 -215.5t-137 -144.5t-167 -83.5t-184.5 -25.5zM621 1567l-224 254h256l164 -254h-196z" />
    <glyph glyph-name="Oacute" unicode="&#xd3;" horiz-adv-x="1417" 
d="M711 193q77 0 140.5 29.5t115 91t80 167t28.5 246.5q0 249 -104.5 380.5t-259.5 131.5q-157 0 -262 -130t-105 -380q0 -141 29 -246.5t80.5 -167.5t116 -92t141.5 -30zM711 -31q-97 0 -185.5 26t-168.5 84t-138 144.5t-92.5 216t-34.5 289.5q0 144 34.5 265.5t93.5 207
t138 145.5t168.5 88.5t184.5 28.5t183.5 -28.5t167 -89t137 -146t92.5 -207.5t34 -266q0 -160 -34 -289t-91.5 -215.5t-137 -144.5t-167 -83.5t-184.5 -25.5zM604 1567l164 254h258l-225 -254h-197z" />
    <glyph glyph-name="Ocircumflex" unicode="&#xd4;" horiz-adv-x="1417" 
d="M711 193q77 0 140.5 29.5t115 91t80 167t28.5 246.5q0 249 -104.5 380.5t-259.5 131.5q-157 0 -262 -130t-105 -380q0 -141 29 -246.5t80.5 -167.5t116 -92t141.5 -30zM711 -31q-97 0 -185.5 26t-168.5 84t-138 144.5t-92.5 216t-34.5 289.5q0 144 34.5 265.5t93.5 207
t138 145.5t168.5 88.5t184.5 28.5t183.5 -28.5t167 -89t137 -146t92.5 -207.5t34 -266q0 -160 -34 -289t-91.5 -215.5t-137 -144.5t-167 -83.5t-184.5 -25.5zM457 1628l137 176h258l139 -176l-127 -98l-141 180l-143 -180z" />
    <glyph glyph-name="Otilde" unicode="&#xd5;" horiz-adv-x="1417" 
d="M711 193q77 0 140.5 29.5t115 91t80 167t28.5 246.5q0 249 -104.5 380.5t-259.5 131.5q-157 0 -262 -130t-105 -380q0 -141 29 -246.5t80.5 -167.5t116 -92t141.5 -30zM711 -31q-97 0 -185.5 26t-168.5 84t-138 144.5t-92.5 216t-34.5 289.5q0 144 34.5 265.5t93.5 207
t138 145.5t168.5 88.5t184.5 28.5t183.5 -28.5t167 -89t137 -146t92.5 -207.5t34 -266q0 -160 -34 -289t-91.5 -215.5t-137 -144.5t-167 -83.5t-184.5 -25.5zM528 1567h-120q35 213 198 213q52 0 100 -19.5t85 -39t63 -19.5q58 0 74 67h121q-35 -213 -199 -213
q-52 0 -100.5 19.5t-85.5 39t-62 19.5q-58 0 -74 -67z" />
    <glyph glyph-name="Odieresis" unicode="&#xd6;" horiz-adv-x="1417" 
d="M711 193q77 0 140.5 29.5t115 91t80 167t28.5 246.5q0 249 -104.5 380.5t-259.5 131.5q-157 0 -262 -130t-105 -380q0 -141 29 -246.5t80.5 -167.5t116 -92t141.5 -30zM711 -31q-97 0 -185.5 26t-168.5 84t-138 144.5t-92.5 216t-34.5 289.5q0 144 34.5 265.5t93.5 207
t138 145.5t168.5 88.5t184.5 28.5t183.5 -28.5t167 -89t137 -146t92.5 -207.5t34 -266q0 -160 -34 -289t-91.5 -215.5t-137 -144.5t-167 -83.5t-184.5 -25.5zM397 1567v219h230v-219h-230zM801 1567v219h227v-219h-227z" />
    <glyph glyph-name="multiply" unicode="&#xd7;" horiz-adv-x="1110" 
d="M92 360l332 330l-311 311l133 134l311 -312l309 310l131 -134l-309 -309l330 -328l-131 -133l-330 330l-332 -332z" />
    <glyph glyph-name="Oslash" unicode="&#xd8;" horiz-adv-x="1417" 
d="M248 31l53 94q-209 199 -209 604q0 144 34.5 265.5t93.5 207t138 145.5t168.5 88.5t184.5 28.5q166 0 303 -88l51 88l102 -63l-55 -98q100 -97 156.5 -242.5t56.5 -333.5q0 -160 -34 -289t-91.5 -215.5t-137 -144.5t-167 -83.5t-184.5 -25.5q-170 0 -312 80l-47 -80z
M985 1081l-471 -827q81 -61 197 -61q77 0 140.5 29.5t115 91t80 167t28.5 246.5q0 220 -90 354zM430 350l471 828q-85 61 -190 61q-157 0 -262 -130t-105 -380q0 -239 86 -379z" />
    <glyph glyph-name="Ugrave" unicode="&#xd9;" horiz-adv-x="1345" 
d="M143 467v967h242v-955q0 -136 72.5 -211t214.5 -75q143 0 217 75t74 207v959h239v-967q0 -231 -145 -364.5t-385 -133.5t-384.5 133.5t-144.5 364.5zM602 1567l-223 254h256l164 -254h-197z" />
    <glyph glyph-name="Uacute" unicode="&#xda;" horiz-adv-x="1345" 
d="M143 467v967h242v-955q0 -136 72.5 -211t214.5 -75q143 0 217 75t74 207v959h239v-967q0 -231 -145 -364.5t-385 -133.5t-384.5 133.5t-144.5 364.5zM596 1567l164 254h258l-225 -254h-197z" />
    <glyph glyph-name="Ucircumflex" unicode="&#xdb;" horiz-adv-x="1345" 
d="M143 467v967h242v-955q0 -136 72.5 -211t214.5 -75q143 0 217 75t74 207v959h239v-967q0 -231 -145 -364.5t-385 -133.5t-384.5 133.5t-144.5 364.5zM418 1628l137 176h258l139 -176l-127 -98l-141 180l-143 -180z" />
    <glyph glyph-name="Udieresis" unicode="&#xdc;" horiz-adv-x="1345" 
d="M143 467v967h242v-955q0 -136 72.5 -211t214.5 -75q143 0 217 75t74 207v959h239v-967q0 -231 -145 -364.5t-385 -133.5t-384.5 133.5t-144.5 364.5zM362 1567v219h230v-219h-230zM766 1567v219h227v-219h-227z" />
    <glyph glyph-name="Yacute" unicode="&#xdd;" horiz-adv-x="1196" 
d="M479 0v604l-469 830h258l328 -611h4l330 611h256l-469 -830v-604h-238zM520 1567l164 254h258l-225 -254h-197z" />
    <glyph glyph-name="Thorn" unicode="&#xde;" horiz-adv-x="1300" 
d="M174 0v1434h242v-238h315q239 0 378.5 -116.5t139.5 -340.5q0 -228 -133 -341t-385 -113h-315v-285h-242zM416 508h332q119 0 190.5 58t71.5 173t-72 174.5t-190 59.5h-332v-465z" />
    <glyph glyph-name="germandbls" unicode="&#xdf;" horiz-adv-x="1161" 
d="M133 0v983q0 121 35 214.5t97.5 151t142.5 86.5t174 29q186 0 305 -108.5t119 -284.5q0 -95 -46 -161.5t-118 -104.5v-4q40 -15 77.5 -42.5t72.5 -70.5t56 -108t21 -142q0 -215 -121.5 -326.5t-355.5 -111.5h-66v199h43q285 0 285 250q0 124 -65 179.5t-173 55.5h-90v176
h47q99 0 161.5 49t62.5 142q0 94 -59.5 150t-157.5 56q-220 0 -220 -284v-973h-227z" />
    <glyph glyph-name="agrave" unicode="&#xe0;" horiz-adv-x="1107" 
d="M776 0v109h-4q-6 -9 -15.5 -21t-36 -34.5t-59 -40t-85 -31t-111.5 -13.5q-98 0 -173.5 26.5t-120 71.5t-67 101t-22.5 119q0 140 84.5 215t284.5 123q181 45 235.5 74.5t54.5 86.5q0 56 -49.5 92.5t-148.5 36.5q-60 0 -103.5 -15.5t-70 -44.5t-41.5 -59t-27 -71l-199 76
q35 139 145.5 227t289.5 88q94 0 171 -23t138 -71t95 -129.5t34 -190.5v-702h-199zM498 459q-114 -28 -152.5 -66t-38.5 -90q0 -131 178 -131q131 0 198 53t67 129v217h-5q-8 -17 -21.5 -29t-69 -34t-156.5 -49zM477 1219l-223 254h256l164 -254h-197z" />
    <glyph glyph-name="aacute" unicode="&#xe1;" horiz-adv-x="1107" 
d="M776 0v109h-4q-6 -9 -15.5 -21t-36 -34.5t-59 -40t-85 -31t-111.5 -13.5q-98 0 -173.5 26.5t-120 71.5t-67 101t-22.5 119q0 140 84.5 215t284.5 123q181 45 235.5 74.5t54.5 86.5q0 56 -49.5 92.5t-148.5 36.5q-60 0 -103.5 -15.5t-70 -44.5t-41.5 -59t-27 -71l-199 76
q35 139 145.5 227t289.5 88q94 0 171 -23t138 -71t95 -129.5t34 -190.5v-702h-199zM498 459q-114 -28 -152.5 -66t-38.5 -90q0 -131 178 -131q131 0 198 53t67 129v217h-5q-8 -17 -21.5 -29t-69 -34t-156.5 -49zM418 1219l164 254h256l-224 -254h-196z" />
    <glyph glyph-name="acircumflex" unicode="&#xe2;" horiz-adv-x="1107" 
d="M776 0v109h-4q-6 -9 -15.5 -21t-36 -34.5t-59 -40t-85 -31t-111.5 -13.5q-98 0 -173.5 26.5t-120 71.5t-67 101t-22.5 119q0 140 84.5 215t284.5 123q181 45 235.5 74.5t54.5 86.5q0 56 -49.5 92.5t-148.5 36.5q-60 0 -103.5 -15.5t-70 -44.5t-41.5 -59t-27 -71l-199 76
q35 139 145.5 227t289.5 88q94 0 171 -23t138 -71t95 -129.5t34 -190.5v-702h-199zM498 459q-114 -28 -152.5 -66t-38.5 -90q0 -131 178 -131q131 0 198 53t67 129v217h-5q-8 -17 -21.5 -29t-69 -34t-156.5 -49zM287 1288l137 176h258l139 -176l-127 -98l-141 180l-143 -180
z" />
    <glyph glyph-name="atilde" unicode="&#xe3;" horiz-adv-x="1107" 
d="M776 0v109h-4q-6 -9 -15.5 -21t-36 -34.5t-59 -40t-85 -31t-111.5 -13.5q-98 0 -173.5 26.5t-120 71.5t-67 101t-22.5 119q0 140 84.5 215t284.5 123q181 45 235.5 74.5t54.5 86.5q0 56 -49.5 92.5t-148.5 36.5q-60 0 -103.5 -15.5t-70 -44.5t-41.5 -59t-27 -71l-199 76
q35 139 145.5 227t289.5 88q94 0 171 -23t138 -71t95 -129.5t34 -190.5v-702h-199zM498 459q-114 -28 -152.5 -66t-38.5 -90q0 -131 178 -131q131 0 198 53t67 129v217h-5q-8 -17 -21.5 -29t-69 -34t-156.5 -49zM354 1227h-121q35 215 199 215q52 0 100 -20t85 -40t63 -20
q58 0 74 70h120q-35 -215 -198 -215q-52 0 -100.5 19.5t-85.5 39.5t-62 20q-59 0 -74 -69z" />
    <glyph glyph-name="adieresis" unicode="&#xe4;" horiz-adv-x="1107" 
d="M776 0v109h-4q-6 -9 -15.5 -21t-36 -34.5t-59 -40t-85 -31t-111.5 -13.5q-98 0 -173.5 26.5t-120 71.5t-67 101t-22.5 119q0 140 84.5 215t284.5 123q181 45 235.5 74.5t54.5 86.5q0 56 -49.5 92.5t-148.5 36.5q-60 0 -103.5 -15.5t-70 -44.5t-41.5 -59t-27 -71l-199 76
q35 139 145.5 227t289.5 88q94 0 171 -23t138 -71t95 -129.5t34 -190.5v-702h-199zM498 459q-114 -28 -152.5 -66t-38.5 -90q0 -131 178 -131q131 0 198 53t67 129v217h-5q-8 -17 -21.5 -29t-69 -34t-156.5 -49zM240 1229v219h229v-219h-229zM643 1229v219h227v-219h-227z
" />
    <glyph glyph-name="aring" unicode="&#xe5;" horiz-adv-x="1107" 
d="M776 0v109h-4q-6 -9 -15.5 -21t-36 -34.5t-59 -40t-85 -31t-111.5 -13.5q-98 0 -173.5 26.5t-120 71.5t-67 101t-22.5 119q0 140 84.5 215t284.5 123q181 45 235.5 74.5t54.5 86.5q0 56 -49.5 92.5t-148.5 36.5q-60 0 -103.5 -15.5t-70 -44.5t-41.5 -59t-27 -71l-199 76
q28 115 111 197.5t215 107.5q-86 61 -86 180q0 90 60.5 153.5t148.5 63.5q92 0 151.5 -62.5t59.5 -154.5q0 -59 -24.5 -107.5t-67.5 -76.5q140 -29 222.5 -128.5t82.5 -271.5v-702h-199zM498 459q-114 -28 -152.5 -66t-38.5 -90q0 -131 178 -131q131 0 198 53t67 129v217h-5
q-8 -17 -21.5 -29t-69 -34t-156.5 -49zM551 1180q36 0 63 28t27 80t-27 79.5t-63 27.5q-35 0 -60.5 -27.5t-25.5 -79.5t25.5 -80t60.5 -28z" />
    <glyph glyph-name="ae" unicode="&#xe6;" horiz-adv-x="1828" 
d="M1548 383l183 -121q-63 -133 -179 -213t-286 -80q-249 0 -392 185h-4q-110 -185 -383 -185q-106 0 -186.5 26.5t-127 72.5t-69 101.5t-22.5 119.5q0 130 80.5 208.5t288.5 127.5q173 41 231.5 72.5t58.5 88.5t-47.5 93t-150.5 36q-104 0 -160.5 -50t-81.5 -142l-199 78
q31 137 146 226t289 89q250 0 362 -149h4q143 149 348 149q218 0 357 -155.5t139 -417.5v-70h-758q5 -135 76 -216t197 -81q52 0 97.5 16.5t72.5 35.5t54 54.5t36 51.5t26 49zM498 459q-114 -30 -152.5 -67t-38.5 -89q0 -131 178 -131q131 0 198 53t67 129v217h-5
q-8 -17 -21 -29t-69.5 -34.5t-156.5 -48.5zM989 649h531q-8 115 -76 187.5t-193 72.5q-80 0 -140 -40t-89 -97t-33 -123z" />
    <glyph glyph-name="ccedilla" unicode="&#xe7;" horiz-adv-x="1116" 
d="M399 -346l80 96q68 -65 150 -65q100 0 100 73q0 29 -27.5 45.5t-62.5 16.5q-28 0 -54 -8t-38 -16l-12 -7l-91 49l80 135q-197 21 -319.5 170.5t-122.5 399.5q0 261 143 417t359 156q186 0 306.5 -111.5t141.5 -289.5l-219 -37q-15 102 -70 164.5t-157 62.5
q-125 0 -199 -95t-74 -267q0 -171 71.5 -267t201.5 -96q191 0 227 252l231 -49q-31 -183 -135.5 -290t-273.5 -122l-57 -90l2 -2q46 31 112 31q65 0 119.5 -42.5t54.5 -113.5q0 -93 -62 -144.5t-163 -51.5q-146 0 -242 96z" />
    <glyph glyph-name="egrave" unicode="&#xe8;" horiz-adv-x="1157" 
d="M874 360l168 -137q-158 -254 -450 -254q-224 0 -367 157t-143 417q0 172 65.5 303.5t179 200.5t255.5 69q216 0 354.5 -155.5t138.5 -417.5v-70h-758q5 -136 75 -216.5t196 -80.5q48 0 89.5 13t69 29.5t54.5 45.5t40.5 47.5t32.5 48.5zM319 649h529q-6 115 -73.5 187.5
t-192.5 72.5q-118 0 -187 -78t-76 -182zM514 1219l-223 254h256l164 -254h-197z" />
    <glyph glyph-name="eacute" unicode="&#xe9;" horiz-adv-x="1157" 
d="M874 360l168 -137q-158 -254 -450 -254q-224 0 -367 157t-143 417q0 172 65.5 303.5t179 200.5t255.5 69q216 0 354.5 -155.5t138.5 -417.5v-70h-758q5 -136 75 -216.5t196 -80.5q48 0 89.5 13t69 29.5t54.5 45.5t40.5 47.5t32.5 48.5zM319 649h529q-6 115 -73.5 187.5
t-192.5 72.5q-118 0 -187 -78t-76 -182zM502 1219l164 254h256l-224 -254h-196z" />
    <glyph glyph-name="ecircumflex" unicode="&#xea;" horiz-adv-x="1157" 
d="M874 360l168 -137q-158 -254 -450 -254q-224 0 -367 157t-143 417q0 172 65.5 303.5t179 200.5t255.5 69q216 0 354.5 -155.5t138.5 -417.5v-70h-758q5 -136 75 -216.5t196 -80.5q48 0 89.5 13t69 29.5t54.5 45.5t40.5 47.5t32.5 48.5zM319 649h529q-6 115 -73.5 187.5
t-192.5 72.5q-118 0 -187 -78t-76 -182zM334 1288l137 176h258l139 -176l-127 -98l-141 180l-143 -180z" />
    <glyph glyph-name="edieresis" unicode="&#xeb;" horiz-adv-x="1157" 
d="M874 360l168 -137q-158 -254 -450 -254q-224 0 -367 157t-143 417q0 172 65.5 303.5t179 200.5t255.5 69q216 0 354.5 -155.5t138.5 -417.5v-70h-758q5 -136 75 -216.5t196 -80.5q48 0 89.5 13t69 29.5t54.5 45.5t40.5 47.5t32.5 48.5zM319 649h529q-6 115 -73.5 187.5
t-192.5 72.5q-118 0 -187 -78t-76 -182zM285 1229v219h229v-219h-229zM688 1229v219h227v-219h-227z" />
    <glyph glyph-name="igrave" unicode="&#xec;" horiz-adv-x="534" 
d="M176 1219l-223 254h256l164 -254h-197zM150 0v1085h231v-1085h-231z" />
    <glyph glyph-name="iacute" unicode="&#xed;" horiz-adv-x="565" 
d="M170 1219l164 254h256l-223 -254h-197zM168 0v1085h231v-1085h-231z" />
    <glyph glyph-name="icircumflex" unicode="&#xee;" horiz-adv-x="538" 
d="M154 0v1085h231v-1085h-231zM2 1288l137 176h258l140 -176l-127 -98l-142 180l-143 -180z" />
    <glyph glyph-name="idieresis" unicode="&#xef;" horiz-adv-x="546" 
d="M-43 1229v219h229v-219h-229zM360 1229v219h228v-219h-228zM158 0v1085h231v-1085h-231z" />
    <glyph glyph-name="eth" unicode="&#xf0;" horiz-adv-x="1167" 
d="M657 1587q58 -61 117 -139l256 70l33 -103l-225 -61q116 -184 181.5 -393.5t65.5 -403.5q0 -142 -37 -254.5t-103.5 -185t-156 -110.5t-196.5 -38q-111 0 -204 37.5t-161.5 109t-106.5 181t-38 246.5q0 274 126 423.5t331 149.5q155 0 252 -86l4 2q-40 120 -144 271
l-282 -78l-33 102l246 68q-86 107 -174 188v4h249zM592 186q125 0 191.5 88t66.5 269q0 182 -66 271t-204 89q-133 0 -200 -87.5t-67 -272.5q0 -178 76 -267.5t203 -89.5z" />
    <glyph glyph-name="ntilde" unicode="&#xf1;" horiz-adv-x="1206" 
d="M154 0v1085h225v-104h4q45 58 124.5 96.5t168.5 38.5q180 0 283.5 -107t103.5 -298v-711h-232v649q0 125 -49 188.5t-161 63.5q-107 0 -170.5 -61.5t-63.5 -165.5v-674h-233zM432 1227h-121q35 215 199 215q52 0 100 -20t85 -40t63 -20q57 0 73 70h121
q-35 -215 -198 -215q-52 0 -100.5 19.5t-85.5 39.5t-62 20q-59 0 -74 -69z" />
    <glyph glyph-name="ograve" unicode="&#xf2;" horiz-adv-x="1167" 
d="M586 180q122 0 196 95t74 268t-74 267.5t-196 94.5q-123 0 -198 -93.5t-75 -268.5q0 -176 74.5 -269.5t198.5 -93.5zM586 -31q-107 0 -198.5 38t-159.5 109.5t-107 181t-39 245.5q0 135 41 245.5t111 181t160.5 108.5t191.5 38t190.5 -38t158.5 -108.5t109.5 -181
t40.5 -245.5q0 -270 -140.5 -422t-358.5 -152zM489 1219l-223 254h256l164 -254h-197z" />
    <glyph glyph-name="oacute" unicode="&#xf3;" horiz-adv-x="1167" 
d="M586 180q122 0 196 95t74 268t-74 267.5t-196 94.5q-123 0 -198 -93.5t-75 -268.5q0 -176 74.5 -269.5t198.5 -93.5zM586 -31q-107 0 -198.5 38t-159.5 109.5t-107 181t-39 245.5q0 135 41 245.5t111 181t160.5 108.5t191.5 38t190.5 -38t158.5 -108.5t109.5 -181
t40.5 -245.5q0 -270 -140.5 -422t-358.5 -152zM506 1219l164 254h256l-224 -254h-196z" />
    <glyph glyph-name="ocircumflex" unicode="&#xf4;" horiz-adv-x="1167" 
d="M586 180q122 0 196 95t74 268t-74 267.5t-196 94.5q-123 0 -198 -93.5t-75 -268.5q0 -176 74.5 -269.5t198.5 -93.5zM586 -31q-107 0 -198.5 38t-159.5 109.5t-107 181t-39 245.5q0 135 41 245.5t111 181t160.5 108.5t191.5 38t190.5 -38t158.5 -108.5t109.5 -181
t40.5 -245.5q0 -270 -140.5 -422t-358.5 -152zM324 1288l137 176h258l139 -176l-127 -98l-141 180l-144 -180z" />
    <glyph glyph-name="otilde" unicode="&#xf5;" horiz-adv-x="1167" 
d="M586 180q122 0 196 95t74 268t-74 267.5t-196 94.5q-123 0 -198 -93.5t-75 -268.5q0 -176 74.5 -269.5t198.5 -93.5zM586 -31q-107 0 -198.5 38t-159.5 109.5t-107 181t-39 245.5q0 135 41 245.5t111 181t160.5 108.5t191.5 38t190.5 -38t158.5 -108.5t109.5 -181
t40.5 -245.5q0 -270 -140.5 -422t-358.5 -152zM381 1227h-121q35 215 199 215q52 0 100 -20t85 -40t63 -20q57 0 73 70h121q-35 -215 -199 -215q-52 0 -100 19.5t-85 39.5t-62 20q-59 0 -74 -69z" />
    <glyph glyph-name="odieresis" unicode="&#xf6;" horiz-adv-x="1167" 
d="M586 180q122 0 196 95t74 268t-74 267.5t-196 94.5q-123 0 -198 -93.5t-75 -268.5q0 -176 74.5 -269.5t198.5 -93.5zM586 -31q-107 0 -198.5 38t-159.5 109.5t-107 181t-39 245.5q0 135 41 245.5t111 181t160.5 108.5t191.5 38t190.5 -38t158.5 -108.5t109.5 -181
t40.5 -245.5q0 -270 -140.5 -422t-358.5 -152zM289 1229v219h229v-219h-229zM692 1229v219h228v-219h-228z" />
    <glyph glyph-name="divide" unicode="&#xf7;" horiz-adv-x="970" 
d="M309 1161q0 73 51 124.5t123 51.5q75 0 127 -51t52 -125t-52 -125t-127 -51q-72 0 -123 51.5t-51 124.5zM309 279q0 75 51 126.5t123 51.5q75 0 127 -51.5t52 -126.5q0 -73 -52 -124t-127 -51q-72 0 -123 51t-51 124zM92 633v184h787v-184h-787z" />
    <glyph glyph-name="oslash" unicode="&#xf8;" horiz-adv-x="1167" 
d="M125 35l84 104q-127 152 -127 404q0 135 41 245.5t111 181t160.5 108.5t191.5 38q169 0 301 -104l78 102l77 -65l-84 -107q127 -156 127 -399q0 -270 -140.5 -422t-358.5 -152q-178 0 -307 101l-76 -99zM811 754l-397 -510q67 -64 172 -64q122 0 196 95t74 268
q0 126 -45 211zM354 328l398 512q-68 65 -166 65q-121 0 -197 -94t-76 -268q0 -131 41 -215z" />
    <glyph glyph-name="ugrave" unicode="&#xf9;" horiz-adv-x="1177" 
d="M143 383v702h234v-675q0 -120 43.5 -168.5t146.5 -48.5t163.5 57.5t60.5 175.5v659h233v-1085h-225v104h-4q-13 -18 -32 -36.5t-53 -43t-85.5 -40t-110.5 -15.5q-186 0 -278.5 109t-92.5 305zM489 1219l-223 254h256l164 -254h-197z" />
    <glyph glyph-name="uacute" unicode="&#xfa;" horiz-adv-x="1177" 
d="M143 383v702h234v-675q0 -120 43.5 -168.5t146.5 -48.5t163.5 57.5t60.5 175.5v659h233v-1085h-225v104h-4q-13 -18 -32 -36.5t-53 -43t-85.5 -40t-110.5 -15.5q-186 0 -278.5 109t-92.5 305zM485 1219l164 254h256l-223 -254h-197z" />
    <glyph glyph-name="ucircumflex" unicode="&#xfb;" horiz-adv-x="1177" 
d="M143 383v702h234v-675q0 -120 43.5 -168.5t146.5 -48.5t163.5 57.5t60.5 175.5v659h233v-1085h-225v104h-4q-13 -18 -32 -36.5t-53 -43t-85.5 -40t-110.5 -15.5q-186 0 -278.5 109t-92.5 305zM319 1288l138 176h258l139 -176l-127 -98l-141 180l-144 -180z" />
    <glyph glyph-name="udieresis" unicode="&#xfc;" horiz-adv-x="1177" 
d="M143 383v702h234v-675q0 -120 43.5 -168.5t146.5 -48.5t163.5 57.5t60.5 175.5v659h233v-1085h-225v104h-4q-13 -18 -32 -36.5t-53 -43t-85.5 -40t-110.5 -15.5q-186 0 -278.5 109t-92.5 305zM283 1229v219h229v-219h-229zM686 1229v219h227v-219h-227z" />
    <glyph glyph-name="yacute" unicode="&#xfd;" horiz-adv-x="1101" 
d="M238 -461l204 510l-422 1036h246l285 -747h4l285 747h241l-618 -1546h-225zM461 1219l164 254h256l-224 -254h-196z" />
    <glyph glyph-name="thorn" unicode="&#xfe;" horiz-adv-x="1241" 
d="M154 -461v1956h227v-506h4q47 54 124.5 90.5t172.5 36.5q94 0 180 -39t152 -110t105.5 -181t39.5 -243q0 -132 -40.5 -242.5t-107.5 -182t-151.5 -110.5t-175.5 -39q-107 0 -180 34.5t-113 84.5h-4v-549h-233zM387 670v-262q0 -95 69.5 -159.5t180.5 -64.5
q133 0 211 92.5t78 266.5t-78.5 266t-210.5 92q-114 0 -182 -68t-68 -163z" />
    <glyph glyph-name="ydieresis" unicode="&#xff;" horiz-adv-x="1101" 
d="M238 -461l204 510l-422 1036h246l285 -747h4l285 747h241l-618 -1546h-225zM231 1229v219h230v-219h-230zM635 1229v219h227v-219h-227z" />
    <glyph glyph-name="Amacron" unicode="&#x100;" horiz-adv-x="1269" 
d="M1010 0l-86 246h-580l-84 -246h-240l517 1434h196l516 -1434h-239zM633 1083l-217 -630h436l-215 630h-4zM356 1567v151h590v-151h-590z" />
    <glyph glyph-name="amacron" unicode="&#x101;" horiz-adv-x="1107" 
d="M776 0v109h-4q-6 -9 -15.5 -21t-36 -34.5t-59 -40t-85 -31t-111.5 -13.5q-98 0 -173.5 26.5t-120 71.5t-67 101t-22.5 119q0 140 84.5 215t284.5 123q181 45 235.5 74.5t54.5 86.5q0 56 -49.5 92.5t-148.5 36.5q-60 0 -103.5 -15.5t-70 -44.5t-41.5 -59t-27 -71l-199 76
q35 139 145.5 227t289.5 88q94 0 171 -23t138 -71t95 -129.5t34 -190.5v-702h-199zM498 459q-114 -28 -152.5 -66t-38.5 -90q0 -131 178 -131q131 0 198 53t67 129v217h-5q-8 -17 -21.5 -29t-69 -34t-156.5 -49zM260 1270v151h590v-151h-590z" />
    <glyph glyph-name="Abreve" unicode="&#x102;" horiz-adv-x="1269" 
d="M1010 0l-86 246h-580l-84 -246h-240l517 1434h196l516 -1434h-239zM633 1083l-217 -630h436l-215 630h-4zM385 1804h117q7 -45 45.5 -77.5t105.5 -32.5q68 0 104.5 32.5t41.5 77.5h123q0 -114 -76 -186t-193 -72q-121 0 -194.5 71.5t-73.5 186.5z" />
    <glyph glyph-name="abreve" unicode="&#x103;" horiz-adv-x="1107" 
d="M776 0v109h-4q-6 -9 -15.5 -21t-36 -34.5t-59 -40t-85 -31t-111.5 -13.5q-98 0 -173.5 26.5t-120 71.5t-67 101t-22.5 119q0 140 84.5 215t284.5 123q181 45 235.5 74.5t54.5 86.5q0 56 -49.5 92.5t-148.5 36.5q-60 0 -103.5 -15.5t-70 -44.5t-41.5 -59t-27 -71l-199 76
q35 139 145.5 227t289.5 88q94 0 171 -23t138 -71t95 -129.5t34 -190.5v-702h-199zM498 459q-114 -28 -152.5 -66t-38.5 -90q0 -131 178 -131q131 0 198 53t67 129v217h-5q-8 -17 -21.5 -29t-69 -34t-156.5 -49zM283 1456h116q7 -45 46 -77.5t106 -32.5q68 0 104 32.5
t41 77.5h123q0 -114 -75.5 -186t-192.5 -72q-121 0 -194.5 71.5t-73.5 186.5z" />
    <glyph glyph-name="Aogonek" unicode="&#x104;" horiz-adv-x="1269" 
d="M1010 0l-86 246h-580l-84 -246h-240l517 1434h196l516 -1434q-164 -140 -164 -238q0 -35 23.5 -53t60.5 -18q68 0 136 76l77 -72q-67 -74 -133 -105.5t-143 -31.5q-81 0 -138 36.5t-57 114.5q0 82 58.5 159t144.5 132h-104zM633 1083l-217 -630h436l-215 630h-4z" />
    <glyph glyph-name="aogonek" unicode="&#x105;" horiz-adv-x="1107" 
d="M776 0v109h-4q-6 -9 -15.5 -21t-36 -34.5t-59 -40t-85 -31t-111.5 -13.5q-98 0 -173.5 26.5t-120 71.5t-67 101t-22.5 119q0 140 84.5 215t284.5 123q181 45 235.5 74.5t54.5 86.5q0 56 -49.5 92.5t-148.5 36.5q-60 0 -103.5 -15.5t-70 -44.5t-41.5 -59t-27 -71l-199 76
q35 139 145.5 227t289.5 88q94 0 171 -23t138 -71t95 -129.5t34 -190.5v-702q-164 -140 -164 -238q0 -35 23.5 -53t60.5 -18q67 0 135 76l78 -72q-67 -74 -133.5 -105.5t-143.5 -31.5q-81 0 -137.5 36.5t-56.5 114.5q0 82 58.5 159t144.5 132h-64zM498 459
q-114 -28 -152.5 -66t-38.5 -90q0 -131 178 -131q131 0 198 53t67 129v217h-5q-8 -17 -21.5 -29t-69 -34t-156.5 -49z" />
    <glyph glyph-name="Cacute" unicode="&#x106;" horiz-adv-x="1359" 
d="M1024 561l254 -51q-25 -242 -176.5 -391.5t-390.5 -149.5q-103 0 -194 27.5t-169.5 87t-135 147.5t-88.5 215t-32 283q0 180 52 323.5t139.5 231.5t196.5 134t229 46q223 0 377 -140t180 -370l-250 -39q-53 326 -305 326q-74 0 -138 -28.5t-117 -88t-83.5 -161.5
t-30.5 -238q0 -138 29.5 -242.5t81 -166.5t116.5 -92.5t142 -30.5q268 0 313 368zM612 1567l164 254h258l-225 -254h-197z" />
    <glyph glyph-name="cacute" unicode="&#x107;" horiz-adv-x="1116" 
d="M813 432l231 -49q-33 -196 -150 -305t-308 -109q-221 0 -362.5 152t-141.5 422q0 261 143 417t359 156q186 0 306.5 -111.5t141.5 -289.5l-219 -37q-15 102 -70 164.5t-157 62.5q-125 0 -199 -95t-74 -267q0 -171 71.5 -267t201.5 -96q191 0 227 252zM449 1219l163 254
h256l-223 -254h-196z" />
    <glyph glyph-name="Ccircumflex" unicode="&#x108;" horiz-adv-x="1359" 
d="M1024 561l254 -51q-25 -242 -176.5 -391.5t-390.5 -149.5q-103 0 -194 27.5t-169.5 87t-135 147.5t-88.5 215t-32 283q0 180 52 323.5t139.5 231.5t196.5 134t229 46q223 0 377 -140t180 -370l-250 -39q-53 326 -305 326q-74 0 -138 -28.5t-117 -88t-83.5 -161.5
t-30.5 -238q0 -138 29.5 -242.5t81 -166.5t116.5 -92.5t142 -30.5q268 0 313 368zM453 1628l137 176h258l139 -176l-127 -98l-141 180l-144 -180z" />
    <glyph glyph-name="ccircumflex" unicode="&#x109;" horiz-adv-x="1116" 
d="M813 432l231 -49q-33 -196 -150 -305t-308 -109q-221 0 -362.5 152t-141.5 422q0 261 143 417t359 156q186 0 306.5 -111.5t141.5 -289.5l-219 -37q-15 102 -70 164.5t-157 62.5q-125 0 -199 -95t-74 -267q0 -171 71.5 -267t201.5 -96q191 0 227 252zM297 1288l137 176
h258l139 -176l-126 -98l-142 180l-143 -180z" />
    <glyph glyph-name="Cdotaccent" unicode="&#x10a;" horiz-adv-x="1359" 
d="M1024 561l254 -51q-25 -242 -176.5 -391.5t-390.5 -149.5q-103 0 -194 27.5t-169.5 87t-135 147.5t-88.5 215t-32 283q0 180 52 323.5t139.5 231.5t196.5 134t229 46q223 0 377 -140t180 -370l-250 -39q-53 326 -305 326q-74 0 -138 -28.5t-117 -88t-83.5 -161.5
t-30.5 -238q0 -138 29.5 -242.5t81 -166.5t116.5 -92.5t142 -30.5q268 0 313 368zM571 1567v233h244v-233h-244z" />
    <glyph glyph-name="cdotaccent" unicode="&#x10b;" horiz-adv-x="1116" 
d="M813 432l231 -49q-33 -196 -150 -305t-308 -109q-221 0 -362.5 152t-141.5 422q0 261 143 417t359 156q186 0 306.5 -111.5t141.5 -289.5l-219 -37q-15 102 -70 164.5t-157 62.5q-125 0 -199 -95t-74 -267q0 -171 71.5 -267t201.5 -96q191 0 227 252zM449 1227v233h243
v-233h-243z" />
    <glyph glyph-name="Ccaron" unicode="&#x10c;" horiz-adv-x="1359" 
d="M1024 561l254 -51q-25 -242 -176.5 -391.5t-390.5 -149.5q-103 0 -194 27.5t-169.5 87t-135 147.5t-88.5 215t-32 283q0 180 52 323.5t139.5 231.5t196.5 134t229 46q223 0 377 -140t180 -370l-250 -39q-53 326 -305 326q-74 0 -138 -28.5t-117 -88t-83.5 -161.5
t-30.5 -238q0 -138 29.5 -242.5t81 -166.5t116.5 -92.5t142 -30.5q268 0 313 368zM569 1567l-137 176l123 98l143 -180l142 180l125 -98l-138 -176h-258z" />
    <glyph glyph-name="ccaron" unicode="&#x10d;" horiz-adv-x="1116" 
d="M813 432l231 -49q-33 -196 -150 -305t-308 -109q-221 0 -362.5 152t-141.5 422q0 261 143 417t359 156q186 0 306.5 -111.5t141.5 -289.5l-219 -37q-15 102 -70 164.5t-157 62.5q-125 0 -199 -95t-74 -267q0 -171 71.5 -267t201.5 -96q191 0 227 252zM440 1217l-137 176
l123 98l143 -180l142 180l125 -98l-138 -176h-258z" />
    <glyph glyph-name="Dcaron" unicode="&#x10e;" horiz-adv-x="1345" 
d="M416 223h211q68 0 122.5 13t103.5 47t82 89t52 142.5t19 204.5q0 249 -99.5 370t-267.5 121h-223v-987zM174 0v1434h469q97 0 186.5 -26t169 -83t138.5 -139.5t93 -202.5t34 -264q0 -159 -36 -285t-95.5 -206t-142.5 -132.5t-171 -74t-188 -21.5h-457zM436 1567l-137 176
l123 98l143 -180l142 180l124 -98l-137 -176h-258z" />
    <glyph glyph-name="dcaron" unicode="&#x10f;" horiz-adv-x="1298" 
d="M838 416v246q0 100 -66.5 171.5t-181.5 71.5q-132 0 -203.5 -92.5t-71.5 -269.5t71.5 -270t203.5 -93q112 0 180 69t68 167zM854 0v104h-4q-11 -14 -28 -30t-54 -43t-94 -44.5t-121 -17.5q-215 0 -343 156.5t-128 417.5q0 133 39 243t104.5 181t149.5 110t176 39
q177 0 283 -135h4v514h233v-1495h-217zM1153 1167l64 328h194l-119 -328h-139z" />
    <glyph glyph-name="Dcroat" unicode="&#x110;" horiz-adv-x="1363" 
d="M193 0v645h-142v199h142v590h479q123 0 232 -43t197 -127.5t139.5 -224.5t51.5 -320q0 -159 -35.5 -285t-95 -206t-142.5 -132.5t-171.5 -74t-188.5 -21.5h-466zM434 223h221q68 0 122 13t103 47t82 89t52.5 142.5t19.5 204.5q0 252 -99 371.5t-267 119.5h-234v-366h309
v-199h-309v-422z" />
    <glyph glyph-name="dcroat" unicode="&#x111;" horiz-adv-x="1224" 
d="M854 0v104h-4q-120 -135 -297 -135q-215 0 -343 156.5t-128 417.5q0 258 132 415.5t339 157.5q175 0 281 -135h4v283h-232v170h232v61h233v-61h113v-170h-113v-1264h-217zM838 416v246q0 99 -67.5 169t-182.5 70q-131 0 -202 -91t-71 -267t71 -267.5t202 -91.5
q113 0 181.5 67.5t68.5 164.5z" />
    <glyph glyph-name="Emacron" unicode="&#x112;" horiz-adv-x="1189" 
d="M174 0v1434h893v-224h-651v-368h594v-215h-594v-404h651v-223h-893zM319 1567v151h590v-151h-590z" />
    <glyph glyph-name="emacron" unicode="&#x113;" horiz-adv-x="1157" 
d="M874 360l168 -137q-158 -254 -450 -254q-224 0 -367 157t-143 417q0 172 65.5 303.5t179 200.5t255.5 69q216 0 354.5 -155.5t138.5 -417.5v-70h-758q5 -136 75 -216.5t196 -80.5q48 0 89.5 13t69 29.5t54.5 45.5t40.5 47.5t32.5 48.5zM319 649h529q-6 115 -73.5 187.5
t-192.5 72.5q-118 0 -187 -78t-76 -182zM303 1270v151h590v-151h-590z" />
    <glyph glyph-name="Ebreve" unicode="&#x114;" horiz-adv-x="1189" 
d="M174 0v1434h893v-224h-651v-368h594v-215h-594v-404h651v-223h-893zM360 1804h117q7 -45 46 -77.5t106 -32.5q68 0 104 32.5t41 77.5h123q0 -114 -75.5 -186t-192.5 -72q-121 0 -195 71.5t-74 186.5z" />
    <glyph glyph-name="ebreve" unicode="&#x115;" horiz-adv-x="1157" 
d="M874 360l168 -137q-158 -254 -450 -254q-224 0 -367 157t-143 417q0 172 65.5 303.5t179 200.5t255.5 69q216 0 354.5 -155.5t138.5 -417.5v-70h-758q5 -136 75 -216.5t196 -80.5q48 0 89.5 13t69 29.5t54.5 45.5t40.5 47.5t32.5 48.5zM319 649h529q-6 115 -73.5 187.5
t-192.5 72.5q-118 0 -187 -78t-76 -182zM334 1456h117q7 -45 45.5 -77.5t105.5 -32.5q68 0 104.5 32.5t41.5 77.5h122q0 -114 -75.5 -186t-192.5 -72q-121 0 -194.5 71.5t-73.5 186.5z" />
    <glyph glyph-name="Edotaccent" unicode="&#x116;" horiz-adv-x="1189" 
d="M174 0v1434h893v-224h-651v-368h594v-215h-594v-404h651v-223h-893zM512 1567v233h244v-233h-244z" />
    <glyph glyph-name="edotaccent" unicode="&#x117;" horiz-adv-x="1157" 
d="M874 360l168 -137q-158 -254 -450 -254q-224 0 -367 157t-143 417q0 172 65.5 303.5t179 200.5t255.5 69q216 0 354.5 -155.5t138.5 -417.5v-70h-758q5 -136 75 -216.5t196 -80.5q48 0 89.5 13t69 29.5t54.5 45.5t40.5 47.5t32.5 48.5zM319 649h529q-6 115 -73.5 187.5
t-192.5 72.5q-118 0 -187 -78t-76 -182zM483 1227v233h244v-233h-244z" />
    <glyph glyph-name="Eogonek" unicode="&#x118;" horiz-adv-x="1189" 
d="M174 0v1434h893v-224h-651v-368h594v-215h-594v-404h651v-223h-149q-164 -140 -164 -238q0 -35 23.5 -53t60.5 -18q67 0 135 76l78 -72q-67 -74 -133.5 -105.5t-143.5 -31.5q-81 0 -137.5 36.5t-56.5 114.5q0 82 58 159t144 132h-608z" />
    <glyph glyph-name="eogonek" unicode="&#x119;" horiz-adv-x="1157" 
d="M776 -233l78 -72q-67 -74 -133 -105.5t-143 -31.5q-81 0 -138 36.5t-57 114.5q0 72 45 140t117 122q-206 18 -334.5 172t-128.5 400q0 172 65.5 303.5t179 200.5t255.5 69q216 0 354.5 -155.5t138.5 -417.5v-70h-758q5 -136 75 -216.5t196 -80.5q48 0 89.5 13t69 29.5
t54.5 45.5t40.5 47.5t32.5 48.5l168 -137q-131 -209 -348 -246q-137 -123 -137 -215q0 -35 23.5 -53t60.5 -18q67 0 135 76zM319 649h529q-6 115 -73.5 187.5t-192.5 72.5q-118 0 -187 -78t-76 -182z" />
    <glyph glyph-name="Ecaron" unicode="&#x11a;" horiz-adv-x="1189" 
d="M174 0v1434h893v-224h-651v-368h594v-215h-594v-404h651v-223h-893zM498 1567l-138 176l123 98l144 -180l141 180l125 -98l-137 -176h-258z" />
    <glyph glyph-name="ecaron" unicode="&#x11b;" horiz-adv-x="1157" 
d="M874 360l168 -137q-158 -254 -450 -254q-224 0 -367 157t-143 417q0 172 65.5 303.5t179 200.5t255.5 69q216 0 354.5 -155.5t138.5 -417.5v-70h-758q5 -136 75 -216.5t196 -80.5q48 0 89.5 13t69 29.5t54.5 45.5t40.5 47.5t32.5 48.5zM319 649h529q-6 115 -73.5 187.5
t-192.5 72.5q-118 0 -187 -78t-76 -182zM467 1217l-137 176l123 98l143 -180l141 180l125 -98l-137 -176h-258z" />
    <glyph glyph-name="Gcircumflex" unicode="&#x11c;" horiz-adv-x="1351" 
d="M709 -31q-129 0 -238 44t-195 133.5t-135 240.5t-49 350q0 174 52 315.5t139 229.5t196.5 135t229.5 47q215 0 364.5 -131t181.5 -352l-243 -39q-12 63 -34.5 114t-57.5 93.5t-89 66t-122 23.5q-156 0 -261.5 -130.5t-105.5 -371.5q0 -140 29 -246.5t80 -170.5t116 -95.5
t142 -31.5q149 0 233.5 87t83.5 244h-297v209h531v-172q0 -183 -71.5 -318.5t-195.5 -204.5t-284 -69zM422 1628l137 176h258l139 -176l-127 -98l-141 180l-143 -180z" />
    <glyph glyph-name="gcircumflex" unicode="&#x11d;" horiz-adv-x="1230" 
d="M162 -213l180 115q43 -94 104.5 -141.5t163.5 -47.5q112 0 178 62t66 186v139h-4q-36 -53 -111 -92t-170 -39q-102 0 -191 39t-154.5 110.5t-103.5 181t-38 243.5q0 133 40 243t107 181t154 110t182 39q101 0 174.5 -38t118.5 -97h4v104h225v-1091q0 -235 -131.5 -360.5
t-345.5 -125.5q-169 0 -283.5 76.5t-164.5 202.5zM854 408v262q0 96 -68 165.5t-182 69.5q-131 0 -210 -94t-79 -268q0 -175 78.5 -269t210.5 -94q111 0 180.5 66.5t69.5 161.5zM362 1288l138 176h258l139 -176l-127 -98l-141 180l-144 -180z" />
    <glyph glyph-name="Gbreve" unicode="&#x11e;" horiz-adv-x="1351" 
d="M709 -31q-129 0 -238 44t-195 133.5t-135 240.5t-49 350q0 174 52 315.5t139 229.5t196.5 135t229.5 47q215 0 364.5 -131t181.5 -352l-243 -39q-12 63 -34.5 114t-57.5 93.5t-89 66t-122 23.5q-156 0 -261.5 -130.5t-105.5 -371.5q0 -140 29 -246.5t80 -170.5t116 -95.5
t142 -31.5q149 0 233.5 87t83.5 244h-297v209h531v-172q0 -183 -71.5 -318.5t-195.5 -204.5t-284 -69zM401 1804h117q7 -45 46 -77.5t106 -32.5q68 0 104 32.5t41 77.5h123q0 -114 -75.5 -186t-192.5 -72q-121 0 -195 71.5t-74 186.5z" />
    <glyph glyph-name="gbreve" unicode="&#x11f;" horiz-adv-x="1230" 
d="M162 -213l180 115q43 -94 104.5 -141.5t163.5 -47.5q112 0 178 62t66 186v139h-4q-36 -53 -111 -92t-170 -39q-102 0 -191 39t-154.5 110.5t-103.5 181t-38 243.5q0 133 40 243t107 181t154 110t182 39q101 0 174.5 -38t118.5 -97h4v104h225v-1091q0 -235 -131.5 -360.5
t-345.5 -125.5q-169 0 -283.5 76.5t-164.5 202.5zM854 408v262q0 96 -68 165.5t-182 69.5q-131 0 -210 -94t-79 -268q0 -175 78.5 -269t210.5 -94q111 0 180.5 66.5t69.5 161.5zM360 1456h117q7 -45 46 -77.5t106 -32.5q68 0 104 32.5t41 77.5h123q0 -114 -75.5 -186
t-192.5 -72q-121 0 -195 71.5t-74 186.5z" />
    <glyph glyph-name="Gdotaccent" unicode="&#x120;" horiz-adv-x="1351" 
d="M709 -31q-129 0 -238 44t-195 133.5t-135 240.5t-49 350q0 174 52 315.5t139 229.5t196.5 135t229.5 47q215 0 364.5 -131t181.5 -352l-243 -39q-12 63 -34.5 114t-57.5 93.5t-89 66t-122 23.5q-156 0 -261.5 -130.5t-105.5 -371.5q0 -140 29 -246.5t80 -170.5t116 -95.5
t142 -31.5q149 0 233.5 87t83.5 244h-297v209h531v-172q0 -183 -71.5 -318.5t-195.5 -204.5t-284 -69zM569 1567v233h244v-233h-244z" />
    <glyph glyph-name="gdotaccent" unicode="&#x121;" horiz-adv-x="1230" 
d="M162 -213l180 115q43 -94 104.5 -141.5t163.5 -47.5q112 0 178 62t66 186v139h-4q-36 -53 -111 -92t-170 -39q-102 0 -191 39t-154.5 110.5t-103.5 181t-38 243.5q0 133 40 243t107 181t154 110t182 39q101 0 174.5 -38t118.5 -97h4v104h225v-1091q0 -235 -131.5 -360.5
t-345.5 -125.5q-169 0 -283.5 76.5t-164.5 202.5zM854 408v262q0 96 -68 165.5t-182 69.5q-131 0 -210 -94t-79 -268q0 -175 78.5 -269t210.5 -94q111 0 180.5 66.5t69.5 161.5zM506 1227v233h244v-233h-244z" />
    <glyph glyph-name="Gcommaaccent" unicode="&#x122;" horiz-adv-x="1351" 
d="M709 -31q-129 0 -238 44t-195 133.5t-135 240.5t-49 350q0 174 52 315.5t139 229.5t196.5 135t229.5 47q215 0 364.5 -131t181.5 -352l-243 -39q-12 63 -34.5 114t-57.5 93.5t-89 66t-122 23.5q-156 0 -261.5 -130.5t-105.5 -371.5q0 -140 29 -246.5t80 -170.5t116 -95.5
t142 -31.5q149 0 233.5 87t83.5 244h-297v209h531v-172q0 -183 -71.5 -318.5t-195.5 -204.5t-284 -69zM635 -516v88q56 9 78 36t22 77h-108v215h235v-189q0 -213 -227 -227z" />
    <glyph glyph-name="gcommaaccent" unicode="&#x123;" horiz-adv-x="1230" 
d="M162 -213l180 115q43 -94 104.5 -141.5t163.5 -47.5q112 0 178 62t66 186v139h-4q-36 -53 -111 -92t-170 -39q-102 0 -191 39t-154.5 110.5t-103.5 181t-38 243.5q0 133 40 243t107 181t154 110t182 39q101 0 174.5 -38t118.5 -97h4v104h225v-1091q0 -235 -131.5 -360.5
t-345.5 -125.5q-169 0 -283.5 76.5t-164.5 202.5zM854 408v262q0 96 -68 165.5t-182 69.5q-131 0 -210 -94t-79 -268q0 -175 78.5 -269t210.5 -94q111 0 180.5 66.5t69.5 161.5zM729 1620v-76q-49 -8 -67.5 -35.5t-18.5 -74.5h98v-224h-227v191q0 206 215 219z" />
    <glyph glyph-name="Hcircumflex" unicode="&#x124;" horiz-adv-x="1372" 
d="M174 0v1434h242v-590h540v590h242v-1434h-242v635h-540v-635h-242zM406 1628l137 176h258l139 -176l-127 -98l-141 180l-144 -180z" />
    <glyph glyph-name="hcircumflex" unicode="&#x125;" horiz-adv-x="1216" 
d="M154 0v1495h233v-516h4q36 55 120.5 96t170.5 41q175 0 283 -106.5t108 -290.5v-719h-231v664q0 106 -57.5 171.5t-166.5 65.5q-104 0 -167.5 -62t-63.5 -157v-682h-233zM451 1288l137 176h258l139 -176l-127 -98l-141 180l-144 -180z" />
    <glyph glyph-name="Hbar" unicode="&#x126;" horiz-adv-x="1411" 
d="M195 0v1024h-103v201h103v209h239v-209h541v209h242v-209h102v-201h-102v-1024h-242v635h-541v-635h-239zM434 844h541v180h-541v-180z" />
    <glyph glyph-name="hbar" unicode="&#x127;" horiz-adv-x="1161" 
d="M147 0v1264h-106v170h106v61h234v-61h231v-170h-231v-283h4q37 56 113 95.5t159 39.5q172 0 276.5 -107.5t104.5 -289.5v-719h-233v664q0 107 -52.5 172t-158.5 65q-102 0 -157.5 -61t-55.5 -158v-682h-234z" />
    <glyph glyph-name="Itilde" unicode="&#x128;" horiz-adv-x="610" 
d="M184 0v1434h242v-1434h-242zM78 1567h-121q35 213 199 213q52 0 99.5 -19.5t84.5 -39t63 -19.5q58 0 74 67h121q-35 -213 -199 -213q-52 0 -100 19.5t-85 39t-62 19.5q-58 0 -74 -67z" />
    <glyph glyph-name="itilde" unicode="&#x129;" horiz-adv-x="542" 
d="M72 1227h-121q35 215 199 215q52 0 99.5 -20t84.5 -40t63 -20q58 0 74 70h121q-35 -215 -199 -215q-52 0 -100.5 19.5t-85.5 39.5t-62 20q-58 0 -73 -69zM156 0v1085h231v-1085h-231z" />
    <glyph glyph-name="Imacron" unicode="&#x12a;" horiz-adv-x="610" 
d="M184 0v1434h242v-1434h-242zM-16 1567v151h589v-151h-589z" />
    <glyph glyph-name="imacron" unicode="&#x12b;" horiz-adv-x="573" 
d="M-8 1270v151h590v-151h-590zM172 0v1085h231v-1085h-231z" />
    <glyph glyph-name="Ibreve" unicode="&#x12c;" horiz-adv-x="610" 
d="M184 0v1434h242v-1434h-242zM10 1804h117q7 -45 46 -77.5t106 -32.5q68 0 104 32.5t41 77.5h123q0 -114 -75.5 -186t-192.5 -72q-121 0 -195 71.5t-74 186.5z" />
    <glyph glyph-name="ibreve" unicode="&#x12d;" horiz-adv-x="559" 
d="M10 1456h117q7 -45 46 -77.5t106 -32.5q68 0 104 32.5t41 77.5h123q0 -114 -75.5 -186t-192.5 -72q-121 0 -195 71.5t-74 186.5zM150 0v1085h231v-1085h-231z" />
    <glyph glyph-name="Iogonek" unicode="&#x12e;" horiz-adv-x="610" 
d="M184 0v1434h242v-1434q-164 -140 -164 -238q0 -35 23.5 -53t60.5 -18q67 0 135 76l78 -72q-67 -74 -133 -105.5t-143 -31.5q-81 0 -138 36.5t-57 114.5q0 82 58.5 159t144.5 132h-107z" />
    <glyph glyph-name="iogonek" unicode="&#x12f;" horiz-adv-x="542" 
d="M158 0v1085h233v-1085q-164 -140 -164 -238q0 -35 23.5 -53t60.5 -18q67 0 135 76l78 -72q-67 -74 -133 -105.5t-143 -31.5q-81 0 -138 36.5t-57 114.5q0 82 58.5 159t144.5 132h-98zM154 1264v231h241v-231h-241z" />
    <glyph glyph-name="Idotaccent" unicode="&#x130;" horiz-adv-x="610" 
d="M184 0v1434h242v-1434h-242zM158 1567v233h243v-233h-243z" />
    <glyph glyph-name="dotlessi" unicode="&#x131;" horiz-adv-x="538" 
d="M154 0v1085h231v-1085h-231z" />
    <glyph glyph-name="IJ" unicode="&#x132;" horiz-adv-x="1490" 
d="M184 0v1434h242v-1434h-242zM559 299l223 74q36 -180 158 -180q79 0 113 38.5t34 128.5v1074h240v-1053q0 -213 -103.5 -312.5t-283.5 -99.5q-156 0 -257 93t-124 237z" />
    <glyph glyph-name="ij" unicode="&#x133;" horiz-adv-x="1056" 
d="M147 0v1085h234v-1085h-234zM143 1264v231h242v-231h-242zM528 -399v243h45q43 0 62.5 24t19.5 75v1142h234v-1200q0 -143 -64 -213.5t-198 -70.5h-99zM651 1264v231h242v-231h-242z" />
    <glyph glyph-name="Jcircumflex" unicode="&#x134;" horiz-adv-x="962" 
d="M31 299l223 74q36 -180 158 -180q79 0 113 38.5t34 128.5v1074h240v-1053q0 -213 -103.5 -312.5t-283.5 -99.5q-156 0 -257 93t-124 237zM403 1628l138 176h258l139 -176l-127 -98l-141 180l-144 -180z" />
    <glyph glyph-name="jcircumflex" unicode="&#x135;" horiz-adv-x="534" 
d="M31 -399v243h45q43 0 62.5 24t19.5 75v1142h233v-1200q0 -143 -64 -213.5t-198 -70.5h-98zM8 1288l137 176h258l140 -176l-127 -98l-142 180l-143 -180z" />
    <glyph glyph-name="Kcommaaccent" unicode="&#x136;" horiz-adv-x="1273" 
d="M154 0v1434h241v-639h4l535 639h293l-531 -631l588 -803h-291l-465 629h-4l-129 -164v-465h-241zM539 -516v88q56 9 78 36t22 77h-109v215h236v-189q0 -213 -227 -227z" />
    <glyph glyph-name="kcommaaccent" unicode="&#x137;" horiz-adv-x="1155" 
d="M154 0v1495h233v-874h4l416 464h297l-393 -436l434 -649h-264l-344 514h-5l-145 -160v-354h-233zM481 -516v88q56 9 78.5 36t22.5 77h-109v215h236v-189q0 -213 -228 -227z" />
    <glyph glyph-name="kgreenlandic" unicode="&#x138;" horiz-adv-x="1155" 
d="M154 0v1083h233v-462l420 464h297l-393 -436l434 -649h-264l-349 514l-145 -160v-354h-233z" />
    <glyph glyph-name="Lacute" unicode="&#x139;" horiz-adv-x="1058" 
d="M174 0v1434h242v-1211h602v-223h-844zM172 1567l164 254h258l-225 -254h-197z" />
    <glyph glyph-name="lacute" unicode="&#x13a;" horiz-adv-x="548" 
d="M154 0v1495h241v-1495h-241zM152 1597l163 254h258l-225 -254h-196z" />
    <glyph glyph-name="Lcommaaccent" unicode="&#x13b;" horiz-adv-x="1058" 
d="M174 0v1434h242v-1211h602v-223h-844zM444 -516v88q56 9 78.5 36t22.5 77h-109v215h236v-189q0 -213 -228 -227z" />
    <glyph glyph-name="lcommaaccent" unicode="&#x13c;" horiz-adv-x="548" 
d="M154 0v1495h241v-1495h-241zM172 -516v88q56 9 78 36t22 77h-108v215h235v-189q0 -213 -227 -227z" />
    <glyph glyph-name="Lcaron" unicode="&#x13d;" horiz-adv-x="1058" 
d="M174 0v1434h242v-1211h602v-223h-844zM731 1167l64 328h194l-119 -328h-139z" />
    <glyph glyph-name="lcaron" unicode="&#x13e;" horiz-adv-x="653" 
d="M154 0v1495h241v-1495h-241zM498 1167l63 328h195l-119 -328h-139z" />
    <glyph glyph-name="Ldot" unicode="&#x13f;" horiz-adv-x="1058" 
d="M174 0v1434h242v-1211h602v-223h-844zM653 621v272h285v-272h-285z" />
    <glyph glyph-name="ldot" unicode="&#x140;" horiz-adv-x="780" 
d="M154 0v1495h241v-1495h-241zM496 659v273h284v-273h-284z" />
    <glyph glyph-name="Lslash" unicode="&#x141;" horiz-adv-x="1128" 
d="M219 0v666l-137 -140l-82 84l219 219v605h242v-402l227 228l80 -84l-307 -308v-645h626v-223h-868z" />
    <glyph glyph-name="lslash" unicode="&#x142;" horiz-adv-x="626" 
d="M197 0v717l-177 -176l-81 84l258 256v614h233v-430l176 176l82 -82l-258 -260v-899h-233z" />
    <glyph glyph-name="Nacute" unicode="&#x143;" horiz-adv-x="1415" 
d="M174 0v1434h252l569 -1014h4v1014h242v-1434h-246l-575 1014h-4v-1014h-242zM600 1567l164 254h258l-225 -254h-197z" />
    <glyph glyph-name="nacute" unicode="&#x144;" horiz-adv-x="1206" 
d="M154 0v1085h225v-104h4q45 58 124.5 96.5t168.5 38.5q180 0 283.5 -107t103.5 -298v-711h-232v649q0 125 -49 188.5t-161 63.5q-107 0 -170.5 -61.5t-63.5 -165.5v-674h-233zM549 1219l164 254h256l-224 -254h-196z" />
    <glyph glyph-name="Ncommaaccent" unicode="&#x145;" horiz-adv-x="1415" 
d="M174 0v1434h252l569 -1014h4v1014h242v-1434h-246l-575 1014h-4v-1014h-242zM606 -516v88q56 9 78.5 36t22.5 77h-109v215h236v-189q0 -213 -228 -227z" />
    <glyph glyph-name="ncommaaccent" unicode="&#x146;" horiz-adv-x="1206" 
d="M154 0v1085h225v-104h4q45 58 124.5 96.5t168.5 38.5q180 0 283.5 -107t103.5 -298v-711h-232v649q0 125 -49 188.5t-161 63.5q-107 0 -170.5 -61.5t-63.5 -165.5v-674h-233zM504 -516v88q56 9 78 36t22 77h-108v215h235v-189q0 -213 -227 -227z" />
    <glyph glyph-name="Ncaron" unicode="&#x147;" horiz-adv-x="1415" 
d="M174 0v1434h252l569 -1014h4v1014h242v-1434h-246l-575 1014h-4v-1014h-242zM578 1567l-138 176l123 98l144 -180l141 180l125 -98l-137 -176h-258z" />
    <glyph glyph-name="ncaron" unicode="&#x148;" horiz-adv-x="1206" 
d="M154 0v1085h225v-104h4q45 58 124.5 96.5t168.5 38.5q180 0 283.5 -107t103.5 -298v-711h-232v649q0 125 -49 188.5t-161 63.5q-107 0 -170.5 -61.5t-63.5 -165.5v-674h-233zM483 1217l-137 176l123 98l143 -180l142 180l125 -98l-138 -176h-258z" />
    <glyph glyph-name="Eng" unicode="&#x14a;" horiz-adv-x="1409" 
d="M174 0v1434h225l590 -983h4v983h242v-1596q0 -141 -65 -211.5t-205 -70.5h-129v233h92q90 0 90 102v113l-598 979h-4v-983h-242z" />
    <glyph glyph-name="eng" unicode="&#x14b;" horiz-adv-x="1202" 
d="M154 0v1085h225v-104h4q46 59 120.5 97t162.5 38q179 0 286 -126.5t107 -338.5v-811q0 -145 -64 -215.5t-198 -70.5h-127v223h78q42 0 60.5 23t18.5 75v774q0 120 -56 186t-163 66q-104 0 -162.5 -63t-58.5 -170v-668h-233z" />
    <glyph glyph-name="Omacron" unicode="&#x14c;" horiz-adv-x="1417" 
d="M711 193q77 0 140.5 29.5t115 91t80 167t28.5 246.5q0 249 -104.5 380.5t-259.5 131.5q-157 0 -262 -130t-105 -380q0 -141 29 -246.5t80.5 -167.5t116 -92t141.5 -30zM711 -31q-97 0 -185.5 26t-168.5 84t-138 144.5t-92.5 216t-34.5 289.5q0 144 34.5 265.5t93.5 207
t138 145.5t168.5 88.5t184.5 28.5t183.5 -28.5t167 -89t137 -146t92.5 -207.5t34 -266q0 -160 -34 -289t-91.5 -215.5t-137 -144.5t-167 -83.5t-184.5 -25.5zM418 1567v151h590v-151h-590z" />
    <glyph glyph-name="omacron" unicode="&#x14d;" horiz-adv-x="1167" 
d="M586 180q122 0 196 95t74 268t-74 267.5t-196 94.5q-123 0 -198 -93.5t-75 -268.5q0 -176 74.5 -269.5t198.5 -93.5zM586 -31q-107 0 -198.5 38t-159.5 109.5t-107 181t-39 245.5q0 135 41 245.5t111 181t160.5 108.5t191.5 38t190.5 -38t158.5 -108.5t109.5 -181
t40.5 -245.5q0 -270 -140.5 -422t-358.5 -152zM295 1270v151h590v-151h-590z" />
    <glyph glyph-name="Obreve" unicode="&#x14e;" horiz-adv-x="1417" 
d="M711 193q77 0 140.5 29.5t115 91t80 167t28.5 246.5q0 249 -104.5 380.5t-259.5 131.5q-157 0 -262 -130t-105 -380q0 -141 29 -246.5t80.5 -167.5t116 -92t141.5 -30zM711 -31q-97 0 -185.5 26t-168.5 84t-138 144.5t-92.5 216t-34.5 289.5q0 144 34.5 265.5t93.5 207
t138 145.5t168.5 88.5t184.5 28.5t183.5 -28.5t167 -89t137 -146t92.5 -207.5t34 -266q0 -160 -34 -289t-91.5 -215.5t-137 -144.5t-167 -83.5t-184.5 -25.5zM444 1804h117q7 -45 46 -77.5t106 -32.5q68 0 104 32.5t41 77.5h123q0 -114 -75.5 -186t-192.5 -72
q-121 0 -195 71.5t-74 186.5z" />
    <glyph glyph-name="obreve" unicode="&#x14f;" horiz-adv-x="1167" 
d="M586 180q122 0 196 95t74 268t-74 267.5t-196 94.5q-123 0 -198 -93.5t-75 -268.5q0 -176 74.5 -269.5t198.5 -93.5zM586 -31q-107 0 -198.5 38t-159.5 109.5t-107 181t-39 245.5q0 135 41 245.5t111 181t160.5 108.5t191.5 38t190.5 -38t158.5 -108.5t109.5 -181
t40.5 -245.5q0 -270 -140.5 -422t-358.5 -152zM326 1456h116q7 -45 46 -77.5t106 -32.5q68 0 104 32.5t41 77.5h123q0 -114 -75.5 -186t-192.5 -72q-121 0 -194.5 71.5t-73.5 186.5z" />
    <glyph glyph-name="Ohungarumlaut" unicode="&#x150;" horiz-adv-x="1417" 
d="M711 193q77 0 140.5 29.5t115 91t80 167t28.5 246.5q0 249 -104.5 380.5t-259.5 131.5q-157 0 -262 -130t-105 -380q0 -141 29 -246.5t80.5 -167.5t116 -92t141.5 -30zM711 -31q-97 0 -185.5 26t-168.5 84t-138 144.5t-92.5 216t-34.5 289.5q0 144 34.5 265.5t93.5 207
t138 145.5t168.5 88.5t184.5 28.5t183.5 -28.5t167 -89t137 -146t92.5 -207.5t34 -266q0 -160 -34 -289t-91.5 -215.5t-137 -144.5t-167 -83.5t-184.5 -25.5zM471 1567l154 235h223l-213 -235h-164zM780 1567l154 235h225l-213 -235h-166z" />
    <glyph glyph-name="ohungarumlaut" unicode="&#x151;" horiz-adv-x="1167" 
d="M586 180q122 0 196 95t74 268t-74 267.5t-196 94.5q-123 0 -198 -93.5t-75 -268.5q0 -176 74.5 -269.5t198.5 -93.5zM586 -31q-107 0 -198.5 38t-159.5 109.5t-107 181t-39 245.5q0 135 41 245.5t111 181t160.5 108.5t191.5 38t190.5 -38t158.5 -108.5t109.5 -181
t40.5 -245.5q0 -270 -140.5 -422t-358.5 -152zM348 1243l154 236h223l-213 -236h-164zM657 1243l154 236h225l-213 -236h-166z" />
    <glyph glyph-name="OE" unicode="&#x152;" horiz-adv-x="2037" 
d="M1028 0v82q-48 -47 -133.5 -80t-189.5 -33q-97 0 -184.5 26t-166.5 84t-136.5 144.5t-91.5 216t-34 289.5q0 179 51.5 322t138 231.5t195 135t228.5 46.5q104 0 189.5 -33t133.5 -79v82h887v-224h-643v-350h586v-213h-586v-424h643v-223h-887zM1028 334v758
q-44 64 -120 105.5t-187 41.5q-80 0 -146 -29.5t-116.5 -90t-78.5 -160t-28 -230.5q0 -117 18.5 -208.5t50.5 -152.5t79 -101t101.5 -57t119.5 -17q112 0 188.5 40t118.5 101z" />
    <glyph glyph-name="oe" unicode="&#x153;" horiz-adv-x="1921" 
d="M1653 377l176 -103q-51 -131 -172 -218t-291 -87q-123 0 -224.5 53t-168.5 156q-132 -209 -387 -209q-107 0 -198.5 38t-159.5 109.5t-107 181t-39 245.5q0 135 41 245.5t111 181t160.5 108.5t191.5 38q116 0 216 -53t167 -156q65 103 162 156t217 53q220 0 355.5 -151.5
t135.5 -421.5v-70h-749q5 -136 75.5 -216.5t196.5 -80.5q61 0 112 19t85 51t56 63.5t38 67.5zM586 180q122 0 196 95t74 268q0 171 -76 266.5t-194 95.5q-121 0 -197 -94t-76 -268q0 -176 74.5 -269.5t198.5 -93.5zM1090 651h528q0 106 -71 184t-199 78q-65 0 -116 -23
t-81 -61.5t-45.5 -83.5t-15.5 -94z" />
    <glyph glyph-name="Racute" unicode="&#x154;" horiz-adv-x="1306" 
d="M174 0v1434h571q222 0 356 -118.5t134 -328.5q0 -163 -86.5 -270.5t-233.5 -145.5l310 -571h-269l-290 551h-250v-551h-242zM416 760h311q123 0 193.5 55t70.5 172t-70 172t-194 55h-311v-454zM485 1567l164 254h258l-225 -254h-197z" />
    <glyph glyph-name="racute" unicode="&#x155;" horiz-adv-x="741" 
d="M154 0v1085h221v-114h4q32 62 93.5 98.5t131.5 36.5q44 0 96 -21l-36 -227q-61 16 -86 16q-191 0 -191 -270v-604h-233zM289 1219l164 254h256l-224 -254h-196z" />
    <glyph glyph-name="Rcommaaccent" unicode="&#x156;" horiz-adv-x="1306" 
d="M174 0v1434h571q222 0 356 -118.5t134 -328.5q0 -163 -86.5 -270.5t-233.5 -145.5l310 -571h-269l-290 551h-250v-551h-242zM416 760h311q123 0 193.5 55t70.5 172t-70 172t-194 55h-311v-454zM543 -516v88q56 9 78 36t22 77h-108v215h235v-189q0 -213 -227 -227z" />
    <glyph glyph-name="rcommaaccent" unicode="&#x157;" horiz-adv-x="741" 
d="M154 0v1085h221v-114h4q32 62 93.5 98.5t131.5 36.5q44 0 96 -21l-36 -227q-61 16 -86 16q-191 0 -191 -270v-604h-233zM172 -516v88q56 9 78 36t22 77h-108v215h235v-189q0 -213 -227 -227z" />
    <glyph glyph-name="Rcaron" unicode="&#x158;" horiz-adv-x="1306" 
d="M174 0v1434h571q222 0 356 -118.5t134 -328.5q0 -163 -86.5 -270.5t-233.5 -145.5l310 -571h-269l-290 551h-250v-551h-242zM416 760h311q123 0 193.5 55t70.5 172t-70 172t-194 55h-311v-454zM483 1567l-137 176l123 98l143 -180l142 180l125 -98l-138 -176h-258z" />
    <glyph glyph-name="rcaron" unicode="&#x159;" horiz-adv-x="741" 
d="M154 0v1085h221v-114h4q32 62 93.5 98.5t131.5 36.5q44 0 96 -21l-36 -227q-61 16 -86 16q-191 0 -191 -270v-604h-233zM272 1217l-137 176l123 98l143 -180l142 180l125 -98l-138 -176h-258z" />
    <glyph glyph-name="Sacute" unicode="&#x15a;" horiz-adv-x="1236" 
d="M82 483l254 56q28 -183 97 -264.5t226 -81.5q131 0 205 52t74 142q0 62 -26.5 100t-106 76t-246.5 90q-225 70 -322.5 170t-97.5 244q0 78 31.5 149.5t89.5 126.5t149 88t201 33q97 0 182.5 -23.5t156 -70.5t119 -123.5t65.5 -175.5l-236 -57q-29 107 -94.5 166
t-192.5 59q-116 0 -174.5 -47.5t-58.5 -122.5q0 -37 11.5 -60t52.5 -50t107.5 -53t190.5 -68q131 -44 214.5 -87.5t133.5 -96.5t69.5 -112t19.5 -141q0 -187 -140.5 -309.5t-378.5 -122.5q-248 0 -395.5 130t-179.5 384zM528 1567l164 254h258l-225 -254h-197z" />
    <glyph glyph-name="sacute" unicode="&#x15b;" horiz-adv-x="1058" 
d="M72 362l213 52q14 -121 80.5 -184.5t181.5 -63.5q109 0 169 37.5t60 101.5q0 61 -54.5 89.5t-244.5 82.5q-191 54 -277.5 126.5t-86.5 191.5q0 131 106.5 226t292.5 95t295.5 -85.5t148.5 -231.5l-196 -58q-29 86 -86 133.5t-162 47.5q-87 0 -136.5 -34.5t-49.5 -82.5
q0 -19 4 -32t19 -26.5t33 -23t59 -24t84.5 -27.5t119.5 -35q134 -38 210.5 -87.5t104 -107t27.5 -141.5q0 -60 -25 -116.5t-75 -106t-136 -79.5t-196 -30q-93 0 -170 22t-130.5 59.5t-92.5 88.5t-60.5 106.5t-29.5 116.5zM432 1219l164 254h256l-223 -254h-197z" />
    <glyph glyph-name="Scircumflex" unicode="&#x15c;" horiz-adv-x="1236" 
d="M82 483l254 56q28 -183 97 -264.5t226 -81.5q131 0 205 52t74 142q0 62 -26.5 100t-106 76t-246.5 90q-225 70 -322.5 170t-97.5 244q0 78 31.5 149.5t89.5 126.5t149 88t201 33q97 0 182.5 -23.5t156 -70.5t119 -123.5t65.5 -175.5l-236 -57q-29 107 -94.5 166
t-192.5 59q-116 0 -174.5 -47.5t-58.5 -122.5q0 -37 11.5 -60t52.5 -50t107.5 -53t190.5 -68q131 -44 214.5 -87.5t133.5 -96.5t69.5 -112t19.5 -141q0 -187 -140.5 -309.5t-378.5 -122.5q-248 0 -395.5 130t-179.5 384zM365 1628l137 176h258l139 -176l-127 -98l-141 180
l-144 -180z" />
    <glyph glyph-name="scircumflex" unicode="&#x15d;" horiz-adv-x="1058" 
d="M72 362l213 52q14 -121 80.5 -184.5t181.5 -63.5q109 0 169 37.5t60 101.5q0 61 -54.5 89.5t-244.5 82.5q-191 54 -277.5 126.5t-86.5 191.5q0 131 106.5 226t292.5 95t295.5 -85.5t148.5 -231.5l-196 -58q-29 86 -86 133.5t-162 47.5q-87 0 -136.5 -34.5t-49.5 -82.5
q0 -19 4 -32t19 -26.5t33 -23t59 -24t84.5 -27.5t119.5 -35q134 -38 210.5 -87.5t104 -107t27.5 -141.5q0 -60 -25 -116.5t-75 -106t-136 -79.5t-196 -30q-93 0 -170 22t-130.5 59.5t-92.5 88.5t-60.5 106.5t-29.5 116.5zM262 1288l137 176h258l140 -176l-127 -98l-142 180
l-143 -180z" />
    <glyph glyph-name="Scedilla" unicode="&#x15e;" horiz-adv-x="1236" 
d="M473 -346l80 96q68 -65 149 -65q101 0 101 73q0 29 -27.5 45.5t-62.5 16.5q-28 0 -54.5 -8t-38.5 -16l-12 -7l-90 49l78 133q-222 15 -353.5 144t-160.5 368l254 56q28 -183 97 -264.5t226 -81.5q131 0 205 52t74 142q0 62 -26.5 100t-106 76t-246.5 90
q-225 70 -322.5 170t-97.5 244q0 78 31.5 149.5t89.5 126.5t149 88t201 33q97 0 182.5 -23.5t156 -70.5t119 -123.5t65.5 -175.5l-236 -57q-29 107 -94.5 166t-192.5 59q-116 0 -174.5 -47.5t-58.5 -122.5q0 -37 11.5 -60t52.5 -50t107.5 -53t190.5 -68q131 -44 214.5 -87.5
t133.5 -96.5t69.5 -112t19.5 -141q0 -176 -125.5 -296.5t-341.5 -133.5l-58 -90l2 -2q46 31 113 31q65 0 119.5 -42.5t54.5 -113.5q0 -93 -62 -144.5t-163 -51.5q-146 0 -242 96z" />
    <glyph glyph-name="scedilla" unicode="&#x15f;" horiz-adv-x="1058" 
d="M358 -346l80 96q68 -65 150 -65q100 0 100 73q0 29 -27.5 45.5t-62.5 16.5q-28 0 -54 -8t-38 -16l-12 -7l-91 49l80 135q-97 10 -173 46t-124 91t-76 118t-38 134l213 52q14 -121 80.5 -184.5t181.5 -63.5q109 0 169 37.5t60 101.5q0 61 -54.5 89.5t-244.5 82.5
q-191 54 -277.5 126.5t-86.5 191.5q0 131 106.5 226t292.5 95t295.5 -85.5t148.5 -231.5l-196 -58q-29 86 -86 133.5t-162 47.5q-87 0 -136.5 -34.5t-49.5 -82.5q0 -19 4 -32t19 -26.5t33 -23t59 -24t84.5 -27.5t119.5 -35q134 -38 210.5 -87.5t104 -107t27.5 -141.5
q0 -57 -23 -111.5t-68.5 -102.5t-124 -79.5t-179.5 -36.5l-55 -90l2 -2q47 31 112 31t119.5 -42.5t54.5 -113.5q0 -93 -62 -144.5t-163 -51.5q-146 0 -242 96z" />
    <glyph glyph-name="Scaron" unicode="&#x160;" horiz-adv-x="1236" 
d="M82 483l254 56q28 -183 97 -264.5t226 -81.5q131 0 205 52t74 142q0 62 -26.5 100t-106 76t-246.5 90q-225 70 -322.5 170t-97.5 244q0 78 31.5 149.5t89.5 126.5t149 88t201 33q97 0 182.5 -23.5t156 -70.5t119 -123.5t65.5 -175.5l-236 -57q-29 107 -94.5 166
t-192.5 59q-116 0 -174.5 -47.5t-58.5 -122.5q0 -37 11.5 -60t52.5 -50t107.5 -53t190.5 -68q131 -44 214.5 -87.5t133.5 -96.5t69.5 -112t19.5 -141q0 -187 -140.5 -309.5t-378.5 -122.5q-248 0 -395.5 130t-179.5 384zM492 1567l-138 176l123 98l144 -180l141 180l125 -98
l-137 -176h-258z" />
    <glyph glyph-name="scaron" unicode="&#x161;" horiz-adv-x="1058" 
d="M72 362l213 52q14 -121 80.5 -184.5t181.5 -63.5q109 0 169 37.5t60 101.5q0 61 -54.5 89.5t-244.5 82.5q-191 54 -277.5 126.5t-86.5 191.5q0 131 106.5 226t292.5 95t295.5 -85.5t148.5 -231.5l-196 -58q-29 86 -86 133.5t-162 47.5q-87 0 -136.5 -34.5t-49.5 -82.5
q0 -19 4 -32t19 -26.5t33 -23t59 -24t84.5 -27.5t119.5 -35q134 -38 210.5 -87.5t104 -107t27.5 -141.5q0 -60 -25 -116.5t-75 -106t-136 -79.5t-196 -30q-93 0 -170 22t-130.5 59.5t-92.5 88.5t-60.5 106.5t-29.5 116.5zM383 1217l-137 176l123 98l143 -180l141 180
l125 -98l-137 -176h-258z" />
    <glyph glyph-name="Tcommaaccent" unicode="&#x162;" horiz-adv-x="1157" 
d="M459 0v1210h-428v224h1095v-224h-426v-1210h-241zM475 -516v88q56 9 78 36t22 77h-108v215h235v-189q0 -213 -227 -227z" />
    <glyph glyph-name="tcommaaccent" unicode="&#x163;" horiz-adv-x="776" 
d="M205 362v523h-164v200h170v267h221v-267h273v-200h-271v-498q0 -90 28 -126t113 -36h87v-225h-105q-197 0 -274.5 87t-77.5 275zM309 -516v88q56 9 78.5 36t22.5 77h-109v215h236v-189q0 -213 -228 -227z" />
    <glyph glyph-name="Tcaron" unicode="&#x164;" horiz-adv-x="1157" 
d="M459 0v1210h-428v224h1095v-224h-426v-1210h-241zM457 1567l-138 176l123 98l144 -180l141 180l125 -98l-137 -176h-258z" />
    <glyph glyph-name="tcaron" unicode="&#x165;" horiz-adv-x="776" 
d="M205 362v523h-164v200h170v267h221v-267h273v-200h-271v-498q0 -90 28 -126t113 -36h87v-225h-105q-197 0 -274.5 87t-77.5 275zM586 1167l63 328h195l-119 -328h-139z" />
    <glyph glyph-name="Tbar" unicode="&#x166;" horiz-adv-x="1157" 
d="M459 0v610h-307v191h307v409h-428v224h1095v-224h-426v-409h308v-191h-308v-610h-241z" />
    <glyph glyph-name="tbar" unicode="&#x167;" horiz-adv-x="776" 
d="M205 362v117h-164v191h164v215h-164v200h170v267h221v-267h273v-200h-271v-215h271v-191h-271v-92q0 -90 28 -126t113 -36h87v-225h-105q-197 0 -274.5 87t-77.5 275z" />
    <glyph glyph-name="Utilde" unicode="&#x168;" horiz-adv-x="1345" 
d="M143 467v967h242v-955q0 -136 72.5 -211t214.5 -75q143 0 217 75t74 207v959h239v-967q0 -231 -145 -364.5t-385 -133.5t-384.5 133.5t-144.5 364.5zM492 1567h-121q35 213 198 213q52 0 100 -19.5t85 -39t63 -19.5q58 0 74 67h121q-35 -213 -199 -213q-52 0 -100.5 19.5
t-85.5 39t-62 19.5q-31 0 -48 -16.5t-25 -50.5z" />
    <glyph glyph-name="utilde" unicode="&#x169;" horiz-adv-x="1177" 
d="M143 383v702h234v-675q0 -120 43.5 -168.5t146.5 -48.5t163.5 57.5t60.5 175.5v659h233v-1085h-225v104h-4q-13 -18 -32 -36.5t-53 -43t-85.5 -40t-110.5 -15.5q-186 0 -278.5 109t-92.5 305zM397 1227h-121q35 215 199 215q52 0 100 -20t85 -40t63 -20q58 0 74 70h121
q-35 -215 -199 -215q-52 0 -100.5 19.5t-85.5 39.5t-62 20q-59 0 -74 -69z" />
    <glyph glyph-name="Umacron" unicode="&#x16a;" horiz-adv-x="1345" 
d="M143 467v967h242v-955q0 -136 72.5 -211t214.5 -75q143 0 217 75t74 207v959h239v-967q0 -231 -145 -364.5t-385 -133.5t-384.5 133.5t-144.5 364.5zM381 1567v151h590v-151h-590z" />
    <glyph glyph-name="umacron" unicode="&#x16b;" horiz-adv-x="1177" 
d="M143 383v702h234v-675q0 -120 43.5 -168.5t146.5 -48.5t163.5 57.5t60.5 175.5v659h233v-1085h-225v104h-4q-13 -18 -32 -36.5t-53 -43t-85.5 -40t-110.5 -15.5q-186 0 -278.5 109t-92.5 305zM289 1270v151h590v-151h-590z" />
    <glyph glyph-name="Ubreve" unicode="&#x16c;" horiz-adv-x="1345" 
d="M143 467v967h242v-955q0 -136 72.5 -211t214.5 -75q143 0 217 75t74 207v959h239v-967q0 -231 -145 -364.5t-385 -133.5t-384.5 133.5t-144.5 364.5zM410 1804h116q7 -45 46 -77.5t106 -32.5q68 0 104 32.5t41 77.5h123q0 -114 -75.5 -186t-192.5 -72q-121 0 -194.5 71.5
t-73.5 186.5z" />
    <glyph glyph-name="ubreve" unicode="&#x16d;" horiz-adv-x="1177" 
d="M143 383v702h234v-675q0 -120 43.5 -168.5t146.5 -48.5t163.5 57.5t60.5 175.5v659h233v-1085h-225v104h-4q-13 -18 -32 -36.5t-53 -43t-85.5 -40t-110.5 -15.5q-186 0 -278.5 109t-92.5 305zM322 1456h116q7 -45 46 -77.5t106 -32.5q68 0 104 32.5t41 77.5h123
q0 -114 -75.5 -186t-192.5 -72q-121 0 -194.5 71.5t-73.5 186.5z" />
    <glyph glyph-name="Uring" unicode="&#x16e;" horiz-adv-x="1345" 
d="M143 467v967h242v-955q0 -136 72.5 -211t214.5 -75q143 0 217 75t74 207v959h239v-967q0 -231 -145 -364.5t-385 -133.5t-384.5 133.5t-144.5 364.5zM680 1391q-92 0 -150.5 62.5t-58.5 154.5q0 90 60.5 153.5t148.5 63.5q92 0 151.5 -62.5t59.5 -154.5q0 -94 -59 -155.5
t-152 -61.5zM680 1501q35 0 62.5 29t27.5 80q0 52 -27 79t-63 27t-61 -27t-25 -79q0 -51 25.5 -80t60.5 -29z" />
    <glyph glyph-name="uring" unicode="&#x16f;" horiz-adv-x="1177" 
d="M143 383v702h234v-675q0 -120 43.5 -168.5t146.5 -48.5t163.5 57.5t60.5 175.5v659h233v-1085h-225v104h-4q-13 -18 -32 -36.5t-53 -43t-85.5 -40t-110.5 -15.5q-186 0 -278.5 109t-92.5 305zM582 1069q-93 0 -151 62t-58 155q0 90 60.5 153.5t148.5 63.5
q92 0 151.5 -62.5t59.5 -154.5q0 -96 -59 -156.5t-152 -60.5zM582 1180q36 0 63 28t27 80t-27 79.5t-63 27.5q-35 0 -60.5 -27.5t-25.5 -79.5t25.5 -80t60.5 -28z" />
    <glyph glyph-name="Uhungarumlaut" unicode="&#x170;" horiz-adv-x="1345" 
d="M143 467v967h242v-955q0 -136 72.5 -211t214.5 -75q143 0 217 75t74 207v959h239v-967q0 -231 -145 -364.5t-385 -133.5t-384.5 133.5t-144.5 364.5zM453 1567l153 235h223l-213 -235h-163zM762 1567l153 235h226l-213 -235h-166z" />
    <glyph glyph-name="uhungarumlaut" unicode="&#x171;" horiz-adv-x="1177" 
d="M143 383v702h234v-675q0 -120 43.5 -168.5t146.5 -48.5t163.5 57.5t60.5 175.5v659h233v-1085h-225v104h-4q-13 -18 -32 -36.5t-53 -43t-85.5 -40t-110.5 -15.5q-186 0 -278.5 109t-92.5 305zM346 1251l154 236h223l-213 -236h-164zM655 1251l154 236h225l-213 -236h-166
z" />
    <glyph glyph-name="Uogonek" unicode="&#x172;" horiz-adv-x="1345" 
d="M874 -233l78 -72q-67 -74 -133 -105.5t-143 -31.5q-81 0 -138 36.5t-57 114.5q0 71 44 138.5t114 121.5q-227 9 -361.5 142t-134.5 356v967h242v-955q0 -136 72.5 -211t214.5 -75q143 0 217 75t74 207v959h239v-967q0 -198 -109 -326t-298 -161q-140 -126 -140 -218
q0 -35 23.5 -53t60.5 -18q67 0 135 76z" />
    <glyph glyph-name="uogonek" unicode="&#x173;" horiz-adv-x="1177" 
d="M1079 -233l78 -72q-67 -74 -133 -105.5t-143 -31.5q-81 0 -138 36.5t-57 114.5q0 82 58.5 159t144.5 132h-90v104h-4q-13 -18 -32 -36.5t-53 -43t-85.5 -40t-110.5 -15.5q-186 0 -278.5 109t-92.5 305v702h234v-675q0 -120 43.5 -168.5t146.5 -48.5t163.5 57.5
t60.5 175.5v659h233v-1085q-164 -140 -164 -238q0 -35 23.5 -53t60.5 -18q67 0 135 76z" />
    <glyph glyph-name="Wcircumflex" unicode="&#x174;" horiz-adv-x="1843" 
d="M346 0l-274 1434h245l195 -1010h4l340 1010h137l338 -1010h4l195 1010h242l-275 -1434h-252l-323 983h-4l-318 -983h-254zM647 1628l137 176h258l140 -176l-127 -98l-142 180l-143 -180z" />
    <glyph glyph-name="wcircumflex" unicode="&#x175;" horiz-adv-x="1644" 
d="M311 0l-239 1085h229l154 -755h4l258 755h211l241 -753h5l174 753h225l-260 -1085h-226l-264 815h-4l-284 -815h-224zM532 1288l138 176h258l139 -176l-127 -98l-141 180l-144 -180z" />
    <glyph glyph-name="Ycircumflex" unicode="&#x176;" horiz-adv-x="1196" 
d="M479 0v604l-469 830h258l328 -611h4l330 611h256l-469 -830v-604h-238zM338 1628l137 176h258l139 -176l-127 -98l-141 180l-143 -180z" />
    <glyph glyph-name="ycircumflex" unicode="&#x177;" horiz-adv-x="1101" 
d="M238 -461l204 510l-422 1036h246l285 -747h4l285 747h241l-618 -1546h-225zM295 1288l137 176h258l139 -176l-127 -98l-141 180l-143 -180z" />
    <glyph glyph-name="Ydieresis" unicode="&#x178;" horiz-adv-x="1196" 
d="M479 0v604l-469 830h258l328 -611h4l330 611h256l-469 -830v-604h-238zM289 1567v219h229v-219h-229zM692 1567v219h228v-219h-228z" />
    <glyph glyph-name="Zacute" unicode="&#x179;" horiz-adv-x="1214" 
d="M92 0v219l731 979v4h-698v232h997v-220l-735 -981v-4h729v-229h-1024zM473 1567l164 254h258l-225 -254h-197z" />
    <glyph glyph-name="zacute" unicode="&#x17a;" horiz-adv-x="1110" 
d="M92 0v193l613 673v4h-584v215h883v-188l-603 -670v-4h617v-223h-926zM426 1219l164 254h256l-223 -254h-197z" />
    <glyph glyph-name="Zdotaccent" unicode="&#x17b;" horiz-adv-x="1214" 
d="M92 0v219l731 979v4h-698v232h997v-220l-735 -981v-4h729v-229h-1024zM459 1567v233h243v-233h-243z" />
    <glyph glyph-name="zdotaccent" unicode="&#x17c;" horiz-adv-x="1110" 
d="M92 0v193l613 673v4h-584v215h883v-188l-603 -670v-4h617v-223h-926zM428 1227v233h244v-233h-244z" />
    <glyph glyph-name="Zcaron" unicode="&#x17d;" horiz-adv-x="1214" 
d="M92 0v219l731 979v4h-698v232h997v-220l-735 -981v-4h729v-229h-1024zM481 1567l-137 176l123 98l143 -180l142 180l125 -98l-138 -176h-258z" />
    <glyph glyph-name="zcaron" unicode="&#x17e;" horiz-adv-x="1110" 
d="M92 0v193l613 673v4h-584v215h883v-188l-603 -670v-4h617v-223h-926zM418 1217l-137 176l122 98l144 -180l141 180l125 -98l-137 -176h-258z" />
    <glyph glyph-name="longs" unicode="&#x17f;" horiz-adv-x="638" 
d="M176 0v885h-135v200h139v142q0 139 69 195.5t200 56.5h180v-207h-133q-53 0 -73 -20.5t-20 -77.5v-1174h-227z" />
    <glyph glyph-name="Ereversed" unicode="&#x18e;" horiz-adv-x="1187" 
d="M1014 1434v-1434h-891v223h651v404h-594v215h594v368h-651v224h891z" />
    <glyph glyph-name="Eschwa" unicode="&#x18f;" horiz-adv-x="1388" 
d="M326 979l-201 149q36 69 85.5 126.5t117 106t158 76t194.5 27.5q290 0 453 -201.5t163 -549.5q0 -171 -47.5 -312.5t-130.5 -235.5t-195.5 -145t-242.5 -51q-265 0 -431.5 203t-166.5 545v90h958q-5 81 -28.5 155.5t-65.5 137.5t-110 101t-154 38q-59 0 -110.5 -17.5
t-87 -42.5t-68.5 -63.5t-51.5 -68t-38.5 -68.5zM1040 600h-708q11 -178 102 -292.5t246 -114.5q153 0 246 113t114 294z" />
    <glyph glyph-name="florin" unicode="&#x192;" horiz-adv-x="1030" 
d="M139 -354l195 1118h-201l33 188h201l49 254q32 167 109.5 243.5t203.5 76.5q154 0 270 -129l-122 -172q-61 69 -121 69q-45 0 -73.5 -26t-41.5 -94l-41 -222h289l-33 -188h-289l-194 -1118h-234z" />
    <glyph glyph-name="Aringacute" unicode="&#x1fa;" horiz-adv-x="1269" 
d="M1010 0l-86 246h-580l-84 -246h-240l512 1423q-44 28 -69 77t-25 108q0 80 49.5 140.5t124.5 72.5l121 186h258l-207 -233q74 -64 74 -166q0 -67 -31.5 -119.5t-85.5 -77.5l508 -1411h-239zM633 1083l-217 -630h436l-215 630h-4zM647 1501q35 0 62.5 29t27.5 80
q0 52 -27 79t-63 27t-61 -27t-25 -79q0 -51 25.5 -80t60.5 -29z" />
    <glyph glyph-name="aringacute" unicode="&#x1fb;" horiz-adv-x="1107" 
d="M776 0v109h-4q-6 -9 -15.5 -21t-36 -34.5t-59 -40t-85 -31t-111.5 -13.5q-98 0 -173.5 26.5t-120 71.5t-67 101t-22.5 119q0 140 84.5 215t284.5 123q181 45 235.5 74.5t54.5 86.5q0 56 -49.5 92.5t-148.5 36.5q-60 0 -103.5 -15.5t-70 -44.5t-41.5 -59t-27 -71l-199 76
q29 117 113 199.5t219 107.5q-84 62 -84 178q0 78 47.5 138t120.5 75l121 187h256l-203 -230q78 -65 78 -170q0 -125 -94 -184q138 -31 218.5 -130t80.5 -270v-702h-199zM498 459q-114 -28 -152.5 -66t-38.5 -90q0 -131 178 -131q131 0 198 53t67 129v217h-5
q-8 -17 -21.5 -29t-69 -34t-156.5 -49zM559 1180q36 0 63 28t27 80t-27 79.5t-63 27.5q-35 0 -60.5 -27.5t-25.5 -79.5t25.5 -80t60.5 -28z" />
    <glyph glyph-name="AEacute" unicode="&#x1fc;" horiz-adv-x="1777" 
d="M10 0l539 1434h1096v-224h-574v-368h516v-209h-516v-410h574v-223h-816v268h-471l-100 -268h-248zM434 481h395v729h-129zM707 1567l163 254h258l-225 -254h-196z" />
    <glyph glyph-name="aeacute" unicode="&#x1fd;" horiz-adv-x="1828" 
d="M1548 383l183 -121q-63 -133 -179 -213t-286 -80q-249 0 -392 185h-4q-110 -185 -383 -185q-106 0 -186.5 26.5t-127 72.5t-69 101.5t-22.5 119.5q0 130 80.5 208.5t288.5 127.5q173 41 231.5 72.5t58.5 88.5t-47.5 93t-150.5 36q-104 0 -160.5 -50t-81.5 -142l-199 78
q31 137 146 226t289 89q250 0 362 -149h4q143 149 348 149q218 0 357 -155.5t139 -417.5v-70h-758q5 -135 76 -216t197 -81q52 0 97.5 16.5t72.5 35.5t54 54.5t36 51.5t26 49zM498 459q-114 -30 -152.5 -67t-38.5 -89q0 -131 178 -131q131 0 198 53t67 129v217h-5
q-8 -17 -21 -29t-69.5 -34.5t-156.5 -48.5zM989 649h531q-8 115 -76 187.5t-193 72.5q-80 0 -140 -40t-89 -97t-33 -123zM459 1219l164 254h256l-224 -254h-196z" />
    <glyph glyph-name="Oslashacute" unicode="&#x1fe;" horiz-adv-x="1417" 
d="M637 1567l164 254h256l-223 -254h-197zM238 31l53 94q-209 199 -209 604q0 144 34 265.5t93 207t138 145.5t168.5 88.5t184.5 28.5q167 0 304 -88l51 88l102 -63l-55 -98q100 -97 156.5 -242.5t56.5 -333.5q0 -160 -34 -289t-92 -215.5t-137.5 -144.5t-167 -83.5
t-184.5 -25.5q-169 0 -311 80l-47 -80zM975 1081l-471 -827q81 -61 196 -61q77 0 141 29.5t115 91t80 167t29 246.5q0 220 -90 354zM420 350l471 828q-85 61 -191 61q-157 0 -261.5 -130t-104.5 -380q0 -239 86 -379z" />
    <glyph glyph-name="oslashacute" unicode="&#x1ff;" horiz-adv-x="1167" 
d="M492 1219l163 254h256l-223 -254h-196zM115 35l84 104q-127 152 -127 404q0 135 40.5 245.5t110.5 181t160.5 108.5t191.5 38q170 0 302 -104l77 102l78 -65l-84 -107q127 -156 127 -399q0 -136 -38.5 -245.5t-106 -181t-158.5 -109.5t-197 -38q-178 0 -307 101l-75 -99z
M801 754l-398 -510q67 -64 172 -64q122 0 196.5 95t74.5 268q0 126 -45 211zM344 328l397 512q-68 65 -166 65q-120 0 -196 -94t-76 -268q0 -131 41 -215z" />
    <glyph glyph-name="Scommaaccent" unicode="&#x218;" horiz-adv-x="1236" 
d="M82 483l254 56q28 -183 97 -264.5t226 -81.5q131 0 205 52t74 142q0 62 -26.5 100t-106 76t-246.5 90q-225 70 -322.5 170t-97.5 244q0 78 31.5 149.5t89.5 126.5t149 88t201 33q97 0 182.5 -23.5t156 -70.5t119 -123.5t65.5 -175.5l-236 -57q-29 107 -94.5 166
t-192.5 59q-116 0 -174.5 -47.5t-58.5 -122.5q0 -37 11.5 -60t52.5 -50t107.5 -53t190.5 -68q131 -44 214.5 -87.5t133.5 -96.5t69.5 -112t19.5 -141q0 -187 -140.5 -309.5t-378.5 -122.5q-248 0 -395.5 130t-179.5 384zM569 -516v88q56 9 78.5 36t22.5 77h-109v215h236
v-189q0 -213 -228 -227z" />
    <glyph glyph-name="scommaaccent" unicode="&#x219;" horiz-adv-x="1058" 
d="M72 362l213 52q14 -121 80.5 -184.5t181.5 -63.5q109 0 169 37.5t60 101.5q0 61 -54.5 89.5t-244.5 82.5q-191 54 -277.5 126.5t-86.5 191.5q0 131 106.5 226t292.5 95t295.5 -85.5t148.5 -231.5l-196 -58q-29 86 -86 133.5t-162 47.5q-87 0 -136.5 -34.5t-49.5 -82.5
q0 -19 4 -32t19 -26.5t33 -23t59 -24t84.5 -27.5t119.5 -35q134 -38 210.5 -87.5t104 -107t27.5 -141.5q0 -60 -25 -116.5t-75 -106t-136 -79.5t-196 -30q-93 0 -170 22t-130.5 59.5t-92.5 88.5t-60.5 106.5t-29.5 116.5zM440 -516v88q56 9 78.5 36t22.5 77h-109v215h236
v-189q0 -213 -228 -227z" />
    <glyph glyph-name="dotlessj" unicode="&#x237;" horiz-adv-x="534" 
d="M31 -399v243h45q43 0 62.5 24t19.5 75v1142h233v-1200q0 -143 -64 -213.5t-198 -70.5h-98z" />
    <glyph glyph-name="schwa" unicode="&#x259;" horiz-adv-x="1157" 
d="M283 725l-168 137q158 254 450 254q226 0 368 -156t142 -417q0 -129 -38 -237.5t-105 -182t-159 -114t-198 -40.5q-216 0 -354.5 156t-138.5 418v69h758q-5 136 -75 216.5t-196 80.5q-59 0 -106 -16.5t-83 -50t-53 -55.5t-44 -62zM838 434h-529q8 -115 75 -187.5
t191 -72.5q118 0 188 79t75 181z" />
    <glyph glyph-name="circumflex" unicode="&#x2c6;" horiz-adv-x="636" 
d="M51 1288l137 176h258l140 -176l-127 -98l-142 180l-143 -180z" />
    <glyph glyph-name="caron" unicode="&#x2c7;" horiz-adv-x="634" 
d="M188 1217l-137 176l123 98l143 -180l142 180l125 -98l-138 -176h-258z" />
    <glyph glyph-name="breve" unicode="&#x2d8;" horiz-adv-x="679" 
d="M72 1456h116q7 -45 46 -77.5t106 -32.5q68 0 104 32.5t41 77.5h123q0 -114 -75.5 -186t-192.5 -72q-121 0 -194.5 71.5t-73.5 186.5z" />
    <glyph glyph-name="dotaccent" unicode="&#x2d9;" horiz-adv-x="550" 
d="M154 1227v233h243v-233h-243z" />
    <glyph glyph-name="ring" unicode="&#x2da;" horiz-adv-x="604" 
d="M301 1069q-93 0 -151 62t-58 155q0 90 60.5 153.5t148.5 63.5q92 0 151.5 -62.5t59.5 -154.5q0 -96 -59 -156.5t-152 -60.5zM301 1180q36 0 63 28t27 80t-27 79.5t-63 27.5q-35 0 -60.5 -27.5t-25.5 -79.5t25.5 -80t60.5 -28z" />
    <glyph glyph-name="ogonek" unicode="&#x2db;" horiz-adv-x="573" 
d="M444 -233l78 -72q-67 -74 -133 -105.5t-143 -31.5q-81 0 -138 36.5t-57 114.5q0 82 58.5 159t144.5 132h135q-164 -140 -164 -238q0 -35 23.5 -53t60.5 -18q67 0 135 76z" />
    <glyph glyph-name="tilde" unicode="&#x2dc;" horiz-adv-x="825" 
d="M213 1227h-121q35 215 199 215q52 0 100 -20t85 -40t63 -20q57 0 73 70h121q-35 -215 -198 -215q-52 0 -100.5 19.5t-85.5 39.5t-62 20q-59 0 -74 -69z" />
    <glyph glyph-name="hungarumlaut" unicode="&#x2dd;" horiz-adv-x="995" 
d="M154 1219l153 235h223l-213 -235h-163zM463 1219l153 235h226l-213 -235h-166z" />
    <glyph glyph-name="uni0312" unicode="&#x312;" horiz-adv-x="575" 
d="M389 1620v-76q-49 -8 -67.5 -35.5t-18.5 -74.5h98v-224h-227v191q0 206 215 219z" />
    <glyph glyph-name="pi" unicode="&#x3c0;" horiz-adv-x="1462" 
d="M408 0h-230q8 26 21.5 72t47.5 186t59.5 278t47 326t21.5 352h-221v220h1175v-220h-158v-909q0 -183 27 -305h-221q-35 60 -35 293v921h-338q0 -163 -20 -348t-49 -332.5t-58 -272t-49 -193.5z" />
    <glyph glyph-name="Wgrave" unicode="&#x1e80;" horiz-adv-x="1843" 
d="M346 0l-274 1434h245l195 -1010h4l340 1010h137l338 -1010h4l195 1010h242l-275 -1434h-252l-323 983h-4l-318 -983h-254zM805 1567l-223 254h256l163 -254h-196z" />
    <glyph glyph-name="wgrave" unicode="&#x1e81;" horiz-adv-x="1644" 
d="M311 0l-239 1085h229l154 -755h4l258 755h211l241 -753h5l174 753h225l-260 -1085h-226l-264 815h-4l-284 -815h-224zM711 1219l-224 254h256l164 -254h-196z" />
    <glyph glyph-name="Wacute" unicode="&#x1e82;" horiz-adv-x="1843" 
d="M346 0l-274 1434h245l195 -1010h4l340 1010h137l338 -1010h4l195 1010h242l-275 -1434h-252l-323 983h-4l-318 -983h-254zM811 1567l164 254h258l-225 -254h-197z" />
    <glyph glyph-name="wacute" unicode="&#x1e83;" horiz-adv-x="1644" 
d="M311 0l-239 1085h229l154 -755h4l258 755h211l241 -753h5l174 753h225l-260 -1085h-226l-264 815h-4l-284 -815h-224zM707 1219l163 254h256l-223 -254h-196z" />
    <glyph glyph-name="Wdieresis" unicode="&#x1e84;" horiz-adv-x="1843" 
d="M346 0l-274 1434h245l195 -1010h4l340 1010h137l338 -1010h4l195 1010h242l-275 -1434h-252l-323 983h-4l-318 -983h-254zM588 1567v219h229v-219h-229zM991 1567v219h228v-219h-228z" />
    <glyph glyph-name="wdieresis" unicode="&#x1e85;" horiz-adv-x="1644" 
d="M311 0l-239 1085h229l154 -755h4l258 755h211l241 -753h5l174 753h225l-260 -1085h-226l-264 815h-4l-284 -815h-224zM479 1229v219h230v-219h-230zM883 1229v219h227v-219h-227z" />
    <glyph glyph-name="Ygrave" unicode="&#x1ef2;" horiz-adv-x="1196" 
d="M479 0v604l-469 830h258l328 -611h4l330 611h256l-469 -830v-604h-238zM526 1567l-223 254h256l164 -254h-197z" />
    <glyph glyph-name="ygrave" unicode="&#x1ef3;" horiz-adv-x="1101" 
d="M238 -461l204 510l-422 1036h246l285 -747h4l285 747h241l-618 -1546h-225zM463 1219l-223 254h256l163 -254h-196z" />
    <glyph glyph-name="endash" unicode="&#x2013;" horiz-adv-x="1206" 
d="M92 573v201h1022v-201h-1022z" />
    <glyph glyph-name="emdash" unicode="&#x2014;" horiz-adv-x="2004" 
d="M195 573v201h1615v-201h-1615z" />
    <glyph glyph-name="quoteleft" unicode="&#x2018;" horiz-adv-x="632" 
d="M459 1434v-125q-63 -10 -82 -39t-19 -92h101v-273h-285v240q0 124 68.5 201t216.5 88z" />
    <glyph glyph-name="quoteright" unicode="&#x2019;" horiz-adv-x="632" 
d="M174 905v125q63 10 81.5 39t18.5 92h-100v273h285v-240q0 -124 -68.5 -201t-216.5 -88z" />
    <glyph glyph-name="quotesinglbase" unicode="&#x201a;" horiz-adv-x="632" 
d="M174 -256v125q63 10 81.5 39t18.5 92h-100v272h285v-239q0 -124 -68.5 -201t-216.5 -88z" />
    <glyph glyph-name="quotedblleft" unicode="&#x201c;" horiz-adv-x="1042" 
d="M459 1434v-125q-63 -10 -82 -39t-19 -92h101v-273h-285v240q0 124 68.5 201t216.5 88zM868 1434v-125q-63 -10 -81.5 -39t-18.5 -92h100v-273h-284v240q0 125 68 201.5t216 87.5z" />
    <glyph glyph-name="quotedblright" unicode="&#x201d;" horiz-adv-x="1042" 
d="M174 905v125q63 10 81.5 39t18.5 92h-100v273h285v-240q0 -124 -68.5 -201t-216.5 -88zM584 905v125q63 10 81.5 39t18.5 92h-100v273h284v-240q0 -125 -68 -201.5t-216 -87.5z" />
    <glyph glyph-name="quotedblbase" unicode="&#x201e;" horiz-adv-x="1042" 
d="M584 -256v125q63 10 81.5 39t18.5 92h-100v272h284v-239q0 -125 -68 -201.5t-216 -87.5zM174 -256v125q63 10 81.5 39t18.5 92h-100v272h285v-239q0 -124 -68.5 -201t-216.5 -88z" />
    <glyph glyph-name="dagger" unicode="&#x2020;" horiz-adv-x="1292" 
d="M541 -461v1286h-449v201h449v469h211v-469h448v-201h-448v-1286h-211z" />
    <glyph glyph-name="daggerdbl" unicode="&#x2021;" horiz-adv-x="1292" 
d="M541 -461v461h-449v197h449v632h-449v197h449v469h211v-469h448v-197h-448v-632h448v-197h-448v-461h-211z" />
    <glyph glyph-name="bullet" unicode="&#x2022;" horiz-adv-x="661" 
d="M330 461q-102 0 -165 64t-63 165q0 102 63 168t165 66t165.5 -66t63.5 -168q0 -100 -63.5 -164.5t-165.5 -64.5z" />
    <glyph glyph-name="ellipsis" unicode="&#x2026;" horiz-adv-x="1789" 
d="M174 0v272h285v-272h-285zM756 0v272h282v-272h-282zM1333 0v272h283v-272h-283z" />
    <glyph glyph-name="perthousand" unicode="&#x2030;" horiz-adv-x="2740" 
d="M2267 141q80 0 122 69.5t42 188.5q0 116 -42.5 176t-121.5 60q-78 0 -119 -59.5t-41 -176.5q0 -119 41 -188.5t119 -69.5zM2267 -25q-148 0 -243 108.5t-95 319.5q0 98 29 177t78 127t108 73t123 25t123.5 -25.5t108.5 -73.5t78.5 -127t29.5 -176q0 -194 -97.5 -311
t-242.5 -117zM471 795q80 0 122 69.5t42 188.5q0 116 -42.5 175.5t-121.5 59.5t-120.5 -59.5t-41.5 -175.5q0 -119 41 -188.5t121 -69.5zM471 629q-148 0 -243 108.5t-95 319.5q0 98 29 176.5t78 126.5t108 73t123 25t123.5 -25.5t108.5 -73.5t78.5 -126.5t29.5 -175.5
q0 -194 -97.5 -311t-242.5 -117zM1446 141q80 0 122 69.5t42 188.5q0 116 -42.5 176t-121.5 60t-120.5 -60t-41.5 -176q0 -119 41 -188.5t121 -69.5zM1446 -25q-148 0 -243 108.5t-95 319.5q0 98 29 177t78 127t108 73t123 25t123.5 -25.5t108.5 -73.5t78.5 -127t29.5 -176
q0 -194 -97.5 -311t-242.5 -117zM393 -74l1002 1669l133 -82l-1000 -1667z" />
    <glyph glyph-name="guilsinglleft" unicode="&#x2039;" horiz-adv-x="770" 
d="M412 174l-238 401l223 381h205l-223 -381l237 -401h-204z" />
    <glyph glyph-name="guilsinglright" unicode="&#x203a;" horiz-adv-x="770" 
d="M586 575l-238 -401h-205l238 401l-223 381h204z" />
    <glyph glyph-name="fraction" unicode="&#x2044;" horiz-adv-x="663" 
d="M-236 -74l1002 1669l133 -82l-999 -1667z" />
    <glyph glyph-name="zerosuperior" unicode="&#x2070;" horiz-adv-x="784" 
d="M391 958q-151 0 -240.5 112.5t-89.5 348.5q0 213 90.5 323.5t239.5 110.5t240.5 -110.5t91.5 -323.5q0 -236 -90 -348.5t-242 -112.5zM391 1118q81 0 119.5 66.5t38.5 234.5q0 146 -39 209.5t-119 63.5q-79 0 -118.5 -64t-39.5 -209q0 -168 38.5 -234.5t119.5 -66.5z" />
    <glyph glyph-name="foursuperior" unicode="&#x2074;" horiz-adv-x="778" 
d="M41 1143v153l332 547h235v-547h99v-153h-99v-174h-168v174h-399zM197 1296h245v398h-4z" />
    <glyph glyph-name="fivesuperior" unicode="&#x2075;" horiz-adv-x="772" 
d="M61 1186l152 71q21 -69 65.5 -107t110.5 -38q70 0 115 41t45 117q0 74 -45.5 115.5t-110.5 41.5q-114 0 -178 -90l-127 64l78 442h461v-153h-338l-35 -199l4 -2q13 21 58 44t118 23q115 0 196 -82t81 -208q0 -144 -92.5 -226t-229.5 -82q-127 0 -208.5 62.5t-119.5 165.5
z" />
    <glyph glyph-name="sixsuperior" unicode="&#x2076;" horiz-adv-x="784" 
d="M420 1116q75 0 111 42.5t36 111.5q0 66 -39.5 107.5t-113.5 41.5q-71 0 -112.5 -44.5t-41.5 -104.5q0 -72 44 -113t116 -41zM231 1450h5q20 35 74 65.5t139 30.5q70 0 131 -30.5t102 -98t41 -160.5q0 -137 -87.5 -218t-215.5 -81q-160 0 -259.5 112.5t-99.5 326.5
q0 124 41 226.5t123.5 166t192.5 63.5q119 0 188 -62.5t90 -158.5l-151 -39q-29 113 -137 113q-78 0 -126.5 -72.5t-50.5 -183.5z" />
    <glyph glyph-name="sevensuperior" unicode="&#x2077;" horiz-adv-x="626" 
d="M33 969l401 717l-2 4h-432v153h596v-180l-369 -694h-194z" />
    <glyph glyph-name="eightsuperior" unicode="&#x2078;" horiz-adv-x="704" 
d="M233 1608q0 -42 29.5 -71.5t87.5 -29.5t88.5 29.5t30.5 71.5q0 44 -30.5 75t-88.5 31t-87.5 -31t-29.5 -75zM193 1446v4q-115 50 -115 174q0 96 77.5 162.5t194.5 66.5q119 0 199 -66.5t80 -162.5q0 -121 -115 -174v-4q71 -28 110.5 -87t39.5 -136q0 -123 -88.5 -194
t-225.5 -71q-136 0 -222.5 71t-86.5 194q0 79 38.5 137.5t113.5 85.5zM201 1241q0 -129 149 -129q152 0 152 129q0 62 -41 99.5t-111 37.5t-109.5 -37.5t-39.5 -99.5z" />
    <glyph glyph-name="ninesuperior" unicode="&#x2079;" horiz-adv-x="770" 
d="M80 1169l149 56q16 -58 52.5 -87.5t105.5 -29.5q74 0 117 60t37 188h-4q-9 -30 -60.5 -63t-140.5 -33q-110 0 -197.5 80.5t-87.5 213.5q0 135 88 217t219 82q53 0 101 -15t92 -50t76.5 -86.5t51.5 -129t19 -173.5q0 -219 -83.5 -330t-235.5 -111q-72 0 -128 19.5
t-89 52.5t-52 66.5t-30 72.5zM365 1405q68 0 108.5 34.5t40.5 102.5q0 71 -42 116.5t-114 45.5q-66 0 -107.5 -43t-41.5 -107q0 -67 42.5 -108t113.5 -41z" />
    <glyph glyph-name="plussuperior" unicode="&#x207a;" horiz-adv-x="872" 
d="M365 1059v303h-273v139h273v275h145v-275h270v-139h-270v-303h-145z" />
    <glyph glyph-name="minussuperior" unicode="&#x207b;" horiz-adv-x="811" 
d="M719 1362h-627v139h627v-139z" />
    <glyph glyph-name="zeroinferior" unicode="&#x2080;" horiz-adv-x="784" 
d="M391 -420q-151 0 -240.5 112.5t-89.5 348.5q0 213 90.5 323.5t239.5 110.5t240.5 -110.5t91.5 -323.5q0 -236 -90 -348.5t-242 -112.5zM391 -260q81 0 119.5 66.5t38.5 234.5q0 146 -39 209t-119 63q-79 0 -118.5 -63.5t-39.5 -208.5q0 -168 38.5 -234.5t119.5 -66.5z
" />
    <glyph glyph-name="oneinferior" unicode="&#x2081;" horiz-adv-x="536" 
d="M219 -410v682l-188 -116v184l200 125h152v-875h-164z" />
    <glyph glyph-name="twoinferior" unicode="&#x2082;" horiz-adv-x="718" 
d="M61 -410v127q0 111 58 181q48 57 192 129q105 54 133 76q58 46 58 112q0 47 -36.5 79t-96.5 32q-74 0 -111.5 -41.5t-46.5 -124.5l-160 20q9 140 93.5 217.5t226.5 77.5q125 0 208 -72t83 -198q0 -53 -18.5 -97t-53.5 -77.5t-72 -57.5t-86 -47q-91 -47 -124.5 -67.5
t-47.5 -42.5q-14 -20 -14 -56h422v-170h-607z" />
    <glyph glyph-name="threeinferior" unicode="&#x2083;" horiz-adv-x="776" 
d="M31 -123l162 37q24 -184 172 -184q72 0 112.5 32.5t40.5 92.5q0 125 -147 125h-68v131h49q60 0 91.5 26t31.5 76q0 53 -29.5 83t-89.5 30q-110 0 -129 -129l-155 28q12 117 89.5 183.5t200.5 66.5q117 0 194 -63.5t77 -171.5q0 -70 -35 -114.5t-72 -59.5v-5
q22 -6 44.5 -20.5t47.5 -39.5t40.5 -66.5t15.5 -92.5q0 -113 -80.5 -187.5t-228.5 -74.5q-139 0 -227.5 75.5t-106.5 221.5z" />
    <glyph glyph-name="fourinferior" unicode="&#x2084;" horiz-adv-x="778" 
d="M41 -236v154l332 547h235v-547h99v-154h-99v-174h-168v174h-399zM197 -82h245v397h-4z" />
    <glyph glyph-name="fiveinferior" unicode="&#x2085;" horiz-adv-x="772" 
d="M61 -193l152 72q21 -69 65.5 -107t110.5 -38q70 0 115 40.5t45 116.5q0 74 -45.5 116t-110.5 42q-114 0 -178 -90l-127 64l78 442h461v-154h-338l-35 -198l4 -2q13 21 58 44t118 23q115 0 196 -82t81 -209q0 -144 -92.5 -225.5t-229.5 -81.5q-127 0 -208.5 62t-119.5 165
z" />
    <glyph glyph-name="sixinferior" unicode="&#x2086;" horiz-adv-x="784" 
d="M420 -264q75 0 111 42t36 111q0 66 -39.5 108t-113.5 42q-71 0 -112.5 -45t-41.5 -105q0 -72 44 -112.5t116 -40.5zM231 70h5q20 35 74 65.5t139 30.5q70 0 131 -30.5t102 -98t41 -160.5q0 -137 -87.5 -218t-215.5 -81q-160 0 -259.5 112t-99.5 326q0 124 41 226.5
t123.5 166.5t192.5 64q119 0 188 -62.5t90 -158.5l-151 -39q-29 113 -137 113q-78 0 -126.5 -72.5t-50.5 -183.5z" />
    <glyph glyph-name="seveninferior" unicode="&#x2087;" horiz-adv-x="626" 
d="M33 -410l401 717l-2 4h-432v154h596v-180l-369 -695h-194z" />
    <glyph glyph-name="eightinferior" unicode="&#x2088;" horiz-adv-x="704" 
d="M233 229q0 -42 29.5 -71t87.5 -29t88.5 29t30.5 71q0 44 -30.5 75.5t-88.5 31.5t-87.5 -31.5t-29.5 -75.5zM193 68v4q-115 50 -115 174q0 96 77.5 162.5t194.5 66.5q119 0 199 -66.5t80 -162.5q0 -121 -115 -174v-4q71 -27 110.5 -87t39.5 -137q0 -123 -88 -193.5
t-226 -70.5q-136 0 -222.5 70.5t-86.5 193.5q0 79 38.5 138t113.5 86zM201 -137q0 -129 149 -129q152 0 152 129q0 62 -41 99.5t-111 37.5t-109.5 -37.5t-39.5 -99.5z" />
    <glyph glyph-name="nineinferior" unicode="&#x2089;" horiz-adv-x="770" 
d="M80 -209l149 55q16 -57 52.5 -86.5t105.5 -29.5q75 0 117.5 59.5t36.5 187.5h-4q-9 -30 -60.5 -63t-140.5 -33q-110 0 -197.5 81t-87.5 214q0 135 88 217t219 82q67 0 125.5 -25.5t107.5 -77.5t78 -142.5t29 -209.5q0 -219 -83.5 -329.5t-235.5 -110.5q-72 0 -128 19.5
t-89 52.5t-52 66.5t-30 72.5zM365 27q68 0 108.5 34.5t40.5 102.5q0 71 -42 116.5t-114 45.5q-66 0 -107.5 -43t-41.5 -107q0 -67 42.5 -108t113.5 -41z" />
    <glyph glyph-name="Euro" unicode="&#x20ac;" horiz-adv-x="1570" 
d="M133 633h141q-2 31 -2 96v53h-139v170h162q28 126 88.5 225.5t140 161t172.5 93.5t193 32q223 0 377 -140t180 -370l-242 -36q-7 65 -28 122t-57.5 105t-95 76t-132.5 28q-121 0 -218 -75.5t-132 -221.5h381v-170h-408v-57q0 -34 4 -92h404v-170h-373q38 -137 131 -208
t211 -71q148 0 228 104.5t93 270.5l246 -49q-25 -242 -176.5 -391.5t-390.5 -149.5q-218 0 -376 123t-216 371h-166v170z" />
    <glyph glyph-name="trademark" unicode="&#x2122;" horiz-adv-x="1552" 
d="M285 739v555h-193v140h529v-140h-189v-555h-147zM723 739v695h160l221 -494h4l219 494h164v-695h-143v435h-5l-190 -435h-94l-191 424h-4v-424h-141z" />
    <glyph glyph-name="Omega" unicode="&#x2126;" horiz-adv-x="1409" 
d="M119 0v184h188q-194 207 -194 555q0 144 31 264.5t86 204.5t130 142.5t162 86t183 27.5q121 0 226.5 -44.5t187.5 -131.5t129.5 -228t47.5 -321q0 -350 -196 -555h190v-184h-514v168q120 27 198.5 162t78.5 381q0 111 -17.5 199.5t-48 148.5t-75 99.5t-95.5 57t-112 17.5
q-73 0 -134 -29t-110.5 -89t-77 -163t-27.5 -241q0 -246 78.5 -381t198.5 -162v-168h-514z" />
    <glyph glyph-name="onethird" unicode="&#x2153;" horiz-adv-x="1744" 
d="M248 -74l1001 1669l133 -82l-999 -1667zM229 559v682l-188 -117v185l201 125h151v-875h-164zM999 287l162 37q24 -185 172 -185q72 0 113 32.5t41 92.5q0 125 -148 125h-67v131h49q60 0 91.5 26.5t31.5 76.5q0 53 -29.5 82.5t-89.5 29.5q-110 0 -129 -129l-156 29
q12 117 90 183.5t201 66.5q117 0 194 -64t77 -172q0 -70 -35 -114.5t-72 -59.5v-4q21 -6 44 -20.5t47.5 -39.5t40 -66.5t15.5 -92.5q0 -113 -80.5 -187.5t-228.5 -74.5q-139 0 -227.5 75.5t-106.5 221.5z" />
    <glyph glyph-name="twothirds" unicode="&#x2154;" horiz-adv-x="1939" 
d="M457 -74l1001 1669l133 -82l-999 -1667zM41 559v127q0 111 57 180q47 56 193 129q106 54 136 79q54 45 54 110q0 47 -36.5 78.5t-96.5 31.5q-74 0 -111.5 -41.5t-46.5 -124.5l-159 21q9 140 93 217.5t226 77.5q125 0 208 -72t83 -198q0 -100 -62 -165t-167 -114
q-89 -46 -123.5 -67.5t-48.5 -43.5q-15 -21 -15 -55h422v-170h-606zM1194 291l162 37q24 -185 172 -185q72 0 112.5 32.5t40.5 92.5q0 125 -147 125h-68v131h50q60 0 91 26.5t31 76.5q0 53 -29 82.5t-89 29.5q-110 0 -129 -129l-156 29q12 117 90 183.5t201 66.5
q117 0 193.5 -64t76.5 -172q0 -70 -34.5 -114.5t-71.5 -59.5v-4q21 -6 44 -20.5t47.5 -39.5t40 -66.5t15.5 -92.5q0 -113 -80.5 -187.5t-228.5 -74.5q-139 0 -227.5 75.5t-106.5 221.5z" />
    <glyph glyph-name="onefifth" unicode="&#x2155;" horiz-adv-x="1742" 
d="M248 -74l1001 1669l133 -82l-999 -1667zM229 559v682l-188 -117v185l201 125h151v-875h-164zM1042 217l152 72q44 -146 176 -146q70 0 115 41t45 117q0 74 -45.5 116t-110.5 42q-114 0 -178 -90l-127 63l78 442h461v-153h-338l-35 -199l4 -2q13 21 58 44.5t118 23.5
q115 0 196 -82t81 -209q0 -144 -92.5 -225.5t-229.5 -81.5q-127 0 -208.5 62t-119.5 165z" />
    <glyph glyph-name="twofifths" unicode="&#x2156;" horiz-adv-x="1953" 
d="M457 -74l1001 1669l133 -82l-999 -1667zM41 559v127q0 111 57 180q47 56 193 129q106 54 136 79q54 45 54 110q0 47 -36.5 78.5t-96.5 31.5q-74 0 -111.5 -41.5t-46.5 -124.5l-159 21q9 140 93 217.5t226 77.5q125 0 208 -72t83 -198q0 -100 -62 -165t-167 -114
q-89 -46 -123.5 -67.5t-48.5 -43.5q-15 -21 -15 -55h422v-170h-606zM1253 217l152 72q44 -146 176 -146q70 0 115 41t45 117q0 74 -45.5 116t-110.5 42q-114 0 -178 -90l-127 63l78 442h461v-153h-338l-35 -199l4 -2q13 21 58 44.5t118 23.5q115 0 196 -82t81 -209
q0 -144 -92.5 -225.5t-229.5 -81.5q-127 0 -208.5 62t-119.5 165z" />
    <glyph glyph-name="threefifths" unicode="&#x2157;" horiz-adv-x="1937" 
d="M416 -74l1001 1669l133 -82l-999 -1667zM61 846l162 37q24 -185 172 -185q72 0 113 32.5t41 92.5q0 125 -148 125h-67v131h49q60 0 91.5 26.5t31.5 76.5q0 53 -29.5 82.5t-89.5 29.5q-110 0 -129 -129l-156 29q12 117 90 183.5t201 66.5q117 0 194 -64t77 -172
q0 -70 -35 -114.5t-72 -59.5v-4q22 -6 44.5 -20.5t47.5 -39.5t40.5 -66.5t15.5 -92.5q0 -113 -81 -187.5t-229 -74.5q-139 0 -227.5 75.5t-106.5 221.5zM1237 217l152 72q44 -146 176 -146q70 0 114.5 41t44.5 117q0 75 -45 116.5t-110 41.5q-114 0 -178 -90l-127 63l77 442
h461v-153h-338l-34 -199l4 -2q13 21 58 44.5t118 23.5q115 0 195.5 -82t80.5 -209q0 -144 -92 -225.5t-229 -81.5q-127 0 -208.5 62t-119.5 165z" />
    <glyph glyph-name="fourfifths" unicode="&#x2158;" horiz-adv-x="1947" 
d="M430 -74l1002 1669l133 -82l-1000 -1667zM51 733v154l332 547h235v-547h99v-154h-99v-174h-167v174h-400zM207 887h246v397h-4zM1247 217l152 72q44 -146 176 -146q70 0 115 41t45 117q0 74 -45.5 116t-110.5 42q-114 0 -178 -90l-127 63l78 442h460v-153h-337l-35 -199
l4 -2q13 21 58 44.5t118 23.5q115 0 195.5 -82t80.5 -209q0 -144 -92 -225.5t-229 -81.5q-127 0 -208.5 62t-119.5 165z" />
    <glyph glyph-name="onesixth" unicode="&#x2159;" horiz-adv-x="1736" 
d="M248 -74l1001 1669l133 -82l-999 -1667zM229 559v682l-188 -117v185l201 125h151v-875h-164zM1382 147q75 0 111.5 42.5t36.5 111.5q0 66 -40 108t-114 42q-71 0 -112 -45t-41 -105q0 -72 43.5 -113t115.5 -41zM1194 481h4q20 35 74 66t139 31q111 0 193 -76t82 -213
q0 -136 -88 -217.5t-216 -81.5q-160 0 -259 112t-99 326q0 124 41 226.5t123 166.5t192 64q119 0 188.5 -62.5t90.5 -158.5l-152 -39q-29 112 -137 112q-78 0 -126 -72.5t-50 -183.5z" />
    <glyph glyph-name="fivesixths" unicode="&#x215a;" horiz-adv-x="1906" 
d="M399 -74l1002 1669l133 -82l-999 -1667zM72 776l151 72q44 -146 176 -146q70 0 115 41t45 117q0 74 -45.5 116t-110.5 42q-114 0 -178 -90l-127 63l78 443h461v-154h-338l-35 -199l4 -2q13 21 58 44.5t118 23.5q115 0 196 -82t81 -209q0 -144 -92.5 -225.5t-229.5 -81.5
q-127 0 -208 62t-119 165zM1542 147q75 0 111.5 42.5t36.5 111.5q0 66 -40 108t-114 42q-71 0 -112.5 -45t-41.5 -105q0 -72 44 -113t116 -41zM1354 481h4q20 35 74 66t139 31q70 0 131 -30.5t102 -98t41 -160.5q0 -137 -87.5 -218t-215.5 -81q-160 0 -259 112t-99 326
q0 124 41 226.5t123 166.5t192 64q119 0 188.5 -62.5t90.5 -158.5l-152 -39q-29 112 -137 112q-78 0 -126 -72.5t-50 -183.5z" />
    <glyph glyph-name="oneeighth" unicode="&#x215b;" horiz-adv-x="1708" 
d="M248 -74l1001 1669l133 -82l-999 -1667zM229 559v682l-188 -117v185l201 125h151v-875h-164zM1090 639q0 -42 29 -71t87 -29t88.5 29t30.5 71q0 44 -30.5 75t-88.5 31t-87 -31t-29 -75zM1049 477v4q-115 50 -115 174q0 96 77.5 163t194.5 67q119 0 199 -67t80 -163
q0 -121 -115 -174v-4q71 -28 110.5 -87t39.5 -136q0 -123 -88.5 -193.5t-225.5 -70.5q-136 0 -222.5 70.5t-86.5 193.5q0 79 38.5 137.5t113.5 85.5zM1057 272q0 -129 149 -129q152 0 152 129q0 62 -41 100t-111 38t-109.5 -38t-39.5 -100z" />
    <glyph glyph-name="threeeighths" unicode="&#x215c;" horiz-adv-x="1927" 
d="M416 -74l1001 1669l133 -82l-999 -1667zM61 846l162 37q24 -185 172 -185q72 0 113 32.5t41 92.5q0 125 -148 125h-67v131h49q60 0 91.5 26.5t31.5 76.5q0 53 -29.5 82.5t-89.5 29.5q-110 0 -129 -129l-156 29q12 117 90 183.5t201 66.5q117 0 194 -64t77 -172
q0 -70 -35 -114.5t-72 -59.5v-4q22 -6 44.5 -20.5t47.5 -39.5t40.5 -66.5t15.5 -92.5q0 -113 -81 -187.5t-229 -74.5q-139 0 -227.5 75.5t-106.5 221.5zM1309 639q0 -42 29 -71t87 -29t88.5 29t30.5 71q0 44 -30.5 75t-88.5 31q-57 0 -86.5 -31t-29.5 -75zM1268 477v4
q-115 50 -115 174q0 96 77.5 163t194.5 67q119 0 199 -67t80 -163q0 -121 -115 -174v-4q71 -28 110.5 -87t39.5 -136q0 -123 -88.5 -193.5t-225.5 -70.5q-136 0 -222.5 70.5t-86.5 193.5q0 79 38.5 137.5t113.5 85.5zM1276 272q0 -129 149 -129q152 0 152 129q0 62 -41 100
t-111 38t-109.5 -38t-39.5 -100z" />
    <glyph glyph-name="fiveeighths" unicode="&#x215d;" horiz-adv-x="1898" 
d="M399 -74l1002 1669l133 -82l-999 -1667zM72 776l151 72q44 -146 176 -146q70 0 115 41t45 117q0 74 -45.5 116t-110.5 42q-114 0 -178 -90l-127 63l78 443h461v-154h-338l-35 -199l4 -2q13 21 58 44.5t118 23.5q115 0 196 -82t81 -209q0 -144 -92.5 -225.5t-229.5 -81.5
q-127 0 -208 62t-119 165zM1280 639q0 -42 29.5 -71t87.5 -29t88.5 29t30.5 71q0 44 -30.5 75t-88.5 31t-87.5 -31t-29.5 -75zM1239 477v4q-115 50 -115 174q0 96 78 163t195 67q119 0 198.5 -67t79.5 -163q0 -121 -114 -174v-4q71 -27 110 -86.5t39 -136.5
q0 -123 -88 -193.5t-225 -70.5q-136 0 -223 70.5t-87 193.5q0 79 38.5 137.5t113.5 85.5zM1247 272q0 -129 150 -129q151 0 151 129q0 62 -40.5 100t-110.5 38t-110 -38t-40 -100z" />
    <glyph glyph-name="seveneighths" unicode="&#x215e;" horiz-adv-x="1775" 
d="M270 -74l1002 1669l133 -82l-999 -1667zM63 559l402 717l-2 4h-432v154h596v-181l-369 -694h-195zM1157 639q0 -42 29.5 -71t87.5 -29t88.5 29t30.5 71q0 44 -30.5 75t-88.5 31t-87.5 -31t-29.5 -75zM1116 477v4q-115 50 -115 174q0 96 78 163t195 67q119 0 198.5 -67
t79.5 -163q0 -121 -114 -174v-4q71 -27 110 -86.5t39 -136.5q0 -123 -88 -193.5t-225 -70.5q-136 0 -222.5 70.5t-86.5 193.5q0 79 38 137.5t113 85.5zM1124 272q0 -129 150 -129q151 0 151 129q0 62 -40.5 100t-110.5 38t-110 -38t-40 -100z" />
    <glyph glyph-name="leftwardsarrow" unicode="&#x2190;" horiz-adv-x="1423" 
d="M1290 815v-207h-946l256 -418l-180 -108l-379 627l377 624l182 -108l-256 -410h946z" />
    <glyph glyph-name="upwardsarrow" unicode="&#x2191;" horiz-adv-x="1374" 
d="M793 80h-209v952l-414 -262l-109 182l627 379l625 -379l-107 -182l-415 262q0 -158 1 -475.5t1 -476.5z" />
    <glyph glyph-name="rightwordsarrow" unicode="&#x2192;" horiz-adv-x="1423" 
d="M113 608v207h946l-256 410l182 108l377 -624l-379 -627l-180 108l256 418h-946z" />
    <glyph glyph-name="downwardsarrow" unicode="&#x2193;" horiz-adv-x="1374" 
d="M782 1331q0 -159 -1 -476t-1 -476l416 262l107 -182l-625 -379l-627 379l109 182l413 -262v952h209z" />
    <glyph glyph-name="leftrightarrow" unicode="&#x2194;" horiz-adv-x="1705" 
d="M1348 608h-988l256 -415l-178 -107l-377 623l375 620l180 -108l-256 -406h986l-256 406l180 108l375 -620l-377 -623l-178 107z" />
    <glyph glyph-name="updownarrow" unicode="&#x2195;" horiz-adv-x="1376" 
d="M61 287l109 182l414 -260v987l-414 -262l-109 184l627 377l627 -377l-107 -184l-413 262v-987l413 260l107 -182l-627 -379z" />
    <glyph glyph-name="northwestarrow" unicode="&#x2196;" horiz-adv-x="1271" 
d="M1200 340l-147 -150l-674 678l-109 -477l-198 47l172 713l708 172l47 -201l-471 -108z" />
    <glyph glyph-name="northeastarrow" unicode="&#x2197;" horiz-adv-x="1271" 
d="M209 190l-148 150l672 674l-471 108l47 201l709 -172l172 -713l-199 -47l-108 477z" />
    <glyph glyph-name="southeastarrow" unicode="&#x2198;" horiz-adv-x="1271" 
d="M61 1069l148 150l674 -678l108 477l199 -47l-172 -713l-709 -172l-47 201l471 108z" />
    <glyph glyph-name="southwestarrow" unicode="&#x2199;" horiz-adv-x="1271" 
d="M1053 1219l147 -150l-672 -674l471 -108l-47 -201l-708 172l-172 713l198 47l109 -477z" />
    <glyph glyph-name="downwardsarrowwithtiprightwards" unicode="&#x21b3;" horiz-adv-x="1425" 
d="M113 606v828h221v-617h727l-256 408l180 108l379 -624l-381 -627l-180 108l256 416h-946z" />
    <glyph glyph-name="downwardsarrowwithtipleftwards" unicode="&#x21b5;" horiz-adv-x="1425" 
d="M1343 1434v-828h-946l256 -416l-180 -108l-381 627l379 624l180 -108l-256 -408h727v617h221z" />
    <glyph glyph-name="partialdiff" unicode="&#x2202;" horiz-adv-x="1181" 
d="M348 1315l-100 166q112 70 171 95q92 38 177 38q103 0 185.5 -42t137 -114.5t91.5 -173t53 -213.5t16 -240q0 -183 -31 -337t-93 -273t-162.5 -185.5t-231.5 -66.5q-214 0 -346 133.5t-133 366.5q0 116 28 215t82.5 175t143 120t201.5 45q137 3 321 -80q-1 100 -16.5 183
t-47 148t-84 101.5t-120.5 36.5q-94 0 -242 -98zM565 190q52 0 95 25t72 70t50.5 97.5t34.5 118t20 120.5t11 116q-161 80 -289 80q-70 0 -120.5 -31.5t-77 -85.5t-38.5 -112t-12 -123q0 -133 64.5 -204t189.5 -71z" />
    <glyph glyph-name="Delta" unicode="&#x2206;" horiz-adv-x="1312" 
d="M41 0l502 1434h229l500 -1434h-1231zM375 229h563l-281 867z" />
    <glyph glyph-name="product" unicode="&#x220f;" horiz-adv-x="1370" 
d="M307 -289v1405h-235v215h1226v-215h-233v-1405h-217v1405h-324v-1405h-217z" />
    <glyph glyph-name="summation" unicode="&#x2211;" horiz-adv-x="1196" 
d="M113 -205v203l491 637l-471 594v205h971v-232h-658l435 -565l-461 -612h684v-230h-991z" />
    <glyph glyph-name="minus" unicode="&#x2212;" horiz-adv-x="1253" 
d="M92 664v184h1069v-184h-1069z" />
    <glyph glyph-name="radical" unicode="&#x221a;" horiz-adv-x="1280" 
d="M520 0l-235 674h-275v198h447l164 -512l360 1074h238l-500 -1434h-199z" />
    <glyph glyph-name="infinity" unicode="&#x221e;" horiz-adv-x="1458" 
d="M461 219q-153 0 -250.5 114.5t-97.5 287.5t98 289t250 116q51 0 100.5 -20t83.5 -49t55.5 -53.5t28.5 -39.5q8 16 29 40t55 53t84 49t102 20q152 0 249.5 -115.5t97.5 -289.5t-96.5 -288t-250.5 -114q-66 0 -129 31.5t-96 63.5t-43 53q-7 -15 -28.5 -37.5t-55.5 -48.5
t-84 -44t-102 -18zM791 621q24 -64 51.5 -106.5t55 -60t46.5 -23t41 -5.5q47 0 81 18.5t51 49t24.5 62t7.5 65.5q0 35 -7.5 67t-24.5 64t-51.5 51.5t-82.5 19.5q-21 0 -40.5 -6t-46 -24.5t-54 -62t-51.5 -109.5zM670 621q-23 66 -50.5 109.5t-55 62t-47.5 24.5t-42 6
q-47 0 -81 -19.5t-51.5 -51.5t-25.5 -64.5t-8 -66.5t8 -65.5t25.5 -62t52.5 -49t82 -18.5q22 0 41 5.5t46.5 23t55 60t50.5 106.5z" />
    <glyph glyph-name="integral" unicode="&#x222b;" horiz-adv-x="841" 
d="M72 -492v201q72 1 119 13t72 37.5t34.5 58.5t9.5 82v1185q0 126 22.5 208t77.5 135t142 75.5t221 22.5v-201q-73 -1 -119.5 -13.5t-72 -39.5t-34.5 -61t-9 -87v-1177q0 -166 -43 -260t-142.5 -136.5t-277.5 -42.5z" />
    <glyph glyph-name="approxequal" unicode="&#x2248;" horiz-adv-x="1230" 
d="M383 989q-35 0 -62 -17t-44.5 -48.5t-26 -56.5t-17.5 -60l-141 45q22 133 99.5 227.5t197.5 94.5q56 0 111 -18.5t98.5 -45t84.5 -52.5t83.5 -44.5t79.5 -18.5q29 0 53 13t39 30t27.5 45t18.5 47.5t13 47.5l142 -45q-22 -133 -99.5 -227.5t-197.5 -94.5q-68 0 -137.5 28
t-117 61t-103.5 61t-101 28zM383 545q-35 0 -62 -17t-44.5 -49t-26 -56.5t-17.5 -60.5l-141 46q14 85 50 155t100.5 118t146.5 48q68 0 137 -28t116 -61t103 -61t101 -28q29 0 53 13t39 30t27.5 44.5t18.5 47t13 47.5l142 -45q-14 -85 -50 -155t-100.5 -118t-146.5 -48
q-68 0 -137.5 28t-117 61t-103.5 61t-101 28z" />
    <glyph glyph-name="notequal" unicode="&#x2260;" horiz-adv-x="1173" 
d="M113 844v184h553l137 246l117 -70l-101 -176h242v-184h-346l-101 -180h447v-185h-551l-139 -248l-115 68l100 180h-243v185h348l100 180h-448z" />
    <glyph glyph-name="lessequal" unicode="&#x2264;" horiz-adv-x="1087" 
d="M92 0v184h887v-184h-887zM92 786l2 144l799 477l102 -162l-645 -387l645 -387l-104 -166z" />
    <glyph glyph-name="greaterequal" unicode="&#x2265;" horiz-adv-x="1087" 
d="M975 184v-184h-887v184h887zM973 930l2 -144l-799 -481l-104 166l645 387l-645 387l102 162z" />
    <glyph glyph-name="lozenge" unicode="&#x25ca;" horiz-adv-x="1185" 
d="M459 0l-408 729l404 705h276l404 -705l-410 -729h-266zM592 188l303 541l-303 510l-301 -512z" />
    <glyph glyph-name="commaaccent" unicode="&#xf6c3;" horiz-adv-x="583" 
d="M182 -516v88q56 9 78.5 36t22.5 77h-109v215h236v-189q0 -213 -228 -227z" />
    <glyph glyph-name="apple" unicode="&#xf8ff;" horiz-adv-x="1548" 
d="M174 0v866q0 156 80 293.5t218.5 221t299.5 83.5q163 0 302.5 -83.5t219.5 -221t80 -293.5v-866h-57l-133 133l-140 -133l-129 133l-145 -133l-141 133l-129 -133l-138 133l-135 -133h-53zM891 772q0 -59 41.5 -101t101.5 -42t104 42.5t44 100.5q0 61 -44 104.5
t-104 43.5t-101.5 -43t-41.5 -105zM369 772q0 -59 42.5 -101t102.5 -42q61 0 103 42t42 101q0 62 -42 105t-103 43q-60 0 -102.5 -43.5t-42.5 -104.5z" />
    <glyph glyph-name="dieresis.cap" horiz-adv-x="856" 
d="M113 1567v219h229v-219h-229zM516 1567v219h227v-219h-227z" />
    <glyph glyph-name="tilde.cap" horiz-adv-x="825" 
d="M213 1567h-121q35 213 199 213q52 0 100 -19.5t85 -39t63 -19.5q57 0 73 67h121q-35 -213 -198 -213q-52 0 -100.5 19.5t-85.5 39t-62 19.5q-58 0 -74 -67z" />
    <glyph glyph-name="macron.cap" horiz-adv-x="815" 
d="M113 1567v151h589v-151h-589z" />
    <glyph glyph-name="acute.cap" horiz-adv-x="606" 
d="M92 1567l164 254h258l-225 -254h-197z" />
    <glyph glyph-name="circumflex.cap" horiz-adv-x="636" 
d="M51 1628l137 176h258l140 -176l-127 -98l-142 180l-143 -180z" />
    <glyph glyph-name="caron.cap" horiz-adv-x="634" 
d="M188 1567l-137 176l123 98l143 -180l142 180l125 -98l-138 -176h-258z" />
    <glyph glyph-name="ring.cap" horiz-adv-x="604" 
d="M301 1391q-92 0 -150.5 62.5t-58.5 154.5q0 90 60.5 153.5t148.5 63.5q92 0 151.5 -62.5t59.5 -154.5q0 -94 -59 -155.5t-152 -61.5zM301 1501q35 0 62.5 29t27.5 80q0 52 -27 79t-63 27t-61 -27t-25 -79q0 -51 25.5 -80t60.5 -29z" />
    <glyph glyph-name="breve.cap" horiz-adv-x="679" 
d="M72 1804h116q7 -45 46 -77.5t106 -32.5q68 0 104 32.5t41 77.5h123q0 -114 -75.5 -186t-192.5 -72q-121 0 -194.5 71.5t-73.5 186.5z" />
    <glyph glyph-name="hungarumlaut.cap" horiz-adv-x="964" 
d="M164 1567l153 235h224l-213 -235h-164zM473 1567l154 235h225l-213 -235h-166z" />
    <glyph glyph-name="dotaccent.cap" horiz-adv-x="550" 
d="M154 1567v233h243v-233h-243z" />
    <glyph glyph-name="grave.cap" horiz-adv-x="604" 
d="M315 1567l-223 254h256l164 -254h-197z" />
    <glyph glyph-name="a.ss01" horiz-adv-x="1210" 
d="M838 414v248q0 100 -66.5 171.5t-181.5 71.5q-131 0 -203 -93t-72 -269q0 -177 72 -270t203 -93q112 0 180 68.5t68 165.5zM854 0v106h-4q-33 -58 -107.5 -97.5t-189.5 -39.5q-96 0 -181.5 39t-150 110.5t-102 181.5t-37.5 243q0 258 134 415.5t337 157.5
q92 0 168.5 -36.5t118.5 -98.5h4v104h213v-1085h-203z" />
    <glyph glyph-name="agrave.ss01" horiz-adv-x="1210" 
d="M467 1219l-223 254h256l164 -254h-197zM838 414v248q0 100 -66.5 171.5t-181.5 71.5q-131 0 -203 -93t-72 -269q0 -177 72 -270t203 -93q112 0 180 68.5t68 165.5zM854 0v106h-4q-33 -58 -107.5 -97.5t-189.5 -39.5q-96 0 -181.5 39t-150 110.5t-102 181.5t-37.5 243
q0 258 134 415.5t337 157.5q92 0 168.5 -36.5t118.5 -98.5h4v104h213v-1085h-203z" />
    <glyph glyph-name="aacute.ss01" horiz-adv-x="1210" 
d="M438 1219l164 254h256l-223 -254h-197zM838 414v248q0 100 -66.5 171.5t-181.5 71.5q-131 0 -203 -93t-72 -269q0 -177 72 -270t203 -93q112 0 180 68.5t68 165.5zM854 0v106h-4q-33 -58 -107.5 -97.5t-189.5 -39.5q-96 0 -181.5 39t-150 110.5t-102 181.5t-37.5 243
q0 258 134 415.5t337 157.5q92 0 168.5 -36.5t118.5 -98.5h4v104h213v-1085h-203z" />
    <glyph glyph-name="acircumflex.ss01" horiz-adv-x="1210" 
d="M326 1288l137 176h258l139 -176l-127 -98l-141 180l-143 -180zM827 414v248q0 100 -66.5 171.5t-180.5 71.5q-131 0 -203 -93t-72 -269q0 -177 72 -270t203 -93q112 0 179.5 68t67.5 166zM844 0v106h-4q-33 -58 -107.5 -97.5t-189.5 -39.5q-96 0 -181.5 39t-150 110.5
t-102 181.5t-37.5 243q0 258 134 415.5t337 157.5q91 0 167.5 -36.5t118.5 -98.5h5v104h213v-1085h-203z" />
    <glyph glyph-name="atilde.ss01" horiz-adv-x="1210" 
d="M401 1227h-120q35 215 198 215q52 0 100 -20t85 -40t63 -20q58 0 74 70h121q-35 -215 -199 -215q-52 0 -100.5 19.5t-85.5 39.5t-62 20q-59 0 -74 -69zM838 414v248q0 100 -66.5 171.5t-181.5 71.5q-131 0 -203 -93t-72 -269q0 -177 72 -270t203 -93q112 0 180 68.5
t68 165.5zM854 0v106h-4q-33 -58 -107.5 -97.5t-189.5 -39.5q-96 0 -181.5 39t-150 110.5t-102 181.5t-37.5 243q0 258 134 415.5t337 157.5q92 0 168.5 -36.5t118.5 -98.5h4v104h213v-1085h-203z" />
    <glyph glyph-name="adieresis.ss01" horiz-adv-x="1210" 
d="M287 1229v219h229v-219h-229zM690 1229v219h228v-219h-228zM838 414v248q0 100 -66.5 171.5t-181.5 71.5q-131 0 -203 -93t-72 -269q0 -177 72 -270t203 -93q112 0 180 68.5t68 165.5zM854 0v106h-4q-33 -58 -107.5 -97.5t-189.5 -39.5q-96 0 -181.5 39t-150 110.5
t-102 181.5t-37.5 243q0 258 134 415.5t337 157.5q92 0 168.5 -36.5t118.5 -98.5h4v104h213v-1085h-203z" />
    <glyph glyph-name="amacron.ss01" horiz-adv-x="1210" 
d="M297 1270v151h590v-151h-590zM827 414v248q0 100 -66.5 171.5t-180.5 71.5q-131 0 -203 -93t-72 -269q0 -177 72 -270t203 -93q112 0 179.5 68t67.5 166zM844 0v106h-4q-33 -58 -107.5 -97.5t-189.5 -39.5q-96 0 -181.5 39t-150 110.5t-102 181.5t-37.5 243
q0 258 134 415.5t337 157.5q91 0 167.5 -36.5t118.5 -98.5h5v104h213v-1085h-203z" />
    <glyph glyph-name="abreve.ss01" horiz-adv-x="1210" 
d="M334 1456h117q7 -45 45.5 -77.5t105.5 -32.5q68 0 104.5 32.5t41.5 77.5h122q0 -114 -75.5 -186t-192.5 -72q-121 0 -194.5 71.5t-73.5 186.5zM838 414v248q0 100 -66.5 171.5t-181.5 71.5q-131 0 -203 -93t-72 -269q0 -177 72 -270t203 -93q112 0 180 68.5t68 165.5z
M854 0v106h-4q-33 -58 -107.5 -97.5t-189.5 -39.5q-96 0 -181.5 39t-150 110.5t-102 181.5t-37.5 243q0 258 134 415.5t337 157.5q92 0 168.5 -36.5t118.5 -98.5h4v104h213v-1085h-203z" />
    <glyph glyph-name="aring.ss01" horiz-adv-x="1210" 
d="M844 0v106h-4q-33 -58 -107.5 -97.5t-189.5 -39.5q-96 0 -181.5 39t-150 110.5t-102 181.5t-37.5 243q0 219 98.5 368t259.5 191q-92 58 -92 184q0 90 60.5 153.5t148.5 63.5q92 0 151.5 -62.5t59.5 -154.5q0 -62 -26.5 -111t-72.5 -77q110 -30 170 -117h5v104h213v-1085
h-203zM827 414v248q0 100 -66.5 171.5t-180.5 71.5q-131 0 -203 -93t-72 -269q0 -177 72 -270t203 -93q112 0 179.5 68t67.5 166zM547 1180q36 0 63 28t27 80t-27 79.5t-63 27.5q-35 0 -60.5 -27.5t-25.5 -79.5t25.5 -80t60.5 -28z" />
    <glyph glyph-name="aringacute.ss01" horiz-adv-x="1210" 
d="M854 0v106h-4q-33 -58 -107.5 -97.5t-189.5 -39.5q-96 0 -181.5 39t-150 110.5t-102 181.5t-37.5 243q0 221 100.5 370.5t263.5 190.5q-43 28 -66.5 75.5t-23.5 106.5q0 73 43 131.5t111 77.5l135 209h256l-211 -240q40 -30 63 -76.5t23 -101.5q0 -62 -27 -111.5
t-73 -76.5q107 -35 164 -117h4v104h213v-1085h-203zM838 414v248q0 100 -66.5 171.5t-181.5 71.5q-131 0 -203 -93t-72 -269q0 -177 72 -270t203 -93q112 0 180 68.5t68 165.5zM565 1180q36 0 63 28t27 80t-27 79.5t-63 27.5q-35 0 -60.5 -27.5t-25.5 -79.5t25.5 -80
t60.5 -28z" />
    <glyph glyph-name="aogonek.ss01" horiz-adv-x="1210" 
d="M854 0v106h-4q-33 -58 -107.5 -97.5t-189.5 -39.5q-96 0 -181.5 39t-150 110.5t-102 181.5t-37.5 243q0 258 134 415.5t337 157.5q92 0 168.5 -36.5t118.5 -98.5h4v104h213v-1085q-164 -140 -164 -238q0 -35 23.5 -53t60.5 -18q67 0 135 76l78 -72q-67 -74 -133.5 -105.5
t-143.5 -31.5q-81 0 -137.5 36.5t-56.5 114.5q0 82 58.5 159t144.5 132h-68zM838 414v248q0 100 -66.5 171.5t-181.5 71.5q-131 0 -203 -93t-72 -269q0 -177 72 -270t203 -93q112 0 180 68.5t68 165.5z" />
    <glyph glyph-name="caron.alt" horiz-adv-x="606" 
d="M174 1167l64 328h194l-119 -328h-139z" />
    <glyph glyph-name="parenleft.cap" horiz-adv-x="774" 
d="M682 -203l-121 -98q-25 24 -65 74t-102.5 152t-113.5 216.5t-88.5 274.5t-37.5 319q0 117 20 230.5t50 202t72.5 173.5t79.5 142t80 111t64 76.5t41 41.5l121 -100q-80 -95 -133.5 -174t-103.5 -185.5t-74.5 -235t-24.5 -282.5q0 -273 95 -515.5t241 -422.5z" />
    <glyph glyph-name="parenright.cap" horiz-adv-x="774" 
d="M193 -301l-121 98q146 180 241 422.5t95 515.5q0 154 -24.5 282.5t-74.5 235t-103.5 185.5t-133.5 174l121 100q20 -19 41 -41.5t64 -76.5t80 -111t79.5 -142t72.5 -173.5t50 -202t20 -230.5q0 -159 -37.5 -319t-88.5 -274.5t-113.5 -216.5t-102.5 -152t-65 -74z" />
    <glyph glyph-name="bracketleft.cap" horiz-adv-x="741" 
d="M154 -264v1964h516v-156h-348v-1653h348v-155h-516z" />
    <glyph glyph-name="bracketright.cap" horiz-adv-x="741" 
d="M567 1700v-1964h-516v155h348v1653h-348v156h516z" />
    <glyph glyph-name="braceleft.cap" horiz-adv-x="792" 
d="M258 35v508q0 65 -24 92t-84 27h-58v182h58q59 0 83.5 29.5t24.5 95.5v411q0 94 21 157.5t64 98.5t98 49.5t132 14.5h107v-164h-125q-70 0 -99.5 -41.5t-29.5 -142.5v-389q0 -49 -14.5 -89t-34.5 -61t-42 -35.5t-35.5 -19t-16.5 -4.5l5 -2q6 -2 14 -6l19 -9.5t22.5 -15
t23.5 -20.5t22.5 -27t18.5 -34t13 -42t5 -51v-484q0 -101 31 -142.5t106 -41.5h117v-164h-107q-77 0 -132 14.5t-98 49.5t-64 98.5t-21 157.5z" />
    <glyph glyph-name="braceright.cap" horiz-adv-x="792" 
d="M494 543v-508q0 -94 -21 -157.5t-64.5 -98.5t-98.5 -49.5t-132 -14.5h-106v164h116q75 0 106.5 41.5t31.5 142.5v484q0 27 5 51t13 42t18.5 34t22.5 27t23.5 20.5t22.5 15l19 9.5t14 6l5 2q-3 0 -16.5 4.5t-35.5 19t-42 35.5t-34.5 61t-14.5 89v389q0 101 -29.5 142.5
t-99.5 41.5h-125v164h106q77 0 132 -14.5t98.5 -49.5t64.5 -98.5t21 -157.5v-411q0 -66 24.5 -95.5t83.5 -29.5h57v-182h-57q-60 0 -84 -27t-24 -92z" />
    <glyph glyph-name="published" horiz-adv-x="1447" 
d="M723 92q-176 0 -321 83t-227.5 228.5t-82.5 321.5t82.5 320.5t227.5 227.5t321 83t321.5 -83t228.5 -228t83 -320q0 -176 -83 -321.5t-228.5 -228.5t-321.5 -83zM723 213q213 0 358.5 148t145.5 364q0 140 -66 256.5t-182 184t-256 67.5t-255.5 -67.5t-181 -184
t-65.5 -256.5q0 -216 144.5 -364t357.5 -148zM688 762h96q119 0 119 102q0 54 -29.5 78.5t-89.5 24.5h-96v-205zM784 627h-96v-287h-153v762h249q124 0 197.5 -63.5t73.5 -174.5t-73.5 -174t-197.5 -63z" />
    <glyph glyph-name="zero.numr" horiz-adv-x="784" 
d="M391 549q-151 0 -240.5 112.5t-89.5 348.5q0 213 90.5 323.5t239.5 110.5t240.5 -110.5t91.5 -323.5q0 -236 -90 -348.5t-242 -112.5zM391 709q81 0 119.5 66.5t38.5 234.5q0 146 -39 209t-119 63q-79 0 -118.5 -63.5t-39.5 -208.5q0 -168 38.5 -234.5t119.5 -66.5z" />
    <glyph glyph-name="one.numr" horiz-adv-x="536" 
d="M219 559v682l-188 -117v185l200 125h152v-875h-164z" />
    <glyph glyph-name="two.numr" horiz-adv-x="718" 
d="M61 559v127q0 110 58 180q48 57 192 129q106 54 136 79q55 45 55 110q0 47 -36.5 78.5t-96.5 31.5q-74 0 -111.5 -41.5t-46.5 -124.5l-160 21q9 140 93.5 217.5t226.5 77.5q125 0 208 -72t83 -198q0 -53 -18.5 -97t-53.5 -77.5t-72 -57.5t-86 -47q-89 -46 -123.5 -67.5
t-48.5 -43.5q-14 -20 -14 -55h422v-170h-607z" />
    <glyph glyph-name="three.numr" horiz-adv-x="704" 
d="M20 846l162 37q24 -185 172 -185q72 0 113 32.5t41 92.5q0 125 -148 125h-67v131h49q60 0 91.5 26.5t31.5 76.5q0 53 -29.5 82.5t-89.5 29.5q-110 0 -129 -129l-156 29q12 117 90 183.5t201 66.5q117 0 194 -64t77 -172q0 -70 -35 -114.5t-72 -59.5v-4q22 -6 44.5 -20.5
t47.5 -39.5t40.5 -66.5t15.5 -92.5q0 -113 -81 -187.5t-229 -74.5q-139 0 -227.5 75.5t-106.5 221.5z" />
    <glyph glyph-name="four.numr" horiz-adv-x="778" 
d="M41 733v154l332 547h235v-547h99v-154h-99v-174h-168v174h-399zM197 887h245v397h-4z" />
    <glyph glyph-name="five.numr" horiz-adv-x="772" 
d="M61 776l152 72q44 -146 176 -146q70 0 115 41t45 117q0 74 -45.5 116t-110.5 42q-114 0 -178 -90l-127 63l78 443h461v-154h-338l-35 -199l4 -2q13 21 58 44.5t118 23.5q115 0 196 -82t81 -209q0 -144 -92.5 -225.5t-229.5 -81.5q-127 0 -208.5 62t-119.5 165z" />
    <glyph glyph-name="six.numr" horiz-adv-x="784" 
d="M420 707q75 0 111 42t36 111q0 66 -39.5 108t-113.5 42q-71 0 -112.5 -45t-41.5 -105q0 -72 44 -112.5t116 -40.5zM231 1040h5q20 35 74 66t139 31q70 0 131 -30.5t102 -98t41 -160.5q0 -137 -87.5 -218t-215.5 -81q-160 0 -259.5 112t-99.5 326q0 124 41 226.5
t123.5 166.5t192.5 64q119 0 188 -62.5t90 -158.5l-151 -39q-29 112 -137 112q-78 0 -126.5 -72.5t-50.5 -183.5z" />
    <glyph glyph-name="seven.numr" horiz-adv-x="626" 
d="M33 559l401 717l-2 4h-432v154h596v-181l-369 -694h-194z" />
    <glyph glyph-name="eight.numr" horiz-adv-x="704" 
d="M233 1198q0 -42 29.5 -71t87.5 -29t88.5 29t30.5 71q0 44 -30.5 75.5t-88.5 31.5t-87.5 -31.5t-29.5 -75.5zM193 1036v4q-115 50 -115 174q0 96 77.5 163t194.5 67q119 0 199 -67t80 -163q0 -121 -115 -174v-4q71 -28 110.5 -87t39.5 -136q0 -123 -88 -193.5t-226 -70.5
q-136 0 -222.5 70.5t-86.5 193.5q0 79 38.5 137.5t113.5 85.5zM201 831q0 -129 149 -129q152 0 152 129q0 62 -41 100t-111 38t-109.5 -38t-39.5 -100z" />
    <glyph glyph-name="nine.numr" horiz-adv-x="770" 
d="M80 760l149 55q16 -58 52.5 -87.5t105.5 -29.5q74 0 117 60t37 188h-4q-9 -30 -60.5 -63t-140.5 -33q-110 0 -197.5 81t-87.5 214q0 135 88 217t219 82q67 0 125.5 -25.5t107.5 -77.5t78 -142.5t29 -209.5q0 -219 -83.5 -329.5t-235.5 -110.5q-72 0 -128 19.5t-89 52.5
t-52 66.5t-30 72.5zM365 995q67 0 108 35t41 103q0 71 -42 116t-114 45q-66 0 -107.5 -42.5t-41.5 -106.5q0 -67 42.5 -108.5t113.5 -41.5z" />
    <glyph glyph-name="zero.dnom" horiz-adv-x="784" 
d="M391 -10q-151 0 -240.5 112.5t-89.5 348.5q0 213 90.5 323.5t239.5 110.5t240.5 -110.5t91.5 -323.5q0 -236 -90 -348.5t-242 -112.5zM391 150q81 0 119.5 66.5t38.5 234.5q0 146 -39 209t-119 63q-79 0 -118.5 -63.5t-39.5 -208.5q0 -168 38.5 -234.5t119.5 -66.5z" />
    <glyph glyph-name="one.dnom" horiz-adv-x="536" 
d="M219 0v682l-188 -117v185l200 124h152v-874h-164z" />
    <glyph glyph-name="two.dnom" horiz-adv-x="718" 
d="M61 0v127q0 110 58 180q48 57 192 129q106 54 136 79q55 45 55 110q0 47 -36.5 78.5t-96.5 31.5q-74 0 -111.5 -41.5t-46.5 -124.5l-160 21q9 140 93.5 217.5t226.5 77.5q125 0 208 -72.5t83 -198.5q0 -53 -18.5 -97t-53.5 -77.5t-71.5 -57t-86.5 -46.5
q-89 -46 -123.5 -67.5t-48.5 -43.5q-14 -20 -14 -55h422v-170h-607z" />
    <glyph glyph-name="three.dnom" horiz-adv-x="776" 
d="M31 287l162 37q24 -185 172 -185q72 0 112.5 32.5t40.5 92.5q0 125 -147 125h-68v131h49q60 0 91.5 26.5t31.5 76.5q0 53 -29.5 82.5t-89.5 29.5q-110 0 -129 -129l-155 29q12 117 89.5 183.5t200.5 66.5q117 0 194 -64t77 -172q0 -70 -35 -114.5t-72 -59.5v-4
q22 -6 44.5 -20.5t47.5 -39.5t40.5 -66.5t15.5 -92.5q0 -113 -80.5 -187.5t-228.5 -74.5q-139 0 -227.5 75.5t-106.5 221.5z" />
    <glyph glyph-name="four.dnom" horiz-adv-x="778" 
d="M41 174v154l332 546h235v-546h99v-154h-99v-174h-168v174h-399zM197 328h245v397h-4z" />
    <glyph glyph-name="five.dnom" horiz-adv-x="772" 
d="M61 217l152 72q44 -146 176 -146q70 0 115 41t45 117q0 74 -45.5 116t-110.5 42q-114 0 -178 -90l-127 63l78 442h461v-153h-338l-35 -199l4 -2q13 21 58 44.5t118 23.5q115 0 196 -82t81 -209q0 -144 -92.5 -225.5t-229.5 -81.5q-127 0 -208.5 62t-119.5 165z" />
    <glyph glyph-name="six.dnom" horiz-adv-x="784" 
d="M420 147q75 0 111 42.5t36 111.5q0 66 -39.5 108t-113.5 42q-71 0 -112.5 -45t-41.5 -105q0 -72 44 -113t116 -41zM231 481h5q20 35 74 66t139 31q70 0 131 -30.5t102 -98t41 -160.5q0 -137 -87.5 -218t-215.5 -81q-160 0 -259.5 112t-99.5 326q0 124 41 226.5
t123.5 166.5t192.5 64q119 0 188 -62.5t90 -158.5l-151 -39q-29 112 -137 112q-78 0 -126.5 -72.5t-50.5 -183.5z" />
    <glyph glyph-name="seven.dnom" horiz-adv-x="626" 
d="M33 0l401 717l-2 4h-432v153h596v-180l-369 -694h-194z" />
    <glyph glyph-name="eight.dnom" horiz-adv-x="704" 
d="M233 639q0 -42 29.5 -71t87.5 -29t88.5 29t30.5 71q0 44 -30.5 75t-88.5 31t-87.5 -31t-29.5 -75zM193 477v4q-115 50 -115 174q0 96 77.5 163t194.5 67q119 0 199 -67t80 -163q0 -121 -115 -174v-4q71 -28 110.5 -87t39.5 -136q0 -123 -88 -193.5t-226 -70.5
q-136 0 -222.5 70.5t-86.5 193.5q0 79 38.5 137.5t113.5 85.5zM201 272q0 -129 149 -129q152 0 152 129q0 62 -41 100t-111 38t-109.5 -38t-39.5 -100z" />
    <glyph glyph-name="nine.dnom" horiz-adv-x="770" 
d="M80 201l149 55q16 -58 52.5 -87.5t105.5 -29.5q74 0 117 60t37 188h-4q-9 -30 -60.5 -63t-140.5 -33q-110 0 -197.5 81t-87.5 214q0 135 88 217t219 82q67 0 125.5 -25.5t107.5 -77.5t78 -142.5t29 -209.5q0 -219 -83.5 -329.5t-235.5 -110.5q-72 0 -128 19.5t-89 52.5
t-52 66.5t-30 72.5zM365 436q68 0 108.5 34.5t40.5 102.5q0 71 -42 116.5t-114 45.5q-66 0 -107.5 -42.5t-41.5 -106.5q0 -67 42.5 -108.5t113.5 -41.5z" />
    <glyph glyph-name="plusinferior" horiz-adv-x="872" 
d="M365 -319v303h-273v139h273v274h145v-274h270v-139h-270v-303h-145z" />
    <glyph glyph-name="minusinferior" horiz-adv-x="811" 
d="M719 -16h-627v139h627v-139z" />
    <glyph glyph-name="zero.tnum" 
d="M666 -31q-123 0 -221.5 46t-171.5 138.5t-112.5 240.5t-39.5 343q0 180 41 320.5t114.5 228.5t172 133t217.5 45q120 0 218.5 -45t171.5 -133t113.5 -228.5t40.5 -320.5q0 -384 -146 -576t-398 -192zM666 193q153 0 228 129.5t75 416.5q0 502 -303 502q-304 0 -304 -502
q0 -287 75.5 -416.5t228.5 -129.5z" />
    <glyph glyph-name="one.tnum" 
d="M246 233h354v930l-309 -194v260l330 205h208v-1201h336v-233h-919v233z" />
    <glyph glyph-name="two.tnum" 
d="M178 0v180q0 192 88 307q82 102 322 224q164 86 202 111q97 64 122 141q12 35 12 79q0 84 -67.5 145.5t-186.5 61.5q-248 0 -273 -297l-229 29q13 230 149 356.5t365 126.5q209 0 340 -120t131 -318q0 -53 -12 -101.5t-30.5 -86t-50 -73.5t-61 -62t-73 -54.5t-76.5 -47
t-80 -42.5q-186 -95 -228 -124q-44 -30 -67 -64q-35 -53 -35 -140h721v-231h-983z" />
    <glyph glyph-name="three.tnum" 
d="M139 469l234 49q22 -169 97 -251.5t212 -82.5q133 0 204.5 64t71.5 170q0 119 -75 178t-215 59h-88v195h69q35 0 68 5t67 19t58.5 35t40.5 56t16 79q0 94 -61 149.5t-166 55.5q-203 0 -240 -235l-221 41q19 189 145.5 299t323.5 110q194 0 319 -106t125 -297
q0 -60 -19 -110.5t-49.5 -83.5t-60 -53t-59.5 -32v-6q47 -13 90 -41.5t81.5 -72.5t61.5 -110.5t23 -145.5q0 -196 -136.5 -316.5t-371.5 -120.5q-227 0 -372 125.5t-173 374.5z" />
    <glyph glyph-name="four.tnum" 
d="M123 293v223l555 918h360v-918h170v-223h-170v-293h-229v293h-686zM358 516h451v739h-4z" />
    <glyph glyph-name="six.tnum" 
d="M709 188q130 0 203 80.5t73 208.5q0 127 -75.5 205t-209.5 78q-130 0 -209 -83t-79 -196q0 -132 82.5 -212.5t214.5 -80.5zM1155 1096l-219 -58q-57 211 -248 211q-138 0 -228.5 -130t-94.5 -355l2 -2q131 188 385 188q85 0 166 -31.5t146.5 -90t105.5 -151.5t40 -206
q0 -155 -68.5 -270.5t-181 -173.5t-251.5 -58q-123 0 -227.5 43.5t-186.5 130.5t-129 229.5t-47 327.5q0 213 70 385.5t203.5 275.5t307.5 103q101 0 182.5 -30t135.5 -83t88 -117t49 -138z" />
    <glyph glyph-name="five.tnum" 
d="M135 360l227 93q36 -121 114 -193t196 -72q130 0 211.5 77t81.5 218q0 139 -80 214t-205 75q-193 0 -299 -160l-193 95l125 727h750v-224h-567l-64 -366l2 -2q38 44 116.5 80t201.5 36q85 0 165 -35t142 -96t99.5 -152.5t37.5 -197.5q0 -157 -71 -274t-189 -175.5
t-264 -58.5q-208 0 -343.5 107t-193.5 284z" />
    <glyph glyph-name="seven.tnum" 
d="M266 0l674 1208v4h-709v222h951v-250l-643 -1184h-273z" />
    <glyph glyph-name="nine.tnum" 
d="M188 326l215 75q57 -217 275 -217q140 0 216.5 116.5t72.5 358.5h-4q-4 -15 -18 -35t-43 -46t-67 -47t-97 -35.5t-126 -14.5q-91 0 -176 33.5t-152.5 94.5t-108 155t-40.5 205q0 112 40 206.5t108.5 157t159.5 97t192 34.5q91 0 172 -26t152.5 -84t123 -144.5t81.5 -214
t30 -284.5q0 -376 -139 -559t-383 -183q-87 0 -161 20.5t-126.5 54.5t-93 81t-65 96.5t-38.5 104.5zM645 690q125 0 202 71t77 195q0 127 -79 210t-210 83q-118 0 -194 -78t-76 -202q0 -125 75.5 -202t204.5 -77z" />
    <glyph glyph-name="eight.tnum" 
d="M664 1262q-112 0 -170 -57t-58 -140q0 -82 63 -138.5t165 -56.5t165.5 56.5t63.5 138.5q0 83 -58.5 140t-170.5 57zM664 -31q-236 0 -381.5 116.5t-145.5 324.5q0 130 74 234t188 140v4q-188 82 -188 297q0 158 125.5 268.5t327.5 110.5t330 -110.5t128 -268.5
q0 -214 -190 -297v-4q111 -38 185.5 -141.5t74.5 -232.5q0 -208 -146 -324.5t-382 -116.5zM664 190q144 0 216 66.5t72 173.5q0 108 -79 176t-209 68t-209.5 -67.5t-79.5 -176.5q0 -107 72.5 -173.5t216.5 -66.5z" />
    <glyph glyph-name="Euro.tnum" 
d="M57 633h142q-2 31 -2 96v53h-140v170h160q25 126 79 225.5t127 161t159 93.5t180 32q200 0 341.5 -141t164.5 -369l-250 -39q-9 66 -27.5 121.5t-48 103t-75 74.5t-103.5 27q-104 0 -182.5 -71t-112.5 -218h295v-170h-318v-57q0 -49 3 -92h315v-170h-289
q37 -137 112.5 -203.5t176.5 -66.5q116 0 181 101t81 267l248 -29q-20 -264 -156 -413.5t-354 -149.5q-99 0 -184.5 29.5t-157 88t-123.5 154.5t-78 222h-164v170z" />
    <glyph glyph-name="dollar.tnum" 
d="M92 483l254 56q26 -157 86 -238.5t184 -99.5q0 75 1 225t1 225q-249 70 -356.5 170.5t-107.5 243.5q0 76 31 145t88.5 123.5t146.5 89t198 39.5v125h105v-127q183 -14 308.5 -110.5t162.5 -274.5l-227 -61q-30 93 -86 151t-158 70v-385q200 -60 313.5 -126t158 -141
t44.5 -182q0 -192 -136.5 -308.5t-379.5 -123.5v-170h-107v174q-224 20 -359 149.5t-165 360.5zM723 621v-428q134 0 207.5 53t73.5 149q0 81 -58.5 129t-222.5 97zM393 1069q0 -65 49.5 -106.5t175.5 -79.5v356q-115 -4 -170 -52t-55 -118z" />
    <glyph glyph-name="sterling.tnum" 
d="M156 0v223h67q49 0 78 25.5t29 79.5v301h-174v166h174v223q0 226 113 336t305 110q182 0 291.5 -104t134.5 -301l-226 -45q-22 126 -62.5 180.5t-133.5 54.5q-183 0 -183 -225v-229h373v-166h-373v-406h602v-223h-1015z" />
    <glyph glyph-name="yen.tnum" 
d="M129 254v190h414v166h-414v189h303l-358 635h264l321 -598h5l325 598h266l-362 -635h305v-189h-414v-166h414v-190h-416v-254h-239v254h-414z" />
    <glyph glyph-name="cent.tnum" 
d="M915 432l232 -49q-31 -189 -141 -297t-289 -117v-194h-72v196q-205 14 -333 164.5t-128 407.5q0 248 129.5 402t331.5 169v178h72v-178q172 -9 284.5 -119t133.5 -280l-220 -37q-33 209 -198 225v-721q163 18 198 250zM416 543q0 -157 59.5 -251.5t169.5 -109.5v719
q-106 -15 -167.5 -108.5t-61.5 -249.5z" />
    <glyph glyph-name="florin.tnum" 
d="M238 -354l194 1118h-201l33 188h201l49 254q32 167 109.5 243.5t203.5 76.5q155 0 271 -129l-123 -172q-61 69 -121 69q-45 0 -73.5 -26t-41.5 -94l-41 -222h289l-33 -188h-288l-195 -1118h-233z" />
    <glyph glyph-name="percent.tnum" 
d="M406 999q80 0 121.5 69.5t41.5 188.5q0 116 -42 176t-121 60t-120.5 -60t-41.5 -176q0 -119 41 -188.5t121 -69.5zM406 834q-148 0 -243 108.5t-95 319.5q0 98 29 176.5t78 126.5t108 73t123 25t123.5 -25.5t108 -73.5t78 -126.5t29.5 -175.5q0 -195 -97 -311.5
t-242 -116.5zM938 -43q80 0 122 69.5t42 188.5q0 116 -42.5 176t-121.5 60t-120.5 -60t-41.5 -176q0 -119 41 -188.5t121 -69.5zM938 -209q-148 0 -243 108.5t-95 319.5q0 98 29 177t78 127t108 73t123 25t123.5 -25.5t108.5 -73.5t78.5 -127t29.5 -176q0 -194 -97.5 -311
t-242.5 -117zM45 412l1155 780l86 -131l-1153 -780z" />
    <glyph glyph-name="perthousand.tnum" horiz-adv-x="2662" 
d="M666 999q80 0 121.5 69.5t41.5 188.5q0 116 -42 176t-121 60t-120.5 -60t-41.5 -176q0 -119 41 -188.5t121 -69.5zM666 834q-148 0 -243 108.5t-95 319.5q0 98 29 176.5t78 126.5t108 73t123 25t123.5 -25.5t108.5 -73.5t78.5 -126.5t29.5 -175.5q0 -194 -97.5 -311
t-242.5 -117zM1198 -43q80 0 122 69.5t42 188.5q0 116 -42.5 176t-121.5 60t-120.5 -60t-41.5 -176q0 -119 41 -188.5t121 -69.5zM1198 -209q-148 0 -243 108.5t-95 319.5q0 98 29 177t78 127t108 73t123 25t123.5 -25.5t108.5 -73.5t78.5 -127t29.5 -176q0 -194 -97.5 -311
t-242.5 -117zM305 412l1155 780l86 -131l-1153 -780zM2015 -43q80 0 122 69.5t42 188.5q0 116 -42.5 176t-121.5 60t-120.5 -60t-41.5 -176q0 -119 41 -188.5t121 -69.5zM2015 -209q-148 0 -243 108.5t-95 319.5q0 98 29 177t78 127t108 73t123 25t123.5 -25.5t108.5 -73.5
t78.5 -127t29.5 -176q0 -194 -97.5 -311t-242.5 -117z" />
    <glyph glyph-name="plus.tnum" 
d="M569 205v459h-407v182h407v414h193v-414h407v-182h-407v-459h-193z" />
    <glyph glyph-name="minus.tnum" 
d="M131 664v184h1069v-184h-1069z" />
    <glyph glyph-name="plusminus.tnum" 
d="M150 856v184h417v322h195v-322h418v-184h-418v-364h-195v364h-417zM197 176v184h944v-184h-944z" />
    <glyph glyph-name="multiply.tnum" 
d="M203 360l332 330l-312 311l133 134l312 -312l309 310l131 -134l-309 -309l329 -328l-131 -133l-329 330l-332 -332z" />
    <glyph glyph-name="divide.tnum" 
d="M489 1161q0 73 51.5 124.5t123.5 51.5q75 0 126.5 -51t51.5 -125t-51.5 -125t-126.5 -51q-72 0 -123.5 51.5t-51.5 124.5zM489 279q0 75 51.5 126.5t123.5 51.5q75 0 126.5 -51.5t51.5 -126.5q0 -74 -51.5 -124.5t-126.5 -50.5q-72 0 -123.5 51t-51.5 124zM272 633v184
h787v-184h-787z" />
    <glyph glyph-name="equal.tnum" 
d="M190 479v185h949v-185h-949zM190 844v184h949v-184h-949z" />
    <glyph glyph-name="notequal.tnum" 
d="M190 844v184h553l138 246l116 -70l-100 -176h242v-184h-346l-101 -180h447v-185h-551l-139 -248l-115 68l100 180h-244v185h349l100 180h-449z" />
    <glyph glyph-name="less.tnum" 
d="M215 649l2 144l799 477l100 -162l-647 -387l647 -389l-102 -164z" />
    <glyph glyph-name="greater.tnum" 
d="M1114 793l2 -144l-799 -481l-102 164l647 389l-647 387l100 162z" />
    <glyph glyph-name="greaterequal.tnum" 
d="M1116 184v-184h-887v184h887zM1114 930l2 -144l-799 -481l-104 166l645 387l-645 387l102 162z" />
    <glyph glyph-name="lessequal.tnum" 
d="M213 0v184h887v-184h-887zM213 786l2 144l799 477l102 -162l-645 -387l645 -387l-104 -166z" />
    <glyph glyph-name="approxequal.tnum" 
d="M432 989q-35 0 -62 -17t-44 -48.5t-25.5 -56t-17.5 -60.5l-142 45q22 133 99.5 227.5t197.5 94.5q56 0 111 -18.5t98.5 -45t84.5 -52.5t83.5 -44.5t79.5 -18.5q29 0 53 13t39 30t28 45t19 47.5t13 47.5l141 -45q-22 -133 -99.5 -227.5t-197.5 -94.5q-68 0 -137.5 28
t-117 61t-103.5 61t-101 28zM432 545q-35 0 -62 -17t-44 -49t-25.5 -56.5t-17.5 -60.5l-142 46q14 85 50 155t100.5 118t146.5 48q68 0 137 -28t116 -61t103 -61t101 -28q36 0 63.5 17t44.5 48.5t26 56t18 60.5l141 -45q-14 -85 -50 -155t-100.5 -118t-146.5 -48
q-68 0 -137.5 28t-117 61t-103.5 61t-101 28z" />
    </font>
</defs>
</svg>
